<?xml version="1.0" encoding="utf-8"?>
<!-- Generator: Adobe Illustrator 23.1.0, SVG Export Plug-In . SVG Version: 6.00 Build 0)  -->
<svg version="1.1" id="layer" xmlns="http://www.w3.org/2000/svg" xmlns:xlink="http://www.w3.org/1999/xlink" x="0px" y="0px"
	 viewBox="0 0 1260 480" style="enable-background:new 0 0 1260 480;" xml:space="preserve">
<style type="text/css">
	.st0{fill:#0066CC;}
</style>
<g>
	<path class="st0" d="M442.49,162.92l43.67,89.14l-91.06,0.12L442.49,162.92z M399.31,100.37L264.22,369.83h71.45l34.64-72.54
		h136.41l32.36,72.54h130.64l-129.2-269.46H399.31z"/>
	<path class="st0" d="M978.04,130.93c-12.63-34.89-48.96-30.31-48.96-30.31H826.83c0,0-36.33-4.57-48.96,30.31
		s-8.42,190.79,0,207.03s17.56,31.88,48.36,31.88h55.09h48.24c30.8,0,39.82-15.64,48.36-31.88
		C986.46,321.71,990.67,165.81,978.04,130.93 M907.79,310.76c0,8.54-6.98,15.4-15.4,15.4h-28.63c-8.54,0-15.4-6.86-15.4-15.4V160.04
		c0-8.42,6.86-15.28,15.4-15.28h28.63c8.54,0,15.4,6.86,15.4,15.28V310.76z"/>
	<path class="st0" d="M747.32,369.83h-76.63V193.12H619.2c-0.36,0.72,0-47.88,0-47.88l82.76-44.51h45.59L747.32,369.83z"/>
</g>
</svg>
