<?xml version="1.0" encoding="utf-8"?>
<!-- Generator: Adobe Illustrator 23.1.0, SVG Export Plug-In . SVG Version: 6.00 Build 0)  -->
<svg version="1.1" id="layer" xmlns="http://www.w3.org/2000/svg" xmlns:xlink="http://www.w3.org/1999/xlink" x="0px" y="0px"
	 viewBox="0 0 1260 480" style="enable-background:new 0 0 1260 480;" xml:space="preserve">
<style type="text/css">
	.st0{fill:#939598;}
	.st1{fill:#ED1C24;}
	.st2{fill:#00A651;}
	.st3{fill:#F7941E;}
	.st4{fill:#5B57A6;}
</style>
<g>
	<rect x="504.65" y="121.97" class="st0" width="13.96" height="204.01"/>
	<path d="M345.27,101.98c-43.42,44.45-61.86,81.33-66.51,96.66c-6.2-15.34-23.26-52.21-68.06-96.66h-3.1c-1.55,1.55-1.55,3.1,0,4.65
		c55.65,55.14,68.06,101.14,68.06,101.14c0,1.55,1.55,1.55,3.1,1.55s1.55,0,1.55-1.55c1.55,0,13.96-46.01,69.61-101.14
		c0-1.55,0-3.1,0-4.65C348.37,101.98,346.82,101.98,345.27,101.98z"/>
	<path class="st1" d="M258.6,204.68c15.51,10.68,15.51,27.57,0,38.25c-117.68,78.23-117.68,78.23-117.68,78.23
		c-15.51,10.68-27.91,3.1-27.91-15.34c0-162.48,0-162.48,0-162.48c0-19.99,12.41-26.02,27.91-15.34L258.6,204.68z"/>
	<path class="st2" d="M359.22,302.89c7.75,4.65,7.75,13.78,0,18.44c-58.76,38.25-58.76,38.25-58.76,38.25
		c-7.75,6.2-13.96,3.1-13.96-7.58c0-81.33,0-81.33,0-81.33c0-9.13,6.2-12.23,13.96-7.58L359.22,302.89z"/>
	<path class="st3" d="M198.29,302.89c-7.75,4.65-7.75,13.78,0,18.44c58.76,38.25,58.76,38.25,58.76,38.25
		c7.75,6.2,13.96,3.1,13.96-7.58c0-81.33,0-81.33,0-81.33c0-9.13-6.2-12.23-13.96-7.58L198.29,302.89z"/>
	<path class="st4" d="M297.37,204.68c-15.51,10.68-15.51,27.57,0,38.25c117.68,78.23,117.68,78.23,117.68,78.23
		c17.06,10.68,29.46,3.1,29.46-15.34c0-162.48,0-162.48,0-162.48c0-19.99-12.41-26.02-29.46-15.34L297.37,204.68z"/>
	<path d="M673.33,141.79L673.33,141.79l-27.91,65.99h55.65L673.33,141.79z M653.17,111.12h43.42l74.26,156.45h-43.42l-15.51-35.32
		h-77.36l-15.51,35.32h-40.32L653.17,111.12z M919.39,266.02c-13.96,1.55-29.46,4.65-43.25,4.65c-62.03,0-103.73-26.02-103.73-78.23
		c0-53.59,38.77-84.26,103.73-84.26c12.41,0,29.46,1.55,43.25,6.2c-3.1,27.57-3.1,27.57-3.1,27.57
		c-13.96-7.58-27.91-9.13-41.87-9.13c-38.77,0-63.41,24.47-63.41,56.69s24.81,56.69,64.96,56.69c15.51,0,32.57-3.1,41.87-7.58
		L919.39,266.02z M987.62,135.76h-54.1v-24.47h146.98v24.47h-54.1v131.81h-38.77L987.62,135.76L987.62,135.76z M1109.78,152.64
		h35.49v114.93h-35.49V152.64z M1109.78,101.98h35.49v29.12h-35.49V101.98z M611.48,362.68c-3.1,0-7.75,0-10.86,0
		c-15.51,0-26.36-7.58-26.36-22.92c0-15.34,10.86-24.47,26.36-24.47c3.1,0,7.75,0,10.86,1.55c0,7.58,0,7.58,0,7.58
		c-4.65-1.55-7.75-3.1-10.86-3.1c-9.3,0-15.51,7.58-15.51,18.44c0,9.13,4.65,16.89,15.51,16.89c3.1,0,7.75-1.55,10.86-3.1V362.68z
		 M633.19,356.48c7.75,0,9.3-6.2,9.3-12.23c0-4.65-3.1-10.68-9.3-10.68c-4.65,0-7.75,6.2-7.75,10.68
		C625.43,350.45,626.98,356.48,633.19,356.48z M633.19,327.36c10.86,0,18.61,6.2,18.61,18.44c0,9.13-6.2,16.89-18.61,16.89
		c-10.86,0-17.06-7.58-17.06-16.89C616.13,333.56,623.88,327.36,633.19,327.36z M659.38,327.36c9.3,0,9.3,0,9.3,0
		c0,4.65,0,4.65,0,4.65l0,0c3.1-3.1,6.2-4.65,10.86-4.65c9.3,0,12.41,6.2,12.41,13.78c0,21.54,0,21.54,0,21.54c-9.3,0-9.3,0-9.3,0
		c0-18.44,0-18.44,0-18.44c0-4.65,0-10.68-6.2-10.68c-6.2,0-7.75,7.58-7.75,12.23c0,16.89,0,16.89,0,16.89c-9.3,0-9.3,0-9.3,0
		V327.36z M701.25,327.36c9.3,0,9.3,0,9.3,0c0,4.65,0,4.65,0,4.65l0,0c1.55-3.1,6.2-4.65,10.86-4.65c7.75,0,12.41,6.2,12.41,13.78
		c0,21.54,0,21.54,0,21.54c-9.3,0-9.3,0-9.3,0c0-18.44,0-18.44,0-18.44c0-4.65,0-10.68-6.2-10.68c-6.2,0-7.75,7.58-7.75,12.23
		c0,16.89,0,16.89,0,16.89c-9.3,0-9.3,0-9.3,0V327.36z M764.66,341.14c0-3.1-1.55-7.58-7.75-7.58c-4.65,0-7.75,3.1-7.75,7.58H764.66
		z M770.86,361.13c-3.1,1.55-7.75,1.55-12.41,1.55c-10.86,0-18.61-6.2-18.61-16.89c0-10.68,6.2-18.44,17.06-18.44
		c12.41,0,17.06,7.58,17.06,19.99c-24.81,0-24.81,0-24.81,0c0,6.2,4.65,9.13,10.86,9.13c3.1,0,7.75-1.55,10.86-3.1V361.13z
		 M803.42,335.11c-1.55,0-3.1-1.55-6.2-1.55c-6.2,0-9.3,4.65-9.3,10.68c0,7.58,3.1,12.23,9.3,12.23c3.1,0,6.2-1.55,7.75-1.55
		c0,7.58,0,7.58,0,7.58c-3.1,0-4.65,0-9.3,0c-10.86,0-17.06-7.58-17.06-18.44c0-9.13,6.2-16.89,17.06-16.89c3.1,0,6.2,0,9.3,0
		L803.42,335.11z M814.11,335.11c-6.2,0-6.2,0-6.2,0c0-7.58,0-7.58,0-7.58c6.2,0,6.2,0,6.2,0c0-6.2,0-6.2,0-6.2
		c9.3-3.1,9.3-3.1,9.3-3.1c0,9.13,0,9.13,0,9.13c7.75,0,7.75,0,7.75,0c0,7.58,0,7.58,0,7.58c-7.75,0-7.75,0-7.75,0
		c0,15.34,0,15.34,0,15.34c0,3.1,0,6.2,4.65,6.2c1.55,0,3.1,0,3.1-1.55c0,7.58,0,7.58,0,7.58c-1.55,0-3.1,0-6.2,0
		c-7.75,0-10.86-3.1-10.86-10.68V335.11z M837.37,327.36h9.3v35.32h-9.3V327.36z M837.37,312.02h9.3v9.13h-9.3V312.02z
		 M855.98,327.36c9.3,0,9.3,0,9.3,0c0,4.65,0,4.65,0,4.65l0,0c3.1-3.1,6.2-4.65,12.41-4.65c7.75,0,10.86,6.2,10.86,13.78
		c0,21.54,0,21.54,0,21.54c-9.3,0-9.3,0-9.3,0c0-18.44,0-18.44,0-18.44c0-4.65,0-10.68-6.2-10.68c-6.2,0-7.75,7.58-7.75,12.23
		c0,16.89,0,16.89,0,16.89c-9.3,0-9.3,0-9.3,0V327.36z M920.94,344.24c0-6.2-1.55-10.68-7.75-10.68c-6.2,0-7.75,6.2-7.75,10.68
		c0,6.2,3.1,10.68,7.75,10.68C919.39,354.93,920.94,350.45,920.94,344.24z M930.24,327.36c0,32.22,0,32.22,0,32.22
		c0,9.13-3.1,18.44-18.61,18.44c-3.1,0-7.75-1.55-12.41-3.1c1.55-7.58,1.55-7.58,1.55-7.58c3.1,1.55,7.75,3.1,9.3,3.1
		c10.86,0,10.86-7.58,10.86-13.78l0,0c-1.55,3.1-6.2,6.2-10.86,6.2c-10.86,0-13.96-7.58-13.96-18.44c0-7.58,4.65-16.89,13.96-16.89
		c4.65,0,9.3,1.55,10.86,4.65c1.55,0,1.55,0,1.55,0c0-4.65,0-4.65,0-4.65h7.75V327.36z M955.05,315.12h10.86L976.76,352l12.41-36.87
		h9.3l-15.51,47.56h-12.41L955.05,315.12z M1004.5,327.36h9.3v35.32h-9.3V327.36z M1004.5,312.02h9.3v9.13h-9.3V312.02z
		 M1044.82,335.11c-3.1-1.55-4.65-1.55-9.3-1.55c-1.55,0-4.65,1.55-4.65,4.65c0,4.65,15.51,1.55,15.51,13.78
		c0,7.58-7.75,10.68-13.96,10.68c-4.65,0-7.75,0-10.86,0c0-7.58,0-7.58,0-7.58c3.1,1.55,6.2,1.55,9.3,1.55s6.2,0,6.2-4.65
		c0-6.2-15.51-1.55-15.51-13.78c0-7.58,6.2-10.68,13.96-10.68c3.1,0,6.2,0,9.3,1.55V335.11z M1054.13,327.36h9.3v35.32h-9.3V327.36z
		 M1054.13,312.02h9.3v9.13h-9.3V312.02z M1088.07,356.48c7.75,0,9.3-6.2,9.3-12.23c0-4.65-3.1-10.68-9.3-10.68
		c-4.65,0-7.75,6.2-7.75,10.68C1080.49,350.45,1081.87,356.48,1088.07,356.48z M1088.07,327.36c10.86,0,18.61,6.2,18.61,18.44
		c0,9.13-6.2,16.89-18.61,16.89c-10.86,0-17.06-7.58-17.06-16.89C1071.19,333.56,1078.77,327.36,1088.07,327.36z M1114.43,327.36
		c9.3,0,9.3,0,9.3,0c0,4.65,0,4.65,0,4.65l0,0c1.55-3.1,6.2-4.65,10.86-4.65c7.75,0,12.41,6.2,12.41,13.78c0,21.54,0,21.54,0,21.54
		c-9.3,0-9.3,0-9.3,0c0-18.44,0-18.44,0-18.44c0-4.65,0-10.68-6.2-10.68s-7.75,7.58-7.75,12.23c0,16.89,0,16.89,0,16.89
		c-9.3,0-9.3,0-9.3,0V327.36z"/>
</g>
</svg>
