<?xml version="1.0" encoding="utf-8"?>
<!-- Generator: Adobe Illustrator 23.1.0, SVG Export Plug-In . SVG Version: 6.00 Build 0)  -->
<svg version="1.1"
	 id="svg2" xmlns:inkscape="http://www.inkscape.org/namespaces/inkscape" xmlns:sodipodi="http://sodipodi.sourceforge.net/DTD/sodipodi-0.dtd" xmlns:svg="http://www.w3.org/2000/svg"
	 xmlns="http://www.w3.org/2000/svg" xmlns:xlink="http://www.w3.org/1999/xlink" x="0px" y="0px" viewBox="0 0 1260 480"
	 style="enable-background:new 0 0 1260 480;" xml:space="preserve">
<style type="text/css">
	.st0{fill:#00A0C8;}
</style>
<g>
	<path id="path122" class="st0" d="M367.5,326.6c12.4,13.8,28.7,20.6,48.8,20.6c20.1,0,36.4-6.9,48.8-20.6
		c12.4-13.8,18.6-30.7,18.6-50.9c0-19.7-6.2-36.4-18.6-50.1c-12.4-13.8-28.7-20.6-48.8-20.6c-20.1,0-36.4,6.9-48.8,20.6
		c-12.4,13.8-18.6,30.5-18.6,50.1C348.9,295.9,355.1,312.8,367.5,326.6 M503.4,97h0.8c9.9,0,17.9,8,17.9,17.9l-0.2,244.8
		c0,10.1-8.2,18.3-18.2,18.3s-18.2-8.2-18.2-18.3v-7.5c-22.1,20.4-41.6,30.7-70.7,30.7c-29.7,0-54.2-10.3-73.6-31
		c-19.4-20.7-29.1-46.1-29.1-76.2c0-29.7,9.7-54.8,29.1-75.5c19.4-20.7,43.7-31,72.8-31c29.1,0,49.1,9.8,71.5,30.5l0.2-84.8
		C485.5,105,493.5,97,503.4,97"/>
	<path id="path126" class="st0" d="M658.8,352.6L658.8,352.6c3.9,8.1,0.6,17.9-7.4,21.8c-11.8,5.7-25.3,8.5-40.5,8.5
		c-21.5,0-37.8-6.7-48.7-20c-10.9-13.3-16.3-32.1-16.3-56.5V205.4l0.4-31.2l0-58.9c0-9.9,8-17.9,17.9-17.9c9.9,0,17.9,8,17.9,17.9
		l0,58.9H633c8.6,0,15.6,7,15.6,15.6s-7,15.6-15.6,15.6h-51.1v103.8c0,26.9,11,40.3,33.1,40.3c7.5,0,15.1-1.6,23-4.8
		C646,341.4,655,345,658.8,352.6"/>
	<path id="path130" class="st0" d="M677.9,359.8V191.5c0-9.5,7.7-17.3,17.3-17.3c9.5,0,17.3,7.7,17.3,17.3v8.6
		c11.3-18.3,32.6-31.2,58.5-31.2c2,0,4,0.1,6,0.2c9.9,0.6,17.3,9.3,16.3,19.2c-0.9,9.4-9.2,16.4-18.7,15.8c-1.5-0.1-3-0.2-4.5-0.2
		c-16.2,0-28.2,5.6-38.7,16.7c-10.5,11.2-17.2,29-17.2,50.8v88.3c0,10.1-8.2,18.2-18.2,18.2C686.1,378,677.9,369.8,677.9,359.8"/>
	<path id="path134" class="st0" d="M839.8,326.6c12.3,13.8,28.5,20.7,48.7,20.7c20.2,0,36.5-6.9,49-20.7
		c12.5-13.8,18.8-30.7,18.8-50.9c0-19.7-6.3-36.4-18.8-50.2c-12.5-13.8-28.9-20.7-49-20.7c-20.2,0-36.4,6.9-48.7,20.7
		c-12.3,13.8-18.4,30.6-18.4,50.5C821.3,296,827.5,312.9,839.8,326.6 M975.7,174.2L975.7,174.2c9.7,0,17.5,7.8,17.5,17.5v168.8
		c0,9.7-7.8,17.5-17.5,17.5c-9.7,0-17.5-7.8-17.5-17.5v-8.6c-18.6,19.5-42.2,31.1-71.9,31.1c-29.1,0-53.4-10.4-72.8-31.2
		c-19.4-20.8-29.1-46.5-29.1-77.2c0-30.4,9.6-55.6,28.9-75.5c19.3-19.9,43.6-29.8,73-29.8c28.9,0,50.5,10.4,71.9,30.4v-8
		C958.2,182.1,966,174.2,975.7,174.2"/>
	<path id="path138" class="st0" d="M1015.9,360.5V191.7c0-9.7,7.8-17.5,17.5-17.5h0.8c9.7,0,17.5,7.8,17.5,17.5v7.3
		c15.4-19.6,34.5-30.1,64.6-30.1c22.8,0,41.9,7.4,57.4,22.1c15.5,14.7,23.2,35.9,23.2,63.5v106.1c0,9.7-7.8,17.5-17.5,17.5h-1.1
		c-9.7,0-17.5-7.8-17.5-17.5v-95.8c0-19.8-4.8-35-14.4-45.8c-9.6-10.8-20.8-16.2-36.3-16.2c-16.5,0-30,5.8-40.5,17.5
		c-10.5,11.7-17.2,28-17.2,46.2v94c0,9.7-7.8,17.5-17.5,17.5h-1.5C1023.8,378,1015.9,370.2,1015.9,360.5"/>
	<path id="path142" class="st0" d="M102.9,307.4c-11.8,0-22.7,8.5-27.1,19.4l-11,24.9C59.2,364.3,68,378,82.9,378
		c8.6,0,16.4-4.8,19.6-12.2l26.4-58.4H102.9z"/>
	<path id="path146" class="st0" d="M312.3,351.8L206,108.8c-6.7-15.2-28.3-15.2-34.9,0.1l-54,124.8c-7.7,19,4.6,34.3,25.1,34.3h2.3
		l44.1-104.8l85.9,202.6c3.1,7.3,10.9,12.2,19.6,12.2h0.1C309.1,378,317.9,364.3,312.3,351.8"/>
	<path id="path150" class="st0" d="M214.8,287.7c0,14.5-11.8,26.3-26.3,26.3c-14.5,0-26.3-11.8-26.3-26.3s11.8-26.3,26.3-26.3
		C203.1,261.4,214.8,273.2,214.8,287.7"/>
</g>
</svg>
