<?xml version="1.0" encoding="utf-8"?>
<!-- Generator: Adobe Illustrator 23.1.0, SVG Export Plug-In . SVG Version: 6.00 Build 0)  -->
<svg version="1.1" id="Layer_1" xmlns:svg="http://www.w3.org/2000/svg"
	 xmlns="http://www.w3.org/2000/svg" xmlns:xlink="http://www.w3.org/1999/xlink" x="0px" y="0px" viewBox="0 0 1260 480"
	 style="enable-background:new 0 0 1260 480;" xml:space="preserve">
<style type="text/css">
	.st0{fill-rule:evenodd;clip-rule:evenodd;fill:#FA110D;}
</style>
<g id="g3">
	<path id="path5" class="st0" d="M322.91,222.21c1.05-0.87,2.28-1.14,3.71,0c0.25,0.23,0.46,0.51,0.59,0.82l0,0l22.44,49.74l0,0
		c0.88,2.22,0.93,4.73-0.78,7.33c-1.87,2.57-4.23,3.33-6.58,3.32l0,0H303.7l0,0c-0.74,0-1.49-0.17-2.17-0.46
		c-0.69-0.29-1.32-0.72-1.84-1.24c-1.66-1.73-2.17-3.92-1.36-6.2l0,0l23.98-52.49l0,0C322.46,222.72,322.66,222.45,322.91,222.21
		L322.91,222.21z M230.08,331.16L230.08,331.16L230.08,331.16c-0.58,1.03-1.28,1.99-2.07,2.86c-1.76,1.9-3.76,3.2-5.79,3.96l0,0
		l-17.54,6.31l0,0c-1.69,0.61-3.28,1.53-4.65,2.7c-1.36,1.18-2.51,2.62-3.34,4.2c-0.83,1.59-1.34,3.34-1.56,4.81
		c-0.22,1.48-0.14,2.67,0.12,3.81c0.26,1.15,0.72,2.25,1.34,3.25c0.63,0.99,1.42,1.88,2.35,2.61c1.91,1.53,4.28,2.25,6.54,2.23l0,0
		l70.7,0.04l0,0c1.13,0,2.25-0.2,3.31-0.57c1.06-0.38,2.06-0.94,2.94-1.64c1.94-1.57,3.05-3.61,3.49-5.63c0.5-2.22,0.18-5.16-1-8.1
		c-0.63-1.5-1.52-2.9-2.62-4.11c-2.43-2.62-5.8-4.06-8.77-5.99c-1.6-0.98-2.47-2.42-2.83-3.82c-0.36-1.43-0.26-3.15,0.66-4.72l0,0
		l5.1-8.36l0,0c0.56-0.92,1.33-1.69,2.18-2.34c0.85-0.65,1.82-1.17,2.85-1.44c1.03-0.27,2.11-0.08,3.19-0.08l0,0h80.91l0,0
		c1.4,0,2.81,0.17,4.12,0.68c1.31,0.52,2.52,1.32,3.53,2.32c1.01,1,1.87,2.17,2.4,3.49l0,0l14.3,35.28l0,0
		c0.39,0.95,1.05,1.79,1.79,2.51c1.58,1.52,3.62,2.35,5.58,2.39l0,0l81.65,0.04l0,0c1.53,0,3.06-0.25,4.49-0.79
		c1.43-0.54,2.75-1.35,3.88-2.39c3.45-3.13,4.57-7.87,3.66-11.99c-0.29-1.29-0.78-2.53-1.44-3.67c-0.66-1.15-1.5-2.19-2.48-3.08
		c-0.98-0.88-2.08-1.65-3.3-2.17l0,0l-10.36-4.41l0,0c-1.92-0.81-3.67-1.99-5.31-3.27c-1.65-1.28-3.15-2.74-4.48-4.35
		c-1.33-1.61-2.61-3.3-3.43-5.21l0,0l-87.55-204.39l0,0c-0.57-1.33-1.66-2.38-2.77-3.32c-2.31-1.97-5.18-3.03-7.95-3.06l0,0
		l-78.08,0.11l0,0c-1.23,0-2.46,0.18-3.63,0.56c-1.17,0.38-2.28,0.96-3.26,1.7c-0.99,0.74-1.85,1.64-2.55,2.65
		c-0.7,1.01-1.23,2.14-1.57,3.33c-0.75,2.38-0.5,5.75,0.94,9.07c0.75,1.71,1.85,3.26,3.18,4.57c1.34,1.31,2.93,2.34,4.64,3.1l0,0
		l10.13,4.48l0,0c1.02,0.45,2.05,0.9,2.96,1.53c0.91,0.63,1.75,1.39,2.47,2.24c0.72,0.85,1.39,1.77,1.81,2.8l0,0l4.96,12.39l0,0
		c1.12,3.32,0.94,7.06-0.89,10.61l0,0L230.08,331.16L230.08,331.16z M689.47,263.16c0.93,0.73,1.73,1.62,2.72,3.06
		c0.99,1.45,2.18,3.46,3.31,5.12c1.14,1.66,2.23,2.97,3.54,4.01c2.69,2.11,6.24,2.98,9.53,2.53c1.68-0.22,3.31-0.77,4.77-1.61
		c1.46-0.84,2.82-1.93,3.8-3.31l0,0l30.31-42.07l0,0c1.93-2.75,2.7-6.18,2.38-9.4c-0.16-1.64-0.61-3.25-1.33-4.74
		c-0.71-1.48-1.69-2.85-2.87-4c-3.93-3.74-8.83-4.86-13.71-3.57c-1.57,0.45-3.06,1.19-6.24,3.2c-3.17,2.01-8.05,5.28-11.31,7.37
		c-3.27,2.09-4.93,2.98-6.67,3.7c-3.53,1.41-7.28,2.26-10.98,2.35l0,0h-77.61l-0.03-72.17l77.85-0.03l0,0
		c5.62-0.04,11.44,0.85,17.08,3.04c2.72,1.05,5.36,2.3,7.79,3.9l0,0l23.58,15.53l0,0c4.11,2.82,9.13,3.29,13.88-0.49
		c2.02-1.79,4.25-4.6,5.82-6.98c2.15-3.43,2.48-6.75,1.33-10.34c-0.39-1.11-0.96-2.15-1.63-3.13l0,0l-21.8-31.52l0,0
		c-1.1-1.59-2.42-3.04-3.95-4.22c-3.19-2.46-7.04-3.76-10.76-3.79l0,0l-194.7,0.31l0,0c-1.68,0-3.38-0.17-4.98,0.32
		c-1.61,0.49-3.1,1.36-4.39,2.46c-1.29,1.1-2.37,2.44-3.18,3.92c-1.6,2.92-2.08,6.5-1.24,9.83c0.41,1.64,1.13,3.2,2.11,4.58
		c0.98,1.38,2.19,2.61,3.63,3.5l0,0l8.05,4.96l0,0c0.95,0.58,1.81,1.3,2.51,2.16c1.48,1.79,2.19,4.02,2.18,6.16l0,0l0.09,172.9l0,0
		c0,1.64-0.28,3.27-0.85,4.8c-1.16,2.93-2.94,5.16-6.9,7.31c-1.88,1.05-4.28,2.21-6.19,3.33c-1.92,1.12-3.35,2.21-4.5,3.54
		c-2.39,2.77-3.46,6.46-3.19,9.89c0.14,1.77,0.62,3.52,1.42,5.11c0.8,1.59,1.91,3.02,3.25,4.19c2.79,2.48,6.43,3.47,9.85,3.36l0,0
		l195.07,0.03l0,0c2.13,0,4.27-0.23,6.32-0.84c2.05-0.61,4-1.53,5.75-2.75c1.76-1.21,3.37-2.66,4.62-4.4l0,0l23.35-32.33l0,0
		c2.58-3.62,3.21-7.99,1.53-12.33c-0.54-1.34-1.3-2.58-2.25-3.68c-0.94-1.09-2.07-2.02-3.66-2.86c-3.19-1.72-7.98-2.66-12.14-1.53
		c-2.08,0.52-3.98,1.56-5.8,2.7l0,0l-25.87,16.07l0,0c-4.43,2.75-9.8,3.54-14.86,4.55c-5.05,1.02-10.25,1.55-15.46,1.54l0,0
		l-68.78-0.15l0.03-70.74h67.23l0,0C687.54,261.51,688.55,262.44,689.47,263.16L689.47,263.16z M992.23,119.73
		c-0.91,0.62-1.99,0.92-3.04,0.87c-0.54-0.03-1.06-0.14-2.06-0.49c-1-0.35-2.47-0.94-3.94-1.5c-1.48-0.57-2.97-1.11-11.09-2.68
		c-8.12-1.57-22.86-4.17-37.64-4.03s-29.58,3.02-43.52,8.19c-13.94,5.17-27.02,12.63-38.02,21.18c-11,8.55-19.93,18.2-27.29,28.92
		c-7.37,10.72-13.16,22.5-17.12,34.87c-3.96,12.37-6.07,25.32-6.34,37.95c-0.27,12.63,1.29,24.92,4.69,36.68s8.65,23,15.55,33.07
		c6.9,10.07,15.46,18.97,22.97,25.44c7.51,6.46,13.97,10.48,20.65,14.04c6.68,3.57,13.58,6.69,20.68,9.3
		c7.09,2.61,14.39,4.71,24.71,6.47c10.33,1.75,23.7,3.15,37.06,2.96c13.36-0.18,26.71-1.96,39.66-5.28
		c12.94-3.32,25.48-8.17,35.32-12.77c9.84-4.6,16.98-8.97,22.2-12.43c5.22-3.46,8.53-6.02,10.45-7.63c1.92-1.61,2.45-2.26,2.88-2.98
		c0.43-0.72,0.77-1.49,0.99-2.29c0.22-0.8,0.32-1.64,0.4-2.92c0.09-1.29,0.16-3.01-0.15-4.67c-0.31-1.64-1-3.22-2.2-4.61
		c-1.2-1.41-2.9-2.64-4.01-3.6c-2.23-1.93-2.46-3.02-2.96-4.6c-0.2-0.8-0.27-1.63-0.27-2.45l0,0l-0.11-33.1l0,0
		c-0.01-2.34,0.49-4.83,1.73-7.19c0.58-1.1,1.29-2.13,2.12-3.06l0,0l7.25-8.16l0,0c2.3-2.62,3.36-6.07,3.19-9.3
		c-0.09-1.68-0.49-3.34-1.2-4.86c-0.7-1.53-1.7-2.91-2.92-4.07c-2.57-2.44-5.95-3.63-9.15-3.61l0,0l-85.15,0.01l0,0
		c-1.42,0-2.83,0.33-4.16,0.85c-1.32,0.52-2.55,1.28-3.61,2.23c-1.06,0.95-1.95,2.08-2.62,3.34c-1.33,2.49-1.76,5.47-1.15,8.27
		c0.3,1.39,0.85,2.72,1.61,3.92c0.76,1.2,1.73,2.28,2.87,3.13c3.18,3.09,7.17,5.25,9.36,7.11c2.2,1.87,3.07,2.88,3.78,4.01
		c1.46,2.3,2.1,4.97,2.06,7.57l0,0l-0.01,43.94l0,0c0,1.85-0.27,3.71-0.84,5.48c-0.56,1.76-1.41,3.44-2.49,4.94
		c-1.09,1.51-2.41,2.84-3.9,3.96c-1.49,1.12-3.14,2.02-7.02,3.03c-3.87,1.02-9.96,2.12-16.07,2.12c-6.1-0.01-12.22-1.14-17.99-3.24
		c-5.76-2.1-11.18-5.17-15.89-9.06c-4.72-3.89-8.75-8.61-11.77-13.26c-3.03-4.66-5.06-9.26-6.87-13.94
		c-1.8-4.67-3.38-9.42-4.7-14.24c-1.33-4.81-2.39-9.71-3.26-17.87c-0.86-8.16-1.52-19.59-0.56-30.9c0.95-11.31,3.51-22.51,7.46-33.2
		c3.96-10.69,9.31-20.87,14.33-28.1c5.02-7.23,9.7-11.52,15.01-14.82c10.5-6.57,23.66-9.12,35.92-6.52
		c6.07,1.27,11.86,3.77,17.95,7.37c6.09,3.59,12.47,8.28,18.71,13.12c6.24,4.84,12.34,9.85,18.24,15.07c1.27,1.3,2.77,2.39,4.4,3.2
		c3.23,1.59,7.06,2.06,10.65,1.23c1.78-0.41,3.48-1.13,5.02-2.11c1.54-0.98,2.9-2.23,4.02-3.67c2.33-2.99,3.45-6.66,3.37-10.19
		c-0.34-6.08-1.52-12.26-3.65-18.31c-1.04-2.94-2.16-5.88-3.72-8.59l0,0l-19.36-33.51l0,0c-0.59-1.03-1.37-1.95-2.3-2.69
		c-2.86-2.22-6.49-2.73-10.06-1.01c-1.07,0.53-2.05,1.26-2.89,2.49c-0.84,1.23-1.55,2.97-2.02,4.08c-0.47,1.11-0.71,1.6-1.03,2.02
		C993.07,119.06,992.68,119.43,992.23,119.73L992.23,119.73z"/>
</g>
</svg>
