<?xml version="1.0" encoding="utf-8"?>
<!-- Generator: Adobe Illustrator 23.1.0, SVG Export Plug-In . SVG Version: 6.00 Build 0)  -->
<svg version="1.1" id="Layer_1" xmlns="http://www.w3.org/2000/svg" xmlns:xlink="http://www.w3.org/1999/xlink" x="0px" y="0px"
	 viewBox="0 0 1260 480" style="enable-background:new 0 0 1260 480;" xml:space="preserve">
<style type="text/css">
	.st0{fill:#FE5000;}
	.st1{fill:#2DABE2;}
	.st2{fill:#F6A63E;}
	.st3{opacity:0.46;enable-background:new    ;}
	.st4{fill:#F4A43E;}
	.st5{fill:#E85418;}
	.st6{fill:#FAA548;}
	.st7{opacity:0.39;enable-background:new    ;}
	.st8{fill:#595554;}
	.st9{enable-background:new    ;}
	.st10{fill:#002C3F;}
</style>
<g>
	<g id="Layer_1_4_">
		<g>
			<g>
				<g>
					<g>
						<g>
							<g>
								<path class="st0" d="M356.14,118.92h-35.13c-1.25,0-1.88,0.63-1.88,1.88v143.04c0,1.25,0.63,1.88,1.88,1.88h115.43
									c1.25,0,1.88-0.63,1.88-1.88v-25.72c0-1.25-0.63-1.88-1.88-1.88h-75.91c-1.25,0-1.88-0.63-1.88-1.88V121.43
									C358.65,120.17,357.4,118.92,356.14,118.92z"/>
							</g>
							<g>
								<path class="st0" d="M583.25,118.92H440.84c-1.25,0-1.88,0.63-1.88,1.88v25.72c0,1.25,0.63,1.88,1.88,1.88h48.93
									c1.25,0,1.88,0.63,1.88,1.88v113.55c0,1.25,0.63,1.88,1.88,1.88h35.76c1.25,0,1.88-0.63,1.88-1.88V150.91
									c0-1.25,0.63-1.88,1.88-1.88h48.93c1.25,0,1.88-0.63,1.88-1.88v-25.72C585.13,120.17,584.5,118.92,583.25,118.92z"/>
							</g>
							<g>
								<path class="st0" d="M649.12,120.17l-69.01,143.04c-0.63,1.25,0.63,3.14,1.88,3.14h38.27c0.63,0,1.88-0.63,1.88-1.25
									l11.29-24.47c0.63-0.63,1.25-1.25,1.88-1.25h69.01c0.63,0,1.88,0.63,1.88,1.25l11.29,24.47c0.63,0.63,1.25,1.25,1.88,1.25
									h39.52c1.88,0,2.51-1.88,1.88-3.14l-69.01-143.04c-0.63-0.63-1.25-1.25-1.88-1.25h-38.27
									C650.37,118.92,649.12,119.55,649.12,120.17z M689.27,210.51h-38.9c-1.88,0-2.51-1.88-1.88-3.14l19.45-43.29
									c0.63-1.88,3.14-1.88,3.76,0l19.45,43.29C691.78,208.63,690.53,210.51,689.27,210.51z"/>
							</g>
							<g>
								<path class="st0" d="M937.71,183.54c3.76-8.78,3.76-15.68,3.76-19.45c0-19.45-10.67-36.39-30.11-42.03
									c-6.27-1.88-11.92-2.51-24.47-2.51h-98.5c-1.25,0-1.88,0.63-1.88,1.88v143.04c0,1.25,0.63,1.88,1.88,1.88h35.13
									c1.25,0,1.88-0.63,1.88-1.88v-53.95c0-1.25,0.63-1.88,1.88-1.88h35.13c0.63,0,1.25,0.63,1.88,0.63l37.01,55.84
									c0.63,0.63,1.25,0.63,1.88,0.63h41.41c1.88,0,2.51-1.88,1.88-3.14L906.34,208c-0.63-1.25,0-3.14,1.25-3.14
									C921.39,202.36,932.06,196.71,937.71,183.54z M826.04,149.66c0-1.25,0.63-1.88,1.88-1.88h52.7c7.53,0,14.43,0.63,18.19,6.27
									c2.51,3.76,2.51,8.78,2.51,10.04c0,10.67-7.53,13.8-11.29,15.06c-1.88,0.63-5.02,0.63-6.9,0.63c-1.25,0-1.88,0-1.88,0
									h-53.95c-1.25,0-1.88-0.63-1.88-1.88v-28.23H826.04z"/>
							</g>
							<g>
								<path class="st0" d="M1131.56,143.39c-3.14-4.39-7.53-8.16-11.92-11.29c-5.02-3.76-9.41-5.65-11.92-6.9
									c-15.06-7.53-34.51-10.67-51.44-10.67c-1.88,0-3.14,0-5.02,0c-19.45,0.63-40.78,5.65-57.09,18.19
									c-10.67,8.16-27.6,26.35-27.6,60.23c0,22.59,8.16,37.64,13.17,45.17c10.67,15.68,33.88,33.25,77.17,33.25
									c28.86,0,47.68-8.16,57.72-15.06c22.59-15.06,28.23-36.39,30.11-46.42c1.88-8.16,1.88-15.68,1.88-18.82
									C1147.25,166.6,1137.83,150.29,1131.56,143.39z M1107.09,192.95c0,8.78-2.51,35.76-29.49,45.17
									c-8.78,3.14-16.94,3.14-20.08,3.14c-17.57,0-28.23-5.65-33.25-10.67c-3.76-3.14-6.27-6.27-6.9-8.16
									c-3.14-4.39-4.39-6.9-5.02-9.41c-3.76-8.16-3.76-17.57-3.76-20.08c0-9.41,1.88-33.88,27.6-45.17
									c8.78-3.76,16.94-4.39,20.08-4.39c0.63,0,1.25,0,1.88,0c13.8,0,28.23,5.02,37.64,15.06
									C1105.84,171.62,1107.09,187.3,1107.09,192.95z"/>
							</g>
						</g>
						<g>
							<g>
								<path class="st0" d="M141.58,206.12h71.52c0.63,0,1.88,0.63,1.88,1.25l6.27,13.8c0.63,0.63,0.63,1.88,0,2.51l-5.65,13.8
									c-0.63,0.63-1.25,1.25-1.88,1.25h-45.8L141.58,206.12z"/>
							</g>
							<g>
								<path class="st1" d="M156.01,265.09l11.92-25.72l-26.35-33.25l-27.6,57.09c-0.63,1.25,0.63,3.14,1.88,3.14h38.27
									C155.39,266.35,156.01,265.72,156.01,265.09z"/>
							</g>
							<g>
								<g>
									<path class="st2" d="M202.44,163.46L202.44,163.46L202.44,163.46z"/>
								</g>
								<g class="st3">
									<path class="st4" d="M202.44,163.46L202.44,163.46L202.44,163.46z"/>
								</g>
								<g>
									<path class="st5" d="M182.99,120.17L182.99,120.17L182.99,120.17L182.99,120.17z"/>
								</g>
								<g class="st3">
									<path class="st4" d="M182.99,120.17L182.99,120.17L182.99,120.17L182.99,120.17z"/>
								</g>
								<g>
									<g>
										<path class="st6" d="M202.44,163.46l-19.45-41.41c0-0.63,0-1.25,0-1.88l0,0l-3.14,6.27l-38.27,79.67h41.41L202.44,163.46
											L202.44,163.46L202.44,163.46z"/>
									</g>
									<g>
										<path class="st0" d="M292.15,263.21l-69.01-143.04c-0.63-0.63-1.25-1.25-1.88-1.25h-36.39c-0.63,0-1.88,0.63-1.88,1.25
											l0,0l0,0c0,0.63,0,1.25,0,1.88l19.45,41.41l0,0l47.05,101.63c0.63,0.63,1.25,1.25,1.88,1.25h39.52
											C292.15,266.35,292.78,264.47,292.15,263.21z"/>
									</g>
								</g>
								<g class="st3">
									<path class="st4" d="M182.99,122.06c0-0.63,0-1.25,0-1.88l0,0l-3.14,6.27l22.59,37.01l0,0l0,0L182.99,122.06z"/>
								</g>
							</g>
							<g class="st7">
								<polygon class="st8" points="141.58,206.12 139.07,211.77 167.93,239.37 								"/>
							</g>
						</g>
					</g>
				</g>
			</g>
		</g>
	</g>
	<g>
		<g class="st9">
			<path class="st10" d="M115.86,350.42c-1.88,0-2.51-0.63-2.51-2.51v-33.25c0-3.14,0.63-5.65,2.51-7.53
				c1.25-1.25,4.39-2.51,8.16-2.51h3.14c3.14,0,6.27,0,8.16,0.63c2.51,0.63,4.39,1.25,5.65,2.51c1.88,1.25,3.14,2.51,3.76,4.39
				c0.63,1.88,1.25,4.39,1.25,7.53c0,2.51,0,4.39-0.63,6.27c-0.63,1.88-1.25,3.14-1.88,4.39c-1.25,1.25-2.51,1.88-3.76,2.51
				c-1.25,0.63-3.14,1.25-5.02,1.25c-1.88,0.63-4.39,0.63-6.9,0.63H119v13.17c0,1.88-0.63,2.51-2.51,2.51L115.86,350.42
				L115.86,350.42z M119,329.71h8.78c5.02,0,8.16-0.63,10.04-1.88c1.88-1.25,3.14-3.76,3.14-7.53c0-3.76-1.25-6.27-3.14-7.53
				c-1.88-1.25-5.65-1.88-10.04-1.88h-3.76c-1.88,0-3.14,0.63-3.76,1.25c-0.63,0.63-1.25,1.88-1.25,3.14V329.71L119,329.71z"/>
			<path class="st10" d="M167.93,315.91c4.39,0,8.16,1.25,10.67,3.14s3.76,5.65,3.76,9.41v11.92c0,3.14-0.63,5.65-2.51,7.53
				c-1.25,1.88-4.39,2.51-8.16,2.51h-6.27c-4.39,0-7.53-0.63-9.41-2.51c-1.88-1.25-3.14-3.76-3.14-7.53s1.25-6.27,3.14-7.53
				c1.88-1.25,5.02-2.51,9.41-2.51h11.92v-1.88c0-2.51-0.63-4.39-2.51-5.65s-4.39-1.88-7.53-1.88s-5.65,0.63-9.41,1.25
				c-0.63,0-1.25,0-1.88,0c-0.63-0.63-1.25-0.63-1.25-1.88v-0.63c0-1.25,0.63-2.51,2.51-3.14
				C161.03,316.54,164.8,315.91,167.93,315.91z M171.7,346.02c1.88,0,3.76-0.63,4.39-1.25c0.63-0.63,1.25-1.88,1.25-3.76v-5.02
				h-11.92c-2.51,0-4.39,0.63-5.65,1.25c-1.25,0.63-1.25,1.88-1.25,3.76s0.63,3.14,1.25,3.76c1.25,0.63,3.14,1.25,5.65,1.25H171.7
				L171.7,346.02z"/>
			<path class="st10" d="M207.46,316.54c0.63,0,1.25,0,1.88,0.63s0.63,1.25,0.63,1.88l0,0c0,1.88-0.63,2.51-2.51,2.51
				s-3.76,0-5.02,0c-1.25,0-1.88,0-3.14,0.63c-0.63,0-1.25,0.63-1.88,0.63c-0.63,0.63-0.63,0.63-0.63,1.25c0,0.63,0,0.63,0,1.88
				v22.59c0,1.88-0.63,2.51-2.51,2.51h-0.63c-1.88,0-2.51-0.63-2.51-2.51v-23.21c0-1.25,0-2.51,0.63-3.14
				c0-0.63,0.63-1.88,1.25-2.51c0.63-0.63,1.25-1.25,2.51-1.88c1.25-0.63,2.51-0.63,4.39-0.63
				C203.07,316.54,204.95,316.54,207.46,316.54z"/>
			<path class="st10" d="M236.94,319.05c0,1.88-0.63,2.51-2.51,2.51h-11.92v16.94c0,2.51,0.63,4.39,1.88,5.65
				c1.25,1.25,3.14,1.88,5.02,1.88c1.25,0,1.88,0,3.14-0.63c1.25,0,1.88-0.63,1.88-0.63c0.63,0,1.25,0,1.88,0.63
				c0.63,0.63,0.63,0.63,0.63,1.25v0.63c0,1.25-0.63,1.88-1.88,2.51c-1.88,0.63-3.76,0.63-5.65,0.63s-3.14,0-5.02-0.63
				c-1.25-0.63-3.14-1.25-3.76-1.88c-1.25-1.25-1.88-2.51-2.51-3.76c-0.63-1.88-0.63-3.76-0.63-5.65v-28.23
				c0-1.88,0.63-2.51,2.51-2.51l0,0c1.88,0,2.51,0.63,2.51,2.51v5.65h11.92C236.32,316.54,236.94,317.17,236.94,319.05
				L236.94,319.05L236.94,319.05z"/>
			<path class="st10" d="M288.39,346.65c-3.14,3.14-6.9,4.39-11.92,4.39s-8.78-1.25-11.92-4.39s-4.39-7.53-4.39-13.17
				c0-5.65,1.25-10.04,4.39-13.17s6.9-4.39,11.92-4.39s8.78,1.25,11.92,4.39s4.39,7.53,4.39,13.17S290.9,343.51,288.39,346.65z
				 M265.8,333.48c0,8.16,3.76,12.55,10.67,12.55s10.67-4.39,10.67-12.55s-3.76-12.55-10.67-12.55S265.8,325.32,265.8,333.48z"/>
			<path class="st10" d="M323.52,304.62c0,0.63,0,1.25-0.63,1.88c-0.63,0.63-1.25,0.63-1.88,0.63c-5.02-0.63-8.16-0.63-10.67,0.63
				c-1.88,1.25-3.14,3.14-3.14,6.27v3.14h11.92c1.88,0,2.51,0.63,2.51,2.51l0,0c0,1.88-0.63,2.51-2.51,2.51h-11.92v26.35
				c0,1.88-0.63,2.51-2.51,2.51h-0.63c-1.88,0-2.51-0.63-2.51-2.51V313.4c0-2.51,0.63-5.02,1.25-6.9c1.25-1.88,2.51-3.14,3.76-3.76
				c1.88-0.63,3.76-1.25,6.27-1.88c2.51,0,5.02,0,8.16,0.63C322.26,302.11,322.89,302.74,323.52,304.62L323.52,304.62L323.52,304.62
				z"/>
		</g>
		<g class="st9">
			<path class="st10" d="M383.12,305.25h3.14c1.88,0,3.14,1.25,3.14,3.14v38.9c0,1.88-1.25,3.14-3.14,3.14h-3.14
				c-1.88,0-3.14-1.25-3.14-3.14v-15.68h-21.33v15.68c0,1.88-1.25,3.14-3.14,3.14h-3.14c-1.88,0-3.14-1.25-3.14-3.14v-38.9
				c0-1.88,1.25-3.14,3.14-3.14h3.14c1.88,0,3.14,1.25,3.14,3.14v14.43h21.33v-14.43C379.98,306.5,381.24,305.25,383.12,305.25z"/>
			<path class="st10" d="M397.55,327.83c0-15.06,8.78-23.21,21.33-23.21s21.33,8.16,21.33,23.21s-8.78,23.21-21.33,23.21
				S397.55,343.51,397.55,327.83z M430.17,327.83c0-11.29-4.39-15.06-10.67-15.06s-10.67,3.76-10.67,15.06s4.39,15.06,10.67,15.06
				S430.17,339.12,430.17,327.83z"/>
			<path class="st10" d="M481.61,350.42h-4.39c-1.88,0-3.14-0.63-3.76-2.51l-8.78-15.68h-6.27v15.68c0,1.88-1.25,3.14-3.14,3.14
				h-3.14c-1.88,0-3.14-1.25-3.14-3.14v-32.62c0-7.53,3.14-10.04,10.67-10.04h5.65c12.55,0,19.45,3.14,19.45,13.8
				c0,7.53-3.14,10.67-10.04,12.55l9.41,15.68C485.38,349.16,484.12,350.42,481.61,350.42z M465.93,324.07
				c6.9,0,8.78-1.88,8.78-5.65s-1.88-5.65-8.78-5.65h-5.02c-2.51,0-3.14,1.25-3.14,3.14v8.16L465.93,324.07L465.93,324.07z"/>
			<path class="st10" d="M493.53,347.28v-33.25c0-6.9,1.88-8.78,8.16-8.78c4.39,0,6.9,1.25,10.04,7.53l11.29,25.09
				c0.63,0.63,0.63,1.25,1.25,1.25c0.63,0,0.63-0.63,0.63-1.25v-29.49c0-1.88,1.25-3.14,3.14-3.14h3.14c1.88,0,3.14,1.25,3.14,3.14
				v33.25c0,6.9-1.88,8.78-8.16,8.78c-4.39,0-6.9-1.25-10.04-7.53l-11.29-25.09c-0.63-0.63-0.63-1.25-1.25-1.25
				c-0.63,0-0.63,0.63-0.63,1.25v29.49c0,1.88-1.25,3.14-3.14,3.14h-3.14C494.79,350.42,493.53,349.79,493.53,347.28z"/>
			<path class="st10" d="M544.35,341.01v-25.72c0-7.53,3.14-10.04,10.67-10.04h18.82c1.88,0,3.14,1.25,3.14,3.14v1.88
				c0,1.88-1.25,3.14-3.14,3.14h-16.31c-3.14,0-3.14,1.25-3.14,3.14v6.9h16.31c1.88,0,3.14,1.25,3.14,3.14v1.88
				c0,1.88-1.25,3.14-3.14,3.14h-16.31v7.53c0,1.88,0.63,3.14,3.14,3.14h17.57c1.88,0,3.14,1.25,3.14,3.14v1.88
				c0,1.88-1.25,3.14-3.14,3.14h-20.08C547.49,350.42,544.35,347.91,544.35,341.01z"/>
			<path class="st10" d="M621.52,308.38v2.51c0,1.88-1.25,3.14-3.14,3.14h-11.29v33.25c0,1.88-1.25,3.14-3.14,3.14h-3.76
				c-1.88,0-3.14-1.25-3.14-3.14v-33.25h-11.29c-1.88,0-3.14-1.25-3.14-3.14v-2.51c0-1.88,1.25-3.14,3.14-3.14h32.62
				C620.26,305.25,621.52,306.5,621.52,308.38z"/>
			<path class="st10" d="M625.28,346.02v-1.25c0-1.88,1.25-3.14,3.76-3.14c8.78,1.88,18.82,1.88,18.82-3.76
				c0-1.88-1.25-3.76-6.27-5.65l-4.39-1.88c-8.78-3.76-11.92-7.53-11.92-13.17c0-11.92,12.55-14.43,26.98-11.29
				c1.88,0.63,3.14,1.88,3.14,3.76v1.25c0,1.88-1.25,3.14-3.76,3.14c-8.16-1.25-16.31-1.25-16.31,3.14c0,1.88,1.25,3.76,5.65,5.65
				l3.76,1.88c8.78,3.76,12.55,7.53,12.55,13.8c0,13.17-15.06,15.06-30.11,11.92C625.91,349.16,625.28,347.91,625.28,346.02z"/>
			<path class="st10" d="M664.8,341.01v-25.72c0-7.53,3.14-10.04,10.67-10.04h18.82c1.88,0,3.14,1.25,3.14,3.14v1.88
				c0,1.88-1.25,3.14-3.14,3.14h-16.31c-3.14,0-3.14,1.25-3.14,3.14v6.9h16.31c1.88,0,3.14,1.25,3.14,3.14v1.88
				c0,1.88-1.25,3.14-3.14,3.14h-16.31v7.53c0,1.88,0.63,3.14,3.14,3.14h17.57c1.88,0,3.14,1.25,3.14,3.14v1.88
				c0,1.88-1.25,3.14-3.14,3.14h-20.08C668.57,350.42,664.8,347.91,664.8,341.01z"/>
			<path class="st10" d="M735.7,305.87c1.88,0.63,2.51,1.88,2.51,3.76v2.51c0,2.51-1.25,3.14-3.76,2.51
				c-14.43-3.14-19.45,1.88-19.45,13.17s5.02,16.31,19.45,13.17c2.51-0.63,3.76,0.63,3.76,2.51v3.14c0,1.88-1.25,3.14-3.14,3.76
				c-18.82,4.39-30.74-4.39-30.74-21.96C704.33,309.64,716.87,300.85,735.7,305.87z"/>
			<path class="st10" d="M786.51,308.38v23.84c0,13.17-5.65,19.45-20.08,19.45s-20.08-6.27-20.08-19.45v-23.84
				c0-1.88,1.25-3.14,3.14-3.14h3.14c1.88,0,3.14,1.25,3.14,3.14v24.47c0,6.9,3.14,10.04,10.67,10.04s10.67-3.14,10.67-10.04v-24.47
				c0-1.88,1.25-3.14,3.14-3.14h3.14C785.88,305.25,786.51,306.5,786.51,308.38z"/>
			<path class="st10" d="M829.8,350.42h-4.39c-1.88,0-3.14-0.63-3.76-2.51l-8.78-16.31h-6.27v15.68c0,1.88-1.25,3.14-3.14,3.14
				h-3.14c-1.88,0-3.14-1.25-3.14-3.14v-32c0-7.53,3.14-10.04,10.67-10.04h5.65c12.55,0,19.45,3.14,19.45,13.8
				c0,7.53-3.14,10.67-10.04,12.55l9.41,15.68C833.56,349.16,832.31,350.42,829.8,350.42z M814.12,324.07c6.9,0,8.78-1.88,8.78-5.65
				s-1.88-5.65-8.78-5.65h-5.02c-2.51,0-3.14,1.25-3.14,3.14v8.16L814.12,324.07L814.12,324.07z"/>
			<path class="st10" d="M842.97,347.28v-38.9c0-1.88,1.25-3.14,3.14-3.14h3.76c1.88,0,3.14,1.25,3.14,3.14v38.9
				c0,1.88-1.25,3.14-3.14,3.14h-3.76C844.23,350.42,842.97,349.79,842.97,347.28z"/>
			<path class="st10" d="M898.81,308.38v2.51c0,1.88-1.25,3.14-3.14,3.14h-11.29v33.25c0,1.88-1.25,3.14-3.14,3.14h-3.76
				c-1.88,0-3.14-1.25-3.14-3.14v-33.25h-11.29c-1.88,0-3.14-1.25-3.14-3.14v-2.51c0-1.88,1.25-3.14,3.14-3.14h32.62
				C898.18,305.25,898.81,306.5,898.81,308.38z"/>
			<path class="st10" d="M938.33,305.25h3.76c2.51,0,3.76,1.88,1.88,3.76l-7.53,11.92c-3.76,5.65-5.65,8.78-8.16,10.04v16.94
				c0,1.88-1.25,3.14-3.14,3.14h-3.76c-1.88,0-3.14-1.25-3.14-3.14v-16.94c-2.51-1.25-4.39-4.39-8.16-10.04l-7.53-11.92
				c-1.25-1.88-0.63-3.76,1.88-3.76h3.76c1.88,0,3.14,0.63,3.76,1.88l6.9,11.92c1.88,3.14,2.51,3.76,3.76,3.76
				c1.25,0,1.88-0.63,3.76-3.76l6.9-11.92C935.82,305.87,936.45,305.25,938.33,305.25z"/>
		</g>
		<g class="st9">
			<path class="st10" d="M987.27,315.91c5.02,0,8.16,0.63,10.04,2.51s3.14,4.39,3.14,7.53v26.98c0,4.39-1.25,7.53-4.39,9.41
				c-2.51,1.88-6.27,3.14-10.67,3.14c-3.14,0-5.65-0.63-8.78-1.25c-1.25-0.63-1.88-1.25-1.88-2.51l0,0c0-0.63,0-1.25,0.63-1.88
				s1.25-0.63,1.88,0c3.14,0.63,5.65,1.25,8.16,1.25c3.14,0,5.65-0.63,6.9-1.88c1.88-1.25,2.51-3.14,2.51-5.65v-1.88
				c-2.51,0.63-5.02,0.63-7.53,0.63c-6.27,0-10.67-1.25-13.17-4.39c-3.14-2.51-4.39-7.53-4.39-13.8s1.25-10.67,4.39-13.8
				C976.6,317.17,981.62,315.91,987.27,315.91z M987.27,346.02c1.88,0,5.02,0,7.53-0.63v-18.82c0-1.25,0-1.88,0-2.51
				s-0.63-1.25-1.25-1.88c-0.63-0.63-1.25-1.25-2.51-1.25s-2.51-0.63-4.39-0.63c-4.39,0-7.53,1.25-9.41,3.14s-3.14,5.02-3.14,10.04
				s1.25,7.53,3.14,10.04C979.74,345.4,982.88,346.02,987.27,346.02z"/>
			<path class="st10" d="M1025.54,316.54c0.63,0,1.25,0,1.88,0.63c0.63,0.63,0.63,1.25,0.63,1.88l0,0c0,1.88-0.63,2.51-2.51,2.51
				s-3.76,0-5.02,0s-1.88,0-3.14,0.63c-0.63,0-1.25,0.63-1.88,0.63c-0.63,0-0.63,0.63-0.63,1.25c0,0.63,0,0.63,0,1.88v22.59
				c0,1.88-0.63,2.51-2.51,2.51h-0.63c-1.88,0-2.51-0.63-2.51-2.51v-23.21c0-1.25,0-2.51,0.63-3.14c0-0.63,0.63-1.88,1.25-2.51
				c0.63-0.63,1.25-1.25,2.51-1.88s2.51-0.63,4.39-0.63C1020.52,316.54,1023.03,316.54,1025.54,316.54z"/>
			<path class="st10" d="M1061.3,346.65c-3.14,3.14-6.9,4.39-11.92,4.39c-5.02,0-8.78-1.25-11.92-4.39
				c-3.14-3.14-4.39-7.53-4.39-13.17c0-5.65,1.25-10.04,4.39-13.17c3.14-3.14,6.9-4.39,11.92-4.39c5.02,0,8.78,1.25,11.92,4.39
				s4.39,7.53,4.39,13.17S1063.81,343.51,1061.3,346.65z M1038.71,333.48c0,8.16,3.76,12.55,10.67,12.55
				c6.9,0,10.67-4.39,10.67-12.55s-3.76-12.55-10.67-12.55S1038.71,325.32,1038.71,333.48z"/>
			<path class="st10" d="M1100.19,319.05c0-1.88,0.63-2.51,2.51-2.51h0.63c1.88,0,2.51,0.63,2.51,2.51v16.31
				c0,3.14-0.63,5.65-1.25,7.53c-0.63,1.88-1.88,3.76-3.14,5.02c-1.25,1.25-3.14,1.88-5.02,2.51c-1.88,0.63-4.39,0.63-6.9,0.63
				c-2.51,0-5.02,0-6.9-0.63s-3.76-1.25-5.02-2.51c-1.25-1.25-2.51-3.14-3.14-5.02c-0.63-1.88-1.25-5.02-1.25-7.53v-16.31
				c0-1.88,0.63-2.51,2.51-2.51h0.63c1.88,0,2.51,0.63,2.51,2.51v16.31c0,4.39,0.63,6.9,2.51,8.78c1.25,1.88,4.39,2.51,8.16,2.51
				c3.76,0,6.27-0.63,8.16-2.51c1.25-1.88,2.51-4.39,2.51-8.78L1100.19,319.05L1100.19,319.05z"/>
			<path class="st10" d="M1128.42,315.91c6.27,0,10.67,1.25,13.8,4.39c3.14,2.51,4.39,7.53,4.39,13.8s-1.25,10.67-4.39,13.17
				c-3.14,2.51-7.53,4.39-13.8,4.39c-1.88,0-4.39,0-7.53-0.63v11.29c0,1.88-0.63,2.51-2.51,2.51h-0.63c-1.88,0-2.51-0.63-2.51-2.51
				v-36.39c0-3.76,1.25-6.27,3.14-7.53C1120.27,316.54,1123.41,315.91,1128.42,315.91z M1128.42,346.02c4.39,0,7.53-1.25,9.41-3.14
				c1.88-1.88,3.14-5.02,3.14-10.04s-1.25-7.53-3.14-10.04c-1.88-1.88-5.02-3.14-9.41-3.14c-1.88,0-3.14,0-4.39,0.63
				c-1.25,0-1.88,0.63-2.51,1.25c-0.63,0.63-0.63,1.25-1.25,1.88c0,0.63,0,1.25,0,2.51v18.82
				C1124.03,346.02,1126.54,346.02,1128.42,346.02z"/>
		</g>
	</g>
</g>
</svg>
