<?xml version="1.0" encoding="utf-8"?>
<!-- Generator: Adobe Illustrator 23.1.0, SVG Export Plug-In . SVG Version: 6.00 Build 0)  -->
<svg version="1.1"
	 id="svg5843" inkscape:version="0.91 r13725" sodipodi:docname="amatek.svg" xmlns:cc="http://creativecommons.org/ns#" xmlns:dc="http://purl.org/dc/elements/1.1/" xmlns:inkscape="http://www.inkscape.org/namespaces/inkscape" xmlns:rdf="http://www.w3.org/1999/02/22-rdf-syntax-ns#" xmlns:sodipodi="http://sodipodi.sourceforge.net/DTD/sodipodi-0.dtd" xmlns:svg="http://www.w3.org/2000/svg"
	 xmlns="http://www.w3.org/2000/svg" xmlns:xlink="http://www.w3.org/1999/xlink" x="0px" y="0px" viewBox="0 0 1260 480"
	 style="enable-background:new 0 0 1260 480;" xml:space="preserve">
<style type="text/css">
	.st0{fill-rule:evenodd;clip-rule:evenodd;fill:#EC2227;}
	.st1{fill-rule:evenodd;clip-rule:evenodd;}
</style>
<g id="layer1" transform="translate(-227.19107,-700.69612)" inkscape:groupmode="layer" inkscape:label="Layer 1">
	<g id="g5980" transform="translate(0.5000061,-0.50001076)">
		<path id="path5733" inkscape:connector-curvature="0" class="st0" d="M398.6,969.23h54.03l-27.75,48.77h-53.15L398.6,969.23"/>
		<g id="g5735" transform="matrix(1.25,0,0,-1.25,248.49107,701.69613)">
			<path id="path5737" inkscape:connector-curvature="0" class="st1" d="M164.95-129.92l69.63-122.9h-48.6l-45.33,79.44
				L164.95-129.92"/>
		</g>
		<g id="g5739" transform="matrix(1.25,0,0,-1.25,270.76607,705.14613)">
			<path id="path5741" inkscape:connector-curvature="0" class="st1" d="M216.52-137.91h54.44l25-55.84l25.7,55.84h55.14v-112.15
				h-40.19v50.93l-23.6-51.4h-33.18l-22.9,51.4v-50.93h-40.42V-137.91"/>
		</g>
		<g id="g5743" transform="matrix(1.25,0,0,-1.25,326.19107,705.07113)">
			<path id="path5745" inkscape:connector-curvature="0" class="st1" d="M344.84-137.73h101.4v-30.14H385.5v-7.94h60.75v-28.74
				H385.5v-13.79h60.75v-31.78h-101.4V-137.73"/>
		</g>
		<g id="g5747" transform="matrix(1.25,0,0,-1.25,401.49107,705.14613)">
			<path id="path5749" inkscape:connector-curvature="0" class="st1" d="M519.18-137.91h101.87v-29.91h-60.98v-7.94h60.98v-28.97
				h-60.98v-13.79h60.98v-31.54l-101.87,0V-137.91"/>
		</g>
		<g id="g5751" transform="matrix(1.25,0,0,-1.25,361.06607,705.07113)">
			<path id="path5753" inkscape:connector-curvature="0" class="st1" d="M425.59-137.73h118.23v-29.91H504.8v-82.24h-40.65v82.24
				h-38.55L425.59-137.73"/>
		</g>
		<g id="g5755" transform="matrix(1.25,0,0,-1.25,437.79107,705.07113)">
			<path id="path5757" inkscape:connector-curvature="0" class="st1" d="M603.23-137.73h42.29v-30.84l27.57,30.84h45.33L678-182.59
				l45.09-67.29h-50.93l-21.96,37.38l-4.67-5.84v-31.54h-42.29V-137.73"/>
		</g>
	</g>
</g>
</svg>
