<?xml version="1.0" encoding="utf-8"?>
<!-- Generator: Adobe Illustrator 23.1.0, SVG Export Plug-In . SVG Version: 6.00 Build 0)  -->
<svg version="1.1" id="Слой_1" xmlns="http://www.w3.org/2000/svg" xmlns:xlink="http://www.w3.org/1999/xlink" x="0px" y="0px"
	 viewBox="0 0 1260 480" style="enable-background:new 0 0 1260 480;" xml:space="preserve">
<style type="text/css">
	.st0{fill:#009640;}
	.st1{fill:#1D1D1B;}
	.st2{fill:none;stroke:#1D1D1B;stroke-width:0.7475;}
	.st3{fill:#DD052B;}
</style>
<g>
	<g id="By_Schneider_Electric">
		<path class="st0" d="M235.8,410c0,1.8-0.4,3.1-1.3,3.8c-0.8,0.7-1.9,1.1-3.3,1.1h-1.1c-1.4,0-2.6-0.3-3.4-1
			c-0.9-0.7-1.3-2-1.3-3.9v-45.1c0-0.2,0.4-0.4,1.2-0.7c0.8-0.3,1.7-0.4,2.7-0.4c0.8,0,1.5,0.1,2.3,0.4c0.8,0.2,1.4,0.7,2,1.3
			c0.6,0.6,1.1,1.5,1.5,2.5c0.4,1.1,0.6,2.4,0.6,4.1l0,12c1.3-1.8,2.9-3.2,4.8-4.3c2-1,4.2-1.6,6.7-1.6c2.4,0,4.6,0.4,6.6,1.3
			c2,0.9,3.8,2.1,5.2,3.7c1.5,1.6,2.6,3.6,3.4,5.9c0.8,2.3,1.3,4.9,1.3,7.7c0,2.8-0.4,5.3-1.2,7.7c-0.8,2.3-1.9,4.3-3.4,5.9
			c-1.5,1.6-3.2,2.9-5.3,3.9c-2.1,0.9-4.3,1.4-6.8,1.4c-2.8,0-5.2-0.6-7.1-1.8c-1.9-1.2-3.4-2.7-4.4-4.4V410z M235.8,398.7
			c0,1.3,0.2,2.4,0.7,3.5c0.5,1.1,1.1,2,1.9,2.7c0.8,0.8,1.8,1.3,2.8,1.8c1.1,0.4,2.3,0.6,3.5,0.6c2.8,0,5-1,6.7-2.9
			c1.7-1.9,2.5-4.5,2.5-7.6c0-3.2-0.8-5.8-2.5-7.7s-3.9-2.9-6.7-2.9c-2.2,0-4.1,0.5-5.6,1.6c-1.5,1.1-2.7,2.5-3.5,4.3V398.7z"/>
		<path class="st0" d="M278.7,426c-0.9,0.2-2.1,0.4-3.4,0.3c-1.3,0-2.6-0.2-3.9-0.4c-1.3-0.3-2.5-0.7-3.6-1.2
			c-1.1-0.6-2-1.3-2.5-2.1c-0.6-0.8-0.8-1.8-0.6-2.9c0.1-1.1,0.8-2.4,2.1-3.7c1.7,0.7,3.3,1.2,4.9,1.5c1.4,0.2,2.7,0.3,4.1,0.2
			c1.4-0.1,2.6-0.7,3.6-1.7c0.5-0.6,1-1.2,1.2-1.7c0.3-0.5,0.5-0.8,0.6-1.1c0.1-0.4,0.2-0.7,0.1-0.9c-0.8-0.1-1.5-0.3-2.1-0.7
			c-0.5-0.3-1-0.9-1.3-1.6l-12.3-28.6c0-0.1,0.1-0.4,0.4-0.7c0.3-0.3,0.7-0.7,1.2-1c0.5-0.3,1.1-0.6,1.8-0.9
			c0.7-0.3,1.5-0.4,2.2-0.4c1.2,0,2.3,0.3,3.3,1c1,0.7,1.8,2.1,2.5,4.1l7.8,20.5l6.9-20.4c0.6-2,1.5-3.4,2.5-4.1
			c1-0.7,2.1-1.1,3.2-1.1c0.7,0,1.4,0.1,2.1,0.4c0.7,0.2,1.3,0.5,1.8,0.9c0.5,0.3,0.9,0.7,1.2,1c0.3,0.3,0.5,0.5,0.4,0.7l-13.1,34.2
			c-0.4,1-0.9,2-1.4,3c-0.6,1.1-1.3,2.1-2.2,3c-0.9,1-1.9,1.9-3.2,2.7C281.9,424.9,280.4,425.6,278.7,426z"/>
		<path class="st1" d="M363.3,400.1c0,3.1-0.8,5.8-2.4,8c-1.6,2.3-3.8,4-6.6,5.2c-2.8,1.2-6.1,1.8-9.8,1.8c-1,0-2.3-0.1-3.8-0.2
			c-1.5-0.1-3.5-0.5-5.9-1.1c-2.5-0.6-5-1.5-7.7-2.6v-12.2c2.5,1.6,4.9,2.8,7.4,3.9c2.4,1,5,1.5,7.8,1.5c2.5,0,4.2-0.4,4.9-1.3
			c0.7-0.8,1.1-1.6,1.1-2.4c0-1.3-0.6-2.5-1.9-3.4c-1.3-0.9-3.1-1.9-5.6-2.8c-2.7-1.1-5.1-2.4-7.1-3.7c-2-1.4-3.7-3-5-5.1
			c-1.3-2-1.9-4.4-1.9-7.2c0-2.7,0.7-5.1,2-7.3c1.3-2.2,3.3-3.9,6-5.2c2.7-1.3,6-1.9,9.9-1.9c2.8,0,5.3,0.3,7.7,0.8
			c2.3,0.5,4.3,1.1,5.8,1.8c1.5,0.7,2.6,1.2,3.1,1.6v11.6c-2-1.5-4.3-2.8-6.8-3.9s-5.2-1.7-8-1.7c-1.9,0-3.2,0.4-4,1.1
			c-0.8,0.7-1.3,1.6-1.3,2.7c0,1,0.4,1.8,1.2,2.5c0.8,0.7,2.3,1.6,4.5,2.6c3.8,1.8,6.9,3.4,9.2,4.8c2.3,1.4,4.1,3.1,5.4,5
			C362.7,395,363.3,397.3,363.3,400.1z"/>
		<path class="st1" d="M402.6,412.8c-1.1,0.4-2.2,0.8-3.4,1.1c-1.2,0.3-2.5,0.6-4,0.9c-1.5,0.2-3.1,0.3-4.9,0.3c-4,0-7.4-0.7-10.1-2
			c-2.8-1.4-4.9-3-6.4-5.1c-1.5-2-2.5-4.1-3.1-6.2c-0.6-2.1-0.9-4-0.9-5.6c0-1.6,0.3-3.5,0.9-5.6c0.6-2.1,1.6-4.2,3.1-6.2
			c1.5-2,3.6-3.6,6.3-5c2.8-1.3,6.2-2,10.2-2c2.7,0,4.9,0.2,6.6,0.6c1.7,0.4,3.4,0.9,5.2,1.5v10.1c-4.2-1.3-7.5-2-9.9-2
			c-2.3,0-4.3,0.7-6.1,2.1c-1.8,1.4-2.7,3.5-2.7,6.4c0,1.9,0.4,3.6,1.3,4.9c0.9,1.3,2,2.3,3.4,2.9c1.4,0.6,2.7,0.9,4.1,0.9
			c1.3,0,2.8-0.2,4.4-0.6c1.6-0.4,3.6-0.9,6-1.6V412.8z"/>
		<path class="st1" d="M447.8,414.6H435v-18.9c0-0.1,0-0.3,0-0.4c0-0.1,0-0.4,0-0.8c0-1.7-0.4-3.3-1.1-4.8c-0.7-1.5-2.1-2.2-4.2-2.2
			c-1.6,0-3.1,0.5-4.3,1.6c-1.2,1.1-2.4,2.5-3.5,4.1v21.4h-12.9v-49.6h12.9v18.4c2.1-2.3,4.2-3.8,6.3-4.6c2.1-0.8,4.3-1.2,6.6-1.2
			c8.7,0,13.1,4.9,13.1,14.7V414.6z"/>
		<path class="st1" d="M494.5,414.6h-12.9v-18.9v-0.7c0-2-0.3-3.8-1-5.3c-0.7-1.5-2.1-2.2-4.3-2.2c-1.1,0-2,0.2-2.8,0.6
			c-0.8,0.4-1.5,0.9-2.1,1.5c-0.6,0.6-1.2,1.2-1.6,1.8c-0.4,0.6-0.9,1.2-1.3,1.8v21.4h-12.9v-36.5h12.9v5.3c2-2.2,4.1-3.7,6.1-4.6
			c2-0.9,4.3-1.3,6.8-1.3c8.7,0,13.1,5.2,13.1,15.7V414.6z"/>
		<path class="st1" d="M539.7,399.4h-25.7c0.5,2.2,1.7,4,3.7,5.5c2,1.4,4.2,2.1,6.7,2.1c4.4,0,9.2-1.2,14.4-3.7v8
			c-1.9,1-4.2,1.9-6.9,2.7c-2.7,0.8-6.1,1.2-10.3,1.2c-4.5,0-8.3-0.8-11.5-2.5c-3.2-1.7-5.5-3.9-7.1-6.8c-1.6-2.9-2.3-6.1-2.3-9.7
			c0-3.6,0.8-6.8,2.3-9.6c1.6-2.8,3.9-5,7.1-6.7c3.2-1.6,7-2.4,11.5-2.4c3,0,5.8,0.6,8.6,1.9c2.8,1.3,5,3.4,6.8,6.3
			c1.8,2.9,2.7,6.6,2.7,11.2V399.4z M527.6,393c0-2.3-0.6-4.2-1.7-5.6c-1.2-1.4-2.8-2.1-5-2.1c-2.2,0-3.9,0.7-5.2,2.1
			c-1.3,1.4-2,3.3-2,5.5H527.6z"/>
		<path class="st1" d="M559.5,414.6h-12.9v-36.5h12.9V414.6z M558.5,369.7c0,1.5-0.5,2.8-1.6,3.8c-1.1,1.1-2.3,1.6-3.8,1.6
			c-1,0-1.9-0.2-2.7-0.7c-0.8-0.5-1.5-1.1-1.9-2c-0.5-0.8-0.7-1.7-0.7-2.7c0-1.5,0.5-2.8,1.6-3.8c1-1.1,2.3-1.6,3.8-1.6
			c1.5,0,2.7,0.5,3.8,1.6C557.9,366.9,558.5,368.2,558.5,369.7z"/>
		<path class="st1" d="M607,414.6h-12.9v-3.3c-1.4,1.1-2.8,2.1-4.3,2.8c-1.5,0.7-3.6,1.1-6.3,1.1c-2.7,0-5.3-0.7-7.8-2
			c-2.6-1.3-4.7-3.4-6.3-6.1c-1.6-2.8-2.5-6.3-2.5-10.5c0-3.3,0.6-6.4,1.9-9.3c1.2-2.9,3.2-5.3,5.9-7.1s5.9-2.7,9.8-2.7
			c2.4,0,4.3,0.3,5.8,0.8c1.5,0.5,2.8,1.2,4,2v-15.3H607V414.6z M594.1,403v-14c-1.5-0.8-2.7-1.4-3.5-1.8c-0.8-0.4-1.9-0.5-3-0.5
			c-2,0-3.7,0.9-5.1,2.6c-1.4,1.7-2,4.1-2,7c0,3.2,0.7,5.6,2.1,7.1c1.4,1.5,3.1,2.2,5,2.2c1.6,0,2.8-0.2,3.8-0.7
			C592.3,404.3,593.2,403.7,594.1,403z"/>
		<path class="st1" d="M652.6,399.4h-25.7c0.5,2.2,1.7,4,3.7,5.5c2,1.4,4.2,2.1,6.7,2.1c4.4,0,9.2-1.2,14.4-3.7v8
			c-1.9,1-4.2,1.9-6.9,2.7c-2.7,0.8-6.1,1.2-10.3,1.2c-4.5,0-8.3-0.8-11.5-2.5c-3.2-1.7-5.5-3.9-7.1-6.8c-1.6-2.9-2.3-6.1-2.3-9.7
			c0-3.6,0.8-6.8,2.3-9.6c1.6-2.8,3.9-5,7.1-6.7c3.2-1.6,7-2.4,11.5-2.4c3,0,5.8,0.6,8.6,1.9c2.8,1.3,5,3.4,6.8,6.3
			c1.8,2.9,2.7,6.6,2.7,11.2V399.4z M640.5,393c0-2.3-0.6-4.2-1.7-5.6c-1.2-1.4-2.8-2.1-5-2.1c-2.2,0-3.9,0.7-5.2,2.1
			c-1.3,1.4-2,3.3-2,5.5H640.5z"/>
		<path class="st1" d="M690.9,380l-4.8,12.9c-2-1.9-3.9-2.8-6-2.8c-1.8,0-3.4,0.6-4.7,1.9c-1.3,1.2-2.6,3.5-3.8,6.8v15.7h-12.9
			v-36.5h12.9v8.8c0.8-2.2,2.2-4.3,4.3-6.3c2-2.1,4.5-3.1,7.2-3.1c1.5,0,2.7,0.2,3.8,0.6C688.1,378.5,689.4,379.2,690.9,380z"/>
		<path class="st1" d="M725.8,372.2h24v5.4h-17.9v13h17.4v5.5h-17.4v13.1h18.5v5.4h-24.6V372.2z"/>
		<path class="st1" d="M768,372.2h5.6v42.3H768V372.2z"/>
		<path class="st1" d="M817.1,401.1h-19.6c0.1,2.7,1,4.8,2.7,6.4c1.6,1.6,3.8,2.4,6.3,2.4c3.6,0,7-1.1,10-3.4v5.3
			c-1.7,1.1-3.4,1.9-5,2.4c-1.7,0.5-3.6,0.7-5.9,0.7c-3.1,0-5.5-0.6-7.4-1.9c-1.9-1.3-3.4-3-4.6-5.2c-1.1-2.2-1.7-4.7-1.7-7.5
			c0-4.3,1.2-7.7,3.6-10.4c2.4-2.7,5.5-4,9.4-4c3.7,0,6.7,1.3,8.8,3.9c2.2,2.6,3.3,6.1,3.3,10.4V401.1z M797.6,397.8h14
			c-0.1-2.2-0.8-3.9-2-5.2c-1.2-1.2-2.7-1.8-4.7-1.8c-2,0-3.6,0.6-4.9,1.8C798.8,393.9,798,395.6,797.6,397.8z"/>
		<path class="st1" d="M855.8,408.1v5.4c-2.8,1-5.5,1.5-8.2,1.5c-4.4,0-7.9-1.3-10.5-3.9c-2.6-2.6-3.9-6.1-3.9-10.4
			c0-4.4,1.3-7.9,3.8-10.6c2.5-2.7,5.9-4,10-4c1.4,0,2.7,0.1,3.9,0.4c1.1,0.3,2.6,0.8,4.3,1.5v5.9c-2.8-1.8-5.4-2.7-7.9-2.7
			c-2.5,0-4.6,0.9-6.2,2.6c-1.6,1.8-2.4,4-2.4,6.7c0,2.9,0.9,5.2,2.6,6.8c1.7,1.7,4.1,2.5,7,2.5C850.5,410,853,409.4,855.8,408.1z"
			/>
		<path class="st1" d="M869.9,391.1l10.4-10.2v5.8h8.7v4.9h-8.7v13.7c0,3.2,1.3,4.8,3.9,4.8c2,0,4-0.6,6.2-1.9v5.1
			c-2.1,1.2-4.4,1.8-6.9,1.8c-2.5,0-4.6-0.7-6.3-2.2c-0.5-0.4-1-0.9-1.3-1.5c-0.3-0.6-0.6-1.3-0.9-2.2c-0.2-0.9-0.3-2.6-0.3-5.2
			v-12.4h-4.8V391.1z"/>
		<path class="st1" d="M912.1,386.7v6.3l0.3-0.5c2.7-4.3,5.4-6.5,8-6.5c2.1,0,4.3,1.1,6.5,3.2l-2.9,4.9c-1.9-1.8-3.7-2.7-5.4-2.7
			c-1.8,0-3.3,0.8-4.6,2.6c-1.3,1.7-2,3.7-2,6v14.6h-5.6v-27.9H912.1z"/>
		<path class="st1" d="M945.5,375c0.9,0,1.7,0.3,2.3,0.9c0.6,0.6,1,1.4,1,2.3c0,0.9-0.3,1.7-1,2.3c-0.6,0.6-1.4,1-2.3,1
			c-0.8,0-1.6-0.3-2.2-1c-0.6-0.7-1-1.4-1-2.3c0-0.8,0.3-1.6,1-2.3C943.9,375.3,944.7,375,945.5,375z M942.8,386.7h5.6v27.9h-5.6
			V386.7z"/>
		<path class="st1" d="M989,408.1v5.4c-2.8,1-5.5,1.5-8.2,1.5c-4.4,0-7.9-1.3-10.5-3.9c-2.6-2.6-3.9-6.1-3.9-10.4
			c0-4.4,1.3-7.9,3.8-10.6c2.5-2.7,5.9-4,10-4c1.4,0,2.7,0.1,3.9,0.4c1.1,0.3,2.6,0.8,4.3,1.5v5.9c-2.8-1.8-5.4-2.7-7.9-2.7
			c-2.5,0-4.6,0.9-6.2,2.6c-1.6,1.8-2.4,4-2.4,6.7c0,2.9,0.9,5.2,2.6,6.8c1.7,1.7,4.1,2.5,7,2.5C983.7,410,986.2,409.4,989,408.1z"
			/>
		<line id="filet_4_" class="st2" x1="228.5" y1="314.3" x2="988.9" y2="314.3"/>
	</g>
	<g>
		<polygon class="st3" points="361.4,262.1 334.3,213.9 432.1,213.9 383,109.8 311,262.1 224.9,262.1 337.6,56.6 428.3,56.6 
			540.3,262.1 		"/>
		<path class="st3" d="M540.7,142.7H648c27.1,0,37.9-1.7,37.9-20.8c0-18.3-8.7-20.4-36.6-20.4h-109l-24.1-44.9h151.5
			c71.6,0,98.2,31.2,98.2,64.5c0,32-24.5,67.4-103.2,67.4h-35.8v73.6h-86.5V142.7H540.7z"/>
		<path class="st3" d="M990,246.7c-25.8,12.1-57.8,17.9-92,17.9c-103.2,0-138.5-57.4-138.5-104.9c0-59.9,52.4-106.1,142.7-106.1
			c32.9,0,61.6,5,85.7,14.1v59.5c-24.9-13.3-46.6-19.1-72-19.1c-43.3,0-78.6,19.5-78.6,50.7c0,30.8,36.2,50.8,79.5,50.8
			c25,0,45.4-5,73.2-17.9V246.7z"/>
	</g>
	<g>
		<path class="st1" d="M1003,70.3c-0.8,0-1.3-0.4-1.3-1.2V69c0-0.7,0.5-1.1,1.3-1.1h12.2c0.8,0,1.3,0.4,1.3,1.1v0.1
			c0,0.7-0.4,1.2-1.3,1.2h-4.7v13.6c0,0.8-0.4,1.3-1.2,1.3h-0.4c-0.8,0-1.2-0.4-1.2-1.3V70.3H1003z"/>
		<path class="st1" d="M1018.8,83.9V69.2c0-0.9,0.6-1.5,1.6-1.5h0.7c1.1,0,1.4,0.4,1.8,1.4l4.1,9.2l4.1-9.2c0.4-1,0.7-1.4,1.8-1.4
			h0.7c1,0,1.6,0.6,1.6,1.5v14.7c0,0.8-0.3,1.3-1.1,1.3h-0.4c-0.8,0-1.1-0.4-1.1-1.3V71.3l-3.8,8.6c-0.3,0.7-0.6,1.2-1.8,1.2
			c-1.2,0-1.4-0.5-1.8-1.2l-3.8-8.5v12.6c0,0.8-0.3,1.3-1.1,1.3h-0.4C1019.1,85.2,1018.8,84.7,1018.8,83.9z"/>
	</g>
</g>
</svg>
