<?xml version="1.0" encoding="utf-8"?>
<!-- Generator: Adobe Illustrator 23.1.0, SVG Export Plug-In . SVG Version: 6.00 Build 0)  -->
<svg version="1.1" id="layer" xmlns="http://www.w3.org/2000/svg" xmlns:xlink="http://www.w3.org/1999/xlink" x="0px" y="0px"
	 viewBox="0 0 1260 480" style="enable-background:new 0 0 1260 480;" xml:space="preserve">
<style type="text/css">
	.st0{fill:#19212B;}
</style>
<path class="st0" d="M94.22,218.46L74.3,173.69c-11.19,9.49-18.4,23.52-18.4,39.27c0,28.27,22.96,51.22,51.22,51.22
	c2.47,0,4.93-0.19,7.21-0.57l-19.92-44.58C94.41,218.84,94.41,218.65,94.22,218.46 M107.12,133.85c-6.45,0-12.9,0.76-18.97,2.28
	l11.76,26.18c2.47-0.38,4.74-0.57,7.21-0.57c28.27,0,51.22,22.96,51.22,51.22c0,15.75-7.21,29.97-18.4,39.27l11.76,26.18
	c21.06-14.23,34.72-38.32,34.72-65.64C186.42,169.32,150.95,133.85,107.12,133.85 M284.7,185.45l-13.47,30.92h26.94L284.7,185.45z
	 M303.67,229.08h-37.94l-6.26,13.66h-14.8l32.63-72.66h14.99l32.63,72.66h-14.99L303.67,229.08z M360.01,208.97h20.49
	c17.64,0,17.45-25.8,0-25.8h-20.49V208.97z M360.01,221.5v13.47c0,4.36-3.6,7.78-7.78,7.78h-5.88v-72.66
	c11.38,0,22.96-0.19,34.34-0.19c35.67,0,35.86,51.03,0,51.41h-20.68V221.5z M445.01,208.97h20.68c17.64,0,17.45-25.8,0-25.8H445.2
	v25.8H445.01z M445.01,221.5v13.47c0,4.36-3.6,7.78-7.78,7.78h-5.88v-72.66c11.38,0,22.96-0.19,34.34-0.19
	c35.67,0,35.86,51.03,0,51.41h-20.68V221.5z M529.81,229.65h14.99c16.51,0,23.15-12.14,22.77-23.9
	c-0.38-11.38-7.02-22.58-22.77-22.58h-14.99V229.65z M581.22,205.94c0.38,18.4-10.81,36.99-36.43,36.99h-28.65v-72.66h28.65
	C569.84,170.08,580.84,187.92,581.22,205.94 M628.84,200.25l19.35-29.97h16.51v0.57l-29.03,42.12v22.2c0,4.36-3.6,7.78-7.78,7.78
	h-5.88v-29.97l-27.89-42.12v-0.57h16.32L628.84,200.25z M734.7,219.03v-40.98c0-4.36,3.6-7.78,7.78-7.78h5.88v72.66h-11.19
	l-38.7-48.38v40.6c0,4.36-3.6,7.78-7.78,7.78h-5.88v-72.66H696L734.7,219.03z M810.21,185.45l-13.47,30.92h26.94L810.21,185.45z
	 M829.18,229.08h-37.94l-6.26,13.66h-14.8l32.63-72.66h14.99l32.63,72.66h-14.99L829.18,229.08z M935.04,190.19l-23.71,31.49h-2.66
	L885.52,190v44.96c0,4.36-3.6,7.78-7.78,7.78h-5.88v-72.47h15.75l22.77,31.3l22.77-31.3h15.75v64.88c0,4.36-3.6,7.78-7.78,7.78
	h-5.88v-52.74H935.04z M979.43,242.93v-64.88c0-4.36,3.6-7.78,7.78-7.78h5.69v64.88c0,4.36-3.6,7.78-7.78,7.78H979.43z
	 M1084.16,233.64c-7.4,7.4-17.07,10.81-27.7,10.81c-26.94,0-38.51-18.59-38.51-37.56c-0.19-18.97,12.33-38.32,38.51-38.32
	c9.87,0,19.16,3.79,26.75,11.19l-9.11,8.92c-4.74-4.74-11.19-6.83-17.64-6.83c-17.64,0-25.23,13.09-25.04,25.23
	c0.19,12.14,7.02,24.66,25.04,24.66c6.26,0,13.47-2.66,18.21-7.4L1084.16,233.64z M1150.56,187.92c-2.47-4.17-9.3-8.16-17.26-8.16
	c-10.24,0-15.18,4.17-15.18,9.49c0,6.26,7.4,8.16,16.13,9.3c15.18,2.09,29.22,6.07,29.03,23.33c-0.19,16.13-14.61,22.96-30.73,22.96
	c-14.8-0.19-26.18-4.74-31.49-18.21l11.38-5.88c3.23,7.97,11.57,11.95,20.3,11.95c8.54,0,16.69-3.04,16.88-11
	c0-6.83-7.02-9.68-16.69-10.81c-14.8-1.9-28.46-5.88-28.46-22.2c0.19-14.99,14.99-20.87,28.27-20.87
	c11.38,0.19,22.96,3.41,28.46,14.61L1150.56,187.92z M797.69,307.25c0-4.74-1.14-8.35-3.41-10.62c-1.9-1.9-4.17-2.85-7.21-2.85
	c-3.41,0-6.07,1.33-7.97,3.79c-1.9,2.47-3.04,5.69-3.04,10.05c0,4.74,1.14,8.35,3.41,11c1.9,2.09,4.36,3.23,7.4,3.23
	c3.41,0,6.26-1.33,8.16-3.98C796.74,315.03,797.69,311.61,797.69,307.25 M771.5,290.55h3.98l0.76,5.5c1.33-2.09,3.04-3.79,5.12-4.93
	s4.36-1.52,6.83-1.52c4.74,0,8.54,1.71,11.19,5.12c2.47,3.23,3.6,7.4,3.6,12.52c0,6.26-1.71,11-4.93,14.23
	c-2.66,2.85-6.07,4.17-10.24,4.17c-2.47,0-4.74-0.57-6.64-1.52c-1.9-1.14-3.6-2.66-4.74-4.55v17.07h-4.93V290.55z M832.59,312.37
	v-5.31l-8.92,1.52c-3.6,0.57-6.07,1.71-7.59,2.85c-1.14,0.95-1.71,2.47-1.71,4.17c0,2.09,0.76,3.6,2.28,4.74
	c1.33,0.95,3.04,1.33,5.31,1.33c2.85,0,5.31-0.95,7.4-3.04C831.64,316.92,832.59,314.84,832.59,312.37 M815.33,299.66h-5.12
	c0.38-3.23,1.9-5.88,4.74-7.78c2.47-1.71,5.5-2.47,9.3-2.47c4.36,0,7.78,1.14,10.24,3.6c2.09,2.09,3.04,4.74,3.04,7.97v23.71h-3.98
	l-0.57-5.12c-2.66,4.17-6.64,6.26-11.76,6.26c-3.79,0-6.64-0.95-8.92-3.04c-1.9-1.71-2.85-3.98-2.85-6.64
	c0-3.23,1.14-5.88,3.41-7.59c2.09-1.71,5.31-2.85,9.68-3.6l10.24-1.71v-2.28c0-2.47-0.95-4.36-2.66-5.5
	c-1.52-1.14-3.41-1.71-6.07-1.71c-2.66,0-4.93,0.57-6.45,1.9C816.28,296.43,815.52,297.95,815.33,299.66 M852.32,324.7h-4.93v-34.15
	h3.98l0.57,5.88c1.9-4.55,4.93-6.83,9.11-6.83c1.14,0,2.47,0.19,3.6,0.38v4.93c-1.33-0.38-2.66-0.57-3.79-0.57
	c-2.66,0-4.74,1.14-6.45,3.6c-1.52,2.28-2.28,5.12-2.28,8.92v17.83H852.32z M887.23,294.73h-7.78v22.39c0,2.85,1.33,4.36,3.98,4.36
	c1.33,0,2.66-0.19,3.98-0.57v4.17c-1.52,0.38-3.04,0.57-4.55,0.57c-2.85,0-5.12-0.95-6.45-2.66c-1.33-1.52-1.9-3.41-1.9-6.07v-22.2
	h-4.93v-4.17h4.93l0.38-8.16h4.55v8.16h7.78L887.23,294.73L887.23,294.73z M918.53,307.63c0,4.74,1.14,8.35,3.6,11
	c1.9,2.09,4.55,3.04,7.59,3.04c3.6,0,6.45-1.33,8.35-3.98c1.9-2.47,2.85-5.69,2.85-10.05c0-4.93-1.14-8.54-3.6-11
	c-1.9-2.09-4.55-3.04-7.59-3.04c-3.6,0-6.45,1.33-8.35,3.98C919.48,300.04,918.53,303.45,918.53,307.63 M913.41,307.63
	c0-6.26,1.71-11,5.31-14.23c2.85-2.66,6.64-3.79,11-3.79c5.12,0,9.3,1.71,12.14,5.12c2.66,3.23,3.98,7.59,3.98,12.9
	c0,6.26-1.71,10.81-5.12,14.04c-2.85,2.66-6.45,3.98-11,3.98c-5.12,0-9.3-1.71-12.14-5.31C914.74,317.3,913.41,312.94,913.41,307.63
	 M969.76,277.27v4.17c-1.9-0.57-3.6-0.76-5.12-0.76c-1.33,0-2.28,0.38-3.04,1.14s-1.14,1.9-1.14,3.23v5.5h7.78v4.17h-7.78v29.97
	h-4.93v-29.97h-5.12v-4.17h5.12v-5.31c0-2.85,0.95-5.12,2.85-6.83c1.52-1.33,3.6-2.09,5.88-2.09
	C965.96,276.51,967.67,276.7,969.76,277.27 M1015.67,325.65c-7.02,0-12.52-2.47-16.32-7.4c-3.41-4.36-5.12-10.05-5.12-17.07
	c0-8.35,2.28-14.8,7.02-19.16c3.79-3.79,8.73-5.5,14.8-5.5c5.69,0,10.43,1.71,14.23,4.93c3.23,2.85,5.12,6.45,5.5,10.62h-5.12
	c-0.57-3.79-2.47-6.64-5.31-8.73c-2.47-1.71-5.5-2.66-9.11-2.66c-5.31,0-9.49,1.9-12.33,5.88c-2.66,3.6-3.98,8.54-3.98,14.61
	c0,6.64,1.71,11.76,5.12,15.37c2.85,3.04,6.64,4.55,11.19,4.55c4.36,0,7.97-1.33,10.62-3.98c2.28-2.28,3.79-5.31,3.98-8.73h5.12
	c-0.38,5.12-2.66,9.3-6.64,12.52C1025.34,324.13,1020.98,325.65,1015.67,325.65 M1048.87,324.7h-4.93v-34.15h4.93V324.7z
	 M1049.25,283.53h-5.5v-6.07h5.5V283.53z M1079.6,315.59c0-1.9-0.76-3.23-2.28-4.36c-1.52-0.95-4.36-1.9-8.35-2.66
	c-3.98-0.76-7.02-2.09-8.73-3.79c-1.71-1.52-2.47-3.41-2.47-5.88c0-3.04,1.14-5.31,3.6-7.02c2.28-1.52,5.31-2.28,9.11-2.28
	c3.98,0,7.21,0.95,9.68,3.04c2.28,1.71,3.6,3.98,3.98,6.83h-4.93c-0.38-1.9-1.33-3.41-3.04-4.36c-1.52-0.95-3.41-1.52-5.69-1.52
	c-2.66,0-4.74,0.57-6.07,1.71c-1.14,0.95-1.71,2.09-1.71,3.41c0,1.71,0.57,2.85,1.9,3.79s3.6,1.71,6.83,2.28
	c4.74,0.95,8.16,2.28,10.05,3.79c1.9,1.71,3.04,3.79,3.04,6.83c0,3.23-1.33,5.88-4.17,7.78c-2.47,1.71-5.69,2.66-9.68,2.66
	c-4.36,0-7.78-1.14-10.43-3.23c-2.28-1.9-3.41-4.17-3.79-7.21h4.93c0.57,4.36,3.79,6.45,9.3,6.45c2.85,0,5.12-0.76,6.83-2.09
	C1078.84,318.63,1079.6,317.11,1079.6,315.59 M1116.03,314.27h5.31c-0.57,3.6-2.28,6.45-5.12,8.54c-2.66,1.9-5.69,2.85-9.3,2.85
	c-4.93,0-8.73-1.71-11.76-5.12c-2.66-3.23-3.98-7.4-3.98-12.71c0-6.07,1.71-10.81,4.93-14.23c2.85-2.85,6.26-4.17,10.62-4.17
	c3.98,0,7.4,1.14,10.05,3.23c2.28,1.9,3.79,4.36,4.36,7.4h-5.31c-0.38-2.28-1.52-3.98-3.23-5.12c-1.52-0.95-3.41-1.52-5.5-1.52
	c-3.41,0-6.07,1.33-7.97,3.98c-1.71,2.47-2.66,5.88-2.66,10.43c0,4.74,1.14,8.16,3.6,10.62c1.9,1.9,4.17,2.85,7.02,2.85
	c2.66,0,4.74-0.76,6.45-2.28C1114.7,318.06,1115.65,316.35,1116.03,314.27 M1132.72,307.63c0,4.74,1.14,8.35,3.6,11
	c1.9,2.09,4.55,3.04,7.59,3.04c3.6,0,6.45-1.33,8.35-3.98c1.9-2.47,2.85-5.69,2.85-10.05c0-4.93-1.14-8.54-3.6-11
	c-1.9-2.09-4.55-3.04-7.59-3.04c-3.6,0-6.45,1.33-8.35,3.98C1133.67,300.04,1132.72,303.45,1132.72,307.63 M1127.79,307.63
	c0-6.26,1.71-11,5.31-14.23c2.85-2.66,6.64-3.79,11-3.79c5.12,0,9.3,1.71,12.14,5.12c2.66,3.23,3.98,7.59,3.98,12.9
	c0,6.26-1.71,10.81-5.12,14.04c-2.85,2.66-6.45,3.98-11,3.98c-5.12,0-9.3-1.71-12.14-5.31
	C1129.12,317.3,1127.79,312.94,1127.79,307.63 M1187.93,183.93h-2.28l-4.17-12.71v12.71h-2.09v-13.09h-5.31v13.09h-2.66v-13.09
	h-5.12v-2.09h16.32l3.98,12.33l3.79-12.33h3.6v15.18h-2.28v-12.71L1187.93,183.93z"/>
</svg>
