<?xml version="1.0" encoding="utf-8"?>
<!-- Generator: Adobe Illustrator 23.1.0, SVG Export Plug-In . SVG Version: 6.00 Build 0)  -->
<svg version="1.1" id="Слой_1" xmlns="http://www.w3.org/2000/svg" xmlns:xlink="http://www.w3.org/1999/xlink" x="0px" y="0px"
	 viewBox="0 0 1260 480" style="enable-background:new 0 0 1260 480;" xml:space="preserve">
<style type="text/css">
	.st0{fill:#F7941D;}
	.st1{fill:#F26522;}
</style>
<g id="Arctera_RGB_standard" transform="translate(-14.12 -9.99)">
	<path id="Path_220" d="M166.2,287.2c0-51.8,37.8-87.4,83.6-87.4c21.9,0,42.3,8.3,54.4,23.5l0.3-20.3h35v168.2h-35l-0.3-20.3
		c-12.1,15.3-32.4,23.5-54.4,23.5C204,374.3,166.2,338.4,166.2,287.2L166.2,287.2z M254.9,338.1c26.7,0,48-18.8,48-50.9
		s-21.3-51.2-48-51.2c-28.3,0-49.3,20.7-49.3,51.2S226.6,338.1,254.9,338.1z"/>
	<path id="Path_221" d="M433.2,202.9h20.3v35.6H437c-14.3,0-20,5.7-20,20.3v112.2h-39.4V259.8C377.6,220.4,397.3,202.9,433.2,202.9
		L433.2,202.9z"/>
	<path id="Path_222" d="M465,287.2c0-51.2,36.6-86.5,87.7-86.5c8.9,0.2,17.9,0.9,26.7,2.2v35.9c-7.4-1.1-14.8-1.8-22.3-1.9
		c-33.1,0-52.8,21-52.8,50.2s19.7,49.9,52.8,49.9c7.4-0.2,14.9-0.7,22.3-1.6v35.9c-8.8,1.4-17.8,2.2-26.7,2.2
		C501.6,373.7,465,338.7,465,287.2L465,287.2z"/>
	<path id="Path_223" d="M622.1,238.5h-20.3v-35.6h20.3v-44.8l39.4-13.3V203h20.7v35.6h-20.7l-0.3,132.6h-39.4L622.1,238.5
		L622.1,238.5z"/>
	<path id="Path_224" d="M700.3,287.5c0-51.5,36.9-88.1,85.5-88.1c44.5,0,84.6,30.2,80.8,96.3H737.2c3.2,26.7,23.2,45.1,51.8,45.1
		c21,0,38.8-9.9,51.2-28l26.1,20.7c-16.5,23.8-42.6,41.3-78.2,41.3C735.6,374.9,700.3,338.1,700.3,287.5z M829.4,267.5
		c-4.8-23.5-21.6-35.6-43.9-35.6c-22.1-0.5-41.6,14.2-47,35.6C738.5,267.5,829.4,267.5,829.4,267.5z"/>
	<path id="Path_225" d="M952.7,202.9h20.3v35.6h-16.5c-14.3,0-20,5.7-20,20.3v112.2h-39.4V259.8
		C897.1,220.4,916.8,202.9,952.7,202.9L952.7,202.9z"/>
	<path id="Path_226" d="M984.5,287.2c0-51.8,37.8-87.4,83.6-87.4c21.9,0,42.3,8.3,54.4,23.5l0.3-20.3h35v168.2h-35l-0.3-20.3
		c-12.1,15.3-32.4,23.5-54.4,23.5C1022.4,374.3,984.5,338.4,984.5,287.2L984.5,287.2z M1073.2,338.1c26.7,0,48-18.8,48-50.9
		s-21.3-51.2-48-51.2c-28.3,0-49.3,20.7-49.3,51.2S1044.9,338.1,1073.2,338.1z"/>
	<path id="Path_227" class="st0" d="M152.5,185.3c21.7-21.7,50.5-34.9,81.1-37.1v-11c0-6.7-5.4-12.1-12.1-12.1c0,0,0,0,0,0H104.3
		c-3.2,0-6.3,1.3-8.6,3.5L152.5,185.3L152.5,185.3L152.5,185.3z"/>
	<path id="Path_228" class="st1" d="M95.8,128.6c-2.3,2.3-3.6,5.4-3.5,8.6v117.2c0,6.7,5.4,12.1,12.1,12.1c0,0,0,0,0,0h11
		c2.2-30.6,15.4-59.4,37.1-81.1L95.8,128.6z"/>
	<path id="Path_229" d="M1171.6,187.9h-3v-14.6h-5v-2.9h13.1v2.9h-5.1V187.9z M1187.6,183.7l1.1-3.1l3.8-10.1h3.5v17.5h-2.9v-8.5
		l0.1-3l-0.9,2.5l-3.4,9.1h-2.5l-3.4-9.1l-0.9-2.5l0,3v8.5h-2.9v-17.5h3.5l3.8,10.1C1186.5,180.6,1187.6,183.7,1187.6,183.7z"/>
</g>
</svg>
