<?xml version="1.0" encoding="utf-8"?>
<!-- Generator: Adobe Illustrator 23.1.0, SVG Export Plug-In . SVG Version: 6.00 Build 0)  -->
<svg version="1.1" id="Layer_1" xmlns="http://www.w3.org/2000/svg" xmlns:xlink="http://www.w3.org/1999/xlink" x="0px" y="0px"
	 viewBox="0 0 1260 480" style="enable-background:new 0 0 1260 480;" xml:space="preserve">
<style type="text/css">
	.st0{fill:#16325B;}
</style>
<g>
	<path class="st0" d="M463.53,255.93c36.99,0,55.49-25.69,55.49-51.38c0-25.69-18.5-50.35-57.55-50.35
		c-28.77-1.03-134.62-1.03-134.62-1.03v173.67h32.88V180.91c25.69,0,90.43,0,103.79,0c18.5,0,27.74,6.16,27.74,23.64
		c0,14.38-9.25,22.61-26.72,22.61h-86.32L481,325.8h40.08l-73.99-71.93C454.28,255.93,462.5,255.93,463.53,255.93z"/>
	<rect x="552.93" y="153.17" class="st0" width="31.86" height="173.66"/>
	<polygon class="st0" points="988.64,179.89 988.64,153.17 920.81,153.17 888.96,153.17 832.44,153.17 813.94,179.89 888.96,179.89 
		888.96,326.83 920.81,326.83 920.81,179.89 	"/>
	<path class="st0" d="M751.26,225.1c-16.44,0-57.54,0-81.18,0c-16.44,0-25.69-7.19-25.69-21.58c0-16.44,11.3-23.63,25.69-23.63
		c22.61,0,110.98,0,110.98,0l14.39-26.72c0,0-107.9,0-126.4,0c-28.78,0-52.41,21.58-52.41,51.38c0,26.71,22.61,48.29,53.43,48.29
		c17.47,0,69.88,0,81.18,0c18.5,0,28.78,8.22,28.78,23.64c0,13.36-11.3,22.61-28.78,22.61H639.25l-16.44,27.74c0,0,98.65,0,132.56,0
		c33.91,0,52.41-24.66,52.41-52.4C807.78,248.73,786.2,225.1,751.26,225.1z"/>
	<path class="st0" d="M176.83,164.47c-7.19,11.3-102.76,162.36-102.76,162.36h33.91l31.86-51.38h67.82l17.47-27.75H157.3l36.99-59.6
		l86.32,137.7h33.91c0,0-94.54-149-102.76-162.36C202.51,150.09,186.07,151.11,176.83,164.47z"/>
	<path class="st0" d="M1152.02,326.83h33.91c0,0-94.54-149-102.76-162.36c-9.24-15.42-25.69-14.38-34.94-1.03
		c-7.2,11.3-102.76,162.36-102.76,162.36h33.91l31.85-51.38h68.85l17.47-27.75h-67.82l37-59.6L1152.02,326.83z"/>
</g>
</svg>
