<?xml version="1.0" encoding="utf-8"?>
<!-- Generator: Adobe Illustrator 23.1.0, SVG Export Plug-In . SVG Version: 6.00 Build 0)  -->
<svg version="1.1" id="Layer_1" xmlns="http://www.w3.org/2000/svg" xmlns:xlink="http://www.w3.org/1999/xlink" x="0px" y="0px"
	 viewBox="0 0 1260 480" style="enable-background:new 0 0 1260 480;" xml:space="preserve">
<style type="text/css">
	.st0{fill:#30A4DC;}
	.st1{fill:#0E4681;}
</style>
<g>
	<path class="st0" d="M234.59,187.86c0,0,18.11-18.56,52.57-18.56c13.7,0,38.88,3.98,55.22,30.04l-26.95,19.88
		c0,0-7.51-15.02-29.16-15.02c-14.58,0-27.39,7.95-30.93,20.76C249.61,200.23,234.59,187.86,234.59,187.86"/>
	<path class="st0" d="M276.12,277.98c0,0-0.44,8.39,2.21,18.56c2.21,8.39,6.19,16.35,6.19,16.35s41.53,2.21,59.64-30.93
		l-27.39-18.56C316.77,263.4,306.16,287.7,276.12,277.98"/>
	<g>
		<path class="st1" d="M271.7,277.1c-13.25-6.63-18.56-22.09-18.56-34.9c0-39.32-30.93-71.57-74.22-71.57
			c-41.97,0-74.66,23.42-74.66,74.22c0,65.83,78.64,87.03,124.59,51.25c-9.72-11.04-16.35-23.42-19-37.99
			c-11.49,30.04-49.48,30.04-60.97,7.07c-11.49-24.74-4.42-59.2,29.6-59.2c23.86,0,33.13,18.56,33.13,34.46
			c0,39.32,26.51,72.45,67.15,72.45c-1.77-4.42-3.98-10.16-5.74-17.67C271.26,285.93,271.7,277.1,271.7,277.1"/>
		<path class="st1" d="M623.81,281.07V166.65h-11.93v43.74c-2.21-1.77-4.42-3.53-7.07-5.3c-8.39-4.86-18.11-6.63-27.83-5.3
			s-18.56,4.86-25.18,12.37c-8.39,8.84-11.04,19.88-10.16,31.81c0.88,9.72,3.98,18.11,10.6,24.74c12.37,12.81,34.46,15.9,50.36,7.07
			c3.53-1.77,6.19-3.98,8.84-6.19v11.49H623.81z M611.89,239.55v0.88c-0.44,11.93-4.86,21.21-15.9,26.51
			c-16.79,7.95-39.76,0.44-41.97-22.97c-0.88-10.16,1.33-19.88,9.28-26.95c8.84-7.95,19.44-9.28,30.48-5.3
			c10.6,3.98,16.35,11.93,17.67,22.97C611.89,236.45,611.89,237.78,611.89,239.55"/>
		<path class="st1" d="M739.12,239.55c0-1.33,0-3.09-0.44-4.86c-1.77-11.04-7.07-19-18.11-22.97c-11.04-3.98-21.65-2.65-30.48,5.74
			c-7.95,7.07-10.16,16.35-8.84,26.51c2.65,23.86,26.07,31.37,42.85,22.97C734.71,261.19,738.68,251.47,739.12,239.55 M751.05,239.1
			c0,13.7-4.42,24.74-14.58,33.13c-8.84,7.07-19.44,9.28-30.48,8.39c-9.72-0.88-18.11-3.98-25.18-11.04
			c-7.07-7.07-10.6-15.9-11.49-25.62c-0.88-11.93,1.77-22.53,9.72-31.81c6.63-7.51,15.46-11.49,25.18-12.37
			c9.72-1.33,19,0.44,27.39,5.3c11.04,6.19,16.79,16.35,18.56,28.72C750.61,235.57,751.05,237.78,751.05,239.1"/>
		<rect x="644.58" y="200.23" class="st1" width="11.93" height="80.85"/>
		<path class="st1" d="M642.37,177.25c0-4.86,3.09-8.39,7.95-8.39c4.42,0,7.95,3.53,7.95,8.39c0,4.86-3.09,8.39-7.95,8.39
			C645.46,185.65,642.37,182.11,642.37,177.25"/>
		<path class="st1" d="M906.56,239.55c0-1.33-0.44-3.09-0.44-4.86c-1.77-11.04-7.51-19-17.67-22.97
			c-11.04-3.98-21.21-2.65-30.48,5.3c-7.95,7.07-10.6,16.35-9.28,26.95c2.65,23.42,25.62,31.37,41.97,22.97
			C901.7,261.63,906.12,251.92,906.56,239.55 M918.49,239.55c-0.44,15.9-6.19,28.27-20.32,36.23c-15.9,8.84-37.99,5.74-50.36-7.07
			c-6.63-7.07-10.16-15.46-10.6-25.18c-0.88-11.93,1.77-22.97,10.16-31.81c6.63-7.51,15.46-11.04,25.18-12.37
			c9.72-1.33,19,0.44,27.83,5.3c11.04,6.19,16.79,15.9,18.56,28.27C918.05,235.57,918.05,237.78,918.49,239.55"/>
		<path class="st1" d="M441.8,240.87L441.8,240.87C441.35,240.87,441.8,240.43,441.8,240.87c0-2.21-0.44-4.42-0.44-6.63
			c-1.77-12.37-7.51-22.09-18.56-28.27c-8.84-5.3-18.11-6.63-27.83-5.3s-18.56,4.86-25.18,12.37c-8.39,8.84-11.04,19.88-10.16,31.81
			c0.88,9.72,3.98,18.11,10.6,25.18c12.37,12.81,34.46,15.9,50.36,7.07c3.53-1.77,6.19-3.98,8.84-6.19v10.6h11.93v-40.65H441.8z
			 M429.87,240.87L429.87,240.87L429.87,240.87c-0.44,12.37-4.86,21.65-15.9,26.95c-16.79,7.95-39.76,0.44-41.97-22.97
			c-0.88-10.6,1.33-19.88,9.28-26.95c8.84-7.95,19.44-9.28,30.48-5.3c10.6,3.98,16.35,11.93,17.67,22.97
			C429.42,237.34,429.42,239.1,429.87,240.87C429.87,240.43,429.87,240.87,429.87,240.87"/>
		<path class="st1" d="M1005.97,281.07V166.65h-11.93v43.74c-2.21-1.77-4.42-3.53-7.07-5.3c-8.39-4.86-18.11-6.63-27.83-5.3
			c-9.72,1.33-18.56,4.86-25.18,12.37c-8.39,8.84-11.04,19.88-10.16,31.81c0.88,9.72,3.98,18.11,10.6,24.74
			c12.37,12.81,34.46,15.9,50.36,7.07c3.53-1.77,6.19-3.98,8.84-6.19v11.49C993.6,281.07,1005.97,281.07,1005.97,281.07z
			 M994.04,239.55v0.88c-0.44,11.93-4.86,21.21-15.9,26.51c-16.79,7.95-39.76,0.44-41.97-22.97c-0.88-10.16,1.33-19.88,9.28-26.95
			c8.84-7.95,19.44-9.28,30.48-5.3c10.6,3.98,16.35,11.93,17.67,22.97C993.6,236.45,994.04,237.78,994.04,239.55"/>
		<path class="st1" d="M797.88,209.5c-16.79,0-28.27,12.37-28.27,29.6c0,17.67,11.93,30.04,28.27,30.04c10.6,0,19-3.53,24.74-10.16
			l7.07,7.07c-7.07,8.84-18.11,13.7-32.25,13.7c-23.42,0-39.76-16.35-39.76-40.2s16.79-40.2,39.76-40.2
			c12.81,0,23.42,4.42,30.93,11.93l-6.63,8.39C816,213.04,807.6,209.5,797.88,209.5"/>
		<path class="st1" d="M530.6,205.09v75.99h-11.93v-10.6c-7.07,6.63-15.9,11.04-30.48,11.04c-18.56,0-30.04-11.93-30.04-31.37
			v-45.06h11.93v42.41c0,14.14,7.07,23.42,20.76,23.42c16.79-0.44,27.83-13.25,27.83-30.48v-35.34H530.6z"/>
		<path class="st1" d="M1081.07,235.13c-0.88-15.9-11.49-26.07-27.39-26.07c-15.46,0-26.95,10.16-28.27,26.07
			C1025.41,235.13,1081.07,235.13,1081.07,235.13z M1091.68,244.85h-66.27c2.21,15.9,13.7,26.51,29.6,26.51
			c10.16,0,19-3.53,25.18-10.16l6.63,7.07c-7.51,8.39-19,13.25-32.69,13.25c-23.86,0-40.65-16.79-40.65-41.09
			s16.79-41.09,40.2-41.09C1080.19,199.34,1093,217.46,1091.68,244.85"/>
		<path class="st1" d="M1126.58,209.5c-8.84,0-15.9,3.09-15.9,10.6c0,18.11,45.06,8.84,45.06,37.55c0,15.46-14.14,22.53-29.6,22.53
			c-11.49,0-23.42-3.98-30.93-11.04l4.42-8.84c7.07,6.19,17.23,10.16,26.95,10.16c9.28,0,17.23-3.53,17.23-11.93
			c0.44-19.44-44.62-9.72-44.62-37.99c0-15.02,13.25-21.65,27.83-21.65c9.72,0,19,3.09,25.62,7.51l-4.42,9.28
			C1142.04,211.71,1134.09,209.5,1126.58,209.5"/>
	</g>
</g>
</svg>
