<?xml version="1.0" encoding="utf-8"?>
<!-- Generator: Adobe Illustrator 23.1.0, SVG Export Plug-In . SVG Version: 6.00 Build 0)  -->
<svg version="1.1" id="Layer_1" xmlns="http://www.w3.org/2000/svg" xmlns:xlink="http://www.w3.org/1999/xlink" x="0px" y="0px"
	 viewBox="0 0 1260 480" style="enable-background:new 0 0 1260 480;" xml:space="preserve">
<style type="text/css">
	.st0{fill:#FFCC33;}
	.st1{fill:#FF0033;}
</style>
<g>
	<path d="M544.7,116.2h51.5c0.5,0,0.5,0.5,0.5,0.5v222c0,0.5-0.5,0.5-0.5,0.5h-51.5c-0.5,0-0.5-0.5-0.5-0.5V117.3
		C544.2,116.8,544.7,116.2,544.7,116.2z"/>
	<path d="M528.1,116.2c0.5,0,0.5,0.5,0.5,1L461,227c-0.5,1-0.5,2.1,0,3.1l67.6,108.7c0.5,0.5,0,1,0,1h-63.4c-0.5,0-1-0.5-1.6-1
		l-41.1-67.1c-0.5-0.5-1-0.5-1,0L383,338.8c-0.5,0.5-1,1-1.6,1h-59.8c-0.5,0-1,0-0.5-1l70.2-114.4c0.5-1,0.5-2.6,0-3.6L330,117.3
		c0-0.5,0-1,0.5-1h61.4c0.5,0,1,0.5,1,1l36.9,62.4c0.5,0.5,1,0.5,1.6,0l38-62.4c0.5-0.5,0.5-1,1.6-1H528.1z"/>
	<polygon class="st0" points="852,230.1 965.9,52.8 1150,339.8 1024.7,339.8 954.5,230.1 	"/>
	<path d="M302.4,116.2h-47.8c-0.5,0-1,0.5-1.6,1l-143,222v0.5h58.2c0.5,0,1,0,1-0.5l19.2-30.2c0.5-0.5,0.5-0.5,1-0.5h60.8
		c0.5,0,0.5,0.5,0.5,0.5v29.6c0,0.5,0,1,0.5,1h51c0.5,0,0.5-0.5,0.5-1V117.3C302.9,116.8,302.9,116.2,302.4,116.2z M252,264.4
		L252,264.4l-38,0.5c0,0-0.5,0,0-0.5l40-64c0-0.5,0.5,0,0.5,0S252,264.4,252,264.4z"/>
	<path d="M626.9,339.8H694c8.3,0,17.2-1.6,25.5-4.2c31.2-9.9,47.3-40.6,47.3-67.1c0-42.1-32.8-56.7-71.8-73.3
		c-6.8-3.1-15.1-6.8-15.1-16.1c0-9.4,8.8-14,18.7-14h53c0.5,0,0.5-0.5,0.5-0.5v-48.4c0-0.5-0.5-0.5-0.5-0.5H696
		c-46.3,0-73.8,27.6-73.8,66c0,33.8,21.3,49.9,52.5,62.4c21.8,8.8,35.9,12.5,35.9,30.2c0,9.4-5.7,18.2-17.2,18.2h-67.1
		c-0.5,0-0.5,0.5-0.5,0.5v46.8C625.8,339.8,626.9,339.8,626.9,339.8z"/>
	<path d="M795.9,115.2c-10.4,0-18.7,8.3-18.7,18.7c0,10.4,8.3,18.7,18.7,18.7c10.4,0,18.7-8.3,18.7-18.7
		C814.6,123.5,806.3,115.2,795.9,115.2z M795.9,150.6c-9.4,0-16.6-7.8-16.6-16.6c0-9.4,7.8-16.6,16.6-16.6c9.4,0,16.6,7.8,16.6,16.6
		S805.2,150.6,795.9,150.6z"/>
	<path d="M804.7,144.3l-4.2-9.9c2.6-0.5,4.2-3.1,4.2-5.7c0-2.1-1-3.6-2.1-4.7c-1.6-1-3.1-1.6-5.2-1.6h-8.3v21.8h2.6V135h6.2l4.2,9.4
		H804.7z M791.7,132.9v-7.8h5.2c1,0,2.1,0,3.1,0.5c1,0.5,1.6,1.6,1.6,3.1c0,1-0.5,2.1-1,2.6c-1,1-2.1,1-3.6,1h-5.2L791.7,132.9z"/>
	<path d="M154.7,423c-6.2,3.1-10.9,4.2-17.2,4.2c-17.2,0-26-10.9-26-22.4c0-11.4,9.9-22.4,27-22.4c6.2,0,12,1,16.1,3.6v9.9
		c-4.7-2.6-9.9-4.7-15.6-4.7c-9.4,0-16.1,5.7-16.1,13c0,7.8,6.8,13.5,16.1,13.5c5.7,0,9.9-1.6,16.1-4.7v9.9H154.7z"/>
	<path d="M219.2,427.2c-16.6,0-25.5-11.4-25.5-22.4c0-10.4,8.8-22.4,25.5-22.4s25.5,12,25.5,22.4
		C244.7,416.3,235.3,427.2,219.2,427.2z M219.2,391.8c-8.3,0-14,5.2-14,13c0,7.8,5.7,13,14,13c8.3,0,14-5.2,14-13
		C233.2,397,227.5,391.8,219.2,391.8z"/>
	<path d="M321.6,383.5h9.9v43.7h-10.9v-27l-12,13.5h-1.6l-12-13.5v27h-10.9v-43.7h9.9l14.6,16.1
		C308.6,399.6,321.6,383.5,321.6,383.5z"/>
	<path d="M413.7,383.5h9.9v43.7h-10.9v-27l-12,13.5h-1.6l-12-13.5v27h-12v-43.7h9.9l14.6,16.1C399.6,399.6,413.7,383.5,413.7,383.5z
		"/>
	<path d="M508.3,383.5V408c0,14.6-9.9,19.2-22.4,19.2c-13,0-22.4-5.7-22.4-19.2v-25h10.9v25c0,6.2,4.7,9.9,10.9,9.9
		c5.7,0,11.4-3.1,11.4-10.9v-24.4h11.4L508.3,383.5z"/>
	<path d="M594.6,426.7h-9.4l-25-28.1v28.1h-10.9V383h10.4l23.9,26.5V383h10.9C594.6,383,594.6,426.7,594.6,426.7z"/>
	<path d="M648.2,426.7h-10.9V383h10.9V426.7z"/>
	<path d="M728.3,423c-6.2,3.1-10.9,4.2-17.7,4.2c-17.2,0-26-10.9-26-22.4c0-11.4,9.9-22.4,27-22.4c6.2,0,12,1,16.1,3.6v9.9
		c-4.7-2.6-9.9-4.7-15.6-4.7c-9.4,0-16.1,5.7-16.1,13c0,7.8,6.8,13.5,16.1,13.5c5.7,0,9.9-1.6,16.1-4.7
		C728.3,413.2,728.3,423,728.3,423z"/>
	<path d="M808.4,426.7h-12l-3.6-8.8H773l-3.1,8.8h-12l18.2-43.7h13L808.4,426.7z M782.4,393.4l-6.8,16.6h13.5L782.4,393.4z"/>
	<path d="M873.9,391.3h-16.1v35.4h-10.9v-35.4h-16.1v-7.8h43.7v7.8H873.9z"/>
	<path d="M919.1,426.7h-10.9V383h10.9V426.7z"/>
	<path d="M978.4,427.2c-16.6,0-25.5-11.4-25.5-22.4c0-10.4,8.8-22.4,25.5-22.4c16.6,0,25.5,12,25.5,22.4
		C1003.9,416.3,994.5,427.2,978.4,427.2z M978.4,391.8c-8.3,0-14,5.2-14,13c0,7.8,5.7,13,14,13s14-5.2,14-13
		C992.4,397,986.7,391.8,978.4,391.8z"/>
	<path d="M1082.4,426.7h-9.4l-25-28.1v28.1h-10.9V383h10.4l23.9,26.5V383h10.9V426.7z"/>
	<path d="M1147.4,394.4c-6.2-2.6-10.4-3.6-14-3.6c-4.2,0-6.8,1.6-6.8,3.6c0,6.8,22.9,4.7,22.9,19.8c0,8.3-7.3,13-17.2,13
		c-7.8,0-11.4-2.1-16.1-4.2v-9.4c6.2,4.2,10.4,5.7,15.1,5.7c4.2,0,6.8-1.6,6.8-4.2c0-7.3-22.9-4.7-22.9-20.3
		c0-7.3,6.8-12.5,17.2-12.5c5.2,0,9.4,1,15.1,3.1L1147.4,394.4L1147.4,394.4z"/>
	<polygon points="954.5,230.1 935.8,230.1 1006.5,339.8 1024.7,339.8 	"/>
	<polygon class="st1" points="935.8,230.1 1006.5,339.8 781.8,339.8 852,230.1 	"/>
</g>
</svg>
