<?xml version="1.0" encoding="utf-8"?>
<!-- Generator: Adobe Illustrator 23.1.0, SVG Export Plug-In . SVG Version: 6.00 Build 0)  -->
<svg version="1.1" id="Layer_1" xmlns:svg="http://www.w3.org/2000/svg"
	 xmlns="http://www.w3.org/2000/svg" xmlns:xlink="http://www.w3.org/1999/xlink" x="0px" y="0px" viewBox="0 0 1260 480"
	 style="enable-background:new 0 0 1260 480;" xml:space="preserve">
<style type="text/css">
	.st0{fill:#491770;}
</style>
<g id="g7">
	<path id="path9" class="st0" d="M321.9,209.58c13.19-3.31,30.15-24.98,30.15-50.89c0-25.93-20.73-56.07-72.56-56.07
		s-139.49,0-139.49,0v230.42h131c66.9,0,87.64-29.68,87.64-68.79S321.9,209.58,321.9,209.58z M205.03,158.4h59.85
		c13.67,0,18.55,10.37,18.55,16.48c0,6.14-1.6,17.92-19.03,17.92c-17.44,0-59.38,0-59.38,0V158.4L205.03,158.4z M260.63,282.15
		c-18.85,0-57.02,0-57.02,0v-46.18h56.62c12.72,0,27.27,5.19,27.27,22.15C287.5,275.08,279.49,282.15,260.63,282.15z"/>
	<path id="path11" class="st0" d="M471.27,101.85c-27.5,0-49.93,12.17-66.43,25.73c-28.01,23-38.75,59.85-38.27,95.64
		c0.55,41.81,20.99,83.41,53.92,98.39c77.75,35.34,139.85,9.54,162.46-12.6v-50.42c0,0-34.4,33.45-90.94,25.45
		c-56.55-8.01-55.6-44.3-56.07-49.02h150.32C586.26,235.03,599.91,101.85,471.27,101.85z M437.35,191.68
		c-0.49-6.6,9.88-33.93,41.46-33.93c31.57,0,37.69,33.93,37.69,33.93H437.35z"/>
	<path id="path13" class="st0" d="M735.63,102.62c-27.88,0.88-48.85,15.59-66.43,37.41v-30.81h-67.4v223.83h67.4V191.38
		c10.76-15.43,28.07-35.77,45.22-36.94c17.81-1.2,28.84,8.45,35.35,31.35v146.79h68.79V179.9
		C814.33,126.64,779.94,101.2,735.63,102.62z"/>
	<path id="path15" class="st0" d="M1012.9,327.54c39.2-16.59,65.57-52.39,67.68-108.45c2.47-65.85-56.14-119.32-125.4-119.32
		c-69.24,0-126.69,53.42-125.4,119.32c1.53,77.51,56.15,119.31,125.4,119.31c63.83,67.65,155.81,32.9,155.81,32.9l9.01-71.89
		C1071.83,335.45,1026.6,330.89,1012.9,327.54z M901.24,224.8c0-35.89,23.81-65,53.19-65c29.38,0,51.92,29.1,51.92,65
		c0,35.86-22.55,64.96-51.92,64.96C925.05,289.77,901.24,260.67,901.24,224.8z"/>
</g>
</svg>
