<?xml version="1.0" encoding="utf-8"?>
<!-- Generator: Adobe Illustrator 23.1.0, SVG Export Plug-In . SVG Version: 6.00 Build 0)  -->
<svg version="1.1" id="Слой_1" xmlns="http://www.w3.org/2000/svg" xmlns:xlink="http://www.w3.org/1999/xlink" x="0px" y="0px"
	 viewBox="0 0 1260 480" style="enable-background:new 0 0 1260 480;" xml:space="preserve">
<style type="text/css">
	.st0{fill:#00827E;}
</style>
<g>
	<path class="st0" d="M425.5,164.6v-0.7c14.5-4.5,25.9-12.1,34.1-22.8c8.2-10.7,12.3-23.3,12.3-37.8c0-17.4-7.2-31.5-21.7-42.3
		s-34.1-16.2-58.8-16.2h-81.2v256h82.1c26.3,0,48.1-6.8,65.3-20.4c17.3-13.6,25.9-31.3,25.9-53.2c0-17.6-5.3-31.9-15.8-42.9
		C457.2,173.1,443.2,166.6,425.5,164.6 M352.5,78.7h30.9c29.3,0,43.9,11,43.9,32.8c0,12.7-4.2,22.6-12.6,29.5
		c-8.4,7-20,10.4-34.7,10.4h-27.5V78.7z M425.5,255.7c-8.6,7.3-20.9,11-36.7,11h-36.2v-81h30.7c36.8,0,55.2,13.3,55.2,39.8
		C438.4,238.3,434.1,248.4,425.5,255.7"/>
	<rect x="521.9" y="44.6" class="st0" width="43.7" height="256"/>
	<path class="st0" d="M904.9,228.7c-3.7-5.6-7.1-10.5-10.1-14.7c-3-4.2-6.1-8-9.2-11.3c-3.1-3.3-6.4-6.6-9.8-9.7
		c-3.5-3.2-7.5-6-12.1-8.7v-0.7c8.7-2.3,16.5-5.5,23.5-9.6c7-4.2,12.9-9.2,17.9-15.1c4.9-5.9,8.7-12.6,11.4-20.2
		c2.7-7.6,4-15.9,4-24.9c0-11.5-2.1-21.6-6.3-30.3c-4.2-8.6-10.1-15.8-17.6-21.6c-7.5-5.8-16.3-10.1-26.4-12.9
		c-10.1-2.9-21.2-4.3-33.2-4.3h-42h-42.3h-42c-12,0-23.1,1.4-33.2,4.3c-10.1,2.9-18.9,7.2-26.4,12.9c-7.5,5.8-13.4,13-17.6,21.6
		c-4.2,8.6-6.3,18.7-6.3,30.3c0,9,1.3,17.3,4,24.9c2.7,7.6,6.5,14.3,11.4,20.2c4.9,5.9,10.9,10.9,17.9,15.1c7,4.2,14.8,7.4,23.5,9.6
		v0.7c-4.6,2.6-8.7,5.5-12.1,8.7c-3.5,3.2-6.7,6.4-9.8,9.7c-3.1,3.3-6.2,7.1-9.2,11.3c-3,4.2-6.4,9.1-10.1,14.7l-45.5,71.9h49.6
		l40.9-68.6c3.7-6.3,7.3-11.7,10.8-16.2c3.5-4.5,7.1-8.1,10.7-11c3.6-2.9,7.6-4.9,11.9-6.2c4.3-1.3,9.1-2,14.5-2h17.1v103.9h42.3
		V196.7h17.1c5.4,0,10.2,0.7,14.5,2c4.3,1.3,8.2,3.4,11.9,6.2c3.6,2.9,7.2,6.5,10.7,11c3.5,4.5,7.1,9.8,10.8,16.2l40.9,68.6h49.6
		L904.9,228.7z M752.6,162.2h-35.3c-6.5,0-12.6-1-18.1-3c-5.5-2-10.3-4.9-14.4-8.7c-4-3.8-7.2-8.4-9.5-13.9
		c-2.3-5.5-3.4-11.6-3.4-18.4c0-12.3,3.9-21.8,11.6-28.7c7.7-6.9,18.9-10.4,33.4-10.4h35.7V162.2z M848.4,159.2
		c-5.5,2-11.6,3-18.1,3h-35.3V79.1h35.7c14.5,0,25.6,3.5,33.4,10.4c7.7,6.9,11.6,16.5,11.6,28.7c0,6.8-1.1,12.9-3.4,18.4
		c-2.3,5.5-5.4,10.1-9.5,13.9C858.7,154.3,853.9,157.2,848.4,159.2"/>
	<rect x="309.6" y="355.2" class="st0" width="10.3" height="60"/>
	<path class="st0" d="M355.3,414.8c-1.9,0.9-4.4,1.4-7.5,1.4c-8.3,0-12.5-4-12.5-12V380h-7.2v-7.6h7.2v-9.9l9.7-2.8v12.7h10.3v7.6
		h-10.3v21.4c0,2.5,0.5,4.4,1.4,5.4c0.9,1.1,2.5,1.6,4.6,1.6c1.6,0,3.1-0.5,4.3-1.4V414.8z"/>
	<polygon class="st0" points="376.9,354 370.1,372.6 363.7,372.6 368.4,354 	"/>
	<path class="st0" d="M380.9,413.9v-9c3.6,2.8,7.6,4.1,12,4.1c5.9,0,8.8-1.7,8.8-5.2c0-1-0.3-1.8-0.8-2.5c-0.5-0.7-1.2-1.3-2-1.8
		c-0.9-0.5-1.9-1-3-1.4c-1.2-0.4-2.5-0.9-3.9-1.4c-1.8-0.7-3.3-1.4-4.8-2.2c-1.4-0.8-2.6-1.7-3.5-2.7c-0.9-1-1.6-2.1-2.1-3.4
		c-0.5-1.3-0.7-2.7-0.7-4.4c0-2.1,0.5-3.9,1.5-5.5c1-1.6,2.3-2.9,3.9-4c1.6-1.1,3.5-1.9,5.6-2.4c2.1-0.5,4.3-0.8,6.5-0.8
		c4,0,7.5,0.6,10.6,1.8v8.5c-3-2.1-6.5-3.1-10.4-3.1c-1.2,0-2.3,0.1-3.3,0.4c-1,0.3-1.8,0.6-2.5,1c-0.7,0.4-1.2,1-1.6,1.6
		c-0.4,0.6-0.6,1.3-0.6,2.1c0,0.9,0.2,1.7,0.6,2.3c0.4,0.6,1,1.2,1.7,1.7c0.8,0.5,1.7,0.9,2.8,1.3c1.1,0.4,2.3,0.8,3.7,1.3
		c1.8,0.8,3.5,1.5,5,2.3s2.7,1.7,3.7,2.7c1,1,1.8,2.1,2.4,3.4c0.6,1.3,0.8,2.8,0.8,4.6c0,2.2-0.5,4.1-1.5,5.7c-1,1.6-2.3,3-4,4
		c-1.7,1.1-3.6,1.9-5.8,2.4c-2.2,0.5-4.5,0.8-6.9,0.8C388.4,416.2,384.3,415.4,380.9,413.9"/>
	<path class="st0" d="M480.4,396.4h-29.2c0.1,4,1.3,7,3.7,9.2c2.3,2.1,5.5,3.2,9.6,3.2c4.6,0,8.8-1.4,12.6-4.1v7.8
		c-3.9,2.5-9.1,3.7-15.5,3.7c-6.3,0-11.3-1.9-14.8-5.8c-3.6-3.9-5.4-9.4-5.4-16.4c0-6.7,2-12.1,5.9-16.3c4-4.2,8.9-6.3,14.7-6.3
		c5.9,0,10.4,1.9,13.6,5.7c3.2,3.8,4.8,9,4.8,15.7V396.4z M471.1,389.5c0-3.5-0.9-6.2-2.5-8.1c-1.6-1.9-3.9-2.9-6.7-2.9
		c-2.8,0-5.2,1-7.1,3.1c-1.9,2-3.1,4.7-3.6,8H471.1z"/>
	<path class="st0" d="M553.9,415.2h-9.7v-23.4c0-4.5-0.6-7.7-1.9-9.8c-1.3-2-3.4-3-6.4-3c-2.5,0-4.7,1.3-6.5,3.8
		c-1.8,2.5-2.7,5.6-2.7,9.1v23.2H517v-24.2c0-8-2.8-12-8.5-12c-2.6,0-4.8,1.2-6.5,3.6c-1.7,2.4-2.5,5.5-2.5,9.3v23.2h-9.7v-42.9h9.7
		v6.8h0.2c3.1-5.2,7.6-7.8,13.5-7.8c3,0,5.5,0.8,7.8,2.5c2.2,1.6,3.7,3.8,4.5,6.4c3.2-5.9,7.9-8.9,14.2-8.9
		c9.4,0,14.2,5.8,14.2,17.5V415.2z"/>
	<path class="st0" d="M575.3,409h-0.2v6.2h-9.7v-63.5h9.7v28.1h0.2c3.3-5.7,8.2-8.5,14.6-8.5c5.4,0,9.7,1.9,12.7,5.8
		c3.1,3.8,4.6,9,4.6,15.4c0,7.2-1.7,12.9-5.2,17.2c-3.4,4.3-8.1,6.5-14.1,6.5C582.4,416.2,578.2,413.8,575.3,409 M575.1,392v5.3
		c0,3.1,1,5.8,3,8c2,2.2,4.5,3.3,7.6,3.3c3.6,0,6.4-1.4,8.5-4.2c2.1-2.8,3.1-6.7,3.1-11.7c0-4.2-1-7.5-2.9-9.9
		c-1.9-2.4-4.5-3.6-7.8-3.6c-3.5,0-6.2,1.2-8.4,3.7C576.1,385.2,575.1,388.3,575.1,392"/>
	<path class="st0" d="M641.8,381.6c-1.2-0.9-2.9-1.4-5.1-1.4c-2.9,0-5.3,1.3-7.2,3.9c-1.9,2.6-2.9,6.1-2.9,10.6v20.5h-9.7v-42.9h9.7
		v8.8h0.2c1-3,2.4-5.4,4.4-7.1c2-1.7,4.2-2.5,6.6-2.5c1.8,0,3.1,0.3,4,0.8V381.6z"/>
	<path class="st0" d="M689,372.3l-19.3,49.7c-4,8.9-9.7,13.3-16.9,13.3c-2,0-3.7-0.2-5.1-0.5v-8.1c1.5,0.5,2.9,0.8,4.2,0.8
		c3.6,0,6.3-1.8,8.1-5.4l2.9-7l-17-42.8h10.8l10.2,31.2c0.1,0.4,0.4,1.4,0.8,3.1h0.2c0.1-0.6,0.4-1.6,0.8-3l10.7-31.2H689z"/>
	<path class="st0" d="M713.4,416.2c-6.6,0-11.9-2-15.9-6c-4-4-5.9-9.3-5.9-15.9c0-7.2,2.1-12.8,6.2-16.9c4.1-4,9.7-6.1,16.6-6.1
		c6.7,0,11.9,2,15.7,5.9c3.7,3.9,5.6,9.4,5.6,16.4c0,6.8-2,12.3-6.1,16.4C725.6,414.2,720.2,416.2,713.4,416.2 M713.9,379.1
		c-3.8,0-6.8,1.3-9,4c-2.2,2.7-3.3,6.3-3.3,11c0,4.5,1.1,8,3.4,10.6c2.2,2.6,5.2,3.9,9,3.9c3.8,0,6.8-1.3,8.8-3.8
		c2.1-2.5,3.1-6.2,3.1-10.8c0-4.7-1-8.4-3.1-10.9S717.7,379.1,713.9,379.1"/>
	<path class="st0" d="M944.4,416.1c-1.7,0-3.1-0.5-4.3-1.6c-1.2-1.1-1.8-2.4-1.8-3.9c0-1.6,0.6-2.9,1.8-4.1c1.2-1.1,2.6-1.7,4.3-1.7
		c1.6,0,3,0.6,4.2,1.7c1.2,1.1,1.8,2.5,1.8,4.1c0,1.5-0.6,2.8-1.8,3.9C947.5,415.5,946.1,416.1,944.4,416.1 M949.1,355.2l-0.8,42.4
		h-8l-1.1-42.4H949.1z"/>
	<polygon class="st0" points="754,415.2 744.3,415.2 753.2,351.7 762.9,351.7 	"/>
	<path class="st0" d="M785.2,416.2c-6.6,0-11.6-2-15-6c-3.4-4-4.6-9.3-3.7-15.9c1-7.2,3.9-12.8,8.5-16.9c4.7-4,10.5-6.1,17.5-6.1
		c6.7,0,11.6,2,14.8,5.9c3.2,3.9,4.3,9.4,3.3,16.4c-1,6.8-3.7,12.3-8.4,16.4C797.8,414.2,792,416.2,785.2,416.2 M790.9,379.1
		c-3.8,0-7,1.3-9.6,4c-2.6,2.7-4.2,6.3-4.8,11c-0.6,4.5,0,8,1.9,10.6c1.9,2.6,4.7,3.9,8.4,3.9c3.8,0,6.9-1.3,9.4-3.8
		c2.4-2.5,3.9-6.1,4.6-10.8c0.7-4.7,0.2-8.4-1.5-10.9C797.5,380.4,794.7,379.1,790.9,379.1"/>
	<path class="st0" d="M857.3,411.8c-2.2,15.7-11.2,23.6-27.1,23.6c-5.6,0-10.3-0.9-14.2-2.8l1.2-8.9c4.3,2.7,8.6,4,12.8,4
		c10.2,0,16-5,17.4-15l0.7-4.7h-0.2c-4,5.5-9.2,8.2-15.6,8.2c-5.2,0-9.2-1.9-11.8-5.7c-2.7-3.8-3.5-8.9-2.6-15.3
		c1-7.3,3.6-13.1,7.6-17.4c4-4.3,9.1-6.5,15.1-6.5c5.7,0,9.5,2.3,11.6,7h0.2l0.8-5.9h9.7L857.3,411.8z M849.9,395.6l0.8-5.6
		c0.4-3-0.2-5.6-1.9-7.7c-1.7-2.1-4-3.2-7-3.2c-3.7,0-6.8,1.4-9.2,4.1c-2.5,2.7-4,6.5-4.7,11.4c-0.6,4.2-0.1,7.6,1.6,10.1
		c1.6,2.5,4.1,3.8,7.4,3.8c3.4,0,6.2-1.2,8.7-3.6C847.9,402.4,849.4,399.3,849.9,395.6"/>
	<path class="st0" d="M878.5,415.2h-9.7l6-42.9h9.7L878.5,415.2z M881,363.3c-1.6,0-2.9-0.5-3.9-1.5c-1-1-1.4-2.3-1.1-3.9
		s1-2.9,2.3-4c1.3-1.1,2.7-1.6,4.3-1.6c1.6,0,3,0.5,4,1.6s1.4,2.4,1.2,4c-0.2,1.5-1,2.8-2.3,3.9C884.1,362.8,882.6,363.3,881,363.3"
		/>
	<path class="st0" d="M921.6,413.2c-3.7,2-7.9,3-12.6,3c-6.4,0-11.2-2-14.6-6c-3.4-4-4.6-9.1-3.7-15.5c1-7.1,3.9-12.7,8.7-17
		c4.8-4.3,10.7-6.4,17.8-6.4c3.9,0,7.3,0.7,10.1,2.1l-1.3,9c-2.7-2.2-5.7-3.4-9.1-3.4c-4.1,0-7.7,1.4-10.7,4.2
		c-3,2.8-4.8,6.4-5.5,10.9c-0.6,4.4,0.1,7.9,2.2,10.5c2.1,2.6,5.2,3.9,9.4,3.9c3.5,0,7-1.2,10.4-3.7L921.6,413.2z"/>
</g>
</svg>
