<?xml version="1.0" encoding="utf-8"?>
<!-- Generator: Adobe Illustrator 23.1.0, SVG Export Plug-In . SVG Version: 6.00 Build 0)  -->
<svg version="1.1" id="Слой_1" xmlns="http://www.w3.org/2000/svg" xmlns:xlink="http://www.w3.org/1999/xlink" x="0px" y="0px"
	 viewBox="0 0 1260 480" style="enable-background:new 0 0 1260 480;" xml:space="preserve">
<path d="M525.66,214.6c-27.83-1.18-51.34,20.42-52.52,48.25c-0.07,1.57-0.06,3.14,0.02,4.71c0,31.74,23.33,52.96,56.93,52.96
	c9.21,0.11,18.34-1.59,26.89-5l14.32-23.97l-1.9-1.11c-11.39,6.17-24.09,9.52-37.04,9.79c-17.34,0-32.37-8.77-34.04-23.94h76.74
	v-6.94c0-35.07-21.26-54.83-49.35-54.83 M498.33,257.39c0.54-13.78,12.14-24.51,25.91-23.97c0.03,0,0.07,0,0.1,0
	c15.75,0,25.4,9.25,25.58,23.97H498.33z M1048.55,214.61c-27.81-1.2-51.32,20.38-52.52,48.19c-0.07,1.59-0.06,3.18,0.02,4.77
	c0,31.74,23.33,52.96,56.93,52.96c9.19,0.11,18.31-1.59,26.84-5l14.38-23.97l-1.9-1.02c-11.4,6.17-24.11,9.52-37.07,9.79
	c-17.34,0-32.32-8.77-34.01-23.94h76.68C1101.22,236.88,1080.02,214.61,1048.55,214.61 M1021.17,257.49
	c0.52-13.76,12.11-24.5,25.87-23.97c0.03,0,0.06,0,0.09,0c15.75,0,25.4,9.25,25.61,23.97L1021.17,257.49z M696.85,214.61
	c-27.83-1.18-51.34,20.42-52.52,48.25c-0.07,1.57-0.06,3.14,0.02,4.71c0,31.74,23.33,52.96,56.93,52.96
	c9.21,0.12,18.34-1.58,26.89-5l14.32-23.97l-1.92-1.02c-11.38,6.17-24.06,9.52-37,9.79c-17.34,0-32.37-8.77-34.04-23.94h76.77
	c3.32-39.52-17.92-61.79-49.4-61.79 M669.54,257.48c0.54-13.78,12.14-24.51,25.91-23.97c0.03,0,0.07,0,0.1,0
	c15.72,0,25.4,9.25,25.58,23.97L669.54,257.48z M176.91,239.59v-0.41c15.19-3.42,25.93-16.99,25.78-32.56
	c0-27.12-23.07-37.41-45.47-37.41H81.41v2.22l7.63,6.49c9.16,7.48,10.32,8.91,10.32,15.67v124.45h53.52
	c28.06,0,56.2-10.08,56.2-42.47c0.36-18.53-13.63-34.21-32.08-35.95 M125.76,191.89h21.79c14.76,0,19.31,2.05,23.77,6.31
	c3.39,3.38,5.2,8.05,4.96,12.83c0.11,4.67-1.74,9.18-5.1,12.42c-4.38,4.21-10.41,6.26-21.32,6.26h-24.09L125.76,191.89z
	 M150.08,295.31h-24.33v-42.85h25.37c21.39,0,31.44,5.46,31.44,21.01c0,19.55-18.9,21.86-32.49,21.86 M258.94,182.89
	c0.55,8.92-6.24,16.6-15.17,17.15c-8.92,0.55-16.6-6.25-17.15-15.17c-0.55-8.92,6.24-16.6,15.17-17.15
	c0.32-0.02,0.64-0.03,0.96-0.03c8.55-0.46,15.85,6.09,16.31,14.64c0.01,0.17,0.02,0.33,0.02,0.5 M216.67,217.15h38.7v100.84h-25.2
	v-79.36c0-8.33-0.47-9.67-9.51-16.66l-3.99-3.19L216.67,217.15z M416.99,164.77l7.9,5.09c7.17,4.59,8.26,6.78,8.26,13.18v46.76
	h-0.61c-8.29-10.28-20.99-15.98-34.18-15.34c-28.73,0-48.68,23.12-48.68,52.96s18.7,52.96,49.72,52.96
	c13.84,0.72,27.02-5.96,34.62-17.54h0.41l2.62,15.14h21.26V162.96h-41.32L416.99,164.77z M404.42,297.73
	c-16.71,0.36-30.54-12.89-30.9-29.6c-0.36-16.71,12.89-30.54,29.6-30.9s30.54,12.89,30.9,29.6c0,0.22,0.01,0.43,0.01,0.65
	c0.56,16.14-12.08,29.68-28.22,30.24C405.34,297.73,404.88,297.74,404.42,297.73 M939,164.77l3.5,2.31
	c12.14,7.69,13.65,9.91,13.65,23.03v39.83h-0.64c-8.3-10.27-20.99-15.97-34.18-15.34c-28.73,0-48.65,23.12-48.65,52.96
	s18.67,52.96,49.58,52.96c13.84,0.73,27.03-5.95,34.62-17.54h0.44l2.65,15.14h21.26V162.96h-42.29L939,164.77z M927.34,297.73
	c-16.71,0.38-30.56-12.86-30.93-29.57c-0.38-16.71,12.86-30.56,29.57-30.93c16.71-0.38,30.56,12.86,30.93,29.57
	c0.01,0.23,0.01,0.45,0.01,0.68c0.57,16.14-12.05,29.69-28.2,30.26c-0.46,0.02-0.92,0.02-1.38,0.02 M1178.51,215.92v24.37
	c-3.95-1.13-8.03-1.77-12.14-1.9c-13.99-0.93-26.08,9.66-27.01,23.65c-0.04,0.6-0.06,1.19-0.06,1.79v54.01h-25.14v-74.39
	c0-12.68-0.67-14.61-10.91-21.07l-6.33-4.18v-1.11h42.44v16.02h0.44c5.38-11.52,17.06-18.78,29.78-18.5
	c3.06,0.07,6.09,0.56,9.01,1.46 M619.73,216.71h23.33v21.51h-23.33v79.78h-25.26v-71.11c0-8.45-1.69-10.32-11.67-18.24l-12.83-10.46
	v-1.47h24.53v-18.38c0-27.38,17.82-44.78,56.38-37.06l5.83,21.39l-1.23,0.99c-20.15-7.95-35.76-2.93-35.76,14.61V216.71z
	 M858.13,254.28v63.71h-25.17v-56.13c0-11.11-2.89-24.55-20.42-24.55c-16.57,0-23.07,12.19-23.07,25.63v55.05h-25.14v-74.57
	c0-12.68-0.67-14.61-10.91-21.07l-6.12-4.18v-1.11h41.13v15.38h0.41c7.04-10.94,19.07-17.65,32.08-17.89
	c23.77,0,37.48,16.31,37.48,39.69 M341.9,297.73l0.82,0.53c0,0-12.51,20.05-12.48,20.05c-20.42,5.58-43.57-0.35-43.57-33.32v-40.92
	c0-6.52-1.05-6.17-15.16-17.83l-9.13-7.92v-1.2h24.44l9.19-29.2h15.96v29.23h26.92v21.39h-26.92v45.74
	c0,18.21,12.45,18.65,29.98,13.45"/>
</svg>
