<?xml version="1.0" encoding="utf-8"?>
<!-- Generator: Adobe Illustrator 23.1.0, SVG Export Plug-In . SVG Version: 6.00 Build 0)  -->
<svg version="1.1" id="layer" xmlns="http://www.w3.org/2000/svg" xmlns:xlink="http://www.w3.org/1999/xlink" x="0px" y="0px"
	 viewBox="0 0 1260 480" style="enable-background:new 0 0 1260 480;" xml:space="preserve">
<style type="text/css">
	.st0{fill:#323948;}
</style>
<path class="st0" d="M512.89,211.76h37.95c17.27,0,29.86,2.52,37.59,7.37c7.73,4.86,11.69,12.77,11.69,23.38
	c0,7.37-1.8,13.31-5.04,17.99c-3.42,4.68-7.91,7.55-13.67,8.45v0.9c7.73,1.8,13.31,5.04,16.73,9.71c3.42,4.68,5.04,10.97,5.04,18.89
	c0,11.15-3.96,19.79-12.05,25.9c-8.09,6.3-18.89,9.35-32.74,9.35h-45.69V211.76H512.89z M538.79,260.15h14.93
	c7.01,0,12.05-1.08,15.29-3.24c3.06-2.16,4.68-5.76,4.68-10.79c0-4.68-1.8-8.09-5.04-10.07c-3.42-1.98-8.81-3.06-16.19-3.06h-13.67
	V260.15z M538.79,280.47v31.84h16.91c7.19,0,12.41-1.44,15.83-4.14c3.42-2.7,5.04-6.84,5.04-12.59c0-10.07-7.19-15.11-21.76-15.11
	L538.79,280.47L538.79,280.47z M624.59,216.44c0-8.27,4.68-12.41,13.85-12.41c9.17,0,13.85,4.14,13.85,12.41
	c0,3.96-1.08,7.01-3.42,9.17c-2.34,2.16-5.76,3.24-10.43,3.24C629.09,228.85,624.59,224.72,624.59,216.44 M651.03,333.72h-25.36
	v-93.17h25.36V333.72z M717.04,315.01c-3.42,0-5.94-0.9-8.09-2.52c-1.98-1.8-3.06-4.32-3.06-7.91v-44.97h26.08v-19.07h-26.08v-19.79
	H689.7l-7.37,19.61l-14.03,8.45v10.79h12.23v44.97c0,10.25,2.34,17.99,7.01,23.02c4.68,5.22,12.05,7.73,22.3,7.73
	c9.17,0,17.09-1.44,23.38-4.32v-18.89C726.76,314.11,721.36,315.01,717.04,315.01 M800.86,233.35h33.1v-21.58h-92.09v21.58h33.1
	v100.37h25.9V233.35z M849.61,216.44c0-8.27,4.68-12.41,13.85-12.41s13.85,4.14,13.85,12.41c0,3.96-1.08,7.01-3.42,9.17
	c-2.34,2.16-5.76,3.24-10.43,3.24C854.28,228.85,849.61,224.72,849.61,216.44 M876.05,333.72h-25.36v-93.17h25.36V333.72z
	 M942.06,315.01c-3.42,0-5.94-0.9-8.09-2.52c-1.98-1.8-3.06-4.32-3.06-7.91v-44.97h26.08v-19.07h-26.08v-19.79h-16.19l-7.37,19.61
	l-14.03,8.45v10.79h12.23v44.97c0,10.25,2.34,17.99,7.01,23.02c4.68,5.22,12.05,7.73,22.3,7.73c9.17,0,17.09-1.44,23.38-4.32v-18.89
	C951.77,314.11,946.56,315.01,942.06,315.01 M1036.13,333.72l-4.86-12.59h-0.72c-4.32,5.4-8.63,9.17-13.13,11.15
	c-4.5,2.16-10.43,3.06-17.81,3.06c-8.99,0-16.01-2.52-21.04-7.73c-5.22-5.04-7.73-12.41-7.73-21.76c0-9.89,3.42-17.27,10.43-21.94
	c6.84-4.68,17.27-7.37,31.3-7.73l16.19-0.54v-4.14c0-9.53-4.86-14.21-14.57-14.21c-7.37,0-16.19,2.16-26.26,6.84l-8.45-17.09
	c10.79-5.58,22.66-8.45,35.61-8.45c12.59,0,22.12,2.7,28.78,8.27c6.66,5.4,10.07,13.67,10.07,24.82v62.06L1036.13,333.72
	L1036.13,333.72z M1028.58,290.55l-9.89,0.36c-7.37,0.18-12.95,1.62-16.55,3.96c-3.6,2.52-5.4,6.12-5.4,11.15
	c0,7.19,4.14,10.79,12.41,10.79c5.94,0,10.61-1.62,14.21-5.04c3.6-3.42,5.22-7.91,5.22-13.49L1028.58,290.55L1028.58,290.55z
	 M1166,272.92c0-10.97-2.88-19.61-8.45-25.36c-5.58-5.94-13.85-8.81-24.64-8.81c-6.3,0-12.05,1.08-16.91,3.42
	c-5.04,2.34-8.81,5.76-11.69,10.25h-1.44l-3.42-11.87h-19.43v93.17h25.36v-43.89c0-10.97,1.62-18.89,4.68-23.56
	c3.24-4.68,8.27-7.19,15.47-7.19c5.22,0,8.99,1.62,11.33,5.04c2.34,3.42,3.6,8.45,3.6,15.11v54.5h25.36v-60.8H1166z M404.79,267.34
	c66.91-4.86,54.86,79.14,36.15,79.14H166.82c-0.54,0-0.9,0-1.44,0l0,0c-92.27,0-102.71-102.35-34.18-165.12l-22.66-22.66h74.65
	v75.19l-23.02-20.86c-61.34,42.45-50.18,102.89-9.17,117.64c7.91,2.52,14.75,3.24,17.99,3.42c0.72,0,1.26,0,1.98,0h260.45
	c0,0,33.82-47.13-39.03-59.54c20.69-79.68-34.89-105.04-86.34-89.94c-40.11-76.8-108.46-46.77-123.03-25.9
	c3.42-34.18,98.93-61.34,128.97,14.03C376.91,154.39,436.8,194.86,404.79,267.34 M377.99,266.45
	c23.92-75.91-46.95-68.53-46.95-68.53C374.21,212.48,375.47,226.15,377.99,266.45 M140.92,261.23
	c-19.79,67.09,45.87,57.02,45.87,57.02C151.89,309.79,140.74,294.5,140.92,261.23 M417.92,186.4h-4.86v-16.55h-5.4v-3.96h15.47v3.96
	h-5.4v16.55H417.92z M433.21,186.4l-3.78-15.11h-0.18l0.18,5.4v9.71h-4.68V165.9h7.55l3.24,13.85l3.6-13.85h7.55v20.51h-4.86v-12.95
	v-2.34h-0.18l-3.96,15.11h-4.5V186.4z"/>
</svg>
