<?xml version="1.0" encoding="utf-8"?>
<!-- Generator: Adobe Illustrator 23.1.0, SVG Export Plug-In . SVG Version: 6.00 Build 0)  -->
<svg version="1.1" id="Слой_1" xmlns="http://www.w3.org/2000/svg" xmlns:xlink="http://www.w3.org/1999/xlink" x="0px" y="0px"
	 viewBox="0 0 1260 480" style="enable-background:new 0 0 1260 480;" xml:space="preserve">
<style type="text/css">
	.st0{fill:#2B2523;}
	.st1{fill:#E30D18;}
	.st2{fill-rule:evenodd;clip-rule:evenodd;fill:#2B2523;}
</style>
<g>
	<path class="st0" d="M1174.3,202.9h-1.8v-2.4h2.9c1.4,0,2.6,0.1,2.6,1.3C1178,203.1,1175.9,202.9,1174.3,202.9 M1179.7,201.6
		c0-2.1-1.9-2.6-3.9-2.6h-4.8v9.8h1.7v-4.5h2.1l2.9,4.5h1.9l-2.9-4.5C1178.1,204.2,1179.7,203.5,1179.7,201.6"/>
	<path class="st0" d="M1174.8,214.2c-5.6,0-10.2-4.6-10.2-10.2c0-5.6,4.6-10.2,10.2-10.2c5.6,0,10.2,4.6,10.2,10.2
		C1185,209.6,1180.4,214.2,1174.8,214.2 M1174.8,195.3c-4.8,0-8.7,3.9-8.7,8.7c0,4.8,3.9,8.7,8.7,8.7c4.8,0,8.7-3.9,8.7-8.7
		C1183.5,199.2,1179.6,195.3,1174.8,195.3"/>
	<path class="st0" d="M193.6,270.2c0,23.1-17.8,36.6-51.3,36.6H75V173.2h63.8c32.8,0,48.8,14.3,48.8,34.9c0,12.8-6.1,23.1-16.7,29
		C184.9,242.5,193.6,253.9,193.6,270.2 M109.9,200.5v25.8h24.2c11.8,0,17.8-4.4,17.8-13c0-8.4-6.1-12.8-17.8-12.8H109.9z M158,266
		c0-9.2-6.4-13.6-18.5-13.6h-29.6v27.1h29.6C151.6,279.5,158,275.1,158,266"/>
	<polygon class="st0" points="212,173.2 247.2,173.2 247.2,276.8 306.7,276.8 306.7,306.8 212,306.8 	"/>
	<path class="st0" d="M412.8,280.8h-52.7l-9.8,26h-36l55-133.6h34.7l55.2,133.6h-36.7L412.8,280.8z M402.5,253l-16-42.8l-16,42.8
		H402.5z"/>
	<path class="st0" d="M453.7,240c0-40.7,29-69.5,68.6-69.5c23,0,41.5,9,53.6,25.2l-22.4,21.8c-7.8-10.1-17.5-15.7-29.4-15.7
		c-20.5,0-34.7,15.3-34.7,38.2c0,22.9,14.2,38.2,34.7,38.2c11.9,0,21.6-5.5,29.4-15.7l22.4,21.8c-12.1,16.2-30.6,25.2-53.6,25.2
		C482.7,309.5,453.7,280.7,453.7,240"/>
	<polygon class="st0" points="638.1,258.3 624.9,273.4 624.9,306.8 590,306.8 590,173.2 624.9,173.2 624.9,228.7 673.1,173.2 
		712,173.2 661,232.4 714.7,306.8 673.7,306.8 	"/>
	<path class="st1" d="M886.5,270.2c0,23.1-17.8,36.6-51.3,36.6h-67.3V173.2h63.8c32.8,0,48.8,14.3,48.8,34.9
		c0,12.8-6.1,23.1-16.7,29C877.8,242.5,886.5,253.9,886.5,270.2 M802.8,200.5v25.8H827c11.8,0,17.8-4.4,17.8-13
		c0-8.4-6.1-12.8-17.8-12.8H802.8z M850.9,266c0-9.2-6.4-13.6-18.5-13.6h-29.6v27.1h29.6C844.5,279.5,850.9,275.1,850.9,266"/>
	<polygon class="st1" points="1138,306.8 1112.2,265.4 1086.7,306.8 1046.5,306.8 1091.9,239.2 1048.4,173.2 1088.2,173.2 
		1113.1,211.8 1137.7,173.2 1175.8,173.2 1132.3,237.7 1178.7,306.8 	"/>
	<path class="st2" d="M1002.5,171.8h-46.1l-67,67.5l-0.6,0.6l67.5,67.4l0.2,0.2h46l67.2-67l0.6-0.6l-67.3-67.6L1002.5,171.8z
		 M992.1,179.4L979.5,192L967,179.4H992.1z M1016.9,240l-37.3,37.3L942.3,240l37.3-37.6L1016.9,240z M958.1,180.8l16.3,16.4
		l-38.8,39.1H903L958.1,180.8z M903.1,243.6h32.5l38.8,38.8l-16.3,16.3L903.1,243.6z M967,300.1l12.5-12.5l12.5,12.5H967z
		 M1000.9,298.6l-16.2-16.2l38.8-38.8h32.5L1000.9,298.6z M1023.5,236.3l-38.8-39.1l16.2-16.3l55.2,55.4H1023.5z"/>
</g>
</svg>
