<?xml version="1.0" encoding="utf-8"?>
<!-- Generator: Adobe Illustrator 23.1.0, SVG Export Plug-In . SVG Version: 6.00 Build 0)  -->
<svg version="1.1" id="Слой_1" xmlns="http://www.w3.org/2000/svg" xmlns:xlink="http://www.w3.org/1999/xlink" x="0px" y="0px"
	 viewBox="0 0 1260 480" style="enable-background:new 0 0 1260 480;" xml:space="preserve">
<style type="text/css">
	.st0{fill:#2799CE;}
</style>
<g>
	<polygon class="st0" points="178.8,200.4 150.6,210.2 108.5,159.8 73,139.4 191.8,345.2 191.9,304.3 169.3,242.6 205.2,215.6 	"/>
	<polygon class="st0" points="181.4,195.8 175.8,166.6 111.1,155.3 75.7,134.8 313.3,134.8 278,155.3 213.3,166.6 207.7,211.2 	"/>
	<polygon points="280.6,159.8 316.1,139.4 197.3,345.2 197.1,304.3 	"/>
	<path d="M486.8,195h23.1v76.1h77.6l-13.9,13h-86.7V195z M750.1,195h116.2l-13.4,13h-79.1v23.9h79.6v13.4h-79.6v26.5h81.8l14.5,13
		H750.6L750.1,195z M931.9,208h-40.5l-12.1-13h128.4L996,208h-40.6V284h-23.1L931.9,208z M1071.6,208h-40.5l-12-13h128.1l-11.9,13
		h-40.5V284H1072L1071.6,208z M1163.5,195h23.5v89h-23.1L1163.5,195z M353.3,195h60.8c14.8-0.2,29.5,2.5,43.2,8v29
		c-3.2,2.1-6.7,3.7-10.3,4.7c4.7,1.4,9.1,3.5,13,6.3v32.5c-12.1,6.8-25.9,9.9-39.8,9h-68.1v-86l23.2,12.2v60.8h39.8
		c9.2,0.3,18.5-1,27.3-3.7v-18.4c-8.8-2.7-18.1-4-27.3-3.7h-35.6v-15.9h35.6c8.1,0.3,16.1-0.7,23.9-2.8v-16.3
		c-7.8-2.1-15.8-2.9-23.9-2.5H379L353.3,195z M602.6,263.5v-69.1l21.5,6.8v57.1c4.7,5.3,11,8.8,17.9,10.1h41.9
		c6.9-1.3,13.1-4.9,17.7-10.1v-57.1l21.5-6.9v68.9c-8.9,11.3-21.4,19.3-35.4,22.6H638c-14-3.2-26.5-10.9-35.6-22"/>
</g>
</svg>
