<?xml version="1.0" encoding="utf-8"?>
<!-- Generator: Adobe Illustrator 23.1.0, SVG Export Plug-In . SVG Version: 6.00 Build 0)  -->
<svg version="1.1" id="Слой_1" xmlns="http://www.w3.org/2000/svg" xmlns:xlink="http://www.w3.org/1999/xlink" x="0px" y="0px"
	 viewBox="0 0 1260 480" style="enable-background:new 0 0 1260 480;" xml:space="preserve">
<style type="text/css">
	.st0{fill:#EEA500;}
</style>
<g>
	<path class="st0" d="M90.38,161.87h102.79c17.24,0,30.34,3.72,39.62,11.17c9.12,7.44,13.76,16.66,13.76,27.82
		c0,9.22-3.32,17.15-9.94,23.62c-4.31,4.53-10.61,7.93-19.06,10.51c12.76,2.75,22.05,7.28,28.18,13.91
		c5.97,6.63,8.96,14.89,8.96,24.75c0,8.09-2.16,15.37-6.46,21.84c-4.15,6.47-10.11,11.65-17.57,15.37
		c-4.48,2.27-11.44,4.05-20.73,5.18c-12.43,1.3-20.72,2.11-24.7,2.11H90.38V161.87z M1001.85,318.13V207.32h18.9v15.69
		c3.86-5.5,8.95-9.87,15.44-13.11c6.43-3.4,13.75-5.01,22.05-5.01c9.13,0,16.56,1.78,22.35,5.18c5.97,3.4,10.12,8.09,12.46,14.24
		c9.77-12.95,22.52-19.41,38.32-19.41c12.23,0,21.7,3.07,28.31,9.06c6.67,6.15,9.94,15.53,9.94,28.15v76.03h-20.88v-69.72
		c0-7.6-0.82-12.94-2.16-16.18c-1.29-3.4-3.8-5.98-7.25-8.09c-3.69-1.94-7.84-2.91-12.64-2.91c-8.78,0-15.91,2.59-21.7,7.77
		c-5.79,5.17-8.6,13.43-8.6,24.75v64.38h-21.06v-71.98c0-8.25-1.7-14.56-5.15-18.77c-3.33-4.04-8.95-6.15-16.73-6.15
		c-5.85,0-11.29,1.3-16.26,4.21c-4.97,2.75-8.6,6.79-10.76,12.14c-2.34,5.34-3.51,13.1-3.51,23.13v57.43H1001.85z M875.2,261.52
		c0-20.06,6.32-34.94,18.9-44.65c10.65-7.93,23.58-11.97,38.78-11.97c17.08,0,30.83,4.85,41.65,14.56
		c10.76,9.87,16.2,23.29,16.2,40.44c0,14.08-2.46,24.92-7.08,33c-4.86,7.92-11.82,14.07-20.94,18.6
		c-9.07,4.37-19.01,6.63-29.83,6.63c-17.2,0-31.12-4.85-41.77-14.56C880.52,293.87,875.2,279.79,875.2,261.52z M896.61,261.35
		L896.61,261.35c0,13.92,3.45,24.26,10.24,31.22c6.96,6.96,15.62,10.35,26.03,10.35c10.47,0,19.07-3.56,26.03-10.35
		c6.96-6.96,10.47-17.63,10.47-31.71c0-13.43-3.51-23.61-10.47-30.41c-6.96-6.96-15.56-10.35-26.03-10.35
		c-10.41,0-19.07,3.4-26.03,10.19C900.06,237.25,896.61,247.61,896.61,261.35z M844.84,275.91l20.59,2.27
		c-2.16,12.61-7.96,22.32-17.08,29.28c-9.3,7.12-20.71,10.68-34.16,10.68c-16.91,0-30.3-4.85-40.6-14.56
		c-10.3-9.7-15.44-23.61-15.44-41.73c0-11.65,2.16-21.84,6.67-30.58c4.45-8.89,11.11-15.37,20.07-19.73
		c9.07-4.53,18.9-6.63,29.48-6.63c13.28,0,24.22,2.91,32.82,8.9c8.48,5.98,13.92,14.4,16.26,25.39l-20.42,2.75
		c-1.99-7.28-5.26-12.78-10.24-16.34c-4.86-3.72-10.82-5.5-17.78-5.5c-10.41,0-19.07,3.24-25.51,9.87
		c-6.61,6.63-9.94,17.15-9.94,31.38c0,14.56,3.16,25.07,9.59,31.71c6.32,6.63,14.62,9.87,24.75,9.87c8.25,0,15.03-2.27,20.53-6.63
		C839.86,291.93,843.37,285.13,844.84,275.91z M604.97,161.87h50.4v80.4l36.96-37.36h60.66l-46.21,39.63l49.08,73.6h-55.75
		l-26.17-45.46l-18.57,16.02v29.44h-50.4V161.87z M546.95,271.22l47.08,4.69c-2.65,8.57-6.96,16.02-12.76,22.32
		c-5.97,6.31-13.43,11.16-22.71,14.56c-9.12,3.56-20.73,5.34-34.98,5.34c-13.6,0-25.03-1.14-34.15-3.4
		c-9.12-2.27-16.91-5.83-23.38-10.84c-6.63-5.02-11.77-10.84-15.42-17.63c-3.64-6.63-5.63-15.69-5.63-26.69
		c0-11.65,2.32-21.35,6.8-29.12c3.32-5.66,7.96-10.68,13.6-15.21c5.8-4.53,11.61-7.93,17.74-10.03c9.62-3.56,21.88-5.34,36.97-5.34
		c21.05,0,37.14,3.4,48.07,10.03c11.11,6.63,18.74,16.18,23.21,28.96l-46.42,5.34c-1.33-4.85-3.98-8.41-7.96-11
		c-3.81-2.43-8.96-3.56-15.42-3.56c-8.13,0-14.75,2.43-19.9,7.6c-4.97,5.18-7.46,12.94-7.46,23.29c0,9.22,2.49,16.34,7.46,21.03
		c4.97,4.85,11.44,7.28,19.06,7.28c6.46,0,11.94-1.46,16.25-4.37C541.48,281.57,544.8,277.21,546.95,271.22z M380.67,161.87h49.4
		v29.44h-49.4V161.87z M380.67,204.9L380.67,204.9h49.4v113.23h-49.4V204.9z M268.1,204.9h46.26v18.6
		c4.48-7.93,8.95-13.59,13.76-16.5c4.81-3.07,10.61-4.53,17.57-4.53c7.29,0,15.26,1.94,23.87,5.82l-15.25,31.06
		c-5.8-2.1-10.44-3.24-13.93-3.24c-6.46,0-11.44,2.43-14.92,7.12c-5.14,6.63-7.79,18.93-7.79,37.04v37.86H268.1V204.9z
		 M145.91,223.18L145.91,223.18h23.87c8.62,0,14.59-1.29,17.9-3.88c3.32-2.59,4.98-6.31,4.98-11.16c0-4.69-1.66-8.09-4.98-10.68
		c-3.31-2.59-9.28-3.88-17.57-3.88h-24.2V223.18z M145.91,284.48L145.91,284.48h27.85c9.45,0,16.25-1.46,20.06-4.37
		c3.81-2.91,5.8-6.96,5.8-11.97c0-4.53-1.83-8.25-5.8-11.16c-3.81-2.75-10.44-4.21-20.06-4.21h-27.85V284.48z"/>
</g>
</svg>
