<?xml version="1.0" encoding="utf-8"?>
<!-- Generator: Adobe Illustrator 23.1.0, SVG Export Plug-In . SVG Version: 6.00 Build 0)  -->
<svg version="1.1" id="logo" xmlns="http://www.w3.org/2000/svg" xmlns:xlink="http://www.w3.org/1999/xlink" x="0px" y="0px"
	 viewBox="0 0 1260 480" style="enable-background:new 0 0 1260 480;" xml:space="preserve">
<style type="text/css">
	.st0{fill:#231F20;}
	.st1{fill:#003D79;}
	.st2{fill:#FFFFFF;}
</style>
<g>
	<g id="TM_Avenir_LT_Std_14.96_pt_">
		<path class="st0" d="M1171.7,238.9h-2v-17.3h-6.3v-1.8h14.8v1.8h-6.5V238.9z"/>
		<path class="st0" d="M1190.4,235.3l6.5-15.5h2.9v19.1h-2v-16.6l0,0l-6.8,16.6h-1.1l-6.8-16.6l0,0v16.6h-2v-19.3h2.9L1190.4,235.3z
			"/>
	</g>
	<g id="CN_Name_Horizontal">
		<path class="st0" d="M275.2,255.8v-0.2c-0.4-18.5,14.2-33.9,32.8-34.2c0.5,0,0.9,0,1.4,0c9.7-0.4,19.1,3.4,25.9,10.3l-7.4,8.6
			c-5.2-4.9-11-8.3-18.5-8.3c-12.6,0-21.8,10.4-21.8,23.4v0.2c0,13,9.2,23.4,21.8,23.4c8.1,0,13.3-3.2,19.1-8.5l7.4,7.6
			c-6.8,7.2-14.4,11.7-26.8,11.7c-18.4,0.2-33.5-14.6-33.7-33C275,256.5,275,256.2,275.2,255.8z"/>
		<path class="st0" d="M340.8,274.2V274c0-10.8,8.5-16,20.5-16c4.5,0,9.2,0.7,13.5,2v-1.1c0-7-4.3-10.8-12.4-10.8
			c-4.9,0-9.7,1.1-14.2,3.1l-3.1-9c5.9-2.7,12.2-4.1,18.7-4.1c7.4,0,13,2,16.6,5.6s5.4,8.8,5.4,15.5v29.5h-11.2v-6.3
			c-4,4.7-9.9,7.4-16.2,7.2C349,289.7,340.8,284.2,340.8,274.2z M375,270.6v-3.4c-3.6-1.3-7.6-2-11.3-2c-7.4,0-11.7,3.1-11.7,8.3
			v0.2c0,4.9,4.3,7.6,9.7,7.6C369.2,281.4,375,277,375,270.6L375,270.6z"/>
		<path class="st0" d="M396.9,238.9h11.5v7.4c3.2-4.5,7.6-8.6,15.3-8.6c6.3-0.4,12.1,3.2,14.9,8.8c3.8-5.6,10.1-8.8,16.7-8.8
			c10.8,0,17.5,6.8,17.5,19.1v31.9h-11.5v-28.3c0-7.9-3.6-12.2-10.1-12.2s-10.6,4.3-10.6,12.4v28.1h-11.5v-28.5
			c0-7.7-3.8-12.1-10.1-12.1s-10.6,4.7-10.6,12.4v28.1h-11.5L396.9,238.9z"/>
		<path class="st0" d="M495.8,280.8v7.7h-11.5v-69h11.5V247c3.6-5.2,8.8-9.4,16.9-9.4c11.7,0,23.2,9.2,23.2,25.9v0.2
			c0,16.6-11.3,25.9-23.2,25.9C506.1,289.7,499.6,286.4,495.8,280.8z M524.5,263.7v-0.2c0-9.7-6.5-16-14.2-16s-14.6,6.5-14.6,16v0.2
			c0,9.5,6.8,16,14.6,16C517.8,279.7,524.3,273.6,524.5,263.7L524.5,263.7z"/>
		<path class="st0" d="M545.5,220.1h12.2v10.8h-12.2V220.1z M545.9,238.7h11.5v49.9h-11.5V238.7z"/>
		<path class="st0" d="M569.3,270.4v-31.5h11.5v28.3c0,7.7,3.8,12.1,10.6,12.1c6.8,0,11.2-4.5,11.2-12.2v-28.1h11.5v49.9h-11.5V281
			c-3.2,4.7-7.9,8.8-15.7,8.8C575.8,289.7,569.3,282.1,569.3,270.4z"/>
		<path class="st0" d="M626,238.9h11.5v7.4c3.2-4.5,7.6-8.6,15.3-8.6c6.3-0.4,12.1,3.2,14.9,8.8c3.8-5.6,10.1-8.8,16.7-8.8
			c10.8,0,17.5,6.8,17.5,19.1v31.9h-11.5v-28.3c0-7.9-3.6-12.2-10.1-12.2s-10.6,4.3-10.6,12.4v28.1h-11.5v-28.5
			c0-7.7-3.8-12.1-10.1-12.1s-10.6,4.7-10.6,12.4v28.1H626V238.9z"/>
		<path class="st0" d="M740.6,222.5h10.8l35.5,45.7v-45.7h11.5v66.1h-9.7l-36.6-47v47h-11.5V222.5z"/>
		<path class="st0" d="M808.6,263.9v-0.2c0-14.2,10.1-25.9,24.3-25.9c15.8,0,24,12.4,24,26.8c0,1.1-0.2,2-0.2,3.2H820
			c0.7,7.4,7,13,14.4,12.6c5.2,0,10.1-2.2,13.5-5.9l6.7,5.9c-5,6.1-12.6,9.5-20.4,9.4C819.8,289.7,808.6,279.2,808.6,263.9z
			 M845.6,260.3c-0.7-7.4-5-13.1-12.6-13.1c-7,0-11.9,5.4-13,13.1H845.6z"/>
		<path class="st0" d="M868.4,274.9v-26.3h-6.3v-9.7h6.3v-13.7h11.3v13.7h13.5v9.9h-13.5v24.3c0,4.5,2.3,6.3,6.1,6.3
			c2.5,0,4.9-0.7,7-1.8v9.4c-3.1,1.8-6.7,2.7-10.3,2.5C874.4,289.5,868.4,285.7,868.4,274.9z"/>
		<path class="st0" d="M898.3,238.9H910l10.1,34.2l11-34.4h9.9l11,34.4l10.3-34.2h11.5l-16.4,50.2h-10.3l-11.2-34l-11.3,34h-10.3
			L898.3,238.9z"/>
		<path class="st0" d="M976.1,264.1v-0.2c0.4-14.8,12.4-26.3,27.2-26.1c14.2,0.4,25.6,11.7,25.9,25.8v0.2
			c0,14.4-11.7,26.1-26.1,25.9c-0.2,0-0.4,0-0.5,0c-14.2,0.4-26.1-10.8-26.5-25.2C976.1,264.4,976.1,264.3,976.1,264.1z
			 M1017.9,264.1v-0.2c0-8.8-6.3-16-15.3-16s-14.9,7.2-14.9,15.8v0.2c0,8.6,6.3,16,15.3,16C1012.1,279.7,1017.9,272.5,1017.9,264.1z
			"/>
		<path class="st0" d="M1038.6,238.9h11.3V250c3.1-7.4,8.8-12.6,17.6-12.2v12.1h-0.7c-10.1,0-16.9,6.5-16.9,19.8v18.9h-11.3
			L1038.6,238.9L1038.6,238.9z"/>
		<path class="st0" d="M1075.2,219.6h11.3v41.2l20.7-22h13.9l-19.8,20.4l20.5,29.5h-13.5l-14.8-21.6l-7,7.4v14.2h-11.3V219.6z"/>
		<path class="st0" d="M1123.6,282.1l5-7.7c4.7,3.8,10.4,5.9,16.4,6.1c4.9,0,7.7-2.2,7.7-5.4v-0.2c0-3.8-5.2-5.2-11.2-7
			c-7.4-2-15.5-5-15.5-14.6v-0.2c0-9.5,7.7-15.3,17.8-15.3c6.5,0.2,12.8,2.2,18.2,5.8l-4.5,8.1c-4.1-2.7-9-4.3-14-4.7
			c-4.5,0-7,2-7,4.9v0.2c0,3.6,5.4,5.2,11.3,7c7.2,2.3,15.5,5.6,15.5,14.6v0.2c0,10.4-8.1,15.7-18.5,15.7
			C1137.1,289.5,1129.7,286.8,1123.6,282.1z"/>
	</g>
	<g id="CN_Icon_Horizontal">
		<path class="st1" d="M172.4,199.8c-24,13.3-32.4,43.6-19.1,67.5c11.9,21.3,37.6,30.8,60.5,22.3c18.9-27,20.7-62.3,4.3-90.9
			C203.5,191.5,186.4,191.9,172.4,199.8L172.4,199.8z"/>
		<path class="st1" d="M105.2,255.8c4.5,8.1,10.3,15.3,17.1,21.4c-3.1-3.8-5.8-7.7-8.1-11.9c-21.3-38.2-9.2-86.3,27.7-109.9
			c-10.3,0.2-20.4,2.3-29.7,6.1C91.3,188.8,88.6,225.7,105.2,255.8z"/>
		<path class="st1" d="M95.8,261c-15.3-27.4-16.4-60.5-2.7-88.6C56,201.2,49.2,254.7,78.2,291.8c27.9,35.8,79.2,43.6,116.3,17.3
			c-4.7,0.7-9.5,1.1-14.4,1.1C145.2,310.4,112.9,291.5,95.8,261z"/>
		<path class="st1" d="M162.3,182.1c-28.8,16.2-39.3,52.8-23.1,81.8c0.7,1.3,1.4,2.5,2.2,3.6c-12.4-28.5-1.3-61.8,25.8-77.1
			c12.2-6.8,26.7-9.2,40.5-6.7c-2.9-3.2-5.9-6.3-9.4-9C185.9,173.3,173.3,175.8,162.3,182.1L162.3,182.1z"/>
		<path class="st1" d="M123.6,260.1c2,3.6,4.3,7,6.8,10.1c-0.2-0.4-0.5-0.7-0.7-1.1c-19.1-34-6.8-77.3,27.2-96.3
			c7.7-4.3,16.4-7.2,25.2-8.5c-6.3-3.1-13-5.4-19.8-7c-3.8,1.3-7.6,3.1-11.2,5C116.5,181.8,104.3,225.5,123.6,260.1z"/>
		<path class="st2" d="M213.8,289.7c-25.8,9.5-54.2-3.6-63.8-29.2c-9.5-25.6,3.4-54.2,29.2-63.8c12.8-4.7,26.8-4.1,39.1,1.8
			c-3.1-5.2-6.5-10.3-10.6-14.8c-32.8-6.1-64.3,15.5-70.4,48.3c-2.2,11.9-0.7,24.3,4.1,35.5c-0.7-1.1-1.4-2.3-2.2-3.6
			c-16.2-29-5.9-65.6,23.1-81.8c9-5,18.9-7.6,29.2-7.6c2.3,0,4.5,0.2,6.8,0.4c-5-4.1-10.4-7.6-16.2-10.4c-8.8,1.3-17.5,4-25.2,8.5
			c-34,18.9-46.3,62-27.2,96.2c0.2,0.4,0.5,0.7,0.7,1.1c-25-30.6-20.5-75.6,10.1-100.7c3.2-2.7,6.8-5,10.6-7.2c3.6-2,7.4-3.6,11.2-5
			c-5.9-1.3-12.1-2-18.4-2h-2.2C105,178.9,92.8,227,114,265.2c2.3,4.1,5,8.1,8.1,11.9c-6.8-6.1-12.6-13.5-17.1-21.4
			c-16.6-29.9-13.7-67,7.2-94c-6.8,2.7-13.1,6.3-19.1,10.8c-23.1,48.1-2.7,105.5,45.2,128.6c13,6.3,27.4,9.5,41.8,9.5
			c4.9,0,9.7-0.4,14.4-1.1C201.9,303.7,208.4,297,213.8,289.7z"/>
	</g>
</g>
</svg>
