<?xml version="1.0" encoding="utf-8"?>
<!-- Generator: Adobe Illustrator 23.1.0, SVG Export Plug-In . SVG Version: 6.00 Build 0)  -->
<svg version="1.1" id="Слой_1" xmlns="http://www.w3.org/2000/svg" xmlns:xlink="http://www.w3.org/1999/xlink" x="0px" y="0px"
	 viewBox="0 0 1260 480" style="enable-background:new 0 0 1260 480;" xml:space="preserve">
<style type="text/css">
	.st0{fill:#E95420;}
	.st1{fill:none;}
	.st2{fill:#FFFFFF;}
</style>
<g>
	<g>
		<path d="M405.1,367.1c-9.3,0-17.9-1.7-25.9-5s-14.9-8.2-20.8-14.6c-5.9-6.4-10.5-14.2-13.9-23.6c-3.4-9.4-5.1-20.1-5.1-32.1
			c0-12.1,1.8-22.8,5.5-32.1c3.7-9.4,8.6-17.2,14.7-23.6c6.1-6.4,13.2-11.2,21.2-14.5c8-3.3,16.4-4.9,25.2-4.9
			c5.4,0,10.3,0.3,14.8,1c4.4,0.7,8.3,1.6,11.6,2.6c3.3,1,6.2,2.1,8.5,3.1c2.4,1,4.2,2,5.4,2.8l-4.6,12.3c-3.5-2.1-7.9-4.1-13.2-6.1
			c-5.3-2-12-3-19.9-3c-9,0-16.9,1.5-23.6,4.6s-12.4,7.3-16.9,12.9c-4.6,5.5-8,12.1-10.3,19.8c-2.3,7.6-3.4,16.1-3.4,25.4
			c0,9.3,1.1,18.2,3.4,25.9c2.3,7.7,5.7,14.2,10.1,19.7c4.4,5.4,9.9,9.6,16.3,12.5c6.5,2.9,13.8,4.4,22.1,4.4c9.2,0,16.8-0.9,23-2.6
			c6.2-1.7,10.9-3.5,14-5.3l4,12.1c-1,0.7-2.6,1.5-5,2.4c-2.4,0.9-5.3,1.8-8.9,2.8c-3.6,1-7.8,1.8-12.5,2.4
			C416.2,366.8,410.9,367.1,405.1,367.1L405.1,367.1z"/>
		<path d="M501.3,254c7.1,0,13.1,1,18,3c4.9,2,8.9,4.8,12,8.3c3,3.5,5.3,7.7,6.7,12.6c1.4,4.9,2.1,10.1,2.1,15.8v67.8
			c-1.4,0.4-3.4,0.9-6,1.4c-2.6,0.5-5.7,1-9.2,1.6c-3.5,0.6-7.3,1-11.5,1.4c-4.2,0.3-8.6,0.5-13,0.5c-5.7,0-10.9-0.6-15.7-1.9
			s-8.9-3.2-12.5-5.9c-3.5-2.7-6.3-6.2-8.3-10.4c-2-4.2-3-9.4-3-15.5s1.1-10.8,3.3-15c2.2-4.2,5.3-7.6,9.4-10.3
			c4-2.7,8.8-4.7,14.4-5.9c5.5-1.2,11.6-1.9,18.1-1.9c1.9,0,4,0.1,6.1,0.3c2.2,0.2,4.2,0.5,6.2,0.8c2,0.3,3.7,0.7,5.2,1
			c1.5,0.3,2.5,0.7,3,0.9V296c0-3.7-0.3-7.4-0.8-10.9c-0.6-3.5-1.8-6.7-3.6-9.6c-1.9-2.8-4.5-5.1-7.9-6.9c-3.4-1.7-7.9-2.6-13.4-2.6
			c-7.9,0-13.8,0.6-17.7,1.7c-3.9,1.1-6.7,2-8.5,2.7l-1.9-11.9c2.4-1.1,6-2.2,10.9-3.1C488.5,254.5,494.4,254,501.3,254L501.3,254z
			 M502.6,354.2c5.3,0,9.9-0.2,13.8-0.5c4-0.3,7.3-0.8,10.1-1.4v-37.8c-1.5-0.7-4-1.4-7.3-2.2c-3.3-0.8-7.9-1.1-13.7-1.1
			c-3.3,0-6.8,0.2-10.4,0.7c-3.6,0.5-6.9,1.5-10,3.1c-3,1.6-5.5,3.8-7.5,6.6c-1.9,2.8-2.9,6.5-2.9,11c0,4,0.7,7.4,2,10.2
			c1.3,2.8,3.2,5,5.6,6.7c2.4,1.7,5.3,2.9,8.7,3.6C494.4,353.9,498.3,354.3,502.6,354.2L502.6,354.2z"/>
		<path d="M569.2,260.2c4-1.1,9.4-2.4,16.2-3.7c6.8-1.4,15.1-2.1,25-2.1c8.2,0,15,1.2,20.5,3.5c5.5,2.4,9.8,5.7,13.1,10.1
			s5.6,9.6,7,15.7c1.4,6.1,2.1,12.8,2.1,20.2V364h-13.5v-55.7c0-7.6-0.5-14.1-1.6-19.3c-1-5.3-2.8-9.6-5.2-12.9
			c-2.4-3.3-5.6-5.7-9.6-7.2c-4-1.5-8.9-2.2-14.9-2.2c-6.4,0-11.9,0.3-16.5,1s-7.7,1.3-9,1.9V364h-13.5L569.2,260.2L569.2,260.2z"/>
		<path d="M774.4,310.4c0,8.5-1.2,16.2-3.6,23.1c-2.4,6.9-5.8,12.8-10.2,17.7c-4.4,4.9-9.5,8.6-15.5,11.3s-12.5,4.1-19.8,4.1
			c-7.2,0-13.8-1.4-19.8-4.1c-6-2.7-11.1-6.5-15.5-11.3c-4.4-4.9-7.8-10.7-10.2-17.7c-2.4-6.9-3.6-14.6-3.6-23.1s1.2-16.1,3.6-23.1
			c2.4-6.9,5.8-12.9,10.2-17.8c4.4-4.9,9.5-8.7,15.5-11.4c6-2.7,12.5-4.1,19.8-4.1c7.2,0,13.8,1.4,19.8,4.1
			c6,2.7,11.1,6.5,15.5,11.4c4.4,4.9,7.8,10.9,10.2,17.8C773.2,294.2,774.4,301.9,774.4,310.4z M760,310.4c0-13.4-3.1-24.2-9.4-32.1
			s-14.7-12-25.4-12c-10.7,0-19.1,4-25.4,12c-6.2,8-9.4,18.7-9.4,32.1c0,13.4,3.1,24.1,9.4,32c6.2,7.9,14.7,11.9,25.4,11.9
			c10.7,0,19.1-4,25.4-11.9C756.9,334.5,760,323.8,760,310.4z"/>
		<path d="M798.7,260.2c4-1.1,9.4-2.4,16.2-3.7c6.8-1.4,15.1-2.1,25-2.1c8.2,0,15,1.2,20.5,3.5c5.5,2.4,9.8,5.7,13.1,10.1
			c3.3,4.4,5.6,9.6,7,15.7c1.4,6.1,2.1,12.8,2.1,20.2V364H869v-55.7c0-7.6-0.5-14.1-1.6-19.3c-1-5.3-2.8-9.6-5.2-12.9
			c-2.4-3.3-5.6-5.7-9.6-7.2c-4-1.5-8.9-2.2-14.9-2.2c-6.4,0-11.9,0.3-16.5,1c-4.6,0.7-7.7,1.3-9,1.9V364h-13.5L798.7,260.2
			L798.7,260.2z"/>
		<path d="M927.8,224c0,3.2-1,5.7-2.9,7.6c-1.9,1.9-4.3,2.8-7.1,2.8c-2.8,0-5.1-0.9-7.1-2.8c-1.9-1.9-2.9-4.4-2.9-7.6
			c0-3.2,1-5.7,2.9-7.6c1.9-1.9,4.3-2.8,7.1-2.8c2.8,0,5.1,0.9,7.1,2.8C926.8,218.3,927.8,220.9,927.8,224z M924.7,364h-13.5V256.5
			h13.5V364z"/>
		<path d="M999.4,366.3c-8.3,0-15.7-1.3-22-4s-11.7-6.4-15.9-11.3c-4.2-4.9-7.5-10.8-9.7-17.7s-3.3-14.5-3.3-22.8s1.1-16.1,3.4-23.1
			c2.3-6.9,5.6-12.9,9.9-17.9c4.3-5,9.5-8.8,15.6-11.5s13-4.1,20.6-4.1c5.8,0,11.3,0.5,16.3,1.5c5.1,1,9,2.2,11.7,3.7l-3.5,11.6
			c-2.8-1.4-5.9-2.5-9.4-3.3s-8.1-1.2-13.9-1.2c-11.9,0-21,3.8-27.1,11.5c-6.2,7.7-9.3,18.6-9.3,32.8c0,6.4,0.7,12.2,2.1,17.6
			c1.4,5.3,3.6,9.9,6.8,13.7c3.1,3.8,7.1,6.8,12.1,8.9c4.9,2.2,10.9,3.2,18,3.2c5.8,0,10.7-0.7,14.7-2c4-1.3,6.8-2.5,8.6-3.4
			l2.9,11.6c-2.5,1.4-6.4,2.7-11.7,4.1C1010.8,365.6,1005.2,366.3,999.4,366.3L999.4,366.3z"/>
		<path d="M1080.8,254c7.1,0,13.1,1,18,3c4.9,2,8.9,4.8,12,8.3c3,3.5,5.3,7.7,6.7,12.6c1.4,4.9,2.1,10.1,2.1,15.8v67.8
			c-1.4,0.4-3.4,0.9-6,1.4c-2.6,0.5-5.7,1-9.2,1.6c-3.5,0.6-7.3,1-11.5,1.4c-4.2,0.3-8.6,0.5-13,0.5c-5.7,0-10.9-0.6-15.7-1.9
			s-8.9-3.2-12.5-5.9c-3.5-2.7-6.3-6.2-8.3-10.4c-2-4.2-3-9.4-3-15.5s1.1-10.8,3.3-15c2.2-4.2,5.3-7.6,9.4-10.3
			c4-2.7,8.8-4.7,14.4-5.9c5.5-1.2,11.6-1.9,18.1-1.9c1.9,0,4,0.1,6.1,0.3c2.2,0.2,4.2,0.5,6.2,0.8c2,0.3,3.7,0.7,5.2,1
			c1.5,0.3,2.5,0.7,3,0.9V296c0-3.7-0.3-7.4-0.8-10.9c-0.6-3.5-1.8-6.7-3.6-9.6c-1.9-2.8-4.5-5.1-7.9-6.9c-3.4-1.7-7.9-2.6-13.4-2.6
			c-7.9,0-13.8,0.6-17.7,1.7c-3.9,1.1-6.7,2-8.5,2.7l-1.9-11.9c2.4-1.1,6-2.2,10.9-3.1C1067.9,254.5,1073.8,254,1080.8,254
			L1080.8,254z M1082,354.2c5.3,0,9.9-0.2,13.8-0.5c4-0.3,7.3-0.8,10.1-1.4v-37.8c-1.5-0.7-4-1.4-7.3-2.2c-3.3-0.8-7.9-1.1-13.7-1.1
			c-3.3,0-6.8,0.2-10.4,0.7c-3.6,0.5-6.9,1.5-10,3.1c-3,1.6-5.5,3.8-7.5,6.6c-1.9,2.8-2.9,6.5-2.9,11c0,4,0.7,7.4,2,10.2
			s3.2,5,5.6,6.7c2.4,1.7,5.3,2.9,8.7,3.6C1073.9,353.9,1077.7,354.3,1082,354.2L1082,354.2z"/>
		<path d="M1175.6,365.9c-4.6-0.1-8.6-0.7-12-1.8c-3.4-1-6.2-2.6-8.5-4.8c-2.3-2.2-4-4.9-5.2-8.3c-1.2-3.4-1.8-7.7-1.8-12.8V205.1
			l13.5-2.5v135.2c0,3.3,0.3,6,0.9,8c0.6,2,1.6,3.6,2.8,4.8c1.2,1.2,2.9,2.1,4.9,2.6c2,0.6,4.4,1,7.2,1.5L1175.6,365.9L1175.6,365.9
			z"/>
	</g>
	<g>
		<rect x="82.5" y="75.2" class="st0" width="208" height="329.6"/>
		<rect x="107.3" y="213.9" class="st1" width="158.5" height="158.5"/>
		<circle class="st2" cx="130.1" cy="284.7" r="21.5"/>
		<circle class="st2" cx="219.7" cy="237.5" r="21.5"/>
		<path class="st2" d="M178.6,340.1c-15.5-3.3-28.5-13.2-35.8-27.3c-5.7,2.6-12.2,3.4-18.4,2.3c8.8,21.7,27.5,37.4,50.5,42.3
			c5,1.1,10.2,1.6,15.3,1.6c-4-5.2-6.2-11.5-6.3-18C182.1,340.8,180.4,340.5,178.6,340.1L178.6,340.1z"/>
		<circle class="st2" cx="214.9" cy="340.3" r="21.5"/>
		<path class="st2" d="M244.8,332.3c6.7-8.4,11.4-18.4,13.7-29c4-18.5,0.3-37.9-10.2-53.6c-2.5,5.8-6.7,10.8-12.1,14.2
			c5.8,10.9,7.6,23.6,5,35.7c-1.3,5.9-3.5,11.6-6.7,16.7C239.6,320.5,243.2,326,244.8,332.3L244.8,332.3z"/>
		<path class="st2" d="M128.4,253.8c0.5,0,1.1,0,1.6,0c2.2,0,4.4,0.2,6.5,0.7c3.5,0.7,6.8,2.1,9.8,4c9.7-13.9,25.3-22.3,42.3-22.6
			c0.1-1.6,0.3-3.3,0.7-4.8c1-4.6,3-8.9,5.9-12.6C168.1,216.2,141.8,230.2,128.4,253.8z"/>
	</g>
</g>
</svg>
