<?xml version="1.0" encoding="utf-8"?>
<!-- Generator: Adobe Illustrator 23.1.0, SVG Export Plug-In . SVG Version: 6.00 Build 0)  -->
<svg version="1.1" id="Слой_1" xmlns="http://www.w3.org/2000/svg" xmlns:xlink="http://www.w3.org/1999/xlink" x="0px" y="0px"
	 viewBox="0 0 1260 480" style="enable-background:new 0 0 1260 480;" xml:space="preserve">
<style type="text/css">
	.st0{fill-rule:evenodd;clip-rule:evenodd;fill:#E84C22;}
</style>
<g>
	<path class="st0" d="M674.4,344.17c-9.37,3.58-26.33,4.92-35.7,4.47c-29.01,0-40.61-15.21-41.05-42.49c-0.45,0-0.45,0-0.45,0
		c0-142.68,0-142.68,0-142.68c37.48,0,37.48,0,37.48,0c0,27.28,0,27.28,0,27.28c40.16,0,40.16,0,40.16,0c0,18.34,0,18.34,0,18.34
		c-40.16,0-40.16,0-40.16,0c0,95.27,0,95.27,0,95.27c0.89,12.08,2.23,20.57,19.63,20.57c9.37,0,14.73-2.68,20.08-4.92
		C674.4,344.17,674.4,344.17,674.4,344.17L674.4,344.17z M751.6,210.89c-30.79,0-41.95,21.92-41.95,47.41c81.21,0,81.21,0,81.21,0
		C790.87,234.59,782.83,210.89,751.6,210.89L751.6,210.89z M827.9,266.79c0-47.86-17.85-78.27-75.41-78.27
		c-58.01,0-81.66,30.86-81.66,79.61c0,52.33,32.58,79.61,82.55,80.06c27.67,0,41.95-2.68,62.92-12.97c0-25.49,0-25.49,0-25.49
		c-19.63,10.73-39.71,14.31-60.69,14.31c-8.03-0.45-42.39-0.45-45.96-46.96c108.43,0,108.43,0,108.43,0l0,0
		c5.35,0,9.82-4.47,9.82-9.84C827.9,266.79,827.9,266.79,827.9,266.79L827.9,266.79z M920.72,210.89c0.45,0,0.45,0,0.89,0
		c0-22.36,0-22.36,0-22.36c-0.45,0-0.45,0-0.45,0c-44.18,0-75.41,12.97-76.75,58.15l0,0c0,0.89,0,0.89,0,0.89c0,0.89,0,2.24,0,3.13
		c0,0.45,0,0.45,0,0.45c0,94.82,0,94.82,0,94.82c37.48,0,37.48,0,37.48,0c0-99.29,0-99.29,0-99.29l0,0
		C884.13,224.3,897.07,210.89,920.72,210.89L920.72,210.89z M1067.98,251.14c0,94.82,0,94.82,0,94.82c-37.48,0-37.48,0-37.48,0
		c0-98.4,0-98.4,0-98.4c-2.23-21.92-14.73-36.68-34.81-36.68s-33.02,14.76-35.25,35.78c0,99.29,0,99.29,0,99.29
		c-37.04,0-37.04,0-37.04,0c0-94.82,0-94.82,0-94.82s0,0,0-0.45c-0.45-0.89,0-1.79,0-2.68c0-1.34,0-1.34,0-1.34l0,0
		c1.79-43.38,37.04-58.15,72.29-58.15c19.63,0,39.71,4.92,53.55,17c13.83-12.08,33.91-17,53.99-17c35.25,0,70.06,15.21,71.84,58.15
		l0,0c0,99.29,0,99.29,0,99.29c-37.48,0-37.48,0-37.48,0c0-96.61,0-96.61,0-96.61c-1.34-22.81-13.83-38.46-34.36-38.46
		C1081.81,210.89,1068.87,227.43,1067.98,251.14L1067.98,251.14z M580.69,246.67c0.45,0,0.45,0,0.45,0c0,99.29,0,99.29,0,99.29
		c-37.48,0-37.48,0-37.48,0c0-97.5,0-97.5,0-97.5c-1.78-23.26-14.73-37.57-38.82-37.57l0,0c-0.45,0-0.45,0-0.45,0l0,0l0,0l0,0l0,0
		l0,0l0,0l0,0c-0.45,0-0.45,0-0.45,0l0,0c-23.65,0-36.59,13.86-38.82,35.78l0,0c0,99.29,0,99.29,0,99.29c-37.04,0-37.04,0-37.04,0
		c0-94.82,0-94.82,0-94.82s0,0,0-0.45c-0.45-0.89,0-2.24,0-3.13c0-0.89,0-0.89,0-0.89l0,0c1.34-44.73,32.13-58.15,75.86-58.15l0,0
		c0.45,0,0.45,0,0.45,0l0,0c0.45,0,0.45,0,0.45,0l0,0C548.56,188.52,579.35,201.94,580.69,246.67L580.69,246.67z M337.94,210.89
		c-30.79,0-41.95,21.92-41.95,47.41c80.77,0,80.77,0,80.77,0C376.76,234.59,369.18,210.89,337.94,210.89L337.94,210.89z
		 M414.25,266.79c0,0,0,0,0,0.45c0,5.37-4.46,9.84-9.82,9.84c-0.45,0-0.45,0-0.45,0c-108.43,0-108.43,0-108.43,0
		c4.02,46.52,38.38,46.52,46.41,46.96c17.85,0,41.05-3.58,60.69-14.31c0,25.49,0,25.49,0,25.49
		c-20.97,10.29-35.25,12.97-62.92,12.97c-49.98,0-82.55-27.73-82.55-80.06c0-48.75,23.65-79.61,81.21-79.61
		C396.4,188.52,414.25,218.94,414.25,266.79L414.25,266.79z M202.29,131.27c-68.72,0-117.36,38.91-117.36,108.24
		c0,69.33,44.18,108.24,117.36,108.24c20.08,0,40.16-4.92,57.12-15.21c0-24.15,0-24.15,0-24.15
		c-20.08,10.73-31.24,15.65-58.46,14.76c-44.18-1.34-70.95-34.89-70.95-81.4c0-46.96,26.77-81.85,70.95-83.19
		c27.22-0.45,38.38,4.03,58.46,14.76c0-26.84,0-26.84,0-26.84C243.34,136.19,222.37,131.27,202.29,131.27L202.29,131.27z"/>
</g>
</svg>
