<?xml version="1.0" encoding="utf-8"?>
<!-- Generator: Adobe Illustrator 23.1.0, SVG Export Plug-In . SVG Version: 6.00 Build 0)  -->
<svg version="1.1" id="svgContent" xmlns:svg="http://www.w3.org/2000/svg"
	 xmlns="http://www.w3.org/2000/svg" xmlns:xlink="http://www.w3.org/1999/xlink" x="0px" y="0px" viewBox="0 0 1260 480"
	 style="enable-background:new 0 0 1260 480;" xml:space="preserve">
<style type="text/css">
	.st0{fill:#00BCEB;}
</style>
<g>
	<rect x="512.7" y="215.5" class="st0" width="22.4" height="88.6"/>
	<path class="st0" d="M715.5,241c-5.7-3.1-12.3-4.8-18.8-4.8c-13.1,0-23.7,10.7-23.7,23.7s10.7,23.7,23.7,23.7l0,0
		c6.6,0,13.1-1.8,18.8-5v23.7c-6.6,2-13.4,3.1-20.4,3.1c-25,0-47.3-17.3-47.3-46c0-26.5,20-46,47.3-46c7,0,13.8,1.1,20.4,3.1V241z"
		/>
	<path class="st0" d="M482,241c-5.7-3.1-12.1-4.8-18.8-4.8c-13.1,0-23.7,10.7-23.7,23.7s10.7,23.7,23.7,23.7l0,0
		c6.6,0,13.1-1.8,18.8-5v23.7c-6.6,2-13.4,3.1-20.4,3.1c-25,0-47.3-17.3-47.3-46c0-26.5,20-46,47.3-46c7,0,13.8,1.1,20.4,3.1V241z"
		/>
	<path class="st0" d="M832.7,259.8c0.6,25.9-20,47.3-46,47.8s-47.3-20-47.8-46c-0.6-25.9,20-47.3,46-47.8c0.4,0,0.6,0,0.9,0
		c25.2-0.7,46.2,18.9,46.9,44.1C832.7,258.5,832.7,259,832.7,259.8z M785.8,236.4c-12.9-0.2-23.4,10.3-23.5,23.2
		c-0.2,12.9,10.3,23.4,23.2,23.5c12.9,0.2,23.4-10.3,23.5-23.2v-0.2c0.2-12.7-9.7-23.2-22.4-23.4
		C786.3,236.4,785.9,236.4,785.8,236.4z"/>
	<path class="st0" d="M619.9,235.5c-5.7-1.7-11.6-2.6-17.5-2.8c-9,0-13.8,2.9-13.8,7.4c0,5.3,6.6,7.4,10.3,8.3l6.3,2
		c14.5,4.6,21,14.5,21,25.4c0,22.3-19.5,29.8-36.8,29.8c-8.1,0-16.2-0.9-24.1-2.4v-20.4c7,2,14.2,3.1,21.3,3.3
		c11,0,16.2-3.3,16.2-8.3c0-5-4.4-7-9.9-8.8l-4.8-1.5c-12.5-3.9-22.8-11.2-22.8-25.9c0-16.7,12.5-27.8,33.1-27.8
		c7.4,0.2,14.7,1.1,21.9,2.8L619.9,235.5z"/>
	<path class="st0" d="M390.7,120.2c0-6.1-5-11-11-11c-6.1,0-11,5-11,11v23.2c0,6.1,5,11,11,11c6.1,0,11-5,11-11l0,0V120.2z"/>
	<path class="st0" d="M451.6,89.7c-0.4-6.1-5.7-10.8-11.8-10.5c-5.5,0.4-10.1,4.8-10.5,10.5v53.7c-0.4,6.1,4.2,11.4,10.5,11.8
		c6.1,0.4,11.4-4.2,11.8-10.5c0-0.4,0-0.9,0-1.3V89.7z"/>
	<path class="st0" d="M512.7,47.7c0-6.1-5-11-11-11c-6.1,0-11,5-11,11v117.9c0,6.1,5,11,11,11c6.1,0,11-5,11-11V47.7z"/>
	<path class="st0" d="M573.7,89.7c-0.4-6.1-5.7-10.8-11.8-10.5c-5.5,0.4-10.1,4.8-10.5,10.5v53.7c-0.4,6.1,4.2,11.4,10.5,11.8
		c6.1,0.4,11.4-4.2,11.8-10.5c0-0.4,0-0.9,0-1.3V89.7z"/>
	<path class="st0" d="M634.6,120.2c0-6.1-5-11-11-11c-6.1,0-11,5-11,11l0,0v23.2c0,6.1,5,11,11,11c6.1,0,11-5,11-11l0,0V120.2z"/>
	<path class="st0" d="M695.7,89.7c0-6.1-5-11-11-11c-6.1,0-11,5-11,11v53.7c0,6.1,5,11,11,11c6.1,0,11-5,11-11V89.7z"/>
	<path class="st0" d="M756.7,47.7c0.4-6.1-4.2-11.4-10.3-11.8c-6.1-0.4-11.4,4.2-11.8,10.3c0,0.4,0,0.9,0,1.3v117.9
		c-0.4,6.1,4.2,11.4,10.3,11.8c6.1,0.4,11.4-4.2,11.8-10.3c0-0.4,0-0.9,0-1.3V47.7z"/>
	<path class="st0" d="M817.6,89.7c-0.4-6.1-5.7-10.8-11.8-10.5c-5.7,0.4-10.1,4.8-10.5,10.5v53.7c0.4,6.1,5.7,10.8,11.8,10.5
		c5.7-0.4,10.1-4.8,10.5-10.5V89.7z"/>
	<path class="st0" d="M878.6,120.2c0-6.1-5-11-11-11c-6.1,0-11,5-11,11v23.2c0,6.1,5,11,11,11c6.1,0,11-5,11-11V120.2z"/>
	<g>
		<path class="st0" d="M350.8,347.1h26.7c14.7,0,26.3,4.6,34.4,13.8c7.5,8.3,11.2,19.5,11.2,33.5c0,15.6-5,28-14.7,36.6
			c-8.3,7.2-18.8,10.8-31.3,10.8h-26.3V347.1z M377.7,353.4H358v82.2h20c12.1,0,21.7-4,28.3-12c6.1-7.2,9.2-16.9,9.2-29.1
			c0-14-4-24.6-12.1-32C396.8,356.3,388.4,353.4,377.7,353.4z"/>
		<path class="st0" d="M445,356.9h-8.5v-9.7h8.5V356.9z M444.3,441.8h-7.2v-68.4h7.2V441.8z"/>
		<path class="st0" d="M503.1,423.8c0-4.6-2-7.9-6.1-10.3c-3.3-1.8-8.8-3.5-16.4-4.8c-14.9-2.6-22.3-8.8-22.3-19.1
			c0-5.7,2.4-10.3,7.2-13.6c4.4-3.1,10.3-4.6,17.8-4.6c7.5,0,14,1.8,18.8,5.7c4.4,3.5,7,7.7,7.9,13.2h-7.4c-0.6-4-2.9-7.4-6.8-9.9
			c-3.5-2.2-7.7-3.3-12.7-3.3c-6.1,0-10.7,1.3-13.6,3.9c-2.4,2-3.7,4.6-3.7,7.7c0,3.9,1.5,6.8,4.2,8.8c2.8,2,7.7,3.7,14.9,5.1
			c9.6,1.8,16.4,4.4,20.2,7.7c3.7,3.1,5.3,7.4,5.3,12.7c0,6.1-2.8,11.2-8.1,15.1c-5,3.7-11.2,5.3-18.8,5.3c-8.5,0-15.1-2-20-6.3
			c-4-3.7-6.6-8.3-7.4-13.8h7.4c0.6,4.8,2.8,8.5,6.8,10.8c3.5,2.2,7.9,3.5,13.4,3.5c6.4,0,11.4-1.7,15.1-4.8
			C501.6,430.4,503.1,427.3,503.1,423.8z"/>
		<path class="st0" d="M549.3,379.7h-16v48.5c0,6.4,2.9,9.6,9,9.6c2.8,0,5.5-0.4,8.3-1.1v5.7c-2.9,0.9-5.9,1.3-8.6,1.3
			c-5.3,0-9.4-1.5-12.1-4.6c-2.4-2.8-3.5-6.4-3.5-11.2v-48.2h-9.9v-6.3h9.9l0.4-16.4h6.6v16.4h16V379.7z"/>
		<path class="st0" d="M567.7,441.8h-7.2v-68.4h5.7l1.1,13.1c3.7-10.1,9.9-15.1,19.1-15.1c2.6,0,5,0.4,7.2,1.1v7
			c-2.8-0.7-5.3-1.1-7.5-1.1c-5.7,0-10.1,2.6-13.6,7.9c-3.3,4.8-4.8,10.8-4.8,18.2V441.8z"/>
		<path class="st0" d="M611.2,356.9h-8.5v-9.7h8.5V356.9z M610.5,441.8h-7.2v-68.4h7.2V441.8z"/>
		<path class="st0" d="M632.9,441.8h-5.7v-94.7h7.2v39c2.4-4.8,5.9-8.5,10.1-11c4-2.4,8.8-3.7,14-3.7c9.4,0,16.6,3.3,21.7,10.1
			c4.8,6.1,7.2,14.5,7.2,25.2c0,12.5-3.1,22.1-9.4,28.9c-5.3,5.5-12,8.1-19.9,8.1c-5.9,0-11-1.5-15.3-4.6c-3.7-2.4-6.4-5.7-8.5-9.9
			L632.9,441.8z M679.8,406.7c0-10.3-2.4-18-7.2-23c-3.9-4-9.2-6.3-15.6-6.3c-7,0-12.5,2.6-16.7,7.9c-4.2,5.3-6.4,12.7-6.4,22.3
			c0,10.3,2.4,18.2,7.4,23.5c3.9,4.4,9.2,6.6,15.6,6.6c7.4,0,13.1-2.9,17.3-8.6C677.8,423.6,679.8,416.1,679.8,406.7z"/>
		<path class="st0" d="M699.9,373.4h7.2v46.3c0,6.3,1.8,11,5.5,14.2c3.1,2.6,7.2,3.9,12.3,3.9c6.3,0,11.4-2.4,15.4-7.2
			c3.3-4,5-9.2,5-15.1v-41.9h7.2V442h-5.7l-0.9-10.9c-2.4,4.4-5.9,7.9-10.5,10.1c-3.7,1.8-7.5,2.8-11.8,2.8
			c-7.5,0-13.4-2.2-17.5-6.8c-3.9-4.2-5.9-9.9-5.9-17.3v-46.5H699.9z"/>
		<path class="st0" d="M795.3,379.7h-16v48.5c0,6.4,2.9,9.6,9,9.6c2.8,0,5.5-0.4,8.3-1.1v5.7c-2.9,0.9-5.9,1.3-8.6,1.3
			c-5.3,0-9.4-1.5-12.1-4.6c-2.4-2.8-3.5-6.4-3.5-11.2v-48.2h-9.9v-6.3h9.9l0.4-16.4h6.6v16.4h16L795.3,379.7L795.3,379.7z"/>
		<path class="st0" d="M799.7,407.6c0-12.3,3.5-21.7,10.3-28.3c5.5-5.3,12.7-7.9,21.3-7.9c10.1,0,18,3.5,23.7,10.3
			c5.1,6.3,7.7,14.9,7.7,25.7c0,12.3-3.3,21.7-9.9,28.1c-5.5,5.3-12.7,8.1-21.3,8.1c-9.9,0-17.8-3.5-23.7-10.5
			C802.3,426.8,799.7,418.3,799.7,407.6z M807.1,407.6c0,10.3,2.6,18.2,7.9,23.7c4.2,4.4,9.7,6.6,16.4,6.6c7.7,0,13.8-2.9,18.2-8.6
			c3.9-5.3,5.9-12.5,5.9-21.7c0-10.5-2.6-18.4-7.5-23.7c-4.2-4.4-9.7-6.6-16.4-6.6c-7.7,0-13.8,2.9-18.2,8.6
			C809.1,391.3,807.1,398.4,807.1,407.6z"/>
		<path class="st0" d="M883.2,441.8h-7.2v-68.4h5.7l1.1,13.1c3.7-10.1,9.9-15.1,19.1-15.1c2.6,0,5,0.4,7.2,1.1v7
			c-2.8-0.7-5.3-1.1-7.5-1.1c-5.7,0-10.1,2.6-13.6,7.9c-3.3,4.8-4.8,10.8-4.8,18.2V441.8z"/>
	</g>
</g>
</svg>
