<?xml version="1.0" encoding="utf-8"?>
<!-- Generator: Adobe Illustrator 23.1.0, SVG Export Plug-In . SVG Version: 6.00 Build 0)  -->
<svg version="1.1" id="Слой_1" xmlns="http://www.w3.org/2000/svg" xmlns:xlink="http://www.w3.org/1999/xlink" x="0px" y="0px"
	 viewBox="0 0 1260 480" style="enable-background:new 0 0 1260 480;" xml:space="preserve">
<style type="text/css">
	.st0{fill:#366DB4;}
</style>
<g>
	<path class="st0" d="M187.8,285.3c-3.7,4.7-8.3,8.5-13.8,11.3c-5.5,2.8-11.5,4.2-18,4.2c-5.5,0-10.8-1.1-15.7-3.2
		c-4.9-2.2-9.3-5.1-12.9-8.7c-3.7-3.6-6.6-7.9-8.7-12.8c-2.1-4.9-3.1-10.1-3.1-15.6c0-5.5,1.1-10.7,3.1-15.6c2.1-4.9,5-9.2,8.7-12.8
		c3.7-3.6,8-6.5,12.9-8.6c4.9-2.1,10.2-3.1,15.7-3.1c6.5,0,12.6,1.4,18.1,4.1c5.5,2.8,10.1,6.6,13.8,11.4l1,1.3l23.7-18.4l-1-1.3
		c-6.4-8.4-14.5-15.1-24-20c-9.6-4.8-20.2-7.3-31.5-7.3c-9.5,0-18.7,1.8-27.3,5.5c-8.5,3.6-16.1,8.7-22.5,15.1s-11.6,13.9-15.2,22.4
		c-3.7,8.5-5.5,17.7-5.5,27.3c0,9.8,1.9,19,5.5,27.5c3.7,8.5,8.8,16,15.2,22.4c6.5,6.4,14,11.5,22.5,15.1c8.5,3.6,17.7,5.5,27.3,5.5
		c11.3,0,22-2.5,31.5-7.4c9.6-4.9,17.6-11.6,24-19.8l1-1.3l-23.7-18.4L187.8,285.3z"/>
	<path class="st0" d="M1150.9,284.1l-1,1.3c-3.7,4.7-8.3,8.5-13.8,11.3c-5.5,2.8-11.5,4.3-18,4.3c-5.5,0-10.7-1.1-15.6-3.2
		c-4.9-2.2-9.3-5.1-12.9-8.7c-3.7-3.6-6.6-8-8.7-12.8c-2.1-4.9-3.1-10.1-3.1-15.6c0-5.5,1.1-10.7,3.1-15.6c2.1-4.9,5-9.2,8.7-12.8
		c3.7-3.6,8-6.5,12.9-8.6c4.9-2.1,10.2-3.1,15.7-3.1c6.5,0,12.6,1.4,18.1,4.1s10.1,6.6,13.8,11.4l1,1.3l23.7-18.4l-1-1.3
		c-6.4-8.4-14.4-15.1-24-20c-9.6-4.8-20.2-7.3-31.5-7.3c-9.5,0-18.7,1.8-27.2,5.5c-8.5,3.6-16.1,8.7-22.5,15.1
		c-6.4,6.4-11.6,13.9-15.2,22.4c-3.7,8.5-5.5,17.7-5.5,27.3c0,9.7,1.9,19,5.5,27.5c3.7,8.5,8.8,16,15.2,22.4
		c6.5,6.4,14,11.5,22.5,15.1c8.5,3.6,17.7,5.5,27.2,5.5c11.4,0,22-2.5,31.5-7.4c9.6-4.9,17.7-11.6,24-19.8l1-1.3L1150.9,284.1z"/>
	<rect x="229.8" y="149" class="st0" width="30.1" height="182"/>
	<path class="st0" d="M385.1,276.2c-2.1,4.9-5,9.3-8.6,12.9c-3.7,3.7-8,6.6-12.9,8.6c-9.8,4.2-21.5,4.2-31.2,0
		c-4.9-2.1-9.2-5-12.9-8.6c-3.6-3.7-6.6-8-8.8-12.9c-2.2-4.9-3.2-10.2-3.2-15.6c0-5.5,1.1-10.7,3.2-15.6c2.2-4.9,5.1-9.3,8.8-12.9
		c3.7-3.7,8-6.6,12.9-8.7c4.9-2.1,10.2-3.1,15.6-3.1c5.4,0,10.7,1.1,15.6,3.1c4.9,2.1,9.2,5,12.9,8.7c3.6,3.7,6.5,8,8.6,12.9
		c2.1,4.9,3.1,10.2,3.1,15.7C388.2,266,387.2,271.3,385.1,276.2 M397.8,210.6c-6.4-6.4-13.9-11.4-22.4-15.1
		c-8.5-3.6-17.8-5.5-27.5-5.5c-9.7,0-19,1.9-27.5,5.5c-8.5,3.6-16.1,8.7-22.4,15.1c-6.4,6.4-11.5,13.9-15.1,22.4
		c-3.6,8.5-5.5,17.8-5.5,27.5c0,9.8,1.9,19,5.5,27.5c3.6,8.5,8.7,16,15.1,22.4c6.4,6.4,13.9,11.5,22.4,15.1
		c8.5,3.6,17.8,5.5,27.5,5.5c9.7,0,19-1.8,27.5-5.5c8.5-3.6,16-8.7,22.4-15.1c6.4-6.4,11.5-13.9,15.1-22.4
		c3.6-8.5,5.5-17.8,5.5-27.5c0-9.7-1.9-19-5.5-27.5C409.2,224.5,404.1,217,397.8,210.6"/>
	<path class="st0" d="M528.6,269.6c0,4.3-0.8,8.4-2.5,12.1c-1.6,3.8-3.9,7.1-6.8,9.9c-2.9,2.8-6.2,5-10,6.7
		c-7.6,3.3-16.6,3.3-24.3,0c-3.9-1.6-7.2-3.9-10-6.7c-2.8-2.8-5-6.1-6.7-10c-1.6-3.8-2.5-7.8-2.5-12.1V190h-30.1v79.6
		c0,10.7,2.6,20.6,7.6,29.5c5,8.9,11.8,16.2,20,21.7c5,3.2,10.4,5.7,16,7.5c5.7,1.8,11.7,2.7,17.9,2.7c6.2,0,12.2-0.9,17.9-2.7
		c5.6-1.8,11-4.3,16-7.5c8.4-5.5,15.2-12.8,20.2-21.7c4.9-8.9,7.5-18.8,7.5-29.5V190h-30.1V269.6z"/>
	<path class="st0" d="M684,276.2c-2.1,4.9-5,9.3-8.6,12.9c-3.6,3.7-8,6.6-12.9,8.7c-9.8,4.2-21.5,4.2-31.2,0
		c-4.9-2.1-9.2-5-12.9-8.7c-3.6-3.6-6.6-8-8.8-12.9c-2.2-4.9-3.2-10.2-3.2-15.7c0-5.5,1.1-10.7,3.2-15.6c2.2-4.9,5.1-9.3,8.8-12.9
		c3.7-3.7,8-6.6,12.9-8.7c4.9-2.1,10.1-3.1,15.6-3.1c5.5,0,10.7,1.1,15.6,3.1c4.9,2.1,9.2,5,12.9,8.7c3.6,3.7,6.5,8,8.6,12.8
		c2.1,4.8,3.1,10.1,3.1,15.8C687.2,266,686.1,271.3,684,276.2 M687.2,202.8c-5.3-3.7-11.1-6.7-17.3-8.9c-7.2-2.6-15-3.9-23.1-3.9
		c-9.7,0-19,1.8-27.5,5.5c-8.5,3.6-16,8.7-22.4,15.1c-6.4,6.4-11.5,13.9-15.1,22.4c-3.6,8.5-5.5,17.8-5.5,27.5s1.8,19,5.5,27.5
		c3.6,8.5,8.7,16,15.1,22.4c6.4,6.4,13.9,11.5,22.4,15.1c8.5,3.6,17.8,5.5,27.5,5.5c9.7,0,19-1.8,27.5-5.5c8.5-3.6,16-8.7,22.4-15.1
		c6.4-6.4,11.4-13.9,15.1-22.4c3.6-8.5,5.5-17.8,5.5-27.5V149h-30.1V202.8z"/>
	<path class="st0" d="M842.4,276.2c-2.1,4.9-5,9.3-8.6,12.9c-3.6,3.7-8,6.6-12.9,8.7c-9.8,4.2-21.5,4.2-31.2,0
		c-4.9-2.1-9.2-5-12.9-8.7c-3.6-3.6-6.6-8-8.8-12.9c-2.2-4.9-3.2-10.2-3.2-15.9c0-5.5,1.1-10.7,3.2-15.5c2.2-4.9,5.1-9.2,8.8-12.8
		c3.7-3.7,8-6.6,12.9-8.7c4.9-2.1,10.1-3.1,15.6-3.1s10.7,1.1,15.6,3.1c4.9,2.1,9.2,5,12.9,8.7c3.7,3.7,6.5,8,8.6,12.9
		c2.1,4.9,3.1,10.2,3.1,15.7C845.6,266,844.5,271.3,842.4,276.2 M855.1,210.6c-6.4-6.4-13.9-11.5-22.4-15.1
		c-8.5-3.6-17.8-5.5-27.5-5.5c-8.2,0-16,1.3-23.2,3.9c-6.2,2.2-12,5.2-17.4,8.9l0.3-53.8h-30.1v111.5c0,9.8,1.9,19,5.5,27.5
		c3.6,8.5,8.7,16,15.1,22.4c6.4,6.4,13.9,11.5,22.4,15.1c8.5,3.6,17.8,5.5,27.5,5.5c9.7,0,19-1.9,27.5-5.5c8.5-3.6,16-8.7,22.4-15.1
		c6.4-6.4,11.5-13.9,15.1-22.4c3.6-8.5,5.5-17.8,5.5-27.5c0-9.7-1.9-19-5.5-27.5C866.6,224.5,861.5,217,855.1,210.6"/>
	<rect x="1000" y="149" class="st0" width="30.1" height="30.1"/>
	<polygon class="st0" points="1000,331 1001.7,331 1028.5,331 1030.2,331 1030.2,189.8 1000,189.8 	"/>
	<path class="st0" d="M963.6,189.8c-9.9,0-19.1,1.9-27.4,5.6c-8.4,3.4-15.7,8.4-22.5,15.1c-6.1,5.9-11.1,13.2-15.2,22.3
		c-3.5,8.6-5.3,17.1-5.5,25.9h-0.1v1.6v1.6V331h30.1v-69.1h0.1v-1.6c0-5.4,1.1-10.7,3.1-15.7c2-4.7,4.8-8.9,8.5-12.9
		c4.1-3.8,8.3-6.6,13-8.6c4.8-2.1,10-3.1,15.7-3.1h1.6v0h17.4v-30.2h-17.4H963.6z"/>
</g>
</svg>
