<?xml version="1.0" encoding="utf-8"?>
<!-- Generator: Adobe Illustrator 23.1.0, SVG Export Plug-In . SVG Version: 6.00 Build 0)  -->
<svg version="1.1" id="Слой_1" xmlns="http://www.w3.org/2000/svg" xmlns:xlink="http://www.w3.org/1999/xlink" x="0px" y="0px"
	 viewBox="0 0 1260 480" style="enable-background:new 0 0 1260 480;" xml:space="preserve">
<style type="text/css">
	.st0{fill-rule:evenodd;clip-rule:evenodd;}
</style>
<g>
	<path id="Shape_2_copy_2" class="st0" d="M188.2,137.7c-9.6-8.5-22-13.3-34.8-13.3c-29.5,0-52.1,25.3-52.1,55.3
		c0,29.6,22.4,55,51.8,55c13.1-0.1,25.6-5.1,35.2-14l8.3,13c-12.9,11.8-29.8,16-42.9,16.4c-37.6,1.2-68.7-30.7-68.7-69.9
		c0-40.1,31.3-71.3,70.1-71.3c14.7,0,30,4.1,41.6,16.1L188.2,137.7z M330.7,179.6c0,40.2-31,70.6-69.1,70.6s-69.1-30.4-69.1-70.6
		c0-38.8,31.3-70.6,69.1-70.6S330.7,140.8,330.7,179.6L330.7,179.6z M314.3,179.6c0-29.8-21.7-54.8-52.6-54.8s-52.6,25-52.6,54.8
		c0,30.9,24.1,54.8,52.7,54.8S314.3,210.5,314.3,179.6L314.3,179.6z M694.9,141.6c-0.5-8.9-7.6-16.8-19.2-16.8
		c-10.5,0-22,7.4-22,19.2c0,10.6,10.1,16.2,18.4,19.4l9.4,3.8c18.7,7.5,32.7,18.1,32.7,40.8c0,24.6-18.5,42.2-42.2,42.2
		c-21.3,0-38.7-15.4-40.8-41.2l16.6-0.3c-0.4,13.8,10.5,25.3,24.3,25.7c0.4,0,0.8,0,1.2,0c14.2,0,24.3-12.2,24.3-26.4
		c0-14.5-11.4-20.8-22.7-25.7l-9.1-4c-15-6.6-28.7-15.4-28.7-34.3c0-21.9,18.9-35,38.8-35c14.7,0,31.5,9,33.9,32.7L694.9,141.6z
		 M993.4,247.3H977V111.8h18.9c40.6,0,53.2,14.4,53.2,39.2c0,28.6-21.2,39.5-46.2,39.5h-9.4L993.4,247.3L993.4,247.3z M993.4,175.4
		h5.3c16.8,0,35-3.2,35-24.8c0-21.2-19.6-23.7-35.8-23.7h-4.4V175.4z M1060.7,111.8h70.8v15.4h-54.4v37.9h52.8v15.4h-52.8v51.2h54.4
		v15.5h-70.8V111.8z M824.1,137.7c-9.6-8.5-22-13.3-34.8-13.3c-29.6,0-52.1,25.3-52.1,55.3c0,29.6,22.4,55,51.8,55
		c13.1-0.1,25.6-5.1,35.2-14l8.3,13c-12.9,11.8-29.8,16-43,16.4c-37.6,1.2-68.7-30.7-68.7-69.9c0-40.1,31.3-71.3,70.1-71.3
		c14.7,0,30,4.1,41.6,16.1L824.1,137.7z M457.2,247.2h16.6l-8.2-135H444l-23.4,65.3c-5.9,17-10.5,31.9-13.8,45.5h-0.6
		c-3.3-14-7.8-28.8-13.3-45.5l-22.4-65.3h-21.7l-9.2,135h16.2l3.5-57.9c1.2-20.2,2.1-42.9,2.5-59.7h0.4c3.7,16,9,33.5,15.2,52.5
		l21.3,64.3h12.9l23.2-65.5c6.6-18.4,12.1-35.5,16.6-51.3h0.6c-0.2,16.8,1,39.5,2,58.3L457.2,247.2z M605.6,247.2h16.6l-8.2-135
		h-21.6L569,177.5c-5.9,17-10.5,31.9-13.9,45.5h-0.6c-3.3-14-7.8-28.8-13.3-45.5l-22.4-65.3h-21.6l-9.2,135h16.2l3.5-57.9
		c1.2-20.2,2.1-42.9,2.5-59.7h0.4c3.7,16,9,33.5,15.2,52.5l21.3,64.3H560l23.2-65.5c6.6-18.4,12.1-35.5,16.6-51.3h0.6
		c-0.2,16.8,1,39.5,2,58.3L605.6,247.2z M1156.3,127.9h1.7c1.5-0.3,3,0.8,3.3,2.3c0,0.1,0,0.2,0,0.3c0.2,1.4,0.6,2.7,1.3,3.9h4
		c-0.6-1.2-1-2.6-1.2-4c-0.5-2.2-1.4-3.5-2.9-4v-0.2c1.9-0.4,3.2-2,3.3-3.9c0-1.3-0.5-2.6-1.6-3.5c-1.7-1-3.6-1.5-5.6-1.3
		c-2.1,0-4.1,0.2-6.1,0.6v16.3h3.7L1156.3,127.9L1156.3,127.9z M1156.4,120.5c0.7-0.1,1.4-0.2,2-0.2c2.3,0,3.4,1,3.4,2.5
		c0,1.7-1.6,2.4-3.7,2.4h-1.8C1156.4,125.2,1156.4,120.5,1156.4,120.5z M1158.8,109.5c-9-0.1-16.4,7.2-16.5,16.3c0,0,0,0.1,0,0.1
		c-0.1,9.1,7.2,16.5,16.3,16.6c9.1,0.1,16.5-7.2,16.6-16.3c0-0.1,0-0.2,0-0.3c0.1-8.9-7.1-16.3-16-16.4c-0.1,0-0.2,0-0.3,0H1158.8z
		 M1158.8,112.8c7.1,0,12.3,5.9,12.3,13.1c0,7.3-5.2,13.2-12.2,13.1c-6.9,0-12.5-5.7-12.5-12.6c0-0.2,0-0.3,0-0.5
		C1146.4,118.7,1151.7,112.8,1158.8,112.8L1158.8,112.8L1158.8,112.8z M925.8,114.4c-21.6-7.9-50.3,2.7-53.2,24.4
		c-2.8,20.7,9.7,32.4,36,37.6c27.3,5.4,24.2,29.2,17.3,37.2c-11,12.8-27.9,14.1-41.3,9.5c-27.1-7-47.5-33-42.2-65.6
		c5.4-33.2,32.7-49.5,60.8-49.5c-39.5-4.5-75.2,23.9-79.7,63.4c-0.3,2.7-0.5,5.4-0.5,8.2c-0.1,39.9,32.1,72.3,72,72.3
		s72.3-32.1,72.3-72C967.4,151.9,951.2,126.4,925.8,114.4L925.8,114.4z"/>
</g>
<g>
	<path d="M136.5,296.2c1.1,0.2,1.4,0.6,1.4,1.4v5.5c0,1-0.4,1.5-1.3,1.5h-20.5c-6.7,0-9.9,2.1-9.9,6.8v1.4c0,3.7,1.2,6,5.9,7.9
		l18,7.2c8.3,3.4,11.2,8,11.2,16.6v2.8c0,13.3-10.5,16.2-24.4,16.2c-6.9,0-13.9-0.4-21.8-1.6c-0.9-0.2-1.2-0.6-1.2-1.6V355
		c0-1,0.4-1.4,1.4-1.4H120c6.6,0,9.9-2,9.9-6.7v-1.5c0-4.1-1.5-6.5-6.6-8.5l-19.2-7.5c-7.2-2.7-9.4-8-9.4-16.5v-2
		c0-13.3,9.9-16.1,24-16.1C126,294.7,129.5,295.1,136.5,296.2"/>
	<path d="M219,295.1c1.2,0,1.8,0.5,1,2l-24.3,44.8v19.8c0,1-0.4,1.4-1.3,1.4h-8.7c-0.9,0-1.3-0.4-1.3-1.4v-19.9l-24.2-44.7
		c-0.8-1.4-0.3-2,1-2h9.6c1.3,0,1.9,0.4,2.4,1.4l17,33.5l17-33.5c0.5-1,1.1-1.4,2.4-1.4H219z"/>
	<path d="M280.9,296.2c1.1,0.2,1.4,0.6,1.4,1.4v5.5c0,1-0.4,1.5-1.3,1.5h-20.5c-6.7,0-9.9,2.1-9.9,6.8v1.4c0,3.7,1.2,6,5.9,7.9
		l18,7.2c8.3,3.4,11.2,8,11.2,16.6v2.8c0,13.3-10.5,16.2-24.4,16.2c-6.9,0-13.9-0.4-21.8-1.6c-0.9-0.2-1.2-0.6-1.2-1.6V355
		c0-1,0.4-1.4,1.4-1.4h24.8c6.6,0,9.9-2,9.9-6.7v-1.5c0-4.1-1.5-6.5-6.6-8.5l-19.2-7.5c-7.2-2.7-9.4-8-9.4-16.5v-2
		c0-13.3,9.9-16.1,24-16.1C270.5,294.7,273.9,295.1,280.9,296.2"/>
	<path d="M356.2,295.1c0.9,0,1.3,0.4,1.3,1.3v7.3c0,0.9-0.4,1.3-1.3,1.3h-19.4v56.6c0,0.9-0.4,1.3-1.3,1.3h-8.7
		c-0.9,0-1.3-0.4-1.3-1.3v-56.6H306c-0.9,0-1.3-0.4-1.3-1.3v-7.3c0-0.9,0.4-1.3,1.3-1.3H356.2z"/>
	<path d="M390.1,295.1c0.9,0,1.3,0.4,1.3,1.3v65.2c0,1-0.4,1.4-1.3,1.4h-8.7c-0.9,0-1.3-0.4-1.3-1.4v-65.2c0-0.9,0.4-1.3,1.3-1.3
		H390.1z"/>
	<path d="M485,295.1c0.9,0,1.2,0.4,1.2,1.3l6,65.2c0.1,1-0.4,1.4-1.3,1.4h-8.7c-0.9,0-1.2-0.4-1.3-1.4l-4-46.6l-17.6,44.7
		c-0.4,0.8-1,1.2-1.8,1.2h-7.4c-0.8,0-1.4-0.4-1.7-1.2L430.9,315l-4.1,46.6c-0.1,1-0.4,1.4-1.3,1.4h-8.7c-0.9,0-1.4-0.4-1.3-1.4
		l6-65.2c0.1-0.8,0.4-1.3,1.2-1.3h8.8c2.5,0,3.3,0.8,4.3,3.5l18.1,47l18-47.1c1.1-2.6,1.8-3.4,4.3-3.4H485z"/>
	<path d="M556.9,305.1l15.4,56.6c0.2,1.1-0.1,1.4-1.1,1.4h-9.1c-0.8,0-1-0.4-1.2-1.4l-5.2-19.1h-25.3l-5.3,19.1
		c-0.3,1.1-0.4,1.4-1.2,1.4h-9.1c-1,0-1.2-0.4-1.1-1.4l15.8-56.6c2.7-9.3,4.3-10.4,13.5-10.4C552.9,294.7,554.3,295.8,556.9,305.1
		 M539.8,308L533,333H553l-6.7-24.9c-0.9-3.2-1-3.6-3.5-3.6C540.9,304.4,540.7,304.8,539.8,308"/>
	<path d="M647.5,295.1c1.3,0,1.8,0.7,1,2l-20.5,30.6l22.4,33.4c1,1.4,0.3,2-1,2h-9.6c-1.3,0-1.8-0.4-2.4-1.4L621.2,337l-16.1,24.7
		c-0.6,1-1.1,1.4-2.4,1.4h-9.6c-1.2,0-2-0.5-1-2l22.4-33.4L594,297.1c-0.8-1.2-0.4-2,1-2h9.6c1.4,0,1.9,0.5,2.4,1.4l14.2,21.9
		l14.3-21.9c0.5-0.9,1-1.4,2.4-1.4H647.5z"/>
	<path d="M658,301.6c0-6.8,3.1-9.9,9.8-9.9s9.8,3.1,9.8,9.9c0,6.8-3.1,9.9-9.8,9.9S658,308.4,658,301.6 M676.2,301.6
		c0-5.7-2.6-8.4-8.3-8.4c-5.7,0-8.3,2.6-8.3,8.4c0,5.7,2.6,8.4,8.3,8.4C673.6,310,676.2,307.3,676.2,301.6 M672,299.9
		c0,1.9-0.5,2.8-1.9,3l2.1,3.4c0.2,0.2,0.1,0.3-0.2,0.3h-1.8c-0.4,0-0.5-0.1-0.7-0.4l-2.1-3.3l-0.8,0v3.3c0,0.2,0,0.3-0.3,0.3h-1.9
		c-0.2,0-0.2,0-0.2-0.3v-9.5c0-0.2,0-0.2,0.2-0.2c1.3-0.1,2.6-0.2,3.8-0.2C671.1,296.5,672,297.3,672,299.9 M666.7,298.6v2.6h1.4
		c1.3,0,1.6-0.2,1.6-1.2c0-1-0.3-1.4-1.6-1.4H666.7z"/>
</g>
</svg>
