<?xml version="1.0" encoding="utf-8"?>
<!-- Generator: Adobe Illustrator 23.1.0, SVG Export Plug-In . SVG Version: 6.00 Build 0)  -->
<svg version="1.1" id="Layer_1" xmlns="http://www.w3.org/2000/svg" xmlns:xlink="http://www.w3.org/1999/xlink" x="0px" y="0px"
	 viewBox="0 0 1260 480" style="enable-background:new 0 0 1260 480;" xml:space="preserve">
<style type="text/css">
	.st0{fill:#F58220;}
	.st1{fill:#006F53;}
</style>
<g>
	<rect x="798" y="155" class="st0" width="169.6" height="47.2"/>
	<rect x="798" y="277.8" class="st0" width="169.6" height="47.2"/>
	<path class="st0" d="M169.4,268.2c-4.8,0-8.7-3.9-8.7-8.7v-39.1c0-4.8,3.9-8.7,8.7-8.7h104.5V190c0-19.1-15.5-34.9-34.9-34.9h-100
		c-19.4,0-34.9,15.8-34.9,34.9v100c0,19.1,15.5,34.6,34.9,34.6h100c19.1,0,34.9-15.5,34.9-34.9v-21.8H169.4V268.2z"/>
	<path class="st0" d="M405.6,259.6c0,4.8-3.9,8.7-8.7,8.7h-39.1c-4.8,0-8.7-3.9-8.7-8.7v-39.1c0-4.8,3.9-8.7,8.7-8.7h39.1
		c4.8,0,8.7,3.9,8.7,8.7V259.6z M427.4,155h-100c-19.1,0-34.9,15.5-34.9,34.9v100c0,19.1,15.5,34.9,34.9,34.9h100
		c19.1,0,34.9-15.5,34.9-34.9V190C462,170.9,446.5,155,427.4,155"/>
	<polygon class="st1" points="601.5,225.8 531,155 480.8,155 480.8,268.2 537.6,268.2 594,324.7 643.9,324.7 650.8,324.7 
		650.8,225.8 	"/>
	<polygon class="st0" points="778.9,155 722.4,155 666,155 551,155 607.5,211.8 664.2,211.8 664.5,324.7 722.4,324.7 722.4,211.8 
		778.9,211.8 	"/>
	<rect x="798" y="216.6" class="st0" width="141.3" height="47.2"/>
	<path class="st0" d="M1051.5,211.8h104.5V190c0-19.1-15.5-34.9-34.9-34.9h-100c-19.1,0-34.9,15.5-34.9,34.9v100
		c0,19.1,15.5,34.9,34.9,34.9h100c19.1,0,34.9-15.5,34.9-34.9v-21.8l0,0v-28.4h-56.4v28.4h-47.8c-4.8,0-8.7-3.9-8.7-8.7v-39.1
		C1042.9,215.7,1046.7,211.8,1051.5,211.8"/>
</g>
</svg>
