<?xml version="1.0" encoding="utf-8"?>
<!-- Generator: Adobe Illustrator 23.1.0, SVG Export Plug-In . SVG Version: 6.00 Build 0)  -->
<svg version="1.1" id="Delta" xmlns="http://www.w3.org/2000/svg" xmlns:xlink="http://www.w3.org/1999/xlink" x="0px" y="0px"
	 viewBox="0 0 1260 480" style="enable-background:new 0 0 1260 480;" xml:space="preserve">
<style type="text/css">
	.st0{fill:#0087DC;}
</style>
<path class="st0" d="M1079.4,285.1c0.3-0.3,0.7-1,0.7-1.3v-30.1c0-1-1-2-2-2H938.4c-0.7,0-1,0.3-1.3,0.7c-0.3,0.3-0.7,1-0.7,1.3
	v30.4c0,0.7,0.3,1,0.7,1.3c0.3,0.3,1,0.7,1.3,0.7h47.1v126.6c0,0.7,0.3,1,0.7,1.3c0.3,0.3,1,0.7,1.3,0.7c8.3,0,32.4,0,35.7,0l0,0
	l0,0c1.7,0,3.7-0.7,5.7-2c1.7-1.3,3-3.7,3-7c0-7.3,0-118.9,0-118.9v-1h46.4C1078.4,285.7,1078.7,285.4,1079.4,285.1z M830.6,382.6
	c0-0.7-0.3-1-0.7-1.3c-0.3-0.3-1-0.7-1.3-0.7h-88.2v-35.7h76.1c0.7,0,1-0.3,1.3-0.7c0.3-0.3,0.7-1,0.7-1.3v-30.1
	c0-0.7-0.3-1-0.7-1.3c-0.3-0.3-1-0.7-1.3-0.7h-75.8v-25h88.2c0.7,0,1-0.3,1.3-0.7s0.7-1,0.7-1.3V253c0-0.7-0.3-1-0.7-1.3
	c-0.3-0.3-1-0.7-1.3-0.7H694.7c-0.7,0-1,0.3-1.3,0.7c-0.3,0.3-0.7,1-0.7,1.3v142.3c0,6,3,10.7,7,14c4,3.3,9.4,5,13.4,5h108.9
	c2.3,0,4.3-1.3,6-2.7c1-0.7,1.3-1.7,2-2.3c0.3-0.3,0.3-0.7,0.7-1c0-0.3,0.3-0.3,0.3-1.3l0,0v-24.4L830.6,382.6L830.6,382.6z
	 M970.8,382.9c0-0.7-0.3-1-0.7-1.3c-0.3-0.3-1-0.7-1.3-0.7h-77.1V253.7c0-0.7-0.3-1-0.7-1.3c-0.3-0.3-1-0.7-1.3-0.7h-42.4
	c-1,0-2,1-2,2c0,3.3,0,9.4,0,17c0,12.4,0,29.4,0,46.8c0,34.4,0,70.5,0,77.8c0,7,3,12,7,15c4,3,9,4.3,12.7,4.3h98.2l0,0l0,0
	c2,0,3.7-1.3,5.3-3c1.3-2,2.3-4,2.3-5.7l0,0l0,0C970.8,403.3,970.8,389.3,970.8,382.9z M644.6,322.8c-17.7-25-36.4-51.4-40.4-57.1
	l0,0l0,0l0,0c-2.3-3.3-5.3-6.7-7.7-8.7c-6.3-5.3-14.7-8.7-23.7-8.7c-20.4,0-37.1,16.7-37.1,37.1l0,0l0,0v56.4c0,29.4,0,61.1,0,70.8
	c0,0.7,0.3,1,0.7,1.3s1,0.7,1.3,0.7h43.4c0.7,0,1-0.3,1.3-0.7c0.3-0.3,0.7-1,0.7-1.3v-98.5l46.4,66.8h-30.1c-0.7,0-1,0.3-1.3,0.7
	c-0.3,0.3-0.7,1-0.7,1.3V413c0,0.7,0.3,1,0.7,1.3s1,0.7,1.3,0.7h56.8c15.4,0,27.7-12.4,27.7-27.7c0-6-2-11.4-5-15.7
	C679,371.2,662.3,347.9,644.6,322.8z M1160.5,248.3c-9,0-17.4,3.3-24,8.7c-2.3,2-5.3,5.3-7.7,8.7c-4,6-22.7,32.4-40.4,57.1
	c-17.7,25-34.4,48.4-34.4,48.4c-3,4.3-5,10-5,16c0,15.4,12.4,27.7,27.7,27.7h57.4c0.7,0,1-0.3,1.3-0.7s0.7-1,0.7-1.3v-30.1
	c0-0.7-0.3-1-0.7-1.3s-1-0.7-1.3-0.7h-30.1l46.4-66.8V413c0,0.7,0.3,1,0.7,1.3c0.3,0.3,1,0.7,1.3,0.7h43.4c0.7,0,1-0.3,1.3-0.7
	c0.3-0.3,0.7-1,0.7-1.3V285.7C1197.6,265,1180.9,248.3,1160.5,248.3z"/>
<path class="st0" d="M274.9,65L62.2,414.6h424.4L274.9,65z M315.3,374.2c-10,0-19-3-26.7-8c-0.3,0-0.3,0.3-0.7,0.3
	c-24,16.7-50.4,27.4-74.5,27.4c-1.3,0-2.7,0-3.7,0c-18-0.7-31.7-8-40.4-17.7c-8.7-9.7-12.7-21.4-13-31.4c0-0.7,0-1.7,0-2.3
	c0.3-29.7,20.7-62.1,48.8-88.5c27.4-26.4,63.8-46.1,99.2-46.4c0,0,0.3,0,0.7,0c16.4,0,30.7,5.3,40.1,15c9.7,9.7,14.7,23.4,14.4,37.7
	c0,10-2.3,20.7-6.7,31.1c7.7,8.7,12.4,20.4,12.4,32.7C365.1,351.9,343,374.2,315.3,374.2z M332,235.7c-5.7-5.7-14.4-9.7-27-9.7h-0.3
	c-28.4,0-61.8,17.4-87.2,41.4c-26,23.7-43.4,54.1-43.1,74.8c0,0.7,0,1,0,1.7c0.3,5.7,2.7,13.7,8.3,19.7s14,11,27.7,11.7c1,0,2,0,3,0
	c18,0,40.4-8.3,61.4-22.4c-5.7-8-9.4-17.7-9.4-28.4c0-27.4,22.4-49.8,49.8-49.8c8,0,15.4,2,22,5.3c2.3-7,3.7-13.4,3.7-19.4
	C341,249.7,337.7,241.7,332,235.7z"/>
</svg>
