<?xml version="1.0" encoding="utf-8"?>
<!-- Generator: Adobe Illustrator 23.1.0, SVG Export Plug-In . SVG Version: 6.00 Build 0)  -->
<svg version="1.1" id="Слой_1" xmlns="http://www.w3.org/2000/svg" xmlns:xlink="http://www.w3.org/1999/xlink" x="0px" y="0px"
	 viewBox="0 0 1260 480" style="enable-background:new 0 0 1260 480;" xml:space="preserve">
<style type="text/css">
	.st0{fill-rule:evenodd;clip-rule:evenodd;fill:#CD2628;}
</style>
<path class="st0" d="M660.8,291.3h135.8c5.5-0.7,10.5,3.1,11.2,8.6c0.1,0.6,0.1,1.1,0.1,1.7v36c0.1,6.8-5.1,12.5-12,13H578.2
	c-7.9,0-8.1-9.1-8.1-9.1v-0.6h1.7l57.1-4.7l-56.7-3.2l60.9-4.8l-61.1-2.2l65.4-5.1l-65.6-3.7l65.6-5.1l-65.6-4.7l65.6-3.5l-65.8-4.6
	l65.8-4.4l-64.8-3.7l60.9-5.2l-61.1-3.4l56.5-3.7c9.8,6.3,20.7,10.6,32.2,12.5 M512.4,277.1h-79L490,169.7c0,0,12-18.4,22-6.5
	L512.4,277.1z M975.1,131.6l73.5-4.4L975,123l70.4-4.4l-70.4-4.5l67-4.1l-67-3.3H668c-61.9,0-77.9,61.6-77.9,94.5
	c0,43.2,19.8,65.8,38.5,77.6l-58.4-3.5V127c1.2-9.5-5.6-18.1-15.1-19.3c-0.8-0.1-1.6-0.1-2.4-0.1h-86.9c-10.9,0-18.4,15.3-18.4,15.3
	s-99.6,187.3-107.7,204.3c-3.9,9.4-13.4,15.4-23.6,14.8h-94.5c-9.2,0-12.1-14.4-12.1-14.4v-35.3c0-11.7,13.3-12.4,13.3-12.4H305
	c8-0.3,14.7-6.4,15.6-14.4v-27.5c0.4-8.4-6-15.6-14.5-16c-0.2,0-0.4,0-0.7,0h-82.8c-5.6,0.7-10.7-3.2-11.5-8.8
	c-0.1-0.8-0.1-1.6,0-2.4v-34.6c0-8.6,11.5-9.9,11.5-9.9h91.8l66.3-4.3l-66.3-4.7l70.5-4l-70.5-3.1l74.8-5l-74.8-3.1l74.8-4.3
	l-74.8-5l74.8-4.3l-74.8-5l70.5-3.1l-70.5-5l66.3-4.3l-66.3-4.3h-133c-32.6,0-33.1,28.1-33.1,28.1v247.3c0,22.7,24.1,25.9,24.1,25.9
	h164.9c27.5,0,39.5-25.9,39.5-25.9l22.5-39.3h111.2v38.7c0,26.4,26.6,26.4,26.6,26.4h254.5c67.6,0,70.2-55,70.2-55v-66.8
	c0-58.2-67.2-57.6-67.2-57.6H670.4c-14.9-2.2-25.8-15.1-25.6-30.2c0.9-30.8,23.6-34,23.6-34h211.4v221c0,6.4,9.5,22.6,32.6,22.6
	c13.2,0.2,25.2-7.5,30.5-19.6v-220c0-3.5,4.1-3.7,4.1-3.7h28.2l67-4l-67-4.2l70.4-4.9l-70.4-3.2l73.5-4.4l-73.6-3.5l73.6-4.1
	L975.1,131.6z M1102.3,102.1V90.4h7.2c3.7,0,7.6,0.9,7.6,5.5c0,5.8-4,6.2-8.6,6.2H1102.3z M1102.3,106.9h6.1l9.3,16.4h6l-10.3-16.6
	c5.3-0.2,9.4-4.7,9.2-10c0-0.2,0-0.3,0-0.5c0-7.2-4.2-10.7-12.5-10.7h-13.4v37.8h5.3L1102.3,106.9z M1108.8,137.2
	c17.5-0.5,31.3-15,30.8-32.5c0-0.1,0-0.3,0-0.4c0.8-17.1-12.4-31.6-29.4-32.4c-17.1-0.8-31.6,12.4-32.4,29.4c0,1,0,2,0,3
	c-0.7,17.5,12.9,32.2,30.4,32.9C1108.4,137.2,1108.6,137.2,1108.8,137.2z M1083.9,104.3c-1.3-13.7,8.8-25.9,22.5-27.1
	c13.7-1.3,25.9,8.8,27.1,22.5c0.1,1.5,0.1,3.1,0,4.6c1.3,13.7-8.8,25.9-22.5,27.1c-13.7,1.3-25.9-8.8-27.1-22.5
	C1083.8,107.4,1083.8,105.9,1083.9,104.3z"/>
</svg>
