<?xml version="1.0" encoding="utf-8"?>
<!-- Generator: Adobe Illustrator 23.1.0, SVG Export Plug-In . SVG Version: 6.00 Build 0)  -->
<svg version="1.1" id="Слой_1" xmlns="http://www.w3.org/2000/svg" xmlns:xlink="http://www.w3.org/1999/xlink" x="0px" y="0px"
	 viewBox="0 0 1260 480" style="enable-background:new 0 0 1260 480;" xml:space="preserve">
<style type="text/css">
	.st0{fill:#E30613;}
	.st1{fill-rule:evenodd;clip-rule:evenodd;}
</style>
<g>
	<path d="M881.2,223.2c4.6-1.2,8.7-0.2,12.2-0.8c3.5-0.7,6.8,0.2,9.8-0.1c3-0.3,6.2-0.6,9.5-0.8c3.3-0.2,3.3-0.7,7.6-1
		c1.6-0.1,3.2-0.4,4.7-0.8c1.6-0.5,2.9-1.4,4-2.7c3.5-4.4,3.1-23.7,0.4-26.9c-2.5-2.9-6.8-7.3-11.1-8.5c-11.4-3.1-29.5-3.3-42.8-2.6
		c-6.5,0.4-13,0.8-19.5,1.3c-18.5,1.4-42.7,4.7-60.3,12.5c-5.4,2.4-8.2,5.5-8.5,9.6c-0.2,2.1-1.6,7.2-1.5,10.1
		c0,2.8,0.4,5.7,1.2,8.5c0.7,2.8,0.7,6.4,2.7,8.3c2,1.9,4.8,2.9,8.5,2.9c9.4,0.1,21.3-2.5,31.1-3.3c-2.1,4.1-2.7,6.8-6,13.5
		c-3.3,6.8-6.4,13.8-10.6,22.4c-4.2,8.6-7.8,17.7-12.4,27.3c-4.6,9.7-9.2,19.4-13.7,29.1c-4.6,9.8-9.5,17.4-13.6,26.5
		c-4.1,9.2-7.8,17.6-11,25.3c-3.2,7.6-5.8,14.2-7.7,19.6c-1.9,5.4,0.9,11.1,0.7,13.4c-0.2,2.5,0.7,4.9,2,7.3
		c5.7,10.4,26.4,19.1,33,10c3.4-4.7,6.9-12.1,8.7-17.3c2.5-7.3,7.2-15.9,11.4-25.9c4.2-10,6.4-20.1,11.6-31.7
		c5.2-11.6,12-23.4,17.6-35.4c5.6-12,10-23.6,15.5-34.9c5.5-11.3,10.7-21.6,15.5-31C874.9,237.5,877.7,229.6,881.2,223.2"/>
	<path d="M722.9,198.1c-1.4-2.5-1.1-5.1-3.1-7.9c-2-2.8-3.5-6.1-5.8-8.5c-2.3-2.5-4.7-4.4-7-6c-2.3-1.6-7.1-2.4-9.2-2.5
		c-1.7-0.1-5.9,0.3-7.4,1c-1.6,0.7-3.2,1.7-4.9,2.7c-11.1,6.7-20.2,13.8-29.8,22.8c-9.6,9-17.1,20.1-25.1,30.6
		c-8,10.6-15.1,21.5-21.3,33c-6.2,11.4-11.6,22.9-16,34.5c-4.4,11.5-7.8,22.8-10.3,33.8c-2.5,11-3.9,21.3-4.3,31
		c-0.4,9.3-1.5,18.9,0.4,26.1c1.9,7.2,4.6,13.4,8.1,18.7c3.5,5.2,7.4,9.6,11.8,13c4.4,3.4,8.8,6,13.4,7.7c4.6,1.7,10.8,1.3,15,1.4
		c8.8,0.2,18-1.8,27.5-5.9c9.6-4.1,19-10.1,28.4-17.8c9.4-7.8,17.1-17,25.6-27.8c8.5-10.7,14.1-22.6,20.8-35.6
		c6.7-13,12.1-26.9,16.3-41.6c4.1-14.7,8.5-29.8,9.2-45.4c0.3-7.7,0.2-15.3-0.4-22.9c-0.6-7.6-0.6-14.7-2.5-21.2
		c-1.9-6.6-4.5-12.3-8-17c-0.2-0.3-0.6-0.8-1-1.3c-0.5-0.6-0.9-1.1-1.5-1.6c-0.5-0.5-1.1-0.8-1.7-0.8c-0.7,0-1.9,0.3-3.5,0.9
		c-1.6,0.6-3.4,1.4-5.3,2.3c-1.9,0.9-3.6,1.7-5.2,2.5C724.6,197.1,723.5,197.6,722.9,198.1 M709,256.2c-0.9,9.6-4.3,19.5-7.6,29.6
		c-3.3,10.1-7.3,20.2-12.1,30c-4.8,9.8-10,19-15.6,27.7c-5.6,8.6-11.3,16.3-16.9,22.9c-5.7,6.6-10.9,11.8-15.9,15.5
		c-5,3.7-9.2,5.6-12.6,5.5c-1.3,0-3.8,0.5-5-1.1c-1.1-1.5-2-3.9-2.6-7.1c-0.6-3.1,0.5-8.3,1-13.1c1-10.9,4.6-21.2,8-32.1
		c3.4-11,8.2-20.3,13.2-30.6c4.9-10.3,10.3-19.8,15.9-28.6c5.7-8.8,11.3-16.6,17-23.2c5.6-6.7,10.2-12.4,15-16.1
		c4.8-3.7,7.5-6.8,10.7-6.8c1.5,0,2.8,0.8,4,2.5c1.2,1.6,2,4.5,2.5,8.5C708.4,243.8,709.7,249.3,709,256.2"/>
	<path d="M531.3,280.4c-4.3-0.6-6,1.6-10.2,1.4c-4.3-0.2-8.6-0.8-12.8-0.3c-5.8,0.6-12.2,0.7-14.2-0.9c-2.1-1.6,0.1-4.8,3.5-10.9
		c4.3-7.6,8.7-13.4,11.2-19c3.8-8.7,9.2-16.1,13.5-24.6c2.5-4.8,8.6-24.1,4.5-29.3c-5-6.2-9.6-13.2-15.1-18.8
		c-1.4-1.4-3-2.2-4.8-2.2c-2.2,0-4.4,1.5-6.8,4.3c-2.4,2.8-6.1,7.1-8.7,11.7c-2.6,4.5-5.2,9.5-7.9,15c-2.6,5.4-5.2,10.8-8,16.1
		c-4.2,8-7.8,17.5-12.9,28.5c-5.2,11-11.4,24.9-21.7,36.9c-14.4,2.3-33.8,0.6-40.5,6.8c-6.8,6.3-13.2,24.3-11.5,30.8
		c0.7,2.7,1.9,5,3.4,6.7c1.5,1.8,28.5-2.3,31.1-2.1c-1.4,13.1-8.6,22.3-11.9,30.8c-3.3,8.5-7.9,15.5-10,21.2
		c-2.1,5.6-3.7,10.3-4.6,13.9c-0.9,3.6-1.4,6.6-1.4,9.1c0,3.2,0.4,5.6,1.3,7.3c0.9,1.7,2.2,3,3.8,4c1.6,0.9,3.7,2.5,6,3.5
		c3.9,1.6,6,3.3,8.6,5c2.7,1.7,5.1,2.5,7.1,3.7c2,1.1,3.9,1.8,5.7,1.8c5,0,7.5-2.4,9.1-7.1c4.1-12.2,13.9-38.6,19.6-54.1
		c5.3-14.6,9.6-22.8,17.3-41.6c10.3-1.5,21.1-1,28.8-1c13.2,0.1,5.6,4.9,0.7,16.7c-3.9,9.4-9.1,19.5-12.6,29.8
		c-2.3,7-4.2,13.4-5.6,19.1c-1.4,5.8-3.5,10.4-3.5,13.9c0,3.5,0.5,6.5,1.4,8.7c1,2.3,2.4,4.3,4.3,6c1.9,1.7,5.5,4.2,8.3,6.1
		c10.3,7.2,9.8,9.3,22.8,9.5c2.3,0,4-0.6,5.3-2.1c7.1-8.5,7.3-30.1,11.1-42.5c2.5-8.2,5.2-17.4,8.7-27.2c3.5-9.9,7.3-20.1,11.4-30.7
		c4.2-10.6,11.1-21,15.5-31.4c4.4-10.3,8.7-18.1,12.8-27.3c4.1-9.2,9.8-17.3,13.2-24.4c3.4-7.1,6.2-12.7,8.4-16.8
		c2.5-4.7,4.6-9,6.4-13c1.8-4,0.9-9.1,0.9-11.6c0-1.9-0.4-3.6-1.2-5.2c-0.8-1.6-1.8-3.2-3-4.8c-1.1-1.6-1.9-1.6-3.2-3.3
		c-15.7-19.1-22-9.2-30.3,2.1c-3.7,5.1-6.8,11.6-10.4,18.3c-3.6,6.8-7.2,13.8-10.8,21c-3.5,7.2-10,17.3-13.2,24.1
		C536.6,268.8,533.8,275,531.3,280.4"/>
	<path class="st0" d="M380.7,384.6c-2.1-0.7-4-1.2-5.6-1.7c-3.4-1.1-5.2-1.4-8.1-2.3c-2.8-0.9-5.3-1.2-7.5-0.9
		c-2.7,0.6-5.3,2.1-7.6,4.7c-2.4,2.6-4.5,5.7-6.3,9.3c-1.9,3.6-3.2,7.2-4.3,10.9c-1,3.6-1.6,6.7-1.6,9.2c0.1,3.6,0.9,6.4,2.5,8.4
		c1.5,2.1,3.5,3.8,6,4.8c7.4,3.3,22.2,9.3,33.1-11.6c1.4-2.6,4.1-6.9,6-11.1C391.2,396.1,390.7,388,380.7,384.6"/>
	<path d="M291.9,351.5c2.3-5.5,5.1-10.1,8.4-15c3.3-4.9,6.8-9.2,10.6-13.1c3.7-3.8,7.4-6.8,11-9c3.6-2.2,7-3.9,10-4
		c0.9,0,1.9,0.2,3,0.6c1.1,0.4,2.1,1.3,2.9,2.5c0.8,1.2,1.2,2.9,1.2,5.2c0,2.4-1.4,4.4-2.9,7.3c-1.5,2.9-3.6,5.9-6.4,8.8
		c-2.8,3-6.1,5.7-10,8.2c-3.9,2.5-8.2,4.4-13,5.8C302,350.4,297.5,351.7,291.9,351.5 M281.1,363.5c3.6,4.8,5.7,8.6,10.3,11.5
		c4.6,2.9,10.5,2.5,15.3,2.5c3.4,0,7.3-0.9,11.9-2.4c4.6-1.6,6.2-2.5,11.3-5.4c5.1-2.8,10.2-5.6,15.1-9.4c4.9-3.8,11.3-8,15.3-12.5
		c4-4.5,7.2-9.2,9.6-14.1c2.4-4.9,3.7-9.8,3.7-14.8c0-4.9,0.1-10-2.1-14.1c-2.2-4.1-5.3-7.6-9-10.6c-3.7-3-7.9-5.4-12.4-7
		c-4.5-1.7-10.4-1.9-15.1-1.9c-6.2,0-12.8,1.5-20,4.3c-7.2,2.8-14.4,6.8-21.8,11.8c-7.4,5-13.8,10.9-20.5,17.6
		c-6.8,6.7-11.5,13.3-16.8,21.1c-5.4,7.8-10.9,16.6-14,25c-3.1,8.4-4.8,16.8-4.8,25.2c0,7.4,1.8,14,5.3,19.6
		c3.5,5.6,8.4,10,14.9,13.2c6.4,3.1,13.5,4.8,22.5,4.8c4.8,0,10-0.5,14.8-1.5c4.8-0.9,9.1-2.1,13-3.5c3.9-1.4,7.3-2.9,10.3-4.4
		c3-1.5,5.4-2.9,7.4-4c2.9-1.7,5.1-3,6.5-4.3c1.4-1.3,2.3-2.4,2.7-3.6c0.4-1.1,0.7-2.3,0.7-3.6c0-2.8,1-14.3-2.1-17.1
		c-0.7-0.6-1.5-0.8-2.3-0.7c-3.4,0.3-9.4,2.4-12.6,3.4c-4.8,1.6-10,3-15.5,4.2c-5.5,1.2-9.5,2.5-14.8,2.5c-3.7,0-3.9-0.6-6-1.7
		c-2.1-1-3.5-2.3-4.4-3.9c-0.9-1.5-1.4-2.9-1.6-4.2c-0.2-1.3-0.3-2.3-0.3-2.8C276,376.7,276.3,368.1,281.1,363.5"/>
	<path class="st1" d="M379.5,216.9c-23.8,0.7-49.5-0.7-72.4-9c-20.2-7.4-36.7-17.9-51.2-37.3c2.4-1.1,5.4-1.6,7.9-2.6
		c6.1-2.5,13.1-6.6,17.9-14.3c2,13.6,15.5,23.4,27.1,30.8c11.6,7.5,23.5,12.7,36.6,16.5c11.8,3.5,22.3,2.1,28.2-3.7
		c4-4,5.9-10.1,4.6-18.1c-3.2-20.3-14.8-34-35.4-44.4c-9.8-4.9-21.3-8.8-31.6-10.8c8.8-9,22.4-17.8,42.8-24.4
		c0.6-15.5,4-36.4,18.6-44.7c7.1-4,16.1-2.9,22.2,1.9c5.4,4.2,8.2,10.7,9,17.5c3.3,28.7-8.8,41-17.3,51c4.7-13,8.1-20.7,8.8-32.6
		c0.5-6.9,0.1-14-3.3-20.1c-2.9-5.1-7.6-10.1-13.6-8.5c-4.7,1.2-9.9,8.4-11.8,14c-4.4,12.9-5.1,20.2-5.3,33.5
		c-0.1,7.2-0.4,16.6,0.7,21.7c1,4.4,4.3,7.4,8,8c4,0.7,12-2.2,15.3-4.6c11-8.3,19.2-16.4,25.8-34.7c39.4,15.2,86.7,28.2,139.7,30.3
		c32.5,1.3,63.5-7.1,96-16.6c48.6-14.2,87.1-21.7,128.2-27.3c36.6-5,75.3-5.5,110.9,4.4c29.4,8.2,58.8,24.3,78.6,47.6
		c17.7,20.8,24.7,50.3,27.9,77.4c2.5,21.2,2.5,41.7-2,57.5c-1.2,4.1-5.4,10.8-10.1,12.4c-4.8,1.6-11-1.5-13.6-4.9
		c-5.5-7.3-9.9-15.7-7.2-40.4c-11.3-2.5-23.3,5.8-30.5,14.5c-21.5,25.6-38.9,54.9-53,85.2c-8.5,18.2-18.1,47.7-12.8,67.1
		c4.4,16.1,21.1,23.9,37.7,22.3c26.8-2.6,44.2-15.5,62.8-35c21.2-22.2,42.1-56.9,52.9-85.7c9.9-26.3,15.8-55.1,14.4-83.2
		c-1.9-37.1-14.6-74.7-37.8-103c-20.1-24.5-50.6-42.5-81.1-54.9c-29.1-11.8-61.4-16.3-92.8-16.9C784.6,52,751.8,57,715.7,67.2
		c-34.7,9.8-68.5,21.3-103.2,30.8c-48.7,13.3-85.2,16.2-133.6,7.1c-19.9-3.8-47.3-10.7-64.5-20.7c0.6-12.8-1.4-28.2-12-35.5
		c-5.4-3.7-13.2-5.7-20.5-5.7c-6.9,0-13.5,3-17.7,6.1c-4,3-6.1,7-8.5,10.4c-6.9-6.1-13.4-9.3-19.4-7.6c-7.3,2.1-12,10.4-12.7,16.5
		c-0.7,6.3-0.6,11.5-0.9,17.7c-14.8,12.9-28.6,25-43,37.4c-12.6,10.8-20.2,17.7-33.2,28c-5.9,4.7-13.3,5.2-17.4,5.1
		c-0.7,2-0.6,7-0.1,9.9c1.3,7.3,13.1,21,18.4,26c17.6,16.2,24.8,21.8,47.1,30.5c23,9,51,9.2,73.5,9.5c7.5,0.1,13.1-0.4,20.8-1.5
		c3.7-0.6,5.8-1.8,3.9-5C390.5,221.9,387.8,216.7,379.5,216.9 M926.3,303.1c11.5,16.3,28.4,26.4,50.8,29
		c-4.1,6.1-7.3,10.7-11.7,15.6c-6.7,7.3-18.4,8.9-27.7,4.9c-6.8-2.9-11.9-6.8-16-11c-6-6.1-5.9-13.3-4.6-20.5
		C917.9,315.4,923.3,308.1,926.3,303.1 M897.4,362c7.6,17,22.7,23,40.5,24.4c-3.1,6.3-14.9,14.2-26.8,17.5c-14.4,4-19.9-5.6-20-13.8
		C890.9,378.8,893.1,370.7,897.4,362 M308.4,141.3c4.4,0,8,2.9,8,6.6c0,3.6-3.6,6.6-8,6.6c-4.4,0-8-2.9-8-6.6
		C300.4,144.3,303.9,141.3,308.4,141.3"/>
</g>
</svg>
