<?xml version="1.0" encoding="utf-8"?>
<!-- Generator: Adobe Illustrator 23.1.0, SVG Export Plug-In . SVG Version: 6.00 Build 0)  -->
<svg version="1.1" id="Слой_1" xmlns="http://www.w3.org/2000/svg" xmlns:xlink="http://www.w3.org/1999/xlink" x="0px" y="0px"
	 viewBox="0 0 1260 480" style="enable-background:new 0 0 1260 480;" xml:space="preserve">
<g>
	<rect x="732.29" y="123.28" width="107.07" height="30.68"/>
	<path d="M1127.1,170.4l-66.04-38.13l-33.55,20.06l67.16,38.78c2.61,1.5,4.23,4.3,4.23,7.31v77.65l34.14-20.45v-74.94
		C1133.03,176.46,1130.76,172.52,1127.1,170.4"/>
	<path d="M210.32,209.28c26.77,0,44.19,15.37,48.05,42.24h-97.89C164.8,230.69,183.29,209.28,210.32,209.28 M290.68,263.35
		c0-41.16-24.75-82.69-80.03-82.69c-47.71,0-83.68,37.84-83.68,88.02c0,51.57,35.9,89.01,85.35,89.01
		c29.58,0,53.56-11.76,71.31-34.94l4.05-5.29l-22.37-18.03l-4.3,5.12c-14.29,16.94-28.2,23.86-48.02,23.86
		c-32.2,0-49.71-24.26-53.14-48.9h130.84V263.35z"/>
	<rect x="314.87" y="122.3" width="31.62" height="231.06"/>
	<path d="M502.11,251.2h-97.89c4.31-20.84,22.79-42.23,49.83-42.23C480.82,208.97,498.25,224.33,502.11,251.2 M534.43,263.02
		c0-41.16-24.75-82.69-80.03-82.69c-47.71,0-83.68,37.84-83.68,88.02c0,51.58,35.9,89.01,85.35,89.01
		c29.58,0,53.56-11.76,71.31-34.94l4.05-5.29l-22.37-18.03l-4.3,5.12c-14.29,16.94-28.2,23.86-48.02,23.86
		c-32.2,0-49.71-24.26-53.14-48.9h130.84V263.02z"/>
	<polygon points="666.2,181.24 618.63,309.37 570.45,181.24 538.66,189.47 603.41,353.36 633.29,353.36 697,189.47 	"/>
	<path d="M732.29,251.53c4.31-20.84,22.81-42.24,49.84-42.24c26.76,0,44.19,15.37,48.06,42.24H732.29z M862.49,263.35
		c0-41.16-24.75-82.69-80.03-82.69c-47.71,0-83.69,37.84-83.69,88.02c0,51.57,35.91,89.01,85.36,89.01
		c29.58,0,53.56-11.76,71.31-34.94l4.05-5.29l-22.37-18.03l-4.3,5.12c-14.29,16.94-28.2,23.86-48.02,23.86
		c-32.2,0-49.71-24.26-53.14-48.9h130.84V263.35z"/>
	<path d="M971.03,327.73c-33.53,0-56.06-23.6-56.06-58.72c0-34.77,23.06-59.06,56.06-59.06c33.2,0,56.4,24.29,56.4,59.06
		C1027.43,304.13,1004.76,327.73,971.03,327.73 M971.03,180.65c-51.19,0-88.35,37.16-88.35,88.36c0,51.38,37.15,88.68,88.35,88.68
		c51.4,0,88.68-37.3,88.68-88.68C1059.72,217.82,1022.43,180.65,971.03,180.65"/>
</g>
</svg>
