<?xml version="1.0" encoding="utf-8"?>
<!-- Generator: Adobe Illustrator 23.1.0, SVG Export Plug-In . SVG Version: 6.00 Build 0)  -->
<svg version="1.1" id="Layer_1" xmlns="http://www.w3.org/2000/svg" xmlns:xlink="http://www.w3.org/1999/xlink" x="0px" y="0px"
	 viewBox="0 0 1260 480" style="enable-background:new 0 0 1260 480;" xml:space="preserve">
<style type="text/css">
	.st0{fill-rule:evenodd;clip-rule:evenodd;}
</style>
<g>
	<path d="M1149.4,245L1149.4,245L1149.4,245c4.3,0,8,1.7,10.7,4.4c2.8,2.8,4.4,6.5,4.4,10.7l0,0l0,0l0,0l0,0c0,4.3-1.7,8-4.4,10.7
		c-2.8,2.8-6.5,4.4-10.7,4.4l0,0l0,0l0,0l0,0c-4.3,0-8-1.7-10.7-4.4c-2.8-2.8-4.4-6.5-4.4-10.7l0,0l0,0l0,0l0,0
		c0-4.3,1.7-8,4.4-10.7C1141.4,246.7,1145.1,245,1149.4,245L1149.4,245L1149.4,245L1149.4,245z M1149.4,247.6L1149.4,247.6
		L1149.4,247.6L1149.4,247.6L1149.4,247.6c-3.5,0-6.7,1.5-8.9,3.7c-2.2,2.2-3.7,5.4-3.7,8.9l0,0l0,0l0,0l0,0c0,3.5,1.5,6.7,3.7,8.9
		c2.2,2.2,5.4,3.7,8.9,3.7l0,0l0,0l0,0l0,0c3.5,0,6.7-1.5,8.9-3.7c2.2-2.2,3.7-5.4,3.7-8.9l0,0l0,0l0,0l0,0c0-3.5-1.5-6.7-3.7-8.9
		C1156,248.9,1152.9,247.6,1149.4,247.6z"/>
	<polygon class="st0" points="95.4,181.6 106.5,181.6 124.1,181.6 211,181.6 211,205 124.1,205 124.1,257.4 208.8,257.2 
		208.8,280.1 124.1,280.1 124.1,350 211.8,350 211.8,373.7 124.3,373.9 109.5,373.9 95.4,373.9 	"/>
	<path class="st0" d="M301.7,250.5c27.6,0,49.2,12.6,49,48.3c0,0.4,0,0.9,0,1.3l0,0v74H324v-74h0.2c0.7-20-10.7-28.7-29.6-28.7
		c-28.8,0-30.7,24.6-32.2,28.7v74H236V255.5h26.4v12.6C271.9,257.6,286.1,250.5,301.7,250.5L301.7,250.5z"/>
	<path class="st0" d="M774.2,250.2c27.6,0,49.2,12.6,49,48.3c0,0.4,0,0.9,0,1.3l0,0v74h-26.8v-74h0.2c0.7-20-10.7-28.7-29.6-28.7
		c-28.8,0-30.7,24.6-32.2,28.7v74h-26.4V255.2h26.4v12.6C744.4,257,758.6,250.2,774.2,250.2L774.2,250.2z"/>
	<path class="st0" d="M477.3,272.2h55.3c0-0.2,0-0.2,0-0.4h25.7c0,0.2,0,0.2,0,0.4c-2.2,67.9-43.8,102.5-96.7,102.6
		c-52.9,0-96.2-44.9-96.2-99.9c0-55.1,40.1-98.6,96-100c35.7-0.9,66.2,11.3,83,38.1l-18.3,15.5c-11.5-21.8-35.9-32.5-64.7-30.1
		c-43.5,3.3-70.8,33.8-70.8,75.5c0,41.4,31.8,75.3,71,75.3c32.5,0,58.3-15.5,67.5-53.4h-52v-23.5H477.3z"/>
	<path class="st0" d="M595.9,296.6h72.7c-4.6-19.6-16.8-28.5-34.6-28.5C616.2,268.1,601.2,280.1,595.9,296.6L595.9,296.6z
		 M693.2,314.9v0.6h-98.9c2.6,20.3,18.7,36.2,38.8,36.2c15.9,0,33.7-8.9,39.4-23.1l23.1,12c-8.3,21.8-37.9,34.4-64.5,34.4
		c-35.9,0-63.8-29.4-63.8-64.4c0-35.1,25.5-64.2,64.7-63.4c39.4,0.7,65.3,23.3,63.4,67.3v0.2L693.2,314.9L693.2,314.9z"/>
	<polygon class="st0" points="854.2,254.6 882.9,254.4 883.1,373.7 854.2,373.7 	"/>
	<path class="st0" d="M868.5,204.9c7.8,0,14.1,6.3,14.1,14.1c0,7.8-6.3,14.1-14.1,14.1s-14.1-6.3-14.1-14.1
		C854.4,211.2,860.7,204.9,868.5,204.9L868.5,204.9z"/>
	<path class="st0" d="M1025.8,318.4c2.2,38.8-20.3,55.5-56.6,55.5c-38.3,0-54-19.2-56.8-45.5l-0.6-9.2l0,0l0,0v-65.8h27.2V270
		l0.2,48.6V329c0,10.2,12.6,23.7,31.3,23.7c20.9,0,27.9-17.6,27.9-25.9v-13.9v-42.3v-18.9h27.2L1025.8,318.4L1025.8,318.4z"/>
	<path class="st0" d="M1089.8,246.8c17,0,31.6,9.1,37.7,21.8l-22.7,10.7c-1.8-5.9-7.8-10.4-14.2-10.7c-7.8-0.6-15,5.2-15,12.6
		c0,5.9,9.4,11.1,15.9,12.9c3.9,1.5,17.8,7,27,11.8c0,0-0.2,0-0.2,0.2c12,5.7,20.2,16.1,19.2,30.9c-3,22.4-21.6,37.2-47.5,37.2
		c-21.6,0-39.9-11.7-45.3-27.4l24.2-10l0,0c2,7.2,9.1,13.1,17.4,14.8c10.4,2.2,20.3-0.2,22.9-13.3c3.7-13.3-14.2-13.7-24.6-21.1
		c-8.7-2.6-20.9-10.5-20.9-10.5c-11.1-6.1-13.9-14.8-13.9-24.8C1049.7,262.4,1067.5,246.8,1089.8,246.8z"/>
	<path class="st0" d="M868.5,105c35.5,0,69.5,16.1,91.5,41.6l-6.5,6.1c-20.7-23.7-52.5-39-85.1-39c-33.8,0-66.6,15.3-86.7,39.9
		l-7-5.4C796.9,121.8,832.2,105,868.5,105L868.5,105z M868.5,165.8c17.6,0,33.1,9.4,41.4,23.7l-6.3,5.5l-0.4,0.2
		c-6.7-12.4-19.8-20.7-34.8-20.7c-15.3,0-28.7,8.7-35.1,21.6l-6.8-5.5C834.6,175.8,850.3,165.8,868.5,165.8L868.5,165.8z
		 M868.5,135.7c-27,0-52.2,13.3-67.3,34l6.5,5.2c13.5-18.5,36.4-30.5,60.8-30.5c23.9,0,45.7,12,59,30.3l6.8-5.9
		C919.1,148.6,894.7,135.7,868.5,135.7z"/>
	<path d="M1142.7,268.8v-17.6h7.4c1.5,0,2.6,0.2,3.3,0.6c0.7,0.4,1.3,0.9,1.8,1.7c0.6,0.7,0.7,1.7,0.7,2.6c0,1.3-0.4,2.4-1.1,3.1
		c-0.7,0.9-1.8,1.5-3.5,1.7c0.6,0.4,0.9,0.6,1.3,0.9c0.6,0.6,1.3,1.5,1.8,2.4l2.8,4.8h-2.8l-2.2-3.7c-0.6-1.1-1.1-1.8-1.7-2.4
		c-0.4-0.6-0.7-0.9-1.1-1.1c-0.4-0.2-0.6-0.4-0.9-0.6c-0.2,0-0.7,0-1.3,0h-2.6v7.8L1142.7,268.8L1142.7,268.8z M1144.9,259h4.6
		c0.9,0,1.8-0.2,2.4-0.4c0.6-0.2,0.9-0.6,1.3-1.1c0.4-0.6,0.4-0.9,0.4-1.7s-0.2-1.5-0.9-2c-0.6-0.6-1.5-0.7-2.8-0.7h-5.2L1144.9,259
		L1144.9,259z"/>
</g>
</svg>
