<?xml version="1.0" encoding="utf-8"?>
<!-- Generator: Adobe Illustrator 23.1.0, SVG Export Plug-In . SVG Version: 6.00 Build 0)  -->
<svg version="1.1" id="Layer_2" xmlns="http://www.w3.org/2000/svg" xmlns:xlink="http://www.w3.org/1999/xlink" x="0px" y="0px"
	 viewBox="0 0 1260 480" style="enable-background:new 0 0 1260 480;" xml:space="preserve">
<style type="text/css">
	.st0{fill:#B3D455;}
</style>
<g id="Layer_1">
	<path d="M995.4,234.8L995.4,234.8c0-3.5-0.2-6.9-0.5-9.9c-0.2-3.1-0.7-6.1-1.2-9.2s-0.9-5.9-1.7-8.8c-0.7-2.8-1.4-5.7-2.4-8.5
		s-1.9-5.4-2.8-8c-1.2-2.6-2.1-5.2-3.5-7.6c-1.2-2.4-2.6-4.7-4-7.1s-3.1-4.5-4.7-6.6v0.2c-0.2-0.5-0.5-0.7-0.9-1.2
		c-0.2-0.5-0.5-0.7-0.9-1.2c-0.2-0.5-0.7-0.7-0.9-1.2s-0.7-0.7-0.9-1.2c-0.2-0.5-0.7-0.7-0.9-1.2s-0.7-0.7-0.9-1.2s-0.7-0.7-0.9-1.2
		s-0.7-0.7-0.9-1.2c-2.1-2.4-4.5-4.5-6.9-6.4c-2.4-2.1-5-3.8-7.6-5.7c-2.6-1.7-5.2-3.3-8-4.7c-2.8-1.4-5.7-2.8-8.5-4
		c-3.1-1.2-5.9-2.1-9.2-3.1c-3.1-0.9-6.4-1.7-9.7-2.4c-3.3-0.7-6.9-1.2-10.2-1.4c-3.5-0.2-7.1-0.5-10.9-0.5h-0.5
		c-3.3,0-6.4,0.2-9.7,0.7c-3.1,0.2-6.1,0.7-9.2,1.4c-3.1,0.5-5.9,1.2-9,2.1c-2.8,0.7-5.7,1.7-8.5,2.8c-2.8,0.9-5.4,2.1-8,3.5
		c-2.6,1.2-5.2,2.6-7.8,4.3c-2.6,1.4-5,3.1-7.3,5c-2.4,1.7-4.7,3.5-6.9,5.7h-0.2c-0.2,0.2-0.2,0.2-0.5,0.5c-0.2,0.2-0.2,0.2-0.5,0.5
		s-0.2,0.2-0.5,0.5c-0.2,0.2-0.2,0.2-0.5,0.5c-0.2,0.2-0.2,0.5-0.5,0.5c-0.2,0.2-0.5,0.5-0.5,0.5c-0.2,0.2-0.2,0.5-0.5,0.5
		c-0.2,0.2-0.5,0.2-0.5,0.5h-0.2c-0.5,0.5-0.9,0.9-1.4,1.2c-0.5,0.5-0.9,0.9-1.2,1.4c-0.5,0.5-0.9,0.9-1.2,1.4
		c-0.5,0.5-0.7,0.9-1.2,1.4c-0.5,0.5-0.7,0.9-1.2,1.4c-0.5,0.5-0.7,0.9-1.2,1.4c-0.2,0.5-0.7,0.9-0.9,1.4c-0.2,0.5-0.7,0.9-0.9,1.4
		v0.2c-1.7,2.1-3.1,4.3-4.5,6.4s-2.6,4.5-3.8,6.6c-1.2,2.4-2.4,4.5-3.3,6.9c-0.9,2.4-1.9,4.7-2.8,7.3c-0.7,2.6-1.7,5-2.1,7.6
		c-0.7,2.6-1.2,5.2-1.7,8c-0.5,2.6-0.7,5.4-1.2,8.3c-0.2,2.8-0.5,5.7-0.5,8.5v0.2c0,2.8,0.2,5.7,0.5,8.5c0.2,2.8,0.5,5.4,0.9,8
		c0.5,2.6,0.9,5.2,1.4,7.8c0.5,2.6,1.2,5,1.9,7.6c0.7,2.4,1.4,5,2.4,7.3c0.9,2.4,1.9,4.7,2.8,6.9c0.9,2.4,2.1,4.5,3.3,6.6
		c1.2,2.1,2.4,4.3,3.8,6.4c0.5,0.7,0.9,1.2,1.2,1.9c0.5,0.7,0.9,1.2,1.4,1.9c0.5,0.7,0.9,1.2,1.4,1.9c0.5,0.7,0.9,1.2,1.4,1.9
		c0.5,0.7,0.9,1.2,1.4,1.9c0.5,0.7,0.9,1.2,1.4,1.9c0.5,0.7,0.9,1.2,1.7,1.7c0.5,0.5,1.2,1.2,1.7,1.7v0.2l0.2,0.2l0.2,0.2l0.2,0.2
		l0.2,0.2l0.2,0.2l0.2,0.2l0.2,0.2l0.2,0.2c2.4,2.1,4.5,4.3,7.1,6.1c2.4,1.9,5,3.8,7.6,5.4c2.6,1.7,5.2,3.1,7.8,4.5
		c2.8,1.4,5.4,2.6,8.3,3.8s5.9,2.1,8.8,3.1c3.1,0.9,6.1,1.7,9.5,2.1c3.1,0.7,6.4,0.9,9.9,1.4c3.3,0.2,6.9,0.5,10.4,0.5h1.9
		c0.2,0,0.7,0,0.9,0s0.5,0,0.9,0c0.2,0,0.5,0,0.7,0c0.2,0,0.5,0,0.7,0h0.7c0.2,0,0.5,0,0.7,0h1.2c3.1,0,6.1,0,9.2-0.2
		c3.1-0.2,6.1-0.5,9.2-1.2c3.1-0.5,5.9-1.2,9-1.9s5.9-1.7,8.8-2.6s5.7-2.1,8.8-3.3c2.8-1.2,5.7-2.6,8.5-4.3c2.8-1.4,5.7-3.1,8.3-5
		c2.8-1.7,5.4-3.5,8-5.7c0,0,0,0,0.2-0.2c0,0,0,0,0.2-0.2c0,0,0-0.2,0.2-0.2c0,0,0,0,0.2-0.2c0,0,0-0.2,0.2-0.2c0,0,0-0.2,0.2-0.2
		v-0.2V309v-0.2v-0.2v-0.2v-0.2v-0.2v-0.2v-0.2v-0.2v-0.2v-0.2v-0.2v-0.2v-0.2c0,0,0-0.2-0.2-0.2c0,0,0-0.2-0.2-0.2
		c0,0,0-0.2-0.2-0.2l-0.2-0.2l-0.2-0.2l-0.2-0.2l-0.2-0.2l-0.2-0.2l-0.2-0.2l-0.2-0.2l-0.2-0.2c-0.5-0.5-0.9-1.2-1.4-1.7
		c-0.5-0.5-0.9-1.2-1.4-1.7c-0.5-0.5-0.9-1.2-1.4-1.7c-0.5-0.5-0.9-1.2-1.4-1.7c-0.5-0.5-0.9-1.2-1.4-1.7c-0.5-0.5-0.9-1.2-1.2-1.7
		c-0.5-0.5-0.7-1.2-1.2-1.7s-0.7-1.2-0.9-1.7c0,0,0,0-0.2-0.2c0,0,0,0-0.2-0.2c0,0,0,0-0.2-0.2c0,0-0.2,0-0.2-0.2c0,0,0,0-0.2-0.2
		c0,0,0,0-0.2-0.2c0,0,0,0-0.2,0h-0.2c0,0-0.2,0-0.2-0.2h-0.2H959h-0.2h-0.2h-0.2h-0.2h-0.2h-0.2h-0.2h-0.2h-0.2h-0.2h-0.2h-0.2
		h-0.2c-1.9,1.4-4,2.8-5.9,4.3c-2.1,1.2-4,2.6-6.1,3.5c-2.1,1.2-4.3,2.1-6.4,3.1c-2.1,0.9-4.3,1.7-6.4,2.6c-2.1,0.7-4.3,1.4-6.6,1.9
		c-2.1,0.5-4.5,0.9-6.6,1.4c-2.4,0.2-4.5,0.7-6.9,0.7c-2.4,0.2-4.7,0.2-7.1,0.2h-0.2c-0.2,0-0.5,0-0.7,0c-0.2,0-0.5,0-0.7,0h-0.7
		c-0.2,0-0.5,0-0.7,0c-0.2,0-0.5,0-0.7,0c-0.2,0-0.5,0-0.5,0c-0.2,0-0.5,0-0.5,0c-0.2,0-0.2,0-0.5,0s-0.5,0-0.5,0
		c-0.2,0-0.2,0-0.5,0c-0.2,0-0.2,0-0.5,0s-0.2,0-0.5,0h-0.2h-0.2h-0.2h-0.2c-4.7-0.5-9.5-1.2-13.7-2.1c-4.3-0.9-8.3-2.1-12.3-3.8
		c-3.8-1.4-7.3-3.3-10.6-5.4s-6.4-4.5-9-7.1c-2.8-2.6-5.2-5.7-7.6-8.8c-2.4-3.3-4.3-6.6-5.9-10.6c-1.7-3.8-3.3-7.8-4.5-12.3
		c-1.2-4.3-2.1-9-2.8-14v-0.2v-0.2c0-0.2,0-0.2,0-0.2c0-0.2,0-0.2,0-0.2s0-0.2,0-0.5c0,0,0-0.2,0-0.5c0-0.2,0-0.2,0-0.5
		c0,0,0-0.2,0-0.5s0-0.2,0-0.5h162.2c0,0,0.2,0,0.5,0c0.2,0,0.2,0,0.5,0s0.2,0,0.5,0s0.2,0,0.2,0s0.2,0,0.2-0.2c0,0,0.2,0,0.2-0.2
		c0,0,0.2,0,0.2-0.2l0.2-0.2l0.2-0.2l0.2-0.2l0.2-0.2l0.2-0.2l0.2-0.2c0,0,0-0.2,0.2-0.2v-0.2l0,0l0,0l0,0l0,0l0,0v-0.2v-0.2v-0.2
		v-0.2V235v-0.2v-0.2C995.7,235.2,995.7,235.2,995.4,234.8C995.7,235,995.4,235,995.4,234.8z M830.8,211.4
		c7.3-29.3,33.8-51.3,65.3-51.3c31.7,0,58.2,21.8,65.3,51.3H830.8z"/>
	<path d="M1036.1,414c3.5,0,5.7-2.6,5.7-5.9c0-3.5-2.4-5.9-5.7-5.9c-3.3,0-5.7,2.6-5.7,5.9C1030.4,411.7,1032.8,414,1036.1,414
		L1036.1,414z M1003.2,391.1c0.5-3.8,2.8-9,8.5-9c6.1,0,7.8,5.7,7.6,9H1003.2z M1027.8,397.5c0.2-0.9,0.2-2.1,0.2-4
		c0-8-3.8-18-15.8-18c-11.8,0-18,9.7-18,19.9c0,11.4,7.1,18.7,18.9,18.7c5.2,0,9.7-0.9,12.8-2.4l-1.4-6.4c-2.8,0.9-5.9,1.7-10.2,1.7
		c-5.9,0-11.1-2.8-11.4-9.5L1027.8,397.5L1027.8,397.5z M964.4,411.4c2.8,1.4,6.9,2.6,11.1,2.6c9.7,0,14.9-5,14.9-11.6
		c0-5.4-3.1-8.8-9.9-11.4c-4.7-1.7-6.4-2.8-6.4-5.2s1.9-3.8,5.2-3.8s6.1,1.2,7.8,2.1l1.9-6.6c-2.1-1.2-5.7-2.1-9.7-2.1
		c-8.5,0-14,5-14,11.6c0,4.3,2.8,8.3,10.2,10.6c4.5,1.7,6.1,2.8,6.1,5.4c0,2.4-1.9,4-5.9,4c-3.3,0-7.3-1.4-9.5-2.6L964.4,411.4z
		 M955,361c-3.1,0-5.2,2.1-5.2,5c0,2.8,2.1,5,5.2,5c3.3,0,5.2-2.1,5.2-5C960,363.2,958.1,361,955,361 M959.5,376.4H950v36.9h9.5
		V376.4z M890.4,413.3h9v-21.8c0-0.9,0.2-2.1,0.5-3.1c0.9-2.6,3.1-5.2,6.6-5.2c4.3,0,6.4,3.5,6.4,8.8v21.3h9v-22
		c0-0.9,0.2-2.1,0.5-3.1c0.9-2.6,3.3-5,6.6-5c4.5,0,6.6,3.5,6.6,9.7v20.3h9v-21.8c0-11.8-6.1-16.1-12.3-16.1c-3.1,0-5.4,0.7-7.3,2.1
		c-1.7,0.9-3.3,2.6-4.5,4.7h-0.2c-1.7-4-5.4-6.9-10.2-6.9c-6.1,0-9.5,3.3-11.4,6.4h-0.2l-0.5-5.4h-8c0.2,3.1,0.2,6.6,0.2,10.9v26
		H890.4z M867.7,382.3c6.4,0,9,6.6,9,12.3c0,7.3-3.8,12.5-9,12.5c-5.7,0-9.2-5.4-9.2-12.5C858.5,388.7,861.1,382.3,867.7,382.3
		 M868,375.7c-11.1,0-19.2,7.3-19.2,19.6c0,11.8,8,18.9,18.4,18.9c9.5,0,18.9-6.1,18.9-19.6C886.4,383.3,879.1,375.7,868,375.7
		 M826.3,413.3h9.2v-19.2c0-0.9,0.2-2.1,0.2-2.8c0.9-4.3,3.8-7.1,8.3-7.1c1.2,0,1.9,0.2,2.8,0.2v-8.8c-0.7-0.2-1.2-0.2-2.1-0.2
		c-4,0-8.3,2.6-10.2,7.8h-0.2l-0.2-7.1h-8c0.2,3.3,0.2,6.9,0.2,11.8V413.3z M794.9,392.3c0-0.7,0.2-1.7,0.5-2.4
		c0.9-4,4.5-6.9,8.3-6.9c5.9,0,9.2,5.2,9.2,11.8c0,7.3-3.5,12.3-9.5,12.3c-4,0-7.3-2.8-8.3-6.6c-0.2-0.9-0.2-1.7-0.2-2.6V392.3z
		 M785.7,428.2h9.2v-18.9h0.2c1.9,2.8,5.7,5,10.4,5c8.5,0,16.8-6.4,16.8-19.9c0-11.6-7.1-18.7-15.6-18.7c-5.7,0-9.9,2.4-12.5,6.6
		h-0.2l-0.5-5.7h-8.3c0.2,3.5,0.2,7.3,0.2,12.3v39.3H785.7z M725.8,413.3h9v-21.8c0-0.9,0.2-2.1,0.5-3.1c0.9-2.6,3.1-5.2,6.6-5.2
		c4.3,0,6.4,3.5,6.4,8.8v21.3h9v-22c0-0.9,0.2-2.1,0.5-3.1c0.9-2.6,3.3-5,6.6-5c4.5,0,6.6,3.5,6.6,9.7v20.3h9v-21.8
		c0-11.8-6.1-16.1-12.3-16.1c-3.1,0-5.4,0.7-7.3,2.1c-1.7,0.9-3.3,2.6-4.5,4.7h-0.2c-1.7-4-5.4-6.9-10.2-6.9
		c-6.1,0-9.5,3.3-11.4,6.4h-0.2l-0.5-5.4h-8c0.2,3.1,0.2,6.6,0.2,10.9v26H725.8z M701.9,382.3c6.4,0,9,6.6,9,12.3
		c0,7.3-3.8,12.5-9,12.5c-5.7,0-9.2-5.4-9.2-12.5C692.7,388.7,695.3,382.3,701.9,382.3 M702.2,375.7c-11.1,0-19.2,7.3-19.2,19.6
		c0,11.8,8,18.9,18.4,18.9c9.5,0,18.9-6.1,18.9-19.6C720.6,383.3,713.3,375.7,702.2,375.7 M680,405.3c-1.9,0.7-4,1.4-7.3,1.4
		c-6.4,0-11.4-4.3-11.4-11.8c0-6.9,4.3-12.1,11.4-12.1c3.3,0,5.4,0.7,7.1,1.4l1.7-6.9c-2.1-0.9-5.7-1.7-9-1.7
		c-13,0-20.6,8.5-20.6,19.6c0,11.4,7.6,18.9,18.9,18.9c4.7,0,8.5-0.9,10.4-1.9L680,405.3z M606.2,369.6v6.9H601v6.9h5.2v17.3
		c0,4.7,0.9,8.3,2.8,10.4c1.7,1.9,4.7,3.1,8,3.1c2.8,0,5.4-0.5,6.9-0.9l-0.2-7.1c-0.9,0.2-1.9,0.5-3.5,0.5c-3.5,0-4.7-2.4-4.7-6.9
		v-16.3h8.8v-6.9h-8.8V367L606.2,369.6z M596.2,376.4H587v22.2c0,0.9-0.2,2.1-0.5,2.8c-0.9,2.4-3.3,5-7.1,5c-5,0-6.9-4-6.9-10.2
		v-20.1h-9.2v21.8c0,12.1,6.1,16.1,12.8,16.1c6.6,0,10.2-3.8,11.8-6.4h0.2l0.5,5.7h8.3c-0.2-3.1-0.2-6.6-0.2-11.1v-25.8H596.2z
		 M540.7,382.3c6.4,0,9,6.6,9,12.3c0,7.3-3.8,12.5-9,12.5c-5.7,0-9.2-5.4-9.2-12.5C531.4,388.7,534,382.3,540.7,382.3 M540.9,375.7
		c-11.1,0-19.2,7.3-19.2,19.6c0,11.8,8,18.9,18.4,18.9c9.5,0,18.9-6.1,18.9-19.6C559.3,383.3,552,375.7,540.9,375.7 M484.9,413.3
		h9.5v-22c0-0.9,0-2.1,0.5-2.8c0.9-2.8,3.5-5.2,7.1-5.2c5.2,0,7.1,4,7.1,9.5v20.6h9.2v-21.8c0-11.8-6.6-16.1-12.8-16.1
		c-2.4,0-4.5,0.7-6.4,1.7c-1.9,0.9-3.5,2.6-4.7,4.3h-0.2v-21.8h-9.5v53.7H484.9z M461.9,369.6v6.9h-5.2v6.9h5.2v17.3
		c0,4.7,0.9,8.3,2.8,10.4c1.7,1.9,4.7,3.1,8,3.1c2.8,0,5.4-0.5,6.6-0.9l-0.2-7.1c-0.9,0.2-1.9,0.5-3.5,0.5c-3.5,0-4.7-2.4-4.7-6.9
		v-16.3h8.8v-6.9h-8.8V367L461.9,369.6z M447.5,361c-3.1,0-5.2,2.1-5.2,5c0,2.8,2.1,5,5.2,5c3.3,0,5.2-2.1,5.2-5
		C452.7,363.2,450.8,361,447.5,361 M452.2,376.4h-9.5v36.9h9.5V376.4z M384.3,376.4l10.9,36.9h8.8l4.7-14.9
		c0.9-3.5,2.1-7.3,2.8-11.8h0.2c0.9,4.5,1.7,8,2.8,11.8l4.5,14.9h8.8l11.6-36.9h-9.2l-4,16.3c-0.9,4.3-1.9,8.3-2.4,12.3h-0.2
		c-0.9-4-1.9-8-2.8-12.3l-4.7-16.3h-7.6l-4.7,16.8c-0.9,3.8-2.4,7.8-3.1,11.8h-0.2c-0.7-4-1.4-8-2.4-12.1l-3.8-16.8h-9.9V376.4z"/>
	<path d="M789.9,161.2c0.2-0.5,0.5-0.7,0.5-1.2c0.2-0.2,0.2-0.7,0.2-0.9c0-0.2,0-0.7-0.2-0.9c0-0.2-0.2-0.7-0.5-0.9
		c-0.2-0.2-0.5-0.5-0.9-0.9c-0.5-0.2-3.8-2.8-6.6-4.7c-2.8-1.9-5.7-3.5-8.5-5.2s-5.7-3.1-8.8-4.5c-2.8-1.4-5.9-2.6-8.8-3.5
		c-3.1-0.9-5.9-1.9-9-2.8c-3.1-0.7-6.1-1.4-9.2-1.9s-6.1-0.9-9.5-0.9c-3.1-0.2-6.4-0.2-9.7-0.2c-3.8,0-7.6,0.2-11.1,0.7
		c-3.5,0.5-7.1,0.9-10.6,1.4c-3.5,0.7-6.9,1.4-10.2,2.4c-3.3,0.9-6.6,2.1-9.7,3.3c-3.1,1.2-6.1,2.6-9.2,4s-5.9,3.1-8.8,5
		c-2.8,1.9-5.4,3.8-8,5.9c-2.6,2.1-5.2,4.3-7.6,6.6l0,0l0,0l0,0l0,0l0,0l0,0l0,0l0,0c-2.6,2.4-4.7,4.7-7.1,7.3
		c-2.1,2.6-4.3,5.2-6.1,7.8c-1.9,2.6-3.5,5.4-5.2,8.3c-1.7,2.8-3.1,5.9-4.3,9c-1.4,3.1-2.4,6.1-3.5,9.5c-0.9,3.3-1.9,6.6-2.6,9.9
		c-0.7,3.3-1.2,6.9-1.7,10.4c-0.5,3.5-0.7,7.1-0.7,10.9l0,0l0,0l0,0l0,0l0,0l0,0l0,0l0,0c0,3.5,0.2,7.1,0.7,10.4
		c0.5,3.3,0.9,6.9,1.7,9.9c0.7,3.3,1.7,6.4,2.6,9.5c0.9,3.1,2.1,6.1,3.5,9.2c1.4,3.1,2.8,5.9,4.3,8.8c1.7,2.8,3.3,5.7,5.2,8.3
		s4,5.2,6.1,7.8c2.1,2.6,4.5,5,7.1,7.3c2.4,2.1,4.5,4,7.1,5.9c2.4,1.9,5,3.5,7.3,5.2c2.6,1.7,5.2,3.1,7.8,4.5s5.4,2.6,8.3,3.8
		c2.8,1.2,5.7,2.4,8.8,3.3c3.1,0.9,5.9,1.9,9.2,2.6c3.1,0.7,6.4,1.4,9.5,1.9c3.3,0.5,6.6,0.9,9.9,1.2h0.9c0.2,0,0.7,0,0.9,0
		c0.2,0,0.7,0,0.9,0c0.2,0,0.7,0,0.9,0c0.2,0,0.7,0,0.9,0c0.2,0,0.7,0,0.9,0c0.2,0,0.7,0,0.9,0c0.2,0,0.5,0,0.9,0
		c3.1,0,6.1,0,9.2-0.2s6.1-0.5,9.2-0.9c3.1-0.5,5.9-1.2,9-1.9c3.1-0.7,5.9-1.7,8.8-2.6c2.8-0.9,5.7-2.1,8.5-3.3
		c2.8-1.2,5.7-2.6,8.5-4.3c2.8-1.4,11.4-6.6,14-8.8c0,0,3.8-1.9,1.2-5.9c0,0-0.2-0.2-0.2-0.5c0,0-5.7-8.8-6.1-9.5
		c-0.5-0.5-3.5-5.2-4-5.9c-0.5-0.7-2.4-4.3-5.7-1.9l-0.7,0.5c-2.1,1.4-3.5,2.4-5.7,3.8c-2.1,1.2-4,2.6-6.1,3.5
		c-2.1,1.2-4.3,2.1-6.4,3.1c-2.1,0.9-4.3,1.7-6.4,2.6c-2.1,0.7-4.3,1.4-6.6,1.9c-2.1,0.5-4.5,0.9-6.9,1.4s-4.5,0.7-6.9,0.7
		c-2.4,0.2-4.7,0.2-7.1,0.2c-0.2,0-0.5,0-0.9,0c-0.2,0-0.5,0-0.9,0c-0.2,0-0.5,0-0.9,0c-0.2,0-0.5,0-0.9,0c-0.2,0-0.5,0-0.9,0
		c-0.2,0-0.5,0-0.9,0c-0.2,0-0.5,0-0.9,0c-0.2,0-0.5,0-0.9,0c-2.4-0.2-4.7-0.5-6.9-0.9c-2.1-0.5-4.5-0.7-6.6-1.4
		c-2.1-0.5-4.3-1.2-6.4-1.9s-4-1.4-5.9-2.4s-3.8-1.9-5.7-2.8c-1.9-0.9-3.8-2.1-5.4-3.3c-1.7-1.2-3.5-2.6-5.2-4
		c-1.7-1.4-3.3-2.8-5-4.5c-1.7-1.7-3.3-3.5-5-5.2c-1.7-1.9-3.1-3.8-4.3-5.7c-1.4-1.9-2.6-4-3.8-5.9c-1.2-2.1-2.1-4.3-3.1-6.4
		c-0.9-2.1-1.7-4.3-2.4-6.6c-0.7-2.4-1.4-4.5-1.9-6.9c-0.5-2.4-0.9-4.7-1.2-7.3c-0.2-2.6-0.5-5-0.5-7.6l0,0l0,0l0,0l0,0l0,0l0,0l0,0
		l0,0c0-2.6,0.2-5.2,0.5-7.6c0.2-2.6,0.7-5,1.2-7.3c0.5-2.4,1.2-4.7,1.7-7.1c0.7-2.4,1.4-4.5,2.4-6.6s1.9-4.3,3.1-6.4
		c1.2-2.1,2.4-4,3.5-6.1c1.4-1.9,2.8-3.8,4.3-5.7c1.7-1.9,3.1-3.5,5-5.4l0,0l0,0l0,0l0,0l0,0l0,0l0,0l0,0c1.7-1.7,3.5-3.3,5.4-4.7
		c1.9-1.4,3.8-2.8,5.7-4.3c1.9-1.4,4-2.6,6.1-3.5c2.1-1.2,4.3-2.1,6.6-3.1c2.1-0.9,4.5-1.7,6.9-2.4c2.4-0.7,4.7-1.2,7.3-1.7
		c2.6-0.5,5-0.9,7.6-1.2s5.2-0.5,8-0.5l0,0l0,0l0,0l0,0l0,0l0,0l0,0l0,0c2.4,0,4.7,0,7.1,0.2c2.4,0.2,4.7,0.5,7.1,0.7
		c2.4,0.5,4.7,0.9,7.1,1.4c2.4,0.7,4.5,1.4,6.9,2.1c2.4,0.7,4.5,1.7,6.9,2.8c2.4,0.9,4.5,2.1,6.6,3.5c2.1,1.2,4.5,2.6,6.6,4
		c1.9,1.4,4,2.8,5.9,4.3c0.2,0.2,3.5,2.6,6.4-1.4C780,177.3,789.7,161.5,789.9,161.2"/>
	<path d="M1021,121.2L1021,121.2L1021,121.2L1021,121.2L1021,121.2L1021,121.2L1021,121.2L1021,121.2L1021,121.2L1021,121.2
		L1021,121.2L1021,121.2L1021,121.2v4.5v4.5v4.5v4.5v4.5v4.5v4.5v4.5v4.5v4.5v4.5v4.5v4.5v4.5v4.5v4.5v4.5v4.5v4.5v4.5v4.5v4.5v4.5
		v4.5v4.5v4.5v4.5v4.5v4.5v4.5v4.5v4.5l0,0l0,0l0,0l0,0l0,0l0,0l0,0l0,0l0,0l0,0l0,0l0,0l0,0l0,0l0,0l0,0l0,0l0,0l0,0l0,0l0,0l0,0
		l0,0l0,0l0,0l0,0l0,0l0,0l0,0l0,0l0,0l0,0c0,0.7,0,1.4,0,2.1s0,1.4,0.2,1.9c0,0.7,0,1.4,0.2,1.9c0,0.7,0.2,1.4,0.2,1.9
		c0,0.7,0.2,1.2,0.2,1.9s0.2,1.2,0.2,1.9s0.2,1.2,0.2,1.9c0.2,0.7,0.2,1.2,0.5,1.9c0.2,0.7,0.2,1.2,0.5,1.9s0.2,1.2,0.5,1.9
		s0.2,1.2,0.5,1.7c0.2,0.7,0.2,1.2,0.5,1.7c0.2,0.5,0.2,1.2,0.5,1.7c0.2,0.5,0.5,1.2,0.5,1.7c0.2,0.5,0.5,1.2,0.7,1.7
		c0.2,0.5,0.5,1.2,0.7,1.7c0.2,0.5,0.5,1.2,0.7,1.7c0.2,0.5,0.5,1.2,0.7,1.7s0.5,1.2,0.7,1.7c0.2,0.5,0.5,0.9,0.7,1.7
		c0.2,0.5,0.5,0.9,0.9,1.7c0.2,0.5,0.5,0.9,0.9,1.4c0.2,0.5,0.7,0.9,0.9,1.4c0.2,0.5,0.7,0.9,0.9,1.4c0.2,0.5,0.7,0.9,0.9,1.4
		c0.2,0.5,0.7,0.9,0.9,1.4c0.2,0.5,0.7,0.9,1.2,1.4c0.2,0.5,0.7,0.9,1.2,1.4s0.7,0.9,1.2,1.4c0.5,0.5,0.7,0.9,1.2,1.4
		c0.5,0.5,0.7,0.9,1.2,1.4s0.9,0.9,1.2,1.2l0,0l0,0l0,0l0,0l0,0l0,0l0,0l0,0l0,0l0,0l0,0l0,0l0,0l0,0l0,0l0,0l0,0l0,0l0,0l0,0l0,0
		c0.2,0.2,0.2,0.2,0.5,0.5c0.2,0.2,0.2,0.2,0.5,0.5c0.2,0.2,0.2,0.2,0.5,0.5c0.2,0.2,0.2,0.2,0.5,0.5c0.2,0.2,0.2,0.2,0.5,0.5
		c0.2,0.2,0.2,0.2,0.5,0.5c0.2,0.2,0.2,0.2,0.5,0.5c0.2,0,0.2,0.2,0.5,0.5c0.2,0.2,0.2,0.2,0.5,0.5c0.2,0.2,0.2,0.2,0.5,0.5
		c0.2,0.2,0.2,0.2,0.5,0.5c0.2,0.2,0.2,0.2,0.5,0.5c0.2,0,0.2,0.2,0.5,0.5c0.2,0,0.2,0.2,0.5,0.5c0.2,0,0.2,0.2,0.5,0.2
		c0.2,0.2,0.2,0.2,0.5,0.5c0.2,0,0.2,0.2,0.5,0.2c0.2,0.2,0.2,0.2,0.5,0.5c0.2,0,0.2,0.2,0.5,0.2s0.2,0.2,0.5,0.2
		c0.2,0.2,0.2,0.2,0.5,0.2c0.2,0,0.2,0.2,0.5,0.2c0.2,0,0.2,0.2,0.5,0.2c0.2,0,0.2,0.2,0.5,0.2c0.2,0,0.2,0.2,0.5,0.2
		c0.2,0,0.2,0.2,0.5,0.2c0.2,0,0.2,0.2,0.5,0.2s0.2,0.2,0.5,0.2c0.2,0,0.2,0.2,0.5,0.2c0.2,0,0.2,0.2,0.5,0.2c0.2,0,0.2,0.2,0.5,0.2
		c0.2,0.2,0.2,0.2,0.5,0.2l0,0l0,0l0,0l0,0l0,0l0,0l0,0l0,0l0,0l0,0l0,0l0,0l0,0l0,0l0,0l0,0l0,0l0,0l0,0l0,0l0,0l0,0l0,0l0,0l0,0
		l0,0l0,0l0,0l0,0l0,0l0,0l0,0l0,0l0,0l0,0l0,0l0,0l0,0l0,0l0,0l0,0l0,0l0,0l0,0l0,0l0,0l0,0l0,0l0,0l0,0l0,0l0,0l0,0l0,0l0,0l0,0
		l0,0l0,0l0,0l0,0l0,0l0,0l0,0l0,0l0,0l0,0l0,0l0,0l0,0l0,0l0,0l0,0l0,0l0,0l0,0l0,0l0,0l0,0l0,0l0,0l0,0l0,0l0,0l0,0l0,0l0,0l0,0
		l0,0l0,0l0,0l0,0l0,0l0,0l0,0l0,0l0,0l0,0l0,0l0,0l0,0l0,0l0,0l0,0l0,0l0,0l0,0l0,0l0,0l0,0l0,0l0,0l0,0l0,0l0,0l0,0l0,0l0,0l0,0
		l0,0l0,0l0,0l0,0l0,0l0,0l0,0l0,0l0,0l0,0l0,0l0,0l0,0l0,0l0,0l0,0l0,0l0,0l0,0l0,0l0,0l0,0l0,0l0,0l0,0l0,0l0,0l0,0l0,0l0,0l0,0
		l0,0l0,0l0,0l0,0l0,0l0,0l0,0l0,0l0,0l0,0l0,0l0,0l0,0l0,0l0,0l0,0l0,0l0,0l0,0l0,0l0,0l0,0l0,0l0,0l0,0l0,0l0,0l0,0l0,0l0,0l0,0
		l0,0l0.5-0.7l0.5-0.7l0.5-0.7l0.5-0.7l0.5-0.7l0.5-0.7l0.5-0.7l0.5-0.7l0.5-0.7l0.5-0.7l0.5-0.7l0.5-0.7l0.5-0.7l0.5-0.7l0.5-0.7
		l0.5-0.7l0.5-0.7l0.5-0.7l0.5-0.7l0.5-0.7l0.5-0.7l0.5-0.7l0.5-0.7l0.5-0.7l0.5-0.7l0.5-0.7l0.5-0.7l0.5-0.7l0.5-0.7l0.5-0.7
		l0.5-0.7l0.5-0.7l0,0l0,0l0,0l0,0l0,0l0,0l0,0l0,0l0,0l0,0l0,0l0,0l0,0l0,0l0,0l0,0l0,0l0,0l0,0l0,0l0,0l0,0l0,0l0,0l0,0l0,0l0,0
		l0,0l0,0l0,0l0,0l0,0l0,0l0,0l0,0l0,0l0,0l0,0l0,0l0,0l0,0l0,0l0,0l0,0l0,0l0,0l0,0l0,0l0,0l0,0l0,0l0,0l0,0l0,0l0,0l0,0l0,0l0,0
		l0,0l0,0l0,0l0,0l0,0l0,0l0,0l0,0l0,0l0,0l0,0l0,0l0,0l0,0l0,0l0,0l0,0l0,0l0,0l0,0l0,0l0,0l0,0l0,0l0,0l0,0l0,0l0,0l0,0l0,0l0,0
		l0,0l0,0l0,0l0,0l0,0l0,0l0,0l0,0l0,0l0,0l0,0l0,0l0,0l0,0l0,0l0,0l0,0l0,0l0,0l0,0l0,0l0,0l0,0l0,0l0,0l0,0l0,0l0,0l0,0l0,0l0,0
		l0,0l0,0l0,0l0,0l0,0l0,0l0,0l0,0l0,0l0,0l0,0l0,0l0,0l0,0l0,0l0,0l0,0l0,0l0,0l0,0l0,0l0,0l0,0l0,0l0,0l0,0l0,0l0,0l0,0l0,0l0,0
		l0,0l0,0l0,0l0,0l0,0l0,0l0,0l0,0l0,0l0,0l0,0l0,0l0,0l0,0l0,0l0,0l0,0l0,0l0,0l0,0l0,0l0,0l0,0l0,0l0,0l0,0l0,0l0,0l0,0l0,0l0,0
		l0,0l0,0l0,0l0,0l0,0l0,0l0,0l0,0l0,0l0,0l0,0l0,0l0,0l0,0l0,0l0,0c-0.5-0.2-0.9-0.7-1.4-0.9c-0.5-0.2-0.9-0.7-1.4-0.9
		c-0.5-0.5-0.9-0.7-1.2-1.2c-0.5-0.2-0.9-0.7-1.2-0.9c-0.5-0.2-0.7-0.7-1.2-1.2c-0.5-0.5-0.7-0.7-1.2-1.2c-0.5-0.5-0.7-0.7-1.2-1.2
		s-0.7-0.7-1.2-1.2c-0.5-0.5-0.7-0.7-0.9-1.2c-0.2-0.5-0.7-0.7-0.9-1.2c-0.2-0.5-0.7-0.7-0.9-1.2c-0.2-0.5-0.7-0.7-0.9-1.2
		c-0.2-0.5-0.7-0.7-0.9-1.2c-0.2-0.5-0.5-0.7-0.9-1.2c-0.2-0.5-0.5-0.7-0.7-1.2c-0.2-0.5-0.5-0.7-0.7-1.2c-0.2-0.5-0.5-0.7-0.7-1.2
		c-0.2-0.5-0.5-0.7-0.7-1.2c-0.2-0.5-0.5-0.7-0.7-1.2c-0.2-0.5-0.5-0.7-0.7-1.2s-0.5-0.7-0.5-1.2c-0.2-0.5-0.2-0.7-0.5-1.2
		c-0.2-0.5-0.2-0.9-0.5-1.2c-0.2-0.5-0.2-0.9-0.5-1.2c-0.2-0.5-0.2-0.9-0.5-1.2c-0.2-0.5-0.2-0.9-0.5-1.2c0-0.5-0.2-0.9-0.2-1.2
		c0-0.5-0.2-0.9-0.2-1.2c0-0.5-0.2-0.9-0.2-1.4c0-0.5-0.2-0.9-0.2-1.2c0-0.5,0-0.9-0.2-1.4c0-0.5,0-0.9,0-1.4v-2.8v-2.8v-2.8v-2.8
		v-2.8v-2.8v-3.1v-2.8v-2.8V240v-2.8v-2.8v-2.8v-2.8v-2.8v-2.8v-2.8v-2.8v-2.8v-2.8v-2.8v-2.8v-2.8v-2.8v-2.8v-2.8v-2.8v-2.8V186
		v-2.8v-2.8v-2.8v-1.9v-1.9v-1.9V170v-1.9v-1.9v-1.9v-1.9v-1.9v-1.7V157v-1.9v-1.9v-1.9v-1.9v-1.9v-1.7V144v-1.9v-1.7v-1.9v-1.9
		v-1.9v-1.9v-1.9v-1.9v-1.7v-1.9v-1.9v-1.9v-1.7v-1.9l0,0l0,0l0,0l0,0l0,0l0,0l0,0l0,0l0,0l0,0l0,0l0,0l0,0l0,0l0,0l0,0l0,0l0,0l0,0
		l0,0l0,0l0,0l0,0l0,0l0,0l0,0l0,0l0,0l0,0l0,0l0,0l0,0c0-0.7,0-1.4,0-2.1s0-1.4-0.2-2.1c0-0.7,0-1.4-0.2-1.9c0-0.7-0.2-1.4-0.2-1.9
		c0-0.7-0.2-1.4-0.2-1.9c0-0.7-0.2-1.2-0.2-1.9s-0.2-1.2-0.2-1.9c0-0.7-0.2-1.2-0.5-1.9c-0.2-0.7-0.2-1.2-0.5-1.9
		c-0.2-0.7-0.2-1.2-0.5-1.9c-0.2-0.7-0.2-1.2-0.5-1.9s-0.2-1.2-0.5-1.9c-0.2-0.5-0.5-1.2-0.5-1.7c-0.2-0.5-0.5-1.2-0.7-1.7
		c-0.2-0.5-0.5-1.2-0.7-1.7c-0.2-0.5-0.5-1.2-0.7-1.7s-0.5-1.2-0.7-1.7c-0.2-0.5-0.5-1.2-0.7-1.7c-0.2-0.5-0.5-1.2-0.7-1.7
		c-0.2-0.5-0.5-1.2-0.7-1.7s-0.5-0.9-0.9-1.7c-0.2-0.5-0.7-0.9-0.9-1.7c-0.2-0.5-0.7-0.9-0.9-1.4c-0.2-0.5-0.7-0.9-0.9-1.4
		c-0.2-0.5-0.7-0.9-0.9-1.4c-0.2-0.5-0.7-0.9-0.9-1.4c-0.5-0.5-0.7-0.9-1.2-1.4s-0.7-0.9-1.2-1.4c-0.5-0.5-0.7-0.9-1.2-1.4
		s-0.7-0.9-1.2-1.4s-0.9-0.9-1.2-1.4c-0.5-0.5-0.9-0.9-1.2-1.2l0,0l0,0l0,0l0,0l0,0l0,0l0,0l0,0l0,0l0,0l0,0l0,0l0,0l0,0l0,0l0,0
		l0,0l0,0l0,0c-0.2,0-0.2-0.2-0.5-0.2c-0.2-0.2-0.2-0.2-0.5-0.5c-0.2,0-0.2-0.2-0.5-0.2c-0.2,0-0.2-0.2-0.5-0.2
		c-0.2,0-0.2-0.2-0.5-0.2c-0.2-0.2-0.2-0.2-0.5-0.2c0,0-0.2-0.2-0.5-0.2c-0.2,0-0.2-0.2-0.5-0.2s-0.2-0.2-0.5-0.2
		c-0.2,0-0.2-0.2-0.5-0.2c0,0-0.2-0.2-0.5-0.2s-0.2-0.2-0.5-0.2s-0.2-0.2-0.5-0.2c-0.2,0-0.2-0.2-0.5-0.2s-0.2-0.2-0.5-0.2
		c0,0-0.2-0.2-0.5-0.2s-0.2-0.2-0.5-0.2c-0.2-0.2-0.2-0.2-0.5-0.2s-0.2-0.2-0.5-0.2c-0.2-0.2-0.2-0.2-0.5-0.2s-0.2-0.2-0.5-0.2
		c-0.2,0-0.2-0.2-0.5-0.2s-0.2-0.2-0.5-0.2c-0.2-0.2-0.2-0.2-0.5-0.2c-0.2,0-0.2-0.2-0.5-0.2s-0.2-0.2-0.5-0.2s-0.2-0.2-0.5-0.2
		s-0.2-0.2-0.5-0.2c-0.2,0-0.2-0.2-0.5-0.2c0,0-0.2-0.2-0.5-0.2c0-0.2-0.2-0.2-0.5-0.2s-0.2-0.2-0.5-0.2l0,0l0,0l0,0l0,0l0,0l0,0
		l0,0l0,0l0,0l0,0l0,0l0,0l0,0l0,0l0,0l0,0l0,0l0,0l0,0l0,0l0,0l0,0l0,0l0,0l0,0l0,0l0,0l0,0l0,0l0,0l0,0l0,0l0,0l0,0l0,0l0,0l0,0
		l0,0l0,0l0,0l0,0l0,0l0,0l0,0l0,0l0,0l0,0l0,0l0,0l0,0l0,0l0,0l0,0l0,0l0,0l0,0l0,0l0,0l0,0l0,0l0,0l0,0l0,0l0,0l0,0l0,0l0,0l0,0
		l0,0l0,0l0,0l0,0l0,0l0,0l0,0l0,0l0,0l0,0l0,0l0,0l0,0l0,0l0,0l0,0l0,0l0,0l0,0l0,0l0,0l0,0l0,0l0,0l0,0l0,0l0,0l0,0l0,0l0,0l0,0
		l0,0l0,0l0,0l0,0l0,0l0,0l0,0l0,0l0,0l0,0l0,0l0,0l0,0l0,0l0,0l0,0l0,0l0,0l0,0l0,0l0,0l0,0l0,0l0,0l0,0l0,0l0,0l0,0l0,0l0,0l0,0
		l0,0l0,0l0,0l0,0l0,0l0,0l0,0l0,0l0,0l0,0l0,0l0,0l0,0l0,0l0,0l0,0l0,0l0,0l0,0l0,0l0,0l0,0l-0.5,0.7l-0.9,1.2l-0.5,0.7l-0.5,0.7
		l-0.5,0.7l-0.5,0.7l-0.5,0.7l-0.5,0.7l-0.5,0.7l-0.5,0.7l-0.5,0.7l-0.5,0.7l-0.5,0.7h-0.7l-0.5,0.7l-0.5,0.7l-0.5,0.7l-0.5,0.7
		l-0.5,0.7l-0.5,0.7l-0.5,0.7l-0.5,0.7l-0.5,0.7l-0.5,0.7l-0.5,0.7l-0.5,0.7l-0.5,0.7l-0.5,0.7l-0.5,0.7l-0.5,0.7l-0.5,0.7l-0.5,0.7
		l0,0l0,0l0,0l0,0l0,0l0,0l0,0l0,0l0,0l0,0l0,0l0,0l0,0l0,0l0,0l0,0l0,0l0,0l0,0l0,0l0,0l0,0l0,0l0,0l0,0l0,0l0,0l0,0l0,0l0,0l0,0
		l0,0l0,0l0,0l0,0l0,0l0,0l0,0l0,0l0,0l0,0l0,0l0,0l0,0l0,0l0,0l0,0l0,0l0,0l0,0l0,0l0,0l0,0l0,0l0,0l0,0l0,0l0,0l0,0l0,0l0,0l0,0
		l0,0l0,0l0,0l0,0l0,0l0,0l0,0l0,0l0,0l0,0l0,0l0,0l0,0l0,0l0,0l0,0l0,0l0,0l0,0l0,0l0,0l0,0l0,0l0,0l0,0l0,0l0,0l0,0l0,0l0,0l0,0
		l0,0l0,0l0,0l0,0l0,0l0,0l0,0l0,0l0,0l0,0l0,0l0,0l0,0l0,0l0,0l0,0l0,0l0,0l0,0l0,0l0,0l0,0l0,0l0,0l0,0l0,0l0,0l0,0l0,0l0,0l0,0
		l0,0l0,0l0,0l0,0l0,0l0,0l0,0l0,0l0,0c0.5,0.5,0.9,0.7,1.4,0.9c0.5,0.5,0.9,0.7,1.4,1.2c0.5,0.2,0.9,0.7,1.2,1.2
		c0.5,0.5,0.9,0.7,1.2,1.2c0.5,0.5,0.7,0.7,1.2,1.2c0.5,0.5,0.7,0.7,1.2,1.2c0.5,0.5,0.7,0.7,1.2,1.2c0.5,0.5,0.7,0.7,1.2,1.2
		c0.2,0.5,0.7,0.7,0.9,1.2c0.2,0.5,0.7,0.7,0.9,1.2s0.7,0.7,0.9,1.2c0.2,0.5,0.7,0.7,0.9,1.2c0.2,0.5,0.5,0.7,0.9,1.2
		c0.2,0.5,0.5,0.7,0.9,1.2c0.2,0.5,0.5,0.7,0.7,1.2c0.2,0.5,0.5,0.7,0.7,1.2c0.2,0.5,0.5,0.7,0.7,1.2c0.2,0.5,0.5,0.7,0.7,1.2
		c0.2,0.5,0.5,0.7,0.7,1.2c0.2,0.5,0.5,0.7,0.7,1.2c0.2,0.5,0.5,0.7,0.5,1.2c0.2,0.5,0.2,0.7,0.5,1.2c0.2,0.5,0.2,0.7,0.5,1.2
		c0.2,0.5,0.2,0.9,0.5,1.2c0.2,0.5,0.2,0.9,0.5,1.2c0.2,0.5,0.2,0.9,0.2,1.2c0.2,0.5,0.2,0.9,0.2,1.2c0,0.5,0.2,0.9,0.2,1.2
		c0,0.5,0.2,0.9,0.2,1.2c0,0.5,0.2,0.9,0.2,1.4c0,0.5,0,0.9,0.2,1.4C1020.7,120.3,1021,120.8,1021,121.2"/>
	<path d="M384.3,156.7v-18.9c0-5.9,5.9-5.9,5.9-5.9h0.7h1.7h1.7c30.7,0.2,60.1,15.6,78,40.7l76.9,104.1
		c12.5,17.5,32.6,27.9,53.9,27.9h1.2h2.4c0,0,5.9,0,5.9,5.9v18.9c0,0,0,5.9-5.9,5.9h-2.8h-1.4c-30.7-0.2-60.1-15.6-78-40.7
		l-76.9-104.1c-12.5-17.5-32.6-27.9-53.9-27.9h-0.7H391h-0.7C384.3,162.6,384.3,156.7,384.3,156.7"/>
	<path class="st0" d="M524.8,223.4l-18.9-25.5l18.4-25.1c18-25.3,47.1-40.4,78-40.7h1.9h0.7h1.7c0,0,5.9,0,5.9,5.9V157
		c0,0,0,5.9-5.9,5.9h-2.8l0,0h-0.7c-21.3,0-41.6,10.6-53.9,27.9L524.8,223.4z M384.3,329.6v-18.9c0-5.9,5.9-5.9,5.9-5.9h1.7h0.5h1.2
		c21.3,0,41.6-10.4,53.9-27.9l24.4-33.1l18.9,25.5l-18.7,25.3c-18,25.3-47.1,40.4-78,40.7h-1.4h-0.9H390
		C384.3,335.3,384.3,329.6,384.3,329.6"/>
	<path d="M383.4,234.8L383.4,234.8c0-3.5-0.2-6.9-0.5-9.9c-0.2-3.1-0.7-6.1-1.2-9.2c-0.5-3.1-0.9-5.9-1.7-8.8
		c-0.7-2.8-1.4-5.7-2.4-8.5s-1.9-5.4-2.8-8c-1.2-2.6-2.1-5.2-3.5-7.6c-1.2-2.4-2.6-4.7-4-7.1c-1.4-2.4-3.1-4.5-4.7-6.6v0.2
		c-0.2-0.5-0.5-0.7-0.9-1.2c-0.2-0.5-0.5-0.7-0.9-1.2c-0.2-0.5-0.7-0.7-0.9-1.2c-0.2-0.5-0.7-0.7-0.9-1.2c-0.2-0.5-0.7-0.7-0.9-1.2
		s-0.7-0.7-0.9-1.2s-0.7-0.7-0.9-1.2s-0.7-0.7-0.9-1.2c-2.1-2.4-4.5-4.5-6.9-6.4c-2.4-2.1-5-3.8-7.6-5.7c-2.6-1.7-5.2-3.3-8-4.7
		c-2.8-1.4-5.7-2.8-8.5-4c-3.1-1.2-5.9-2.1-9.2-3.1c-3.1-0.9-6.4-1.7-9.7-2.4c-3.3-0.7-6.9-1.2-10.2-1.4c-3.5-0.2-7.1-0.5-10.9-0.5
		h-0.5c-3.3,0-6.4,0.2-9.7,0.7c-3.1,0.2-6.1,0.7-9.2,1.4c-3.1,0.5-5.9,1.2-9,2.1c-2.8,0.7-5.7,1.7-8.5,2.8c-2.8,0.9-5.4,2.1-8,3.5
		c-2.6,1.2-5.2,2.6-7.8,4.3c-2.6,1.4-5,3.1-7.3,5c-2.4,1.7-4.7,3.5-6.9,5.7h-0.2c-0.2,0.2-0.2,0.2-0.5,0.5c-0.2,0.2-0.2,0.2-0.5,0.5
		c-0.2,0.2-0.2,0.2-0.5,0.5c-0.2,0.2-0.2,0.2-0.5,0.5c-0.2,0.2-0.2,0.5-0.5,0.5c-0.2,0.2-0.5,0.5-0.5,0.5c-0.2,0.2-0.2,0.5-0.5,0.5
		c-0.2,0.2-0.5,0.2-0.5,0.5h-0.2c-0.5,0.5-0.9,0.9-1.4,1.2c-0.5,0.5-0.9,0.9-1.2,1.4c-0.5,0.5-0.9,0.9-1.2,1.4
		c-0.5,0.5-0.7,0.9-1.2,1.4c-0.5,0.5-0.7,0.9-1.2,1.4c-0.5,0.5-0.7,0.9-1.2,1.4c-0.2,0.5-0.7,0.9-0.9,1.4c-0.2,0.5-0.7,0.9-0.9,1.4
		v0.2c-1.7,2.1-3.1,4.3-4.5,6.4s-2.6,4.5-3.8,6.6c-1.2,2.4-2.4,4.5-3.3,6.9c-0.9,2.4-1.9,4.7-2.8,7.3c-0.7,2.6-1.7,5-2.1,7.6
		c-0.7,2.6-1.2,5.2-1.7,8c-0.5,2.6-0.7,5.4-1.2,8.3c-0.2,2.8-0.5,5.7-0.5,8.5v0.2c0,2.8,0.2,5.7,0.5,8.5c0.2,2.8,0.5,5.4,0.9,8
		c0.5,2.6,0.9,5.2,1.4,7.8c0.5,2.6,1.2,5,1.9,7.6c0.7,2.4,1.4,5,2.4,7.3c0.9,2.4,1.9,4.7,2.8,6.9c0.9,2.4,2.1,4.5,3.3,6.6
		c1.2,2.1,2.4,4.3,3.8,6.4c0.5,0.7,0.9,1.2,1.2,1.9c0.5,0.7,0.9,1.2,1.4,1.9s0.9,1.2,1.4,1.9s0.9,1.2,1.4,1.9s0.9,1.2,1.4,1.9
		c0.5,0.7,0.9,1.2,1.4,1.9c0.5,0.7,0.9,1.2,1.7,1.7c0.5,0.5,1.2,1.2,1.7,1.7v0.2l0.2,0.2l0.2,0.2l0.2,0.2l0.2,0.2l0.2,0.2l0.2,0.2
		l0.2,0.2l0.2,0.2c2.4,2.1,4.5,4.3,7.1,6.1c2.4,1.9,5,3.8,7.6,5.4c2.6,1.7,5.2,3.1,7.8,4.5c2.8,1.4,5.4,2.6,8.3,3.8
		c2.8,1.2,5.9,2.1,8.8,3.1c3.1,0.9,6.1,1.7,9.5,2.1c3.1,0.7,6.4,0.9,9.9,1.4c3.3,0.2,6.9,0.5,10.4,0.5h1.9c0.2,0,0.7,0,0.9,0
		s0.5,0,0.9,0c0.2,0,0.5,0,0.7,0s0.5,0,0.7,0h0.7c0.2,0,0.5,0,0.7,0h1.4c3.1,0,6.1,0,9.2-0.2c3.1-0.2,6.1-0.5,9.2-1.2
		c3.1-0.5,5.9-1.2,9-1.9c3.1-0.7,5.9-1.7,8.8-2.6s5.7-2.1,8.8-3.3c2.8-1.2,5.7-2.6,8.5-4.3c2.8-1.4,5.7-3.1,8.3-5
		c2.8-1.7,5.4-3.5,8-5.7c0,0,0,0,0.2-0.2c0,0,0,0,0.2-0.2c0,0,0-0.2,0.2-0.2c0,0,0,0,0.2-0.2c0,0,0-0.2,0.2-0.2c0,0,0-0.2,0.2-0.2
		v-0.2V309v-0.2v-0.2v-0.2v-0.2v-0.2v-0.2v-0.2v-0.2v-0.2v-0.2v-0.2v-0.2v-0.2c0,0,0-0.2-0.2-0.2c0,0,0-0.2-0.2-0.2
		c0,0,0-0.2-0.2-0.2l-0.2-0.2l-0.2-0.2l-0.2-0.2l-0.2-0.2l-0.2-0.2l-0.2-0.2l-0.2-0.2l-0.2-0.2c-0.5-0.5-0.9-1.2-1.4-1.7
		c-0.5-0.5-0.9-1.2-1.4-1.7s-0.9-1.2-1.4-1.7c-0.5-0.5-0.9-1.2-1.4-1.7s-0.9-1.2-1.4-1.7c-0.5-0.5-0.9-1.2-1.2-1.7
		c-0.5-0.5-0.7-1.2-1.2-1.7s-0.7-1.2-0.9-1.7c0,0,0,0-0.2-0.2c0,0,0,0-0.2-0.2c0,0,0,0-0.2-0.2c0,0-0.2,0-0.2-0.2c0,0,0,0-0.2-0.2
		c0,0,0,0-0.2-0.2c0,0,0,0-0.2,0h-0.2c0,0-0.2,0-0.2-0.2h-0.2h-0.2H347h-0.2h-0.2H346h-0.2h-0.2h-0.2h-0.2h-0.2h-0.2h-0.2h-0.2h-0.2
		c-1.9,1.4-4,2.8-5.9,4.3c-2.1,1.2-4,2.6-6.1,3.5c-2.1,1.2-4.3,2.1-6.4,3.1s-4.3,1.7-6.4,2.6c-2.1,0.7-4.5,1.4-6.6,1.9
		c-2.1,0.5-4.5,0.9-6.6,1.4c-2.4,0.2-4.5,0.7-6.9,0.7c-2.4,0.2-4.7,0.2-7.1,0.2h-0.2c-0.2,0-0.5,0-0.7,0s-0.5,0-0.7,0h-0.9
		c-0.2,0-0.5,0-0.7,0c-0.2,0-0.5,0-0.7,0s-0.5,0-0.5,0c-0.2,0-0.5,0-0.5,0c-0.2,0-0.2,0-0.5,0s-0.5,0-0.5,0c-0.2,0-0.2,0-0.5,0
		s-0.2,0-0.5,0c-0.2,0-0.2,0-0.5,0h-0.2h-0.2h-0.2h-0.2c-4.7-0.5-9.5-1.2-13.7-2.1s-8.3-2.1-12.3-3.8c-3.8-1.4-7.3-3.3-10.6-5.4
		c-3.3-2.1-6.4-4.5-9-7.1c-2.8-2.6-5.2-5.7-7.6-8.8c-2.4-3.3-4.3-6.6-5.9-10.6c-1.7-3.8-3.3-7.8-4.5-12.3c-1.2-4.3-2.1-9-2.8-14
		v-0.2v-0.2c0-0.2,0-0.2,0-0.2c0-0.2,0-0.2,0-0.2s0-0.2,0-0.5c0,0,0-0.2,0-0.5c0-0.2,0-0.2,0-0.5c0,0,0-0.2,0-0.5s0-0.2,0-0.5h162.2
		c0,0,0.2,0,0.5,0c0.2,0,0.2,0,0.5,0s0.2,0,0.5,0s0.2,0,0.2,0s0.2,0,0.2-0.2c0,0,0.2,0,0.2-0.2c0,0,0.2,0,0.2-0.2l0.2-0.2l0.2-0.2
		l0.2-0.2l0.2-0.2l0.2-0.2l0.2-0.2c0,0,0-0.2,0.2-0.2v-0.2l0,0l0,0l0,0l0,0l0,0v-0.2v-0.2v-0.2v-0.2V235L383.4,234.8l0-0.2
		C383.4,235.2,383.4,235.2,383.4,234.8C383.4,235,383.4,235,383.4,234.8z M218.6,211.4c7.3-29.3,33.8-51.3,65.3-51.3
		c31.7,0,58.2,21.8,65.3,51.3H218.6z"/>
</g>
</svg>
