<?xml version="1.0" encoding="utf-8"?>
<!-- Generator: Adobe Illustrator 23.1.0, SVG Export Plug-In . SVG Version: 6.00 Build 0)  -->
<svg version="1.1" id="圖層_1" xmlns="http://www.w3.org/2000/svg" xmlns:xlink="http://www.w3.org/1999/xlink" x="0px" y="0px"
	 viewBox="0 0 1260 480" style="enable-background:new 0 0 1260 480;" xml:space="preserve">
<style type="text/css">
	.st0{fill:#2FA6D9;}
	.st1{fill:#352F2F;}
</style>
<g id="圖層_1-2">
	<circle class="st0" cx="848.1" cy="132.9" r="21.9"/>
	<path class="st0" d="M607.5,242.3l-0.6,1.8c-1.8,4.9-4.3,9.1-7.9,12.8c-3.6,4.3-8.5,8.5-13.4,11.5c-5.5,3.6-11.5,6.1-17.6,7.9
		c-6.7,1.8-13.4,3-20,3c-7.9,0-15.8-1.8-23.1-4.9c-7.3-3.6-13.4-8.5-18.2-14c-5.5-6.1-9.1-13.4-11.5-21.3
		c-2.4-7.9-4.3-16.4-4.3-24.9h124.5v-2.4c0-8.5-1.8-17-5.5-24.9c-3.6-7.9-9.1-15.2-15.8-20.7c-7.3-6.1-15.2-10.9-23.7-14.6
		c-9.7-3.6-20-5.5-30.4-5.5c-12.2,0-23.7,1.8-34.6,6.7c-9.7,4.3-18.8,10.3-26.1,18.2c-7.3,7.9-13.4,17-17,27.3
		c-4.3,10.9-6.1,22.5-6.1,34c0,10.3,2.4,20,7.3,29.2c4.3,9.1,10.3,17,18.2,23.7c7.9,6.7,17,12.2,26.7,15.8
		c10.3,4.3,21.3,6.1,32.2,6.1c9.1,0,17.6-1.8,26.1-4.9c8.5-3,16.4-7.3,23.7-12.2c7.3-4.9,13.4-11.5,18.8-18.2
		c5.5-6.7,9.7-14,12.2-22.5l0.6-1.8L607.5,242.3z M570.5,197.3h-78.4c0.6-4.3,1.8-8.5,3.6-12.8c2.4-4.3,4.9-8.5,8.5-12.2
		c3-3.6,7.3-6.1,11.5-7.9c9.7-3.6,20-3.6,29.8,0c4.9,1.8,9.1,4.9,12.8,7.9c3.6,3.6,6.7,7.3,8.5,12.2
		C569.2,188.8,570.5,193.1,570.5,197.3z"/>
	<path class="st0" d="M1051,242.3l-0.6,1.8c-1.8,4.9-4.3,9.1-7.9,12.8c-3.6,4.3-8.5,8.5-13.4,11.5c-5.5,3.6-11.5,6.1-17.6,7.9
		c-6.7,1.8-13.4,3-20,3c-7.9,0-15.8-1.8-23.1-4.9c-6.7-3.6-12.8-8.5-17.6-14c-5.5-6.1-9.1-13.4-11.5-21.3
		c-2.4-7.9-4.3-16.4-4.3-24.9h123.9v-2.4c0-8.5-1.8-17-5.5-24.9c-3.6-7.9-9.1-15.2-15.8-20.7c-7.3-6.1-15.2-10.9-23.7-14.6
		c-9.7-3.6-20-5.5-30.4-5.5c-12.2,0-23.7,1.8-34.6,6.7c-20,8.5-35.8,24.9-43.7,45c-4.3,10.9-6.1,22.5-6.1,34c0,10.3,2.4,20,7.3,29.2
		c4.3,9.1,10.3,17,18.2,23.7s17,12.2,26.7,15.8c10.3,4.3,21.3,6.1,32.2,6.1c9.1,0,17.6-1.8,26.1-4.9c8.5-3,16.4-7.3,23.7-12.2
		c7.3-4.9,13.4-11.5,18.8-18.2c5.5-6.7,9.1-14.6,11.5-22.5l0.6-1.8L1051,242.3z M1014,197.3h-78.4c0.6-4.3,1.8-8.5,3.6-12.8
		c1.8-4.3,4.9-8.5,8.5-12.2c3-3.6,7.3-6.1,11.5-7.9c9.7-3.6,20-3.6,29.8,0c4.9,1.8,9.1,4.9,12.8,7.9c3.6,3.6,6.7,7.3,8.5,12.2
		C1012.7,188.8,1013.4,193.1,1014,197.3L1014,197.3z"/>
	<path class="st0" d="M792.8,180.3c-2.4-5.5-5.5-10.3-9.7-14.6c-4.3-4.3-9.1-7.3-14.6-9.7c-5.5-2.4-11.5-3.6-17.6-3.6
		c-12.2,0-24.3,2.4-35.2,7.3c-10.9,4.9-20.7,11.5-29.8,19.4v-23.7H647v151.3h38.3V196.1c3.6-3,7.3-5.5,10.9-7.9
		c3.6-2.4,7.9-4.3,12.2-6.1c3.6-1.8,7.9-3,12.2-4.3c3.6-1.2,7.3-1.8,10.9-1.8c6.7,0,13.4,1.8,18.2,6.7c4.9,5.5,7.9,12.8,7.3,20
		v103.9h38.9V198.5C795.9,192.5,794.6,186.4,792.8,180.3z"/>
	<polygon class="st0" points="828.7,179.7 828.7,306.7 866.9,306.7 866.9,163.9 	"/>
	<path class="st0" d="M433.8,297.6c-23.7-18.2-51.6-29.2-81.4-31.6c-4.3-0.6-47.4-3-63.8-4.3c-16.4-1.2-34.6-1.8-49.8-10.3
		c-3-1.8-6.7-4.9-8.5-8.5c-3.6-7.3-1.8-16.4,4.9-21.3c2.4-2.4,4.9-4.9,7.9-6.1c3.6-1.2,5.5,0.6,9.1,1.8c22.5,17,49.8,26.1,77.8,25.5
		c58.9,0,106.3-35.8,106.3-79.6c0-26.7-17.6-51-45-65c4.3-4.3,9.7-7.3,15.8-9.1c1.8,0,3.6,0,4.9,0.6l0,0l2.4,0.6
		c4.9,1.8,9.7,3,15.2,2.4c7.3,0,14.6-1.8,20.7-6.1c6.7-3.6,10.3-10.9,10.3-18.2c0-4.9-1.2-9.1-4.3-13.4c-3-3.6-6.7-7.3-10.9-9.1
		l-1.8-1.2c-2.4-1.2-4.3-1.8-6.7-2.4c-9.7-2.4-20,0-27.9,6.1c-6.7,4.3-10.3,12.2-10.3,20c0,1.8,0,3,0.6,4.9l0,0
		c0,2.4-1.2,3-14.6,15.2l-4.3,3.6c-16.4-6.7-33.4-9.7-51-9.7c-58.9,0-106.3,35.8-106.3,79.6c0,12.8,3.6,24.9,10.9,35.2
		c0,1.2,0,1.8,0,3c-0.6,2.4-1.8,4.3-3,6.1c-3.6,4.9-7.3,8.5-10.9,12.2c-3,3.6-5.5,7.9-7.3,12.2c-4.9,9.7-6.7,21.3-4.9,32.2
		c0,1.2,0.6,2.4,0.6,3.6c3,10.9,10.3,20.7,20,27.3c1.8,1.2,4.3,3,6.1,4.3c15.8,7.9,32.8,12.2,49.8,13.4c18.8,1.8,47.4,1.2,49.8,1.2
		c24.9-0.6,49.2,5.5,71.1,18.2c15.8,10.3,29.8,27.3,24.3,47.4c-9.7,36.5-62,46.8-94.2,46.8c-53.5,0-96.6-25.5-96.6-56.5
		c0-20.7,18.8-38.3,46.8-48c-8.5-2.4-18.2-3.6-27.3-3.6c-34.6-0.6-62.6,17-62.6,38.3c0,23.1,18.2,45.6,43.1,60.1
		c3.6,1.8,7.3,3.6,10.9,5.5c26.1,11.5,54.1,17,82,17.6c56.5-0.6,103.9-24.3,122.7-57.1C471.4,351,458.7,318.2,433.8,297.6z
		 M421,53.3c1.8-3,4.9-4.9,8.5-4.9s7.3,1.8,9.1,5.5c1.8,4.3,3,9.1,2.4,14c0.6,4.9-0.6,10.3-2.4,15.2c-1.8,3-5.5,4.3-9.1,4.3
		c-3,0-6.7-1.2-9.1-4.3c-1.8-4.9-3-9.7-2.4-15.2C417.4,63.1,418.6,58.2,421,53.3z M283.1,162.7L283.1,162.7
		c0-38.9,20.7-70.5,46.2-70.5c25.5,0,46.2,31.6,46.2,70.5l0,0c0,38.9-20.7,70.5-46.2,70.5C303.8,233.2,283.1,201.6,283.1,162.7z"/>
	<path class="st1" d="M558.3,357.7c0-2.4,1.8-3,4.3-3s4.3,1.2,4.3,3v53.5c0,2.4-1.8,4.9-4.3,4.9c-0.6,0-0.6,0-1.2,0
		c-3.6,0-4.9-1.2-7.3-4.3L531,378.4c-3.6-5.5-6.7-10.9-9.7-16.4c0.6,4.9,1.2,15.8,1.2,27.3V413c0,1.8-1.8,3-4.3,3s-4.3-1.2-4.3-3
		v-53.5c0-3,1.8-4.9,5.5-4.9c3,0,5.5,1.2,7.3,3.6l21.9,32.2c4.3,6.1,9.1,14,10.9,18.2c-0.6-4.9-1.2-16.4-1.2-27.3V357.7z"/>
	<path class="st1" d="M588.1,406.9c0,1.8,1.2,2.4,3,2.4h31c1.8,0,3,1.2,3.6,3v0.6c0,1.8-1.2,3.6-3,3.6c0,0,0,0-0.6,0h-33.4
		c-6.1,0-9.1-2.4-9.1-8.5v-44.4c0-6.1,2.4-8.5,9.1-8.5h32.8c1.8,0,3.6,1.2,3.6,3.6s-1.2,3.6-3.6,3.6l0,0h-31c-1.8,0-3,0.6-3,3V382
		h29.8c1.8,0,3.6,1.2,3.6,3c0,1.8-1.2,3.6-3,3.6h-0.6h-29.2V406.9z"/>
	<path class="st1" d="M637.3,362c-1.8,0-3-1.2-3.6-3c0,0,0,0,0-0.6c0-1.8,1.2-3.6,3-3.6c0,0,0,0,0.6,0h47.4c1.8,0,3,1.2,3,3l0,0
		c0,1.8-1.2,3-3,3l0,0h-19.4V413c0,1.8-1.8,3-4.3,3c-2.4,0-4.3-1.2-4.3-3v-51H637.3z"/>
	<path class="st1" d="M724.8,412.4c-0.6,2.4-3,4.3-5.5,3.6c-2.4,0.6-5.5-1.2-6.1-3.6l-15.8-53.5c0-0.6,0-0.6,0-1.2
		c0-1.8,1.8-3,3.6-3h1.2c1.8,0,3,0.6,3.6,2.4l10.9,36.5c1.2,4.3,2.4,11.5,3,15.2c0.6-4.3,1.8-10.9,3-15.2l10.3-35.2
		c0.6-2.4,2.4-3.6,5.5-3.6s4.9,1.2,5.5,3.6l10.3,35.8c1.2,3.6,2.4,10.9,3,15.2c0.6-4.3,1.8-11.5,3-15.2l10.9-37.1
		c0.6-1.8,2.4-2.4,3.6-2.4h1.2c1.8,0,3.6,1.2,3.6,3c0,0,0,0.6,0,1.2l-17,54.1c-0.6,2.4-3.6,4.3-6.1,3.6c-2.4,0.6-4.9-1.2-5.5-3.6
		l-9.7-35.2c-1.2-4.9-2.4-11.5-3-15.8c-0.6,4.3-1.8,10.9-3,15.8L724.8,412.4z"/>
	<path class="st1" d="M846.3,385.7c0,19.4-11.5,31.6-30.4,31.6c-18.8,0-30.4-12.2-30.4-31.6s11.5-31.6,30.4-31.6
		C834.7,354.1,846.3,366.2,846.3,385.7z M794.6,385.7c0,15.2,8.5,24.9,21.9,24.9s21.3-9.7,21.3-25.5c0-14.6-8.5-24.3-21.3-24.3
		S794.6,370.5,794.6,385.7z"/>
	<path class="st1" d="M908.3,411.8c0.6,1.8,0,3.6-1.8,4.3c-0.6,0-0.6,0-1.2,0s-1.2,0-1.8,0c-1.2,0-3-0.6-3.6-1.8l-1.8-4.9
		c-6.1-15.2-8.5-20.7-17-20.7h-15.8V413c0,2.4-1.8,3-4.3,3c-2.4,0-4.3-1.2-4.3-3v-49.2c0-6.1,2.4-8.5,9.1-8.5h20
		c12.8,0,19.4,6.1,19.4,15.8c0,7.9-6.1,14.6-14,15.2c4.9,1.2,7.9,6.7,14.6,21.3L908.3,411.8z M884.6,382c7.3,0,12.2-4.3,12.2-10.3
		c0-6.1-4.3-10.3-11.5-10.3h-17.6c-1.8,0-3,0.6-3,3V382H884.6z"/>
	<path class="st1" d="M966.6,410.6c0.6,0.6,0.6,1.2,0.6,1.8c0,1.2-0.6,2.4-1.8,3c-0.6,0.6-1.8,0.6-2.4,0.6c-1.2,0-2.4-0.6-3-1.2
		l-24.3-29.2l-9.7,9.1V413c0,1.8-1.8,3-4.3,3s-4.3-1.2-4.3-3v-55.3c0-2.4,1.8-3,4.3-3s4.3,1.2,4.3,3v27.3l31.6-29.2
		c0.6-0.6,1.8-1.2,2.4-1.2c1.2,0,1.8,0.6,3,1.2c1.2,0.6,1.2,1.8,1.2,3c0,0.6,0,1.8-0.6,1.8l-22.5,20L966.6,410.6z"/>
	<path class="st1" d="M1001.2,381.4c13.4,2.4,20.7,6.7,20.7,18.2c0,10.3-8.5,17.6-24.3,17.6c-20,0-23.7-9.1-26.1-15.2
		c0-0.6,0-0.6,0-1.2c0-1.8,1.2-3,3-3h1.8c1.8,0,3,0.6,3.6,2.4c1.8,5.5,4.3,10.9,17,10.9c9.7,0,15.8-4.3,15.8-10.9s-3.6-9.7-14-11.5
		l-6.7-1.2c-12.8-2.4-18.8-6.7-18.8-17c0-7.9,6.7-16.4,23.1-16.4c16.4,0,20.7,7.3,23.1,13.4c0,0.6,0,0.6,0,1.2c0,1.8-1.2,3-3,3
		c-0.6,0-1.2,0-1.8,0c-1.8,0-3-0.6-3.6-2.4c-1.2-4.3-4.9-9.1-14.6-9.1s-14.6,4.3-14.6,9.7s3,8.5,12.8,10.3L1001.2,381.4z"/>
</g>
</svg>
