<?xml version="1.0" encoding="utf-8"?>
<!-- Generator: Adobe Illustrator 23.1.0, SVG Export Plug-In . SVG Version: 6.00 Build 0)  -->
<svg version="1.1" id="Слой_1" xmlns="http://www.w3.org/2000/svg" xmlns:xlink="http://www.w3.org/1999/xlink" x="0px" y="0px"
	 viewBox="0 0 1260 480" style="enable-background:new 0 0 1260 480;" xml:space="preserve">
<style type="text/css">
	.st0{fill:#36528D;}
	.st1{fill:none;stroke:#36528D;stroke-width:0.509;stroke-miterlimit:10;}
	.st2{clip-path:url(#SVGID_2_);fill:url(#SVGID_3_);}
	.st3{clip-path:url(#SVGID_5_);fill:url(#SVGID_6_);}
	.st4{clip-path:url(#SVGID_8_);fill:url(#SVGID_9_);}
</style>
<g>
	<g>
		<g>
			<path class="st0" d="M320.3,183.7h-46.5v43.1h46.5v-17.4h-24v-7.6h33.9v19.2c0,5.4-1,9.1-2.9,11.1c-2,2-5.6,2.9-11,2.9h-38.4
				c-5.4,0-9-1-11-2.9c-2-2-2.9-5.7-2.9-11.1v-31.3c0-5.4,1-9.1,2.9-11.1c2-2,5.6-2.9,11-2.9h38.4c5.2,0,8.8,0.9,10.9,2.8
				c2,1.9,3,5.3,3,10.5v1.5l-9.9,0V183.7z"/>
			<path class="st0" d="M357.2,235.1v-59.4H405c4.4,0,7.5,0.9,9.5,2.7c2,1.8,3,4.7,3,8.8v13.2c0,4.1-1,7-3,8.8
				c-2,1.8-5.2,2.7-9.5,2.7h-8.7l27.1,23.1h-14.7L384.5,212h-17.4v23.1H357.2z M401.2,183.5h-34.1v20.8h34.1c2.4,0,4-0.4,5-1.3
				c1-0.8,1.4-2.5,1.4-4.8v-8.6c0-2.3-0.5-3.9-1.4-4.8C405.2,183.9,403.5,183.5,401.2,183.5"/>
		</g>
		<path class="st0" d="M431.8,235.2l32.4-59.4h10.6l33,59.4h-10.9l-7.6-14.6h-40.2l-7.6,14.6H431.8z M453.3,213h32l-16-30.4
			L453.3,213z"/>
		<g>
			<path class="st0" d="M525.5,235.2v-59.4h6.2l44.4,39.7c2.1,1.9,4.4,4.4,6.8,7.5c-0.6-3.7-0.9-8.6-0.9-14.6v-32.6h9.2v59.4h-5.5
				L540,193.9c-1.7-1.5-2.6-2.4-2.9-2.6c-1.2-1.2-2.3-2.6-3.1-4c0.5,3.5,0.7,7.9,0.7,13v35H525.5z"/>
			<path class="st0" d="M653.1,175.8c10.4,0,18,1.5,22.8,4.6c3.8,2.5,6.8,5.9,9,10.2c2.2,4.4,3.3,9.2,3.3,14.5
				c0,11.6-4.1,20-12.3,25.4c-4.7,3.1-12.3,4.6-22.8,4.6h-32.7v-59.4H653.1z M651.7,183.7h-21.4v43.1h21.4c9.2,0,15.8-1.5,19.8-4.6
				c4.4-3.3,6.6-9,6.6-17.2c0-7.8-2.2-13.4-6.6-16.7C667.4,185.3,660.8,183.7,651.7,183.7"/>
			<path class="st0" d="M762.5,183.7h-42v16.7h37.4c5.4,0,9,1,10.9,3c1.9,2,2.9,5.7,2.9,11v6.7c0,5.4-1,9.1-2.9,11.1
				c-1.9,2-5.6,2.9-10.9,2.9h-34.6c-5.4,0-9-1-11-2.9c-2-2-2.9-5.7-2.9-11.1v-1.6l9.2,0v7.3h44.2V209h-37.3c-5.3,0-8.9-1-10.9-2.9
				c-1.9-2-2.9-5.7-2.9-11.1v-5.2c0-5.5,1-9.2,2.9-11.2c2-1.9,5.6-2.9,10.9-2.9h31.6c5.1,0,8.6,0.9,10.8,2.7
				c2.1,1.8,3.2,5.2,3.2,10.2v1.3l-8.5,0V183.7z"/>
		</g>
		<polygon class="st0" points="823.2,183.8 823.2,235.2 813.3,235.2 813.3,183.8 786.2,183.8 786.2,175.8 850.5,175.8 850.5,183.8 
					"/>
		<g>
			<path class="st0" d="M865.6,235.1v-59.4h47.8c4.4,0,7.5,0.9,9.5,2.7c2,1.8,3,4.7,3,8.8v13.2c0,4.1-1,7-3,8.8
				c-2,1.8-5.2,2.7-9.5,2.7h-8.7l27.1,23.1h-14.7L893,212h-17.4v23.1H865.6z M909.6,183.5h-34.1v20.8h34.1c2.4,0,4-0.4,5-1.3
				c1-0.8,1.4-2.5,1.4-4.8v-8.6c0-2.3-0.5-3.9-1.4-4.8C913.6,183.9,912,183.5,909.6,183.5"/>
		</g>
		<polygon class="st0" points="951.8,235.2 951.8,175.8 1009,175.8 1009,183.7 961.7,183.7 961.7,200.3 990.6,200.3 990.6,208.1 
			961.7,208.1 961.7,227 1009.4,227 1009.4,235.2 		"/>
		<path class="st0" d="M1019.9,235.2l32.4-59.4h10.6l33,59.4H1085l-7.6-14.6h-40.1l-7.6,14.6H1019.9z M1041.4,213h32l-16-30.4
			L1041.4,213z"/>
		<g>
			<path class="st0" d="M1121.6,186.4c0.3,2.3,0.5,5.2,0.5,8.7v40h-8.4v-59.4h8.1l28.9,38.7l26.9-38.7h9.2v59.4h-9.2v-40l0.5-8.7
				c-1.3,2.8-2.5,4.9-3.6,6.4l-22.7,33h-2.5l-23.6-32.1C1124.7,192.5,1123.3,190.1,1121.6,186.4"/>
			<path class="st0" d="M283.2,285.1h-15.1v16.4h15.1v-4.9h3.6v2.7c0,2.1-0.4,3.5-1.1,4.2c-0.7,0.7-2,1.1-4,1.1h-12.2
				c-2,0-3.3-0.4-4-1.1c-0.7-0.7-1.1-2.2-1.1-4.2v-11.9c0-2.1,0.4-3.5,1.1-4.2c0.7-0.7,2.1-1.1,4-1.1h12.2c2,0,3.3,0.4,4,1.1
				c0.7,0.7,1.1,2.1,1.1,4.2v2.1h-3.6V285.1z"/>
			<path class="st0" d="M313.6,287.4c0-2.1,0.4-3.5,1.1-4.2c0.7-0.7,2.1-1.1,4-1.1h15.1c2,0,3.3,0.4,4,1.1c0.7,0.7,1.1,2.2,1.1,4.2
				v11.9c0,2.1-0.4,3.5-1.1,4.2c-0.7,0.7-2,1.1-4,1.1h-15.1c-2,0-3.3-0.4-4-1.1c-0.7-0.7-1.1-2.2-1.1-4.2V287.4z M317.3,301.5h18.1
				v-16.4h-18.1V301.5z"/>
			<path class="st0" d="M367.5,304.6V282h2.3l16.3,15.1c0.8,0.7,1.6,1.7,2.5,2.8c-0.2-1.4-0.3-3.3-0.3-5.6V282h3.4v22.6h-2
				l-16.8-15.7c-0.6-0.6-1-0.9-1.1-1c-0.4-0.5-0.8-1-1.1-1.5c0.2,1.3,0.3,3,0.3,4.9v13.3H367.5z"/>
			<path class="st0" d="M420.4,304.6V282h2.3l16.3,15.1c0.8,0.7,1.6,1.7,2.5,2.8c-0.2-1.4-0.3-3.3-0.3-5.6V282h3.4v22.6h-2
				l-16.8-15.7c-0.6-0.6-1-0.9-1.1-1c-0.5-0.5-0.8-1-1.1-1.5c0.2,1.3,0.3,3,0.3,4.9v13.3H420.4z"/>
		</g>
		<polygon class="st0" points="473.4,282 473.4,304.6 494.6,304.6 494.6,301.5 477,301.5 477,294.3 487.6,294.3 487.6,291.4 
			477,291.4 477,285.1 494.4,285.1 494.4,282 		"/>
		<g>
			<path class="st0" d="M539.2,285.1h-15.1v16.4h15.1v-4.9h3.6v2.7c0,2.1-0.3,3.5-1.1,4.2c-0.7,0.7-2,1.1-4,1.1h-12.2
				c-2,0-3.3-0.4-4-1.1c-0.7-0.7-1.1-2.2-1.1-4.2v-11.9c0-2.1,0.4-3.5,1.1-4.2c0.7-0.7,2.1-1.1,4-1.1h12.2c2,0,3.3,0.4,4,1.1
				c0.7,0.7,1.1,2.1,1.1,4.2v2.1h-3.6V285.1z"/>
		</g>
		<polygon class="st0" points="564.8,282 564.8,285.1 574.8,285.1 574.8,304.6 578.4,304.6 578.4,285.1 588.4,285.1 588.4,282 		"/>
		<rect x="612.1" y="282" class="st0" width="3.6" height="22.6"/>
		<g>
			<path class="st0" d="M644.6,304.6V282h2.3l16.3,15.1c0.8,0.7,1.6,1.7,2.5,2.8c-0.2-1.4-0.3-3.3-0.3-5.6V282h3.4v22.6h-2
				l-16.8-15.7c-0.6-0.6-1-0.9-1.1-1c-0.5-0.5-0.8-1-1.1-1.5c0.2,1.3,0.3,3,0.3,4.9v13.3H644.6z"/>
		</g>
		<path class="st0" d="M717.9,285.1h-17.1v16.4h17.1v-6.6h-8.8V292h12.5v7.3c0,2.1-0.4,3.5-1.1,4.2c-0.7,0.7-2.1,1.1-4,1.1h-14.1
			c-2,0-3.3-0.4-4-1.1c-0.7-0.7-1.1-2.2-1.1-4.2v-11.9c0-2.1,0.4-3.5,1.1-4.2c0.7-0.7,2.1-1.1,4-1.1h14.1c1.9,0,3.2,0.4,4,1.1
			c0.7,0.7,1.1,2,1.1,4v0.6l-3.6,0V285.1z"/>
		<polygon class="st0" points="777.7,282 777.7,285.1 787.7,285.1 787.7,304.6 791.3,304.6 791.3,285.1 801.4,285.1 801.4,282 		"/>
		<polygon class="st0" points="845.8,282 845.8,291.3 828.6,291.3 828.6,282 825,282 825,304.6 828.6,304.6 828.6,294.4 
			845.8,294.4 845.8,304.6 849.5,304.6 849.5,282 		"/>
		<polygon class="st0" points="878.3,282 878.3,304.6 899.5,304.6 899.5,301.5 881.9,301.5 881.9,294.3 892.6,294.3 892.6,291.4 
			881.9,291.4 881.9,285.1 899.3,285.1 899.3,282 		"/>
		<g>
			<path class="st0" d="M1173.3,282c3.8,0,6.6,0.6,8.4,1.7c1.4,0.9,2.5,2.2,3.3,3.9c0.8,1.7,1.2,3.5,1.2,5.5c0,4.4-1.5,7.6-4.5,9.7
				c-1.7,1.2-4.5,1.7-8.4,1.7h-12V282H1173.3z M1172.8,285.1h-7.9v16.4h7.9c3.4,0,5.8-0.6,7.3-1.8c1.6-1.2,2.4-3.4,2.4-6.5
				c0-3-0.8-5.1-2.4-6.4C1178.6,285.6,1176.2,285.1,1172.8,285.1"/>
			<path class="st0" d="M1012.6,287.4c0-2.1,0.4-3.5,1.1-4.2c0.7-0.7,2.1-1.1,4-1.1h15.1c2,0,3.3,0.4,4,1.1c0.7,0.7,1.1,2.2,1.1,4.2
				v11.9c0,2.1-0.4,3.5-1.1,4.2c-0.7,0.7-2,1.1-4,1.1h-15.1c-2,0-3.3-0.4-4-1.1c-0.7-0.7-1.1-2.2-1.1-4.2V287.4z M1016.2,301.5h18.1
				v-16.4h-18.1V301.5z"/>
			<path class="st0" d="M1066.5,304.6V282h17.6c1.6,0,2.8,0.3,3.5,1c0.7,0.7,1.1,1.8,1.1,3.4v5c0,1.5-0.4,2.7-1.1,3.3
				c-0.7,0.7-1.9,1-3.5,1h-3.2l10,8.8h-5.4l-8.9-8.8h-6.4v8.8H1066.5z M1082.6,285h-12.5v7.9h12.5c0.9,0,1.5-0.2,1.8-0.5
				c0.3-0.3,0.5-0.9,0.5-1.8v-3.3c0-0.9-0.2-1.5-0.5-1.8C1084.1,285.1,1083.5,285,1082.6,285"/>
		</g>
		<polygon class="st0" points="1116.2,282 1116.2,304.6 1136.4,304.6 1136.4,301.5 1119.8,301.5 1119.8,282 		"/>
		<polygon class="st0" points="985.1,282 979.2,300 972.9,282 970.7,282 964.3,300 958.4,282 954.7,282 962.6,304.6 965.5,304.6 
			971.7,287.6 977.8,304.6 980.5,304.6 988.4,282 		"/>
		<line class="st1" x1="263.9" y1="258.9" x2="1187.1" y2="258.9"/>
		<g>
			<defs>
				<path id="SVGID_1_" d="M157.9,216.5c0,0,39.9,39.5,33.6,65c0,0,4.3-2.6,9.8-6.2c0.4-0.3,0.9-0.6,1.3-0.9
					c1.5-2.1,3.5-3.4,5.8-4.6c0.6-0.3,1.2-0.6,1.8-1c1.2-1,2.3-2,3.4-2.9c0.1-0.1,0.2-0.2,0.3-0.2c2.2-1.2,4.7-3.4,6.4-4.7
					c0.1-0.1,0,0,0.1-0.1c2.6-2.6,4.2-5,4.2-6.8C224.7,247.6,204.6,226.5,157.9,216.5z"/>
			</defs>
			<clipPath id="SVGID_2_">
				<use xlink:href="#SVGID_1_"  style="overflow:visible;"/>
			</clipPath>
			
				<linearGradient id="SVGID_3_" gradientUnits="userSpaceOnUse" x1="311.6661" y1="442.4006" x2="317.5864" y2="442.4006" gradientTransform="matrix(11.2729 0 0 -11.2729 -3355.4517 5236.1504)">
				<stop  offset="0" style="stop-color:#9D9D9C"/>
				<stop  offset="0.396" style="stop-color:#848483"/>
				<stop  offset="1" style="stop-color:#575756"/>
			</linearGradient>
			<rect x="157.9" y="216.5" class="st2" width="66.7" height="65"/>
		</g>
		<g>
			<defs>
				<path id="SVGID_4_" d="M107.7,161c-4.1,0.2-9.7,0.7-15.9,2.1c-0.8,0.2-6.4,1.7-11.5,4.8c-0.5,0.3-1,0.6-1.5,1
					c-1.6,1.1-3,2.3-4.3,3.7c-0.4,0.5-1.3,1.7-1.5,4c-0.2,14.1,20.9,45.4,20.9,45.4c-0.6-45.1,104.7-35.2,104.7-35.2
					c-39.9-19.9-68.3-25.8-88-25.8C109.7,161,108.7,161,107.7,161"/>
			</defs>
			<clipPath id="SVGID_5_">
				<use xlink:href="#SVGID_4_"  style="overflow:visible;"/>
			</clipPath>
			
				<linearGradient id="SVGID_6_" gradientUnits="userSpaceOnUse" x1="316.716" y1="459.7082" x2="322.6357" y2="459.7082" gradientTransform="matrix(10.4742 -10.4742 -10.4742 -10.4742 1605.2925 8352.0527)">
				<stop  offset="0" style="stop-color:#0A122B"/>
				<stop  offset="0.1139" style="stop-color:#0A122B"/>
				<stop  offset="0.1307" style="stop-color:#0D1933"/>
				<stop  offset="0.2262" style="stop-color:#1B3F5C"/>
				<stop  offset="0.3273" style="stop-color:#276080"/>
				<stop  offset="0.4334" style="stop-color:#317A9D"/>
				<stop  offset="0.5461" style="stop-color:#398EB3"/>
				<stop  offset="0.6685" style="stop-color:#3F9DC3"/>
				<stop  offset="0.8076" style="stop-color:#42A5CC"/>
				<stop  offset="1" style="stop-color:#43A8CF"/>
			</linearGradient>
			<polygon class="st3" points="42.3,191.5 135.7,98 229.2,191.5 135.7,284.9 			"/>
		</g>
		<g>
			<defs>
				<path id="SVGID_7_" d="M73,178.7c6.4,89.9,41.6,134.2,52.4,140.2c0.1,0.1,0.2,0.1,0.3,0.2h5.5c22.8-5.2,89.3-58,89.3-58
					c-86.2,14.8-144.6-77-147.1-86.1C73.1,175.9,72.9,177.1,73,178.7"/>
			</defs>
			<clipPath id="SVGID_8_">
				<use xlink:href="#SVGID_7_"  style="overflow:visible;"/>
			</clipPath>
			
				<linearGradient id="SVGID_9_" gradientUnits="userSpaceOnUse" x1="320.1623" y1="446.2331" x2="326.0848" y2="446.2331" gradientTransform="matrix(24.9198 0 0 -24.9198 -7905.5161 11366.999)">
				<stop  offset="0" style="stop-color:#1A2B4D"/>
				<stop  offset="9.661049e-02" style="stop-color:#21355D"/>
				<stop  offset="0.2661" style="stop-color:#2A4272"/>
				<stop  offset="0.4542" style="stop-color:#314B81"/>
				<stop  offset="0.6737" style="stop-color:#35508A"/>
				<stop  offset="1" style="stop-color:#36528D"/>
			</linearGradient>
			<rect x="72.9" y="174.9" class="st4" width="147.6" height="144.1"/>
		</g>
	</g>
</g>
</svg>
