<?xml version="1.0" encoding="utf-8"?>
<!-- Generator: Adobe Illustrator 23.1.0, SVG Export Plug-In . SVG Version: 6.00 Build 0)  -->
<svg version="1.1" id="Слой_1" xmlns="http://www.w3.org/2000/svg" xmlns:xlink="http://www.w3.org/1999/xlink" x="0px" y="0px"
	 viewBox="0 0 1260 480" style="enable-background:new 0 0 1260 480;" xml:space="preserve">
<style type="text/css">
	.st0{fill:#0F5FDC;}
</style>
<g>
	<path class="st0" d="M242.1,143.8v191.8h-41.4v-80.3h-67v80.3H92.5V143.8h41.1V220h67v-76.2H242.1z"/>
	<path class="st0" d="M264.5,239.7c0-64.7,41.8-98.1,89.5-98.1c44.9,0,77.8,27.4,82.6,68.8h-40c-2.5-20-20.2-33.4-42.6-33.4
		c-28.8,0-51,21.7-51,62.8c0,41.1,22.2,62.5,51,62.5c23,0,40.5-13.4,43.6-33.2h38.3c-3.3,41.1-36.2,68.8-81.9,68.8
		C305.5,337.8,264.5,304.4,264.5,239.7L264.5,239.7z"/>
	<path class="st0" d="M642.4,179.7h-56.8v-35.3h154.7v35.3h-56.8v156.5h-41.1L642.4,179.7L642.4,179.7z"/>
	<path class="st0" d="M857.9,289.3c-5.5,29.9-31.8,49.1-65.8,49.1c-46.9,0-71-36.7-71-71.5s21.4-71,68.3-71
		c46.9,0,68.3,35.9,68.3,67.4c0,5.2-0.3,9.3-0.5,12.3h-99.3c2.7,19.5,15.1,31.5,34.3,31.5c15.4,0,25.5-6,28.5-17.8L857.9,289.3
		L857.9,289.3z M758.3,251.5h61.2c-1.1-15.3-11.8-27.7-30.2-27.7C772,223.8,761.6,232.3,758.3,251.5z"/>
	<path class="st0" d="M875.6,267.1c0-40.3,28.5-71.3,71.3-71.3c36.2,0,65,21.9,67.5,54H976c-2.2-12.3-14-21.4-28-21.4
		c-20.6,0-32.6,16.2-32.6,38.6s12.3,38.4,33.2,38.4c14,0,25.2-8.5,28-20.8h38.9c-4.1,30.7-32.6,53.7-68.5,53.7
		C904.2,338.3,875.6,307.4,875.6,267.1L875.6,267.1z"/>
	<path class="st0" d="M1035.9,144.1h38.1v73.1c8-13.4,23-21.4,42.2-21.4c31,0,51.3,22.5,51.3,54.3v86h-38.1v-77.6
		c0-16.7-11-28.8-26.9-28.8c-16.7,0-28.5,12.9-28.5,30.7v75.6h-38.1V144.1z"/>
	<path class="st0" d="M501.9,300V143.8h-41.1v155.1c0,23.8,12.9,36.7,36.7,36.7h87.9V300H501.9z"/>
</g>
</svg>
