<?xml version="1.0" encoding="utf-8"?>
<!-- Generator: Adobe Illustrator 23.1.0, SVG Export Plug-In . SVG Version: 6.00 Build 0)  -->
<svg version="1.1" id="Слой_1" xmlns="http://www.w3.org/2000/svg" xmlns:xlink="http://www.w3.org/1999/xlink" x="0px" y="0px"
	 viewBox="0 0 1260 480" style="enable-background:new 0 0 1260 480;" xml:space="preserve">
<style type="text/css">
	.st0{fill:#16386E;}
	.st1{fill:#FFFFFF;}
	.st2{fill:#1F3A6E;}
</style>
<g>
	<polygon class="st0" points="360.4,329.9 360.4,382.5 346.7,382.5 346.7,360.4 342.7,360.4 342.7,382.5 329,382.5 329,329.9 
		342.7,329.9 342.7,348.7 346.7,348.7 346.7,329.9 	"/>
	<polygon class="st0" points="368.1,329.9 390.8,329.9 390.8,340.4 381.7,340.4 381.7,350.4 390.3,350.4 390.3,360.4 381.7,360.4 
		381.7,372 391.8,372 391.8,382.5 368.1,382.5 	"/>
	<path class="st0" d="M426.8,345.9h-12.7V342c0-1.8-0.2-3-0.5-3.5l-1.6-0.7c-0.8,0-1.4,0.3-1.8,1c-0.4,0.7-0.6,1.7-0.6,3
		c0,1.7,0.2,3.1,0.7,3.9c0.5,0.9,1.7,2,3.9,3.2c6.1,3.6,9.9,6.6,11.4,8.9c1.6,2.3,2.4,6,2.4,11.2c0,3.7-0.4,6.5-1.3,8.3
		c-0.9,1.8-2.6,3.3-5.1,4.5c-2.5,1.2-5.4,1.8-8.7,1.8c-3.7,0-6.8-0.7-9.4-2.1c-2.6-1.4-4.3-3.1-5.1-5.3c-0.8-2.2-1.2-5.2-1.2-9.1
		v-3.4h12.7v6.4c0,2,0.2,3.2,0.5,3.8c0.4,0.6,1,0.8,1.9,0.8c0.9,0,1.6-0.3,2-1.1c0.4-0.7,0.7-1.8,0.7-3.2c0-3.1-0.4-5.1-1.3-6
		c-0.9-1-3-2.5-6.4-4.8c-3.4-2.3-5.6-3.9-6.7-4.9c-1.1-1-2-2.4-2.7-4.2c-0.7-1.8-1.1-4.1-1.1-6.9c0-4,0.5-7,1.5-8.8
		c1-1.9,2.7-3.3,5-4.4c2.3-1,5.1-1.6,8.3-1.6c3.5,0,6.6,0.6,9.1,1.7c2.5,1.2,4.1,2.6,5,4.3c0.8,1.7,1.2,4.7,1.2,8.9V345.9z"/>
	<path class="st0" d="M480.2,352.8h-13.7v-9.1c0-2.6-0.1-4.3-0.4-5c-0.3-0.6-0.9-1-1.9-1c-1.1,0-1.8,0.4-2.1,1.2
		c-0.3,0.8-0.5,2.5-0.5,5.2v24.4c0,2.5,0.2,4.2,0.5,5c0.3,0.8,1,1.2,2,1.2c1,0,1.7-0.4,2-1.2c0.3-0.8,0.5-2.6,0.5-5.5v-6.6h13.7v2.1
		c0,5.4-0.4,9.3-1.2,11.6c-0.8,2.3-2.5,4.3-5.1,6c-2.6,1.7-5.9,2.6-9.7,2.6c-4,0-7.3-0.7-9.9-2.2c-2.6-1.4-4.3-3.5-5.2-6
		c-0.8-2.6-1.3-6.4-1.3-11.6v-15.4c0-3.8,0.1-6.6,0.4-8.5c0.3-1.9,1-3.7,2.3-5.5c1.3-1.7,3.1-3.1,5.3-4.1c2.3-1,4.9-1.5,7.9-1.5
		c4,0,7.3,0.8,10,2.3c2.6,1.6,4.3,3.5,5.1,5.8c0.8,2.3,1.2,5.9,1.2,10.8V352.8z"/>
	<path class="st0" d="M502.8,362c-2.1,1.5-3.3,2.8-3.7,3.9c-0.3,1-0.5,2.5-0.5,4.5c0,2.2,0.1,3.7,0.4,4.3c0.3,0.6,0.9,1,1.8,1
		c0.8,0,1.4-0.3,1.6-0.8c0.3-0.5,0.4-1.8,0.4-4V362z M498.6,356.1h-12.3v-2.9c0-3.3,0.4-5.9,1.2-7.7c0.8-1.8,2.3-3.4,4.6-4.8
		c2.3-1.4,5.3-2.1,9-2.1c4.4,0,7.8,0.8,10,2.4c2.2,1.6,3.6,3.5,4.1,5.8c0.5,2.3,0.7,7,0.7,14.1v21.6h-12.7v-3.8
		c-0.8,1.6-1.8,2.7-3.1,3.5c-1.3,0.8-2.8,1.2-4.5,1.2c-2.3,0-4.4-0.6-6.3-1.9c-1.9-1.3-2.9-4.1-2.9-8.5v-3.5c0-3.2,0.5-5.4,1.5-6.6
		c1-1.2,3.5-2.5,7.6-4.1c4.3-1.7,6.6-2.8,6.9-3.4c0.3-0.6,0.5-1.8,0.5-3.6c0-2.3-0.2-3.7-0.5-4.4c-0.3-0.7-0.9-1-1.7-1
		c-0.9,0-1.4,0.3-1.7,0.9c-0.2,0.6-0.3,2-0.3,4.5V356.1z"/>
	<path class="st0" d="M539.8,351.7c0-2.2-0.1-3.7-0.4-4.4c-0.3-0.7-0.8-1-1.7-1c-0.8,0-1.3,0.3-1.6,0.9c-0.2,0.6-0.4,2.1-0.4,4.5
		v18.6c0,2.3,0.1,3.8,0.4,4.4c0.3,0.7,0.8,1,1.6,1c0.8,0,1.4-0.3,1.6-1c0.3-0.7,0.4-2.3,0.4-4.8V351.7z M535.7,329.9v12.5
		c1.1-1.3,2.3-2.2,3.6-2.8c1.3-0.6,2.8-0.9,4.3-0.9c1.8,0,3.4,0.3,4.7,0.9c1.3,0.6,2.3,1.4,3,2.4c0.7,1,1.1,2,1.2,3
		c0.1,1,0.2,3,0.2,6.2v19.4c0,3.2-0.2,5.5-0.6,7.1c-0.4,1.5-1.4,2.9-3,4c-1.6,1.1-3.4,1.7-5.6,1.7c-1.5,0-3-0.3-4.3-1
		c-1.3-0.7-2.6-1.7-3.7-3l-0.9,3.3h-12.2v-52.5H535.7z"/>
	<rect x="559.3" y="329.9" class="st0" width="13.5" height="52.5"/>
	<path class="st0" d="M593.1,382.5h-13.5v-43h13.5V382.5z M593.1,336.8h-13.5v-6.8h13.5V336.8z"/>
	<path class="st0" d="M613.3,339.4l-0.2,4c0.9-1.6,2.1-2.8,3.5-3.6c1.4-0.8,3-1.2,4.8-1.2c2.2,0,4.1,0.5,5.5,1.6
		c1.4,1,2.4,2.4,2.8,4c0.4,1.6,0.6,4.3,0.6,8.1v30.2h-13.1v-29.8c0-3-0.1-4.8-0.3-5.4c-0.2-0.6-0.7-1-1.6-1c-0.9,0-1.5,0.4-1.8,1.1
		c-0.2,0.7-0.4,2.7-0.4,6v29.1H600v-43H613.3z"/>
	<path class="st0" d="M653.7,350.8c0-2-0.1-3.2-0.4-3.8c-0.2-0.5-0.8-0.8-1.6-0.8l-1.6,0.9c-0.3,0.6-0.5,1.8-0.5,3.7v14.5
		c0,1.9,0.1,3.2,0.4,3.7l1.5,0.9c0.9,0,1.5-0.3,1.7-1c0.3-0.7,0.4-2.3,0.4-4.7V350.8z M666.8,339.4v33.2c0,4.5-0.1,7.4-0.3,8.7
		c-0.2,1.3-0.9,2.7-2.2,4.2c-1.3,1.5-3,2.6-5.2,3.3c-2.2,0.8-5.1,1.1-8.5,1.1c-4.2,0-7.5-0.7-10.1-2.1c-2.5-1.4-3.9-4.2-3.9-8.4
		h12.7c0,1.9,0.7,2.8,2.1,2.8c1,0,1.7-0.3,2-0.9c0.3-0.6,0.5-1.8,0.5-3.7v-3.3c-1.1,1-2.3,1.8-3.6,2.3c-1.2,0.5-2.6,0.8-3.9,0.8
		c-2.4,0-4.3-0.5-5.8-1.4c-1.5-0.9-2.6-2.2-3.1-3.7c-0.6-1.6-0.8-3.8-0.8-6.6v-15.6c0-4.1,0.7-7,2.2-8.8c1.5-1.8,3.7-2.7,6.8-2.7
		c1.6,0,3.2,0.3,4.5,1c1.4,0.7,2.6,1.7,3.6,3l0.9-3.3H666.8z"/>
	<path class="st0" d="M716.8,345.9h-12.7V342c0-1.8-0.2-3-0.5-3.5l-1.6-0.7c-0.8,0-1.4,0.3-1.9,1c-0.4,0.7-0.6,1.7-0.6,3
		c0,1.7,0.2,3.1,0.7,3.9c0.5,0.9,1.8,2,3.9,3.2c6.1,3.6,9.9,6.6,11.5,8.9c1.6,2.3,2.4,6,2.4,11.2c0,3.7-0.4,6.5-1.3,8.3
		c-0.9,1.8-2.6,3.3-5.1,4.5c-2.5,1.2-5.4,1.8-8.8,1.8c-3.7,0-6.8-0.7-9.4-2.1c-2.6-1.4-4.3-3.1-5.1-5.3c-0.8-2.2-1.2-5.2-1.2-9.1
		v-3.4h12.7v6.4c0,2,0.2,3.2,0.5,3.8c0.4,0.6,1,0.8,1.9,0.8c0.9,0,1.6-0.3,2-1.1c0.4-0.7,0.7-1.8,0.7-3.2c0-3.1-0.4-5.1-1.3-6
		c-0.9-1-3-2.5-6.4-4.8c-3.4-2.3-5.6-3.9-6.7-4.9c-1.1-1-2-2.4-2.7-4.2c-0.7-1.8-1.1-4.1-1.1-6.9c0-4,0.5-7,1.5-8.8
		c1-1.9,2.7-3.3,5-4.4c2.3-1,5.1-1.6,8.3-1.6c3.5,0,6.6,0.6,9.1,1.7c2.5,1.2,4.2,2.6,5,4.3c0.8,1.7,1.2,4.7,1.2,8.9V345.9z"/>
	<path class="st0" d="M751.4,339.4l-3.8,31.1c-0.6,4.9-1.1,8.3-1.5,10.1c-0.4,1.8-1.1,3.3-2,4.5c-0.9,1.2-2.2,2-3.9,2.6
		c-1.6,0.5-4.3,0.8-7.9,0.8h-7.9v-6.9c2,0,3.3-0.1,3.9-0.3l0.9-1.4c0-0.4-0.3-1.8-0.8-4.5l-7.2-36h11.9l4.3,29.1l2.1-29.1H751.4z"/>
	<path class="st0" d="M782.6,353.2h-11.6v-2.3c0-2-0.1-3.3-0.3-3.8c-0.2-0.5-0.8-0.8-1.7-0.8l-1.7,0.7c-0.4,0.5-0.6,1.2-0.6,2.2
		c0,1.3,0.1,2.3,0.3,2.9c0.2,0.6,0.7,1.3,1.6,2c0.9,0.7,2.8,1.8,5.6,3.2c3.8,1.9,6.3,3.6,7.5,5.3c1.2,1.6,1.8,4,1.8,7.2
		c0,3.5-0.5,6.2-1.4,7.9c-0.9,1.8-2.4,3.1-4.5,4.1c-2.1,0.9-4.7,1.4-7.7,1.4c-3.3,0-6.2-0.5-8.5-1.6c-2.4-1-4-2.4-4.9-4.2
		c-0.9-1.8-1.3-4.5-1.3-8v-2.1h11.6v2.7c0,2.3,0.1,3.8,0.4,4.5c0.3,0.7,0.9,1,1.7,1c0.9,0,1.6-0.2,1.9-0.7c0.4-0.5,0.6-1.4,0.6-2.9
		c0-2-0.2-3.4-0.7-3.9c-0.5-0.5-3-2.1-7.6-4.6c-3.8-2.2-6.2-4.1-7-5.9c-0.8-1.8-1.3-3.9-1.3-6.3c0-3.4,0.5-6,1.4-7.6
		c0.9-1.6,2.4-2.9,4.6-3.8c2.2-0.9,4.7-1.3,7.6-1.3c2.8,0,5.3,0.4,7.3,1.1c2,0.7,3.5,1.7,4.6,2.9c1.1,1.2,1.7,2.3,1.9,3.3
		c0.2,1,0.3,2.6,0.3,4.8V353.2z"/>
	<path class="st0" d="M803.1,333.7v6.8h3.7v6.8h-3.7v23c0,2.8,0.1,4.4,0.4,4.7c0.3,0.3,1.5,0.5,3.7,0.5v6.9H802
		c-3,0-5.1-0.1-6.4-0.4c-1.3-0.3-2.4-0.8-3.4-1.7c-1-0.9-1.6-1.9-1.8-3.1c-0.2-1.1-0.4-3.9-0.4-8.1v-21.8h-2.8v-6.8h2.8v-6.8H803.1z
		"/>
	<path class="st0" d="M828.4,354.7v-3.1c0-2.2-0.1-3.7-0.4-4.3l-1.5-1c-0.9,0-1.5,0.3-1.7,0.8c-0.2,0.5-0.3,2-0.3,4.5v3.1H828.4z
		 M841.5,361.7h-17v9.3c0,2,0.1,3.2,0.4,3.8c0.3,0.6,0.8,0.8,1.6,0.8c1,0,1.7-0.4,2-1.1c0.3-0.7,0.5-2.2,0.5-4.3v-5.7h12.4v3.2
		c0,2.7-0.2,4.7-0.5,6.2c-0.3,1.4-1.1,3-2.4,4.6c-1.2,1.6-2.8,2.8-4.7,3.7c-1.9,0.8-4.3,1.2-7.1,1.2c-2.8,0-5.2-0.4-7.3-1.2
		c-2.1-0.8-3.8-1.9-4.9-3.3c-1.2-1.4-2-3-2.5-4.6c-0.4-1.7-0.7-4.1-0.7-7.3v-12.6c0-3.8,0.5-6.7,1.5-8.9c1-2.2,2.7-3.8,5-5
		c2.3-1.2,5-1.7,8-1.7c3.7,0,6.7,0.7,9.1,2.1c2.4,1.4,4.1,3.3,5,5.6c1,2.3,1.4,5.5,1.4,9.7V361.7z"/>
	<path class="st0" d="M860.9,339.4l-0.2,4.1c1-1.6,2.2-2.9,3.6-3.7c1.4-0.8,3-1.2,4.8-1.2c3.5,0,6.3,1.6,8.3,4.9
		c1.1-1.6,2.4-2.9,3.7-3.7c1.4-0.8,2.9-1.2,4.6-1.2c2.2,0,4.1,0.5,5.5,1.6c1.5,1.1,2.4,2.4,2.8,4c0.4,1.6,0.6,4.1,0.6,7.6v30.6H882
		v-28.1c0-3.7-0.1-6-0.4-6.8c-0.3-0.9-0.8-1.3-1.7-1.3c-0.9,0-1.5,0.4-1.8,1.3c-0.3,0.9-0.4,3.2-0.4,6.9v28.1H865v-27.4
		c0-4.2-0.1-6.8-0.3-7.6c-0.2-0.8-0.8-1.3-1.7-1.3l-1.5,0.7l-0.7,1.6c0,0.6-0.1,2-0.1,4.1v29.9H848v-43H860.9z"/>
	<path class="st0" d="M928.1,353.2h-11.6v-2.3c0-2-0.1-3.3-0.3-3.8c-0.2-0.5-0.8-0.8-1.7-0.8l-1.7,0.7c-0.4,0.5-0.5,1.2-0.5,2.2
		c0,1.3,0.1,2.3,0.3,2.9c0.2,0.6,0.7,1.3,1.6,2c0.9,0.7,2.8,1.8,5.6,3.2c3.8,1.9,6.3,3.6,7.5,5.3c1.2,1.6,1.8,4,1.8,7.2
		c0,3.5-0.5,6.2-1.4,7.9c-0.9,1.8-2.4,3.1-4.6,4.1c-2.1,0.9-4.7,1.4-7.7,1.4c-3.3,0-6.2-0.5-8.5-1.6c-2.4-1-4-2.4-4.9-4.2
		c-0.9-1.8-1.3-4.5-1.3-8v-2.1h11.6v2.7c0,2.3,0.1,3.8,0.4,4.5c0.3,0.7,0.9,1,1.7,1c0.9,0,1.6-0.2,1.9-0.7c0.4-0.5,0.6-1.4,0.6-2.9
		c0-2-0.3-3.4-0.7-3.9c-0.5-0.5-3-2.1-7.6-4.6c-3.9-2.2-6.2-4.1-7-5.9c-0.8-1.8-1.3-3.9-1.3-6.3c0-3.4,0.5-6,1.4-7.6
		c0.9-1.6,2.4-2.9,4.6-3.8c2.2-0.9,4.7-1.3,7.6-1.3c2.9,0,5.3,0.4,7.3,1.1c2,0.7,3.5,1.7,4.6,2.9c1.1,1.2,1.7,2.3,1.9,3.3
		c0.2,1,0.3,2.6,0.3,4.8V353.2z"/>
	<rect x="322.5" y="26.9" class="st1" width="614.9" height="282.4"/>
	<path class="st0" d="M369.8,301.6h-39.5V34.7h39v117.5h14.6V34.7h69.7c0,0-29.8,18.5-29.8,46.5v167.5c0,0,5.7,43.2,25.6,52.9h-65.2
		v-92.7h-14.6L369.8,301.6z"/>
	<path class="st0" d="M499.7,34.7h49.7c0,0-21.7,15.4-25.3,39.4c0,0-7.4-27.8-23.4-38.6L499.7,34.7z"/>
	<path class="st0" d="M484.5,77.7c0,0-17.1-2.5-17.8,10.1v166.5c0,0,1.9,10,9.3,9.4c7.4-0.6,7.7-5.1,8.6-9.5v-45.3h78.6v45.5
		c0,0,2.6,8.8,11,9.5c0,0,6.6,0.4,8.7-9.7c0,0,10.5-68.6-58.7-103.5h-39.3L484.5,77.7z"/>
	<path class="st0" d="M524.5,257.8c0,0-5,25.2-21.6,43.7h42C544.9,301.6,531.8,286.2,524.5,257.8"/>
	<path class="st0" d="M604.1,301.6h26.3V34.7H597c0,0,21.3,10.8,22.2,34.8v45.3h-37.8V87.7c0,0,1.2-12.1-14.5-10v38.7
		c0,0,50.5,53.5,56.5,83.1c5.9,29.6,8.6,78.7-17.1,99.4L604.1,301.6z"/>
	<path class="st0" d="M638.1,301.6h292.1c0,0-23.6,0.3-49.9-25.4c0,0-55.3,34.9-121.3,18.6c0,0-35.8-8.9-48.2-19
		c0,0-21.9,22.5-72.8,23.7V301.6z"/>
	<path class="st2" d="M638.1,301.6v0.6h292.1v-1.3h0c-1.1,0-23.9-0.3-49.4-25.2l-0.4-0.4l-0.4,0.3c0,0-2.2,1.4-6.4,3.6
		c-12.5,6.4-42,19.3-78.6,19.3c-11.4,0-23.4-1.2-35.8-4.3c0,0-8.9-2.2-19.4-5.7s-22.5-8.2-28.5-13.1l-0.5-0.4l-0.4,0.4
		c0,0-1.3,1.4-4.1,3.5c-8.5,6.3-30.2,19.2-68.2,20l-0.6,0v2.7v0.6h0.6V301.6h0.6v-2h-0.6l0,0.6c51.1-1.2,73.1-23.8,73.2-23.9
		l-0.5-0.5l-0.4,0.5c12.7,10.2,48.4,19,48.4,19.1c12.5,3.1,24.7,4.3,36.1,4.3c49.1,0,85.6-23,85.7-23.1l-0.3-0.5l-0.5,0.5
		c25.8,25.2,49.1,25.6,50.3,25.6h0v-1.3H638.1V301.6h0.6H638.1z"/>
	<path class="st0" d="M929.7,251c0,0-31.7,8-42.9,21c0,0,20.1,21.6,42.9,22.5V251z"/>
	<path class="st0" d="M873.8,271.4c0,0-81.3-43.8-156.2,0c0,0,72.8,44.4,154.4,1.5L873.8,271.4z"/>
	<path class="st0" d="M638,252.5c0,0,40.3-1.8,66.6,19.2c0,0-28.4,22.5-66.6,20.4V252.5z"/>
	<path class="st0" d="M638,229v16.4c0,0,47.9-2.1,72.8,21.9c0,0,76.3-50.9,170,0c0,0,12.1-15.7,48.8-23.1v-29c0,0-8.6-6.2-10.6-9.2
		c0,0-42.6,52.9-114.4,0.9c0,0-52.6,50.6-113.6,0.9c0,0-21.9,23.1-51.2,21.3L638,229z"/>
	<path class="st0" d="M638,221.5c0,0,30.2,2,47.6-19c0,0-21-23.6-47.6-19.5V221.5z"/>
	<path class="st0" d="M696.9,202.5c0,0,51.5-45.8,101.1-0.6c0,0-42.3,42.9-100.8,2.4l-1.1-0.9L696.9,202.5z"/>
	<path class="st0" d="M810.5,201.8c0,0,57.9-46.4,102.2,0c0,0-37.9,45.2-102,0.9l-0.8-0.5L810.5,201.8z"/>
	<path class="st0" d="M929.7,195.8l-6,5.1c0,0,2.6,3.4,6,5.6V195.8z"/>
	<path class="st0" d="M929.7,187c0,0-8.2,7.4-10.3,9.3l-0.6,0.5c0,0-45.5-52.4-113.7,0.8c0,0-50.8-51.5-114.1-0.4
		c0,0-21.4-24.7-52.9-22.2V165c0,0,32.2,2.9,60.2-20.5c0,0,67.7,47.5,145.8-0.8c0,0,28.2,24.4,85.6,20.7V187z"/>
	<path class="st0" d="M929.7,155.8v-34.6c0,0-50.1-4.4-79.4,17.5c0,0,27.4,23.2,78.5,17.4L929.7,155.8z"/>
	<path class="st0" d="M929.7,113.2c0,0-61.3-2.7-86.5,21.9c0,0-65.3-50.1-144.6,0.1c0,0-25-22.6-60.5-21.3v-11.6
		c0,0,52.4,2.6,94.2-22.5c0,0,82.9,51,188.8,0.1c0,0,3.6,4.3,8.6,7.5V113.2z"/>
	<path class="st0" d="M837.1,139.4c0,0-61.7-43.8-132.5,0.2c0,0,58.4,40.3,131.5,0.7L837.1,139.4z"/>
	<path class="st0" d="M638,121.7c0,0,19.9-5.5,53.4,17.5c0,0-9.4,15.8-53.4,18.1V121.7z"/>
	<polygon class="st0" points="929.7,71.7 929.7,77.4 926.1,74.5 	"/>
	<path class="st0" d="M915.6,75c0,0-83.6-42.4-176.2,0.4C739.4,75.4,809.2,115.5,915.6,75L915.6,75z"/>
	<path class="st0" d="M724.1,75.6c0,0-34.4,21.3-86.1,19.3V57.7c0,0,41.4-3.5,84.5,16.2l2.5,1.4L724.1,75.6z"/>
	<path class="st0" d="M638,49.5c0,0,58.4-1.4,94.4,21.7c0,0,79-49.4,189.2-1l8.1-8.1V34.7H638V49.5z"/>
	<path class="st0" d="M423.4,404.4l-2.7,11.4h-0.9c-0.1-3.1-0.9-5.5-2.3-7c-1.4-1.5-3.3-2.3-5.6-2.3c-2.5,0-4.9,1-7.4,3.1
		c-2.5,2.1-4.5,5.3-6.2,9.6c-1.4,3.5-2.1,7-2.1,10.4c0,3.1,0.8,5.4,2.3,7c1.5,1.6,3.6,2.4,6.2,2.4c2.1,0,4.1-0.5,5.8-1.4
		c1.8-0.9,3.5-2.4,5.3-4.5h1.2c-2.2,3.3-4.4,5.6-6.7,6.9c-2.2,1.3-5,2-8.2,2c-4.3,0-7.8-1.3-10.5-3.9c-2.7-2.6-4-6.1-4-10.3
		c0-4,1.1-7.8,3.2-11.4c2.1-3.6,5.2-6.5,9.1-8.7c4-2.2,7.9-3.3,11.8-3.3c1.5,0,3.4,0.3,5.6,0.9c1.1,0.3,1.9,0.5,2.4,0.5
		c0.9,0,1.8-0.5,2.7-1.4H423.4z"/>
	<path class="st0" d="M436.4,418.1c-0.9,0-1.7,0.3-2.3,0.8c-1.2,1.1-2.6,3.7-4.2,7.8c-1.6,4.1-2.3,7.8-2.3,11.1c0,0.8,0.3,1.5,0.7,2
		l1.8,0.8l1.8-0.6c0.8-0.6,1.7-2.1,2.9-4.3c1.1-2.2,2.1-4.7,2.8-7.3c0.7-2.7,1.1-5.1,1.1-7.4c0-0.9-0.2-1.6-0.7-2.1L436.4,418.1z
		 M437.5,416.7c1.4,0,2.7,0.3,4,1c1.2,0.7,2.2,1.5,2.8,2.7c0.6,1.2,1,2.4,1,3.8c0,2.9-0.8,5.7-2.4,8.6c-1.6,2.9-3.7,5.1-6.3,6.8
		c-2.6,1.7-5.3,2.5-7.9,2.5c-2.4,0-4.3-0.7-5.6-2.1c-1.3-1.4-2-3.2-2-5.3c0-2.5,0.5-4.8,1.5-6.9c1-2.1,2.2-4,3.7-5.6
		c1.5-1.6,3.3-2.9,5.2-3.9C433.4,417.2,435.4,416.7,437.5,416.7"/>
	<path class="st0" d="M461,416.7l-3.4,11.4c2.4-3.3,4.1-5.6,5.3-6.8c1.7-1.8,3.2-3,4.4-3.6c1.2-0.6,2.4-0.9,3.5-0.9
		c1,0,1.8,0.4,2.5,1.1c0.7,0.7,1,1.7,1,2.9c0,1-0.2,2.2-0.7,3.5l-3.6,11.2c-0.3,1-0.5,1.6-0.5,1.9l0.2,0.5l0.4,0.2l0.5-0.2
		c0.6-0.5,1.3-1.2,1.9-2.2l0.8-1.1l1,0.6c-2.6,4.3-5.4,6.5-8.3,6.5c-1.1,0-2-0.3-2.6-0.9c-0.6-0.6-0.9-1.3-0.9-2.1
		c0-0.7,0.2-1.8,0.7-3.3l3.6-11.4l0.4-1.7l-0.3-0.5l-0.6-0.2c-0.7,0-1.6,0.5-2.7,1.4c-2.6,2.4-5.2,5.8-7.7,10.5l-2.3,7.9h-6.8
		l5.1-17c0.5-1.7,0.8-2.9,0.8-3.6l-0.2-0.8l-0.8-0.5c-0.3-0.1-1-0.2-2-0.2l0.2-1l9.3-1.6H461z"/>
	<path class="st0" d="M490.5,416.7l-3.4,11.4c2.4-3.3,4.1-5.6,5.3-6.8c1.7-1.8,3.2-3,4.4-3.6c1.2-0.6,2.4-0.9,3.5-0.9
		c1,0,1.8,0.4,2.5,1.1c0.7,0.7,1,1.7,1,2.9c0,1-0.2,2.2-0.7,3.5l-3.6,11.2c-0.3,1-0.5,1.6-0.5,1.9l0.2,0.5l0.4,0.2l0.6-0.2
		c0.6-0.5,1.2-1.2,1.9-2.2l0.8-1.1l1,0.6c-2.6,4.3-5.4,6.5-8.3,6.5c-1.1,0-2-0.3-2.6-0.9c-0.6-0.6-0.9-1.3-0.9-2.1
		c0-0.7,0.2-1.8,0.7-3.3l3.6-11.4l0.4-1.7l-0.3-0.5l-0.6-0.2c-0.7,0-1.6,0.5-2.7,1.4c-2.6,2.4-5.2,5.8-7.7,10.5l-2.3,7.9h-6.9
		l5.1-17c0.5-1.7,0.8-2.9,0.8-3.6l-0.2-0.8l-0.8-0.5c-0.3-0.1-1-0.2-2-0.2l0.2-1l9.3-1.6H490.5z"/>
	<path class="st0" d="M513.8,429.9c1.6-0.2,2.8-0.5,3.7-0.9c0.9-0.4,1.7-1,2.5-1.9c0.8-0.9,1.6-2,2.2-3.3c0.6-1.3,0.9-2.6,0.9-3.7
		l-0.4-1.2l-1-0.4c-0.9,0-1.8,0.6-2.9,1.8C516.7,422.4,515.1,425.6,513.8,429.9 M513.6,431.3c-0.2,1.2-0.2,2.1-0.2,2.8
		c0,1.3,0.4,2.4,1.1,3.2c0.8,0.8,1.8,1.2,3.1,1.2c1.2,0,2.5-0.3,3.7-0.8c1.2-0.5,2.7-1.5,4.3-2.8l0.8,0.7c-2,2.3-4,3.9-5.9,4.9
		c-1.9,1-4.1,1.5-6.4,1.5c-3,0-5-0.7-6.1-2.1c-1.1-1.4-1.7-3-1.7-4.9c0-2.9,0.8-5.8,2.5-8.7c1.7-2.9,4-5.2,6.9-7
		c2.9-1.8,5.8-2.6,8.8-2.6c1.5,0,2.6,0.3,3.4,1.1c0.8,0.7,1.1,1.6,1.1,2.7c0,1.3-0.4,2.5-1.1,3.8c-1,1.7-2.3,3-3.9,4
		c-1.6,1-3.3,1.8-5.2,2.3C517.5,430.8,515.7,431.1,513.6,431.3"/>
	<path class="st0" d="M548.9,434.9l0.8,0.7c-1.7,2-3.4,3.5-5.1,4.5c-2.2,1.2-4.5,1.9-6.9,1.9c-1.6,0-3-0.3-4.3-1
		c-1.2-0.7-2.1-1.6-2.7-2.9c-0.6-1.2-0.9-2.5-0.9-3.8c0-2.9,0.8-5.8,2.4-8.6c1.6-2.8,3.7-5,6.3-6.7c2.6-1.6,5.1-2.5,7.6-2.5
		c2,0,3.5,0.4,4.5,1.3c1,0.9,1.5,2,1.5,3.3c0,1.2-0.4,2.2-1.2,3c-0.8,0.9-1.6,1.3-2.6,1.3c-0.8,0-1.5-0.3-2-0.8l-0.8-1.9
		c0-1,0.5-1.8,1.4-2.5l1-1.3l-0.4-0.8l-1.4-0.4c-1.5,0-2.9,0.6-4.2,1.8c-1.7,1.6-3.1,3.6-4,6.1c-0.9,2.4-1.4,4.8-1.4,7
		c0,1.7,0.5,3.1,1.4,4.2s2.1,1.6,3.4,1.6c1.1,0,2.4-0.3,3.7-0.9C546.5,437,547.7,436.1,548.9,434.9"/>
	<path class="st0" d="M568,410.2l-2.2,7.2h3l-0.9,3.1h-3l-4.8,15.6c-0.3,1-0.5,1.7-0.5,2.2l0.2,0.4l0.5,0.2l0.9-0.4
		c0.8-0.6,1.8-1.7,2.8-3.2l0.9,0.6c-1.2,2.1-2.6,3.7-4,4.7c-1.5,1-2.9,1.5-4.3,1.5c-1.2,0-2.1-0.3-2.8-0.9c-0.7-0.6-1-1.4-1-2.3
		c0-1,0.3-2.4,0.7-4l4.5-14.4h-3.4l0.5-2c2.2-0.8,4-1.8,5.6-2.9c1.6-1.1,3.5-2.9,5.8-5.4H568z"/>
	<path class="st0" d="M580.7,416.7l-5.9,18.7c-0.3,1-0.5,1.8-0.5,2.1l0.2,0.6l0.5,0.3l0.9-0.4c0.8-0.7,1.7-1.9,2.8-3.7l0.9,0.6
		c-2.7,4.9-5.6,7.3-8.6,7.3c-1.2,0-2.1-0.3-2.8-0.9c-0.7-0.7-1-1.5-1-2.4c0-0.7,0.2-1.5,0.5-2.5l4.1-12.7c0.4-1.2,0.6-2.2,0.6-2.8
		l-0.5-1l-1.5-0.5l-1,0l0.3-1.1l9.3-1.5H580.7z M578.5,404.4c1.1,0,2,0.4,2.8,1.2c0.8,0.8,1.1,1.7,1.1,2.8s-0.4,2-1.1,2.8
		c-0.8,0.8-1.7,1.2-2.8,1.2c-1.1,0-2-0.4-2.8-1.2c-0.8-0.8-1.1-1.7-1.1-2.8s0.4-2,1.1-2.8C576.5,404.8,577.4,404.4,578.5,404.4"/>
	<path class="st0" d="M595.3,416.7l-3.4,11.4c2.3-3.3,4.1-5.6,5.3-6.8c1.7-1.8,3.2-3,4.4-3.6c1.2-0.6,2.4-0.9,3.5-0.9
		c1,0,1.8,0.4,2.5,1.1c0.7,0.7,1,1.7,1,2.9c0,1-0.2,2.2-0.7,3.5l-3.6,11.2c-0.3,1-0.5,1.6-0.5,1.9l0.2,0.5l0.4,0.2l0.6-0.2
		c0.6-0.5,1.2-1.2,1.9-2.2l0.8-1.1l1,0.6c-2.6,4.3-5.4,6.5-8.3,6.5c-1.1,0-2-0.3-2.6-0.9c-0.6-0.6-0.9-1.3-0.9-2.1
		c0-0.7,0.2-1.8,0.7-3.3l3.6-11.4l0.4-1.7l-0.3-0.5l-0.6-0.2c-0.7,0-1.6,0.5-2.7,1.4c-2.7,2.4-5.2,5.8-7.7,10.5l-2.3,7.9h-6.8
		l5.1-17c0.5-1.7,0.8-2.9,0.8-3.6l-0.2-0.8l-0.8-0.5c-0.3-0.1-1-0.2-2-0.2l0.2-1l9.3-1.6H595.3z"/>
	<path class="st0" d="M616.3,442.4c-1.7,0.7-2.9,1.4-3.5,2.1c-0.6,0.8-0.9,1.6-0.9,2.5c0,1.2,0.6,2.2,1.8,3.1
		c1.2,0.9,3.1,1.4,5.8,1.4c2.2,0,3.8-0.4,4.8-1.2c1-0.8,1.5-1.7,1.5-2.8c0-0.9-0.4-1.7-1.3-2.3c-0.9-0.6-2.6-1.2-5.2-1.9
		C618.1,442.9,617.1,442.7,616.3,442.4 M625.5,418c-0.9,0-1.6,0.3-2.2,0.8c-0.9,0.9-1.8,2.3-2.5,4.4c-0.7,2-1.1,4-1.1,5.8
		c0,0.9,0.3,1.6,0.8,2.1l1.9,0.8l1.9-0.7c1-1,1.9-2.5,2.6-4.7c0.7-2.1,1.1-4.1,1.1-5.8l-0.7-1.9L625.5,418z M631,418.2h7.1l-0.9,2.9
		h-3.7c0.6,1.1,0.9,2,0.9,3c0,1.6-0.4,3.1-1.3,4.5c-0.9,1.4-2.2,2.5-3.9,3.3c-1.7,0.8-3.6,1.2-5.7,1.2l-1.8-0.1l-2.2-0.3
		c-1.2,0.6-1.9,1.1-2.2,1.4l-0.3,0.8l0.4,0.8c0.5,0.4,1.1,0.7,2,0.9c3.6,0.8,6,1.4,7.1,1.9c1.6,0.7,2.8,1.5,3.5,2.5
		c0.8,1,1.2,2.3,1.2,3.7c0,2.2-1,4.1-3.1,5.8c-2,1.6-5.2,2.5-9.4,2.5c-4.3,0-7.5-0.7-9.5-2.1c-1.5-1-2.2-2.3-2.2-3.7
		c0-1.1,0.5-2.1,1.5-3c1-0.9,3.1-1.7,6.2-2.4c-1.1-0.6-1.8-1.2-2.2-1.6l-0.8-2.1c0-1.2,0.5-2.2,1.4-3.1c0.9-0.9,2.5-1.8,4.7-2.7
		c-1.7-0.7-3-1.6-3.7-2.7c-0.8-1.1-1.2-2.4-1.2-3.8c0-1.6,0.5-3,1.4-4.4c0.9-1.4,2.3-2.5,4.1-3.4c1.8-0.9,3.9-1.3,6.3-1.3
		c1.5,0,2.8,0.2,4,0.5C629.5,417.3,630.2,417.7,631,418.2"/>
	<path class="st0" d="M668.5,405.2l11.2,24.1l5-17.6c0.3-1,0.4-1.8,0.4-2.6c0-0.9-0.3-1.6-0.8-2.1c-0.6-0.5-1.5-0.9-2.9-0.9l0.3-0.9
		h11.3l-0.3,0.9c-1.4,0.1-2.7,0.5-3.6,1.2c-0.9,0.7-1.7,2.2-2.4,4.4l-8.5,29.9h-0.9L662.7,411l-6.9,23.9c-0.2,0.8-0.3,1.6-0.3,2.3
		c0,1,0.3,1.7,0.9,2.3c0.6,0.6,1.6,0.9,3,0.9l-0.2,0.9h-11.7l0.2-0.9c1,0,1.7-0.1,2.2-0.3c0.7-0.3,1.5-0.8,2.2-1.6
		c0.7-0.8,1.3-2,1.7-3.5l7.5-26.3c-0.9-1.1-1.6-1.8-2.2-2.1c-0.6-0.3-1.5-0.5-2.7-0.5l0.2-0.9H668.5z"/>
	<path class="st0" d="M696.6,429.9c1.6-0.2,2.8-0.5,3.7-0.9c0.9-0.4,1.7-1,2.5-1.9c0.8-0.9,1.6-2,2.2-3.3c0.6-1.3,0.9-2.6,0.9-3.7
		l-0.4-1.2l-1.1-0.4c-0.9,0-1.8,0.6-2.9,1.8C699.5,422.4,697.9,425.6,696.6,429.9 M696.3,431.3c-0.2,1.2-0.2,2.1-0.2,2.8
		c0,1.3,0.4,2.4,1.2,3.2c0.8,0.8,1.8,1.2,3.1,1.2c1.2,0,2.5-0.3,3.7-0.8c1.2-0.5,2.7-1.5,4.4-2.8l0.8,0.7c-2,2.3-4,3.9-5.9,4.9
		c-1.9,1-4.1,1.5-6.4,1.5c-3,0-5-0.7-6.1-2.1c-1.1-1.4-1.7-3-1.7-4.9c0-2.9,0.9-5.8,2.5-8.7c1.7-2.9,4-5.2,6.9-7
		c2.9-1.8,5.8-2.6,8.8-2.6c1.5,0,2.6,0.3,3.4,1.1c0.8,0.7,1.1,1.6,1.1,2.7c0,1.3-0.4,2.5-1.1,3.8c-1,1.7-2.3,3-3.9,4
		c-1.6,1-3.3,1.8-5.2,2.3C700.2,430.8,698.5,431.1,696.3,431.3"/>
	<path class="st0" d="M727.4,410.2l-2.2,7.2h3l-0.9,3.1h-3l-4.8,15.6c-0.3,1-0.5,1.7-0.5,2.2l0.3,0.4l0.5,0.2l0.9-0.4
		c0.8-0.6,1.8-1.7,2.8-3.2l0.9,0.6c-1.2,2.1-2.6,3.7-4,4.7c-1.5,1-2.9,1.5-4.3,1.5c-1.2,0-2.1-0.3-2.8-0.9c-0.7-0.6-1-1.4-1-2.3
		c0-1,0.2-2.4,0.7-4l4.5-14.4H714l0.5-2c2.2-0.8,4-1.8,5.6-2.9c1.6-1.1,3.5-2.9,5.8-5.4H727.4z"/>
	<path class="st0" d="M749,416.7l2,18.6c2.9-2.6,4.9-4.7,5.8-6.2c0.9-1.5,1.3-2.8,1.3-3.9l-0.3-1.2l-1.1-1.6l-0.9-1.3l-0.2-1.2
		c0-0.9,0.3-1.7,0.9-2.3c0.6-0.6,1.4-0.9,2.4-0.9c0.9,0,1.7,0.3,2.2,0.9c0.8,0.9,1.2,2,1.2,3.2c0,2-1,4.5-2.9,7.7
		c-1.9,3.2-6.4,7.7-13.4,13.5h-1.1l-1.7-16.2L731.8,442h-1.1c0.3-4.9,0.4-9.5,0.4-13.8c0-2.8-0.2-4.8-0.5-6l-1-1.7l-1.5-0.5
		l-1.1,0.1v-1l9.1-2.4c0.5,1.4,0.8,2.7,1,3.9c0.3,1.9,0.5,4.1,0.5,6.6c0,0.9,0,2.3-0.1,4.1l10.3-14.6H749z"/>
	<path class="st0" d="M777.8,418.1c-0.9,0-1.7,0.3-2.3,0.8c-1.2,1.1-2.7,3.7-4.2,7.8c-1.6,4.1-2.3,7.8-2.3,11.1c0,0.8,0.2,1.5,0.7,2
		l1.8,0.8l1.8-0.6c0.8-0.6,1.7-2.1,2.9-4.3c1.1-2.2,2.1-4.7,2.8-7.3c0.7-2.7,1.1-5.1,1.1-7.4c0-0.9-0.2-1.6-0.7-2.1L777.8,418.1z
		 M778.9,416.7c1.4,0,2.7,0.3,3.9,1c1.2,0.7,2.2,1.5,2.8,2.7c0.6,1.2,0.9,2.4,0.9,3.8c0,2.9-0.8,5.7-2.4,8.6
		c-1.6,2.9-3.7,5.1-6.3,6.8c-2.6,1.7-5.3,2.5-7.9,2.5c-2.4,0-4.3-0.7-5.6-2.1c-1.3-1.4-2-3.2-2-5.3c0-2.5,0.5-4.8,1.5-6.9
		c1-2.1,2.2-4,3.7-5.6c1.5-1.6,3.3-2.9,5.2-3.9C774.8,417.2,776.8,416.7,778.9,416.7"/>
	<path class="st0" d="M801.4,416.7l-4.7,14.9c3.2-7.3,5.6-11.8,7.2-13.5c0.9-1,2-1.5,3-1.5l1.8,0.8c0.5,0.5,0.7,1.3,0.7,2.3
		c0,1.7-0.4,3.2-1.2,4.3l-1.7,1.1l-1.6-1l-0.7-1.1l-0.5-0.2l-0.5,0.1c-0.4,0.2-0.9,0.7-1.5,1.6c-0.6,0.8-1.4,2.2-2.3,4.1
		c-0.9,1.9-1.6,3.6-2.1,4.9c-0.5,1.4-1.3,3.9-2.3,7.6h-6.5l5-17.6c0.3-1.3,0.5-2.2,0.5-2.6l-0.3-1.1l-0.9-0.6
		c-0.4-0.1-1.1-0.2-2.3-0.2l0.2-0.8l8.9-1.8H801.4z"/>
	<path class="st0" d="M825.7,404.4l-7.2,25.1l6-5.5l2-1.8l1.2-1.5l0.2-0.7l-0.5-0.9c-0.4-0.2-1.2-0.4-2.5-0.5l0.2-1h10.8l-0.2,1
		c-1.3,0.3-2.3,0.7-3.1,1.1c-0.6,0.3-1.4,0.8-2.3,1.5c-1.4,1.1-2.3,1.8-2.9,2.4l-1.2,1.1l1.6,7.2c0.6,2.8,1.1,4.4,1.4,4.8l0.7,0.4
		c0.6,0,1.3-0.8,2.2-2.3l0.5-0.9l1,0.7c-1.3,2.6-2.8,4.6-4.5,6c-1.1,0.9-2.1,1.4-3,1.4c-0.9,0-1.6-0.3-2.3-1
		c-0.6-0.7-1.2-2.4-1.8-5.1l-1.3-6l-2.9,2.6l-2.6,9.2h-6.8l8.8-30c0.4-1.3,0.6-2.1,0.6-2.6l-0.2-1l-0.6-0.6
		c-0.3-0.1-0.8-0.2-1.6-0.2l0.2-1l8.7-1.6H825.7z"/>
	<path class="st0" d="M854.5,416.7l-1.1,8.2h-1c-0.1-2.1-0.8-3.8-2-5c-1.2-1.2-2.4-1.8-3.7-1.8c-0.8,0-1.5,0.2-2,0.7l-0.8,1.7
		l0.3,1.6c0.2,0.5,0.7,1.2,1.5,2c2.8,3,4.5,5.1,5.1,6.2c0.6,1.1,0.9,2.3,0.9,3.6c0,1.4-0.4,2.7-1.1,3.9c-0.7,1.2-1.8,2.2-3.2,3
		c-1.4,0.8-2.9,1.1-4.4,1.1c-1,0-2.3-0.2-3.8-0.6c-1-0.3-1.7-0.4-2.2-0.4l-1,0.2l-0.8,0.8h-1l1.3-8.8h0.9c0.6,2.2,1.2,3.7,1.7,4.6
		c0.5,0.9,1.3,1.6,2.2,2.2c0.9,0.5,1.8,0.8,2.6,0.8c1,0,1.8-0.3,2.4-0.9c0.6-0.6,1-1.3,1-2.2c0-0.9-0.2-1.6-0.6-2.4
		c-0.4-0.8-1.4-2-2.9-3.6c-2.1-2.3-3.4-4-4.1-5.2c-0.5-0.9-0.7-1.9-0.7-3c0-1.9,0.7-3.5,2.1-4.8c1.4-1.3,3.3-1.9,5.8-1.9
		c1.1,0,2.4,0.2,4,0.6c0.8,0.2,1.4,0.3,1.9,0.3l1.7-0.9H854.5z"/>
	<path class="st0" d="M866,406.2v3.7h-0.4c-0.2-0.9-0.5-1.5-0.7-1.9l-1.1-0.9l-1.4-0.2h-1v10.7l0.1,1.3l0.5,0.5l0.9,0.2h0.5v0.4
		h-7.2v-0.4h0.5l1-0.2l0.4-0.5l0.1-1.3V407h-1c-0.9,0-1.6,0.2-2,0.6c-0.6,0.5-1,1.3-1.1,2.4h-0.4v-3.7H866z"/>
	<polygon class="st0" points="876.4,415.3 880.2,406.2 885.8,406.2 885.8,406.5 885.4,406.5 884.4,406.8 884,407.2 883.9,408.5 
		883.9,417.7 884,419 884.5,419.5 885.4,419.7 885.8,419.7 885.8,420.1 878.6,420.1 878.6,419.7 879.1,419.7 880.1,419.5 880.5,419 
		880.6,417.7 880.6,407.4 875.2,420.1 875,420.1 869.6,407.5 869.6,417.3 869.6,418.5 870.2,419.4 871.6,419.7 871.6,420.1 
		866.9,420.1 866.9,419.7 867,419.7 867.9,419.6 868.5,419.1 868.8,418.4 868.8,417.3 868.8,408.5 868.7,407.2 868.3,406.8 
		867.3,406.5 866.9,406.5 866.9,406.2 872.5,406.2 	"/>
</g>
</svg>
