<?xml version="1.0" encoding="utf-8"?>
<!-- Generator: Adobe Illustrator 23.1.0, SVG Export Plug-In . SVG Version: 6.00 Build 0)  -->
<svg version="1.2" baseProfile="tiny" id="Слой_1"
	 xmlns="http://www.w3.org/2000/svg" xmlns:xlink="http://www.w3.org/1999/xlink" x="0px" y="0px" viewBox="0 0 1260 480"
	 xml:space="preserve">
<g>
	<polygon points="477.6,229 386,229 386,160 364.4,160 364.4,320 386,320 386,248.6 477.6,248.6 477.6,320 499,320 499,160 
		477.6,160 	"/>
	<rect x="537.1" y="160" width="21.6" height="160"/>
	<path d="M713.5,247.8c6.4-8.7,9.7-19.6,9.7-32.2c0-17.2-6-31-17.7-40.9c-11.6-9.8-27.8-14.8-48.1-14.8h-60.5v160h21.6v-49.1h38.9
		c3.8,0,7.5-0.2,11.1-0.5l35.3,49.6h24.4l-38.7-54.4C699.6,261.7,707.7,255.7,713.5,247.8 M618.4,179.4h38.5
		c14.6,0,25.9,3.2,33.5,9.5c7.5,6.2,11.2,15,11.2,26.8c0,11.5-3.7,20.2-11.2,26.5c-7.6,6.3-18.8,9.6-33.5,9.6h-38.5V179.4z"/>
	<path d="M828.5,239.2c-7.1-2.8-16.4-5.6-27.9-8.4c-9.5-2.3-17.1-4.5-22.6-6.5c-5.3-1.8-9.7-4.5-13.2-8c-3.3-3.3-4.9-7.6-4.9-13.1
		c0-7.5,3-13.4,9.2-18.1c6.4-4.9,16.1-7.3,29-7.3c6.8,0,13.8,1,20.9,3.1c7.1,2.1,13.8,5.2,20.1,9.3l2.6,1.7l7.6-17.9l-1.8-1.2
		c-6.4-4.4-14.1-7.9-22.8-10.4c-8.7-2.5-17.7-3.7-26.7-3.7c-13,0-24.1,2-32.9,6c-9,4-15.8,9.5-20.1,16.3c-4.4,6.8-6.6,14.5-6.6,22.8
		c0,10.2,2.7,18.4,8.1,24.5c5.2,5.9,11.5,10.3,18.8,13.2c7,2.8,16.5,5.6,28.2,8.6c9.6,2.3,17.2,4.5,22.5,6.4
		c5.1,1.9,9.4,4.5,12.9,7.9c3.3,3.2,4.8,7.4,4.8,12.9c0,7.3-3,13.1-9.3,17.7c-6.4,4.7-16.4,7.1-29.6,7.1c-9.5,0-18.9-1.7-27.8-5
		c-8.9-3.3-16.1-7.7-21.4-13l-2.6-2.6l-8.9,17.5l1.3,1.3c6,6.3,14.6,11.5,25.5,15.3c10.8,3.8,22.2,5.7,33.9,5.7
		c13,0,24.1-2,33.1-5.8c9.1-4,16-9.4,20.5-16.2c4.5-6.8,6.7-14.5,6.7-22.8c0-10-2.7-18.2-7.9-24.2
		C842.2,246.5,835.8,242.1,828.5,239.2"/>
	<path d="M916.9,186.6c9.6-5.4,20.4-8.1,32.1-8.1c17.6,0,32.4,5.9,43.9,17.6l1.9,1.9l14-14l-1.7-1.9c-7-7.6-15.7-13.5-25.7-17.5
		c-10-3.9-21-5.9-32.8-5.9c-15.7,0-30.1,3.5-42.8,10.5c-12.8,7-22.9,16.8-30.1,29.2c-7.2,12.4-10.9,26.4-10.9,41.7
		c0,15.3,3.7,29.3,10.9,41.7c7.2,12.4,17.3,22.2,30,29.2c12.6,7,27,10.5,42.7,10.5c11.8,0,22.9-2,32.9-6c10.1-4,18.8-9.9,25.8-17.6
		l1.7-1.9l-14.1-14.1l-1.9,1.9c-11.4,11.8-26.1,17.8-43.9,17.8c-11.7,0-22.5-2.7-32.1-8.1c-9.6-5.3-17.2-12.8-22.6-22
		c-5.4-9.3-8.2-19.8-8.2-31.4c0-11.6,2.7-22.1,8.2-31.4C899.7,199.3,907.3,191.9,916.9,186.6"/>
	<polygon points="1143.6,160 1143.6,229 1052,229 1052,160 1030.4,160 1030.4,320 1052,320 1052,248.6 1143.6,248.6 1143.6,320 
		1165,320 1165,160 	"/>
	<path fill="#D20A11" d="M260.4,138.3h-45.9c-2.7,0-4.9,2.2-4.9,4.9V189l-58.8,34l58.8,34v79.9c0,2.7,2.2,4.9,4.9,4.9h45.9
		c2.7,0,4.9-2.2,4.9-4.9V143.2C265.3,140.5,263.1,138.3,260.4,138.3"/>
	<path fill="#A4130E" d="M150.8,222.9v-79.7c0-2.7-2.2-4.9-4.9-4.9H99.9c-2.7,0-4.9,2.2-4.9,4.9v193.6c0,2.7,2.2,4.9,4.9,4.9h45.9
		c2.7,0,4.9-2.2,4.9-4.9v-46l58.8-34L150.8,222.9z"/>
</g>
</svg>
