<?xml version="1.0" encoding="utf-8"?>
<!-- Generator: Adobe Illustrator 23.1.0, SVG Export Plug-In . SVG Version: 6.00 Build 0)  -->
<svg version="1.1" id="Слой_1" xmlns="http://www.w3.org/2000/svg" xmlns:xlink="http://www.w3.org/1999/xlink" x="0px" y="0px"
	 viewBox="0 0 1260 480" style="enable-background:new 0 0 1260 480;" xml:space="preserve">
<g>
	<path d="M311.3,356.2h21.1c15.7,0,25.8,10.4,25.8,31.4c0,21-10.1,31.4-25.8,31.4h-21.1V356.2z M332.4,412.4
		c10.4,0,17.7-7.2,17.7-19.6v-10.3c0-12.4-7.3-19.6-17.7-19.6h-13.5v49.5H332.4z M370.2,357.7v-1.2c0-2.4,1.4-4.1,4.4-4.1
		c3.1,0,4.4,1.6,4.4,4.1v1.2c0,2.4-1.4,4.1-4.4,4.1C371.6,361.7,370.2,360.1,370.2,357.7 M371,372.6h7.2v46.5H371V372.6z
		 M389.1,411.1l5.1-4.1c3.6,4.5,7.9,7.1,13.8,7.1c6.1,0,9.7-2.8,9.7-7.6c0-3.6-2-6.4-8.1-7.3l-3.7-0.5c-8.6-1.3-14.9-4.8-14.9-13.4
		c0-9.2,7.1-13.7,16.6-13.7c7.5,0,12.4,2.8,16.2,7.5l-4.8,4.3c-2.1-2.9-6-5.7-12-5.7c-5.9,0-9.1,2.8-9.1,7.2c0,4.5,3.2,6.3,8.9,7.2
		l3.6,0.5c10.3,1.5,14.2,6,14.2,13.1c0,9-6.6,14.5-17.2,14.5C398.9,420.2,393.3,416.6,389.1,411.1 M447,419.1c-5,0-7.7-3.2-7.7-7.7
		v-32.5h-7.7v-6.3h4.3c3.1,0,4.1-1.1,4.1-4.2v-8.6h6.5v12.9h10.2v6.3h-10.2v33.9h9.5v6.3H447z M468.4,419.1v-46.5h7.2v8.6h0.5
		c1.6-4.4,5.9-8.6,13.4-8.6h2.8v7.2H488c-7.7,0-12.4,3.3-12.4,7.7v31.5H468.4z M500.6,357.7v-1.2c0-2.4,1.4-4.1,4.4-4.1
		c3.1,0,4.4,1.6,4.4,4.1v1.2c0,2.4-1.4,4.1-4.4,4.1C502,361.7,500.6,360.1,500.6,357.7 M501.4,372.6h7.2v46.5h-7.2V372.6z
		 M523.9,352.5h7.2v27.7h0.4c2.4-5.9,7.2-8.6,13.6-8.6c11.6,0,18.9,9.5,18.9,24.3c0,14.9-7.3,24.3-18.9,24.3
		c-6.4,0-10.8-2.9-13.6-8.6h-0.4v7.6h-7.2V352.5z M556.3,399.8v-7.9c0-8.3-5-13.9-13.1-13.9c-6.6,0-12,3.8-12,8.9v17.3
		c0,6,5.4,9.5,12,9.5C551.2,413.7,556.3,408.1,556.3,399.8 M604.8,411.5h-0.4c-1.8,4.4-5.3,8.6-13.1,8.6c-9.5,0-15.7-6.5-15.7-17.7
		v-29.8h7.2v28.5c0,8.3,3.7,12.5,10.6,12.5c5.7,0,11.3-2.8,11.3-8.9v-32.1h7.2v46.5h-7.2V411.5z M637.6,419.1c-5,0-7.7-3.2-7.7-7.7
		v-32.5h-7.7v-6.3h4.3c3.1,0,4.1-1.1,4.1-4.2v-8.6h6.5v12.9h10.2v6.3h-10.2v33.9h9.5v6.3H637.6z M655.1,395.9
		c0-14.8,8.6-24.3,21-24.3s21,9.5,21,24.3c0,14.8-8.6,24.3-21,24.3S655.1,410.6,655.1,395.9 M689.4,399.2v-6.7
		c0-9.8-5.5-14.6-13.2-14.6c-7.7,0-13.2,4.8-13.2,14.6v6.7c0,9.8,5.5,14.6,13.2,14.6C683.9,413.8,689.4,409,689.4,399.2 M709,419.1
		v-46.5h7.2v8.6h0.5c1.6-4.4,5.9-8.6,13.4-8.6h2.8v7.2h-4.2c-7.7,0-12.4,3.3-12.4,7.7v31.5H709z"/>
	<path d="M311.3,280.4h115.6V297H311.3V280.4z M311.3,265.4h115.6v-16.5H311.3V265.4z M344.3,233.9h49.5v-16.5h-49.5V233.9z
		 M344.3,202.4h49.5v-16.5h-49.5V202.4z M344.3,170.9h49.5v-16.5h-49.5V170.9z M393.9,122.9h-49.5v16.5h49.5V122.9z M311.3,107.9
		h115.6V91.3H311.3V107.9z M311.3,76.3h115.6V59.8H311.3V76.3z M443.4,265.4h176.2c2.9-5.1,5.2-10.6,6.6-16.5H443.4V265.4z
		 M605.8,185.9H476.4v16.5h143.1C615.9,196.1,611.2,190.6,605.8,185.9 M476.4,154.4v16.5h129.3c5.5-4.7,10.1-10.2,13.8-16.5H476.4z
		 M619.6,91.3H443.4v16.5h182.8C624.8,102,622.5,96.4,619.6,91.3 M565,59.8H443.4v16.5h164.1C596.3,66.1,581.4,59.8,565,59.8
		 M476.4,139.4H526v-16.5h-49.5V139.4z M572.5,139.4h53.3c1.4-5.3,2.2-10.8,2.2-16.5h-55.5V139.4z M476.4,233.9H526v-16.5h-49.5
		V233.9z M572.5,217.4v16.5H628c0-5.7-0.8-11.2-2.2-16.5H572.5z M443.4,297H565c16.5,0,31.3-6.3,42.5-16.5H443.4V297z M773.6,297
		l5.7-16.5h-11.5L773.6,297z M762.6,265.4h22l5.8-16.5h-33.6L762.6,265.4z M751.5,233.9h44.1l5.8-16.5h-55.7L751.5,233.9z
		 M740.5,202.4h66.3l5.8-16.5h-77.9L740.5,202.4z M674.5,139.4h89.2l-5.7-16.5h-83.5V139.4z M794.4,107.9h111.3V91.3H800.2
		L794.4,107.9z M811.1,59.8l-5.7,16.5h100.3V59.8H811.1z M641.5,297h82.5v-16.5h-82.5V297z M641.5,265.4h82.5v-16.5h-82.5V265.4z
		 M674.5,233.9h49.5v-16.5h-49.5V233.9z M674.5,202.4h49.5v-16.5h-49.5V202.4z M872.6,122.9h-83.5l-5.7,16.5h89.2V122.9z
		 M823.1,170.9h49.5v-16.5h-94.4l-4.6,13.3l-4.6-13.3h-94.4v16.5h49.5l0-15.2l5.3,15.2h88.4l5.3-15.2V170.9z M872.6,185.9h-49.5
		v16.5h49.5V185.9z M823.1,233.9h49.5v-16.5h-49.5V233.9z M823.1,265.4h82.5v-16.5h-82.5V265.4z M823.1,297h82.5v-16.5h-82.5V297z
		 M752.8,107.9L747,91.3H641.5v16.5H752.8z M741.8,76.3l-5.7-16.5h-94.6v16.5H741.8z M923.5,284.6c0-7.4,5.6-13,12.6-13
		c7,0,12.6,5.6,12.6,13c0,7.4-5.6,13-12.6,13C929.1,297.6,923.5,292,923.5,284.6 M945.7,285.5v-1.6c0-5.3-4.2-9.5-9.6-9.5
		c-5.5,0-9.6,4.2-9.6,9.5v1.6c0,5.3,4.2,9.5,9.6,9.5C941.5,294.9,945.7,290.8,945.7,285.5 M934.2,291.3H931v-13.2h6
		c3,0,4.5,1.8,4.5,4.2c0,2.1-0.9,3.4-2.4,4l3,5h-3.5l-2.5-4.5h-1.8V291.3z M936.6,284.4c1,0,1.6-0.4,1.6-1.4v-0.9
		c0-0.9-0.6-1.4-1.6-1.4h-2.4v3.7H936.6z"/>
</g>
</svg>
