<?xml version="1.0" encoding="utf-8"?>
<!-- Generator: Adobe Illustrator 23.1.0, SVG Export Plug-In . SVG Version: 6.00 Build 0)  -->
<svg version="1.1" id="IDEMIA" xmlns:svg="http://www.w3.org/2000/svg"
	 xmlns="http://www.w3.org/2000/svg" xmlns:xlink="http://www.w3.org/1999/xlink" x="0px" y="0px" viewBox="0 0 1260 480"
	 style="enable-background:new 0 0 1260 480;" xml:space="preserve">
<style type="text/css">
	.st0{fill:#420098;}
</style>
<g>
	<path id="path6460" class="st0" d="M544.9,173.7v131.7h42.2c16.6,0.8,32.4-4.5,45.9-14.3c14.3-12,23.3-30.9,23.3-51.2
		c0-13.5-4.5-26.3-11.3-37.6c-6-8.3-13.5-15.8-22.6-20.3c-11.3-5.3-23.3-8.3-36.1-8.3L544.9,173.7z M481.7,174.5v131.7H502V174.5
		H481.7z M690.2,174.5v131.7h85.1v-18.8h-64v-39.2h58v-18.8h-58v-36.1h64v-18.8H690.2z M810.7,174.5v131.7H831v-98.6h0.8l40.6,98.6
		h17.3l41.4-98.6v98.6h20.3V174.5h-28.6l-42.2,101.6l-42.2-101.6H810.7z M994.3,174.5v131.7h20.3V174.5H994.3z M1094.5,174.5
		L1041,306.3h21.1l12-30.9h64l12,30.9h21.8l-53.4-131.7L1094.5,174.5z M564.5,194.1h21.1c11.3,0,23.3,3,32.4,10.5
		c10.5,9,16.6,21.8,16.6,36.1c0,9-2.3,18.1-7.5,25.6c-3,3.8-6,7.5-9.8,10.5c-9,6.8-21.1,10.5-32.4,9.8h-20.3V194.1z M1105.7,194.8
		l24.8,62.5h-49.7L1105.7,194.8z"/>
	<path id="path6405" class="st0" d="M160.3,104.5L88,240l72.3,135.5h24.8L112.8,240l72.3-135.5H160.3z M211.5,104.5L184.4,240
		l27.1,135.5H234L206.9,240L234,104.5H211.5z M263.4,104.5L290.5,240l-27.1,135.5H286L313.1,240L286,104.5H263.4z M312.3,104.5
		L384.6,240l-72.3,135.5h24.8L409.4,240l-72.3-135.5H312.3z"/>
</g>
</svg>
