<?xml version="1.0" encoding="utf-8"?>
<!-- Generator: Adobe Illustrator 23.1.0, SVG Export Plug-In . SVG Version: 6.00 Build 0)  -->
<svg version="1.1" id="Слой_1" xmlns="http://www.w3.org/2000/svg" xmlns:xlink="http://www.w3.org/1999/xlink" x="0px" y="0px"
	 viewBox="0 0 1260 480" style="enable-background:new 0 0 1260 480;" xml:space="preserve">
<style type="text/css">
	.st0{fill:#F6A30D;}
	.st1{fill:#005A63;}
</style>
<g>
	<path class="st0" d="M154,123.2c7.1,0,13.2,2.5,18.1,7.5c4.9,5,7.4,11,7.4,18c0,7-2.5,13-7.5,17.9c-5,4.9-11,7.4-18,7.4
		c-7,0-13-2.5-17.9-7.4c-4.9-4.9-7.4-10.9-7.4-17.9c0-7,2.5-13,7.4-18C141,125.7,147,123.2,154,123.2 M177.1,197.8v122
		c0,10.9,1.3,17.8,3.8,20.8c2.5,3,7.5,4.7,14.8,5.2v5.9h-83.1v-5.9c6.8-0.2,11.8-2.2,15.1-5.9c2.2-2.5,3.3-9.2,3.3-20.1v-89.9
		c0-10.9-1.3-17.8-3.8-20.8c-2.5-3-7.4-4.7-14.6-5.2v-6.1H177.1z"/>
	<path class="st1" d="M451.1,123.4L435.7,195h-6.3c-0.9-20.8-5.6-35.8-14.1-45c-8.5-9.2-20.4-13.7-35.8-13.7
		c-15.8,0-31.6,5.6-47.4,16.7c-15.8,11.1-29.3,28.3-40.4,51.5C280.6,227.7,275,252,275,277.6c0,21.9,4.9,38.7,14.8,50.3
		c9.9,11.6,21.4,17.4,34.7,17.4c5.6,0,12.4-1.6,20.4-4.8l17.1-58.9c2.8-9.9,4.3-16.3,4.3-19.4c0-4.1-1.7-7.5-5.2-10.3
		c-3.5-2.8-9.4-4.2-17.9-4.2l1.6-6.3h96.3l-1.5,6.3c-5.7,0.3-10.2,1.4-13.4,3.2c-3.2,1.8-5.8,4.5-7.6,8c-1.1,2.1-2.8,7.5-5.1,16.1
		l-20.2,68.6c-23,8.8-47.3,13.2-72.7,13.2c-19.6,0-36.3-3.6-50.1-10.7c-13.8-7.1-25.2-18.4-34.2-33.9c-9.1-15.5-13.6-33.1-13.6-52.8
		c0-42.1,18.7-76.9,56.1-104.2c29.3-21.2,62.5-31.8,99.7-31.8c6.5,0,12.5,0.3,17.9,1c4.1,0.6,11.2,2.1,21.4,4.6
		c6.6,1.6,11.1,2.5,13.5,2.5c4.8,0,9.4-2.7,13.7-8.1H451.1z"/>
	<path class="st1" d="M532.2,199.1L500.3,311c-1.5,5.2-2.3,8.7-2.3,10.7c0,1,0.4,1.8,1.2,2.3c0.9,0.9,1.9,1.3,3.1,1.3
		c5,0,11.8-4.5,20.2-13.5c12.1-13.1,24.7-31.8,38-56.3l15-50.4l41.6-1.5l-31.6,108.6c-2.6,9.2-3.9,14.5-3.9,15.8
		c0,0.9,0.4,1.8,1.2,2.7c0.8,0.9,1.7,1.4,2.5,1.4c1.5,0,3-0.7,4.4-2c4-3.2,9.2-9.6,15.6-19.3l5.6,3.9c-15.2,27.5-32,41.3-50.4,41.3
		c-6.8,0-12.2-1.7-16-5.2c-3.9-3.5-5.8-8-5.8-13.6c0-5.9,1.4-13.4,4.1-22.5l8.1-27.8c-14.3,20.7-24.6,34.7-31.1,42
		c-9.9,10.9-18.2,18.1-24.9,21.7c-6.7,3.6-13.2,5.4-19.3,5.4c-5.8,0-10.8-2.1-15.1-6.4c-4.2-4.3-6.3-9.7-6.3-16.3
		c0-5.6,1.4-13.1,4.1-22.5l18.6-65.8c3.1-10.8,4.6-18,4.6-21.7c0-1.6-0.4-3.1-1.3-4.4c-0.9-1.3-2.3-2.3-4.4-3s-5.8-1.1-11.3-1.1
		l1.6-6.3l56.1-9.7H532.2z"/>
	<path class="st1" d="M791.5,201.4l-31.9,109.4l-3.3,13.3c-0.3,1.6-0.5,2.9-0.5,3.6c0,1.3,0.5,2.5,1.4,3.5c0.9,1,1.9,1.5,2.9,1.5
		c2.3,0,5.5-1.8,9.5-5.3c1.6-1.4,5.6-6.5,11.9-15.1l5.8,3c-7.8,14.3-16.1,24.7-24.9,31.2c-8.8,6.5-18.3,9.8-28.5,9.8
		c-6.3,0-11-1.6-14.3-4.9c-3.3-3.2-4.9-7.3-4.9-12.3c0-4.3,1.8-12.2,5.3-23.9l4-13.3c-12.7,21.8-25,37.3-36.7,46.4
		c-6.8,5.3-14,7.9-21.7,7.9c-10.1,0-17.4-4.1-21.9-12.4c-4.5-8.3-6.7-17.6-6.7-28.1c0-15.5,4.7-33.2,14.2-53.2
		c9.4-20,21.8-36.1,37.2-48.3c12.6-10.1,24.5-15.1,35.5-15.1c6.1,0,11.1,1.8,14.8,5.3c3.7,3.6,6.5,10.1,8.2,19.5l5.9-20.2
		L791.5,201.4z M738.9,232.7c0-8.9-1.4-15.3-4.1-19.3c-2-2.7-4.7-4.1-8.1-4.1c-3.4,0-6.9,1.6-10.5,4.9c-7.4,6.8-15.3,20.6-23.8,41.4
		c-8.5,20.8-12.8,38.8-12.8,53.9c0,5.8,1,10,2.9,12.6c1.9,2.6,4,3.9,6.3,3.9c4.9,0,9.9-2.8,15-8.6c7.2-8.1,13.8-18,19.6-29.8
		C733.7,267,738.9,248.7,738.9,232.7"/>
	<path class="st1" d="M888.6,199.1l-20.4,70.6c13.7-20.6,24-34.7,30.8-42.3c10-11,18.6-18.4,25.8-22.4c7.2-3.9,14-5.9,20.4-5.9
		c5.7,0,10.6,2.1,14.6,6.3c4.1,4.2,6.1,9.7,6.1,16.5c0,6.1-1.3,13.6-3.9,22.4L941,314.6c-1.8,6.1-2.6,10.2-2.6,12
		c0,1.1,0.4,2.1,1.2,3c0.8,0.9,1.7,1.3,2.5,1.3c1.1,0,2.3-0.4,3.5-1.3c3.8-3.2,7.7-7.7,11.7-13.5c1-1.5,2.6-3.8,4.8-6.9l6.3,3.8
		c-16.1,27.1-33.1,40.6-50.9,40.6c-6.8,0-12.1-1.8-16-5.3c-3.8-3.5-5.8-7.9-5.8-13.2c0-4.6,1.3-11.5,3.9-20.6l20.6-70.3
		c1.4-4.6,2.1-8,2.1-10.2c0-1.2-0.5-2.3-1.5-3.2c-1-0.9-2.1-1.4-3.5-1.4c-4.2,0-9.2,2.8-15.1,8.6c-15.1,14.5-29.8,36-43.9,64.7
		l-13.5,48.9h-42L833.7,246c3-10.4,4.4-17.8,4.4-22.2c0-1.9-0.4-3.4-1.3-4.7c-0.9-1.3-2.3-2.3-4.3-3c-2-0.7-5.7-1.1-11.2-1.1
		l1.8-6.3l55.5-9.7H888.6z"/>
	<path class="st1" d="M1147.5,201.4l-31.9,109.4l-3.3,13.3c-0.3,1.6-0.5,2.9-0.5,3.6c0,1.3,0.5,2.5,1.4,3.5c0.9,1,1.9,1.5,2.9,1.5
		c2.3,0,5.5-1.8,9.5-5.3c1.6-1.4,5.6-6.5,11.9-15.1l5.8,3c-7.8,14.3-16.1,24.7-24.9,31.2c-8.8,6.5-18.3,9.8-28.5,9.8
		c-6.3,0-11-1.6-14.3-4.9c-3.3-3.2-4.9-7.3-4.9-12.3c0-4.3,1.8-12.2,5.3-23.9l4-13.3c-12.7,21.8-25,37.3-36.7,46.4
		c-6.8,5.3-14,7.9-21.7,7.9c-10.1,0-17.4-4.1-21.9-12.4c-4.5-8.3-6.7-17.6-6.7-28.1c0-15.5,4.7-33.2,14.2-53.2
		c9.4-20,21.8-36.1,37.2-48.3c12.6-10.1,24.5-15.1,35.5-15.1c6.1,0,11.1,1.8,14.8,5.3c3.7,3.6,6.5,10.1,8.2,19.5l5.9-20.2
		L1147.5,201.4z M1094.8,232.7c0-8.9-1.4-15.3-4.1-19.3c-2-2.7-4.7-4.1-8.1-4.1c-3.4,0-6.9,1.6-10.5,4.9
		c-7.4,6.8-15.3,20.6-23.8,41.4c-8.5,20.8-12.8,38.8-12.8,53.9c0,5.8,1,10,2.9,12.6c1.9,2.6,4,3.9,6.3,3.9c4.9,0,9.9-2.8,15-8.6
		c7.2-8.1,13.8-18,19.6-29.8C1089.6,267,1094.8,248.7,1094.8,232.7"/>
</g>
</svg>
