<?xml version="1.0" encoding="utf-8"?>
<!-- Generator: Adobe Illustrator 23.1.0, SVG Export Plug-In . SVG Version: 6.00 Build 0)  -->
<svg version="1.1" id="Слой_1" xmlns="http://www.w3.org/2000/svg" xmlns:xlink="http://www.w3.org/1999/xlink" x="0px" y="0px"
	 viewBox="0 0 1260 480" style="enable-background:new 0 0 1260 480;" xml:space="preserve">
<style type="text/css">
	.st0{fill:#0F408D;}
	.st1{fill:#060506;}
</style>
<g>
	<path class="st0" d="M366,400.7c19.3,0,38.2,0,57.5,0c0,10.2,0,20.1,0,30c-3.7,0.8-81.1,1.1-88.2,0.2c0-19.6,0-39.3,0-59.6
		c-20,0-39.6,0-59.5,0c0-107,0-213.4,0-320.2c80.8,0,161.7,0,243.2,0c0,19.7,0,39.6,0,59.8c20.5,0,40.4,0,60.7,0
		c0,20.8,0,41.1,0,61.8c-10,0-19.9,0-30.4,0c0-10.3,0-20.8,0-31.5c-61.3,0-122.1,0-183.1,0C366,227.6,366,313.8,366,400.7z
		 M338.1,340.5c0-76.6,0-152.8,0-229.5c50.5,0,100.6,0,150.5,0c0-10.1,0-19.9,0-29.3c-60.8,0-121.2,0-181.4,0
		c0,86.5,0,172.5,0,258.8C317.4,340.5,327.3,340.5,338.1,340.5z"/>
	<path class="st1" d="M524.1,294.2c-8.4,0-16.1,0-23.8,0c-0.9-1.8-0.5-3.4-0.5-5.1c0-17.1,0-34.2,0-51.4c0-2.3-0.3-4.6-0.5-6.9
		c-0.7-5.8-3.2-10.2-9.2-11.7c-6.4-1.6-12.7,0.7-16.3,6c-5,7.2-5.4,15.6-5.5,23.9c-0.2,13.3-0.1,26.6-0.1,39.9c0,1.6,0,3.3,0,5.2
		c-8.1,0-15.8,0-23.9,0c0-30.5,0-61,0-91.8c7.3,0,14.7,0,22.4,0c0,3.7,0,7.3,0,12.1c7.8-9.7,16.8-14.7,28.4-14.6
		c11.7,0.1,20.9,4.4,26.5,15.7c7.9-12.2,19.2-16.3,32.8-15.5c11.9,0.7,20.4,7.4,23.6,18.8c1.4,4.8,2.1,9.7,2.1,14.8
		c0,19.4,0,38.9,0,58.3c0,0.6-0.1,1.3-0.2,2.2c-7.8,0-15.6,0-23.4,0c-1.1-1.6-0.6-3.3-0.6-4.9c0-16.3,0-32.6-0.1-48.9
		c0-3.3-0.3-6.6-0.7-9.9c-0.6-5.1-2.7-9.4-8-10.9c-5.6-1.6-10.9-1.1-15.3,3.2c-4.2,4-5.7,9.3-6.6,14.7c-0.6,3.8-0.9,7.6-0.9,11.4
		C524.2,263.8,524.1,278.7,524.1,294.2z"/>
	<path class="st1" d="M765.9,213c0-3.5,0-6.9,0-10.7c7.6,0,15,0,22.6,0c1,0.9,0.4,2.3,0.5,3.6c0,25.9,0,51.9,0,77.8
		c0,5.7-0.7,11.3-2,16.8c-4.3,17.2-15.3,27.5-32.6,31c-16.1,3.3-31.4,0.3-46.5-6.4c0.6-6.7,1.3-13.2,2-20.4
		c4.4,1.9,8.3,3.7,12.3,5.4c5.7,2.4,11.6,3.9,17.9,3.7c14.9-0.6,24.4-10.6,24-25.5c0-2,0-4,0-5.9c-0.7-0.3-1.1-0.3-1.5,0.1
		c-20.9,21.2-53.5,13.7-61.9-14.5c-5.3-17.7-4.4-35.3,5.5-51.4c9.8-16,31.4-21.7,47.9-13.1C758.6,205.9,762,209.5,765.9,213z
		 M764.7,248.7c-0.2-6.3-0.5-12.6-3.2-18.4c-3.1-6.9-8.1-11.1-16-11.5c-8.3-0.3-14.8,3.1-18.2,10.5c-5.6,11.9-5.8,24,0.5,35.8
		c3.5,6.6,9,10.6,16.8,10.3c8.3-0.3,13.9-4.7,17.2-12.2C763.8,258.6,764.4,253.7,764.7,248.7z"/>
	<path class="st1" d="M576.2,431.3c-9.9,0-18.9,0-28.2,0c-3.6-9.4-7.1-18.8-10.8-28.4c-16.9,0-33.7,0-50.7,0
		c-3.6,9.4-7.2,18.8-10.9,28.3c-8.6,0-17,0-26.4,0c16.4-41.9,32.7-83.5,49-125.1c9.6,0,18.9,0,28.6,0
		C543.2,347.6,559.6,389.2,576.2,431.3z M530,382.5c-5.9-16.8-11.8-33.3-17.6-49.9c-0.3,0.1-0.6,0.1-1,0.2
		c-5.8,16.5-11.6,33-17.5,49.7C506.1,382.5,517.8,382.5,530,382.5z"/>
	<path class="st1" d="M894.9,255.7c-21.6,0-42.7,0-63.8,0c0.5,15.1,11.9,22.5,24.3,23c9.6,0.3,18.4-2.4,26.9-6.5
		c1.6-0.8,3-2,5.5-2.2c0,5.8-0.1,11.5,0,17.3c0.1,2.5-1.9,2.9-3.4,3.6c-9.7,4.6-20.1,5.9-30.6,5.7c-4.5-0.1-9-0.6-13.3-1.7
		c-17.1-4.4-27.7-15-31.5-32.3c-2.4-10.7-2-21.4,1-32c5.6-19.7,20.3-30.7,40.9-30.7c4.7,0,9.3,0.4,13.9,1.6
		c11.7,3,20,10.1,24.7,21.3C893.8,233.1,894.3,244.1,894.9,255.7z M871,238.7c-0.3-13.5-7.7-21.2-20.1-20.9
		c-11.6,0.2-19.9,9-19.7,20.9C844.5,238.7,857.8,238.7,871,238.7z"/>
	<path class="st1" d="M824,392.6c-21.5,0-42.6,0-63.7,0c1.3,13.8,10.2,22.2,24,22.9c9,0.4,17.4-1.9,25.5-5.7c2.2-1,4.4-2.1,7.4-3.6
		c0,6.4,0,12.2,0,18.1c0,2.5-2.1,2.7-3.7,3.4c-15.4,6.5-31.3,7.5-47.3,2.7c-13.1-3.9-22-12.6-26.4-25.7c-1.1-3.2-1.9-6.4-2.3-9.7
		c-1.5-11.9-0.7-23.5,4.2-34.6c6.4-14.3,17.6-22.1,33.1-23.7c6-0.6,12-0.3,17.9,1c11.7,2.7,20.4,9.2,25.4,20.4
		C823,369.1,824,380.6,824,392.6z M800.5,375.6c-1.1-14.2-8.1-21.5-20.2-21c-11.7,0.4-19.8,9-19.7,21
		C773.9,375.6,787.2,375.6,800.5,375.6z"/>
	<path class="st1" d="M658,237.1c-0.3-13.7-5.8-19-18.7-19.3c-9.8-0.3-18.7,2.5-27,7.5c-1,0.6-1.7,1.6-3.3,1.6
		c-1-6.5-0.7-13.1-1.1-20c10.8-4.9,22.1-7.2,33.8-7c3.5,0,7,0.2,10.4,0.8c17.7,3.1,26.6,12.7,27.7,30.6c0.6,9.4,0.4,18.9,0.6,28.4
		c0.1,11.4,0.4,22.8,1.2,34.5c-7.2,0-14.2,0-21.4,0c-0.4-4.1-0.8-8-1.3-12.7c-5.2,7.2-11.5,11.7-19.5,13.8
		c-10,2.7-19.5,1.3-28.4-3.8c-9.1-5.3-13.6-13.4-13.1-24c0.4-10.6,4.8-18.8,14.3-24c9.8-5.4,20.7-5.9,31.5-6.3
		C648.4,237,653,237.1,658,237.1z M658,252.1c-6.3-0.2-12.5-0.5-18.6,0.2c-4.6,0.6-9.2,1.6-13,4.6c-7.7,5.9-6.9,16.8,1.5,20.4
		c9.5,4,20.8,0.4,26.2-8.3C657.3,263.8,658.1,258.2,658,252.1z"/>
	<path class="st1" d="M899.1,340.2c0.2,6.1-0.9,11.8-1.3,17.9c-4.3-1-8.4-2.2-12.5-2.9c-5.4-0.9-10.9-1.4-16.3,0.4
		c-4,1.4-6.6,4-6.9,8.3c-0.3,4.2,2.6,6.3,6,7.7c2.7,1.2,5.6,2,8.4,3c3.8,1.3,7.6,2.5,11.3,4c10.2,4.3,15.8,11.8,16.2,23
		c0.4,11.5-4.2,20.3-14.3,26c-6.5,3.7-13.7,5.2-21,5.6c-10.4,0.5-20.6-1-30.7-3.9c-0.2-6.5,0.6-12.9,1.2-19.7
		c5.9,2.3,11.5,4.6,17.5,5.5c4.9,0.7,9.6,0.7,14.3-1c4.2-1.5,7.2-4.2,7.5-9c0.3-4.9-2.4-7.7-6.4-9.6c-4.1-1.9-8.5-2.9-12.7-4.3
		c-2.2-0.7-4.4-1.4-6.6-2.3c-9.1-3.6-14.9-9.7-15.8-19.9c-1-11.2,2.4-20.3,12.3-26.4c10.2-6.2,21.5-6.6,32.9-5.6
		C887.6,337.5,893.2,338.5,899.1,340.2z"/>
	<path class="st1" d="M914.7,429.3c0.5-6.9,1-13.2,1.5-19.8c6,2.5,11.9,4.8,18.2,5.6c5,0.7,9.9,0.5,14.7-1.5
		c4.1-1.7,6.5-4.8,6.6-9.1c0.1-4.2-2.4-7.1-6.1-8.9c-3-1.4-6.2-2.4-9.4-3.3c-3.5-1.1-7-2.2-10.4-3.5c-8.8-3.3-14.5-9.3-15.7-18.8
		c-1.3-10.6,1.4-19.8,10.5-26.3c6.3-4.5,13.5-6.4,21-6.9c10.4-0.7,20.5,0.7,30.8,3.3c-0.3,6.1-0.7,12-1.6,18.1
		c-6.5-1.8-12.9-3.8-19.6-3.7c-3.3,0-6.7,0.1-9.8,1.4c-3.6,1.6-6.1,4.2-6.1,8.3c-0.1,3.9,2.5,6,5.8,7.4c3.7,1.5,7.5,2.6,11.3,4
		c3.3,1.2,6.6,2.2,9.8,3.7c9.1,4.1,14.3,11.1,15,21.2c0.7,10.9-2.8,20-12.2,26.1c-8.1,5.2-17.2,6.8-26.7,6.8
		C932.9,433.4,923.9,431.8,914.7,429.3z"/>
	<path class="st1" d="M725.4,339.8c-0.7,6.6-1.4,12.6-2.1,19c-4.6-1.5-8.8-2.9-13.3-3.1c-14.3-0.6-23.4,6.2-26.5,20.2
		c-1.6,7.3-1.3,14.6,0.9,21.6c4,12.4,14.5,18.8,27.5,16.7c4.6-0.7,9.1-2,13.8-3.9c0.8,6.7,1.2,13,1.3,19.5c-2,1.8-4.6,1.8-6.9,2.2
		c-9.4,1.7-18.9,2.3-28.3,0.4c-14.8-2.9-25.4-11.2-30.8-25.4c-5.2-13.8-5.6-28-0.7-41.9c5.4-15.3,16.3-24.7,32.5-27.5
		C703.7,335.7,714.4,336.7,725.4,339.8z"/>
	<path class="st1" d="M645.8,339.8c-0.8,6.6-1.4,12.5-2.1,18.8c-2.7-0.7-5.3-1.6-8-2.1c-17.4-3.8-29.6,4.4-32.4,21.8
		c-1,6.5-0.6,12.9,1.5,19.2c4.1,12.5,14.4,18.7,27.5,16.6c4.6-0.7,9-2.2,13.4-3.6c0.3,0.6,0.7,1,0.7,1.5c0.3,6,0.6,11.9,0.9,18.2
		c-9.8,3.1-19.7,3.9-29.6,2.9c-25.1-2.6-39.6-19.3-40.3-45.9c-0.2-8.7,0.8-17.2,4.4-25.3c6-13.4,16.1-21.7,30.6-24.3
		C623.6,335.6,634.6,336.7,645.8,339.8z"/>
	<path class="st1" d="M394.7,169.5c8.2,0,16.3,0,24.7,0c0,41.5,0,82.9,0,124.6c-8.2,0-16.3,0-24.7,0
		C394.7,252.6,394.7,211.1,394.7,169.5z"/>
</g>
</svg>
