<?xml version="1.0" encoding="utf-8"?>
<!-- Generator: Adobe Illustrator 23.1.0, SVG Export Plug-In . SVG Version: 6.00 Build 0)  -->
<svg version="1.1" id="Слой_1" xmlns="http://www.w3.org/2000/svg" xmlns:xlink="http://www.w3.org/1999/xlink" x="0px" y="0px"
	 viewBox="0 0 1260 460" style="enable-background:new 0 0 1260 460;" xml:space="preserve">
<style type="text/css">
	.st0{fill-rule:evenodd;clip-rule:evenodd;fill:#152235;}
</style>
<g>
	<g>
		<path class="st0" d="M506.5,122.8l-6.5,54h-74.4l-3.3,27.8h50.7l-5.7,51.5h-51.5l-9,72h-63l27-205.3H506.5L506.5,122.8z
			 M1134,187.5l-17.2,37.6c0,0-22.1-15.5-40.1-15.5c-19.6,0-14.7,19.6-4.9,22.1c28.6,6.6,57.3,15.6,57.3,45
			c0,36.8-32.7,58.9-69.5,58.9c-46.6-0.8-79.4-29.4-79.4-29.4l24.6-40.1c24.5,32.7,65.4,31.1,68.7,18c4.1-18.8-35.2-9.8-55.6-32.7
			c-21.3-24.5-9-61.4,19.6-74.4C1063.6,164.6,1091.4,165.4,1134,187.5L1134,187.5z"/>
		<path class="st0" d="M939.3,173.6L928.6,266c-2.5,12.3-13.9,22.1-26.2,21.3c-13.9,0-24.6-7.4-22.1-21.3l11.5-92.5h-58.9L828,212
			c-16.4-32.7-54.8-43.4-81.8-43.4c-36.8,0-77.7,17.2-90.8,55.6c-12.3-42.5-56.5-54.8-85.9-54.8c-45,0-95.7,25.4-95.7,85.1
			c0,56.4,41.7,80.2,88.4,80.2c44.2,0,79.4-20.5,91.6-57.3c9.8,39.3,46.6,56.4,85.1,56.4c36.8,0,67.1-13.9,83.4-39.3
			c5.7,27.8,30.3,42.5,75.3,42.5c59.7,0,85.1-29.5,89.2-67.1l12.3-96.5L939.3,173.6L939.3,173.6L939.3,173.6z M562.1,289.7
			c-20.5,0-31.9-15.5-31.9-35.2c0-21.3,13.9-36.8,38.5-36.8c13.9,0,31.1,7.4,32.7,29.5v4.1C601.4,273.4,583.4,289.7,562.1,289.7
			L562.1,289.7z M769.9,275c-7.4,8.2-18.8,13.9-30.3,13.9c-17.2,0-27.8-10.6-31.1-24.5l-58.1-10.6v0.8l-46.6-7.4l47.4-4.1h0.8
			l5.7-0.8l53.2-5.7c4.9-12.3,17.2-19.6,34.4-19.6c9.8,0,21.3,3.3,27.8,13.1l53.2-5.7l-5.7,45.8v13.1L769.9,275L769.9,275z
			 M328.9,328.2L342,223.5c7.4-56.4-66.3-76.9-103.1-31.1l3.3-22.1h-60.5L162,328.2h60.5l11.5-93.3c3.3-25.4,50.7-24.5,47.4,0
			L270,328.2H328.9z M171.9,124.5l-24.5,203.7H85.1l24.5-203.7H171.9z"/>
		<path class="st0" d="M1148.7,171.9h-4.9v-23.7h9c5.7,0,9.8,2.5,9.8,7.4s-3.3,5.7-5.7,6.5l5.7,9.8h-5.7l-5.7-9.8h-2.4L1148.7,171.9
			L1148.7,171.9L1148.7,171.9z M1153.6,158c1.6,0,3.3,0,3.3-2.5c0-2.5-2.5-3.3-4.9-3.3h-3.3v5.7L1153.6,158L1153.6,158z
			 M1152.8,182.6c-12.3,0-22.1-8.2-22.1-22.1c0-13.9,9.8-22.1,22.1-22.1c11.5,0,22.1,8.2,22.1,22.1
			C1174.9,174.4,1164.2,182.6,1152.8,182.6z M1152.8,143.3c-9,0-16.4,7.4-16.4,17.2c0,9.8,7.4,17.2,16.4,17.2
			c8.2,0,15.5-7.4,15.5-17.2C1168.3,150.6,1161,143.3,1152.8,143.3z"/>
	</g>
</g>
</svg>
