<?xml version="1.0" encoding="utf-8"?>
<!-- Generator: Adobe Illustrator 27.1.1, SVG Export Plug-In . SVG Version: 6.00 Build 0)  -->
<svg version="1.1" id="圖層_1" xmlns="http://www.w3.org/2000/svg" xmlns:xlink="http://www.w3.org/1999/xlink" x="0px" y="0px"
	 viewBox="0 0 629.5 106.6" style="enable-background:new 0 0 629.5 106.6;" xml:space="preserve">
<style type="text/css">
	.st0{fill:none;}
	.st1{fill:url(#SVGID_1_);}
	.st2{fill:#004898;}
	.st3{fill:url(#SVGID_00000067212587470898632100000009378825294175668123_);}
	.st4{fill:url(#SVGID_00000148651367046430213980000001511228613082827190_);}
	.st5{fill:url(#SVGID_00000087402368350117097360000003218199415437278119_);}
	.st6{fill:url(#SVGID_00000112622211943998215720000004565075904787618449_);}
	.st7{fill:url(#SVGID_00000090974489628476871190000010227564115754888582_);}
	.st8{fill:url(#SVGID_00000088823092268655325240000000619174767695507329_);}
	.st9{fill:url(#SVGID_00000049910831025243336530000014881004632913411748_);}
	.st10{fill:url(#SVGID_00000005980265930110398680000014292718149425285001_);}
	.st11{fill:url(#SVGID_00000062159869030874551760000016446184378117577866_);}
	.st12{fill:url(#SVGID_00000124884598052369909610000011509057401472130717_);}
</style>
<g>
	<rect x="6.8" y="11.5" class="st0" width="615" height="85.8"/>
	<g>
		<linearGradient id="SVGID_1_" gradientUnits="userSpaceOnUse" x1="6.1361" y1="56.8277" x2="111.3263" y2="56.8277">
			<stop  offset="0.1923" style="stop-color:#00A0E9"/>
			<stop  offset="1" style="stop-color:#17288B"/>
		</linearGradient>
		<path class="st1" d="M55.5,16.6c-3.9-0.5-5.4,0.2-7,4c-0.1,0.1-0.1,0.3-0.2,0.5c-1.5-0.3-3.1-0.6-4.8-0.8
			c-14.8-2.1-25.9-2-31.7-1.4c-3.4,0.3-5.5,1.1-5.6,3.5C4.2,92.9,62,97.1,62,97.1c3.9,0.6,5.4-0.2,7-4c0.1-0.2,0.1-0.3,0.2-0.5
			c1.5,0.3,3.1,0.5,4.8,0.8c14.8,2.1,25.9,2,31.7,1.4c3.4-0.3,5.5-1.1,5.6-3.5C113.3,20.8,55.5,16.6,55.5,16.6z M86.5,61.7
			c-1.8,12-4.5,20.6-6.4,25c-1.3,3.2-2.6,3.8-5.9,3.4c0,0-48.5-3.5-46.9-62.7c0.1-2,1.8-2.7,4.7-2.9c4.8-0.5,14.2-0.6,26.6,1.1
			C82.8,29,90,38.5,86.5,61.7z"/>
		<g>
			<path class="st2" d="M613.1,10.7c-4.3,0-8,3.4-8,7.9c0,4.6,3.6,8,8,8c4.3,0,7.9-3.4,7.9-8C621.1,14.1,617.5,10.7,613.1,10.7z
				 M613.1,25.4c-3.7,0-6.5-2.9-6.5-6.8c0-3.8,2.8-6.7,6.5-6.7c3.7,0,6.5,2.9,6.5,6.7C619.6,22.5,616.8,25.4,613.1,25.4z"/>
			<path class="st2" d="M616.9,16.7c0-1.8-1-2.6-3.2-2.6h-3.6v9.3h1.4v-4h1.5l2.5,4h1.5l-2.6-4.1C615.8,19,616.9,18.3,616.9,16.7z
				 M613,18.1h-1.5v-2.9h1.9c1,0,2,0.2,2,1.4C615.4,18.1,614.3,18.1,613,18.1z"/>
		</g>
		<g>
			<path class="st2" d="M185.6,95.1h13.9V75.5c-4.7-0.4-9.3-0.9-13.9-1.4V95.1z"/>
			<path class="st2" d="M125.9,95.1h14.6V68.2c-5-0.8-9.9-1.6-14.6-2.4V95.1z"/>
			<path class="st2" d="M148.7,95.1h13.9V71.4c-4.7-0.6-9.3-1.2-13.9-1.9V95.1z"/>
			<path class="st2" d="M518.4,95.1h13.9V67.5c-4.5,0.7-9.2,1.4-13.9,2.1V95.1z"/>
			<path class="st2" d="M266.6,84c-4.8,0-8.6-1.8-11.4-4.5c-5.6-0.3-11.2-0.6-16.8-1c4.4,11.1,15.3,18,28.2,18
				c11.9,0,22.1-5.9,27-15.5c-5.6-0.1-11.2-0.3-16.7-0.5C274.2,82.6,270.7,84,266.6,84z"/>
			<path class="st2" d="M302.6,95.1h13.9V81.4c-4.7-0.1-9.3-0.1-13.9-0.2V95.1z"/>
			<path class="st2" d="M362.4,96.5c3.2,0,8.1-0.5,11-1.9V83c-1.7,1.3-5.1,1.7-7.5,1.7c-3.6,0-5.7-1.2-6.7-3.4
				c-4.9,0.1-9.8,0.1-14.8,0.2C345.3,91.5,349.5,96.5,362.4,96.5z"/>
			<path class="st2" d="M447.5,96.5c8.8,0,17-3.1,23.5-11.1l-10-7.5c-3.5,4.3-8,7.5-15,7.5c-5.6,0-10.3-2.6-12.9-7.1
				c-4.5,0.3-9,0.6-13.6,0.8C424.1,89.9,434.8,96.5,447.5,96.5z"/>
			<path class="st2" d="M380.9,95.1h13.9V80.3c-4.6,0.2-9.2,0.3-13.9,0.5V95.1z"/>
			<path class="st2" d="M481.5,95.1h13.9V72.6c-4.6,0.5-9.2,1.1-13.9,1.6V95.1z"/>
			<path class="st2" d="M208.4,95.1h13.9V77.4c-4.7-0.4-9.3-0.7-13.9-1.1V95.1z"/>
			<path class="st2" d="M586.5,67.3c0,8.7-6.2,16.7-16.3,16.7c-10.2,0-16.4-8-16.4-16.7c0-1.2,0.1-2.5,0.4-3.7
				c-4.6,0.9-9.4,1.8-14.3,2.6c0,0.4,0,0.7,0,1.1c0,16.5,10.3,29.2,27.5,29.2c16.7,0,32.6-8.7,32.6-29.3V52.6
				c-5.2,1.6-10.8,3.1-16.6,4.6C585.3,60.1,586.5,63.6,586.5,67.3z"/>
		</g>
		<g>
			
				<linearGradient id="SVGID_00000116931745501828702270000001182273382281256631_" gradientUnits="userSpaceOnUse" x1="125.8826" y1="56.7818" x2="599.9302" y2="56.7818">
				<stop  offset="0.3516" style="stop-color:#007BC7"/>
				<stop  offset="1" style="stop-color:#005BAC"/>
			</linearGradient>
			<path style="fill:url(#SVGID_00000116931745501828702270000001182273382281256631_);" d="M175.1,38.1c-0.4,0-0.7,0-1,0
				c-0.3,0-0.6,0-1,0c-16.3,0-24.4,10.5-24.4,21.9v9.5c4.5,0.7,9.2,1.3,13.9,1.9V67c0-3.7,0.4-8.8,2.9-12.3c1.8-2.3,4.6-3.8,8.6-4
				c4.1,0.1,6.8,1.6,8.6,4c2.4,3.5,2.9,8.6,2.9,12.3v7.1c4.6,0.5,9.2,1,13.9,1.4V60C199.5,48.6,191.4,38.1,175.1,38.1z"/>
			
				<linearGradient id="SVGID_00000176725622527502941760000010308453146323162011_" gradientUnits="userSpaceOnUse" x1="125.8958" y1="56.1245" x2="599.9158" y2="56.1245">
				<stop  offset="0.3516" style="stop-color:#007BC7"/>
				<stop  offset="1" style="stop-color:#005BAC"/>
			</linearGradient>
			<path style="fill:url(#SVGID_00000176725622527502941760000010308453146323162011_);" d="M507.9,38.1c-0.4,0-0.7,0-1,0
				c-0.4,0-0.6,0-1,0c-16.3,0-24.4,10.5-24.4,21.9v14.2c4.7-0.5,9.4-1,13.9-1.6V67c0-3.7,0.4-8.8,2.8-12.3c1.8-2.3,4.6-3.8,8.6-4
				c4,0.1,6.8,1.6,8.6,3.9c2.4,3.5,2.9,8.7,2.9,12.3v2.6c4.7-0.7,9.4-1.4,13.9-2.1V60C532.3,48.6,524.2,38.1,507.9,38.1z"/>
			
				<linearGradient id="SVGID_00000171721898431733038950000004798483038777007258_" gradientUnits="userSpaceOnUse" x1="125.8918" y1="52.4135" x2="599.9091" y2="52.4135">
				<stop  offset="0.3516" style="stop-color:#007BC7"/>
				<stop  offset="1" style="stop-color:#005BAC"/>
			</linearGradient>
			<path style="fill:url(#SVGID_00000171721898431733038950000004798483038777007258_);" d="M358.1,23.4h-13.9v53.4
				c0,1.7,0.1,3.2,0.2,4.7c5,0,9.9-0.1,14.8-0.2c-0.7-1.5-1-3.4-1-5.6V51.3h15.3V39.5h-15.3V23.4z"/>
			
				<linearGradient id="SVGID_00000098206708068313627280000005657737917017584825_" gradientUnits="userSpaceOnUse" x1="125.8877" y1="44.5531" x2="599.9072" y2="44.5531">
				<stop  offset="0.3516" style="stop-color:#007BC7"/>
				<stop  offset="1" style="stop-color:#005BAC"/>
			</linearGradient>
			<path style="fill:url(#SVGID_00000098206708068313627280000005657737917017584825_);" d="M222.3,35c0-6.1,1.2-11.5,8.9-11.5
				c2,0,3.8,0.4,5.8,0.8l0.9-11.8c-2.9-0.6-5.8-0.8-8.8-0.8c-17.3,0-20.7,10.1-20.7,25.5v39.1c4.6,0.4,9.2,0.8,13.9,1.1V51.3h13.5
				V39.5h-13.5V35z"/>
			
				<linearGradient id="SVGID_00000069378926226901267220000018196547561281806474_" gradientUnits="userSpaceOnUse" x1="125.8843" y1="42.2703" x2="599.9151" y2="42.2703">
				<stop  offset="0.3516" style="stop-color:#007BC7"/>
				<stop  offset="1" style="stop-color:#005BAC"/>
			</linearGradient>
			<path style="fill:url(#SVGID_00000069378926226901267220000018196547561281806474_);" d="M125.9,65.8c4.8,0.8,9.6,1.6,14.6,2.4
				V16.3h-14.6V65.8z"/>
			
				<linearGradient id="SVGID_00000037652882182361130310000003851960203744667274_" gradientUnits="userSpaceOnUse" x1="125.8911" y1="38.477" x2="599.9139" y2="38.477">
				<stop  offset="0.3516" style="stop-color:#007BC7"/>
				<stop  offset="1" style="stop-color:#005BAC"/>
			</linearGradient>
			<path style="fill:url(#SVGID_00000037652882182361130310000003851960203744667274_);" d="M586,10.8v35.8h-0.4
				c-2.9-3.6-8.5-8.5-18.9-8.5c-15.5,0-26.4,12.2-26.8,28.1c4.9-0.8,9.6-1.7,14.3-2.6c1.5-7.1,7.2-13,16-13c5.9,0,10.4,2.7,13.2,6.6
				c5.9-1.5,11.4-3,16.6-4.6V10.8H586z"/>
			
				<linearGradient id="SVGID_00000062188518403135042280000014654268355388301704_" gradientUnits="userSpaceOnUse" x1="125.8901" y1="58.6114" x2="599.909" y2="58.6114">
				<stop  offset="0.3516" style="stop-color:#007BC7"/>
				<stop  offset="1" style="stop-color:#005BAC"/>
			</linearGradient>
			<path style="fill:url(#SVGID_00000062188518403135042280000014654268355388301704_);" d="M447.5,38.1
				c-16.8,0-30.3,11.7-30.3,29.2c0,4.3,0.8,8.3,2.3,11.8c4.6-0.3,9.1-0.5,13.6-0.8c-1-1.8-1.8-3.8-2-6.1h42.4v-3.8
				C473.5,49,463,38.1,447.5,38.1z M431.1,61.7c1-8,6.1-13.2,14.4-13.2c8.7,0,14,5.1,14.1,13.2H431.1z"/>
			
				<linearGradient id="SVGID_00000150821360153053165630000001746317308693122432_" gradientUnits="userSpaceOnUse" x1="125.863" y1="59.7443" x2="599.9478" y2="59.7443">
				<stop  offset="0.3516" style="stop-color:#007BC7"/>
				<stop  offset="1" style="stop-color:#005BAC"/>
			</linearGradient>
			<path style="fill:url(#SVGID_00000150821360153053165630000001746317308693122432_);" d="M335.9,38.9c-0.6-0.1-1.3-0.3-1.9-0.4
				c-1.2-0.2-2.6-0.3-4.4-0.4c-0.2,0-0.4-0.1-0.6-0.1c-0.4,0-0.7,0-1,0c-0.4,0-0.7,0-1,0c-0.2,0-0.4,0.1-0.6,0.1
				c-1.8,0.1-3.2,0.2-4.4,0.4c-0.7,0.1-1.3,0.3-2,0.4c0,0-0.1,0-0.1,0c-11.5,2.6-17.3,11.5-17.3,21v21.2c4.6,0.1,9.2,0.2,13.9,0.2
				V67c0-3.7,0.5-8.9,3-12.4c0.4-0.5,0.8-1,1.3-1.4c0,0,0,0,0,0c1.7-1.5,4.1-2.4,7.3-2.5c2.8,0.1,4.9,0.9,6.6,2.1l5.2-12.6
				c-1.2-0.5-2.4-0.9-3.7-1.2C336,38.9,336,38.9,335.9,38.9z"/>
			
				<linearGradient id="SVGID_00000139986688590292149930000002950765623201144462_" gradientUnits="userSpaceOnUse" x1="125.8633" y1="59.4427" x2="599.924" y2="59.4427">
				<stop  offset="0.3516" style="stop-color:#007BC7"/>
				<stop  offset="1" style="stop-color:#005BAC"/>
			</linearGradient>
			<path style="fill:url(#SVGID_00000139986688590292149930000002950765623201144462_);" d="M414.3,38.9c0,0-0.1,0-0.1,0
				c-0.6-0.1-1.3-0.3-1.9-0.4c-1.2-0.2-2.7-0.3-4.4-0.4c-0.2,0-0.4-0.1-0.6-0.1c-0.4,0-0.7,0-1,0c-0.3,0-0.6,0-1,0
				c-0.2,0-0.4,0.1-0.6,0.1c-1.8,0.1-3.2,0.2-4.4,0.4c-0.7,0.1-1.3,0.3-2,0.4c0,0-0.1,0-0.1,0c-11.5,2.6-17.3,11.5-17.3,21v20.8
				c4.7-0.1,9.3-0.3,13.9-0.5V67c0-3.7,0.5-8.9,3-12.4c0.4-0.5,0.8-1,1.2-1.4c0,0,0,0,0,0c1.7-1.5,4.1-2.4,7.2-2.5
				c2.8,0.1,4.9,0.9,6.6,2.1l5.2-12.6C416.9,39.7,415.7,39.2,414.3,38.9z"/>
			
				<linearGradient id="SVGID_00000057122922571114052010000006405917127511425951_" gradientUnits="userSpaceOnUse" x1="125.8868" y1="59.5362" x2="599.9182" y2="59.5362">
				<stop  offset="0.3516" style="stop-color:#007BC7"/>
				<stop  offset="1" style="stop-color:#005BAC"/>
			</linearGradient>
			<path style="fill:url(#SVGID_00000057122922571114052010000006405917127511425951_);" d="M266.6,38.1
				c-16.8,0-30.3,11.7-30.3,29.2c0,4.1,0.8,7.9,2.1,11.3c5.5,0.3,11.1,0.7,16.8,1c-3.2-3.1-5-7.6-5-12.2c0-8.7,6.2-16.7,16.4-16.7
				c10.2,0,16.3,8,16.3,16.7c0,5.1-2.2,10-6,13.2c5.5,0.2,11.1,0.4,16.7,0.5c2-4,3.2-8.6,3.2-13.7C296.8,49.8,283.4,38.1,266.6,38.1
				z"/>
		</g>
	</g>
</g>
</svg>
