<?xml version="1.0" encoding="utf-8"?>
<!-- Generator: Adobe Illustrator 23.1.0, SVG Export Plug-In . SVG Version: 6.00 Build 0)  -->
<svg version="1.1"
	 id="svg22" inkscape:version="0.92.3 (2405546, 2018-03-11)" sodipodi:docname="ixsystems_logo-logo-inverted-rgb-geometricPrecision_130Г—30.svg" xmlns:cc="http://creativecommons.org/ns#" xmlns:dc="http://purl.org/dc/elements/1.1/" xmlns:inkscape="http://www.inkscape.org/namespaces/inkscape" xmlns:rdf="http://www.w3.org/1999/02/22-rdf-syntax-ns#" xmlns:sodipodi="http://sodipodi.sourceforge.net/DTD/sodipodi-0.dtd" xmlns:svg="http://www.w3.org/2000/svg"
	 xmlns="http://www.w3.org/2000/svg" xmlns:xlink="http://www.w3.org/1999/xlink" x="0px" y="0px" viewBox="0 0 1260 480"
	 style="enable-background:new 0 0 1260 480;" xml:space="preserve">
<style type="text/css">
	.st0{fill:#333333;}
	.st1{fill:#0096D6;}
	.st2{fill:#FFFFFF;}
</style>
<g id="invert-rgb">
	<path id="fullLogo" inkscape:connector-curvature="0" class="st0" d="M480.2,258.2l-31.8-8.3c-7.8-2.2-13.1-9.4-12.9-17.5
		c-0.1-9.6,7.3-17.5,16.9-18.1l44.9,0v-11.4h-44.9c-16.4-0.5-30.2,12.5-30.6,28.9c0,0.2,0,0.4,0,0.6c0,13.7,9.5,25,24.2,28.8
		l30.9,7.8c8.4,1.8,14.2,9.4,13.8,18c0.1,9.6-7.3,17.5-16.9,18.1h-49.7v11.4h49.6c16.4,0.5,30.1-12.5,30.6-28.9c0-0.2,0-0.4,0-0.6
		C504.4,273.5,494.6,261.9,480.2,258.2z"/>
	<path id="fullLogo-2" inkscape:connector-curvature="0" class="st0" d="M689.3,258.2l-31.9-8.3c-7.8-2.2-13.1-9.4-12.9-17.5
		c-0.1-9.6,7.3-17.5,16.9-18.1l44.9,0v-11.4h-44.9c-16.4-0.5-30.1,12.4-30.6,28.9c0,0.2,0,0.4,0,0.6c0,13.7,9.5,25,24.2,28.8
		l30.9,7.8c9.8,2.5,15.8,12.5,13.3,22.3c-1.9,7.6-8.5,13.1-16.3,13.8h-49.6v11.4h49.6c16.4,0.5,30.1-12.4,30.6-28.9
		c0-0.2,0-0.4,0-0.6C713.5,273.5,703.7,261.9,689.3,258.2z"/>
	<path id="fullLogo-3" inkscape:connector-curvature="0" class="st0" d="M752.4,202.9v-52.6l-13.8,4.4v132.5
		c0.3,16.4,13.8,29.5,30.2,29.2c0.2,0,0.3,0,0.5,0h11.6v-11.4h-11.6c-9.6-0.3-17.1-8.3-16.9-17.8v-72.9h28.5v-11.4H752.4
		L752.4,202.9z"/>
	<path id="fullLogo-4" inkscape:connector-curvature="0" class="st0" d="M820.5,272.4l0.6-0.1l44.5-10.8c13.6-3.3,23.3-15.1,23.9-29
		c-0.2-16.4-13.6-29.6-30.1-29.5c-0.2,0-0.4,0-0.6,0h-21.4c-16.4-0.5-30.1,12.4-30.6,28.9c0,0.2,0,0.4,0,0.6v40.9
		c-0.3,23.6,18.6,42.9,42.1,43.2c0.3,0,0.6,0,0.8,0h34.9v-11.4h-34.9c-16.2-0.1-29.3-13.3-29.2-29.5L820.5,272.4z M820.5,259.2
		v-26.8c-0.3-9.6,7.3-17.7,16.9-18.1l21.4,0c9.6,0.5,17,8.5,16.9,18.1c0.4,8.3-5.1,15.6-13.2,17.5l-38.7,9.5l-2.3,0.6l-0.9,0.2
		L820.5,259.2z"/>
	<path id="fullLogo-5" inkscape:connector-curvature="0" class="st0" d="M1135.4,258.2l-31.8-8.3c-7.8-2.2-13.1-9.4-12.9-17.5
		c-0.1-9.6,7.3-17.5,16.9-18.1l44.9,0v-11.4h-44.9c-16.4-0.5-30.1,12.4-30.6,28.9c0,0.2,0,0.4,0,0.6c0,13.6,9.5,25,24.2,28.8
		l30.9,7.8c9.8,2.5,15.8,12.5,13.3,22.3c-1.9,7.6-8.5,13.1-16.3,13.8h-49.7v11.4h49.7c16.4,0.5,30.1-12.4,30.6-28.9
		c0-0.2,0-0.4,0-0.6C1159.6,273.5,1149.9,261.9,1135.4,258.2z"/>
	<path id="fullLogo-6" inkscape:connector-curvature="0" class="st0" d="M591.7,202.9h-0.2v85c0,14.4-15,17.5-23.6,17.5
		c-8.7,0-23.7-3.1-23.7-17.5v-85h-13.8l0,84.1c0,24.4,20.8,31,37.3,31v0c0,0,0.1,0,0.1,0h0.1c8.3,0.2,16.4-1.8,23.7-5.7v17.8
		c0,16.3-13.2,29.4-29.5,29.5h-25.2v11.4h24.7c23.8,0.3,43.3-18.7,43.7-42.5V202.8h-13.8V202.9z"/>
	<path id="fullLogo-7" inkscape:connector-curvature="0" class="st0" d="M1013.8,201.8L1013.8,201.8c0,0-0.1,0-0.1,0h-0.1
		c-10.8,0-23.3,2.9-30.8,11.6c-7.5-8.7-20-11.6-30.8-11.6v0c0,0-0.1,0-0.1,0h-0.1c-8.2-0.2-16.3,1.8-23.5,5.6v-9.7l-13.8,4.4
		l0,114.8h13.8l0.1-85.4c0.3-14,15-17.1,23.6-17.1c8.7,0,23.6,3.1,23.6,17.5v85H990v-85c0-14.4,15-17.5,23.6-17.5
		c8.7,0,23.7,3.1,23.7,17.5v85h13.8l0-84.1C1051.1,208.4,1030.2,201.9,1013.8,201.8L1013.8,201.8z"/>
	<polygon id="fullLogo-8" class="st0" points="1177.6,205.1 1177.6,202.9 1162.6,202.9 1162.6,205.1 1168.9,205.1 1168.9,221.8 
		1171.4,221.8 1171.4,205.1 	"/>
	<path id="fullLogo-9" inkscape:connector-curvature="0" class="st0" d="M1194.8,202.9l-4.5,13.1c-0.5,1.3-0.8,2.3-1,3
		c-0.2-0.6-0.5-1.6-0.9-2.8l-4.5-13.4h-3.8v18.9h2.4v-16.1l5.5,16.1h2.3l5.5-15.8v15.8h2.4v-18.9H1194.8z"/>
	<g id="logoMark">
		<path id="logoMark_PathItem_" inkscape:connector-curvature="0" class="st1" d="M259.4,253.6l-3.8,7.5l-46.7,91.7
			c23.5-4.4,46.4-11.9,68.1-22.1c5.9-2.8,11.5-5.8,17.1-8.9l-30.9-60.7L259.4,253.6z"/>
		<path id="logoMark_PathItem_2" inkscape:connector-curvature="0" class="st1" d="M259.4,201.5l3.8-7.5l43.2-84.7
			c-29.7-1.3-59.5,2.9-87.7,12.6l36.8,72.1L259.4,201.5z"/>
		<path id="logoMark_CompoundPathItem_" inkscape:connector-curvature="0" class="st1" d="M245.4,228l-1-2l-49-95.4
			c-3.5,1.5-7.1,2.9-10.6,4.6C95,177.6,42.9,255.6,68.3,309.6c16,33.9,58.9,50.1,110.8,47l65.3-126.7L245.4,228z M168.6,320.4h-21.7
			V206.6h21.7V320.4z M157.8,187.6c-6.1,0-11.1-5-11.1-11.1c0,0,0,0,0,0l0,0l0,0l0-0.1l0,0l0,0c0-6,4.9-10.9,10.9-10.9c0,0,0,0,0,0
			l0,0l0,0l0.1,0l0,0l0,0c6.1,0,11.1,5,11,11.2C168.8,182.6,163.9,187.5,157.8,187.6L157.8,187.6z"/>
		<path id="logoMark_PathItem_3" inkscape:connector-curvature="0" class="st1" d="M332.4,113l-58,113l-1,1.9l1,2l40.7,79.1
			c65.6-43.9,99.9-106.9,78.3-152.7C383,134.2,360.9,119.6,332.4,113z"/>
		<path id="logoMark_PathItem_4" inkscape:connector-curvature="0" class="st2" d="M273.4,228l1-1.9l58-113c-1.3-0.3-2.6-0.7-3.9-1
			c-5.9-1.2-11.8-2-17.7-2.5c-1.4-0.1-2.9-0.2-4.3-0.2L263.2,194l-3.8,7.5l-3.8-7.5l-36.8-72.1c-1.3,0.4-2.5,0.8-3.8,1.2
			c-5.3,1.8-10.6,3.8-15.9,6c-1.2,0.5-2.4,1.1-3.6,1.6l49,95.4l1,2l-1,2l-65.3,126.7c1.5-0.1,3-0.1,4.6-0.3
			c6.6-0.5,13.3-1.4,20.2-2.5c1.6-0.3,3.3-0.7,5-1l46.7-91.7l3.8-7.5l3.8,7.5l30.9,60.7c1.1-0.6,2.4-1.2,3.5-1.8
			c4.9-2.8,9.6-5.7,14.2-8.7c1.1-0.7,2.2-1.5,3.3-2.3l-40.7-79.1L273.4,228z"/>
		<polygon id="logoMark_PathItem_5" class="st2" points="146.9,320.4 150.9,320.4 168.6,320.4 168.6,206.6 146.9,206.6 		"/>
		<path id="logoMark_PathItem_6" inkscape:connector-curvature="0" class="st2" d="M157.9,165.2L157.9,165.2L157.9,165.2
			c-6.3,0-11.4,5.1-11.4,11.3l0,0l0,0c0,6.3,5.1,11.4,11.4,11.4c6.3,0,11.4-5.1,11.4-11.4C169.3,170.3,164.2,165.2,157.9,165.2
			L157.9,165.2z"/>
	</g>
</g>
</svg>
