<?xml version="1.0" encoding="utf-8"?>
<!-- Generator: Adobe Illustrator 23.1.0, SVG Export Plug-In . SVG Version: 6.00 Build 0)  -->
<svg version="1.1" id="layer" xmlns="http://www.w3.org/2000/svg" xmlns:xlink="http://www.w3.org/1999/xlink" x="0px" y="0px"
	 viewBox="0 0 1260 480" style="enable-background:new 0 0 1260 480;" xml:space="preserve">
<style type="text/css">
	.st0{fill:#FFD100;}
	.st1{stroke:#000000;stroke-miterlimit:10;}
</style>
<g>
	<path class="st0" d="M399,228.1c-27.5,0-27.5,6.5-27.5,9.4v5.3c0,2.8,0,9.2,27.5,9.2s27.5-6.5,27.5-9.2v-5.3
		C426.1,234.6,426.1,228.1,399,228.1z M566.1,242.7v-41.9c0-2.8,0-9.2-27.5-9.2c-27.5,0-27.5,6.5-27.5,9.2v41.9
		c0,2.8,0,9.2,27.5,9.2C566.1,251.9,566.1,245.4,566.1,242.7z M748.5,252.1c27.5,0,27.5-6.5,27.5-9.2v-5.3c0-2.8,0-9.4-27.5-9.4
		c-27.5,0-27.5,6.5-27.5,9.4v5.3C721,245.6,721,252.1,748.5,252.1z"/>
	<path class="st0" d="M1194.4,39.2H65.4c-14,0-25.2,11.2-25.2,25.2v351.3c0,14,11.2,25.2,25.2,25.2h1129.2c14,0,25.2-11.2,25.2-25.2
		V64.4C1219.4,50.4,1208.1,39.2,1194.4,39.2z"/>
	<path class="st0" d="M691.3,232.6c0-6.5,0-19.3,56.8-19.3c11.2,0,20.2,0.6,27.5,1.2v-14c0-2.8,0-9.2-27.5-9.2
		c-25.2,0-25.2,6.5-25.2,9.2c0,2-1.6,3.5-3.5,3.5h-22.8c-2,0-3.5-1.6-3.5-3.5v-4.7c0-6.5,0-19.3,54.8-19.3
		c56.8,0,56.8,12.8,56.8,19.3v51.7c0,6.5,0,19.3-56.8,19.3s-56.8-12.8-56.8-19.3v-14.9H691.3z"/>
	<path class="st0" d="M215.8,338.4c0,1.2-1,2-2,2h-8.5c-1.2,0-2-1-2-2v-21c0-1.2,1-2,2-2h8.5c1.2,0,2,1,2,2V338.4z"/>
	<path class="st0" d="M258.1,338.2c0,1.2-1,2.2-2.2,2.2h-9.8c-1.2,0-2.2-1-2.2-2.2v-20.6c0-1.2,1-2.2,2.2-2.2h9.8
		c1.2,0,2.2,1,2.2,2.2V338.2z"/>
	<path class="st0" d="M300.3,338.2c0,1.2-1,2.2-2.2,2.2H287c-1.2,0-2.2-1-2.2-2.2v-20.4c0-1.2,1-2.2,2.2-2.2h11.2
		c1.2,0,2.2,1,2.2,2.2V338.2z"/>
	<path class="st0" d="M317,247.6c0,6.5,0,19.3-56.8,19.3s-56.8-12.8-56.8-19.3v-8.6c0-2,1.6-3.5,3.5-3.5h22.8c2,0,3.5,1.6,3.5,3.5
		v4.5c0,2.9,1,9,27.5,9c27.5,0,27.5-6.5,27.5-9.2v-99.5c0-2,1.6-3.5,3.5-3.5h22.8c2,0,3.5,1.6,3.5,3.5L317,247.6z"/>
	<path class="st0" d="M342.8,338c0,1.2-1,2.2-2.2,2.2h-12.4c-1.2,0-2.2-1-2.2-2.2v-20.4c0-1.2,1-2.2,2.2-2.2h12.4
		c1.2,0,2.2,1,2.2,2.2V338z"/>
	<path class="st0" d="M385.1,338c0,1.2-1,2.6-2.6,2.6h-14c-1.2,0-2.6-1-2.6-2.6v-20.2c0-1.2,1-2.6,2.6-2.6h14c1.2,0,2.6,1,2.6,2.6
		V338z"/>
	<path class="st0" d="M341.8,247.6v-14.9c0-6.5,0-19.3,56.8-19.3c11.2,0,20.2,0.6,27.5,1.2v-14c0-2.8,0-9.2-27.5-9.2
		c-25.4,0-25.4,6.5-25.4,9.2c0,2-1.6,3.5-3.5,3.5h-22.8c-2,0-3.5-1.6-3.5-3.5v-4.7c0-6.5,0-19.3,54.8-19.3
		c56.8,0,56.8,12.8,56.8,19.3v51.7c0,6.5,0,19.3-56.8,19.3C341.8,266.8,341.8,254.1,341.8,247.6z"/>
	<path class="st0" d="M427.3,338c0,1.6-1.2,2.6-2.6,2.6h-15.1c-1.6,0-2.6-1.2-2.6-2.6v-20.1c0-1.6,1.2-2.6,2.6-2.6h15.1
		c1.6,0,2.6,1.2,2.6,2.6V338z"/>
	<path class="st0" d="M469.8,337.6c0,1.6-1.2,2.8-2.8,2.8h-16.7c-1.6,0-2.8-1.2-2.8-2.8v-19.7c0-1.6,1.2-2.8,2.8-2.8H467
		c1.6,0,2.8,1.2,2.8,2.8V337.6z"/>
	<path class="st0" d="M481.8,247.4v-104c0-2,1.6-3.5,3.5-3.5h22.8c2,0,3.5,1.6,3.5,3.5v34.4c7.3-0.8,16.3-1.2,27.5-1.2
		c56.8,0,56.8,12.8,56.8,19.3v51.7c0,6.5,0,19.3-56.8,19.3C481.8,266.8,481.8,253.9,481.8,247.4z"/>
	<path class="st0" d="M512.1,337.6c0,1.6-1.2,2.8-2.8,2.8h-17.9c-1.6,0-2.8-1.2-2.8-2.8v-19.7c0-1.6,1.2-2.8,2.8-2.8h17.9
		c1.6,0,2.8,1.2,2.8,2.8V337.6z"/>
	<path class="st0" d="M554.5,337.4c0,1.6-1.2,2.8-2.8,2.8h-19.5c-1.6,0-2.8-1.2-2.8-2.8v-19.5c0-1.6,1.2-2.8,2.8-2.8h19.5
		c1.6,0,2.8,1.2,2.8,2.8V337.4z"/>
	<path class="st0" d="M596.8,337.4c0,1.8-1.2,2.9-2.9,2.9h-20.6c-1.8,0-2.9-1.2-2.9-2.9v-19.3c0-1.8,1.2-2.9,2.9-2.9h20.6
		c1.8,0,2.9,1.2,2.9,2.9V337.4z"/>
	<path class="st0" d="M639.2,337.4c0,1.8-1.2,2.9-2.9,2.9h-22.2c-1.8,0-2.9-1.2-2.9-2.9v-18.9c0-1.8,1.2-2.9,2.9-2.9h22
		c1.8,0,2.9,1.2,2.9,2.9v18.9H639.2z"/>
	<path class="st0" d="M651.2,261.3c0,2-1.6,3.5-3.5,3.5h-22.8c-2,0-3.5-1.6-3.5-3.5v-65.5c0-6.5,0-19.3,56.8-19.3
		c2,0,3.5,1.6,3.5,3.5v7.7c0,2-1.6,3.5-3.5,3.5c-27.5,0-27.5,6.5-27.5,9.2v60.5h0.6V261.3z"/>
	<path class="st0" d="M954.4,334.9c0,2.9-2.6,5.5-5.5,5.5H657.1c-2.9,0-5.5-2.6-5.5-5.5v-14c0-2.9,2.6-5.5,5.5-5.5h291.7
		c2.9,0,5.5,2.6,5.5,5.5V334.9L954.4,334.9z"/>
	<path class="st0" d="M954.6,219.1c0,3.9-3.3,7.3-7.3,7.3h-36.4c-24.8,0-44.6-20.6-43.4-45.6c1-23.2,20.6-41.5,44.2-41.5h35.8
		c3.9,0,7.3,3.3,7.3,7.5c0,3.9-3.5,7.3-7.5,7.3h-36.2c-15.5,0-28.1,12.2-28.9,27.5c-1,16.7,12.8,30.7,29.5,30.7h26.7l0,0
		c1,0,1.8-0.8,1.8-1.8l0,0v-18.3c0-1-0.8-1.8-1.8-1.8l0,0h-12.8c-3.9,0-7.3-3.3-7.3-7.5c0-3.9,3.5-7.3,7.5-7.3h21.4
		c3.9,0,7.3,3.3,7.3,7.3V219.1L954.6,219.1L954.6,219.1z"/>
	<path class="st0" d="M1056,218.9c0,2.6-1.2,5.3-3.5,6.5c-1.2,0.8-2.6,1-3.7,1c-2,0-3.7-0.8-5.3-2.2l-57.6-57.6
		c-0.8-0.8-2.2-0.2-2.2,1v51.3c0,3.9-3.3,7.5-7.3,7.5s-7.5-3.3-7.5-7.3v-72.3c0-2.6,1.2-4.9,3.5-6.3c2.9-1.8,6.7-1.2,9,1l57.8,57.8
		c0.8,0.8,2.2,0.2,2.2-1v-51.5c0-3.9,3.3-7.5,7.1-7.5c3.9,0,7.5,3.3,7.5,7.3L1056,218.9L1056,218.9z"/>
	<path class="st1" d="M678.8,191.3c2,0,3.5-1.6,3.5-3.5v-7.7c0-2-1.6-3.5-3.5-3.5c-56.8,0-56.8,12.8-56.8,19.3v65.5
		c0,2,1.6,3.5,3.5,3.5h22.8c2,0,3.5-1.6,3.5-3.5v-60.5C651.2,197.8,651.2,191.3,678.8,191.3z M455.8,247.6v-51.7
		c0-6.5,0-19.3-56.8-19.3c-54.8,0-54.8,12.8-54.8,19.3v4.7c0,2,1.6,3.5,3.5,3.5h22.8c2,0,3.5-1.6,3.5-3.5c0-2.8,0-9.2,25.4-9.2
		c27.5,0,27.5,6.5,27.5,9.2v14c-7.3-0.8-16.3-1.2-27.5-1.2c-56.8,0-56.8,12.8-56.8,19.3v14.9c0,6.5,0,19.3,56.8,19.3
		C455.8,266.8,455.8,254.1,455.8,247.6z M426.1,242.7c0,2.8,0,9.2-27.5,9.2s-27.5-6.5-27.5-9.2v-5.3c0-2.8,0-9.4,27.5-9.4
		s27.5,6.5,27.5,9.4V242.7z M595.6,247.4v-51.5c0-6.5,0-19.3-56.8-19.3c-11.2,0-20.2,0.6-27.5,1.2v-34.6c0-2-1.6-3.5-3.5-3.5h-22.8
		c-2,0-3.5,1.6-3.5,3.5v104c0,6.5,0,19.3,56.8,19.3C595.6,266.8,595.6,253.9,595.6,247.4z M511.5,242.7v-41.9c0-2.8,0-9.2,27.5-9.2
		c27.5,0,27.5,6.5,27.5,9.2v41.9c0,2.8,0,9.2-27.5,9.2C511.5,251.9,511.5,245.4,511.5,242.7z M748.5,266.8
		c56.8,0,56.8-12.8,56.8-19.3v-51.7c0-6.5,0-19.3-56.8-19.3c-54.8,0-54.8,12.8-54.8,19.3v4.7c0,2,1.6,3.5,3.5,3.5H720
		c2,0,3.5-1.6,3.5-3.5c0-2.8,0-9.2,25.2-9.2c27.5,0,27.5,6.5,27.5,9.2v14c-7.3-0.8-16.3-1.2-27.5-1.2c-56.8,0-56.8,12.8-56.8,19.3
		v14.9C691.3,254.1,691.3,266.8,748.5,266.8z M721,237.3c0-2.8,0-9.4,27.5-9.4c27.5,0,27.5,6.5,27.5,9.4v5.3c0,2.8,0,9.2-27.5,9.2
		c-27.5,0-27.5-6.5-27.5-9.2V237.3z M313.3,140h-22.8c-2,0-3.5,1.6-3.5,3.5v99.3c0,2.8,0,9.2-27.5,9.2c-26.1,0-27.1-5.9-27.5-9v-4.5
		c0-2-1.6-3.5-3.5-3.5h-22.8c-2,0-3.5,1.6-3.5,3.5v8.6c0,6.5,0,19.3,56.8,19.3s56.8-12.8,56.8-19.3v-104
		C315.7,140.9,315.5,140,313.3,140z M213.6,315.2h-8.5c-1.2,0-2,1-2,2v21c0,1.2,1,2,2,2h8.5c1.2,0,2-1,2-2v-21
		C215.8,316.2,214.8,315.2,213.6,315.2z M255.9,315.2h-9.8c-1.2,0-2.2,1-2.2,2.2V338c0,1.2,1,2.2,2.2,2.2h9.8c1.2,0,2.2-1,2.2-2.2
		v-20.6C258.1,316.2,257.1,315.2,255.9,315.2z M298.2,315.2H287c-1.2,0-2.2,1-2.2,2.2v20.4c0,1.2,1,2.2,2.2,2.2h11.2
		c1.2,0,2.2-1,2.2-2.2v-20.4C300.3,316.2,299.3,315.2,298.2,315.2z M340.2,315.2h-12.4c-1.2,0-2.2,1-2.2,2.2v20.4
		c0,1.2,1,2.2,2.2,2.2h12.4c1.2,0,2.2-1,2.2-2.2v-20.4C342.8,316.2,341.6,315.2,340.2,315.2z M382.7,315.2h-14c-1.2,0-2.6,1-2.6,2.6
		V338c0,1.2,1,2.6,2.6,2.6h14c1.2,0,2.6-1,2.6-2.6v-20.2C385.1,316.4,384.1,315.2,382.7,315.2z M425,315.2h-15.1
		c-1.6,0-2.6,1.2-2.6,2.6v20.1c0,1.6,1.2,2.6,2.6,2.6H425c1.6,0,2.6-1.2,2.6-2.6v-20.1C427.3,316.4,426.1,315.2,425,315.2z
		 M467,315.2h-16.7c-1.6,0-2.8,1.2-2.8,2.8v19.7c0,1.6,1.2,2.8,2.8,2.8H467c1.6,0,2.8-1.2,2.8-2.8v-19.7
		C469.8,316.4,468.6,315.2,467,315.2z M509.3,315.2h-17.9c-1.6,0-2.8,1.2-2.8,2.8v19.7c0,1.6,1.2,2.8,2.8,2.8h17.9
		c1.6,0,2.8-1.2,2.8-2.8v-19.7C512.1,316.4,511.1,315.2,509.3,315.2z M551.8,315.2h-19.5c-1.6,0-2.8,1.2-2.8,2.8v19.5
		c0,1.6,1.2,2.8,2.8,2.8h19.5c1.6,0,2.8-1.2,2.8-2.8v-19.5C554.5,316.4,553.1,315.2,551.8,315.2z M593.8,315.2h-20.6
		c-1.8,0-2.9,1.2-2.9,2.9v19.3c0,1.8,1.2,2.9,2.9,2.9h20.6c1.8,0,2.9-1.2,2.9-2.9v-19.3C596.8,316.8,595.6,315.2,593.8,315.2z
		 M636.1,315.2h-22c-1.8,0-2.9,1.2-2.9,2.9V337c0,1.8,1.2,2.9,2.9,2.9h22c1.8,0,2.9-1.2,2.9-2.9v-18.9
		C639.2,316.8,637.7,315.2,636.1,315.2z M948.9,315.2H657.1c-2.9,0-5.5,2.6-5.5,5.5v14c0,2.9,2.6,5.5,5.5,5.5h291.7
		c2.9,0,5.5-2.6,5.5-5.5v-14C954.4,317.7,952,315.2,948.9,315.2z M1048.7,139.3c-3.9,0-7.1,3.5-7.1,7.5V198c0,1.2-1.6,1.8-2.2,1
		l-58.2-57.6c-2.2-2.2-5.9-2.8-9-1c-2.2,1.2-3.5,3.7-3.5,6.3v72.3c0,3.9,3.3,7.3,7.5,7.3c3.9,0,7.3-3.5,7.3-7.5v-51.3
		c0-1.2,1.6-1.8,2.2-1l57.8,57.8c1.6,1.6,3.3,2.2,5.3,2.2c1.2,0,2.6-0.2,3.7-1c2.2-1.2,3.5-3.7,3.5-6.5v-72.5
		C1056,142.6,1052.7,139.3,1048.7,139.3z M947.1,175.8h-21.4c-3.9,0-7.5,3.3-7.5,7.3c0,3.9,3.3,7.5,7.3,7.5h12.8l0,0
		c1,0,1.8,0.8,1.8,1.8v18.3l0,0c0,1-0.8,1.8-1.8,1.8l0,0h-26.7c-16.9,0-30.5-13.8-29.5-30.7c0.8-15.1,13.6-27.5,28.9-27.5h36
		c3.9,0,7.5-3.3,7.5-7.3s-3.3-7.5-7.3-7.5h-35.8c-23.2,0-42.9,18.3-44.2,41.5c-1.2,25,18.7,45.6,43.4,45.6h36.2
		c3.9,0,7.3-3.3,7.3-7.3v-36.2C954.6,179,951.4,175.8,947.1,175.8z"/>
</g>
</svg>
