<?xml version="1.0" encoding="utf-8"?>
<!-- Generator: Adobe Illustrator 23.1.0, SVG Export Plug-In . SVG Version: 6.00 Build 0)  -->
<svg version="1.1" id="Layer_1" xmlns="http://www.w3.org/2000/svg" xmlns:xlink="http://www.w3.org/1999/xlink" x="0px" y="0px"
	 viewBox="0 0 1260 480" style="enable-background:new 0 0 1260 480;" xml:space="preserve">
<style type="text/css">
	.st0{fill:#010101;}
	.st1{fill:#E21D38;}
	.st2{fill:#FFFFFF;}
</style>
<g>
	<g>
		<g>
			<g>
				<g>
					<g>
						<path class="st0" d="M342.4,258.1v54.4c0,20.5,2.2,29.6,23.1,29.6v1.7h-79.6V342c23.5,0,20.9-25.2,20.9-45.7v-57.9
							c0-20.5,4.4-60.5-19.6-60.5v-2.2h76.1v2.2c-19.6,0-20.9,11.7-20.9,32.2v42.6h3.5c31.8-31.8,35.2-37.4,37.4-40.9
							c16.1-25.7,0.9-33.5-7.8-33.5v-3h64.8v3c-10.9,0-31.8,17.4-44.4,27.4L348,253.7c65.3,3,64,37,70.9,62.2
							c3.9,14.4,7,23.1,22.2,26.1v1.7h-57.9C375,295,370.7,254.1,342.4,258.1z"/>
					</g>
				</g>
				<g>
					<path class="st0" d="M496.4,265c0,23.5,3.9,30,17.4,30v1.7h-67.4V295c13.9,0,14.8-16.1,14.8-30v-60.9
						c0-16.1-3.5-25.2-17.4-25.2v-3h52.7V265z"/>
				</g>
				<g>
					<path class="st0" d="M478.1,131c10.4,0,18.7,8.7,18.7,18.7c0,10.4-8.7,18.7-18.7,18.7c-10.4,0-18.7-8.7-18.7-18.7
						C459,139.3,467.7,131,478.1,131z"/>
				</g>
				<g>
					<path class="st0" d="M566.9,191c11.7-17,20-17.4,33.5-17.4c32.2,0,35.2,24.8,35.2,45.7v46.1c0,22.6,2.2,30,14.8,30v1.7h-64.4
						v-1.7c11.3,0,11.3-10,11.3-30v-47c0-17,1.7-37.9-10.9-37.9c-14.8,0-15.2,11.7-19.1,18.7v66.1c0,19.6,1.3,30,12.6,30v1.7h-63.1
						v-1.7c12.6,0,14.8-10.4,14.8-30v-61.4c0-17-3-25.2-17-25.2v-3h53.1V191C567.8,191,566.9,191,566.9,191z"/>
				</g>
				<g>
					<path class="st0" d="M901.5,175.8h24.8l-4.4,8.3h-20.5v72.7c0,36.6,20.9,33.5,30,25.7l0.4,2.2c-19.1,15.2-31.8,12.2-36.6,12.2
						c-18.3,0-30-13.1-30-30.5v-81.8H845v-0.9c16.1-5.7,42.2-27,54.4-44.4h2.2L901.5,175.8L901.5,175.8z"/>
				</g>
				<g>
					<path class="st0" d="M918.9,237.6c0-29.2,26.1-64,57.9-64c29.2,0,57,30.9,57,61.8c0,36.6-31.3,63.5-57,63.5
						C945.5,299,918.9,271.1,918.9,237.6z M997.3,234.1c0-36.6-1.3-58.3-20.5-58.3c-20.9,0-19.6,27.8-19.6,58.3
						c0,36.6,0,62.2,19.6,62.2C999,296.8,997.3,271.1,997.3,234.1z"/>
				</g>
				<g>
					<path class="st0" d="M1079.1,191c11.7-17,20-17.4,33.5-17.4c32.2,0,35.2,24.8,35.2,45.7v46.1c0,22.6,2.2,30,14.8,30v1.7h-64.4
						v-1.7c11.3,0,11.3-10,11.3-30v-47c0-17,1.7-37.9-10.9-37.9c-14.8,0-15.2,11.7-19.1,18.7v66.1c0,19.6,1.3,30,12.6,30v1.7H1029
						v-1.7c12.6,0,14.8-10.4,14.8-30v-61.4c0-17-3-25.2-17-25.2v-3h53.1V191C1079.9,191,1079.1,191,1079.1,191z"/>
				</g>
				<g>
					<path class="st0" d="M712.2,278.1c-3.5,4.8-8.7,20.5-28.3,20.5c-22.6,0-39.6-20.5-39.6-61.8c0-33.5,21.3-63.1,46.1-63.1
						c17.4,0,24.4,15.7,24.4,15.7v-12.6h54v2.6c0,0-17.8-3.5-17.8,21.8v93.1c-1.7,25.2-12.6,42.6-56.6,54.8l0.4-3
						C720.1,328.1,714.4,301.6,712.2,278.1z M715.3,231.5c0-27.4-2.2-54-19.6-54c-12.2,0-15.2,21.3-15.2,60.5
						c0,32.6,2.6,54.4,15.2,54.4c10.9,0,20-24.8,20-50.9v-10C715.7,231.5,715.3,231.5,715.3,231.5z"/>
				</g>
				<g>
					<path class="st0" d="M757.1,258.1h17.4c-2.2,37.9,23.9,37.9,30.5,37.9c11.3,0,21.8-9.1,21.8-19.1c0-30.9-64-17.4-64-64.4
						c0-21.3,16.1-38.7,40.5-38.7c39.2,0,43.5,23.5,43.5,31.8h-14.8c1.3-5.7-0.9-30-26.1-30c-20.5,0-19.6,16.5-19.6,17.8
						c0,30,69.2,19.1,69.2,63.1c0,22.2-18.7,40.5-43.9,42.2C768.4,300.7,757.1,269.4,757.1,258.1z"/>
				</g>
				<g>
					<path class="st0" d="M1135.2,165.8c0-7,5.7-12.6,12.6-12.6s12.6,5.7,12.6,12.6c0,7-5.7,12.6-12.6,12.6
						S1135.2,172.8,1135.2,165.8z M1158.2,165.8c0-6.1-4.4-10.9-10.4-10.9s-10.4,4.8-10.4,10.9s4.4,10.9,10.4,10.9
						C1153.5,176.7,1158.2,171.9,1158.2,165.8z M1153.9,172.8h-2.2l-3.9-6.5h-3v6.5h-1.7v-13.9h6.1c3.9,0,4.8,1.3,4.8,3.5
						c0,2.6-1.7,3.9-4.4,3.9L1153.9,172.8z M1147.4,164.9c2.2,0,4.8,0.4,4.8-2.6c0-2.2-1.7-2.6-3.5-2.6h-3.9v4.8L1147.4,164.9
						L1147.4,164.9z"/>
				</g>
				<g>
					<path class="st0" d="M450.3,306.4h30.5v4.4h-12.6v33.1h-5.2v-33.1h-12.6V306.4z"/>
				</g>
				<g>
					<path class="st0" d="M519.5,343.8v-37.9h27.4v4.8h-22.6V322h20.9v4.4h-20.9V339h23.1v4.4L519.5,343.8L519.5,343.8z"/>
				</g>
				<g>
					<path class="st0" d="M603.5,305.5c4.8,0,8.3,1.3,11.3,3.9c2.6,2.6,3.9,5.2,4.4,8.7h-4.8c-0.4-2.6-1.7-4.4-3.5-5.7
						s-3.9-2.2-7-2.2c-3.9,0-6.5,1.3-9.1,3.9c-2.2,2.6-3.5,6.5-3.5,12.2c0,4.4,0.9,7.8,3,10.9c2.2,2.6,5.2,3.9,9.1,3.9
						c3.9,0,6.5-1.3,8.7-4.4c0.9-1.3,1.7-3.5,2.2-6.1h4.8c-0.4,3.9-1.7,7.4-4.4,10c-3,3-7,4.8-12.2,4.8c-4.4,0-8.3-1.3-10.9-3.9
						c-3.9-3.5-5.7-9.1-5.7-16.1c0-5.7,1.3-10,4.4-13.5C593.4,307.2,597.8,305.5,603.5,305.5z"/>
				</g>
				<g>
					<path class="st0" d="M659.2,343.8v-37.9h5.2v15.7H684v-15.7h5.2v37.9H684v-17.8h-19.6v17.8H659.2z"/>
				</g>
				<g>
					<path class="st0" d="M752.7,343.8v-37.9h6.1l19.1,30.5v-30.5h4.8v37.9h-5.7l-19.1-30.5v30.5H752.7z"/>
				</g>
				<g>
					<path class="st0" d="M834.9,336.4c-2.2-3-3-6.5-3-10.4c0-5.2,1.3-9.1,3.5-11.7c2.6-2.6,5.7-3.9,9.6-3.9s7.4,1.3,9.6,3.9
						c2.2,2.6,3.5,6.1,3.5,10.9c0,4.4-0.9,7.8-3,11.3c-2.2,3-5.2,4.8-9.6,4.8C840.2,340.3,836.7,339,834.9,336.4z M830.2,312.4
						c-2.6,3.5-3.9,7.8-3.9,13.1c0,5.7,1.3,10.4,4.4,13.9c3.5,3.9,7.8,5.7,13.5,5.7c6.1,0,10.9-2.2,14.4-6.5c3-3.9,4.4-8.3,4.4-13.9
						c0-5.2-1.3-9.6-3.9-12.6c-3-4.4-8.3-6.5-14.8-6.5C838,305.5,833.2,307.7,830.2,312.4z"/>
				</g>
				<g>
					<path class="st0" d="M906.7,343.8v-37.9h5.2V339h19.1v4.4L906.7,343.8L906.7,343.8z"/>
				</g>
				<g>
					<path class="st0" d="M979.4,336.4c-2.2-3-3-6.5-3-10.4c0-5.2,1.3-9.1,3.5-11.7c2.6-2.6,5.7-3.9,9.6-3.9s7,1.3,9.6,3.9
						c2.2,2.6,3.5,6.1,3.5,10.9c0,4.4-0.9,7.8-3,11.3c-2.2,3-5.2,4.8-9.6,4.8C984.6,340.3,981.6,339,979.4,336.4z M974.6,312.4
						c-2.6,3.5-3.9,7.8-3.9,13.1c0,5.7,1.3,10.4,4.4,13.9c3.5,3.9,7.8,5.7,13.5,5.7c6.1,0,10.9-2.2,14.4-6.5c3-3.9,4.4-8.3,4.4-13.9
						c0-5.2-1.3-9.6-3.9-12.6c-3-4.4-8.3-6.5-14.8-6.5C982.9,305.5,978.1,307.7,974.6,312.4z"/>
				</g>
				<g>
					<path class="st0" d="M1067.7,305.5c3.5,0,6.5,0.9,9.1,2.2c3.9,2.2,6.1,5.2,7,10.4h-5.2c-0.4-2.6-1.7-4.8-3.9-6.1
						c-1.7-1.3-4.4-1.7-7.4-1.7c-3.5,0-6.5,1.3-8.7,3.9c-2.6,2.6-3.5,6.5-3.5,11.7c0,4.4,0.9,8.3,3,10.9s5.2,4.4,9.6,4.4
						c3.5,0,6.1-0.9,8.3-3s3.5-5.2,3.5-9.6h-11.7v-4.4h16.5v20h-3.5l-1.3-4.8c-1.7,1.7-3,3-4.8,3.9c-2.2,1.3-5.2,1.7-8.7,1.7
						c-4.4,0-8.3-1.3-11.3-4.4c-3.5-3.5-5.2-8.7-5.2-14.8c0-6.1,1.7-11.3,5.2-15.2C1058.2,307.2,1062.5,305.5,1067.7,305.5z"/>
				</g>
				<g>
					<path class="st0" d="M1140.4,329l-14.4-22.6h6.1l10.9,18.3l10.9-18.3h6.1l-14.4,22.6v15.2h-5.2L1140.4,329L1140.4,329z"/>
				</g>
			</g>
		</g>
	</g>
	<g>
		<g>
			<path class="st0" d="M105.7,164.9c-0.9-3-1.7-10-1.7-10c-1.3-5.7,1.3-7.4,1.3-7.4s26.1-13.5,74.4-14.8
				c14.4-0.4,39.6-0.9,64.8,7.8c1.7,0.9,2.2,2.2,2.6,4.4c0.9,3,1.3,6.1,1.7,8.7c0.9,6.5,1.3,10,0.9,13.9c0,2.6-3,7-3,8.3
				c-0.4,4.4,1.3,21.8,0.4,30c-0.4,8.3-3.9,36.6-10.4,55.3c-7,19.6-19.6,16.5-25.7,16.5l30,65.7H97.4L118.7,228c0,0,0.4-3-2.2-4.4
				c-6.1-3.9-10.4-9.6-10.4-9.6s-3-3.5-6.1-22.2c0,0-2.6-17.8,0.4-21.8c1.3-1.7,4.8-3.5,5.7-4.4L105.7,164.9z"/>
		</g>
		<g>
			<path class="st1" d="M221,195l-9.1-2.2c0,0-2.2,0-3,1.3c-0.4,1.3-2.6,8.3-2.6,8.3s0,0.4,0.4,0.9c0.4,0.4,22.6,16.5,22.6,16.5
				s-18.7-1.7-24.4-0.4c-5.7,1.3-17.4,7.4-24.8,8.7c-7.4,1.3-34.8,4.4-36.6,4.4l-10.9-47c0,0-1.3-11.7-13.5-11.3
				c-9.1,0.4-10.4,2.6-10.9,3.5c-0.9,1.7,0,3.5,0,3.5l29.6,50.5c0,0-20-9.6-27.8-20.5c-4.4-5.7-8.3-33.9-5.7-38.7
				c2.6-4.4,18.7-7.8,25.7-7c3.5,0.4,6.5,3.9,8.3,6.1c0.4,0.9,0.9,0.4,1.3,0.9c0,0-1.7-10.9-8.7-11.3c-10-0.9-20.9,3-20.9,3
				s-0.9,0-1.3-1.3c-0.4-1.7-1.7-10.9-1.7-10.9s0.4-1.7,2.2-2.6c0,0,28.3-13.1,70.5-13.1c4.8,0,44.8-0.4,63.5,7.8
				c1.7,1.3,0.4,7.8-0.4,11.3c-0.4,2.6-3.5,3.5-3.5,3.5c-3,0.9-3.9,3-3.9,3s3.9,37.9,4.4,39.2c0.4,1.7-1.3,1.7-4.8,2.2
				c-1.7,0-21.8,0.4-21.8,0.4s-4.4-0.4-3.9-3c0-1.7,0.9-5.2,1.7-5.2c1.3,0,3.9,0,3.9,0S223.6,195.8,221,195z"/>
		</g>
		<g>
			<path class="st1" d="M191,228c0,0,19.1-3.5,39.6,1.7c0,0,4.4,3.5,3.9,6.5C234.5,236.3,203.1,238,191,228z"/>
		</g>
		<g>
			<path class="st1" d="M191.8,262c0,0,5.7-23.5,41.8-20.5c0,0,2.6,2.2-4.4,9.1C220.5,258.9,205.3,265.5,191.8,262z"/>
		</g>
		<g>
			<path class="st0" d="M184.4,148.8c0,0,3.9-0.9,20,2.6c8.3,1.7,12.6,3.9,14.8,4.4c0.9,0.4,0.9,2.6,0.4,2.6
				c-1.3,0.4-21.3-6.5-33.1-6.5c0,0-13.9,5.7-30,19.6c0,0-3.5,0.4-5.2,0C151.4,172.3,166.2,156.2,184.4,148.8z"/>
		</g>
		<g>
			<path class="st0" d="M170.1,171.9c0,0,13.1-6.5,19.6-8.3s12.2-2.2,15.2-1.3c3,0.9,6.1,8.7,6.5,10c0,0-10,4.8-19.1,3.9
				C184,174.9,175.3,174.1,170.1,171.9z"/>
		</g>
		<g>
			<path class="st1" d="M244.9,161c1.7,0.4,1.7,0.4,2.6,1.3c1.3,0.9,0.9,3.5,0,3.9c-0.9,0.9-1.3-0.9-7-0.4
				C240.6,165.8,243.2,160.6,244.9,161z"/>
		</g>
		<g>
			<polygon class="st1" points="123.5,228.5 137,237.6 159.2,339 102.6,339 			"/>
		</g>
		<g>
			<path class="st1" d="M156.1,278.1c0,0,27.4,17,31.8,23.5l3,37.9h-20L156.1,278.1z"/>
		</g>
		<g>
			<path class="st1" d="M202.7,312.9c0,0,16.1,14.8,20.9,26.5h-27L202.7,312.9z"/>
		</g>
		<g>
			<path class="st2" d="M225.3,164.1c0,0,1.7-0.4,2.2,1.3c2.2,9.1,4.8,29.2,4.8,30.5c0,3-3,0.4-3,0.4L225.3,164.1z"/>
		</g>
		<g>
			<path class="st2" d="M167.5,137.5c0,0,0.4,0,1.7,0c0.4,0,8.7,14.4,8.7,14.4s-3,1.7-3.5,2.2L167.5,137.5z"/>
		</g>
		<g>
			<path class="st2" d="M132.6,185.4c0,0-3-9.1,3-10.4c6.1-1.3,14.4-2.6,23.9-1.7c0,0-15.7,3-20.5,4.8S132.6,185.4,132.6,185.4z"/>
		</g>
	</g>
</g>
</svg>
