<?xml version="1.0" encoding="utf-8"?>
<!-- Generator: Adobe Illustrator 23.1.0, SVG Export Plug-In . SVG Version: 6.00 Build 0)  -->
<svg version="1.1" id="Слой_1" xmlns="http://www.w3.org/2000/svg" xmlns:xlink="http://www.w3.org/1999/xlink" x="0px" y="0px"
	 viewBox="0 0 1260 480" style="enable-background:new 0 0 1260 480;" xml:space="preserve">
<style type="text/css">
	.st0{display:none;fill:#83A4BF;}
	.st1{display:none;fill:#648DB0;}
	.st2{fill:#01457D;}
	.st3{fill:#01467D;}
	.st4{display:none;fill:#FBFBFC;}
</style>
<path class="st0" d="M1107.83,236.66c-0.3-2.03-0.6-4.05-0.9-6.08c0.3,0.09,0.6,0.12,0.9,0.07
	C1107.83,232.66,1107.83,234.66,1107.83,236.66z"/>
<path class="st1" d="M1106.91,249.75c0.31-2.03,0.61-4.06,0.92-6.09c0,2,0,4,0,6l-0.47-0.05L1106.91,249.75z"/>
<g>
	<path class="st2" d="M1089.76,207.59c-5.5,31.56-25.89,48.79-55.79,57.56c14.31,21.24,28.54,42.37,43.25,64.22
		c-1.96,0-3.31,0-4.67,0c-21.12,0-42.23,0.05-63.35-0.1c-1.74-0.01-4.27-0.98-5.07-2.32c-10.35-17.4-20.52-34.91-30.56-52.48
		c-1.99-3.48-3.48-7.3-4.82-11.1c-1.85-5.24-0.12-9.97,4.96-12.1c3.64-1.53,7.74-2.32,11.7-2.67c14.87-1.28,27.7-6.44,37.19-18.45
		c4.78-6.05,7.21-13.03,7.67-20.65c0.88-14.73-8.53-24.4-25.28-25.1c-13.11-0.55-26.27-0.11-39.61-0.11
		c-2.84,14.43-5.51,27.9-8.15,41.38c-5.29,27.06-10.51,54.14-15.93,81.18c-0.79,3.92-1.97,7.96-3.94,11.39
		c-4.12,7.19-10.26,11.51-19.06,11.18c-5.5-0.21-11.01-0.04-16.82-0.04c11.21-58.55,22.34-116.68,33.6-175.48c1.65,0,3.37,0,5.1,0
		c35.25,0,70.5-0.01,105.75,0c19.97,0.01,39.45,15.58,43.83,35.01c0.29,1.97,0.59,3.95,0.88,5.92c0,2.28,0,4.55,0,6.83
		C1090.35,203.63,1090.06,205.61,1089.76,207.59z"/>
	<path class="st2" d="M360.94,328.93c1.8-8.3,3.41-16.41,5.45-24.4c0.29-1.12,2.7-2.38,4.15-2.4c17.05-0.23,34.11-0.17,51.16-0.33
		c10.57-0.1,21.14-0.44,30.92-5.22c1.73-0.85,3.48-1.81,4.95-3.04c8.48-7.08,7.13-16.34-3.33-19.65
		c-11.11-3.52-22.59-5.86-33.81-9.05c-4.81-1.36-9.51-3.29-14.04-5.41c-20.7-9.68-28.66-24.92-26.19-47.6
		c3.68-33.81,26.92-52.18,58.3-56.93c4.95-0.75,10.02-0.96,15.04-0.97c27.77-0.09,55.55-0.04,83.32-0.04c1.77,0,3.55,0,5.79,0
		c-2.04,9.52-3.99,18.65-6.07,28.35c-1.73,0-3.47,0-5.22,0c-20.47,0-40.93-0.14-61.4,0.1c-5.13,0.06-10.4,0.8-15.34,2.17
		c-6.2,1.72-10.47,5.9-10.95,12.78c-0.46,6.57,3.2,11.05,8.79,13.26c6.42,2.53,13.17,4.6,19.97,5.73
		c15.64,2.6,30.42,6.79,42.08,18.3c10.75,10.61,13.8,23.76,11.12,38.09c-6.79,36.36-33.89,55.08-66.69,56.39
		c-32.11,1.29-64.31,0.29-96.47,0.29C362.17,329.33,361.86,329.17,360.94,328.93z"/>
	<path class="st2" d="M884.86,329.19c-22.62,0-44.84,0-67.53,0c-0.7-7.91-1.39-15.78-2.12-24.02c-1.75-0.1-3.31-0.25-4.87-0.26
		c-20.31-0.12-40.61-0.15-60.92-0.41c-3.18-0.04-5.13,0.82-6.6,3.64c-2.17,4.16-4.63,8.17-7,12.23c-3.56,6.11-8.63,9.34-15.97,9.07
		c-7.76-0.28-15.54-0.06-23.86-0.06c0.88-1.63,1.48-2.89,2.2-4.07c34.2-55.83,68.43-111.63,102.54-167.51
		c1.72-2.82,3.4-4.09,6.81-3.99c8.93,0.26,17.87,0.08,26.8,0.09c13.84,0.03,24.37,8.63,26.54,22.28
		c7.45,46.97,14.72,93.96,22.06,140.95C883.55,320.95,884.16,324.79,884.86,329.19z M810.96,273.54
		c-0.74-8.05-1.41-15.64-2.13-23.24c-1.1-11.64-2.16-23.29-3.4-34.92c-0.15-1.42-1.18-3.76-2.02-3.86
		c-1.44-0.18-3.23,0.85-4.54,1.82c-1.12,0.83-1.87,2.23-2.61,3.47c-6.52,10.83-13.03,21.66-19.48,32.53
		c-4.67,7.88-9.24,15.83-14.11,24.2C779.01,273.54,794.68,273.54,810.96,273.54z"/>
	<path class="st2" d="M590.27,329.37c5.17-25.9,10.22-51.34,15.33-76.76c3.58-17.81,7.26-35.59,10.84-53.4
		c0.35-1.73,0.44-3.55,0.4-5.33c-0.15-6.48-3.51-9.75-10-9.92c-18.33-0.47-36.67-0.94-55.8-1.43c2.21-9.76,4.32-19.11,6.44-28.49
		c65.8,0,131.21,0,197.19,0c-1.85,9.73-3.64,19.21-5.53,29.16c-7.21,0-14.32,0-21.43,0c-10.39,0-20.79-0.03-31.18,0.01
		c-11.87,0.04-15.97,3.49-18.15,14.96c-7.14,37.44-14.29,74.88-21.48,112.31c-2.5,12.98-9.75,18.89-22.95,18.89
		C619.51,329.37,605.09,329.37,590.27,329.37z"/>
	<path class="st2" d="M380.07,153.89c-23.07,20.67-45.18,40.48-67.29,60.29c-2.78,2.49-5.58,4.96-8.31,7.51
		c-5.23,4.87-5.62,8.25-2.19,14.63c16.26,30.21,32.47,60.45,48.69,90.68c0.29,0.53,0.53,1.09,1.06,2.19
		c-1.49,0.08-2.53,0.18-3.56,0.18c-20.13,0.01-40.27-0.02-60.4,0.04c-2.6,0.01-4.37-0.33-5.77-3.07
		c-11.34-22.19-22.97-44.23-34.3-66.42c-1.89-3.69-3.21-7.8-4.05-11.87c-1.27-6.1,0.42-11.36,5.29-15.74
		c28.14-25.28,56.15-50.7,84.26-76.01c1.23-1.11,2.99-2.29,4.51-2.31C351.6,153.81,365.21,153.89,380.07,153.89z"/>
	<path class="st3" d="M255.78,154.25c-6.92,36.28-13.82,72.45-20.7,108.62c-2.73,14.34-5.26,28.73-8.21,43.03
		c-3.3,16.02-12.78,23.48-29.12,23.46c-9.37-0.01-18.75,0-28.4,0c11.5-58.59,22.89-116.68,34.36-175.11
		C221.06,154.25,238.33,154.25,255.78,154.25z"/>
</g>
<path class="st4" d="M820.96,317.4c-16.7,0-32.77,0-49.53,0c5-8.58,9.68-16.73,14.47-24.82c6.61-11.15,13.29-22.26,19.98-33.37
	c0.77-1.28,1.53-2.71,2.68-3.56c1.34-0.99,3.18-2.04,4.65-1.86c0.87,0.11,1.92,2.51,2.08,3.96c1.27,11.93,2.36,23.87,3.49,35.81
	C819.51,301.35,820.21,309.14,820.96,317.4z"/>
</svg>
