<?xml version="1.0" encoding="utf-8"?>
<!-- Generator: Adobe Illustrator 23.1.0, SVG Export Plug-In . SVG Version: 6.00 Build 0)  -->
<svg version="1.1" id="MS-symbol" xmlns="http://www.w3.org/2000/svg" xmlns:xlink="http://www.w3.org/1999/xlink" x="0px" y="0px"
	 viewBox="0 0 1260 480" style="enable-background:new 0 0 1260 480;" xml:space="preserve">
<style type="text/css">
	.st0{fill:#737373;}
	.st1{fill:#F25022;}
	.st2{fill:#7FBA00;}
	.st3{fill:#00A4EF;}
	.st4{fill:#FFB900;}
</style>
<g>
	<path class="st0" d="M535.1,167.8v144.4H510V198.9h-0.3l-44.8,113.3h-16.7l-45.8-113.3H402v113.3H379V167.8h36.1l41.4,107h0.7
		l43.8-107C501,167.8,535.1,167.8,535.1,167.8z M555.8,178.8c0-4,1.3-7.4,4.3-10c3-2.7,6.4-4,10.4-4c4.3,0,8,1.3,10.7,4
		s4.3,6,4.3,10c0,4-1.3,7.4-4.3,10c-3,2.7-6.4,4-10.7,4s-7.7-1.3-10.4-4C557.5,185.9,555.8,182.5,555.8,178.8z M582.9,208.6v103.6
		h-24.4V208.6C558.5,208.6,582.9,208.6,582.9,208.6z M656.7,294.5c3.7,0,7.7-0.7,12-2.7c4.3-1.7,8.4-4,12-6.7v22.7
		c-4,2.3-8.4,4-13.4,5c-5,1-10.4,1.7-16.4,1.7c-15.4,0-27.7-4.7-37.1-14.4c-9.7-9.7-14.4-22.1-14.4-36.8c0-16.7,5-30.4,14.7-41.1
		s23.4-16,41.4-16c4.7,0,9.4,0.7,13.7,1.7c4.7,1,8.4,2.7,11,4v23.4c-3.7-2.7-7.7-5-11.4-6.4c-4-1.3-8-2.3-12-2.3
		c-9.7,0-17.4,3-23.4,9.4c-6,6.4-8.7,14.7-8.7,25.4c0,10.4,3,18.7,8.7,24.4C639.4,291.5,647,294.5,656.7,294.5z M750,206.9
		c2,0,3.7,0,5.3,0.3s3,0.7,4,1V233c-1.3-1-3-2-5.7-2.7s-5.3-1.3-9-1.3c-6,0-11,2.7-15,7.7c-4,5-6.4,12.7-6.4,23.4v52.1h-24.4V208.6
		h24.4V225h0.3c2.3-5.7,5.7-10,10-13.4C738.3,208.6,743.6,206.9,750,206.9z M760.7,262.1c0-17,5-30.8,14.4-40.8
		c9.7-10,23.1-15,40.1-15c16,0,28.7,4.7,37.8,14.4c9,9.7,13.7,22.7,13.7,39.1c0,16.7-5,30.1-14.4,40.1c-9.7,10-22.7,15-39.4,15
		c-16,0-28.7-4.7-38.1-14C765.4,291.1,760.7,278.1,760.7,262.1z M786.1,261.1c0,10.7,2.3,19.1,7.4,24.7c5,5.7,12,8.7,21.1,8.7
		c8.7,0,15.7-2.7,20.4-8.7c4.7-5.7,7-14,7-25.4c0-11-2.3-19.4-7-25.4c-4.7-5.7-11.7-8.7-20.1-8.7c-9,0-15.7,3-20.7,9
		C788.4,241.7,786.1,250,786.1,261.1z M903.1,236c0,3.3,1,6.4,3.3,8.4c2.3,2,7,4.3,14.7,7.4c9.7,4,16.7,8.4,20.4,13
		c4,5,6,10.7,6,17.7c0,9.7-3.7,17.4-11.4,23.4c-7.4,6-17.7,8.7-30.4,8.7c-4.3,0-9-0.7-14.4-1.7c-5.3-1-9.7-2.3-13.4-4v-24.1
		c4.3,3,9.4,5.7,14.4,7.4c5,1.7,9.7,2.7,14,2.7c5.3,0,9.7-0.7,12-2.3c2.7-1.7,4-4,4-7.7c0-3.3-1.3-6-4-8.7c-2.7-2.3-8-5-15.4-8
		c-9-3.7-15.4-8-19.1-12.7s-5.7-10.7-5.7-18c0-9.4,3.7-17,11-23.1c7.4-6,17-9,28.7-9c3.7,0,7.7,0.3,12,1.3c4.3,1,8.4,2,11.4,3v23.7
		c-3.3-2-7-4-11.4-5.7c-4.3-1.7-8.7-2.3-12.7-2.3c-4.7,0-8.4,1-10.7,2.7C904.4,230.3,903.1,232.6,903.1,236z M957.9,262.1
		c0-17,5-30.8,14.4-40.8c9.7-10,23.1-15,40.1-15c16,0,28.7,4.7,37.8,14.4c9,9.7,13.7,22.7,13.7,39.1c0,16.7-5,30.1-14.4,40.1
		c-9.7,10-22.7,15-39.4,15c-16,0-28.7-4.7-38.1-14C962.9,291.1,957.9,278.1,957.9,262.1z M983.3,261.1c0,10.7,2.3,19.1,7.4,24.7
		c5,5.7,12,8.7,21.1,8.7c8.7,0,15.7-2.7,20.4-8.7c4.7-5.7,7-14,7-25.4c0-11-2.3-19.4-7-25.4c-4.7-5.7-11.7-8.7-20.1-8.7
		c-9,0-15.7,3-20.7,9C986,241.7,983.3,250,983.3,261.1z M1145.1,228.6h-36.4v83.6h-24.7v-83.6h-17.4v-20.1h17.4v-14.4
		c0-10.7,3.7-19.7,10.7-26.7c7-7,16-10.4,27.1-10.4c3,0,5.7,0.3,8,0.3s4.3,0.7,6,1.3v21.1c-0.7-0.3-2.3-1-4.3-1.7c-2-0.7-4.3-1-7-1
		c-5,0-9,1.7-11.7,4.7c-2.7,3-4,8-4,14v12.4h36.4v-23.4l24.4-7.4v30.8h24.7v20.1h-24.7v48.5c0,6.4,1.3,10.7,3.3,13.4
		c2.3,2.7,6,4,11,4c1.3,0,3-0.3,5-1c2-0.7,3.7-1.3,5-2.3v20.1c-1.7,1-4,1.7-7.7,2.3s-7,1-10.7,1c-10.4,0-18-2.7-23.1-8
		s-7.7-13.7-7.7-24.7L1145.1,228.6L1145.1,228.6z"/>
	<g>
		<rect x="65.8" y="119.7" class="st1" width="114.3" height="114.3"/>
		<rect x="192.1" y="119.7" class="st2" width="114.3" height="114.3"/>
		<rect x="65.8" y="246" class="st3" width="114.3" height="114.3"/>
		<rect x="192.1" y="246" class="st4" width="114.3" height="114.3"/>
	</g>
</g>
</svg>
