<?xml version="1.0" encoding="utf-8"?>
<!-- Generator: Adobe Illustrator 23.1.0, SVG Export Plug-In . SVG Version: 6.00 Build 0)  -->
<svg version="1.1" id="Слой_1" xmlns="http://www.w3.org/2000/svg" xmlns:xlink="http://www.w3.org/1999/xlink" x="0px" y="0px"
	 viewBox="0 0 1260 480" style="enable-background:new 0 0 1260 480;" xml:space="preserve">
<style type="text/css">
	.st0{fill:#0F2F99;}
	.st1{fill:#D9161F;}
</style>
<g>
	<path class="st0" d="M177.4,175.2l-45.2-72.8H91.5v172.2h37V162.9l47.8,72.8h1l48.3-73.6v112.4h37.5V102.4h-40.7L177.4,175.2z"/>
	<path class="st0" d="M469.5,188c0-49-38-88.6-90.9-88.6c-52.9,0-91.5,40.1-91.5,89.1v0.5c0,49,38,88.6,90.9,88.6
		c52.9,0,91.4-40.1,91.4-89.1L469.5,188L469.5,188z M430,189c0,29.5-21.1,53.7-51.5,53.7c-30.4,0-52-24.6-52-54.2V188
		c0-29.5,21.1-53.7,51.5-53.7s52,24.6,52,54.2V189z"/>
	<path class="st0" d="M608.6,208.4l-80.4-106.1h-34.9v172.2h37.3V165.1l83.1,109.5h32.1V102.4h-37.3V208.4z"/>
	<path class="st1" d="M791.1,184.6c12.3-6.9,22.6-17.7,22.6-37.2v-0.5c0-11.8-3.9-21.4-11.8-29.2c-9.8-9.8-25.2-15.2-44.8-15.2
		h-79.6v172.2h81.6c38.7,0,64.3-15.7,64.3-47.2v-0.5C823.2,203.8,811,192.2,791.1,184.6z M714.1,135.6h37.3
		c15.9,0,24.7,6.4,24.7,17.7v0.5c0,12.8-10.5,18.2-27.2,18.2h-34.8V135.6z M785.7,222.7c0,12.8-10,18.7-26.7,18.7h-44.8v-37.9h43.7
		c19.3,0,28,7.2,28,18.7L785.7,222.7L785.7,222.7z"/>
	<path class="st1" d="M903.5,101.2l-73.6,173.4h38.5l15.7-38.7h72.6l15.7,38.7h39.4l-73.6-173.4H903.5z M897.6,202.5l22.8-55.8
		l22.8,55.8H897.6z"/>
	<path class="st1" d="M994.3,102.4v35h52.2v137.2h37.8V137.4h52.2v-35H994.3z"/>
	<path class="st0" d="M358.5,349.1h21.2v17.4c-4.8,3.9-12.1,7-20.1,7c-16.9,0-27.6-12.4-27.6-29.1v-0.2c0-15.6,11-28.7,26.5-28.7
		c9.9,0,15.9,3.3,21.2,8l5.1-6c-7-5.9-14.2-9.2-26-9.2c-20.9,0-35,17-35,36.2v0.2c0,20,13.5,35.9,35.5,35.9c11.7,0,21.5-4.9,28-10.7
		v-27.8h-28.7V349.1z"/>
	<path class="st0" d="M508.7,330.4v-0.2c0-5.5-2-10.4-5.4-13.7c-4.4-4.4-11.2-7-19.8-7h-30v69.9h7.9v-27.2h19.9l20.2,27.2h9.6
		l-21.4-28.6C500.8,348.7,508.7,342,508.7,330.4z M461.4,345.1v-28.3h21.5c11.2,0,17.9,5.2,17.9,13.7v0.2c0,9-7.5,14.4-17.9,14.4
		H461.4z"/>
	<path class="st0" d="M606.7,308.2c-21.2,0-35.6,16.9-35.6,36.2v0.2c0,19.2,14.2,35.9,35.5,35.9s35.6-16.9,35.6-36.2v-0.2
		C642,324.9,627.8,308.2,606.7,308.2z M633.9,344.6c0,15.9-11.4,28.7-27.2,28.7c-15.9,0-27.5-13-27.5-28.8v-0.2
		c0-15.9,11.4-28.7,27.2-28.7c15.9,0,27.5,13,27.5,28.8V344.6z"/>
	<path class="st0" d="M756.3,350.1c0,15.2-8.1,23.1-21,23.1c-13.4,0-21.3-8.5-21.3-23.6v-40.2h-7.9v40.7c0,19.7,11.7,30.3,29,30.3
		c17.4,0,29.1-10.6,29.1-31v-40.1h-7.9V350.1z"/>
	<path class="st0" d="M857.4,309.4h-26.1v69.9h7.9v-24.7h16.9c14.9,0,27.4-7.7,27.4-22.8v-0.2C883.5,317.8,873.2,309.4,857.4,309.4z
		 M875.5,332.1c0,9.2-7.6,15.4-19.1,15.4h-17.2v-30.7h17.6c11.2,0,18.7,5.2,18.7,15.2V332.1z"/>
	<path class="st1" d="M1188.5,119.8c0,9.6-7.8,17.4-17.4,17.4c-9.5,0-17.4-7.8-17.4-17.4s7.8-17.4,17.4-17.4
		C1180.8,102.4,1188.5,110.2,1188.5,119.8z M1156.4,119.8c0,8.2,6.6,14.7,14.7,14.7s14.7-6.7,14.7-14.7c0-8.2-6.6-14.7-14.7-14.7
		S1156.4,111.7,1156.4,119.8z M1172,110.9c3.7,0,5.8,2.4,5.8,5.7c0,2.7-1.4,4.7-4,5.3l4.9,6.6h-2.8l-4.2-6.2h-4.5v6.2h-2.4v-17.6
		H1172z M1171.8,120.2c2.3,0,3.6-1.4,3.6-3.7s-1.3-3.7-3.6-3.7h-4.8v7.3H1171.8z"/>
</g>
</svg>
