<?xml version="1.0" encoding="utf-8"?>
<!-- Generator: Adobe Illustrator 23.1.0, SVG Export Plug-In . SVG Version: 6.00 Build 0)  -->
<svg version="1.1" id="Слой_1" xmlns="http://www.w3.org/2000/svg" xmlns:xlink="http://www.w3.org/1999/xlink" x="0px" y="0px"
	 viewBox="0 0 1260 480" style="enable-background:new 0 0 1260 480;" xml:space="preserve">
<g>
	<path d="M493.9,320.6h33V159.4h-33L493.9,320.6L493.9,320.6z M388.5,167.1c-1.6-3.1-3.7-5.2-6.4-7.2c-2.7-1.6-5.9-2.6-9.6-2.6
		s-6.9,1-9.6,2.6s-4.8,4.1-6.4,7.2L264.4,317l-2.7,3.6h37.8l0.5-1l71.4-116.8l31.4,51.2h-46.3l-0.5,1.6l-13.3,22.2l-2.1,3.6h79.3
		l23.4,38.2l0.5,1h39.9l-2.1-3.6L388.5,167.1z M567.4,237.9l102.8-74.4l5.9-4.1h-51.7l-0.5,0.5l-85.2,63.6c-3.2,2.6-5.3,4.7-6.4,7.2
		c-1.1,2.1-1.6,4.7-1.6,7.2s0,5.2,1.1,6.7c1.1,2.1,2.7,4.1,5.3,6.2l90,68.7l0.5,0.5h51.1l-5.9-4.1L567.4,237.9z M220.8,268.9
		L111.1,164c-2.1-2.6-4.3-4.1-6.4-5.2s-4.8-1.6-6.9-1.6c-5.3,0-9.6,1.6-12.2,5.2c-3.2,3.6-4.8,8.3-4.8,14v144.2h32V209.5l109,106.5
		c4.3,4.1,9.6,6.7,14.4,6.7c4.8,0,9.1-1.6,11.7-5.2c3.2-3.1,4.3-7.8,4.3-13.4V158.3h-32v110.6H220.8z M1134.6,206.4
		c-3.7-9.8-9.6-18.1-16.5-24.8s-16-12.4-25.6-16c-10.1-3.6-20.8-5.7-33-5.7h-39.4c-11.7,0-22.4,2.1-32,5.7
		c-9.6,3.6-18.6,9.3-25.6,16c-7.5,6.7-12.8,15.5-17,24.8c-4.3,9.8-5.9,20.7-5.9,32c0,11.4,2.1,22.7,5.9,32.6
		c4.3,9.8,9.6,18.6,17,25.8c7.5,7.2,16,12.9,25.6,17.1c9.6,4.1,20.8,6.2,32,6.2h39.4c11.7,0,22.9-2.1,32.5-6.2
		c10.1-4.1,18.6-9.8,25.6-17.1c7.5-7.2,12.8-16,17-25.8s5.9-20.7,5.9-32.6C1140.9,226.6,1138.8,216.2,1134.6,206.4z M1104.2,259.1
		c-2.1,6.2-5.9,11.4-10.1,15.5c-4.3,4.1-9.6,7.8-15.4,10.3c-5.9,2.6-12.3,3.6-19.2,3.6h-39.4c-6.9,0-13.3-1-19.2-3.6
		s-10.7-5.7-14.9-10.3c-4.3-4.1-7.5-9.3-10.1-15.5c-2.1-6.2-3.7-12.4-3.7-19.6s1.1-13.4,3.7-19.6c2.1-5.7,5.9-10.9,10.1-15
		c4.3-4.1,9.1-7.8,14.9-9.8c5.9-2.6,12.2-3.6,19.2-3.6h39.4c6.9,0,13.3,1,19.2,3.6c5.9,2.6,11.2,5.7,15.4,9.8
		c4.3,4.1,7.5,9.3,10.1,15c2.1,5.7,3.7,12.4,3.7,19.6C1107.4,246.7,1106.3,253.4,1104.2,259.1z M955.1,159.4h-38.3l-0.5,1
		l-70.8,116.8l-70.8-116.8l-0.5-1h-39.9l2.1,3.6l92.7,149.4c1.6,3.1,3.7,5.2,6.4,7.2c2.7,2.1,5.9,2.6,9.6,2.6c3.7,0,6.4-1,9-2.6
		c2.7-1.6,4.8-4.1,6.4-7.2L953,163L955.1,159.4z M688.8,320.6h33V159.4h-33V320.6z"/>
	<path d="M1179.3,180.1c0,10.3-8.5,18.1-19.2,18.1c-10.6,0-19.2-8.3-19.2-18.1c0-10.3,8.5-18.1,19.2-18.1S1179.3,169.7,1179.3,180.1
		z M1145.7,180.1c0,8.3,6.4,14.5,14.4,14.5s14.4-6.2,14.4-14.5s-6.4-14.5-14.4-14.5C1151.6,165.6,1145.7,171.8,1145.7,180.1z
		 M1156.9,189.4h-4.3v-18.1c1.6,0,4.3-0.5,7.4-0.5c3.7,0,5.3,0.5,6.4,1.6c1.1,1,2.1,2.1,2.1,4.1s-1.6,3.6-3.7,4.1
		c1.6,0.5,2.7,2.1,3.2,4.7c0.5,2.6,1.1,3.6,1.6,4.7h-4.8c-0.5-0.5-1.1-2.1-1.6-4.7c-0.5-2.1-1.6-2.6-3.7-2.6h-2.1v6.7H1156.9z
		 M1156.9,179h2.1c2.7,0,4.3-1,4.3-2.6s-1.1-2.6-4.3-2.6c-1.1,0-2.1,0-2.7,0v5.2L1156.9,179L1156.9,179z"/>
</g>
</svg>
