<?xml version="1.0" encoding="utf-8"?>
<!-- Generator: Adobe Illustrator 23.1.0, SVG Export Plug-In . SVG Version: 6.00 Build 0)  -->
<svg version="1.1" id="Слой_1" xmlns="http://www.w3.org/2000/svg" xmlns:xlink="http://www.w3.org/1999/xlink" x="0px" y="0px"
	 viewBox="0 0 1260 480" style="enable-background:new 0 0 1260 480;" xml:space="preserve">
<style type="text/css">
	.st0{fill:#00A1E4;}
	.st1{fill:#62BB46;}
	.st2{fill:#414141;}
	.st3{fill:#FF6000;}
</style>
<title>NComputing-Compute-Smartly</title>
<g>
	<circle class="st0" cx="272.1" cy="69" r="15.8"/>
	<circle class="st0" cx="106.2" cy="249.8" r="15.8"/>
	<path class="st1" d="M272.1,94.2c-6.9,0-13.5-2.9-18.1-8.1L225.8,190c-0.8,2.9-2.5,4.9-4.5,4.9s-3.1-1.3-4-3.4l-32.5-74.8
		c-6.5-14.9-16.9-24.5-28.8-24.5c-14.4,0-26.8,14.4-32.4,35.2l-26.9,99.4c9.6-4,20.6-1.5,27.6,6.2L151.7,132
		c0.8-2.8,2.5-4.8,4.4-4.8c2,0,3.1,1.4,4,3.4l32.6,75c6.5,14.7,16.9,24.3,28.6,24.3c14.4,0,26.7-14.3,32.3-35l27.9-102.7
		C278.5,93.6,275.3,94.2,272.1,94.2z"/>
	<path class="st2" d="M351.5,230h-3.2c-13.6,0.3-27.2-1.7-40.1-6l0,0c-10.4-3.3-19.7-9.6-26.6-18.1l0,0c-4.5-5.9-7.4-12.8-8.6-20.1
		l0,0c-0.4-2.7-0.7-5.4-0.7-8.1l0,0c0.1-6,1-12,2.6-17.9l0,0c2.2-8.5,6-16.4,11.2-23.5l0,0c4.9-6.9,10.8-13,17.4-18.3l0,0
		c10.4-8,22.1-14,34.6-17.7l0,0c13.4-4.3,27.4-6.5,41.4-6.5h10.3l-1.3,6c-0.2,1-0.6,2.8-1,5.2l0,0c-0.5,2.4-1,5-1.4,7.8l0,0
		l-0.9,4.1h-7.3c-7.9,0.1-15.8,0.9-23.5,2.4l0,0c-7.7,1.4-15.1,3.8-22.1,7.2l0,0c-7.9,3.8-15.1,9.1-20.9,15.7l0,0
		c-5.3,5.8-9.1,12.8-11.2,20.3l0,0c-1,3.7-1.6,7.5-1.6,11.3l0,0c0,2.9,0.4,5.8,1.2,8.6l0,0c1.9,6,5.8,11.1,11.2,14.3l0,0
		c5.6,3.7,11.8,6.2,18.3,7.6l0,0c7.5,1.6,15.1,2.5,22.7,2.5h1.9h2.3l0,0l7.7-0.5l-2.6,7.2l-2,4.7l0,0c-0.9,2.5-1.9,5.3-3,8.2l0,0
		L355,230L351.5,230z"/>
	<path class="st2" d="M405.3,230.7c-6.1,0.1-12.1-1.1-17.8-3.4l0,0c-5.3-2.3-9.9-5.9-13.4-10.5l0,0c-4.1-5.5-6.6-12.1-7.3-18.9l0,0
		c-0.2-2.1-0.4-4.2-0.4-6.4l0,0c0-5.5,0.8-11,2.3-16.4l0,0c1.9-7.4,5-14.5,9.1-20.9l0,0c4.2-6.5,9.4-12.3,15.5-17.2l0,0
		c5.5-4.5,11.7-8.1,18.3-10.7l0,0c6.4-2.5,13.2-3.8,20-3.8l0,0c6.4-0.1,12.7,1.1,18.6,3.6l0,0c5.4,2.4,10,6.3,13.3,11.2l0,0
		c3.8,5.5,6.2,12,6.9,18.7l0,0c0.2,1.7,0.3,3.5,0.3,5.2l0,0c-0.1,5.6-0.9,11.2-2.4,16.6l0,0c-2.1,7.8-5.5,15.2-10.1,21.9l0,0
		c-4.5,6.9-10.1,12.9-16.6,17.9l0,0c-5.2,4-11,7.2-17.2,9.5l0,0C418.4,229.6,411.8,230.8,405.3,230.7L405.3,230.7L405.3,230.7z
		 M418.8,146.1c-3.4,1.4-6.5,3.3-9.2,5.6l0,0c-3.9,3.2-7.3,7.1-10,11.5l0,0c-2.9,4.5-5.1,9.5-6.6,14.7l0,0c-1.1,4-1.7,8.2-1.8,12.3
		l0,0c0,1.1,0,2.2,0.2,3.2l0,0c0.3,4,1.8,7.8,4.4,10.8l0,0c1.4,1.6,3.1,2.8,5,3.5l0,0c2.4,0.9,5,1.4,7.6,1.3l0,0
		c3.3,0,6.6-0.6,9.6-1.7l0,0c3.3-1.2,6.3-3,9-5.2l0,0c4.1-3.3,7.6-7.2,10.5-11.7l0,0c2.9-4.5,5-9.3,6.4-14.5l0,0
		c1.1-4,1.7-8,1.7-12.1l0,0c0-1,0-2.1,0-3.1l0,0c-0.2-4-1.6-7.9-4-11.2l0,0c-1.3-1.7-3.1-3-5.1-3.8l0,0c-2.5-1-5.2-1.5-7.8-1.5l0,0
		c-3.3,0-6.7,0.5-9.8,1.7L418.8,146.1z"/>
	<path class="st2" d="M580.7,228.4c0,0,2.4-6.7,2.5-6.9l0,0c0-0.2,2.4-8.4,3.5-12.3l0,0c2.2-7.9,4.3-15.4,6.1-22.3l0,0
		c0.7-2.7,6.5-24.6,7.2-27.6l0,0c0.7-2.6,1.1-5.2,1.1-7.8l0,0c0.1-1.2-0.1-2.4-0.7-3.5l0,0c-0.5-0.7-1.2-1.1-2-1.4l0,0
		c-1.8-0.6-3.6-0.8-5.4-0.8l0,0c-3.8,0.2-7.6,0.9-11.1,2.2l0,0c-5.2,1.8-10.2,3.9-15.1,6.5l0,0c-0.2,0.9-19.5,73.8-19.5,73.8h-24.9
		l4.9-17.5c1.9-6.7,6.6-23.9,6.6-23.9c0.8-3.1,3.7-13.9,3.7-13.9c1.6-6.2,2.8-10.8,3.5-13.7l0,0c0.6-2.3,1-4.6,1.2-7l0,0
		c0-0.4,0-0.9,0-1.3l0,0c0-0.9-0.1-1.8-0.4-2.6l0,0c-0.3-0.8-0.8-1.4-1.6-1.8l0,0c-1.9-0.7-3.9-1-5.9-0.8l0,0
		c-3.8,0.2-7.6,1.1-11.1,2.6l0,0c-5.4,2.2-10.6,4.7-15.7,7.4l0,0c-0.5,2-19.1,72.5-19.1,72.5h-24.9l1.7-6.3
		c0.2-0.6,1.2-4.1,3.1-10.8l0,0c1.9-6.6,4.9-17.6,9-33.1l0,0c1.3-5,3.1-11.8,5.4-20.3l0,0c2.2-8.5,4.7-18.2,7.4-28.9l0,0l0.9-3.8
		H516l-1.6,5.9c2.6-1.2,5.3-2.4,8.2-3.6l0,0c6.2-2.8,12.8-4.4,19.6-4.7l0,0c6.1-0.3,12.1,1.4,17.1,4.8l0,0c2.4,1.8,4.4,4,5.8,6.6
		l0,0c5.8-2.9,11.8-5.5,17.9-7.7l0,0c5.7-2.2,11.6-3.4,17.7-3.7l0,0c9.3,0,17.4,2.9,22,9.6l0,0c2.7,4,4.1,8.8,4,13.7l0,0
		c0,3.5-0.6,7.1-1.5,10.5l0,0c-1.8,6.5-19.1,71.9-19.1,71.9L580.7,228.4z"/>
	<path class="st2" d="M609.2,270.3l2.1-6.5c0-0.2,7-25.3,7-25.3c4.4-15.9,13.1-47.9,13.1-47.9c2.1-8,7.4-28,7.4-28
		c2.8-10.6,8.9-34.4,8.9-34.4l0.9-3.6h3.7c2,0,4,0,6,0h4.5c10.2-0.2,20.4,0.5,30.5,2.1l0,0c6.9,1.3,13.5,4,19.4,8l0,0
		c6,4.1,10.5,10.1,12.7,17.1l0,0c1.1,3.5,1.7,7.2,1.6,10.9l0,0c0,4.3-0.6,8.7-1.8,12.8l0,0c-2.5,9.8-7.3,18.8-14,26.3l0,0
		c-6.5,7.1-14.3,12.8-23,16.8l0,0c-7.6,3.5-15.6,6-23.8,7.4l0,0c-6.2,1.1-12.5,1.8-18.9,2l0,0l-11,42.4L609.2,270.3z M651.4,206.2
		L651.4,206.2c3.5-0.2,6.9-0.7,10.3-1.3l0,0c4.9-0.8,9.7-2.1,14.3-4l0,0c6-2.5,11.4-6.2,15.8-11l0,0c4.2-4.8,7.3-10.6,8.8-16.8l0,0
		c0.7-2.3,1-4.7,1-7.2l0,0c0-1.9-0.3-3.9-0.9-5.7l0,0c-1.1-3.4-3.3-6.3-6.2-8.3l0,0c-3.3-2.1-7.1-3.6-11-4.4l0,0
		c-5.2-1.1-10.4-1.6-15.7-1.5h-0.4C667.2,147.8,651.9,204.1,651.4,206.2L651.4,206.2z"/>
	<path class="st2" d="M729.2,221.1c-2.7-4.1-4-8.9-3.9-13.8l0,0c0.1-3.9,0.6-7.8,1.7-11.6l0,0c1.3-4.9,8.9-32.3,8.9-32.3
		c1.5-5.5,9.8-38.3,9.8-38.3h24.9l-14.9,54.6c-1.6,6.3-2.8,10.8-3.5,13.4l0,0c-0.8,2.9-1.3,6-1.4,9l0,0c-0.1,1.3,0.1,2.5,0.6,3.7
		l0,0c0.3,0.6,0.7,1.1,1.3,1.3l0,0c1.4,0.6,2.9,0.8,4.4,0.8l0,0c6-0.3,11.9-1.6,17.3-4.1l0,0c4.8-1.9,9.5-4,14.1-6.4l0,0l2.3-8.2
		l0,0c1.7-6,3.8-13.6,6.1-22.6l0,0c1.7-6.4,10.7-41.6,10.7-41.6h24.9l-12.9,46.7c-2.1,7.8-14.8,56.6-14.8,56.6h-24.5l1.7-6.3
		c-2.8,1.3-5.7,2.6-8.9,3.9l0,0c-7,3-14.4,4.6-22,4.8h-0.3C741.7,230.7,733.8,227.7,729.2,221.1L729.2,221.1z"/>
	<path class="st2" d="M840.9,219.5c-4.2-4.5-6.4-10.6-6.2-16.7l0,0c0.1-4.1,0.7-8.2,1.8-12.1l0,0c1.8-6.8,9.9-35.9,12.2-44.7h-15.5
		l5.6-20.8h16.3l6-21.8h23.5l-5.9,21.8h33.1l-5.6,20.8h-33c-0.5,1.9-10.9,39.7-12.3,44.9l0,0c-0.7,2.3-1,4.7-1.1,7l0,0
		c-0.2,2,0.4,4,1.7,5.5l0,0c1.7,1.9,6.5,3.8,14.9,3.7l0,0h3.9l0,0h3.1h7.4l-8.8,21.1l-2.9,0.4c-0.9,0-1.9,0.2-3.7,0.2l0,0
		c-1.8,0-3.3,0-4.6,0l0,0c-13.1,0-23.5-2.6-30-9.4L840.9,219.5z"/>
	<path class="st2" d="M990.6,228.4l2-6.4c0.5-1.6,9.7-34.8,9.7-34.8c0.9-3.2,6.5-24.9,7.2-27.7l0,0c0.7-2.6,1.1-5.2,1.2-7.8l0,0
		c0.1-1.3-0.1-2.5-0.7-3.7l0,0c-0.2-0.4-0.5-0.7-1.7-1.2l0,0c-1.9-0.6-3.8-0.9-5.8-0.8l0,0c-4.5,0.3-8.9,1.3-13.1,3l0,0
		c-5.6,2.1-11.2,4.5-16.5,7.2l0,0l-7.4,27c-1.9,7.1-11.7,45.3-11.7,45.3h-24.9c0,0,2.9-10.5,4.9-17.7l0,0c2-7,8.7-31.6,8.7-31.6
		c1.7-6.4,6-22.6,6-22.6c2.3-8.6,8-31.4,8-31.4h24.9l-1.8,6.6c4.9-2.3,10-4.2,15.2-5.9l0,0c5.3-1.8,10.9-2.9,16.6-3.1l0,0
		c8.8,0,16.6,3,21.1,9.6l0,0c2.7,4,4,8.8,3.9,13.6l0,0c-0.1,3.6-0.6,7.3-1.6,10.8l0,0c-2.1,7.8-8.4,30.3-9.3,33.7l0,0
		c-1.5,5.5-9.7,37.9-9.7,37.9L990.6,228.4z"/>
	<path class="st2" d="M1024.4,270.3l3.1-21.6h4.3c7.1,0,13.5-0.5,19.2-1.1l0,0c5.3-0.6,10.4-1.7,15.5-3.3l0,0
		c5.9-1.8,11.3-5,15.7-9.4l0,0c2.1-2.4,3.9-5,5.2-7.8l0,0c-6.8-0.2-13.6-1-20.3-2.6l0,0c-7.2-1.5-13.9-4.7-19.6-9.3l0,0
		c-5.2-4.3-9.1-10.1-11-16.6l0,0c-1-3.2-1.5-6.6-1.4-10l0,0c0.1-4.9,0.8-9.7,2.1-14.4l0,0c2.5-9.5,7.5-18.1,14.5-25l0,0
		c7.1-7.1,15.5-12.8,24.8-16.7l0,0c6.8-2.9,13.9-5,21.2-6.1l0,0c8.4-1.2,16.9-1.8,25.4-1.7h17.1c0,0-12.3,45.4-15,55.2l0,0
		c-1.8,6.6-8.8,33.4-10.3,39.2l0,0c-2.3,9.8-6.7,18.9-13.1,26.7l0,0c-5.8,6.6-12.9,11.9-20.9,15.6l0,0c-7,3.1-14.4,5.4-21.9,6.8l0,0
		c-9.5,1.7-19.1,2.5-28.8,2.4L1024.4,270.3L1024.4,270.3z M1099.4,147c-4.7,0.8-9.2,2.1-13.6,3.9l0,0c-6,2.2-11.4,5.8-15.7,10.5l0,0
		c-4.1,4.5-7,9.8-8.6,15.7l0,0c-0.7,2.5-1.1,5.1-1.1,7.6l0,0c0,2.2,0.4,4.4,1.2,6.4l0,0c1.6,3.8,4.4,6.8,8,8.7l0,0
		c3.4,1.7,6.9,3,10.6,3.8l0,0c4.5,1,9.1,1.5,13.7,1.5l0,0c0.5-1.6,7.8-28.2,7.8-28.2c1.2-4.4,6.9-26,8.1-30.9l0,0
		C1106.5,146.1,1103,146.4,1099.4,147L1099.4,147z"/>
	<circle class="st0" cx="933.2" cy="107.6" r="15.8"/>
	<path class="st2" d="M933.2,132.8c-5.3,0-10.4-1.7-14.6-4.9l0,0c-0.5,2-5.2,20.5-7.1,27.7c-2,7.6-3.9,14.6-5.5,20.9
		c-1.9,7.2-12.3,44.8-12.5,45.4l-2.1,6.6h25.3c0,0,2.2-8.4,4.4-17.2s5.2-20.1,9-34.4c1.6-6,12.8-46,12.8-46
		C939.7,132.2,936.4,132.8,933.2,132.8z"/>
	<path class="st2" d="M1169.6,135.9c0.2,6.6-5,12-11.6,12.2c-6.6,0.2-12-5-12.2-11.6c-0.2-6.6,5-12,11.6-12.2c0.1,0,0.2,0,0.4,0
		c6.4-0.1,11.7,5,11.9,11.4C1169.6,135.8,1169.6,135.8,1169.6,135.9z M1148.7,135.9c-0.2,4.9,3.6,9.1,8.6,9.4c0.2,0,0.4,0,0.6,0
		c4.9,0,8.9-4,8.8-8.9c0-0.1,0-0.2,0-0.3c0.3-4.9-3.5-9.1-8.4-9.4s-9.1,3.5-9.4,8.4c0,0.3,0,0.6,0,1L1148.7,135.9z M1155.8,141.9
		h-2.6v-11.6c1.5-0.3,3-0.4,4.4-0.4c1.4-0.1,2.8,0.2,4,0.8c0.8,0.6,1.2,1.6,1.1,2.6c-0.1,1.3-1.1,2.4-2.4,2.6v0.1
		c1.2,0.5,2,1.6,2.1,2.8c0.1,1,0.4,2,0.8,2.9h-2.9c-0.4-0.9-0.8-1.8-0.9-2.8c-0.2-1.3-0.9-1.8-2.4-1.8h-1.3L1155.8,141.9z
		 M1155.8,135.4h1.3c1.5,0,2.6-0.5,2.6-1.7s-0.8-1.8-2.5-1.8c-0.5,0-1,0-1.5,0.1L1155.8,135.4z"/>
	<path class="st3" d="M305.6,358.7c1.1-9.2,2-16.2,2.6-21.2c0.6-5,1.1-8.6,1.4-11c0.4-2.8,0.5-4.4,0.5-4.8c0.8-2.8,1.7-5.9,2.6-9.2
		c0.9-3.2,2.1-6.3,3.6-9.2c1.4-2.8,3.4-5.2,5.8-7.1c2.6-2,5.9-3,9.2-2.9c1.5,0,3,0.1,4.5,0.3c1.3,0.2,2.6,0.6,3.8,1.2
		c1.2,0.6,2.4,1.2,3.5,2c1.3,0.8,2.5,1.7,3.6,2.7c0.6,0.5,1.1,1,1.6,1.5c0.2,0.5,0.3,1.1,0.2,1.6c0,1.2-0.5,2.5-1.2,3.4
		c-0.8,1.1-2.2,1.7-3.6,1.6c-1.1,0.1-2.2-0.3-3.2-0.9c-0.9-0.6-1.7-1.3-2.4-2.1c-0.8-0.8-1.6-1.5-2.5-2.1c-1-0.6-2.2-0.9-3.4-0.9
		c-1.4,0-2.7,0.4-3.8,1.2c-1.1,0.8-2.1,1.8-2.8,3c-0.8,1.2-1.4,2.6-1.8,4c-0.4,1.4-0.7,2.7-0.9,4.1l-6.5,44c0,0.2,0,0.6,0,1.3
		c0,0.7,0,1.2,0,1.6v2.4c0,1,0.1,1.9,0.3,2.9c0.2,0.9,0.5,1.7,1,2.5c0.5,0.7,1.2,1.1,2.1,1c0.6,0,1.1-0.2,1.5-0.5
		c4.3-2.8,8.1-6.3,11.3-10.2c3.2-4,6.1-8.1,8.9-12.3l0.8-1.3c0.4-0.7,0.8-1.4,1.2-2.2c0.4-0.8,0.8-1.6,1.2-2.3l0.8-1.7
		c0.5-1.2,1-2.4,1.2-3.7c0.3-1.2,0.6-2.4,1-3.6c0.4-1,1-1.9,1.9-2.6c1.1-0.8,2.5-1.1,3.8-1c1.4,0,2.7,0.6,3.7,1.6
		c1.1,1,1.7,2.3,1.8,3.8v0.3c-2.2,6.4-5.2,12.6-8.9,18.3c-3.6,5.6-7.6,11.1-12,16.6c-2.7,3.2-5.9,5.8-9.5,7.8c-3.6,2-7.8,3.1-12,3
		H316c-3.6-1.1-6.6-3.6-8.3-6.9c-1.5-3.4-2.2-7.1-2.1-10.8V358.7z"/>
	<path class="st3" d="M363.8,358.7l5.1-35.3c0.1-1.1,0.7-2,1.6-2.6c0.9-0.5,1.9-0.8,3-0.8c1.8-0.1,3.5,0.5,4.8,1.7
		c1.2,1.2,2.3,2.6,3,4.2h0.1c1,0,2-0.2,3-0.6c1-0.4,2.1-0.7,3.2-0.6c2.8-0.1,5.4,0.9,7.5,2.7c2.1,1.9,3.8,4.1,5,6.7
		c1.3,2.7,2.3,5.5,2.8,8.4c0.5,2.6,0.8,5.2,0.9,7.8c-0.1,3.2-0.8,6.3-2.1,9.2c-1.4,3.4-3.3,6.7-5.6,9.6c-2.2,2.9-4.9,5.5-7.8,7.6
		c-2.6,1.9-5.7,3-8.9,3c-2.5,0.1-5-0.5-7.2-1.8c-1.9-1.3-3.6-2.9-4.8-4.9c-1.2-2.1-2.1-4.3-2.6-6.7c-0.5-2.4-0.8-4.8-0.8-7.3
		L363.8,358.7z M375.3,359.5c0.2,0.9,0.4,2,0.5,3.2c0.2,1.1,0.4,2.2,0.8,3.2c0.3,0.9,0.8,1.6,1.6,2.2c0.9,0.5,2,0.5,3,0
		c1.2-1.1,2.5-2.3,3.8-3.7c1.4-1.4,2.7-2.9,3.9-4.4c1.2-1.5,2.2-3.2,3.1-4.9c0.8-1.7,1.2-3.6,1.2-5.5c0.4-2.9,0.2-5.8-0.7-8.6
		c-0.6-2.2-1.8-4.2-3.5-5.6c-1.5-1.2-3.6-1.3-5.2-0.4c-2.6,1.7-4.7,4.2-5.8,7.1c-1.2,2.6-1.9,5.4-2.3,8.3c-0.4,2.9-0.6,5.8-0.6,8.7
		L375.3,359.5z"/>
	<path class="st3" d="M409.9,327.7c-0.2-2.4-0.6-4.8-1-7.2c-0.2-1.6,0.6-3.1,2-3.8c1.4-0.6,2.8-0.8,4.3-0.8h2.7
		c1.2,0.5,2.2,1.3,2.9,2.3c0.6,0.9,0.9,2,1.1,3c0.2,1.1,0.3,2.3,0.2,3.4c-0.1,1.1-0.1,2.3,0,3.4c0.1,0.8,0.2,1.5,0.1,2.3
		c0,1.1,0,2.2,0,3.4c0,1.2,0.1,2.3,0.3,3.3c0,0.7,0.2,1.4,0.6,1.9l12.1-22.7c0.6-1.1,1.4-2,2.4-2.6c1-0.7,2.3-1,3.5-0.8
		c1.6,0.1,3.1,0.5,4.5,1.2c0.9,0.5,1.7,1.3,2.1,2.3c0.4,1.1,0.7,2.3,0.7,3.5c0,1.4,0.1,2.9,0.2,4.5c0,0.5,0,1.6,0.1,3.1
		c0.1,1.5,0.2,3.1,0.3,4.7c0.1,1.7,0.3,3.2,0.4,4.7c0.1,1.5,0.3,2.5,0.3,3h0.7l1-3.7c0.5-1.8,1.1-3.8,1.7-5.8c0.6-2,1.2-3.9,1.8-5.8
		c0.6-1.8,1-3.1,1.2-3.8l0.5-1.2c0.3-0.6,0.5-1.2,0.8-1.9c0.3-0.7,0.5-1.3,0.8-1.9c0.2-0.4,0.4-0.9,0.5-1.3c0.6-1,1.3-1.5,2-1.6h2.3
		c1.9-0.1,3.8,0.5,5.2,1.7c1.3,1.2,2.3,2.7,2.9,4.4c0.6,1.9,1.1,3.8,1.3,5.7c0.3,2.1,0.6,4,1,5.7c0.5,2.6,0.1,0,0.1,0.2
		c0,0.1,0,0.2-0.1,0.3l7.6,40c0.3,0.3,0.5,0.6,0.6,1c0,0.4,0,0.7,0,1.1c-0.3,2.3-2.1,4.1-4.4,4.4c-1.7-0.1-3.3-0.6-4.7-1.5
		c-1.6-0.7-2.7-2.2-3.1-3.8l-6.3-32.6l-0.7-1.1c-0.2,0.5-0.6,1.8-1.2,3.9c-0.6,2.2-1.3,4.9-2.1,8.1c-0.8,3.3-1.8,6.9-2.8,10.9
		l-3.2,12.4c-0.2,0.8-0.8,1.5-1.6,1.9c-0.7,0.4-1.5,0.6-2.3,0.6c-1.6,0.1-3.2-0.2-4.7-0.7c-1.1-0.4-2.1-1.1-2.7-2.1
		c-0.7-1-1.2-2.1-1.4-3.3c-0.3-1.3-0.5-2.8-0.7-4.4c0-0.4-0.1-1.7-0.3-3.9c-0.2-2.2-0.4-4.8-0.6-7.7c-0.2-2.9-0.5-5.8-0.8-8.7
		c-0.3-2.9-0.5-5.3-0.5-7v-1.3c0-0.2-0.1-0.4-0.1-0.5c0-0.2-0.3-0.6-0.5-1.2l-4,9.5l-6.3,23.2l-1.4,8.5c-0.1,0.5-0.4,1.1-0.8,1.4
		c-0.4,0.4-0.9,0.7-1.4,1c-0.5,0.2-1.1,0.4-1.6,0.5c-0.5,0.1-0.9,0.1-1.4,0.1c-2,0.1-3.9-0.7-5.2-2.2c-1.3-1.3-2.1-3-2.3-4.8
		c0-0.6-0.2-1.9-0.3-3.8c-0.1-1.9-0.2-4.1-0.4-6.7c-0.2-2.6-0.3-5.2-0.5-8.1c-0.1-2.9-0.3-5.5-0.5-8.1l-0.5-6.7
		c-0.1-1.9-0.2-3.2-0.2-3.8V335C410.3,332.5,410.1,330.1,409.9,327.7z"/>
	<path class="st3" d="M491.2,355c-1.7-0.6-3.2-1.4-4.7-2.3c-1.5-1-2.3-2.7-2.1-4.5c-0.1-0.4,0.1-0.8,0.4-1.1
		c0.3-0.2,0.5-0.5,0.7-0.8l1.1-1.5l1.8-2.4l1.8-2.5l1.1-1.6c0-1.2-0.1-2.6-0.2-4.3c-0.1-1.6-0.1-3.2,0.1-4.8
		c0.2-1.4,0.7-2.7,1.6-3.8c1.1-1.1,2.6-1.7,4.1-1.6c1,0,2,0.4,2.7,1.2c0.7,0.8,1.7,1.2,2.7,1.2h0.5c3.7-2.9,7.5-5.5,11.6-7.8
		c4.1-2.3,8.7-3.4,13.4-3.4c2.9-0.1,5.7,0.9,7.8,2.8c2.1,2,3.2,4.9,3.1,7.8c-0.1,4.5-1,9-2.9,13.1c-2,4.6-4.4,9-7.2,13.1
		c-2.8,4.2-6,8.2-9.3,12c-3.3,3.7-6.4,7-9.1,9.8c-0.4,0.4-0.8,0.8-1.2,1.2c-0.5,0.4-1,0.8-1.5,1.3c-0.5,0.5-1.2,1-1.8,1.6l-1,31.8
		c0,0.8,0,1.7,0,2.6c0,0.9-0.2,1.8-0.5,2.6c-0.3,0.7-0.8,1.4-1.4,1.9c-0.7,0.6-1.7,0.8-2.6,0.8c-0.7,0-1.5-0.1-2.2-0.3
		c-0.9-0.2-1.8-0.6-2.6-1c-0.8-0.4-1.5-1-2.1-1.6c-0.6-0.6-0.9-1.4-0.9-2.3L491.2,355z M504,363.6h0.5c0,0,0.4-0.3,0.9-0.8l1.8-1.9
		l2.1-2.3c0.7-0.8,1.2-1.4,1.6-1.9c2.9-2.1,5.5-4.7,7.6-7.5c2.2-2.8,4-5.9,5.6-9.1c1.3-2.6,2.2-5.4,2.6-8.3c0.5-1.8,0.1-3.8-1.2-5.2
		c-1.2-1-3.1-0.8-5.9,0.3c-4.2,2.2-8,4.9-11.3,8.2c-1.1,0.9-2.1,2-3,3.2c-0.9,1.2-1.5,2.5-1.6,4L504,363.6z"/>
	<path class="st3" d="M570.6,366.7c-0.6,1.4-1.3,2.9-1.9,4.5c-0.6,1.5-1.3,2.9-2.2,4.3c-0.8,1.3-1.8,2.4-3,3.2
		c-1.3,0.9-2.9,1.4-4.5,1.3c-2.8,0.1-5.6-0.8-7.8-2.4c-2.2-1.6-3.9-3.7-5.2-6c-1.3-2.5-2.3-5.1-2.8-7.8c-0.5-2.6-0.8-5.2-0.8-7.8
		l1.1-33.2c-0.1-0.7,0.1-1.4,0.5-2c0.4-0.7,1-1.4,1.6-1.9c0.7-0.6,1.5-1.1,2.3-1.4c0.8-0.3,1.6-0.5,2.4-0.5c1.9,0,3.8,0.7,5.2,2
		c1.5,1.3,2.3,3.2,2.2,5.2v1.4c-1.2,2-2,4.2-2.6,6.5c-0.8,2.8-1.3,5.7-1.7,8.6c-0.4,3.1-0.7,6.3-0.8,9.4c-0.1,2.9,0,5.9,0.3,8.8
		c0.2,2.3,0.8,4.6,1.6,6.8c0.4,1.5,1.5,2.7,2.9,3.4c0.7-0.1,1.5-0.3,2.1-0.7c1.2-0.7,2.2-1.5,3.1-2.6c1.3-1.7,2.5-3.5,3.4-5.4
		c1.4-3,2.5-6.1,3.2-9.3c1-4.6,1.7-9.3,2.1-14c0.5-6.6,0.6-13.2,0.4-19.8c0.4-1,0.9-1.6,1.6-1.6c0.7-0.1,1.4-0.1,2.1-0.1
		c0.8,0,1.5,0,2.1,0c0.7,0.1,1.3,0.5,1.8,1c0.6,0.6,1.1,1.3,1.5,2.1c0.3,0.5,0.6,1,0.8,1.5l2.3,60.8c0.1,1.2-0.3,2.4-1.1,3.4
		c-0.8,0.9-1.9,1.5-3.2,1.4c-0.6,0-1.1-0.1-1.6-0.1c-0.7-0.1-1.3-0.3-1.9-0.5c-0.6-0.3-1.2-0.6-1.7-1c-0.5-0.4-0.8-0.9-0.9-1.4
		l-2.3-13.7L570.6,366.7z"/>
	<path class="st3" d="M603.3,339.6c-1.2,0-2.4,0.3-3.4,1c-1.1,0.7-2.3,1-3.6,1h-1.4h-1.4c-0.3-0.4-0.8-0.8-1.2-1.1l-1.4-0.9
		c-0.5-0.3-0.9-0.7-1.2-1.2c-0.4-0.6-0.5-1.3-0.5-1.9c0-1.3,0.6-2.6,1.6-3.4c1.2-0.9,2.5-1.7,3.8-2.3c1.5-0.6,3-1.2,4.5-1.8
		c1.3-0.4,2.5-1.1,3.6-1.9v-6c0-6.8-0.3-13.6-1-20.4s-1-13.6-1-20.3c0-1.8,0.5-3,1.4-3.6c1.1-0.6,2.4-0.9,3.7-0.8
		c1.5-0.1,3,0.5,4.1,1.6c0.9,1.1,1.5,2.4,1.9,3.8c0.4,1.6,0.6,3.2,0.5,4.8c0,1.7,0,3.2,0.1,4.3c0.1,1.1,0.2,3.2,0.3,6.3
		c0.2,3,0.4,6.2,0.5,9.6c0.2,3.4,0.4,6.6,0.5,9.6s0.3,5.1,0.4,6.3c0.7-0.2,1.4-0.5,2.1-0.8c1-0.4,2.2-0.8,3.4-1.2l3.4-1.2l2.3-0.8
		c2.4-1,4.9-2.1,7.4-3.4c2.4-1.2,5.1-1.8,7.8-1.9c1.6-0.1,3.2,0.6,4.2,1.9c1,1.2,1.5,2.8,1.4,4.3c0.1,1.1-0.5,2.1-1.4,2.6
		c-0.9,0.6-1.9,1.1-2.9,1.5l-25,9.3l-0.8,0.5c-0.3,0.2-0.6,0.4-0.8,0.6v4.4c0,3.2,0.1,6.5,0.2,10c0.1,3.3,0.4,6.7,0.9,10
		c0.5,2.8,1,5.5,1.5,8.1c0.6,2.7,0.8,5.4,0.8,8.1c-0.1,1.1-0.4,2.3-0.8,3.3c-0.3,1.2-1.4,2-2.6,2.1c-2.2,0.1-4.4-0.7-6-2.2
		c-1.6-1.6-2.5-3.7-2.6-5.9c-0.5-4.8-0.9-10-1.4-15.7c-0.5-5.7-1-11.1-1.4-16.3L603.3,339.6z"/>
	<path class="st3" d="M706.8,340.7c-0.1,1.3-0.3,2.6-0.6,3.8c-0.2,0.9-0.6,1.7-1.2,2.5c-0.7,0.9-1.5,1.6-2.3,2.3
		c-1,0.8-2.4,1.9-4.1,3.3c-1.7,1.4-3.9,3.3-6.5,5.6c-2.6,2.3-5.7,5.3-9.3,8.9l-4.7,4.2c-1.5,1.4-3.1,2.7-4.9,3.9
		c-1.6,1.1-3.4,2.1-5.2,2.8c-1.8,0.7-3.8,1.1-5.8,1.1c-3.4,0.3-6.7-1.2-8.7-4c-1.9-2.7-2.8-5.9-2.7-9.2c0-2.3,0.1-4.2,0.2-5.8
		c0.2-2,0.6-4.1,1-6l-2.6-2.4c-0.8-0.7-1.2-1.8-1.1-2.8c-0.1-0.8,0.2-1.6,0.8-2.2c0.5-0.4,1.1-0.6,1.8-0.8c0.7-0.1,1.4-0.3,2-0.5
		c0.6-0.1,1.1-0.5,1.4-1.1l1-3l1.6-4.6c0.6-1.6,1.1-3.1,1.6-4.5l1-3c0.6-1.6,1.4-3.1,2.1-4.7c0.7-1.5,1.7-3,2.7-4.3
		c1-1.3,2.3-2.3,3.7-3.2c1.5-0.9,3.3-1.3,5-1.2c1.5,0.1,2.9,0.7,4.1,1.5c1.7,1.1,3.2,2.3,4.6,3.6c1.4,1.3,2.6,2.8,3.7,4.5
		c0.9,1.2,1.4,2.5,1.5,4c0,1.3-0.3,2.6-1,3.8c-0.7,1.2-1.5,2.2-2.4,3.2c-1,0.9-2,1.8-3.1,2.6c-1.1,0.8-2.1,1.6-3,2.3
		c-0.2,0-0.4,0.1-0.5,0.3l-0.7,0.4l-0.6,0.6l-1,1l-1,1.1l-0.6,0.7c-0.5,0.5-1,0.9-1.6,1.3l-2.6,1.9l-2.6,1.9l-1.6,1.2l-0.5,1.1
		c-0.3,0.8-0.4,1.6-0.5,2.4c-0.1,1.2-0.3,2.6-0.5,4.2c-0.2,1.6-0.3,3.1-0.5,4.7c-0.1,1.6-0.2,2.9-0.2,3.9c0,0.1,0,0.2,0.1,0.3
		c0.2,0.2,0.3,0.3,0.4,0.3c0.8,0,1.5-0.4,2.1-1c0.6-0.6,1.3-1.1,2.1-1.4l22-20.3l5.6-8.7c0.7-0.9,1.6-1.6,2.6-2.1
		c1.2-0.7,2.6-1.2,4.1-1.2c1.3,0,2.6,0.4,3.6,1.3C706.3,336.7,707,338.7,706.8,340.7z M676.6,330c0.5-0.4,0.7-1,0.5-1.6
		c-0.1-0.7-0.3-1.4-0.8-1.9c-0.4-0.5-0.9-0.9-1.6-1c-0.7-0.1-1.2,0.2-1.8,1c-0.3,0.4-0.8,1.1-1.4,2.2c-0.7,1.1-1.4,2.2-2.1,3.4
		c-0.7,1.2-1.3,2.1-1.7,3c-0.5,0.8-0.5,1.2-0.3,1L676.6,330z"/>
	<path class="st3" d="M757.8,374.8c1.3-1.8,3-3.4,4.9-4.5c1.8-1,3.6-1.8,5.5-2.5l5.6-1.9c2-0.7,3.9-1.7,5.6-3c1-0.5,2.4-1.4,4.3-2.5
		c1.8-1.1,3.6-2.3,5.4-3.6c1.6-1.2,3.2-2.5,4.7-3.9c1.1-0.8,1.8-2,2-3.3 M795.6,349.5c-0.2,0-0.3,0-0.3-0.1l-0.3-0.3
		c-0.5-0.2-1.2-0.4-2.2-0.7c-0.6-0.1-1.2-0.3-1.8-0.5c-11.8-1.4-21.3-2.6-28.5-3.6c-5.6-0.7-11.1-1.9-16.6-3.4
		c-2.9-0.6-5.7-2.1-7.8-4.1c-1.3-1.7-2-3.8-1.9-5.9c0-1,0.2-2.1,0.5-3c0.4-1.1,0.8-2.2,1.3-3.3c0.5-1,1-2.1,1.6-3
		c0.4-0.8,1-1.5,1.5-2.2c1.6-2,3.6-3.6,5.8-4.9c2.4-1.5,5-2.8,7.7-3.8c2.8-1.1,5.5-2.1,8.3-2.9l7.6-2.2c2.7-0.2,5.3-0.8,7.8-1.9
		c2.5-1,5.2-1.7,7.8-2.1c1.2,0,2.4,0.5,3.2,1.5c0.8,0.9,1.2,2,1.2,3.2c0.3,2.3-1.1,4.4-3.2,5.2c-1,0.4-2.1,0.8-3.2,1l-3.6,0.8
		l-3,0.8l-3.8,1l-3.4,1c-0.6,0.1-1.2,0.3-1.8,0.5l-8,3.4c-2.3,0.9-4.5,2-6.6,3.2c-1.6,0.9-3.1,2.1-4.4,3.5c-1,1.1-1.5,2.6-1.4,4.1
		v0.1c1.7,1.7,3.8,2.7,6.2,2.9c3.2,0.6,7,1.2,11.3,1.6l13.7,1.4c4.5,0.4,8.9,1.1,13.3,2.1c3.5,0.7,6.9,2,10,3.7
		c2.4,1.2,4,3.6,4.1,6.3c0,1.2-0.2,2.4-0.6,3.6c-0.3,1.2-0.9,2.3-1.7,3.2c-2.6,2.8-5.3,5.4-8.2,7.8c-3.2,2.8-6.6,5.3-10.2,7.6
		c-3.6,2.3-7.4,4.3-11.3,5.9c-3.7,1.5-7.5,2.5-11.5,2.8c-1.3,0-2.6-0.5-3.6-1.4c-1.1-0.8-1.8-2-1.8-3.4L795.6,349.5z"/>
	<path class="st3" d="M812.6,327.7c-0.2-2.4-0.6-4.8-1-7.2c-0.2-1.6,0.6-3.1,2-3.8c1.4-0.6,2.8-0.8,4.3-0.8h2.7
		c1.2,0.5,2.2,1.3,2.9,2.3c0.6,0.9,0.9,2,1.1,3c0.2,1.1,0.3,2.3,0.2,3.4c-0.1,1.1-0.1,2.3,0,3.4c0.1,0.8,0.2,1.5,0.1,2.3
		c0,1.1,0,2.2,0,3.4c0,1.2,0.1,2.3,0.3,3.3c0,0.7,0.2,1.4,0.6,1.9l12.1-22.7c0.6-1.1,1.4-2,2.4-2.6c1-0.7,2.3-1,3.5-0.8
		c1.6,0.1,3.1,0.5,4.5,1.2c0.9,0.5,1.7,1.3,2.1,2.3c0.4,1.1,0.7,2.3,0.7,3.5c0,1.4,0.1,2.9,0.2,4.5c0,0.5,0,1.6,0.1,3.1
		c0.1,1.5,0.2,3.1,0.3,4.7c0.1,1.7,0.3,3.2,0.4,4.7c0.1,1.5,0.3,2.5,0.3,3h0.5l1-3.7c0.5-1.8,1.1-3.8,1.7-5.8c0.6-2,1.2-3.9,1.8-5.8
		c0.5-1.8,1-3.1,1.2-3.8l0.5-1.2c0.3-0.6,0.6-1.2,0.8-1.9c0.3-0.7,0.5-1.3,0.8-1.9c0.2-0.4,0.4-0.9,0.5-1.3c0.6-1,1.3-1.5,2-1.6h2.3
		c1.9-0.1,3.8,0.5,5.2,1.7c1.3,1.2,2.4,2.7,3,4.4c0.6,1.9,1.1,3.8,1.3,5.7c0.3,2.1,0.6,4,1,5.7c0.5,2.6,0.1,0,0.1,0.2
		c0,0.1,0,0.2-0.1,0.3l7.6,40c0.3,0.3,0.5,0.6,0.6,1c0,0.4,0,0.7,0,1.1c-0.3,2.3-2.1,4.1-4.4,4.4c-1.7-0.1-3.3-0.6-4.7-1.5
		c-1.6-0.7-2.7-2.2-3.1-3.8l-6.3-32.6l-0.7-1.1c-0.2,0.5-0.6,1.8-1.2,3.9s-1.3,4.9-2.1,8.1c-0.8,3.3-1.8,6.9-2.8,10.9l-3.2,12.4
		c-0.2,0.8-0.8,1.5-1.6,1.9c-0.7,0.4-1.5,0.6-2.3,0.6c-1.6,0.1-3.2-0.2-4.7-0.7c-1.1-0.4-2.1-1.1-2.7-2.1c-0.7-1-1.2-2.1-1.4-3.3
		c-0.3-1.3-0.5-2.8-0.7-4.4c0-0.4-0.1-1.7-0.3-3.9c-0.2-2.2-0.4-4.8-0.6-7.7c-0.2-2.9-0.5-5.8-0.8-8.7c-0.3-2.9-0.5-5.3-0.5-7v-1.3
		c0-0.2-0.1-0.4-0.1-0.5c0-0.2-0.3-0.6-0.5-1.2l-4,9.5l-6.1,23.2l-1.4,8.5c-0.1,0.5-0.4,1.1-0.8,1.4c-0.4,0.4-0.9,0.7-1.4,1
		c-0.5,0.2-1.1,0.4-1.6,0.5c-0.5,0.1-0.9,0.1-1.4,0.1c-2,0.1-3.9-0.7-5.2-2.2c-1.3-1.3-2.1-3-2.3-4.8c0-0.6-0.2-1.9-0.3-3.8
		c-0.1-1.9-0.2-4.1-0.4-6.7c-0.2-2.6-0.3-5.2-0.5-8.1c-0.1-2.9-0.3-5.5-0.5-8.1l-0.5-6.7c-0.1-1.9-0.2-3.2-0.2-3.8v-0.5
		C813,332.5,812.8,330.1,812.6,327.7z"/>
	<path class="st3" d="M921.6,341.3c-0.8,1.5-1.8,3.2-2.8,5.2l-3.4,6.6c-1.2,2.3-2.5,4.7-3.9,7c-1.3,2.2-2.8,4.3-4.4,6.4
		c-1.4,1.8-3,3.4-4.7,4.9c-1.4,1.2-3.2,2.1-5.1,2.4c-0.8,0-1.7-0.1-2.5-0.2c-0.9-0.1-1.9-0.4-2.7-0.7c-0.9-0.3-1.6-0.8-2.3-1.4
		c-0.6-0.6-0.9-1.5-0.9-2.4c0-8.5,0.7-17.1,2.1-25.5c1.1-7,3.1-13.8,6-20.2c2.5-5.5,6-10.4,10.5-14.5c4.5-4,9.9-6.8,15.7-8.2h1h1
		c2.6-0.2,5,1.3,6,3.8c1.6,4,2.5,8.1,2.7,12.4c0.6,5.6,1,12.9,1.2,21.7s0.7,19.4,1.4,31.8c0.2,0.9,0.4,1.7,0.5,2.6
		c0,0.7,0,1.6,0,2.6c0.1,1.2-0.4,2.3-1.2,3.1c-0.9,0.7-2,1.1-3.2,1c-2.1,0.2-4.2-0.6-5.6-2.2c-1.2-1.8-2-3.8-2.2-5.9
		c0,0,0-0.8-0.2-2.2c-0.2-1.4-0.3-3-0.5-4.7c-0.2-1.8-0.4-3.6-0.6-5.4s-0.3-3.3-0.4-4.5v-0.5c-0.2-1.1-0.3-2.3-0.3-3.4
		c0-1.3-0.2-2.7-0.3-4c-0.2-1.6-0.3-3.1-0.4-4.7L921.6,341.3z M918.6,314.2c-2.8,2.1-5.2,4.6-7.3,7.4c-2.2,2.7-3.9,5.8-5.1,9.1
		c-0.5,1.4-1,3.3-1.5,5.6s-1,4.7-1.4,7.1c-0.4,2.3-0.8,4.5-1,6.5c-0.2,1.3-0.3,2.5-0.4,3.8c0,0,0.2,0,0.3-0.3l0.3-0.4
		c5.3-4.9,9.4-11,12-17.8C917,328.4,918.3,321.3,918.6,314.2z"/>
	<path class="st3" d="M949.2,373.8c-0.2-3.3-0.5-7.7-0.9-13.3c-0.4-5.5-0.9-11.3-1.4-17.2c-0.5-5.9-1-11.6-1.6-16.9
		c-0.5-5.3-1-9.4-1.4-12.4c-0.1-1.1,0.6-2,1.6-2.3c1-0.4,2.1-0.5,3.2-0.5c1.4,0,2.8,0.4,4.1,1.1c1.3,0.6,2.2,1.7,2.6,3
		c0,0.4,0,1,0.1,2c0,1,0.2,1.9,0.2,3c0.1,1,0,2,0.2,3c0.2,1,0.1,1.6,0.1,2v2c0,0.3,0,0.5,0.1,0.8c0,0.3,0.2,0.7,0.4,1.4l0.6-0.7
		l0.5-0.5c1.3-1.9,2.7-3.8,4.3-5.6c1.4-1.6,2.8-3.1,4.3-4.5s3.1-2.9,4.9-4.5l6.2-5.6l1.2-1c0.2-0.2,0.5-0.4,0.8-0.5
		c0.2-0.1,0.5-0.2,0.8-0.3c0.4,0,0.7,0,1.1,0c1.7,0,3.3,0.6,4.7,1.6c1.5,0.9,2.4,2.6,2.4,4.3c0,0.7-0.3,1.4-0.7,2
		c-0.5,0.7-1,1.4-1.6,1.9c-0.6,0.6-1.3,1.1-2,1.6c-0.6,0.4-1.2,0.7-1.9,1c-2.4,2.1-4.9,4.5-7.6,7.2c-2.7,2.7-5.2,5.6-7.4,8.7
		c-2.2,3-4.1,6.3-5.6,9.8c-1.4,3.2-2.2,6.7-2.2,10.2c0,3.1,0.2,6.2,0.7,9.2c0.5,3,0.7,6.1,0.7,9.2v4.8c-0.7,0.7-1.4,1.3-1.9,1.8
		c-0.7,0.5-1.5,0.7-2.3,0.7c-1.7-0.1-3.3-0.8-4.5-2C950.7,376.9,949.8,375.4,949.2,373.8z"/>
	<path class="st3" d="M1003.8,339.6c-1.2,0-2.4,0.3-3.4,1c-1.1,0.7-2.3,1-3.6,1h-1.4h-1.4c-0.3-0.4-0.8-0.8-1.2-1.1l-1.4-0.9
		c-0.5-0.3-0.9-0.7-1.2-1.2c-0.4-0.6-0.5-1.3-0.5-1.9c0-1.3,0.6-2.6,1.6-3.4c1.2-0.9,2.5-1.7,3.8-2.3c1.5-0.6,3-1.2,4.5-1.8
		c1.3-0.4,2.5-1.1,3.6-1.9v-6c0-6.8-0.3-13.6-1-20.4c-0.6-6.8-1-13.6-1-20.3c0-1.8,0.5-3,1.4-3.6c1.1-0.6,2.4-0.9,3.7-0.8
		c1.5-0.1,3,0.5,4.1,1.6c0.9,1.1,1.5,2.4,1.9,3.8c0.4,1.6,0.6,3.2,0.5,4.8c0,1.7,0,3.2,0.1,4.3c0.1,1.1,0.2,3.2,0.3,6.3
		c0.2,3,0.4,6.2,0.5,9.6c0.2,3.4,0.4,6.6,0.5,9.6c0.2,3,0.3,5.1,0.4,6.3c0.7-0.2,1.4-0.5,2.1-0.8l3.4-1.2l3.4-1.2l2.3-0.8
		c2.4-1,4.9-2.1,7.4-3.4c2.4-1.2,5.1-1.8,7.8-1.9c1.6-0.1,3.2,0.6,4.2,1.9c1,1.2,1.5,2.8,1.4,4.3c0.1,1.1-0.5,2.1-1.4,2.6
		c-0.9,0.6-1.9,1.1-2.9,1.5l-25,9.3l-0.8,0.5c-0.3,0.2-0.6,0.4-0.8,0.6v4.4c0,3.2,0.1,6.5,0.2,10c0.1,3.3,0.4,6.7,0.9,10
		c0.5,2.8,1,5.5,1.5,8.1c0.6,2.7,0.8,5.4,0.8,8.1c-0.1,1.1-0.4,2.3-0.8,3.3c-0.3,1.2-1.4,2-2.6,2.1c-2.2,0.1-4.4-0.7-6-2.2
		c-1.6-1.6-2.5-3.7-2.6-5.9c-0.5-4.8-0.9-10-1.4-15.7c-0.5-5.7-1-11.1-1.4-16.3L1003.8,339.6z"/>
	<path class="st3" d="M1050.9,370.1c0-3.9,0.1-7.6,0.3-11.3c0.2-3.7,0.3-7.4,0.3-11.3c-0.3-10.5-0.4-20.7-0.3-30.7
		c0.1-10.3-0.4-20.6-1.4-30.8c-0.2-1.3,0.3-2.6,1.2-3.5c1.1-0.7,2.4-1,3.7-0.9c2,0,3.9,0.6,5.4,1.9c1.6,1.3,2.4,3.2,2.4,5.2
		c-0.2,13,0,25.9,0.5,38.7s0.8,25.7,0.8,38.8v10.5c-0.7,0.8-1.4,1.6-2.3,2.2c-0.8,0.7-1.9,1-3,0.8c-2.3-0.2-4.4-1.4-5.8-3.2
		C1051.4,374.6,1050.8,372.4,1050.9,370.1z"/>
	<path class="st3" d="M1096.9,417.5c-0.2-1.9-0.3-4.3-0.3-7c0-2.8,0-5.6,0-8.7c0-3,0-6.1,0-9.2c0-3.1,0.1-6,0.3-8.5v-4.9
		c-0.5-0.7-1.1-1.4-1.6-2c-0.6-0.7-1.8-2.1-3.4-4.1c-1.6-2.1-3.9-5.1-6.8-9.2c-2.9-4.1-6.9-9.8-11.8-17.1c-1.5-1.4-2.8-3.1-3.7-5
		c-0.5-1-0.7-2.1-0.5-3.2c0.2-0.8,0.7-1.4,1.4-1.8c0.7-0.4,1.5-0.5,2.3-0.5c1.7,0,3.4,0.4,4.9,1.2c1.5,0.8,2.8,1.9,4,3.2
		c1.2,1.3,2.3,2.7,3.2,4.2c1,1.5,1.9,3,2.8,4.3l2.1,3.2l2.5,3.8l3,4.6l1.6,1.8v-14.4c0-4.6-0.1-9-0.3-13.4
		c-0.2-4.3-0.3-8.8-0.3-13.3c0-1.2,0.5-2.4,1.4-3.2c0.9-0.8,2.1-1.2,3.3-1.1c1.2,0.1,2.4,0.4,3.5,0.8c1,0.5,1.8,1.3,2.4,2.2
		c0.7,1,1.1,2.3,1,3.6c-0.1,1.3-0.1,2.7,0,4c0.4,8.7,0.7,17.4,0.9,26.1c0.2,8.7,0.3,17.4,0.3,26.1c-0.1,0.8-0.1,2.5-0.1,5
		c0,2.5,0,5.4,0,8.6c0,3.2,0,6.5,0.1,10c0.1,3.5,0.1,6.7,0.1,9.5s0,5.3,0.1,7.1c-0.1,0.9,0,1.8,0.2,2.6c0.1,1.2-0.5,2.3-1.4,3
		c-1,0.7-2.3,1-3.5,1c-1.4,0.1-2.8-0.2-4.1-0.8c-0.8-0.5-1.5-1.2-2-2.1c-0.5-0.9-0.8-1.9-1-3
		C1097.6,419.8,1097.3,418.6,1096.9,417.5z"/>
	<path class="st3" d="M1113.5,303.7c0-0.5,0-1,0-1.4c0-0.7,0.1-1.6,0.2-2.6c0.1-1.1,0.3-2.2,0.6-3.3c0.3-1.2,0.7-2.4,1.1-3.5
		c0.5-1.2,1.1-2.3,1.8-3.3c0.7-1,1.6-1.9,2.6-2.6c1.1-0.7,2.3-1.2,3.6-1.5c1.6-0.3,3.2-0.3,4.7,0c0.7,0,1.4,0.3,2,0.7
		c0.6,0.5,1.2,1,1.7,1.6c0.5,0.7,1,1.4,1.4,2.1c0.4,0.8,0.7,1.5,1,2.2c0.2,0.7,0.4,1.4,0.5,2.1c0.2,0.9,0.3,1.9,0.5,2.9
		c0.1,1,0.3,2,0.3,2.9c0.1,0.9,0.1,1.7,0.1,2.2c-0.1,0.9-0.3,1.8-0.7,2.6c-0.5,1.1-1.1,2.1-1.8,3c-0.7,0.9-1.6,1.7-2.6,2.4
		c-0.9,0.6-1.9,1-3,1h-1.5c-0.8,0.1-1.6,0.1-2.5,0c-1,0-2-0.1-3-0.3c-1.1-0.2-2.1-0.6-3-1.2c-1-0.6-1.9-1.4-2.6-2.4
		C1114.4,306.2,1113.8,305,1113.5,303.7z M1119.2,301.3l-0.2-0.4c0-0.1,0-0.2,0-0.3c0-0.1,0-0.2,0-0.3c0-0.1,0-0.2,0-0.3
		c0-0.3,0-0.5,0-0.7c0-0.2,0-0.4,0-0.7c-0.1-0.1-0.3-0.2-0.4-0.2c-0.2,0-0.3-0.2-0.3-0.5c0-0.1,0-0.2,0-0.3l0.2-0.3l0.2-0.3
		c0-0.1,0-0.2,0-0.3c0-0.3,0-0.5,0-0.8c0-0.4,0-0.7,0-0.8l0,0c0.1-0.2,0.3-0.4,0.5-0.4c0.2-0.1,0.5-0.1,0.8-0.1c0.2,0,0.4,0,0.6,0.1
		c0.2,0.1,0.4,0.4,0.4,0.6c0,0,0,0.2,0,0.2c0.3-0.5,0.6-0.9,1-1.3c0.4-0.5,0.9-0.9,1.4-1.2c0.5-0.3,1-0.6,1.5-0.9
		c0.4-0.2,0.9-0.3,1.4-0.2c0.5,0.1,0.8,0.4,1.1,0.8c0.3,0.6,0.5,1.3,0.5,2.1c0,0.8-0.2,1.5-0.5,2.2c-0.3,0.7-0.8,1.2-1.4,1.7
		c-0.6,0.5-1.2,0.9-2,1.2c-0.7,0.3-1.5,0.5-2.3,0.6l9.7,0.5h0.5c0.2,0,0.4,0,0.6,0c0-0.6-0.1-1.2-0.3-1.8c-0.2-0.8-0.4-1.6-0.6-2.6
		c-0.2-1-0.5-1.9-0.8-2.8c-0.3-1-0.6-1.8-0.9-2.6c-0.3-0.7-0.6-1.3-1-1.9c-0.3-0.5-0.6-0.8-0.9-0.8c-1-0.2-2-0.2-2.9,0
		c-1.1,0.2-2.2,0.6-3.2,1.2c-1.1,0.6-2.1,1.4-3,2.4c-0.9,1.1-1.7,2.3-2.1,3.6c-0.5,1.5-0.8,3.1-0.8,4.8c0,2,0.4,4,1.2,5.9
		c0.3,0.5,0.7,0.9,1.3,1.2c0.7,0.3,1.4,0.6,2.1,0.7c0.8,0.2,1.6,0.3,2.4,0.3h2.2h2.6l1.3-1.2c0.5-0.4,0.9-0.9,1.3-1.3
		c0.4-0.5,0.8-0.9,1.2-1.4c0.3-0.5,0.6-1,0.8-1.5c-0.5,0.1-1,0.2-1.4,0.2c-0.7,0.1-1.4,0.1-2.1,0c-0.8,0-1.8-0.1-3-0.4
		c-1.2-0.3-2.6-0.6-4.3-0.9v0.2c0,0.2,0,0.5,0,0.8c0,0.3,0,0.7,0,1s0,0.7,0,1s0,0.6,0,0.8c0,0.2-0.1,0.4-0.1,0.5
		c-0.1,0.2-0.3,0.3-0.5,0.3h-0.4h-0.5h-0.5c-0.1,0-0.2-0.1-0.3-0.2L1119.2,301.3z M1121.3,297.4c0,0.3,0,0.5,0,0.8
		c0,0.3,0,0.5,0,0.8h0.2l0.4-0.2l1-0.5l1.9-1.1c0.2-0.1,0.3-0.2,0.4-0.3l0.5-0.6c0.2-0.2,0.3-0.4,0.4-0.7c0.1-0.2,0.1-0.3,0.2-0.5
		c0-0.1-0.1-0.2-0.2-0.2l0,0h-0.3h-0.7c-0.3,0.1-0.6,0.2-0.9,0.3c-0.4,0.2-0.9,0.5-1.3,0.7c-0.5,0.3-1.1,0.7-1.7,1.3L1121.3,297.4z"
		/>
	<path class="st3" d="M750.1,399.9c0-1.6,2.7-2.7,8.2-3.4c5.5-0.7,11.4-1.2,17.9-1.4l268.6-4.3c7.8,0,15.1,0.3,22,0.8
		c6.9,0.6,10.3,1.8,10.3,3.6c0,0.5-1.5,1-4.5,1.5s-6.3,1-10,1.5s-7.6,0.8-11.7,1.2c-3,0.3-5.9,0.4-8.9,0.2l-265.8,4.5
		c-5.9,0-11.7-0.4-17.5-1.2C752.9,402.2,750.1,401.2,750.1,399.9z"/>
</g>
</svg>
