<?xml version="1.0" encoding="utf-8"?>
<!-- Generator: Adobe Illustrator 23.1.0, SVG Export Plug-In . SVG Version: 6.00 Build 0)  -->
<svg version="1.1" id="Слой_1" xmlns="http://www.w3.org/2000/svg" xmlns:xlink="http://www.w3.org/1999/xlink" x="0px" y="0px"
	 viewBox="0 0 1260 480" style="enable-background:new 0 0 1260 480;" xml:space="preserve">
<style type="text/css">
	.st0{fill-rule:evenodd;clip-rule:evenodd;fill:#010101;}
</style>
<title>netapp-svg</title>
<g>
	<path id="Layer" d="M281,143v158.1h-73.8v-94.8H165v94.8H91.2V143H281z"/>
	<path class="st0" d="M365.4,143h31.9l73.5,97.8V143h34.1v158h-29.4l-76-99.8V301h-34.2L365.4,143z M521.6,241.6v-0.4
		c0-34.3,24.4-62.5,59.5-62.5c40.2,0,58.5,31.2,58.5,65.2c0,2.6-0.2,5.8-0.4,8.9h-83.7c3.4,15.4,14.1,23.5,29.4,23.5
		c11.4,0,19.7-3.6,29.2-12.3l19.5,17.2c-11.2,13.9-27.4,22.4-49.1,22.4C548.2,303.7,521.5,278.4,521.6,241.6L521.6,241.6z
		 M606.4,231.6c-2-15.3-11-25.6-25.3-25.6c-14.2,0-23.4,10.1-26.1,25.6L606.4,231.6z M660.9,210.1h-14.3v-29.2h14.3v-30.7H695v30.7
		h28.2v29.2H695v51.3c0,7.9,3.4,11.7,10.9,11.7c6.3,0,11.9-1.6,16.9-4.4v27.4c-7.1,4.3-15.5,6.9-26.9,6.9
		c-20.9,0-34.9-8.3-34.9-36.1L660.9,210.1z M902.3,181h34.1v17.2c8.3-11.2,19.7-19.4,37.4-19.4c28.1,0,54.7,21.9,54.7,62v0.4
		c0,40.2-26.2,62.1-54.7,62.1c-18.2,0-29.4-8.3-37.4-17.9V337h-34.1V181z M994.5,240.8c0-19.9-13.4-33.2-29.4-33.2
		c-15.9,0-29.2,13.2-29.2,33.2v0.4c0,19.9,13.2,33.2,29.2,33.2s29.4-13.1,29.4-33.2V240.8z M1042.5,181h34.1v17.2
		c8.4-11.2,19.8-19.5,37.5-19.5c28,0,54.7,22,54.7,62.1v0.4c0,40.2-26.3,62.1-54.7,62.1c-18.2,0-29.4-8.3-37.5-17.9V337h-34.1V181z
		 M1134.7,240.8c0-19.9-13.5-33.2-29.4-33.2c-15.9,0-29.2,13.2-29.2,33.2v0.4c0,19.9,13.3,33.2,29.2,33.2c15.9,0,29.4-13,29.4-33.2
		V240.8z M797.1,143h31.1l65.6,158.1h-35.9l-14.5-35.2h-62.2l-14.4,35.2h-35.2L797.1,143z M833.1,235.4l-20.9-51l-20.9,51H833.1z"/>
</g>
</svg>
