<?xml version="1.0" encoding="utf-8"?>
<!-- Generator: Adobe Illustrator 23.1.0, SVG Export Plug-In . SVG Version: 6.00 Build 0)  -->
<svg version="1.1" id="Layer_1" xmlns="http://www.w3.org/2000/svg" xmlns:xlink="http://www.w3.org/1999/xlink" x="0px" y="0px"
	 viewBox="0 0 1260 480" style="enable-background:new 0 0 1260 480;" xml:space="preserve">
<style type="text/css">
	.st0{fill:#016699;}
	.st1{fill-rule:evenodd;clip-rule:evenodd;fill:#FFFFFF;}
</style>
<rect class="st0" width="1260" height="480"/>
<path class="st1" d="M242.6,347.1c16.1,8.7,34.6,13.7,54.2,13.7c62.8,0,113.6-50.9,113.6-113.6c0-29.8-11.5-56.9-30.2-77.2v-26.5
	c30.3,24.4,49.7,61.7,49.7,103.7c0,73.5-59.6,133-133,133c-19.3,0-37.6-4.1-54.2-11.5L242.6,347.1L242.6,347.1z M254.7,187.3
	c23.2-1.3,40.9,15,46.7,40c3.8,18.2,9.2,56.7,22.5,63.8c3.1,1.7,5.7,1.2,8.9-0.1c9.7-4.1,17.1-17.4,17.4-36.2V71.6
	c0-5.9,4.8-10.8,10.8-10.8h3.2c5.9,0,10.8,4.8,10.8,10.8v183.1c0.5,0-5.5,61.4-45.3,61.8c-42.8,0.4-45.3-53.9-46.3-59.8
	c-2.7-15.7-9.2-45.2-24.6-45.1c-10.4,0.1-20.9,20.6-21.5,43v153.8c0,5.9-4.8,10.8-10.8,10.8h-3.2c-5.9,0-10.8-4.8-10.8-10.8V261
	v-6.4v-8.3C212.4,223.1,231.4,188.6,254.7,187.3z M470.4,193.6h15l44.5,68v-68h13.4v92.1h-13.2L483.8,215l0.1,70.9h-13.4v-92.3
	H470.4z M607.1,193.4h-28.8c-12.7,0-23.2,10.4-23.2,23.2v45.2c0,12.7,10.4,23.2,23.2,23.2h28.8v-12h-29.7c-5,0-9-4.1-9-9v-18.4h29.2
	v-12.9h-29.2v-16.9c0-5,4.1-9,9-9h29.7V193.4z M684.7,193.8h-15.3l-21.3,32.7l-21.8-32.7h-15.7l29.9,44.4l-30.9,47.6h15.3l23.4-36
	l24.1,36h15.4l-31.9-47.7L684.7,193.8z M813.3,205.6c19,0,34.4,15.4,34.4,34.4s-15.4,34.4-34.4,34.4s-34.4-15.4-34.4-34.4
	C778.8,221.1,794.2,205.6,813.3,205.6z M813.3,192.4c26.3,0,47.6,21.3,47.6,47.6s-21.3,47.6-47.6,47.6c-26.3,0-47.6-21.3-47.6-47.6
	C765.6,213.7,786.9,192.4,813.3,192.4z M724.7,192.4c19.6,0,36.5,11.8,43.8,28.8h-15c-6.2-9.4-16.7-15.6-28.8-15.6
	c-19,0-34.4,15.4-34.4,34.4s15.4,34.4,34.4,34.4c12,0,22.6-6.2,28.8-15.5h15c-7.3,16.9-24.1,28.7-43.7,28.7
	c-26.3,0-47.6-21.3-47.6-47.6C677,213.7,698.4,192.4,724.7,192.4z M1052.5,192.4c19.6,0,36.5,11.8,43.8,28.8h-15
	c-6.2-9.4-16.7-15.6-28.8-15.6c-19,0-34.4,15.4-34.4,34.4s15.4,34.4,34.4,34.4c12,0,22.6-6.2,28.8-15.5h15
	c-7.3,16.9-24.1,28.7-43.7,28.7c-26.3,0-47.6-21.3-47.6-47.6C1004.9,213.7,1026.2,192.4,1052.5,192.4z M871.5,193.6h15l44.5,68v-68
	h13.4v92.1h-13.2L884.8,215l0.1,70.9h-13.4L871.5,193.6L871.5,193.6z M1008.1,193.4h-28.8c-12.7,0-23.2,10.4-23.2,23.2v45.2
	c0,12.7,10.4,23.2,23.2,23.2h28.8v-12h-29.7c-5,0-9-4.1-9-9v-18.4h29.2v-12.9h-29.2v-16.9c0-5,4.1-9,9-9h29.7V193.4z M296.7,114.2
	c17.1,0,33.5,3.2,48.6,9.2v21.2c-14.7-7-31.2-10.9-48.6-10.9c-62.8,0-113.6,50.9-113.6,113.6c0,25.3,8.3,48.6,22.2,67.5v29.1
	c-25.6-24.3-41.6-58.6-41.6-96.7C163.7,173.8,223.3,114.2,296.7,114.2z"/>
</svg>
