<?xml version="1.0" encoding="utf-8"?>
<!-- Generator: Adobe Illustrator 23.1.0, SVG Export Plug-In . SVG Version: 6.00 Build 0)  -->
<svg version="1.1" id="Layer_1" xmlns="http://www.w3.org/2000/svg" xmlns:xlink="http://www.w3.org/1999/xlink" x="0px" y="0px"
	 viewBox="0 0 1260 480" style="enable-background:new 0 0 1260 480;" xml:space="preserve">
<style type="text/css">
	.st0{fill:#3C3C3C;}
	.st1{fill:#F0AB00;}
</style>
<g>
	<polygon class="st0" points="244,136.9 244,272.8 243.5,272.8 181.7,136.9 121.4,136.9 121.4,343 162.7,343 162.7,177.5 
		163.2,177.5 241.1,343 285.3,343 285.3,136.9 	"/>
	<polygon class="st0" points="595.3,136.9 559.6,203.2 526.5,136.9 478.2,136.9 535.7,238.1 472.7,343 518.5,343 558,275.7 
		595.3,343 643.5,343 580.7,238.1 641.2,136.9 	"/>
	<g>
		<path class="st0" d="M741,197.6c-4-14.3-11.9-28.9-28.6-28.9c-13.5,0-25.2,9.8-25.2,23.8c0,40.5,96.9,14.1,96.9,90.9
			c0,25.2-19.1,62.8-69.9,62.8c-39.2,0-67.6-19.1-73.9-59.3l41.3-6.1c3.7,17.5,12.7,30.5,32.3,30.5c16.1,0,29.7-8.5,29.7-26.2
			c0-41.3-96.9-17.5-96.9-87.7c0-37.1,31.2-63.6,67-63.6c34.9,0,61.2,22.5,64.6,57.2L741,197.6z"/>
		<path class="st0" d="M960.9,343h-42.1l-13.5-51.7h-60.9L830.8,343h-42.1l57.7-206.1h55.7L960.9,343z M875.3,172.4h-1.1l-21.7,86.4
			H897L875.3,172.4z"/>
		<polygon class="st0" points="1036,136.9 1097.8,272.8 1098.3,272.8 1098.3,136.9 1138.6,136.9 1138.6,343 1095.4,343 
			1017.5,177.5 1017,177.5 1017,343 975.7,343 975.7,136.9 		"/>
		<rect x="306.9" y="137.7" class="st0" width="156.1" height="40.4"/>
		<rect x="306.9" y="219.7" class="st1" width="156.1" height="40.4"/>
		<rect x="306.9" y="301.8" class="st0" width="156.1" height="40.4"/>
	</g>
</g>
</svg>
