<?xml version="1.0" encoding="utf-8"?>
<!-- Generator: Adobe Illustrator 23.1.0, SVG Export Plug-In . SVG Version: 6.00 Build 0)  -->
<svg version="1.1"
	 id="svg2" xmlns:inkscape="http://www.inkscape.org/namespaces/inkscape" xmlns:sodipodi="http://sodipodi.sourceforge.net/DTD/sodipodi-0.dtd" xmlns:svg="http://www.w3.org/2000/svg"
	 xmlns="http://www.w3.org/2000/svg" xmlns:xlink="http://www.w3.org/1999/xlink" x="0px" y="0px" viewBox="0 0 1260 480"
	 style="enable-background:new 0 0 1260 480;" xml:space="preserve">
<style type="text/css">
	.st0{fill:#9D138C;}
	.st1{fill:#BDBCBC;}
</style>
<g id="g10" transform="scale(0.1)">
	<path id="path12" class="st0" d="M4943.1,2589.8L4404,1718.6l-1.3-2.2h-288.4v1469h310v-875l541.2,872.9l1.3,2.2h286.3v-1469
		h-309.9V2589.8"/>
	<path id="path14" class="st0" d="M5467.9,3185.5h304.8V2054.2h-304.8V3185.5"/>
	<path id="path16" class="st0" d="M5620.4,1585.6c-100.5,0-182.3,81.7-182.3,182.1c0,100.5,81.8,182.3,182.3,182.3
		c100.4,0,182.1-81.8,182.1-182.3C5802.5,1667.3,5720.8,1585.6,5620.4,1585.6"/>
	<path id="path18" class="st0" d="M6242.8,2615.3c0-211.3,76.1-309.7,239.5-309.7c47.5,0,102.5,8,167.8,24.6v583.7
		c-24.5,6.9-77.3,13.9-132,13.9c-55.6,0-131.5-6.9-176.8-39.6C6276,2841.1,6242.8,2749.3,6242.8,2615.3 M6650.1,2051.7
		c-59.2-15.2-118.1-23-175-23c-157.4,0-296.7,59.6-392.3,167.8c-115,130.2-161.1,317.7-133.2,542.3
		c26.9,215.8,151.3,473.2,591.9,473.2h0c119.6,0,257.6-19.5,409.9-58l3.4-0.9V1604.7h-304.8L6650.1,2051.7"/>
	<path id="path20" class="st0" d="M10876,2014.4c-131.2,0-286.1,24.7-460.4,73.3l-3.3,0.9v1097h304.8v-855
		c56.5-12.9,129.5-21.8,178.7-21.8h3.2c225.3,1.9,225.3,131.9,225.3,311.7v565.1h297.8v-677.6
		C11422,2359.5,11368.7,2014.4,10876,2014.4"/>
	<path id="path22" class="st0" d="M7783.8,2688.3v235.2c-16.7,2.6-84.9,12.2-161.9,12.2c-109.4,0-185.7-19.8-220.7-57.2
		c-17-18.3-24.7-41.2-22.8-68.2c5.8-84.9,104.2-124.4,309.7-124.4C7717.3,2685.9,7749.6,2686.7,7783.8,2688.3 M7599.8,2025.5
		c-198,0-390,60.6-463.4,86.6l-4.1,1.5l88.4,264l1.6,4.7l4.5-2c82.9-37.2,228.6-77.2,352.3-77.2c84.4,0,143.7,18.3,176.6,54.2
		c21.8,24,31.5,56.1,28.5,95.6c-315.4-6.4-515.9,39.2-615.4,141.4c-59.3,61.2-85.6,142.7-82.5,256.5
		c4.7,167.6,155.5,363.5,565.1,363.5h0.1c129.3,0,275.1-20.3,433.7-60.3l3.4-0.9v-662.7C8088.6,2106.2,7822.7,2025.5,7599.8,2025.5"
		/>
	<path id="path24" class="st0" d="M9980.5,2618.8c0,184.9-40.9,308.2-240.5,308.2c-199.5,0-240.4-123.3-240.4-308.2
		c0-185,41-308.3,240.4-308.3C9939.6,2310.6,9980.5,2433.8,9980.5,2618.8 M9740,2029.1c-348.2,0-540,209.5-540,589.7
		c0,380.2,191.8,589.7,540,589.7c348.3,0,540.1-209.4,540.1-589.7C10280,2238.6,10088.2,2029.1,9740,2029.1"/>
	<path id="path26" class="st0" d="M9065,2867.2l-4.6,2.2c-115.3,55.2-187.3,59.7-256.9,59.7l-14.9,0c-243.7-1-280-194.8-280-310.2
		c0-202.8,74-294.8,247.4-307.6c10.7-0.8,21.2-1.2,31.7-1.2c100.7,0,180.9,35.6,252.5,74.1l4.7,2.5l84.8-254.6l1-3.1l-2.6-1.9
		c-82.8-60.7-251-98.3-359.6-98.3c-5.8,0-11.4,0.1-16.9,0.3c-343,12.7-539.8,227.6-539.8,589.7c0,347.2,233,589.7,566.5,589.7
		c172.9,0,266.5-20.7,371-81.9l3.1-1.8l-86-252.9L9065,2867.2"/>
	<path id="path28" class="st1" d="M2099.7,1750.6c9.3-137.4,108.2-232.2,266.8-234.4c158.6-2.2,260.2,89.8,273.3,226.8
		c14.3,150.5-55.2,286.3-104.7,390.9c-49.7,104.4-155.5,312.5-155.5,312.5s-111.6-205-164.2-308
		C2162.8,2035.3,2089.5,1901.5,2099.7,1750.6z M2385.1,2846.2L2385.1,2846.2c0.1,0,283-329.9,411.1-532.5
		c140.1-221.8,221.7-320.7,219.5-557.5c-2.6-275.9-295.1-502.2-641.7-502.2c-3.8,0-7.5,0-11.2,0.1
		c-351.5,4.9-643.7,241.4-638.5,520.3c4.5,236.6,88.7,333.3,235,551C2092.9,2524.4,2385.1,2846.2,2385.1,2846.2"/>
	<path id="path30" class="st1" d="M3129.4,2065.8c-23.2,59.2-52.8,114.1-87.3,171c122,84.2,196.4,192.4,198.1,311.7
		c3.9,275.2-377.6,503.8-852.1,510.4c-474.5,6.6-862.3-211.1-866.1-486.3c-1.7-119.4,69.6-229.7,189.2-317.2
		c-36-55.9-67.2-109.9-92-168.5c-272.2,155.3-444.7,389.5-441.1,649.8c6.4,456.1,551.2,818.3,1216.9,808.9
		c665.7-9.3,1200.1-386.7,1193.7-842.9C3585,2442.6,3405.9,2213.3,3129.4,2065.8"/>
</g>
</svg>
