<?xml version="1.0" encoding="utf-8"?>
<!-- Generator: Adobe Illustrator 23.1.0, SVG Export Plug-In . SVG Version: 6.00 Build 0)  -->
<svg version="1.1" id="Слой_1" xmlns="http://www.w3.org/2000/svg" xmlns:xlink="http://www.w3.org/1999/xlink" x="0px" y="0px"
	 viewBox="0 0 1260 480" style="enable-background:new 0 0 1260 480;" xml:space="preserve">
<style type="text/css">
	.st0{fill:#39322C;}
	.st1{fill:#C83B29;}
</style>
<g>
	<polygon class="st0" points="97.4,430.7 78.9,378.8 90.2,378.8 103.3,417.2 116.1,378.8 127.2,378.8 108.6,430.7 97.4,430.7 	"/>
	<path class="st0" d="M151.3,412.7c-1.3,0.4-3.3,0.9-6.1,1.5c-2.8,0.6-4.6,1.2-5.4,1.7c-1.3,0.9-1.9,2.1-1.9,3.5
		c0,1.4,0.5,2.6,1.6,3.6c1,1,2.4,1.5,4,1.5c1.8,0,3.5-0.6,5.1-1.8c1.2-0.9,2-2,2.4-3.3c0.3-0.8,0.4-2.5,0.4-4.8V412.7L151.3,412.7z
		 M138,404.6l-9-1.6c1-3.6,2.8-6.3,5.2-8.1c2.5-1.7,6.2-2.6,11-2.6c4.4,0,7.7,0.5,9.9,1.6c2.2,1.1,3.7,2.4,4.6,4
		c0.9,1.6,1.3,4.6,1.3,8.9l-0.1,11.6c0,3.3,0.2,5.7,0.5,7.3c0.3,1.6,0.9,3.2,1.8,5h-9.8c-0.3-0.7-0.6-1.6-1-2.9l-0.4-1.2
		c-1.7,1.7-3.5,2.9-5.4,3.7c-1.9,0.8-4,1.2-6.2,1.2c-3.9,0-6.9-1.1-9.1-3.1c-2.2-2.1-3.3-4.8-3.3-8c0-2.1,0.5-4,1.5-5.7
		c1-1.7,2.4-2.9,4.3-3.8c1.8-0.9,4.5-1.7,7.9-2.3c4.6-0.9,7.9-1.7,9.7-2.4v-1c0-1.9-0.5-3.3-1.4-4.1s-2.7-1.2-5.3-1.2
		c-1.8,0-3.2,0.3-4.1,1C139.5,401.6,138.7,402.8,138,404.6L138,404.6z"/>
	<polygon class="st0" points="173.1,430.7 173.1,378.8 183,378.8 183,430.7 173.1,430.7 	"/>
	<path class="st0" d="M220.1,430.7v-5.6c-1.4,2-3.2,3.6-5.4,4.7c-2.2,1.2-4.6,1.7-7.1,1.7c-2.5,0-4.8-0.6-6.8-1.7
		c-2-1.1-3.5-2.7-4.4-4.7c-0.9-2-1.3-4.8-1.3-8.3v-23.8h9.9v17.3c0,5.3,0.2,8.5,0.5,9.7c0.4,1.2,1,2.1,2,2.8c1,0.7,2.2,1,3.7,1
		c1.7,0,3.2-0.5,4.6-1.4c1.3-0.9,2.3-2.1,2.8-3.5c0.5-1.4,0.7-4.8,0.7-10.1v-15.9h9.9v37.6H220.1L220.1,430.7z"/>
	<path class="st0" d="M264.2,408.7c-0.1-2.9-0.8-5.1-2.2-6.6c-1.4-1.5-3.1-2.2-5.2-2.2c-2.2,0-4,0.8-5.4,2.4
		c-1.4,1.6-2.1,3.7-2.1,6.4H264.2L264.2,408.7z M263.6,418.7l9.9,1.7c-1.3,3.6-3.3,6.4-6,8.3c-2.8,1.9-6.2,2.8-10.3,2.8
		c-6.5,0-11.4-2.1-14.5-6.4c-2.5-3.4-3.7-7.7-3.7-13c0-6.2,1.6-11.1,4.9-14.6c3.3-3.5,7.4-5.3,12.4-5.3c5.6,0,10,1.8,13.2,5.5
		s4.8,9.3,4.6,17h-24.9c0.1,2.9,0.9,5.2,2.4,6.9c1.5,1.6,3.4,2.5,5.7,2.5c1.6,0,2.9-0.4,3.9-1.3C262.3,422,263.1,420.6,263.6,418.7
		L263.6,418.7z"/>
	<path class="st0" d="M331.5,410.2l-7.1-19.3l-7,19.3H331.5L331.5,410.2z M350.8,430.7h-11.4l-4.5-11.8h-20.7l-4.3,11.8h-11.1
		l20.2-51.9H330L350.8,430.7L350.8,430.7z"/>
	<path class="st0" d="M366.4,411.1c0,4,0.6,6.9,1.7,8.7c1.6,2.6,3.8,3.9,6.7,3.9c2.3,0,4.2-1,5.8-2.9c1.6-1.9,2.4-4.9,2.4-8.7
		c0-4.3-0.8-7.4-2.3-9.3c-1.6-1.9-3.5-2.8-6-2.8c-2.4,0-4.3,0.9-5.9,2.8C367.2,404.6,366.4,407.4,366.4,411.1L366.4,411.1z
		 M392.9,430.7h-9.2v-5.5c-1.5,2.1-3.3,3.7-5.4,4.8c-2.1,1.1-4.2,1.6-6.3,1.6c-4.3,0-8-1.7-11.1-5.2c-3.1-3.5-4.6-8.3-4.6-14.6
		c0-6.4,1.5-11.2,4.5-14.5c3-3.3,6.8-5,11.4-5c4.2,0,7.8,1.7,10.9,5.2v-18.7h9.9V430.7L392.9,430.7z"/>
	<path class="st0" d="M412.9,411.1c0,4,0.6,6.9,1.7,8.7c1.6,2.6,3.8,3.9,6.7,3.9c2.3,0,4.2-1,5.8-2.9c1.6-1.9,2.4-4.9,2.4-8.7
		c0-4.3-0.8-7.4-2.3-9.3c-1.6-1.9-3.5-2.8-6-2.8c-2.4,0-4.3,0.9-5.9,2.8S412.9,407.4,412.9,411.1L412.9,411.1z M439.4,430.7h-9.2
		v-5.5c-1.5,2.1-3.3,3.7-5.4,4.8c-2.1,1.1-4.2,1.6-6.3,1.6c-4.3,0-8-1.7-11.1-5.2c-3.1-3.5-4.6-8.3-4.6-14.6
		c0-6.4,1.5-11.2,4.5-14.5c3-3.3,6.8-5,11.4-5c4.2,0,7.8,1.7,10.9,5.2v-18.7h9.9V430.7L439.4,430.7z"/>
	<path class="st0" d="M473.7,408.7c-0.1-2.9-0.8-5.1-2.2-6.6c-1.4-1.5-3.1-2.2-5.2-2.2c-2.2,0-4,0.8-5.4,2.4
		c-1.4,1.6-2.1,3.7-2.1,6.4H473.7L473.7,408.7z M473.1,418.7l9.9,1.7c-1.3,3.6-3.3,6.4-6,8.3c-2.7,1.9-6.2,2.8-10.3,2.8
		c-6.5,0-11.4-2.1-14.5-6.4c-2.5-3.4-3.7-7.7-3.7-13c0-6.2,1.6-11.1,4.9-14.6c3.3-3.5,7.4-5.3,12.4-5.3c5.6,0,10,1.8,13.2,5.5
		c3.2,3.7,4.8,9.3,4.6,17h-24.9c0.1,2.9,0.9,5.2,2.4,6.9c1.5,1.6,3.4,2.5,5.7,2.5c1.6,0,2.9-0.4,3.9-1.3
		C471.8,422,472.6,420.6,473.1,418.7L473.1,418.7z"/>
	<path class="st0" d="M501.8,411.1c0,4,0.6,6.9,1.7,8.7c1.6,2.6,3.8,3.9,6.7,3.9c2.3,0,4.2-1,5.8-2.9c1.6-1.9,2.4-4.9,2.4-8.7
		c0-4.3-0.8-7.4-2.3-9.3c-1.6-1.9-3.5-2.8-6-2.8c-2.4,0-4.3,0.9-5.9,2.8C502.6,404.6,501.8,407.4,501.8,411.1L501.8,411.1z
		 M528.3,430.7h-9.2v-5.5c-1.5,2.1-3.3,3.7-5.4,4.8c-2.1,1.1-4.2,1.6-6.3,1.6c-4.3,0-8-1.7-11.1-5.2c-3.1-3.5-4.6-8.3-4.6-14.6
		c0-6.4,1.5-11.2,4.5-14.5c3-3.3,6.8-5,11.4-5c4.2,0,7.8,1.7,10.9,5.2v-18.7h9.9V430.7L528.3,430.7z"/>
	<path class="st0" d="M573.1,387.6V422h7.8c2.9,0,5-0.2,6.3-0.5c1.7-0.4,3.1-1.1,4.2-2.2c1.1-1,2-2.7,2.7-5c0.7-2.3,1.1-5.5,1.1-9.5
		c0-4-0.4-7.1-1.1-9.2c-0.7-2.1-1.7-3.8-3-5c-1.3-1.2-2.9-2-4.8-2.4c-1.5-0.3-4.3-0.5-8.6-0.5H573.1L573.1,387.6z M562.7,378.8h19.1
		c4.3,0,7.6,0.3,9.9,1c3,0.9,5.7,2.5,7.8,4.8c2.2,2.3,3.8,5.1,5,8.4c1.1,3.3,1.7,7.4,1.7,12.3c0,4.3-0.5,8-1.6,11
		c-1.3,3.8-3.2,6.8-5.6,9.2c-1.8,1.8-4.3,3.2-7.4,4.1c-2.3,0.7-5.4,1.1-9.3,1.1h-19.7V378.8L562.7,378.8z"/>
	<path class="st0" d="M617.1,430.7v-37.6h9.9v37.6H617.1L617.1,430.7z M617.1,388v-9.2h9.9v9.2H617.1L617.1,388z"/>
	<path class="st0" d="M635.9,420l10-1.5c0.4,1.9,1.3,3.4,2.6,4.4c1.3,1,3.1,1.5,5.4,1.5c2.6,0,4.5-0.5,5.8-1.4
		c0.9-0.7,1.3-1.5,1.3-2.7c0-0.8-0.2-1.4-0.7-1.9c-0.5-0.5-1.6-0.9-3.3-1.3c-8-1.8-13.1-3.4-15.3-4.8c-3-2-4.5-4.8-4.5-8.5
		c0-3.3,1.3-6,3.9-8.2c2.6-2.2,6.6-3.3,12-3.3c5.1,0,9,0.8,11.5,2.5c2.5,1.7,4.2,4.2,5.2,7.4l-9.4,1.7c-0.4-1.5-1.2-2.6-2.3-3.4
		c-1.1-0.8-2.7-1.2-4.8-1.2c-2.6,0-4.5,0.4-5.6,1.1c-0.8,0.5-1.1,1.2-1.1,2c0,0.7,0.3,1.3,1,1.8c0.9,0.7,4,1.6,9.3,2.8
		c5.3,1.2,9,2.7,11.1,4.4c2.1,1.8,3.1,4.2,3.1,7.4c0,3.4-1.4,6.4-4.3,8.9c-2.9,2.5-7.1,3.7-12.8,3.7c-5.1,0-9.2-1-12.2-3.1
		C638.8,426.4,636.9,423.5,635.9,420L635.9,420z"/>
	<path class="st0" d="M699.2,393.1v7.9h-6.8v15.1c0,3.1,0.1,4.9,0.2,5.4l0.9,1.3c0.5,0.3,1,0.5,1.7,0.5c0.9,0,2.3-0.3,4-1l0.8,7.7
		c-2.3,1-4.9,1.5-7.9,1.5c-1.8,0-3.4-0.3-4.8-0.9c-1.4-0.6-2.5-1.4-3.2-2.3c-0.7-1-1.1-2.2-1.4-3.9c-0.2-1.2-0.3-3.5-0.3-7V401h-4.6
		v-7.9h4.6v-7.5l10-5.8v13.3H699.2L699.2,393.1z"/>
	<path class="st0" d="M717.8,430.7h-9.9v-37.6h9.2v5.3c1.6-2.5,3-4.2,4.3-5c1.3-0.8,2.7-1.2,4.3-1.2c2.3,0,4.4,0.6,6.5,1.9l-3.1,8.7
		c-1.7-1.1-3.2-1.6-4.7-1.6c-1.4,0-2.6,0.4-3.5,1.2c-1,0.8-1.7,2.2-2.3,4.2c-0.6,2-0.8,6.2-0.8,12.6V430.7L717.8,430.7z"/>
	<path class="st0" d="M738.6,430.7v-37.6h9.9v37.6H738.6L738.6,430.7z M738.6,388v-9.2h9.9v9.2H738.6L738.6,388z"/>
	<path class="st0" d="M770.4,411.1c0,3.9,0.6,6.8,1.8,8.6c1.7,2.6,4,4,6.9,4c2.2,0,4.1-0.9,5.6-2.8c1.5-1.9,2.3-4.8,2.3-8.9
		c0-4.3-0.8-7.4-2.3-9.3c-1.6-1.9-3.5-2.8-6-2.8c-2.4,0-4.4,0.9-5.9,2.8C771.2,404.5,770.4,407.3,770.4,411.1L770.4,411.1z
		 M760.5,430.7v-51.9h9.9v18.7c3.1-3.5,6.7-5.2,10.9-5.2c4.6,0,8.4,1.7,11.4,5c3,3.3,4.5,8.1,4.5,14.3c0,6.4-1.5,11.4-4.6,14.8
		c-3.1,3.5-6.8,5.2-11.1,5.2c-2.1,0-4.3-0.5-6.3-1.6c-2.1-1.1-3.9-2.7-5.4-4.8v5.5H760.5L760.5,430.7z"/>
	<path class="st0" d="M832.1,430.7v-5.6c-1.4,2-3.2,3.6-5.4,4.7c-2.2,1.2-4.6,1.7-7.1,1.7c-2.5,0-4.8-0.6-6.8-1.7
		c-2-1.1-3.5-2.7-4.4-4.7c-0.9-2-1.3-4.8-1.3-8.3v-23.8h10v17.3c0,5.3,0.2,8.5,0.5,9.7c0.4,1.2,1,2.1,2,2.8c1,0.7,2.2,1,3.7,1
		c1.7,0,3.2-0.5,4.6-1.4c1.3-0.9,2.3-2.1,2.8-3.5c0.5-1.4,0.7-4.8,0.7-10.1v-15.9h9.9v37.6H832.1L832.1,430.7z"/>
	<path class="st0" d="M871.1,393.1v7.9h-6.8v15.1c0,3.1,0.1,4.9,0.2,5.4l0.9,1.3c0.5,0.3,1,0.5,1.7,0.5c0.9,0,2.3-0.3,4-1l0.8,7.7
		c-2.3,1-4.9,1.5-7.9,1.5c-1.8,0-3.4-0.3-4.8-0.9c-1.4-0.6-2.5-1.4-3.2-2.3c-0.7-1-1.1-2.2-1.4-3.9c-0.2-1.2-0.3-3.5-0.3-7V401h-4.6
		v-7.9h4.6v-7.5l10-5.8v13.3H871.1L871.1,393.1z"/>
	<path class="st0" d="M888,411.9c0,3.7,0.9,6.6,2.7,8.6c1.8,2,4,3,6.5,3c2.6,0,4.8-1,6.5-3c1.8-2,2.6-4.9,2.6-8.6
		c0-3.7-0.9-6.5-2.6-8.5c-1.8-2-3.9-3-6.5-3c-2.6,0-4.8,1-6.5,3C888.9,405.3,888,408.2,888,411.9L888,411.9z M877.8,411.4
		c0-3.3,0.8-6.5,2.4-9.6c1.6-3.1,3.9-5.4,6.9-7.1c3-1.6,6.3-2.4,10-2.4c5.7,0,10.3,1.8,14,5.5c3.6,3.7,5.5,8.4,5.5,14
		c0,5.7-1.8,10.4-5.5,14.1c-3.7,3.7-8.3,5.6-13.9,5.6c-3.4,0-6.7-0.8-9.9-2.3c-3.1-1.6-5.5-3.8-7.1-6.8
		C878.7,419.4,877.8,415.7,877.8,411.4L877.8,411.4z"/>
	<path class="st0" d="M936.1,430.7h-9.9v-37.6h9.2v5.3c1.6-2.5,3-4.2,4.3-5c1.3-0.8,2.7-1.2,4.3-1.2c2.3,0,4.5,0.6,6.5,1.9l-3.1,8.7
		c-1.7-1.1-3.2-1.6-4.7-1.6c-1.4,0-2.6,0.4-3.5,1.2c-1,0.8-1.7,2.2-2.3,4.2c-0.6,2-0.8,6.2-0.8,12.6V430.7L936.1,430.7z"/>
	<polygon class="st0" points="754.4,302 745.3,302 745.3,48.4 754.4,48.4 754.4,302 	"/>
	<path class="st1" d="M610.4,199.6c-11.1,0-20.5-7.5-23.4-17.6h61.7l8.6-13.3H587c2.8-10.2,12.3-17.7,23.4-17.7h42.5l8.5-13.2h-51.9
		c-20.8,0-37.6,16.8-37.6,37.6c0,20.7,16.8,37.6,37.6,37.6H654l8.5-13.3H610.4L610.4,199.6z M433.6,212.9
		c-20.7,0-37.6-16.8-37.6-37.6c0-20.8,16.8-37.6,37.6-37.6h51.9l-8.5,13.2h-42.5c-13.4,0-24.3,10.9-24.3,24.3
		c0,13.4,10.9,24.3,24.3,24.3h52.1l-8.5,13.3H433.6 M159.3,199.6c13.4,0,24.4-10.9,24.4-24.3c0-13.4-10.9-24.3-24.4-24.3h-41.7
		c-13.4,0-24.3,10.9-24.3,24.3c0,13.4,10.9,24.3,24.3,24.3H159.3 M116.7,212.9c-20.8,0-37.6-16.8-37.6-37.6
		c0-20.8,16.8-37.6,37.6-37.6h43.6c20.7,0,37.6,16.8,37.6,37.6c0,20.7-16.8,37.6-37.6,37.6H116.7 M268.7,188.6
		c14.1,0,25.4-11.4,25.4-25.4c0-14-11.3-25.4-25.4-25.4h-63.2v75.1H220V151h47.8c6.7,0,12.1,5.5,12.1,12.2c0,6.7-5.5,12.2-12.1,12.2
		l-40.7,0l43.1,37.6h21l-29-24.3H268.7 M507.7,199.6v-61.9h-14.4v67.9c0,1.9,0.7,3.7,2.1,5.1c1.4,1.3,3.3,2.1,5.3,2.1h65.9l8.6-13.2
		H507.7 M330.9,186.4h38.6l-20.3-32.9l-37.5,59.4h-17l45.4-71.2c2-2.9,5.3-4.6,9-4.6c3.5,0,6.8,1.7,8.7,4.4l45.6,71.4h-17.1l-8-13.3
		h-39L330.9,186.4"/>
	<path class="st0" d="M868.2,144.9h-13.1v32.5h13.1c6.5,0,11.2-1.3,14.1-3.9c2.9-2.6,4.4-6.7,4.4-12.3c0-5.6-1.5-9.7-4.4-12.3
		C879.4,146.2,874.7,144.9,868.2,144.9L868.2,144.9z M845.6,212.4v-75.1h24.6c17.4,0,26.1,8,26.1,23.9c0,15.9-8.7,23.9-26.1,23.9
		h-15.1v27.4H845.6L845.6,212.4z"/>
	<path class="st0" d="M921.5,206c3.2,0,6.1-0.9,8.9-2.7c2.8-1.8,5-4.3,6.6-7.5v-10.2h-11.6c-4.7,0-8.1,0.8-10.4,2.5
		c-2.2,1.7-3.4,4.3-3.4,7.8c0,3.1,0.9,5.6,2.6,7.4C916.1,205.1,918.5,206,921.5,206L921.5,206z M939.9,212.4l-1.6-8.7
		c-4.4,6.5-10.4,9.8-18,9.8c-5.4,0-9.8-1.5-13.1-4.6c-3.3-3.1-4.9-7.1-4.9-12.2c0-5.6,1.9-10,5.8-13.2c3.9-3.1,9.3-4.7,16.3-4.7
		h12.4v-3.4c0-3.9-0.8-6.6-2.5-8.2c-1.7-1.6-4.6-2.4-8.6-2.4c-2.6,0-5.4,0.3-8.4,0.9c-3,0.6-6.3,1.5-10,2.8V161
		c2.6-1.2,5.6-2.1,9-2.7c3.4-0.7,6.5-1,9.5-1c13.6,0,20.4,6,20.4,18.1v37H939.9L939.9,212.4z"/>
	<path class="st0" d="M961.2,212.4v-53.9h6.3l1.9,10.1c3.5-6.8,8.5-10.2,15.1-10.2c1.4,0,2.6,0.1,3.6,0.3v8.2h-2.4
		c-3.9,0-7.2,1.1-9.8,3.3c-2.6,2.2-4.4,5.4-5.4,9.6v32.7H961.2L961.2,212.4z"/>
	<path class="st0" d="M1004.3,195.9v-29.9H995v-4.8l9.3-3.1l3.7-14.7h5.6v14.9h11.7v7.7h-11.7v29.8c0,5.9,2.6,8.9,7.7,8.9
		c0.8,0,1.6,0,2.4-0.1c0.8-0.1,1.5-0.2,2.2-0.3v8.1c-1,0.2-1.9,0.3-2.9,0.4c-1,0.1-2.1,0.1-3.2,0.1c-5.3,0-9.2-1.4-11.7-4.1
		C1005.6,206,1004.3,201.7,1004.3,195.9L1004.3,195.9z"/>
	<path class="st0" d="M1037.5,212.4v-53.9h6.3l1.7,9.2c2.3-3.3,5.1-5.9,8.4-7.7c3.3-1.8,7-2.7,11.2-2.7c6.2,0,11,1.9,14.3,5.6
		c3.3,3.7,5,9.1,5,16.1v33.4h-9.3v-33.1c0-9.4-4.1-14.1-12.2-14.1c-3.4,0-6.6,1-9.5,3.1c-2.9,2.1-5,4.9-6.5,8.5v35.4H1037.5
		L1037.5,212.4z"/>
	<path class="st0" d="M1120,164.9c-4.5,0-8.1,1.4-10.6,4.1c-2.5,2.7-3.9,6.7-4.2,11.8h28.3c0-5.6-1.1-9.7-3.2-12.2
		C1128.3,166.2,1124.8,164.9,1120,164.9L1120,164.9z M1139.9,209.7c-1.9,1.2-4.5,2.1-7.7,2.8c-3.2,0.7-6.7,1-10.5,1
		c-8.5,0-15-2.4-19.4-7.3c-4.4-4.9-6.6-12-6.6-21.3c0-9,2.1-15.9,6.3-20.6c4.2-4.7,10.1-7,17.9-7c15,0,22.5,8.3,22.5,24.9v6h-37.3
		c0.4,6.1,2,10.5,4.9,13.3c2.8,2.8,7,4.2,12.6,4.2c3.1,0,6-0.3,8.8-0.9c2.8-0.6,5.6-1.6,8.5-2.9V209.7L1139.9,209.7z"/>
	<path class="st0" d="M1154.3,212.4v-53.9h6.3l1.9,10.1c3.5-6.8,8.5-10.2,15.1-10.2c1.4,0,2.6,0.1,3.6,0.3v8.2h-2.4
		c-3.9,0-7.2,1.1-9.8,3.3c-2.6,2.2-4.4,5.4-5.4,9.6v32.7H1154.3L1154.3,212.4z"/>
</g>
</svg>
