<?xml version="1.0" encoding="utf-8"?>
<!-- Generator: Adobe Illustrator 23.1.0, SVG Export Plug-In . SVG Version: 6.00 Build 0)  -->
<svg version="1.1"
	 id="Слой_1" xmlns:cc="http://creativecommons.org/ns#" xmlns:dc="http://purl.org/dc/elements/1.1/" xmlns:rdf="http://www.w3.org/1999/02/22-rdf-syntax-ns#"
	 xmlns="http://www.w3.org/2000/svg" xmlns:xlink="http://www.w3.org/1999/xlink" x="0px" y="0px" viewBox="0 0 1260 480"
	 style="enable-background:new 0 0 1260 480;" xml:space="preserve">
<style type="text/css">
	.st0{fill:#F04E23;}
</style>
<g transform="matrix(.287 0 0 .2882 .7087 0)">
	<path d="M1911,615.3c-48.5,0-98.9,13.2-161.3,46.6l34.7,85.7c54.2-30.2,98.9-43.5,131.7-43.5c37.2,0,53.6,13.9,53.6,32.1v1.2
		c0,12.6-10.1,19.5-34.7,22.1l-42.8,4.4c-107.1,11.3-151.2,58-151.2,122.2v4.4c0,61.1,50.4,109,121.6,109
		c46.9,0,87.6-19.8,112.4-54.7l8,48.4h97V773.5C2079.9,669.5,2020,615.3,1911,615.3 M1901.5,915.9c-35.9,0-52.9-13.9-52.9-35.3v-1.2
		c0-18.9,10.7-32.8,49.8-38.4l17-2.5c24.9-3.5,40.1-8,54.2-16.6v27.9C1969.6,891.9,1943.1,915.9,1901.5,915.9"/>
	<polygon class="st0" points="687.3,929 998.6,617.9 874.4,493.7 750.2,617.9 812,679.6 500.8,990.9 624.9,1115.1 749.1,990.9 	"/>
	<polygon class="st0" points="314.9,805 626.2,493.7 750.4,617.8 439.1,929.1 	"/>
	<polygon class="st0" points="749,991.1 1060.3,679.8 1184.5,803.9 873.2,1115.2 	"/>
	<rect x="2142.8" y="489.3" width="110.3" height="504"/>
	<path d="M1555.6,615.3c-50.1,0-90.4,22.2-112.5,56.9l-8.4-50.6h-97v497.6h110.3V946.8c21,32.4,60.7,52.8,107.7,52.8
		c88.2,0,160-78.1,160-185.9v-12.6c0-107.7-71.8-185.8-160-185.8 M1602.2,810.6c0,56.7-29.6,97.7-78.8,97.7s-78.8-40.9-78.8-97.7
		v-6.3c0-56.7,29.6-97.7,78.8-97.7s78.8,40.9,78.8,97.7V810.6z"/>
	<path d="M3741.6,615.3c-112.8,0-192.2,78.1-192.2,185.9v12.6c0,107.7,79.4,185.9,192.2,185.9c112.8,0,192.2-78.1,192.2-185.9v-12.6
		C3933.8,693.5,3854.4,615.3,3741.6,615.3 M3820.4,810.7c0,56.7-29.6,97.7-78.8,97.7s-78.8-40.9-78.8-97.7v-6.3
		c0-56.7,29.6-97.7,78.8-97.7s78.8,40.9,78.8,97.7V810.7z"/>
	<path d="M4035.5,638.1v-1.9c0-10.7-8.2-18.3-22.7-18.3h-25.2v58h12v-19.5h13.3l10,19.5h13.2l-12.3-22.9
		C4031.3,650.6,4035.5,645,4035.5,638.1 M3999.5,628.6h13.2c7.6,0,10.7,2.5,10.7,8.2v0.6c0,5-3.2,8.2-10.7,8.2h-13.2V628.6z"/>
	<path d="M4010.5,587c-34,0-59.9,25.8-59.9,59.9c0,34,25.8,59.9,59.9,59.9c34,0,59.9-25.8,59.9-59.9S4044.5,587,4010.5,587
		 M4010.5,698.5c-29.6,0-51-21.4-51-51.7c0-30.2,21.4-51.7,51-51.7c29.6,0,51,21.4,51,51.7C4061.6,677.1,4040.1,698.5,4010.5,698.5"
		/>
	<rect x="3115" y="489.3" width="110.3" height="504"/>
	<path d="M3442.2,908.2c-32.1,0-44.1-15.7-44.1-49.8V706.6h129.8v-85.1h-129.8v-85.1l-110.3,16.4v316.3
		c0,86.3,44.1,130.4,132.3,130.4c39.1,0,85.1-12,122.9-33.4l-31.5-78.1C3489.4,900.1,3458.6,908.3,3442.2,908.2"/>
	<path d="M2881.9,615.3c-48.5,0-98.9,13.2-161.3,46.6l34.7,85.7c54.2-30.2,98.9-43.5,131.7-43.5c37.2,0,53.6,13.9,53.6,32.1v1.2
		c0,12.6-10.1,19.5-34.7,22.1l-42.8,4.4c-107.1,11.3-151.2,58-151.2,122.2v4.4c0,61.1,50.4,109,121.6,109
		c46.9,0,87.6-19.8,112.4-54.7l8,48.4h97V773.5C3050.8,669.5,2990.9,615.3,2881.9,615.3 M2872.4,915.9c-35.9,0-52.9-13.9-52.9-35.3
		v-1.2c0-18.9,10.7-32.8,49.8-38.4l17-2.5c24.9-3.5,40.1-8,54.2-16.6v27.9C2940.5,891.9,2914,915.9,2872.4,915.9"/>
	<path d="M2494.3,615.3c-112.8,0-192.2,78.1-192.2,185.9v12.6c0,107.7,79.4,185.9,192.2,185.9s192.2-78.1,192.2-185.9v-12.6
		C2686.5,693.5,2607.1,615.3,2494.3,615.3 M2573,810.7c0,56.7-29.6,97.7-78.8,97.7s-78.8-40.9-78.8-97.7v-6.3
		c0-56.7,29.6-97.7,78.8-97.7s78.8,40.9,78.8,97.7V810.7z"/>
	<polygon points="3011.9,1173.6 2972,1120.9 2971.7,1120.9 2971.7,1173.6 2945.7,1173.6 2945.7,1082.9 2973.9,1082.9 3013,1134.2 
		3013.3,1134.2 3013.3,1082.9 3039.4,1082.9 3039.4,1173.6 	"/>
	<polygon points="3101.2,1137.2 3101.2,1151.4 3156.6,1151.4 3153.9,1173.6 3073.7,1173.6 3073.7,1082.9 3153.9,1082.9 
		3153.9,1104.8 3101.2,1104.8 3101.2,1117.3 3142.8,1117.3 3142.8,1137.2 	"/>
	<polygon points="3212.1,1173.6 3212.1,1106.2 3178.8,1106.2 3178.8,1082.9 3267.5,1082.9 3270.3,1106.2 3237,1106.2 3237,1173.6 	
		"/>
	<polygon points="3403.4,1145.8 3417.2,1082.9 3445,1082.9 3420,1173.6 3386.7,1173.6 3370.1,1118.7 3367.3,1118.7 3350.7,1173.6 
		3314.7,1173.6 3292.5,1082.9 3320.2,1082.9 3336.8,1145.8 3336.8,1145.8 3356.2,1082.9 3384,1082.9 3400.6,1145.8 	"/>
	<path d="M3464.4,1128.1c0-29.6,20.1-48.1,51.8-48.1s51.8,18.5,51.8,48.1s-20.1,48.1-51.8,48.1
		C3484.4,1176.2,3464.4,1157.6,3464.4,1128.1 M3540.9,1128.1c0-15.7-9.1-25-24.8-25c-15.7,0-24.8,9.3-24.8,25c0,15.7,9.1,25,24.6,25
		C3531.7,1153.1,3540.9,1143.8,3540.9,1128.1"/>
	<path d="M3597.4,1082.9h52.9c24.1,0,35.9,11.4,35.9,32.5c0,14.5-6,24.4-17.6,29l21.5,29.2h-30.8l-16.7-23.8h-17.9v23.8h-27.2
		V1082.9z M3646.8,1128.5c9.1,0,12.3-5,12.3-11.9s-3.2-11.8-12.3-11.8h-22.2v23.7H3646.8z"/>
	<polygon points="3783.2,1126.4 3819.2,1173.3 3819.2,1173.6 3788.7,1173.6 3761,1138.6 3749.9,1138.6 3749.9,1173.6 3722.2,1173.6 
		3722.2,1082.9 3749.9,1082.9 3749.9,1116.2 3761,1116.2 3786,1082.9 3819.2,1082.9 3819.2,1082.9 	"/>
	<path d="M3841.4,1167.5v-24.9h0.1c15.2,7.7,29.9,11.4,42.8,11.4c9.7,0,14.6-2.3,14.6-6.9c0-4.5-3.2-5.7-22.7-8.8
		c-21.2-3.4-35.4-9.7-35.4-28c0-17,14.9-30.1,44.1-30.1c11.7,0,23.8,2.5,35.1,7.3v24.6l-0.1,0.1c-10.8-6.2-25.3-10.1-36.9-10.1
		c-10.4,0-14.5,2.5-14.5,6.6c0,5.3,6.3,5.8,22.3,8.6c21.2,3.6,35.4,9.6,35.4,28.8c0,14.9-11.1,29.8-43.1,29.8
		C3867.2,1175.9,3854.6,1172.6,3841.4,1167.5"/>
</g>
</svg>
