<?xml version="1.0" encoding="utf-8"?>
<!-- Generator: Adobe Illustrator 23.1.0, SVG Export Plug-In . SVG Version: 6.00 Build 0)  -->
<svg version="1.1" id="Слой_1" xmlns="http://www.w3.org/2000/svg" xmlns:xlink="http://www.w3.org/1999/xlink" x="0px" y="0px"
	 viewBox="0 0 1260 480" style="enable-background:new 0 0 1260 480;" xml:space="preserve">
<style type="text/css">
	.st0{fill:#ABABAB;}
	.st1{fill:#FFB81C;}
</style>
<g>
	<path d="M289.6,394.7c-5.4,0-14.3-0.8-22.1-1.9v46.4c0,3-2.4,5.4-5.4,5.4h-32.6c-3,0-5.7-2.4-5.7-5.4V251.1c0-4.3,1.1-6.2,8.3-7.8
		c15.4-3.8,36.6-7,57.4-7c43.6,0,67.6,25.2,67.6,68.7V326C357.2,368.2,335.1,394.7,289.6,394.7L289.6,394.7z M313.5,305.1
		c0-19.1-4.8-32.7-24-32.7c-8.9,0-17,0.5-22.1,1.3v83.8c6.5,0.8,15.6,1.6,22.1,1.6c19.1,0,24-14.2,24-33V305.1L313.5,305.1z"/>
	<path d="M489.4,329h-85.9v0.5c0,15.3,6.5,29.3,27.7,29.3c17,0,40.9-1.3,51.7-2.4h0.8c3,0,5.1,1.3,5.1,4.3V381
		c0,4.3-1.1,6.2-5.7,7.3c-17.2,4.3-31.8,6.4-55.2,6.4c-32.6,0-67.6-17.2-67.6-69V307c0-43.2,25.3-70.6,68.1-70.6S495,266.4,495,307
		v15.6C495,326.6,492.9,329,489.4,329L489.4,329z M452.5,301c0-19.9-9.2-29.8-24.3-29.8c-15.1,0-24.8,10.2-24.8,29.8v1.1h49
		L452.5,301L452.5,301z"/>
	<path d="M568.8,394.7c-5.4,0-14.3-0.8-22.1-1.9v46.4c0,3-2.4,5.4-5.4,5.4h-32.6c-3,0-5.7-2.4-5.7-5.4V251.1c0-4.3,1.1-6.2,8.3-7.8
		c15.4-3.8,36.7-7,57.4-7c43.6,0,67.6,25.2,67.6,68.7V326C636.4,368.2,614.4,394.7,568.8,394.7L568.8,394.7z M592.8,305.1
		c0-19.1-4.8-32.7-24-32.7c-8.9,0-17,0.5-22.1,1.3v83.8c6.5,0.8,15.7,1.6,22.1,1.6c19.1,0,24-14.2,24-33V305.1L592.8,305.1z"/>
	<path class="st0" d="M682.2,392.3h-32.9c-2.9,0-5.6-2.7-5.6-5.6V191.8c0-3,2.7-5.4,5.6-5.4h32.9c3,0,5.1,2.4,5.1,5.4v194.9
		C687.3,389.6,685.2,392.3,682.2,392.3z"/>
	<path class="st0" d="M739.3,392.3h-32.9c-3,0-5.4-2.4-5.4-5.4V243.9c0-3,2.4-5.4,5.4-5.4h32.9c2.9,0,5.4,2.4,5.4,5.4V387
		C744.7,389.9,742.2,392.3,739.3,392.3z"/>
	<path class="st0" d="M884.2,392.3h-32.6c-2.9,0-5.4-2.7-5.4-5.6v-89.4c0-18.8-3.5-25-19.9-25c-7.8,0-16.2,3.8-25.3,8.6v105.8
		c0,3-2.4,5.6-5.4,5.6H763c-2.9,0-5.6-2.7-5.6-5.6V243.9c0-3,2.4-5.4,5.4-5.4H793c2.9,0,5.4,2.4,5.4,5.4v6.4
		c14.8-10.5,26.7-14,43.9-14c39.1,0,47.7,27.1,47.7,60.9v89.4C889.9,389.7,887.2,392.3,884.2,392.3L884.2,392.3z"/>
	<path class="st0" d="M1035.1,244.1L985,312l49.8,74.6c0.6,0.5,0.6,1.3,0.6,2.2c0,1.9-1.4,3.5-3.5,3.5h-40.7c-3,0-4.6-0.5-6.7-3.8
		l-38.8-63.1v61.2c0,3-2.4,5.6-5.4,5.6h-32.6c-3,0-5.7-2.7-5.7-5.6V191.8c0-3,2.7-5.4,5.7-5.4h32.6c3,0,5.4,2.4,5.4,5.4V304
		l40.9-61.5c2.2-3.2,4.9-4,7-4h38.5c2.4,0,4,1.3,4,3C1036.2,242.2,1035.9,243.1,1035.1,244.1z"/>
	<path class="st1" d="M737.2,204.6c-2.6,7.9-11.2,12.2-19.1,9.6c-7.9-2.6-12.2-11.2-9.6-19.1c2.6-7.9,11.2-12.2,19.1-9.6
		C735.6,188.1,739.9,196.6,737.2,204.6L737.2,204.6z"/>
	<path class="st1" d="M700.1,135.6c-4.5,13.5-19.1,20.8-32.7,16.4c-13.6-4.5-20.9-19.1-16.4-32.6c4.5-13.5,19.1-20.8,32.7-16.3
		C697.2,107.5,704.6,122.1,700.1,135.6z"/>
	<path class="st1" d="M625.2,79.2c-5.8,17.5-24.8,27-42.3,21.2c-17.6-5.8-27.1-24.7-21.3-42.2c5.8-17.5,24.8-27,42.3-21.2
		C621.5,42.8,631.1,61.7,625.2,79.2L625.2,79.2z"/>
	<path class="st1" d="M519.1,89.4c-7.1,21.3-30.2,32.9-51.6,25.8c-21.4-7.1-33-30.1-25.9-51.5c7.1-21.3,30.2-32.9,51.6-25.8
		C514.6,45,526.2,68,519.1,89.4z"/>
	<path class="st1" d="M408.1,142.6c-8.2,24.8-35.1,38.2-59.9,30c-24.9-8.2-38.3-34.9-30.1-59.7c8.2-24.8,35.1-38.2,59.9-30
		S416.3,117.8,408.1,142.6L408.1,142.6z"/>
</g>
</svg>
