<?xml version="1.0" encoding="utf-8"?>
<!-- Generator: Adobe Illustrator 23.1.0, SVG Export Plug-In . SVG Version: 6.00 Build 0)  -->
<svg version="1.1" xmlns="http://www.w3.org/2000/svg" xmlns:xlink="http://www.w3.org/1999/xlink" x="0px" y="0px"
	 viewBox="0 0 1260 480" style="enable-background:new 0 0 1260 480;" xml:space="preserve">
<style type="text/css">
	.st0{display:none;fill:#3EB9E8;}
	.st1{fill:url(#SVGID_1_);}
	.st2{fill:#1E2188;}
	.st3{fill:#0089CB;}
	.st4{fill:#CC0099;}
	.st5{fill:#0085D0;}
	.st6{fill:#91D0EF;}
</style>
<g id="Слой_2">
</g>
<g id="Слой_1">
	<path class="st0" d="M821,273.8c0,0.7-0.1,1.4-1.1,1.3C820,274.5,820.2,273.9,821,273.8z"/>
	<path class="st0" d="M821.7,273c0.1,0.6-0.3,0.7-0.7,0.7C821.1,273.3,821.4,273.1,821.7,273z"/>
	<g>
		<radialGradient id="SVGID_1_" cx="630.9652" cy="192.3809" r="132.7446" gradientUnits="userSpaceOnUse">
			<stop  offset="0" style="stop-color:#D6ECF9"/>
			<stop  offset="0.1627" style="stop-color:#7CC3E9"/>
			<stop  offset="0.2952" style="stop-color:#3AA5DE"/>
			<stop  offset="0.3907" style="stop-color:#1192D7"/>
			<stop  offset="0.4399" style="stop-color:#018BD4"/>
			<stop  offset="0.4995" style="stop-color:#017EC9"/>
			<stop  offset="0.6779" style="stop-color:#005DAD"/>
			<stop  offset="0.775" style="stop-color:#0050A2"/>
			<stop  offset="0.8773" style="stop-color:#014DA1"/>
			<stop  offset="0.9391" style="stop-color:#03459C"/>
			<stop  offset="0.99" style="stop-color:#063794"/>
			<stop  offset="1" style="stop-color:#073392"/>
		</radialGradient>
		<path class="st1" d="M631,59.6c-73.3,0-132.7,59.4-132.7,132.7c0,41.8,19.4,79.2,49.6,103.5V107.2l114.9,0.6
			c0.4-0.5,27.6,0.9,38.3,4.7c7.5,2.6,21.3,9,24.1,12.7L588,125l-0.6,192.8c8.9,3.1,18.3,5.3,28,6.4V216.9h70v-24.6h-70v-42.8h124.5
			c0,0,5.8,13.3,3.8,42.8c-3.4,50.6-55.2,55.4-58.3,55.2l-58.7,0.8v76.9c1.4,0,2.8,0.1,4.3,0.1c73.3,0,132.7-59.4,132.7-132.7
			C763.7,119.1,704.3,59.6,631,59.6z"/>
		<g>
			<path class="st2" d="M391.2,420c-7.5,0-14.7,0-22.3,0c-9.5-20.8-18.8-42.2-28.5-63.3c6.7,0,12.9,0,19.6,0
				c6.5,15.8,13,31.5,19.9,48.2c5.8-16.5,11.2-32.2,16.8-48.2c7.1,0,14.2,0,21.6,0c6.3,15.8,12.6,31.6,19.3,48.2
				c6.4-16.5,12.5-32.2,18.6-48.2c6.2,0,12.3,0,18.8,0c-9,21.1-17.8,42.4-26.7,63.3c-7.5,0-14.8,0-22.4,0
				c-6-15.3-12.1-30.7-18.5-46.9C401.8,389,396.5,404.4,391.2,420z"/>
			<path class="st3" d="M932,372.1c0,15.9,0.2,31.6,0.2,47.2c-6,0-12.3,0-18.5,0c0-20.9,0.1-41.3,0.1-62.4c7.5,0,15.5,0,22.9,0
				c1.2,0,34.1,43.7,35,43.9c0-14.6,0-29.5,0-44.3c6,0,12.6,0,18.8,0c0,20.8,0,41.7,0,62.8c-7,0-14,0-21.2,0
				C966.5,415.7,940.5,382.5,932,372.1z"/>
			<path class="st3" d="M1002.7,419c0-20.7,0-41.5,0-62.6c2.5,0,4.9,0,7.2,0c11.2,0,22.4-0.1,33.6,0c7.7,0.1,15.3,0.9,22.5,3.9
				c8.1,3.4,13.5,9.2,15.7,17.7c2,8,2.3,16-0.9,23.7c-4.3,10.2-13,14.6-23.2,16.8C1053.2,419.4,1005.1,419,1002.7,419z M1021,407.6
				c8.3,0,16.4,0,24.5,0c2.8,0,5.8-0.5,8.4-1.4c3.9-1.3,5.9-3.7,7.6-7.2c2.2-7.4,2.2-14.7,0-22.1c-1.2-4.1-4-6.8-8.1-8
				c-3.1-0.9-6.3-1.5-9.5-1.5c-6.9,0-13.9,0-20.8,0c-0.7,0-1.5-0.2-2.1,0.4C1021,381.3,1021,394,1021,407.6z"/>
			<path class="st2" d="M574.1,419c-6.3,0-12.7,0-18.8,0c0-21-0.2-42.8-0.2-63.7c4,0,32.1,0.3,46.8,0.3c5.5,0,10.9,0.6,16.2,2.2
				c8.4,2.6,12.7,9.1,12.7,17.6c0,13.4-13.2,17.8-17.3,17.1c7.1,8.7,14.1,17.1,21.3,25.9c-7,0-13.5,0-20.5,0
				c-9.2-11.5-18.5-23.3-27.9-35.2c5.1,0,16.6,0.2,18.8-0.4c3.2-0.9,7.3-3.6,7.2-7.5c-0.2-7.6-10.4-7.8-12.9-7.9
				c-8.4-0.1-16.8,0-25.4,0C573.9,384.6,574.1,401.6,574.1,419z"/>
			<path class="st3" d="M736.9,367.5c0,17.3,0,34.3,0,51.5h-18.3v-62.3c0.8-0.8,1.8-0.5,2.7-0.5c14.8,0,29.6-0.1,44.4,0
				c7.5,0.1,14.9,0.9,21.5,4.9c2.3,1.4,4.8,3.3,5.7,7.9c3,12.3-2.1,20.5-14.5,23.5c-0.5,0.1-1,0.3-2,0.7c7,8.6,14.3,16.3,21.5,25.1
				h-21.4c-9.3-11.7-17.9-22.5-27.7-34.8c7.7,0,13.8,0,16.9-0.5c0.4-0.1,0.9-0.1,1.3-0.2c2.1-0.7,7.9-3.1,7.9-8.2
				c0-5.8-5.9-7-17.3-7C750.1,367.5,739.7,367.5,736.9,367.5z"/>
			<path class="st2" d="M504.9,418.7c-6.9-0.3-13.3-2.1-19.2-5.7c-5.2-3.3-9.1-7.6-10.8-13.6c-3.1-11.2-2.6-22.1,4.6-31.7
				c7.9-10.4,25.1-11.7,36.2-11c9.4,0.1,19.4,0,29.1,0c0,3.8,0,7.4,0,10.9c-5.4,0-37.6,0-40.9,1.2c-5.4,1.8-9.6,6.7-9.7,12.7
				c16.6,0,33.8-0.1,50.6-0.1c0,3.9,0,7.4,0,11.2c-16.8,0-34.1,0.1-50.8,0.1c0.3,8.4,3.7,12.8,11,14.5c5.7,1,38.6,0.6,39.7,0.6
				c0,3.7,0,7.8,0,11.3"/>
			<path class="st4" d="M836.7,370.6"/>
			<path class="st3" d="M842.5,363.4c0.1-0.1,7.8-6.6,19.5-6.6c14.8,0,26.4,0,40.7,0v11.1c-1.4,0-22.2,0-31.6,0
				c-3,0-5.9,0.5-8.7,1.4c-6.1,2-9.9,5.3-10.4,12.3l50.9,0.2l-0.1,11.5l-51,0c0.5,5.4,1.2,8.4,4.1,10.4c4.2,2.9,12.9,3.7,17,3.7
				c9,0,28.7,0,29.8,0c0,3.6,0,7.9,0,11.4c-12.5,0-34.6,0.3-41.6-0.6c-6.6-0.9-18-3.3-24.1-11.2c-2.8-3.6-4.8-7.8-5.3-12.2
				C830.4,381.7,833,369.5,842.5,363.4z"/>
			<path class="st2" d="M176.8,356.6c20.8,0,40.7-1,59.6,1.2c7.5,0.9,11.8,3.6,15.6,10.5c5.6,10.4,0.2,22.6-11.1,26.7
				c-7.5,2.7-15.2,2.8-23,2.8c-0.4,0-0.9-0.1-1.3-0.3c-5.8-3.4-11.9-7.6-17.5-11.6c6.2,0,25.6,0,28.8-1.4c4.5-2,6.6-5.8,5-10.4
				c-0.8-2.4-2.4-3.9-4.8-4.6c-2.5-0.8-5-1.1-7.6-1.3c-8.4-0.6-16.5-0.1-25.2-0.3c0,17.4,0,34.5,0,51.7c-6.1,0-12.3,0-18.4,0
				C176.8,398.8,176.8,377.9,176.8,356.6z"/>
			<path class="st3" d="M659.3,382.6h51.8V393h-51.9l-0.1,26c-6.1,0-12.3,0-18.1,0c-0.1,0-0.2-0.1-0.2-0.2c0-7.4,0.2-23.8,0.4-35.5
				c0.4-15.1,7.8-22.3,22.4-25.3c8.5-1.7,29.3-2,47.4-1.5v10.9c-21.1,0.6-34.4-1.2-42.9,1.7C662.1,371.3,659.3,374.3,659.3,382.6z"
				/>
			<path class="st2" d="M342.7,388.3c0.2,21.3-13.8,28.6-20.6,30.6c-8.5,2.6-22,0.8-36.2,1.4c13.7-14.1,41.5-41.7,41.4-41.9
				c-0.1-0.1-22.5,3.8-33.4,5.5c3.8-7.9,13.4-27.4,13.6-27.7c2,0,16.6-1.5,25.4,7.3C336.7,367.4,342.5,373.2,342.7,388.3z"/>
			<path class="st5" d="M283.1,420.1c0,0,14-21,21.5-30.6c-10.6,1-19,1.5-28.8,2.5c1.6-2.1,30-34.5,30.4-35.9
				c-13.7-0.1-25.6-1.8-36.1,3.8c-5.7,3.1-10.3,9-12.2,13.7c-2.7,6.8-3.9,18.2-0.4,27.1C265.2,420.4,283.1,420.1,283.1,420.1z"/>
			<path class="st6" d="M955.1,401.9c0.2,0.2,0.3,0.4,0.5,0.6C955.4,402.3,955.3,402.1,955.1,401.9z"/>
			<path class="st3" d="M823.5,419c-5.8,0-13.1,0.1-19.1,0.1c0-20.9,0-41.8,0-62.5c5.8,0,12.8,0,19.1,0c0,20.6,0,42.3,0,63
				C823.5,419.6,823.5,419,823.5,419z"/>
		</g>
	</g>
</g>
</svg>
