<?xml version="1.0" encoding="utf-8"?>
<!-- Generator: Adobe Illustrator 23.1.0, SVG Export Plug-In . SVG Version: 6.00 Build 0)  -->
<svg version="1.1" id="Layer_1" xmlns="http://www.w3.org/2000/svg" xmlns:xlink="http://www.w3.org/1999/xlink" x="0px" y="0px"
	 viewBox="0 0 1280 480" style="enable-background:new 0 0 1280 480;" xml:space="preserve">
<style type="text/css">
	.st0{fill:#27387D;}
	.st1{fill:#EC2727;stroke:#FFFFFF;stroke-width:1.4328;}
</style>
<g>
	<g>
		<g>
			<path class="st0" d="M293.6,140.4v-0.2h-6.1c-0.2,0-0.4,0-0.7,0v0H165c-41.7,0-62.5,16.8-62.5,50.5v92.6
				c0,33.4,20.8,50.1,62.5,50.1h122v-0.1c41.6-0.1,62.4-16.7,62.4-50.1v-92.6C349.4,158.9,330.8,142.2,293.6,140.4z M280.2,286.5
				H179.1V186.2h101.1V286.5z"/>
		</g>
		<g>
			<path class="st0" d="M905.6,332.8H833v-50.6H731.4v50.6h-72.5V184.1c0-12.7,4.8-22.8,14.4-30.3c9.4-7.3,22.7-11,40.1-11h138.1
				c17.4,0,30.7,3.6,40.1,11c9.4,7.3,14,17.5,14,30.3V332.8z M833,247.2v-55H731.4v55H833z"/>
			<path class="st0" d="M1165.8,152.3c-7.3-5.8-18.6-8.9-33.7-9.4l0.3-0.1h-2.8c-0.6,0-1.2,0-1.8,0H998.6l-0.1,0h-4.2
				c-17.4,0-30.7,3.6-40.1,11c-9.4,7.3-14.1,17.1-14.4,29.4h0v0.5c0,0.2,0,0.3,0,0.5h0v148.7h72.6v-49.6h117.3
				c31.9,0,47.8-12.8,47.8-38.4v-60.9C1177.5,169.2,1173.6,158.7,1165.8,152.3z M1103.7,241.5h-92.3v-49.3h92.3V241.5L1103.7,241.5z
				"/>
			<path class="st0" d="M567.7,142.8L567.7,142.8h-10.8v110.5c-0.5,1.2-1.5,2-3.7,1.6c0,0-1.4-0.3-2.4-1.4
				c-12.2-18.9-59.4-83.8-74.5-104.4c0-0.1-0.1-0.1-0.2-0.2h0c-0.2-0.2-0.5-0.5-0.7-0.6c-0.1-0.2-0.2-0.3-0.4-0.4
				c-3.8-3.5-8.9-5.2-15.6-5.2h-58.6c-7.4,0-13,2.1-17,6.2c-4,4.2-6,9.8-6.1,16.7l-0.1,0.1v167.1h68.6c0,0-0.4-88.3-0.6-114.3
				c0.3-1.7,1.5-4.2,6.8-3.6c0,0,2,0.2,2.9,1.7l0,0c13.2,21.1,99.9,116.2,99.9,116.2h71.2v-190L567.7,142.8L567.7,142.8z"/>
		</g>
		<g>
			<path class="st1" d="M219.1,260.6c0,0,76.8,44.1,92.8,79.1h59.8C366.8,328,338.3,275.7,219.1,260.6z"/>
		</g>
	</g>
</g>
</svg>
