<?xml version="1.0" encoding="utf-8"?>
<!-- Generator: Adobe Illustrator 23.1.0, SVG Export Plug-In . SVG Version: 6.00 Build 0)  -->
<svg version="1.1" id="Layer_1" xmlns="http://www.w3.org/2000/svg" xmlns:xlink="http://www.w3.org/1999/xlink" x="0px" y="0px"
	 viewBox="0 0 1260 480" style="enable-background:new 0 0 1260 480;" xml:space="preserve">
<style type="text/css">
	.st0{fill:#FB4F12;}
	.st1{fill:#FB4F14;}
</style>
<g>
	<g>
		<path class="st0" d="M1105.9,137.2c0.8-1.6,1.6-2.9,2.9-3.7c1.2-1.2,2.5-2,4.1-2.5c1.2-1.2,2.9-1.2,4.5-1.2s3.3,0.4,4.9,0.8
			c1.6,0.8,2.9,1.6,4.1,2.5c1.2,1.2,2,2.5,2.5,3.7c0.4,1.2,0.8,3.3,0.8,4.9c0,1.6-0.4,3.3-0.8,4.9s-1.6,2.9-2.5,4.1
			c-1.2,1.2-2.5,2-4.1,2.5s-3.3,0.8-4.9,0.8s-3.3-0.4-4.9-0.8s-2.9-1.6-4.1-2.5c-1.2-1.2-2-2.5-2.9-4.1c-0.8-1.6-0.8-3.3-0.8-4.9
			C1105.1,140.1,1105.5,138.4,1105.9,137.2z M1107.9,146.2c0.4,1.2,1.2,2.5,2,3.3c0.8,0.8,2,1.6,3.3,2s2.5,0.8,4.1,0.8
			c1.2,0,2.9-0.4,4.1-0.8c1.2-0.4,2.5-1.2,3.3-2c0.8-0.8,1.6-2,2-3.3c0.4-1.2,0.8-2.9,0.8-4.1c0-1.6-0.4-2.9-0.8-4.1
			c-0.4-1.2-1.2-2.5-2-3.3c-0.8-0.8-2-1.6-3.3-2c-1.2-0.4-2.5-0.8-4.1-0.8s-2.9,0.4-4.1,0.8c-1.2,0.4-2.5,1.2-3.3,2
			c-0.8,0.8-1.6,2-2,3.3c-0.4,1.2-0.8,2.5-0.8,4.1C1107.5,143.3,1107.5,144.6,1107.9,146.2z M1118.2,134.7c1.6,0,2.9,0.4,3.7,0.8
			c0.8,0.8,1.2,1.6,1.2,3.3c0,1.2-0.4,2-1.2,2.9c-0.8,0.4-1.6,0.8-2.9,1.2l4.1,6.1h-2.5l-4.1-6.1h-2.5v6.1h-2v-14.3H1118.2z
			 M1117.4,141.3c0.4,0,0.8,0,1.2,0s0.8,0,1.2-0.4c0.4,0,0.8-0.4,0.8-0.8c0.4-0.4,0.4-0.8,0.4-1.2s0-0.8-0.4-1.2
			c-0.4-0.4-0.4-0.4-0.8-0.8c-0.4,0-0.8-0.4-0.8-0.4c-0.4,0-0.8,0-1.2,0h-2.9v4.5h2.5V141.3z"/>
	</g>
	<g>
		<path class="st1" d="M359.1,369.5c2.9,2,7,2,9.8,0c2-1.6,4.9-4.1,8.2-7.4c3.3-3.3,6.1-6.1,8.2-8.6c3.3-3.3,2.5-9-1.2-11.5
			l-21.7-16c0,0-4.1,5.3-12.3,13.1c-8.2,7.8-14.7,12.7-14.7,12.7L359.1,369.5z"/>
		<path class="st1" d="M595.1,297.9c0,55.2-39.7,81.4-84.2,81.4c-45,0-84.2-26.2-84.2-81.4V193.6c0-4.1,3.3-7.8,7.8-7.8H456v109.2
			c0,38.4,23.3,56.4,55.2,56.4s54.8-18,54.8-56.4V185.9h21.7c4.1,0,7.4,3.3,7.4,7.4L595.1,297.9L595.1,297.9z"/>
		<g>
			<path class="st1" d="M804.9,281.6c0,0.8,0,2,0,2.9c0,4.5-3.7,8.2-8.2,8.2H655.6c4.1,40.1,32.3,60.5,65.8,60.5
				c20.4,0,38.4-7,53.6-18.8c3.3-2.5,7.8-1.6,10.2,1.2l11,13.9c-23.3,22.1-49.1,29-76.5,29c-54.8,0-94.1-38.9-94.1-96.5
				c0-56.8,39.3-96.5,92-96.5C768.1,185.9,804.5,225.1,804.9,281.6z M656,268.9h119.4c-3.7-34.8-26.6-57.3-58.1-57.3
				C683,211.6,660.5,235.3,656,268.9z"/>
		</g>
		<path class="st1" d="M972.2,221.8c-2,3.7-6.5,4.9-10.2,2.9c-13.1-7-33.1-13.5-54.4-13.5c-26.6,0-43.8,11-43.8,29
			c0,15.5,13.5,23.3,38,26.2l22.1,2.9c39.3,4.9,62.2,21.3,62.2,51.9c0,35.2-31.9,57.7-81.8,57.7c-24.1,0-54-5.7-77.3-23.7l9-14.3
			c2.5-4.1,7.8-5.3,11.9-2.9c13.5,8.6,30.7,15.1,57.3,15.1c31.5,0,51.1-10.2,51.1-29.9c0-14.7-12.7-24.1-38.9-27l-22.1-2.5
			c-41.7-4.9-61.3-23.7-61.3-51.5c0-35.2,29.4-56.4,74-56.4c25.8,0,49.5,6.5,67.1,16.4c3.7,2,4.9,7,2.9,10.6L972.2,221.8z"/>
		<path class="st1" d="M1135.8,345c-2.5-3.7-7-4.9-10.6-2.9c-9.8,5.3-20.9,9-32.7,9c-21.7,0-36.8-12.7-36.8-41.7V212h49.5
			c4.1,0,7.4-3.3,7.4-7.4v-18.8h-57.3V138c0-4.5-3.7-7.8-7.8-7.8h-21.3v55.6h-11.9c-4.9,0-8.6,4.1-8.6,8.6V212h20.4v97.7
			c0,46.6,23.7,68.7,63.8,68.7c22.9,0,41.3-7.8,55.2-18.4L1135.8,345z"/>
		<path class="st1" d="M392.6,234.5c-2.9-76.5-67.5-136.6-144-133.7c-4.1,0-8.6,0.4-12.7,1.2c-70.3,8.6-123.9,70.3-121.1,142.7
			c2.9,76.5,67.5,136.6,144,133.7c27.8-1.2,54.4-10.2,76.9-27L314.5,336c-2.5-1.6-5.3-2-8.2-0.4c-16.4,9.4-35.2,14.3-55.6,13.9
			c-56-1.2-102.2-46.6-105.1-102.7c-2.9-65,51.9-118.2,117.8-112.5c52.3,4.5,94.1,47.4,97.7,99.8c1.6,25.4-5.3,49.1-18.4,68.3
			c-2.5,3.3-1.6,8.2,1.6,10.6l18,13.1C383.2,300,393.9,268.1,392.6,234.5z"/>
	</g>
</g>
</svg>
