<?xml version="1.0" encoding="utf-8"?>
<!-- Generator: Adobe Illustrator 23.1.0, SVG Export Plug-In . SVG Version: 6.00 Build 0)  -->
<svg version="1.1" id="Слой_1" xmlns="http://www.w3.org/2000/svg" xmlns:xlink="http://www.w3.org/1999/xlink" x="0px" y="0px"
	 viewBox="0 0 1260 480" style="enable-background:new 0 0 1260 480;" xml:space="preserve">
<style type="text/css">
	.st0{fill:#D0D2D3;}
	.st1{fill:#B4121B;}
	.st2{fill:#FAAF3F;}
	.st3{fill:#00843F;}
	.st4{fill-rule:evenodd;clip-rule:evenodd;}
</style>
<g>
	<path d="M287.1,176.7c0-14.4,11.7-26,26-26c14.4,0,26,11.7,26,26c0,14.4-11.7,26-26,26l0,0C298.8,202.7,287.1,191.1,287.1,176.7z"
		/>
	<path class="st0" d="M98.8,176.7c0-14.4,11.7-26,26-26c14.4,0,26,11.7,26,26c0,14.4-11.7,26-26,26l0,0
		C110.5,202.7,98.8,191.1,98.8,176.7z"/>
	<path class="st0" d="M161.3,176.7c0-14.4,11.7-26,26-26c14.4,0,26,11.7,26,26c0,14.4-11.7,26-26,26l0,0
		C173,202.7,161.3,191.1,161.3,176.7z"/>
	<path class="st0" d="M287.2,240c0-14.4,11.7-26,26-26c14.4,0,26,11.7,26,26s-11.7,26-26,26C298.9,266,287.2,254.4,287.2,240
		L287.2,240z"/>
	<path class="st1" d="M224.2,176.7c0-14.4,11.7-26,26-26c14.4,0,26,11.7,26,26c0,14.4-11.7,26-26,26l0,0
		C235.8,202.7,224.2,191.1,224.2,176.7z"/>
	<path class="st2" d="M224.2,240c0-14.4,11.7-26,26-26c14.4,0,26,11.7,26,26c0,14.4-11.7,26-26,26l0,0
		C235.8,266,224.2,254.4,224.2,240z"/>
	<path class="st0" d="M162.1,303.3c0-14.4,11.7-26,26-26s26,11.7,26,26c0,14.4-11.7,26-26,26l0,0
		C173.8,329.4,162.1,317.7,162.1,303.3C162.1,303.4,162.1,303.3,162.1,303.3z"/>
	<path class="st3" d="M224.2,303.3c0-14.4,11.7-26,26-26c14.4,0,26,11.7,26,26c0,14.4-11.7,26-26,26l0,0
		C235.8,329.4,224.2,317.7,224.2,303.3z"/>
	<path class="st4" d="M458.3,220.2v-16.8h-25.6c-31.6,0-40.4-1.9-40.4,30.7v94.3h19.1V220.1L458.3,220.2z"/>
	<path class="st4" d="M489.2,202.7v18.2c46.2,0,54.4,2.1,54.4,26h-34.5c-26.4,0-41.7,4.9-41.7,41.1c-0.1,6,0.6,12,2.1,17.8l0,0
		c5.1,18.4,19.7,21.9,38.6,21.9c13.4,0,29.1-0.5,35.2-15.4v15.9h19.7v-83.2C562.9,201.9,532.5,202.7,489.2,202.7z M535.7,305.8
		c-5.9,4.5-14.8,4.6-23.4,4.6c-9.6,0-16.4-0.4-20.4-4.6l0,0c-3.3-3.5-4.9-9.5-4.9-20c0-19.9,7.4-21.5,25.3-21.4
		c13.5,0,30.5,0,30.5,0v23C542.7,296.9,540,302.5,535.7,305.8L535.7,305.8L535.7,305.8z"/>
	<path class="st4" d="M668.9,157.4v45.3h-37.4c-41.4,0-45.3,26-45.3,62.8c0,15.9,0.7,29.7,4.9,40.2l0,0
		c5.5,14.1,16.9,22.3,40.5,22.3c33.6,0,37.4-17.7,37.4-17.7v17.7h19.2V157.4L668.9,157.4z M658.7,305.8c-4.6,3.1-11.1,4.2-20.3,4.2
		s-16.4-0.8-21.2-4.3l0,0c-7.2-5.2-9.8-16.3-9.8-39.8c0-39.7,5.9-44.3,31.1-44.3c17.2,0,30.6-0.2,30.5,0c0,7.1,0,33,0,44.3
		c0,22.5-2,34.2-10.2,39.8l0,0L658.7,305.8z"/>
	<polygon class="st4" points="861.3,202.7 842.9,202.7 822.5,290.7 793.2,202.7 777.3,202.7 748.8,290.7 726.8,202.7 707.1,202.7 
		737.8,328.1 755.6,328.1 784.7,233.6 814.1,328.1 831.8,328.1 	"/>
	<path class="st4" d="M888.4,202.7v18.2c46.2,0,54.4,2.1,54.4,26h-34.7c-26.4,0-41.7,4.9-41.7,41.1c-0.1,6,0.6,11.9,2,17.7l0,0
		c5.1,18.4,19.7,21.9,38.6,21.9c13.4,0,29.1-0.5,35.2-15.4v15.9H962v-83.1C962,201.9,931.6,202.7,888.4,202.7z M934.8,305.8
		c-5.9,4.5-14.8,4.6-23.4,4.6c-9.6,0-16.3-0.4-20.4-4.6l0,0c-3.3-3.5-4.9-9.5-4.9-20c0-19.9,7.4-21.5,25.3-21.4
		c13.5,0,30.5,0,30.5,0v23C941.9,296.9,939.2,302.5,934.8,305.8L934.8,305.8L934.8,305.8z"/>
	<path class="st4" d="M1048.5,220.2v-16.8H1023c-31.7,0-40.4-1.9-40.4,30.7v94.3h19.1V220.1L1048.5,220.2z"/>
	<path class="st4" d="M1110.6,200.9c-50.6,0-67,67.7-42.6,104.8l0,0c9.5,14.5,25.1,24.3,47.4,23.7c15-0.4,29.7-3.9,43.3-10.3
		c0,0,0-20.1,0-20.2c-4.8,2.9-10,5.2-15.3,6.9l0,0c-14.4,4.7-34.3,7.7-48.5,0l0,0c-10.5-5.7-18-17.2-18-38.1h83.8
		C1160.5,267.6,1170.6,200.9,1110.6,200.9z M1076.9,249.6c1.5-10.7,8.7-31.7,34.7-31.7s29.9,20.3,30.4,31.7H1076.9z"/>
</g>
</svg>
