<?xml version="1.0" encoding="utf-8"?>
<!-- Generator: Adobe Illustrator 23.1.0, SVG Export Plug-In . SVG Version: 6.00 Build 0)  -->
<svg version="1.1" id="Слой_1" xmlns="http://www.w3.org/2000/svg" xmlns:xlink="http://www.w3.org/1999/xlink" x="0px" y="0px"
	 viewBox="0 0 1260 480" style="enable-background:new 0 0 1260 480;" xml:space="preserve">
<style type="text/css">
	.st0{fill-rule:evenodd;clip-rule:evenodd;fill:#FFFFFF;}
	.st1{fill:#E10714;}
	.st2{fill-rule:evenodd;clip-rule:evenodd;fill:#1D1E1C;}
	.st3{fill:#1D1E1C;}
	.st4{fill:#FFFFFF;}
</style>
<g id="Ebene_2">
	<g id="Ebene_1-2">
		<polygon class="st0" points="245.5,306.9 272.3,342.6 287.5,335.5 309.3,305.6 		"/>
		<path class="st1" d="M317.6,293.7c-30.7-15.2-68.1-54.6-68.1-54.6s-0.5,0.4-2,1.8l-0.7-0.7c-10.5,10-21.2,20.8-31.5,32l0.3,0.3
			l-1.8,1.9c30.2,37.9,45.7,66.2,48.9,70.4c3.2,4.2,6.1,10.6,14.4,6.6c22.6-11.2,38.7-40,42.3-46.5S320.3,295.9,317.6,293.7z
			 M300.8,313.6c-5.6,9.1-20.7,26.7-27.6,22.5c-5.8-3.5-15.7-18.1-19.8-24.4c-0.2-0.2-0.1-0.5,0.1-0.7s0.5-0.1,0.7,0.1l0,0
			c20.8,16.7,36.5,6.7,45.5,1.4c0.4-0.2,0.8-0.1,1.1,0.2C301,312.9,301,313.3,300.8,313.6z"/>
		<path class="st2" d="M268.3,131.1c5.4-4.9,10.3-3.9,15.6-2c19.5,6.8,53.2,30.5,45.5,59.7c-0.3,1.1-1.1,2.1-2.2,2.5
			c-51.8,21.1-126.1,92.7-172.2,170.5c-0.7,1.2-2.1,2-3.6,1.8c-15.8-1.3-55.7-16.6-69.5-59.9c-0.5-1.6,0.1-3.3,1.4-4.2
			C155.2,247.7,262.9,136,268.3,131.1z"/>
		<path class="st0" d="M86.5,165.4c0,0,6.2-38.5,56.3-40.3c19.2,21.9,45.5,53.6,45.5,53.6L86.5,165.4z"/>
		<path class="st1" d="M212.2,197.3l-1.5-1.7l0,0l-3.4-3.6c-4.5-5.4-9.5-11-14.8-16.7c-31.8-36.6-43.5-55.8-46-57.8
			c-2.9-2.3-24.1-2.2-45,11.4c-23,14.9-26,39.3-18.7,44.1c43.3,22.4,71.3,44.1,83,53.9l6.2,5.4l32.5,27.4l0.9-9.2
			c0.8-0.3,1.6-0.8,2.2-1.4C215.6,241.4,217.9,210.6,212.2,197.3z M177.3,171.6c-31.1-27.7-55.7-23.8-85.3-7.6
			c-0.5,0.3-1.1,0.1-1.4-0.4c-0.1-0.2-0.2-0.5-0.1-0.7c6.8-29.2,42.2-35.7,50.1-34.9c0.7,0.1,1.4,0.4,1.8,0.9
			c4.4,4.8,24.1,28.1,35.4,42.3C178.1,171.5,177.6,171.9,177.3,171.6z"/>
		<path class="st3" d="M1151.5,313.1h-25.7l-34.3-36.4l-34.6,36.4h-23.7l47.2-47.2l-46.9-47.5h25.7l34.1,35.8l34.2-35.8h23.9
			l-47.6,46.6L1151.5,313.1 M1005.7,235.8c-5.3-4.6-13.4-6.9-24.2-6.9c-10.8,0-19.5,2.5-26.1,7.5c-6.1,4.4-10.1,11.3-11,18.8h69.4
			C1013.7,246.9,1011,240.4,1005.7,235.8z M944.5,267.4c-0.1,5.3,1,10.5,3.4,15.2c2.2,4.2,5.3,7.9,9.2,10.6c4,2.8,8.6,4.9,13.4,6.1
			c5.6,1.4,11.3,2.1,17.1,2c8.4,0,16.8-1.3,24.9-3.8c8.3-2.6,14.3-5.1,17.8-7.6h1.1v17.4c-6.9,2.3-13.9,4.2-21,5.7
			c-7.4,1.6-15,2.3-22.5,2.3c-20.1,0-35.7-4.3-47-12.8c-11.3-8.5-16.9-20.6-16.9-36.2c0-15.5,5.4-27.8,16.2-36.9
			c10.8-9.1,25-13.6,42.6-13.6c16.3,0,28.9,3.7,37.7,11.2s13.3,18.1,13.2,31.8v8.6H944.5z M923.6,235.8c-3-0.6-6-1-8.8-1.2
			c-2.9-0.3-6.2-0.4-10.2-0.4c-6.2,0-12.4,1.1-18.2,3.3c-5.9,2.2-11.6,5-16.9,8.5v67.2h-20.3v-94.7h20.3v14
			c6.7-4.4,13.9-8,21.4-10.8c6.1-2.1,12.5-3.2,18.9-3.2c3.5,0,6.1,0.1,7.7,0.2c1.6,0.1,4,0.4,7.2,0.8v16.4L923.6,235.8z
			 M805.2,238.5c-6.1-6-14.7-8.9-25.6-8.9s-19.5,3-25.7,8.9c-6.1,6-9.2,15.1-9.2,27.3c0,11.9,3.1,20.9,9.2,27.1s14.7,9.2,25.7,9.2
			c10.9,0,19.4-3,25.5-9.1c6.2-6.1,9.2-15.1,9.3-27.1C814.4,253.6,811.3,244.4,805.2,238.5z M820.3,302.3
			c-10.2,8.9-23.7,13.4-40.6,13.4c-16.9,0-30.6-4.4-40.9-13.3c-10.1-8.9-15.1-21.1-15.1-36.5c0-15.4,5-27.6,15.1-36.6
			c10.1-9,23.7-13.4,40.8-13.4s30.7,4.5,40.6,13.4c10.2,9,15.2,21.1,15.2,36.6C835.4,281.3,830.3,293.5,820.3,302.3L820.3,302.3z
			 M690.5,313.1v-53.9c0-4.1-0.3-8.2-1-12.2c-0.4-3.2-1.6-6.3-3.6-8.9c-2-2.5-4.7-4.4-7.8-5.3c-4.3-1.3-8.7-1.8-13.2-1.7
			c-6,0.1-11.9,1.2-17.4,3.2c-6.1,2.2-11.9,4.9-17.4,8.2v70.7h-20.3v-94.7H630v10.5c6.1-4,12.7-7.2,19.6-9.6
			c6.7-2.3,13.8-3.5,20.9-3.5c13.1,0,23,3.1,29.9,9.2c6.9,6.2,10.3,15,10.4,26.6v61.4H690.5z M574.1,263.5c-6.2,0.3-13.5,0.7-22,1.3
			c-6.7,0.3-13.4,1.2-20,2.5c-5.1,1-10,3-14.2,6.1c-3.6,2.6-5.6,6.9-5.4,11.3c-0.3,4.9,2.1,9.6,6.3,12.2c4.2,2.7,10.6,4.1,19.2,4.1
			c6.7,0.1,13.3-1,19.6-3.2c5.7-2.1,11.2-4.7,16.5-7.8L574.1,263.5z M574.1,313.2V303c-1.8,1-4.2,2.3-7.3,4c-2.9,1.6-5.9,3-8.9,4.1
			c-3.8,1.4-7.7,2.5-11.7,3.3c-5.1,0.9-10.3,1.4-15.5,1.3c-10.9,0-20.2-2.8-27.7-8.5c-7.6-5.6-11.4-12.8-11.4-21.6
			c0-7.2,2-13,5.9-17.4c4.6-4.9,10.5-8.5,16.9-10.5c8.6-2.8,17.5-4.5,26.5-5.2c10.3-0.9,21.4-1.6,33.3-2v-2.4c0.1-3.2-0.7-6.3-2.4-9
			c-1.8-2.5-4.2-4.4-7-5.6c-3.3-1.4-6.8-2.3-10.4-2.6c-4.2-0.5-8.4-0.7-12.7-0.7c-6,0.1-12,0.6-17.9,1.7c-6.9,1.2-13.6,2.8-20.3,4.8
			h-1.1v-16.2c4-0.8,9.7-1.8,17.2-2.8c7.4-1,14.8-1.5,22.2-1.5c7.5-0.1,14.9,0.5,22.2,1.7c5.8,0.9,11.3,2.8,16.4,5.6
			c4.3,2.4,7.9,5.9,10.4,10.2c2.5,4.7,3.8,10,3.6,15.3v64.3L574.1,313.2z M444.4,212.8c-1.9-3.1-4.8-5.5-8.1-7.1
			c-3.5-1.7-7.2-2.9-11-3.4c-5-0.7-10-1-15.1-1h-25.3V249h21.7c6,0.1,11.9-0.4,17.8-1.4c4.6-0.8,9-2.5,12.9-5.2
			c3-2.1,5.5-4.9,7.2-8.2c1.7-3.7,2.5-7.7,2.3-11.7C446.9,219,446,215.7,444.4,212.8z M436.3,257.9l60.7,55.2h-27.8l-54-50.1h-30.2
			v50.2h-21.5V186.9h45.2c8.1-0.1,16.3,0.4,24.4,1.5c6.1,0.9,12,2.7,17.5,5.3c5.4,2.5,10.1,6.2,13.7,10.9c3.4,4.8,5.2,10.7,5,16.6
			c0.2,8.5-2.9,16.7-8.8,22.8C454.6,250.3,446.5,254.9,436.3,257.9L436.3,257.9z"/>
		<path class="st4" d="M1169,199.2c-0.2,0.4-0.4,0.7-0.7,0.9c-0.4,0.3-0.8,0.5-1.3,0.6c-0.6,0.1-1.2,0.2-1.8,0.2h-2.2v-5.4h2.7
			c0.5,0,1,0,1.5,0.1c0.4,0.1,0.8,0.2,1.1,0.4c0.3,0.2,0.6,0.4,0.8,0.8c0.2,0.3,0.3,0.7,0.2,1.1
			C1169.3,198.3,1169.2,198.8,1169,199.2 M1168.6,202.3c1-0.3,1.9-0.9,2.7-1.7c1.5-1.6,1.5-4.1-0.1-5.6c-0.3-0.3-0.6-0.5-1-0.7
			c-0.6-0.3-1.4-0.6-2.1-0.7c-0.9-0.1-1.8-0.2-2.7-0.2h-5.4v15.8h2.8V203h2.8l5.7,6.1h3.8L1168.6,202.3z M1174.8,210.8
			c-5,5-13.1,5.1-18.1,0.2c-0.1,0-0.1-0.1-0.2-0.2c-5-5.1-5-13.2,0-18.3c5-5,13.1-5.1,18.1-0.2c0.1,0,0.1,0.1,0.2,0.2
			C1179.8,197.5,1179.8,205.7,1174.8,210.8z M1176.2,191.1c-5.8-5.8-15.3-5.8-21.1,0.1c-5.8,5.8-5.8,15.2,0,21
			c5.8,5.8,15.2,5.9,21.1,0.1C1182,206.4,1182,197,1176.2,191.1C1176.2,191.1,1176.2,191.1,1176.2,191.1z"/>
		<path class="st0" d="M207.5,190.3"/>
		<path class="st0" d="M275.2,134.5c-2.6-0.4-30.3,28-66.6,63.3c-0.6,0.7-14.5,14.1-10.7,26.4c3.1,14.8,2.2,24.1-4.3,23.3
			c-3.9-0.5-18.9-13.2-21.4-15.2c-27.8,26.2-55.1,50.6-81,70c-0.7,0.5-1.1,1.4-0.9,2.2c3,17,38.3,48.9,58.4,50.2
			c0.9,0,1.7-0.4,2.1-1.1c39.8-61.4,124.2-149,168.4-167.1c0.9-0.4,1.6-1.2,1.8-2.2C325.9,153.5,285.1,136,275.2,134.5z
			 M148.5,342.9c-3.1,3.6-13.1,0.7-30-12.7c-7.5-5.9-13.8-13.3-18.4-21.7c-0.2-0.4,0-0.8,0.3-1c0.2-0.1,0.5-0.1,0.7,0
			c30.5,15.2,41.1,14,83.7-11.6c0.3-0.2,0.7,0,0.8,0.3c0.1,0.2,0.1,0.5-0.1,0.7C163,323.1,151.5,339.4,148.5,342.9z M254,165.2
			c-0.3,0.2-0.6,0.1-0.8-0.1c-0.1-0.2-0.2-0.4,0-0.6c6-8.5,20.8-22,24.8-20.8c15.3,4.9,27.6,19.2,32.1,25.1c0.3,0.3,0.2,0.8-0.1,1.1
			c-0.2,0.2-0.6,0.2-0.9,0C275.2,152.7,261.5,159.4,254,165.2L254,165.2z"/>
	</g>
</g>
</svg>
