<?xml version="1.0" encoding="utf-8"?>
<!-- Generator: Adobe Illustrator 23.1.0, SVG Export Plug-In . SVG Version: 6.00 Build 0)  -->
<svg version="1.1" id="Слой_1" xmlns="http://www.w3.org/2000/svg" xmlns:xlink="http://www.w3.org/1999/xlink" x="0px" y="0px"
	 viewBox="0 0 1260 480" style="enable-background:new 0 0 1260 480;" xml:space="preserve">
<style type="text/css">
	.st0{fill:url(#SVGID_1_);}
	.st1{fill:url(#SVGID_2_);}
	.st2{fill:#E50017;}
	.st3{fill:#003C8F;}
	.st4{fill:#003B8E;}
	.st5{fill:#003A8E;}
	.st6{fill:#00398C;}
	.st7{fill:url(#SVGID_3_);}
	.st8{fill:url(#SVGID_4_);}
</style>
<g>
	<linearGradient id="SVGID_1_" gradientUnits="userSpaceOnUse" x1="680.4" y1="279" x2="609.6" y2="279">
		<stop  offset="0" style="stop-color:#6FD7FF"/>
		<stop  offset="3.886590e-02" style="stop-color:#5FC1EE"/>
		<stop  offset="0.1114" style="stop-color:#46A0D3"/>
		<stop  offset="0.1918" style="stop-color:#3082BB"/>
		<stop  offset="0.2807" style="stop-color:#1E6BA8"/>
		<stop  offset="0.3817" style="stop-color:#11589A"/>
		<stop  offset="0.5016" style="stop-color:#074C90"/>
		<stop  offset="0.6592" style="stop-color:#02448A"/>
		<stop  offset="1" style="stop-color:#004288"/>
	</linearGradient>
	<polygon class="st0" points="680.4,251.9 668.3,306.1 609.6,305.5 638.6,251.9 	"/>
	<linearGradient id="SVGID_2_" gradientUnits="userSpaceOnUse" x1="670.2657" y1="208.9984" x2="746.4624" y2="184.2406">
		<stop  offset="0" style="stop-color:#EA011D"/>
		<stop  offset="4.249423e-02" style="stop-color:#E2011F"/>
		<stop  offset="0.176" style="stop-color:#D00325"/>
		<stop  offset="0.3358" style="stop-color:#C40329"/>
		<stop  offset="0.5458" style="stop-color:#BC042B"/>
		<stop  offset="1" style="stop-color:#BA042C"/>
	</linearGradient>
	<polygon class="st1" points="684,174.2 743.2,174.2 715,224.8 675.4,224.8 	"/>
	<path class="st2" d="M73.5,306.1l22.4-131.9h109.9c6.4,0,8.5,2.8,7.7,13.6l-7.3,44.1c-1.7,5.5-7.9,11.1-11.8,11.1l-9.9,0.2l7.7,63
		H165c-6.2,0-9-3-10.6-10.1l-8.1-67.6h16.1c9.2-3.6,11.9-31.6,4.2-34.3h-34l-19,112H73.5V306.1z"/>
	<path class="st2" d="M206.4,290.3l17.7-102.9c1.8-8.7,5.9-13.5,13.2-13.2h95c8.2-0.7,11.8,3.4,10.9,12.2l-6.8,42.1H297l4.6-27.1
		c1.2-5-0.6-7.5-5.8-7.2h-23.9c-5.6,0-9.8,2.7-11.4,9.6l-12.2,72c0.5,4.6,1.8,7.1,4.6,7.9h30.6c3.1-0.1,4.6-3,5.1-8l3.7-26.4H332
		l-7.1,45.5c-1.7,7.3-10.7,11.2-18.8,11.4h-88.8C208.2,306.1,204.2,301.1,206.4,290.3z"/>
	<path class="st2" d="M353,194.3c2.4-13.2,7.7-20.1,16.2-20.1l106.9-0.2l-3.4,20.1l-67.1-0.4c-8-0.5-12.6,4.1-14.9,12.4l-13.3,78.4
		h32.7c4.5-0.2,7.3-2,7.9-6l4.8-28.3h-19.9l4-21.7H467l-11,64.8c-3.5,8.8-10.5,13.1-21,12.9h-91.5c-6.4,0.2-8.6-5.7-6.4-17.6
		L353,194.3z"/>
	<path class="st3" d="M492.2,174.2h112.7c4.3,0.5,5.1,4,4.5,8.6l-10.1,59.6c-1.1,4.7-4.4,6.9-9.7,6.8h-70.9l-9.7,56.9h-39.2
		L492.2,174.2z M527.8,194l-5.8,34.3h35.4c6.8,0,7.1-12.5,7.9-17.2c1.4-8,4.5-17.2-2.4-17.2L527.8,194z"/>
	<path class="st4" d="M764.2,174.2L743,299.4c-0.7,4,1.5,6.4,7.4,6.7h135.4c11.1,0,16.3-6.9,18-16.8l19.6-115.2h-38.9l-17.4,102.3
		c-0.8,5.9-3.7,8.3-8,8h-13.5l18.7-110.2H825l-18.7,110.2h-15.5c-3.9,0-4.6-2-3.8-6.5l17.6-103.7L764.2,174.2L764.2,174.2z"/>
	<path class="st5" d="M945.6,174.2c-5.5,0-8.9,2.7-9.8,7.9L917,292.5c-1.2,8.1,1.4,13.6,11,13.6h97.6c5,0,7.2-1.3,7.8-5.2l2.8-16.4
		H964c-5.3,0.1-6.5-3.4-5.6-9l4.3-25.3h75.3c3.1,0,4.4-2.4,5-5.5l2.7-16.2h-79.5l4.8-28.2c0.5-3.8,2.9-6.4,9.7-6.1h64.9
		c3.5,0,6-2,7-6.8l2.2-13.1L945.6,174.2z"/>
	<path class="st6" d="M1071,174.2l-22.4,131.9h39.6l19-112h30.4c6.1,0,8.8,2.9,7.7,9.3l-4.3,25.1h-19.9l8.4,67.9
		c0.1,6.7,4.1,9.8,11.3,9.8h25.9l-8.1-63.2h4.5c10.1-0.1,16.4-4.2,18.2-13l4.7-38.1c1-10.2,0.7-17.8-3.2-17.6L1071,174.2z"/>
	<linearGradient id="SVGID_3_" gradientUnits="userSpaceOnUse" x1="605.649" y1="304.062" x2="656.2754" y2="164.9672">
		<stop  offset="0" style="stop-color:#6FD7FF"/>
		<stop  offset="1" style="stop-color:#034396"/>
	</linearGradient>
	<path class="st7" d="M609.6,305.5c0,0-8.7-3.6-8-7.7l19.3-113.5c1-6.2,4.3-10.1,8.8-10.1l51.9,0L609.6,305.5z"/>
	<linearGradient id="SVGID_4_" gradientUnits="userSpaceOnUse" x1="710.9602" y1="180.7935" x2="710.9602" y2="288.6938">
		<stop  offset="0.4498" style="stop-color:#DF011E"/>
		<stop  offset="0.6107" style="stop-color:#DB0120"/>
		<stop  offset="0.7797" style="stop-color:#CE0124"/>
		<stop  offset="0.9519" style="stop-color:#B9002B"/>
		<stop  offset="1" style="stop-color:#B2002E"/>
	</linearGradient>
	<path class="st8" d="M670.3,306.1H719c8-1.9,12.7-6.4,13.6-13.9l18.7-110.1c0.7-4.6,0.3-8-2.9-7.9h-5.6L670.3,306.1z"/>
</g>
</svg>
