<?xml version="1.0" encoding="utf-8"?>
<!-- Generator: Adobe Illustrator 23.1.0, SVG Export Plug-In . SVG Version: 6.00 Build 0)  -->
<svg version="1.1" id="Слой_1" xmlns="http://www.w3.org/2000/svg" xmlns:xlink="http://www.w3.org/1999/xlink" x="0px" y="0px"
	 viewBox="0 0 1260 480" style="enable-background:new 0 0 1260 480;" xml:space="preserve">
<style type="text/css">
	.st0{fill:#BE3A34;}
</style>
<g transform="translate(-60.76 -176)">
	<g transform="matrix(.3497 0 0 -.3465 86.09 184.6)">
		<path class="st0" d="M1672.1-581.1c-155.9,42.3-216.8,78-216.8,150.2c0,109.4,139.5,120,189.5,120c78.6,0,178.6-25.2,237.7-54.6
			l62.7,118.4c-79.9,39.6-202.2,66.1-304.6,66.1c-217.8,0-354.1-95.2-354.1-257.9c0-185.9,192.3-238.4,341.8-278.8
			c155.7-42.3,210-89.9,210-162.1c0-120.4-127.2-139.2-206-139.2c-108.1,0-197.4,29-284.6,80.7l-74.4-121.1
			c110-65.1,224.2-95.5,359.1-95.5c225.2,0,374.8,112,374.8,285.2C2007.1-676.1,1825.1-622.5,1672.1-581.1"/>
		<path class="st0" d="M1085.6-474.1c-2.4,167.4-135.6,284.2-324.2,284.2H353.6v-958.7h148.5v818.5h250.7
			c84,0,174.3-43.1,175.8-146.3c1.3-91.8-68.4-149.3-186.4-154.2l-2.3-0.2l-89.9-0.8L949.4-1150l175.4,0.4
			c0,0-144.1,250.8-234.4,408.1c133,48.9,196.7,157.2,195.2,267.4"/>
		<path class="st0" d="M3104.6-1146.6l-181.5-0.4l-329,755l-315.3-755h-182.6l414.2,962.9l170.3,0.1L3104.6-1146.6z"/>
	</g>
</g>
</svg>
