<?xml version="1.0" encoding="utf-8"?>
<!-- Generator: Adobe Illustrator 23.1.0, SVG Export Plug-In . SVG Version: 6.00 Build 0)  -->
<svg version="1.1" id="a" xmlns="http://www.w3.org/2000/svg" xmlns:xlink="http://www.w3.org/1999/xlink" x="0px" y="0px"
	 viewBox="0 0 1260 480" style="enable-background:new 0 0 1260 480;" xml:space="preserve">
<style type="text/css">
	.st0{fill:#F47920;}
</style>
<g>
	<g>
		<path d="M713.1000977,308.3400269c0,35.460022-16.9200439,53.2200623-50.8200684,53.2200623
			s-49.3200684-17.3399963-49.3200684-51.9600525v-68.1600647h27.3600464v68.52005
			c0,19.0800171,7.6799927,28.6800232,22.9799805,28.6800232c15.3000488,0,22.5600586-9.2400208,22.5600586-27.6600342v-69.480072
			h27.3000488v66.960083L713.1000977,308.3400269z"/>
		<path d="M821.4602051,355.3200989c-8.8200073,4.1999817-20.4000244,6.2399902-34.6200562,6.2399902
			c-18.6000977,0-33.1800537-5.3399963-43.8600464-15.960022c-10.6199951-10.6199951-15.960022-24.8400269-15.960022-42.6000366
			c0-18.9000244,6-34.2000122,17.9400635-45.960022c11.9400024-11.7600098,27.4800415-17.6400146,46.5599976-17.6400146
			c11.8200073,0,21.7800293,1.4400177,29.8800049,4.3800049v25.6200256
			c-8.1000366-4.7400208-17.3400269-7.0800171-27.7200317-7.0800171c-11.3999634,0-20.5799561,3.480011-27.539978,10.440033
			c-6.960022,6.9599915-10.5,16.4400024-10.5,28.3200073c0,11.8799744,3.2999878,20.519989,9.8999634,27.3000183
			c6.6000366,6.7799988,15.4800415,10.2000122,26.5799561,10.2000122c11.0999756,0,20.4000244-2.519989,29.2200317-7.5600281
			v24.3000488H821.4602051z"/>
		<path d="M1058.6403809,308.3400269c0,35.460022-16.9200439,53.2200623-50.8200684,53.2200623
			c-33.8999634,0-49.3200684-17.3399963-49.3200684-51.9600525v-68.1600647h27.3600464v68.52005
			c0,19.0800171,7.6799927,28.6800232,22.9800415,28.6800232s22.5599365-9.2400208,22.5599365-27.6600342v-69.480072h27.3000488
			v66.960083L1058.6403809,308.3400269z"/>
		<path d="M1074.0603027,354.9601135v-26.3400269c4.9200439,4.019989,10.2000732,7.019989,15.960083,9s11.5200195,3,17.3999023,3
			c3.4200439,0,6.4200439-0.3000183,9.0001221-0.8999939c2.5799561-0.6000061,4.6799316-1.4400024,6.4200439-2.519989
			c1.7398682-1.0800171,3-2.3399963,3.8399658-3.7799988c0.8399658-1.4399719,1.2600098-3.0600281,1.2600098-4.7400208
			c0-2.2799683-0.6600342-4.3800049-2.039917-6.1799927c-1.3800049-1.7999573-3.1800537-3.480011-5.5200195-5.039978
			c-2.3399658-1.5599976-5.1000977-3-8.3400879-4.4399719c-3.1799316-1.4400024-6.6599121-2.8800354-10.3798828-4.3800354
			c-9.4801025-3.8399963-16.5-8.519989-21.1800537-14.1000061c-4.6199951-5.519989-6.960083-12.2400208-6.960083-20.1000061
			c0-6.1199951,1.2601318-11.460022,3.7801514-15.8399963c2.5198975-4.440033,6-8.0400238,10.3199463-10.9200134
			c4.3800049-2.8800049,9.4200439-4.9800262,15.1800537-6.3000031c5.7600098-1.3200073,11.8199463-2.0400085,18.2399902-2.0400085
			c6.4199219,0,11.8798828,0.3600159,16.7398682,1.1399994c4.8599854,0.719986,9.3599854,1.8600006,13.5,3.4199982v24.6000214
			c-2.039917-1.3800049-4.2600098-2.5800171-6.5999756-3.6000061c-2.4000244-1.019989-4.8599854-1.9200134-7.3800049-2.5800171
			s-5.039917-1.1999817-7.5599365-1.5c-2.5200195-0.2999878-4.8599854-0.480011-7.1400146-0.480011
			c-3.1199951,0-5.9400635,0.3000183-8.460083,0.8399963c-2.5200195,0.6000061-4.6799316,1.3800049-6.4200439,2.460022
			c-1.7399902,1.019989-3.1199951,2.2799988-4.0799561,3.7200012s-1.4400635,3.059967-1.4400635,4.9199829
			c0,1.980011,0.5400391,3.7200012,1.6201172,5.3399963c1.0799561,1.5599976,2.5799561,3.0599976,4.5599365,4.440033
			c1.9799805,1.3800049,4.3800049,2.7599792,7.1999512,4.1399841c2.8200684,1.3200073,6,2.7600098,9.5400391,4.1399841
			c4.8599854,1.980011,9.1799316,4.0800171,13.0200195,6.3000183c3.8399658,2.2200012,7.1400146,4.7399902,9.8999023,7.5599976
			c2.7600098,2.8200073,4.8599854,6,6.3599854,9.6000061c1.4400635,3.5999756,2.2199707,7.8000183,2.2199707,12.539978
			c0,6.6000061-1.2600098,12.1199951-3.8399658,16.6199951s-6.0599365,8.1000061-10.4400635,10.8599854
			c-4.3800049,2.7600098-9.4799805,4.7400208-15.3000488,6c-5.8199463,1.2600098-12,1.8000183-18.4799805,1.8000183
			s-12.960083-0.539978-18.960083-1.6199646c-6-1.0800171-11.2199707-2.7600098-15.5999756-4.9200134L1074.0603027,354.9601135z"/>
		<path d="M867.84021,359.5201111h-27.3000488V241.4400177H867.84021V359.5201111z"/>
		<polygon points="878.5801392,308.2200623 920.8202515,359.5201111 955.2601929,359.5201111 902.4602661,297.7200623 
			944.7002563,241.4400024 912.1802368,241.4400024 878.7601318,290.6400452 		"/>
		<path d="M573.539917,313.5600586c3.3000488-1.5600281,6.3600464-3.480011,9.0600586-5.7600098
			c8.7600098-7.3200073,13.1400146-16.9200134,13.1400146-28.8000183c0-25.0800171-15.2399902-37.6200256-45.7800293-37.6200256
			h-56.3400269v118.0801086h27.3000488v-97.6800842h24.3599854c14.5200195,0,21.7800293,6.0599976,21.7800293,18.1800232
			c0,12.1199951-7.2600098,18.6000061-21.7800293,18.6000061v0.1199646h-15.4199829l48.4800415,60.7200623h34.4400024
			L573.539978,313.440033L573.539917,313.5600586z"/>
	</g>
	<g>
		<path d="M464.3398743,137.33992l-7.4400024-9.4199982l-40.3200378,17.2200012l-16.980011-11.519989l-27.2400208,5.8800049
			l-29.8800659,13.3200073l-7.7399902,17.2200165l14.3399963,16.9199982l10.980011,3.2400208l28.9800415-30.1200256
			l-25.6199951,41.8200378l-19.7400208-6.3600159l-4.5600281-6.5999908l-33.1200256,41.0400238l-103.0800781,27.1200256
			c-3.5999908,0-8.8800049,0.1199951-8.8800049,0.1199951c-95.5200729-40.9200134-40.6200409-95.7600555-40.0800323-96.3600769
			c-0.6600037,0.3600159-78.3600693,39.6000214,9.480011,111.9000854l-16.4400177,18.6600342l-11.6400146,52.7400513
			l-29.5200195,23.460022l-32.3400192,70.2600708h30.7200165l5.0400009-11.8800354l-11.8800049-2.9400024l19.3800125-33.7200317
			c10.0800095-5.4000244,46.2000351-19.9200134,53.2800522-24.8400269l48.0000305-60.3000488l53.700058,16.9200134
			l7.5599976-33.3600464l2.6399841,5.5800171l4.1399841,47.5800171l-22.6799927,101.7000427h32.1000061v-10.3800049l-12-5.0400085
			l39.0600281-87.6600647c0,0,59.4000549-37.8000488,59.3400574-38.1600342
			c-0.1799927-0.960022,28.8000488-90.1800537,28.8000488-90.1800537l35.8800354-3.0599976l10.5-14.4600067l-42.5400391,0.1199951
			l49.3200378-36.3600311l0.480011-19.8600311V137.33992z"/>
		<g>
			<polygon points="332.3397827,344.940094 371.3997803,320.1600647 329.1597595,418.6201477 341.2197571,423.2401428 
				341.2197571,433.0801392 312.9597473,433.1401672 			"/>
			<path d="M233.8196869,367.1401062l-44.6400299,22.6800232l-16.440033,29.0400391l12.480011,3.480011l-5.0400085,10.6799927
				h-27.5400238l21.4200134-56.940033c2.0400085-1.2599792,24.7200165-21.480011,24.7200165-21.480011l1.9199982-12.8400269
				l20.8800049-26.2200317l31.0200195,9.8399963C252.5996552,325.3800659,233.8196411,367.1401062,233.8196869,367.1401062z"/>
			<polygon class="st0" points="402.9598083,251.2200165 313.3797302,217.5599823 322.3197632,206.3999786 406.7398376,236.6999969 
							"/>
		</g>
	</g>
	<path d="M1186.5004883,248.7600098c0,6.8400116-5.5200195,12.1799927-12.6600342,12.1799927
		s-12.7199707-5.3399811-12.7199707-12.1799927c0-6.8399963,5.6400146-12.0599976,12.7199707-12.0599976
		S1186.5004883,242.0400085,1186.5004883,248.7600098z M1164.300415,248.7600098
		c0,5.3399963,4.0799561,9.6000061,9.6600342,9.6000061s9.4200439-4.2600098,9.4200439-9.5400085
		c0-5.280014-4.0200195-9.7200012-9.4799805-9.7200012c-5.460083,0-9.5400391,4.3200073-9.5400391,9.5999908
		L1164.300415,248.7600098z M1171.9205322,255.0600128h-2.8800049v-12.0599976
		c1.1400146-0.2400055,2.6999512-0.3600159,4.7399902-0.3600159c2.3399658,0,3.4200439,0.3600159,4.3199463,0.9000092
		c0.6600342,0.5400085,1.1999512,1.5000153,1.1999512,2.6399994c0,1.3200073-1.0799561,2.3399963-2.5799561,2.8200073v0.1200104
		c1.2000732,0.4199982,1.8599854,1.3200073,2.2800293,2.9400024c0.3599854,1.8600159,0.6000977,2.5800171,0.9000244,3.0000153
		h-3.0599365c-0.3599854-0.4199982-0.6000977-1.5599976-0.960083-2.9400177
		c-0.2399902-1.3200073-0.9599609-1.9199982-2.5799561-1.9199982h-1.3800049v4.8600159V255.0600128z M1171.9804688,248.2200165
		h1.3800049c1.5599365,0,2.8798828-0.5400085,2.8798828-1.7400055c0-1.0800018-0.8399658-1.8600159-2.6400146-1.8600159
		c-0.7800293,0-1.2600098,0.0599823-1.5599365,0.1199951v3.4800262H1171.9804688z"/>
	<g>
		<polygon class="st0" points="494.099884,136.3199158 494.099884,193.6199493 521.5198975,193.6199493 521.5198975,116.579895 		
			"/>
		<polygon class="st0" points="552.7799072,94.0798874 552.7799072,193.6199493 580.1999512,193.6199493 580.1999512,74.3398666 		
			"/>
		<polygon class="st0" points="612.9599609,50.7598572 612.9599609,193.6199493 640.3800049,193.6199493 640.3800049,31.0198345 		
			"/>
	</g>
	<g>
		<path class="st0" d="M525.2999268,446.5801392c-3.2400513,1.5600281-7.500061,2.3400269-12.7200317,2.3400269
			c-6.8400269,0-12.1800232-1.980011-16.1400452-6.0000305c-3.960022-4.019989-5.8800354-9.3599854-5.8800354-16.0800171
			c0-7.1400146,2.2200317-12.8999939,6.6000061-17.3399963c4.3800354-4.4400024,10.0800171-6.6600037,17.1600037-6.6600037
			c4.3200073,0,8.039978,0.539978,10.9800415,1.6199646v9.6600342c-3-1.8000183-6.3599854-2.6999817-10.2000122-2.6999817
			c-4.1999817,0-7.5599976,1.3200073-10.1400146,3.960022c-2.5799866,2.6400146-3.8399963,6.1799927-3.8399963,10.6799927
			s1.1999817,7.7400208,3.6600037,10.3200073c2.460022,2.5800171,5.6999817,3.8399963,9.7799683,3.8399963
			c4.0800171,0,7.500061-0.960022,10.7400513-2.8800049v9.1799927L525.2999268,446.5801392z"/>
		<path class="st0" d="M558.1199341,448.9801636c-6.3599854,0-11.5800171-2.0999756-15.5999756-6.2400208
			c-4.0200195-4.1400146-6.000061-9.539978-6.000061-16.2600098c0-7.019989,2.039978-12.7200012,6.1199951-17.0999756
			c4.0800171-4.3800049,9.4800415-6.5400085,16.2000122-6.5400085c6.3599854,0,11.5200195,2.1000061,15.4199829,6.2400208
			c3.9000244,4.1400146,5.8800659,9.6600037,5.8800659,16.4400024s-2.039978,12.6600037-6.1199951,16.9200134
			s-9.3599854,6.4200134-15.9000244,6.4200134V448.9801636z M558.539917,411.5401611
			c-3.539978,0-6.2999878,1.3200073-8.4000244,3.960022c-2.0999756,2.6400146-3.1199341,6.1199646-3.1199341,10.5
			s1.0199585,7.9200134,3.1199341,10.4400024c2.1000366,2.519989,4.8000488,3.8399963,8.1600342,3.8399963
			s6.1799927-1.2600098,8.2200317-3.7200317s3.0599976-5.9399719,3.0599976-10.3800354
			c0-4.440033-0.960022-8.2200012-2.9400024-10.8000183C564.6600342,412.8001099,561.9599609,411.5401001,558.539917,411.5401611z"
			/>
		<path class="st0" d="M645.2999878,448.2001953h-9.9000244v-26.6400452c0-2.8800354,0.1199951-6.0600281,0.3599854-9.539978
			h-0.2399902c-0.539978,2.7599792-0.960022,4.6799927-1.3800049,5.8800049l-10.4400024,30.3000488h-8.2200317
			l-10.6199951-30.0000305c-0.2999878-0.7799683-0.7799683-2.8800049-1.3800049-6.2399902h-0.3000488
			c0.3000488,4.3800049,0.4200439,8.2200012,0.4200439,11.5799866v24.6600342h-9.0600586v-44.5200195h14.7000122
			l9.1199951,26.4000244c0.7200317,2.1000061,1.2600098,4.2600098,1.5599976,6.3599854h0.1799927
			c0.539978-2.460022,1.1400146-4.6199646,1.8000488-6.4199829l9.1199341-26.3400269h14.3400269v44.5200195L645.2999878,448.2001953
			z"/>
		<path class="st0" d="M713.1600952,448.2001953h-9.9000244v-26.6400452c0-2.8800354,0.1199951-6.0600281,0.3599854-9.539978
			h-0.2399902c-0.539978,2.7599792-0.960022,4.6799927-1.3800659,5.8800049l-10.4400024,30.3000488h-8.2199707
			l-10.6199951-30.0000305c-0.3000488-0.7799683-0.7800293-2.8800049-1.3800659-6.2399902h-0.2999878
			c0.2999878,4.3800049,0.4199829,8.2200012,0.4199829,11.5799866v24.6600342h-9.0599976v-44.5200195h14.7000122
			l9.1199341,26.4000244c0.7200317,2.1000061,1.2600098,4.2600098,1.5600586,6.3599854h0.1799927
			c0.539978-2.460022,1.1400146-4.6199646,1.7999878-6.4199829l9.1199951-26.3400269h14.3400269v44.5200195L713.1600952,448.2001953
			z"/>
		<path class="st0" d="M728.2800903,446.4601746v-9.960022c1.8000488,1.5,3.7800903,2.6400146,5.8800049,3.4199829
			c2.0999756,0.7799988,4.2600708,1.1400146,6.4200439,1.1400146c1.2600708,0,2.3400269-0.1199646,3.3000488-0.3599854
			c0.960022-0.2399902,1.7399292-0.539978,2.3399658-0.960022c0.6600342-0.4199829,1.0799561-0.8999939,1.4400635-1.4399719
			c0.3600464-0.539978,0.4799805-1.1400146,0.4799805-1.8000183c0-0.8399963-0.2399292-1.6199951-0.7199707-2.3399963
			c-0.4799805-0.7200317-1.1999512-1.3200073-2.039978-1.9200134c-0.8399658-0.5999756-1.8599854-1.1400146-3.0599365-1.6799927
			c-1.2000122-0.539978-2.460022-1.0799866-3.8400269-1.6199646c-3.4799805-1.4400024-6.0599365-3.2400208-7.8000488-5.3400269
			c-1.7399292-2.0999756-2.5799561-4.6199646-2.5799561-7.5599976c0-2.3399963,0.4800415-4.3200073,1.3800049-6
			s2.2199707-3.0600281,3.7800293-4.1400452c1.6200562-1.0799866,3.4800415-1.8599854,5.5799561-2.3999939
			c2.0999756-0.5400391,4.3200073-0.7799988,6.7199707-0.7799988s4.3800049,0.1199951,6.1799927,0.4200134
			c1.8000488,0.3000183,3.4200439,0.7200012,4.9800415,1.2599792v9.3000488
			c-0.7199707-0.539978-1.5599976-0.960022-2.460022-1.3800354c-0.8999634-0.4199829-1.8000488-0.7200012-2.7000122-0.960022
			c-0.8999634-0.2399902-1.8599854-0.480011-2.7600098-0.5999756c-0.8999634-0.1199951-1.8000488-0.1799927-2.6400146-0.1799927
			c-1.1400146,0-2.1600342,0.1199646-3.1200562,0.3000183c-0.960022,0.1800232-1.7399292,0.539978-2.3399658,0.8999939
			c-0.6000366,0.3600464-1.1400146,0.8399963-1.5,1.4400024c-0.3599854,0.5999756-0.539978,1.1400146-0.539978,1.8599854
			c0,0.7200012,0.1799927,1.4399719,0.6000366,1.980011c0.4200439,0.5400085,0.960022,1.1400146,1.6799927,1.6799927
			s1.6199951,1.019989,2.6400146,1.5599976c1.0199585,0.5400391,2.2199707,1.019989,3.539978,1.5600281
			c1.7999878,0.7200012,3.3599854,1.5599976,4.7999878,2.3999939c1.4400635,0.8399963,2.6400146,1.8000183,3.6600342,2.8200073
			c1.0199585,1.0200195,1.7999878,2.2799988,2.3399658,3.6000061s0.7800293,2.9400024,0.7800293,4.7400208
			c0,2.460022-0.4799805,4.5599976-1.4400024,6.2399902s-2.2199707,3.0600281-3.8400269,4.0800171
			c-1.6199951,1.019989-3.4799805,1.8000183-5.6400146,2.2799988c-2.1599731,0.480011-4.3799438,0.6600037-6.7800293,0.6600037
			c-2.4000244,0-4.7999878-0.1799927-6.960022-0.6000061c-2.2199707-0.4199829-4.1400146-1.019989-5.7600708-1.8599854V446.4601746z
			"/>
		<path class="st0" d="M804.9000854,446.5801392c-3.2399292,1.5600281-7.5,2.3400269-12.7199707,2.3400269
			c-6.8399658,0-12.1799927-1.980011-16.1400146-6.0000305c-3.960022-4.019989-5.8799438-9.3599854-5.8799438-16.0800171
			c0-7.1400146,2.2199707-12.8999939,6.6000366-17.3399963c4.3799438-4.4400024,10.0799561-6.6600037,17.1599731-6.6600037
			c4.3200073,0,8.039978,0.539978,10.9800415,1.6199646v9.6600342c-3-1.8000183-6.3599854-2.6999817-10.2000122-2.6999817
			c-4.1999512,0-7.5599365,1.3200073-10.1400146,3.960022c-2.5800171,2.6400146-3.8399658,6.1799927-3.8399658,10.6799927
			s1.1999512,7.7400208,3.6599731,10.3200073c2.460022,2.5800171,5.7000122,3.8399963,9.7800293,3.8399963
			c4.0800781,0,7.5-0.960022,10.7399902-2.8800049v9.1799927L804.9000854,446.5801392z"/>
		<path class="st0" d="M837.7201538,448.9801636c-6.3599854,0-11.5799561-2.0999756-15.6000366-6.2400208
			c-4.0200806-4.1400146-6-9.539978-6-16.2600098c0-7.019989,2.039978-12.7200012,6.1199951-17.0999756
			c4.0800781-4.3800049,9.4800415-6.5400085,16.2000122-6.5400085c6.3599854,0,11.5200195,2.1000061,15.4200439,6.2400208
			c3.8999634,4.1400146,5.8800049,9.6600037,5.8800049,16.4400024s-2.039978,12.6600037-6.1200562,16.9200134
			c-4.0799561,4.2600098-9.3599854,6.4200134-15.8999634,6.4200134V448.9801636z M838.1401978,411.5401611
			c-3.539978,0-6.3000488,1.3200073-8.3999634,3.960022c-2.0999756,2.6400146-3.1200562,6.1199646-3.1200562,10.5
			s1.0200195,7.9200134,3.1200562,10.4400024s4.7999878,3.8399963,8.1599731,3.8399963s6.1799927-1.2600098,8.2199707-3.7200317
			c2.0400391-2.460022,3.0599976-5.9399719,3.0599976-10.3800354c0-4.440033-0.960022-8.2200012-2.9400024-10.8000183
			c-1.9800415-2.5799866-4.6800537-3.8399963-8.1000977-3.8399963L838.1401978,411.5401611z"/>
		<path class="st0" d="M884.1602173,432.8401489v15.3599854h-10.0200195v-44.5200195h15.7200317
			c11.2199707,0,16.8599854,4.7400208,16.8599854,14.2200317c0,4.5-1.6200562,8.0999756-4.8000488,10.8599854
			c-3.2399292,2.7600098-7.5,4.1400146-12.8999634,4.1400146h-4.8000488L884.1602173,432.8401489z M884.1602173,411.3601074
			v13.8599854h3.960022c5.3400269,0,8.039978-2.3399963,8.039978-7.019989s-2.6999512-6.8399963-8.039978-6.8399963H884.1602173z"/>
		<path class="st0" d="M946.9202271,448.2001953h-26.7000122v-44.52005h25.6799927v8.1600342h-15.6599731v9.8999939h14.5799561
			v8.1600342h-14.5799561v10.1999817h16.6799927v8.1600037V448.2001953z"/>
	</g>
</g>
</svg>
