<?xml version="1.0" encoding="utf-8"?>
<!-- Generator: Adobe Illustrator 23.1.0, SVG Export Plug-In . SVG Version: 6.00 Build 0)  -->
<svg version="1.1" xmlns="http://www.w3.org/2000/svg" xmlns:xlink="http://www.w3.org/1999/xlink" x="0px" y="0px"
	 viewBox="0 0 1260 480" style="enable-background:new 0 0 1260 480;" xml:space="preserve">
<style type="text/css">
	.st0{fill-rule:evenodd;clip-rule:evenodd;fill:#0F75BC;}
</style>
<g id="Слой_2">
</g>
<g id="Слой_1">
	<g>
		<path id="SVGID_1_" class="st0" d="M437.6,358.2c-2.9-1.3-5.9-2.2-9-2.9c-3.1-0.7-6.3-1-9.6-1c-1.5,0-3.2,0.1-4.9,0.5
			c-1.7,0.4-3.2,1.1-4.6,1.9c-1.4,1-2.5,2.2-3.5,3.8c-1,1.6-1.4,3.6-1.4,6c0,2.6,1,4.7,2.9,6.2c2,1.5,4.5,2.9,7.4,4.1
			c2.9,1.3,6.2,2.5,9.7,3.7c3.5,1.3,6.8,2.9,9.7,4.9c2.9,2.1,5.5,4.7,7.4,7.9c2,3.2,2.9,7.3,2.9,12.2c0,4.8-1,9-2.8,12.5
			s-4.3,6.3-7.4,8.4c-3.1,2.2-6.8,3.7-11,4.7c-4.2,1-8.6,1.5-13.2,1.5c-2.5,0-4.8-0.1-6.6-0.3s-3.7-0.4-5.5-0.7
			c-1.7-0.3-3.5-0.7-5.4-1.1c-1.8-0.4-3.8-1-6-1.4l1.7-16.1c3.1,1.6,6.5,3,10,4s7.1,1.5,10.7,1.5c1.7,0,3.5-0.3,5.5-0.7
			c2-0.4,3.7-1.1,5.2-2.1c1.5-1,2.9-2.2,4-3.6c1-1.5,1.5-3.2,1.5-5.2c0-2.9-1-5.1-2.9-6.8c-2-1.6-4.5-3.2-7.4-4.6
			c-2.9-1.3-6.2-2.6-9.7-3.8c-3.5-1.3-6.8-2.9-9.7-4.8c-2.9-1.9-5.5-4.6-7.4-7.6c-2-3-2.9-7.1-2.9-12.1c0-4.9,1-9.2,2.8-12.6
			c1.8-3.5,4.2-6.3,7.2-8.5c2.9-2.2,6.3-3.7,10.3-4.7c3.8-1,7.7-1.5,11.8-1.5c8,0,15.4,1.1,22,3.2L437.6,358.2z"/>
		<path id="SVGID_13_" class="st0" d="M639.6,391.8c-0.1-2.1-0.6-4-1.1-5.9c-0.6-1.9-1.4-3.6-2.5-4.9c-1.1-1.4-2.5-2.5-4.3-3.5
			c-1.7-0.8-3.8-1.3-6.3-1.3c-4.9,0-8.8,1.5-11.3,4.4c-2.5,2.9-4,6.6-4.3,11.1H639.6L639.6,391.8z M651.5,427.5
			c-3.2,1.6-6.8,3-10.6,3.8c-3.8,1-8,1.4-12.6,1.4c-11.3,0-19.9-3-26-9c-6.2-5.9-9.3-14.4-9.3-25.3c0-4.8,0.7-9.3,2-13.5
			c1.3-4.3,3.2-7.9,5.7-11.1c2.6-3.2,5.8-5.7,9.7-7.6c4-1.8,8.6-2.7,13.8-2.7c6.3,0,11.5,1,15.6,3c4.1,2.1,7.4,4.8,9.9,8.2
			c2.4,3.5,4.2,7.7,5.2,12.6c1,4.9,1.5,10.1,1.5,16h-46.7c0.4,5.4,2.4,9.5,5.7,12.4c3.5,2.9,7.9,4.3,13.5,4.3c4.2,0,8.3-0.7,12-1.9
			c3.7-1.4,7.2-2.9,10.6-4.7L651.5,427.5L651.5,427.5z"/>
		<path id="SVGID_17_" class="st0" d="M684.8,417.1h8.8c2.1,0,4.2-0.1,6.5-0.5c2.3-0.3,4.2-1,6-1.9c1.8-1,3.4-2.2,4.5-3.8
			s1.8-3.7,1.8-6.3c0-2.9-0.6-5.2-1.7-7c-1.1-1.8-2.5-3.2-4.3-4.1c-1.8-1-3.8-1.6-6-1.9c-2.3-0.3-4.5-0.4-6.8-0.4h-8.8L684.8,417.1
			L684.8,417.1z M684.8,377.9h7.4c2,0,4-0.1,5.9-0.4c2.1-0.3,4-0.8,5.7-1.6s3.1-1.9,4.1-3.3c1.1-1.4,1.7-3.3,1.7-5.7
			c0-2.6-0.6-4.6-1.5-6c-1-1.5-2.4-2.6-4.1-3.5c-1.7-0.8-3.7-1.3-5.7-1.4c-2.1-0.1-4.2-0.3-6.3-0.3h-7.1L684.8,377.9L684.8,377.9z
			 M666.5,341.8h32.1c2.9,0,6.2,0.3,9.6,0.8c3.4,0.5,6.6,1.6,9.6,3.3c2.9,1.6,5.5,4,7.4,7c2,3,2.9,7,2.9,11.8
			c0,5.4-1.7,9.8-4.9,13.3c-3.4,3.5-7.7,5.8-13.2,6.6v0.3c3.1,0.3,6,1,8.6,2.1c2.5,1.1,4.8,2.6,6.6,4.4c1.8,1.8,3.2,3.8,4.2,6.2
			s1.5,4.9,1.5,7.6c0,5.7-1.1,10.1-3.4,13.6c-2.3,3.5-5.1,6-8.5,7.9c-3.4,1.8-6.9,3-10.6,3.6c-3.7,0.5-7.1,1-9.9,1h-32.1
			L666.5,341.8L666.5,341.8z"/>
		<path id="SVGID_9_" class="st0" d="M522.3,365.2h16.6v9h0.3c2.8-3.8,6-6.6,9.7-8.1c3.7-1.5,7.9-2.4,12.5-2.4
			c4.1,0,7.4,0.7,10.4,1.9c2.9,1.4,5.2,3.2,7.2,5.5c1.8,2.4,3.2,5.1,4.1,8.2c0.9,3.2,1.3,6.6,1.3,10.3v41.7h-17.6v-35.2
			c0-2.1,0-4.1-0.1-6.5c-0.1-2.2-0.6-4.3-1.3-6c-0.7-1.8-1.8-3.5-3.4-4.7c-1.5-1.3-3.7-1.9-6.5-1.9c-3.1,0-5.7,0.7-7.7,2.2
			c-2,1.5-3.5,3.3-4.8,5.7c-1.1,2.2-2,4.6-2.4,7.1c-0.4,2.5-0.7,4.8-0.7,7v32.3h-17.6v-66.1H522.3z"/>
		<path id="SVGID_21_" class="st0" d="M754.8,404.8c0.6,2.7,1.4,5.1,2.6,7.3s2.9,4,5.2,5.4c2.3,1.4,4.9,2.1,8.3,2.1
			c3.4,0,6.2-0.7,8.5-1.9c2.3-1.4,4-3,5.2-5.2c1.3-2.2,2.1-4.7,2.6-7.4c0.6-2.7,0.9-5.5,0.9-8.2c0-2.6-0.3-5.1-1-7.4
			c-0.7-2.4-1.7-4.4-3.1-6.2c-1.4-1.8-3.2-3.3-5.4-4.4c-2.1-1.1-4.6-1.6-7.6-1.6s-5.4,0.5-7.4,1.6c-2.1,1.1-3.8,2.6-5.2,4.4
			s-2.4,4-3.1,6.3c-0.7,2.4-1,4.8-1,7.3C753.9,399.4,754.2,402.1,754.8,404.8z M738.3,384c1.8-4.3,4.2-7.9,7.4-11
			c3.2-3,6.9-5.4,11.3-6.9c4.2-1.6,8.9-2.5,13.9-2.5c4.9,0,9.7,0.8,14,2.5c4.3,1.6,8,4,11.3,6.9c3.2,3,5.7,6.6,7.4,11
			c1.8,4.3,2.6,9.2,2.6,14.7c0,4.8-0.9,9.2-2.4,13.3c-1.5,4.1-4,7.7-6.9,10.9c-2.9,3-6.8,5.5-11.1,7.3c-4.3,1.8-9.4,2.6-15.1,2.6
			s-10.6-0.8-14.9-2.6c-4.3-1.8-8-4.1-11.1-7.3c-2.9-3-5.4-6.8-6.9-10.9s-2.4-8.7-2.4-13.3C735.4,393.2,736.5,388.3,738.3,384z"/>
		<polygon id="SVGID_25_" class="st0" points="806.7,365.2 827.4,365.2 840.6,386.8 853.5,365.2 872.1,365.2 852,396.7 874.8,431.3 
			853.8,431.3 838.8,406.7 823.6,431.3 804.3,431.3 827.5,396.7 		"/>
		<path id="SVGID_5_" class="st0" d="M470.3,418.2c2.1,1.3,4.8,1.9,7.9,1.9c2.6,0,5.1-0.5,7.2-1.6c2.1-1.1,3.8-2.5,5.2-4.3
			c1.5-1.9,2.5-4,2.9-6.3c0.4-2.4,0.7-4.9,0.7-7.3h-7.6c-2,0-4.2,0.1-6.5,0.4s-4.3,0.8-6.3,1.5c-2,0.8-3.5,1.9-4.9,3.5
			c-1.3,1.5-2,3.6-2,6C467,415,468.1,417.1,470.3,418.2z M457.6,368.6c3.4-1.5,7.2-2.7,11.5-3.7c4.2-1,8.3-1.4,12-1.4
			c10.3,0,17.7,2.2,22.4,6.6c4.5,4.4,6.8,11.4,6.8,21.2v8.5v9c0,2.6,0.1,5.1,0.1,7.6c0.1,2.5,0.1,4.9,0.3,7.3
			c0.1,2.4,0.3,4.8,0.4,7.4h-15.5c-0.3-1.6-0.6-3.6-0.6-5.5s-0.1-3.5-0.1-4.4h-0.3c-1,1.8-2.4,3.5-4,4.8c-1.5,1.5-3.2,2.6-5.1,3.6
			c-1.8,1-3.8,1.6-5.7,2.2c-2.1,0.5-4.1,0.8-6,0.8c-2.9,0-5.9-0.4-8.8-1.3c-2.8-0.8-5.4-2.1-7.6-3.8c-2.3-1.6-4-3.7-5.4-6.2
			c-1.4-2.5-2-5.2-2-8.4c0-4.9,1.1-9,3.2-12c2.3-3,4.9-5.4,8.3-6.9c3.4-1.6,7.1-2.6,11.1-3.2c4.1-0.4,7.9-0.7,11.7-0.7h9.7
			c0-5.4-1.3-9-3.7-11.1c-2.4-2.1-6.3-3-11.5-3c-3.8,0-7.4,0.7-11,1.9c-3.5,1.3-6.9,3-9.9,5.2L457.6,368.6z"/>
	</g>
	<g>
		<path id="SVGID_41_" class="st0" d="M810.2,209.2c-14.3,17.7-32.7,34.4-64.6,41c-29.1,6-62.6-2-83.5-19.2
			c-5.3-4.5-4.5-8.9-2.5-11.7c3.1-3.7,7.6-2.9,10.9-1.2c28.3,16,48,19.5,73.8,15.5c22.4-3.5,44.7-20,55.1-31.5
			c3.9-4.3,7.5-5.7,10.9-2.9C813.7,201.7,813,205.7,810.2,209.2z M783.8,130.9l-10.9,23.9c-0.8,1.7-2.3,2.8-4.4,2.9l-59.5,6.5
			c-2,0.3-3.9-0.8-4.8-2.3l-14.5-21.3l-110.9,11.7l2.3,143.9l300.8-47.1l2.3-131.7L783.8,130.9z"/>
		<path id="SVGID_29_" class="st0" d="M691.9,130.5c2-0.3,3.9,0.8,4.8,2.3l14.5,21.2l53.1-6l10.9-23.9c0.8-1.7,2.3-2.8,4.1-2.9
			l81-10.4L653.6,63.4l0.5,71.1L691.9,130.5z"/>
		<polygon id="SVGID_33_" class="st0" points="379.9,207 570.6,294.6 568.6,151.8 375.9,89.2 		"/>
		<polygon id="SVGID_37_" class="st0" points="643.7,135.7 643.2,62.3 395.7,85 574.5,143.1 		"/>
	</g>
</g>
</svg>
