<?xml version="1.0" encoding="utf-8"?>
<!-- Generator: Adobe Illustrator 23.1.0, SVG Export Plug-In . SVG Version: 6.00 Build 0)  -->
<svg version="1.1" id="Слой_1" xmlns="http://www.w3.org/2000/svg" xmlns:xlink="http://www.w3.org/1999/xlink" x="0px" y="0px"
	 viewBox="0 0 1260 480" style="enable-background:new 0 0 1260 480;" xml:space="preserve">
<style type="text/css">
	.st0{stroke:#1D1D1B;stroke-width:0.3611;}
	.st1{fill:#E73137;}
	.st2{stroke:#000000;stroke-width:0.36;}
</style>
<g>
	<g>
		<path class="st0" d="M110.1,211.1c6.2-25.3,36.3-42,78.4-47.5l13-18.2c-64.9,1.7-113.5,22.6-122.1,58.2c-0.8,3.4-1.3,6.9-1.3,10.4
			c-0.4,19.7,11.1,40.5,31.3,60.1l13-18.2C111.3,240.9,106.6,225.4,110.1,211.1z"/>
		<path class="st0" d="M351.2,171.2l17.3,23.9c57.7,27.3,93.2,66.2,85.1,99.5c-6.3,26-38,42.8-81.9,47.8l-20.4,17.9
			c70.3,0.5,123.9-20.7,133-58.2C495.3,256.8,438,202.9,351.2,171.2z"/>
		<polygon class="st1" points="268.7,55.7 268.7,424.3 432.5,278.7 		"/>
		<path class="st2" d="M258.6,348.5c2.7,0.7,5.5,1.2,8.2,1.8V335c-1.6-0.4-3.1-0.6-4.7-1c-64.5-15.7-116.4-46.1-139.8-78l-13,18.2
			C141.1,305,194.6,332.9,258.6,348.5z"/>
		<path class="st0" d="M266.8,335v15.3c29.6,6.6,58.2,9.9,84.5,10l20.4-17.9C341.2,345.9,304.9,343.7,266.8,335z"/>
	</g>
	<g>
		<path class="st1" d="M614.6,258.6c-3-1.3-5.2-2.1-10-2.1h-22.9c-3.8,0-4.7,0.5-4.7,2.8v3.6c0,2.4,0.9,2.8,4.7,2.8h17.4
			c10.5,0,16.1,3.6,16.1,13v15.7c0,10.2-3.6,15.8-15.4,15.8h-44.4l-2.1-13.1c2.4,1.2,4.8,2.4,9.7,2.4h23.8c3.8,0,4.6-0.4,4.6-2.8
			v-4.4c0-2.3-0.8-2.8-4.6-2.8h-20.1c-9.8,0-13.6-3.2-13.6-14v-14.4c0-10.1,4.9-15.3,13.6-15.3h45.7L614.6,258.6z"/>
		<path class="st1" d="M658.6,310.4c1.2-2.5,2-4.9,2-11.1v-42.4c0-6.2-0.8-8.6-2-11.1h28.6c-1.2,2.5-2,4.9-2,11.1v42.4
			c0,6.2,0.8,8.6,2,11.1H658.6z"/>
		<path class="st1" d="M777.7,299.7c5.8,0,8.6-0.9,11.1-1.7l-2.2,12.4h-56.9c1.2-2.5,2-4.9,2-11.1v-42.4c0-6.2-0.8-8.6-2-11.1h55.9
			l2,12.4c-2.6-0.8-5.4-1.7-11.2-1.7h-20.1v15.1h17.5c5.6,0,8.5-0.9,11.1-1.7V284c-2.6-0.8-5.4-1.7-11.1-1.7h-17.5v17.3H777.7z"/>
		<path class="st1" d="M886.1,245.8h33c-1.3,2.5-2.1,4.9-2.1,11.1v42.4c0,6.2,0.8,8.6,2.1,11.1h-28.7c1.2-2.5,2-4.9,2-11.1v-39.7
			h-0.2l-17.8,50.8h-17L840,259.5h-0.2v39.2c0,7.3,0.3,8.6,2.4,11.6h-15.5c2.1-3,2.4-4.3,2.4-11.6v-41.3c0-7.3-0.3-8.6-2.4-11.6
			h33.9l12.3,36.6h0.2L886.1,245.8z"/>
		<path class="st1" d="M960.4,264.8c0-13.9,5.8-19,16.3-19h36.9c10.5,0,16.3,5,16.3,19v26.6c0,13.9-5.9,19-16.3,19h-36.9
			c-10.5,0-16.3-5-16.3-19V264.8z M985,295.5c0,3.1,1.6,4.1,4.8,4.1h10.7c3.2,0,4.8-1,4.8-4.1v-34.9c0-3.1-1.6-4.1-4.8-4.1h-10.7
			c-3.2,0-4.8,1-4.8,4.1V295.5z"/>
		<path class="st1" d="M1084.4,256.9h-0.2v41.9c0,7.3,0.3,8.6,2.4,11.6h-15.5c2.1-3,2.4-4.3,2.4-11.6v-41.3c0-7.3-0.3-8.6-2.4-11.6
			h34.6l26.2,52.6h0.3v-41c0-7.3-0.3-8.6-2.4-11.6h15.5c-2.1,3-2.4,4.3-2.4,11.6v52.9H1111L1084.4,256.9z"/>
	</g>
	<g>
		<path d="M1155.8,231.8v-2.1h10.6v2.1h-4.1v10.7h-2.5v-10.7H1155.8z M1172.1,229.7l3.2,9.2l3.1-9.2h3.6v12.9h-2.3v-10.4l-3.4,10.4
			h-2l-3.5-10.4v10.4h-2.3v-12.9H1172.1z"/>
	</g>
</g>
</svg>
