<?xml version="1.0" encoding="utf-8"?>
<!-- Generator: Adobe Illustrator 23.1.0, SVG Export Plug-In . SVG Version: 6.00 Build 0)  -->
<svg version="1.1" id="Слой_1" xmlns="http://www.w3.org/2000/svg" xmlns:xlink="http://www.w3.org/1999/xlink" x="0px" y="0px"
	 viewBox="0 0 1260 480" style="enable-background:new 0 0 1260 480;" xml:space="preserve">
<style type="text/css">
	.st0{fill:#005E9F;}
	.st1{fill-rule:evenodd;clip-rule:evenodd;fill:#32B8C3;}
</style>
<g>
	<path class="st0" d="M154,332.8c47.3,20.9,107,29.4,137.2-9.9c-12.1,10.3-52,28.8-124.9-8.5L154,332.8z M179,259.5
		c3.6,2,9.1,5,12.7,6.8l8.9-13.3c-3.6-2-9.1-5.2-12.5-7.3L179,259.5z M126.8,311.7l6.2-9.3c-3-1.8-5.8-3.6-8.7-5.4l-6.2,9.5
		C121,308.2,123.8,310,126.8,311.7L126.8,311.7z M127.3,267.1l3.8-5.4c-1.8-1-3.4-2-5-3.2l-3.8,5.6
		C124,265.1,125.6,266.1,127.3,267.1L127.3,267.1z M173.2,252.6l5.4-8.3c-2.6-1.4-5.2-3-7.7-4.4l-5.4,8.3
		C167.9,249.6,170.6,251.2,173.2,252.6L173.2,252.6z M143.6,280.4l6.6-9.9c-3-1.8-6-3.8-9.1-5.6l-6.8,9.9
		C137.5,276.8,140.5,278.6,143.6,280.4L143.6,280.4z M163.9,295.5l10.1-15.1c-4.8-2.6-9.5-5.2-13.9-8.1l-10.3,15.1
		C154.6,290.3,159.3,292.9,163.9,295.5L163.9,295.5z M171.4,301c5.2,2.8,11.7,5.8,17.3,8.3l12.1-17.9c-5.4-2.4-12.1-5.6-17.3-8.5
		L171.4,301z M131.9,319.1v0.2c4.8,2.8,9.7,5.4,14.9,8.1l10.3-15.3c-4.6-2.6-9.5-5.4-14.5-8.7L131.9,319.1z M198,273.2
		c33.8,17.3,72.3,28,107.2,10.7c16.3-8.1,30.8-28.4,31.4-52c-5,16.3-17.5,29.8-29.4,36.7c-28.6,16.5-66.1,3.2-96.9-13.9L198,273.2z
		 M195.3,312.5c2,0.8,4,1.6,6,2.2c75.3,27,113.6-5.2,119.7-37.1c-14.1,26.4-47.5,42.9-110.6,17.7c-0.8-0.4-1.8-0.8-2.8-1.2
		L195.3,312.5z"/>
	<path class="st1" d="M274.5,147.3c-47.1-21.2-106.8-29.4-137.2,9.7c12.3-10.3,52.2-28.6,125.1,8.7L274.5,147.3z M249.7,220.6
		c-3.6-2-9.1-5-12.7-6.8l-8.9,13.3c3.6,2,9.1,5.2,12.5,7.3L249.7,220.6z M301.9,168.2l-6.2,9.5c2.8,1.8,5.8,3.6,8.7,5.4l6.2-9.5
		C307.7,171.9,304.7,170.1,301.9,168.2L301.9,168.2z M301.3,212.8l-3.6,5.6c1.8,1,3.4,2,5,3l3.8-5.4
		C304.7,215,303.1,213.8,301.3,212.8L301.3,212.8z M255.6,227.5l-5.4,8.3c2.6,1.4,5,2.8,7.7,4.4l5.4-8.3
		C260.6,230.5,258.2,228.9,255.6,227.5L255.6,227.5z M285.2,199.7l-6.6,9.9c3,1.8,6,3.8,9.1,5.6l6.6-10.1
		C291.2,203.3,288.2,201.3,285.2,199.7L285.2,199.7z M264.8,184.6l-10.1,14.9c4.6,2.8,9.3,5.4,13.9,8.3l10.3-15.1
		C274.1,189.8,269.5,187.2,264.8,184.6L264.8,184.6z M257.4,179.1c-5.2-2.8-11.9-6-17.5-8.3L228,188.8c5.4,2.4,12.1,5.6,17.3,8.5
		L257.4,179.1z M296.9,161v-0.2c-4.8-2.8-9.9-5.4-15.1-8.1L271.7,168c4.6,2.6,9.5,5.4,14.5,8.7L296.9,161z M230.8,206.9
		c-33.8-17.3-72.3-28-107.4-10.7c-16.1,7.9-30.6,28.4-31.4,52c5-16.3,17.7-30,29.4-36.7c28.8-16.5,66.1-3.2,97.1,13.9L230.8,206.9z
		 M233.2,167.4c-1.8-0.6-3.8-1.4-5.8-2.2c-75.5-26.8-113.6,5.4-119.7,37.3c13.9-26.4,47.3-43.1,110.6-17.7c0.8,0.4,1.8,0.8,2.6,1.2
		L233.2,167.4z"/>
	<path class="st0" d="M884.2,189.5c-3.1,24.3-7,55.9-9.5,75c-1,7-3.3,15-10.5,19.9c-7.8,5.3-17.7,5.8-26.7,6h-44.4
		c-6-0.2-12.1-0.6-17.5-2.1s-10.1-4.7-11.9-9.5c-3.1-7.6-1-16.2-0.2-24.2c1.4-8,1.2-16.4,5.5-24c2.3-4.5,7-8.2,12.1-9.9
		c7.4-2.7,15.2-3.1,22.8-3.1c19.9,0,39.7,0,59.4,0c0.8-5.1,2.1-17.3,3.5-28H884.2z M1080.4,219.9c8-2.3,16-2.3,23.8-2.3
		c14.4,0,28.6,0,42.9,0c6,0.2,12.9,0.8,17.1,4.5c4.1,3.9,4.1,9.5,3.7,14.8c-0.6,4.7-1.2,9.3-1.8,14.2c-0.4,2.1-1,5.6-3.3,7.2
		c-2.5,1.6-5.6,1.4-8.6,1.4c-25.5,0-51,0-76.7,0c-0.4,4.1-1.4,7.4,0.2,11.3c1,2.5,3.7,4.3,6.6,5.1c3.9,1,8.2,1,12.5,1
		c18.1,0,36.2,0,54.5,0c1.4,0,2.7,0,4.1,0l-1.8,13.4h-63.5c-8.6-0.4-17.9-0.8-24.5-5.5c-5.1-3.5-6.6-9.7-6.4-15.6
		c0.2-6,1.2-12.3,1.9-18.3c1-7.4,1.4-15.2,6-22C1070.1,224.6,1075.1,221.5,1080.4,219.9L1080.4,219.9z M1083.1,234.7L1083.1,234.7
		c-3.7,4.1-3.5,8.4-4.3,13.1c22.6-0.2,45,0,67.6-0.2c1.4,0.2,2.9-1,2.9-2.3c0.6-3.1,1-5.3,1.2-8.4c0-2.3-1-4.9-3.5-5.8
		c-3.3-1.6-7.6-1.2-11.5-1.2c-12.5,0-24.9-0.2-37.4,0C1092.8,230.1,1086.8,230.7,1083.1,234.7L1083.1,234.7z M732.3,217L732.3,217
		h17.5l0,0c-2.1,16.4-6.4,49.7-9.3,73.4h-17.5C725.9,267.3,730.1,233.2,732.3,217L732.3,217z M577.6,221.1
		c7.8-3.1,16.2-3.5,24.2-3.5c23,0,46.2,0,69.2,0c7.2,0,14.6-0.2,21.6,1.2c5.3,1,10.7,3.1,13.8,7.2c3.7,4.9,3.7,11.5,3.1,17.5
		c-1.2,9.5-3.9,30-6,46.9h-17.5c1.9-15.6,4.5-34.9,5.6-43c0.2-3.5,0.6-7.6-1.2-10.7c-1-1.9-3.1-3.3-5.5-3.9
		c-4.1-1.4-8.8-1.2-13.2-1.2c-8.6,0-16.9,0-25.5,0c-1.6,12.9-4.9,38.4-7.6,58.8h-17.3c2.5-20.5,5.8-46,7.6-58.8
		c-10.1,0-20.1-0.2-30.2,0c-4.5,0.2-9.5,0.8-13.4,3.7c-3.7,2.9-4.9,7.4-5.5,11.5c-1.2,8.8-3.7,27.5-5.6,43.6h-17.5
		c2.1-16.2,4.5-34.9,5.6-43.6c0.6-5.5,1.6-11.1,4.5-16.4C569.1,226.4,572.9,223.1,577.6,221.1L577.6,221.1z M445.4,201
		c6.4-4.5,14.4-5.1,21.8-4.9c24,0,48.1,0,72.3,0c1.2,0,2.5,0,3.7,0l-1.8,15.4c-25.1,0-50.1,0-75,0c-2.9,0-6.4,0.2-8.8,2.3
		c-2.9,2.7-3.1,6.2-3.5,9.5c-0.4,3.3-1.4,6.8,0.6,9.7c1.6,2.1,5.1,2.7,8,2.7c19.3,0.2,38.6,0,57.9,0.2c4.9,0,10.1,0.4,14.2,2.5
		c4.3,2.1,7,5.6,8.2,9.9c1.6,6-0.2,12.5-0.8,18.9c-0.6,5.8-2.5,12.3-7.8,16.6c-5.5,4.7-13.1,6.2-19.9,6.4H430l1.8-15.4
		c1.6,0,2.9,0,4.3,0c25.1,0,50.5,0,75.6,0c3.1,0,6.8-0.4,9.2-2.9c2.7-2.7,2.7-6.6,3.3-9.9c0.2-3.3,1.2-7-0.6-9.7
		c-1.6-2.3-4.9-2.9-8-2.9c-19.3,0-38.6,0-57.9,0c-6.8,0-13.8-1.2-18.3-5.6c-4.3-4.1-5.1-10.5-4.5-16.4l1.4-11.1
		C437.2,210.8,439.9,204.7,445.4,201L445.4,201z M753.3,189.5c-0.6,3.3-1.4,10.3-1.8,13.2H734l1.8-13.2H753.3z M1052.5,189.5
		c-3.3,25.5-9,69.9-12.9,100.7h-17.5c3.9-30.8,9.5-75.2,12.9-100.7H1052.5z M1015.1,189.5c-2.9,23.4-6.8,53.8-9.5,75
		c-1,7-3.3,15-10.5,19.9c-8,5.3-17.7,5.8-26.9,6h-44.4c-5.3-0.2-10.5-0.4-15.4-1.6c-6-1.4-11.9-4.7-14-10.1
		c-2.9-7.6-0.8-16.2,0-24.2c1.2-7.8,1.2-15.6,4.9-23c2.3-4.7,6.6-8.6,11.9-10.5c7.2-3.1,15.2-3.3,22.8-3.5c20.1,0,40.1,0,60.2,0
		c0.8-6.2,2.3-18.5,3.5-28H1015.1z M919.3,234L919.3,234c-4.1,2.5-5.5,7.2-6.2,11.1c-0.8,5.5-1.4,10.7-1.9,16
		c-0.6,4.1-0.8,8.8,2.1,12.1c3.3,3.3,8.8,3.7,13.8,3.9c12.1,0,24,0,36,0c4.7,0,9.2,0.2,13.8-0.8c3.1-0.8,6-2.1,8-4.7
		c2.3-2.9,3.1-6.6,3.5-9.9c1.4-10.3,2.7-20.5,4.1-30.8c-19.7,0.2-39.3,0-59,0C928.8,231,923.6,231.2,919.3,234L919.3,234z
		 M788.6,233.8L788.6,233.8c-4.3,2.7-5.6,7.4-6.4,11.5c-0.8,5.5-1.4,10.9-1.9,16.4c-0.4,4.1-0.6,8.8,2.5,11.9
		c3.3,2.9,8.6,3.3,13.4,3.5c13.8,0,27.5,0,41.3,0c5.1-0.2,10.7-0.4,15-3.7c3.7-3.3,4.7-8,5.3-12.3c1.4-10.1,2.5-20.1,3.9-30.2
		c-19.7,0.2-39.3,0-59,0C797.9,231,792.7,231.2,788.6,233.8L788.6,233.8z"/>
</g>
</svg>
