<?xml version="1.0" encoding="utf-8"?>
<!-- Generator: Adobe Illustrator 23.1.0, SVG Export Plug-In . SVG Version: 6.00 Build 0)  -->
<svg version="1.1" id="Слой_1" xmlns="http://www.w3.org/2000/svg" xmlns:xlink="http://www.w3.org/1999/xlink" x="0px" y="0px"
	 viewBox="0 0 1260 480" style="enable-background:new 0 0 1260 480;" xml:space="preserve">
<style type="text/css">
	.st0{fill:#0071AC;}
</style>
<g>
	<path class="st0" d="M625.3,302.2c-12,12-32,18.7-69.3,18.7s-57.4-7.2-69.3-18.7C468.9,285,467.4,251,467.4,240
		c0-30.1,6.2-49.7,15.8-61.2c12-14.4,28.7-19.6,72.7-19.6c43.5,0,60.7,5.7,72.7,19.6c10,11.5,15.8,31.1,15.8,61.2
		C644.4,251,643,285,625.3,302.2 M667.8,162.5c-10-12-19.1-17.7-32.5-23c-13.9-5.3-37.8-11-78.9-11c-41.1,0-65,5.3-78.9,11
		c-13.9,5.3-22.5,11-32.5,23c-10.5,12.4-21.5,35.4-21.5,78.4c0,45,12.4,67,23.4,78.4c6.2,6.7,19.1,15.8,30.1,20.6
		c14.8,5.7,39.7,12,79.9,12s65-6.2,79.9-12c11-4.3,23.9-13.4,30.1-20.6c10.5-11.5,23.4-33.5,23.4-78.4
		C689.4,197.9,677.9,175,667.8,162.5"/>
	<path class="st0" d="M867.3,339.5c0,4.3-2.9,6.2-7.2,6.2h-27.7c-4.3,0-6.7-1.9-6.7-6.2v-175c0-1.4-0.5-2.4-2.4-2.4h-91.8
		c-5.7,0-8.1-2.4-8.1-7.7V141c0-5.7,2.4-8.1,7.6-8.1H961c5.7,0,7.7,2.4,7.7,8.1v13.4c0,5.7-2.4,7.7-7.7,7.7h-91.8
		c-1.4,0-2.4,0.5-2.4,2.4v175H867.3z"/>
	<path class="st0" d="M1032.3,339.5c0,4.8,2.4,7.7,7.2,7.7h26.3c4.8,0,7.2-2.4,7.2-7.7V140c0-4.8-2.4-7.7-7.2-7.7h-26.3
		c-4.8,0-7.2,2.4-7.2,7.7V339.5z"/>
	<path class="st0" d="M347.4,328c14.3-12.9,17.2-30.6,17.2-44.5c0-15.3-5.3-30.1-15.3-39.7c-9.1-9.1-20.1-15.8-47.3-20.1
		c-37.3-5.7-94.7-12-104.7-14.8c-12.9-3.4-22-8.6-23-21.5c0-1.4,0.5-2.9,1-4.8c1.9-7.2,6.7-14.8,21-19.1c12.4-3.8,28.7-5.3,54-5.3
		c29.2,0,48.3,1.4,85.6,7.2c5.3,1,5.7-3.8,6.2-6.7c1-3.3,1.4-9.6,1.9-12.9c0.5-6.2-0.5-7.7-5.3-9.1c-8.1-2.4-46.9-8.6-91.8-8.6
		c-63.1,0-85.6,10-94.7,16.3c-12,7.7-20.1,19.6-22.5,36.4c-1.4,11.5-0.5,22.5,3.8,31.6c4.8,10.5,12,19.1,34.4,28.2
		c26.3,10.5,111,17.2,124.3,20.1c22,5.3,25.4,14.8,26.3,24.9c0.5,4.8,1,15.3-12.4,23.9c-15.3,9.6-48.8,12.4-64.1,12
		c0,0-27.3,0-54-2.9c-26.3-2.9-43.5-5.3-46.9-5.3c-4.3,0-6.2,1.4-7.2,7.2c-0.5,3.3-1,7.7-1.4,12.4c-0.5,7.7,1,9.6,12.4,11.5
		c24.4,4.3,61.7,7.7,94.7,7.7C260.4,351.4,321.1,351.9,347.4,328"/>
	<path class="st0" d="M1126.5,330.9c1.9,0,2.9-1,2.9-2.4c0-1.4-1-2.4-2.9-2.4h-3.3v4.8H1126.5z M1119.3,324.7c0-1,1-1.9,1.9-1.9h5.3
		c2.4,0,3.8,0.5,5.3,1.9c1,1,1.4,1.9,1.4,3.3c0,2.4-1.4,4.3-3.4,4.8l2.9,3.4c0.5,0.5,0.5,1,0.5,1.4c0,1-1,1.9-1.4,1.9
		c-1,0-1,0-1.4-1l-3.8-4.8h-2.9v3.8c0,1-1,1.9-1.9,1.9s-1.9-1-1.9-1.9v-12.9H1119.3z M1138.9,331.8L1138.9,331.8
		c0-7.7-5.7-13.9-13.4-13.9s-13.4,6.2-13.4,13.9c0,7.7,5.7,13.4,13.4,13.4S1138.9,339,1138.9,331.8 M1110.2,331.8L1110.2,331.8
		c0-8.6,6.7-15.3,15.3-15.3c8.6,0,15.3,6.7,15.3,15.3c0,8.1-6.7,15.3-15.3,15.3C1116.9,347.1,1110.2,340,1110.2,331.8"/>
</g>
</svg>
