<?xml version="1.0" encoding="utf-8"?>
<!-- Generator: Adobe Illustrator 23.1.0, SVG Export Plug-In . SVG Version: 6.00 Build 0)  -->
<svg version="1.1" id="Слой_1" xmlns="http://www.w3.org/2000/svg" xmlns:xlink="http://www.w3.org/1999/xlink" x="0px" y="0px"
	 viewBox="0 0 1260 480" style="enable-background:new 0 0 1260 480;" xml:space="preserve">
<style type="text/css">
	.st0{fill:#0274BD;}
</style>
<g>
	<g>
		<g>
			<path class="st0" d="M144.7,319.1v49.3h-11.4v-20.2h-19.6v20.2h-11.4v-49.3h11.4v19.1h19.6v-19.1H144.7z"/>
			<path class="st0" d="M182.5,319.1l10.6,21.8l10.8-21.8h12.4l-17.6,32.5v16.8h-11.3v-16.9l-17.3-32.3H182.5z"/>
			<path class="st0" d="M241.7,368.4v-49.3h21c2.4,0,4.5,0.5,6.5,1.4s3.7,2.2,5.1,3.8c1.4,1.6,2.5,3.4,3.3,5.4c0.8,2,1.2,4,1.2,6.1
				c0,2.8-0.7,5.5-2,8c-1.3,2.5-3.1,4.6-5.5,6.2c-2.3,1.6-5.1,2.4-8.3,2.4h-10v15.9L241.7,368.4L241.7,368.4z M253.1,342.6h9.3
				c0.9,0,1.7-0.3,2.4-0.8c0.7-0.5,1.3-1.3,1.8-2.3c0.5-1,0.7-2.3,0.7-3.7c0-1.5-0.3-2.8-0.8-3.8c-0.5-1-1.2-1.7-2-2.2
				c-0.8-0.5-1.7-0.7-2.5-0.7h-8.9L253.1,342.6L253.1,342.6z"/>
			<path class="st0" d="M340.4,358.4v10h-34.6v-49.3h34v10h-22.6v9.6h19.4v9.2h-19.4v10.5L340.4,358.4L340.4,358.4z"/>
			<path class="st0" d="M368.1,368.4v-49.3h22.2c2.3,0,4.5,0.5,6.4,1.4c2,0.9,3.7,2.2,5.1,3.8c1.4,1.6,2.6,3.4,3.4,5.4
				c0.8,2,1.2,4,1.2,6c0,2-0.3,4-1,5.8c-0.7,1.8-1.6,3.5-2.8,4.9c-1.2,1.5-2.6,2.6-4.3,3.6l10.8,18.3h-12.6l-9.4-15.9h-7.7v15.9
				L368.1,368.4L368.1,368.4z M379.5,342.6h10.4c0.9,0,1.7-0.3,2.5-0.9c0.7-0.6,1.3-1.4,1.8-2.4c0.5-1,0.7-2.2,0.7-3.5
				c0-1.3-0.3-2.5-0.8-3.5c-0.5-1-1.2-1.8-2-2.3c-0.8-0.6-1.6-0.8-2.5-0.8h-10.1L379.5,342.6L379.5,342.6z"/>
			<path class="st0" d="M432.1,343.3c0-3,0.6-6,1.7-8.8c1.1-2.9,2.7-5.5,4.9-7.9c2.1-2.4,4.7-4.2,7.8-5.7c3.1-1.4,6.5-2.1,10.4-2.1
				c4.6,0,8.6,1,12,3c3.4,2,5.9,4.6,7.6,7.8l-8.7,6.1c-0.7-1.8-1.7-3.1-2.9-4.1c-1.2-1-2.6-1.7-4-2s-2.9-0.6-4.2-0.6
				c-2.2,0-4.1,0.4-5.7,1.3c-1.6,0.9-3,2-4,3.4c-1.1,1.4-1.8,3-2.4,4.8c-0.5,1.8-0.8,3.5-0.8,5.3c0,1.9,0.3,3.8,0.9,5.6
				c0.6,1.8,1.5,3.4,2.6,4.8c1.1,1.4,2.5,2.5,4.1,3.3c1.6,0.8,3.4,1.2,5.3,1.2c1.4,0,2.8-0.2,4.2-0.7c1.4-0.5,2.8-1.2,4-2.2
				c1.2-1,2.2-2.3,2.8-3.9l9.3,5.5c-1,2.4-2.6,4.5-4.8,6.2c-2.2,1.7-4.7,3-7.5,3.9s-5.6,1.4-8.3,1.4c-3.6,0-6.8-0.7-9.8-2.2
				s-5.5-3.4-7.7-5.8c-2.1-2.4-3.8-5.2-5-8.2C432.7,349.5,432.1,346.4,432.1,343.3z"/>
			<path class="st0" d="M524.4,368.7c-3.7,0-7-0.7-10-2.1c-3-1.4-5.5-3.3-7.7-5.7c-2.1-2.4-3.8-5.1-5-8c-1.2-3-1.7-6.1-1.7-9.3
				c0-3.3,0.6-6.4,1.8-9.4c1.2-3,2.9-5.6,5.1-7.9c2.2-2.3,4.8-4.2,7.8-5.5c3-1.3,6.3-2,9.9-2c3.6,0,7,0.7,10,2.1
				c3,1.4,5.6,3.3,7.7,5.7c2.2,2.4,3.8,5.1,5,8.1s1.7,6,1.7,9.1c0,3.3-0.6,6.4-1.8,9.4c-1.2,3-2.9,5.6-5.1,7.9
				c-2.2,2.3-4.8,4.2-7.8,5.6C531.2,368,528,368.7,524.4,368.7z M511.6,343.7c0,1.9,0.3,3.7,0.8,5.5c0.6,1.8,1.4,3.4,2.5,4.8
				c1.1,1.4,2.4,2.5,4.1,3.3s3.5,1.3,5.6,1.3c2.2,0,4.1-0.4,5.7-1.3c1.6-0.9,3-2,4-3.4c1.1-1.4,1.9-3,2.4-4.8
				c0.5-1.8,0.8-3.6,0.8-5.4c0-1.9-0.3-3.7-0.8-5.5c-0.6-1.8-1.4-3.3-2.5-4.8c-1.1-1.4-2.5-2.5-4.1-3.3c-1.6-0.8-3.4-1.2-5.5-1.2
				c-2.2,0-4.1,0.4-5.7,1.2c-1.6,0.8-2.9,2-4,3.4c-1.1,1.4-1.9,3-2.4,4.8C511.8,340.1,511.6,341.9,511.6,343.7z"/>
			<path class="st0" d="M587.7,340.2v28.2h-11.4v-49.3h9l22.8,29v-29h11.4v49.3h-9.3L587.7,340.2z"/>
			<path class="st0" d="M657,319.1l11.6,35.9l11.4-35.9h12l-17.9,49.3h-11.2l-18-49.3L657,319.1L657,319.1z"/>
			<path class="st0" d="M752,358.4v10h-34.6v-49.3h34v10h-22.6v9.6h19.4v9.2h-19.4v10.5L752,358.4L752,358.4z"/>
			<path class="st0" d="M779.8,368.4v-49.3h22.2c2.3,0,4.5,0.5,6.4,1.4s3.7,2.2,5.1,3.8c1.4,1.6,2.6,3.4,3.4,5.4c0.8,2,1.2,4,1.2,6
				c0,2-0.3,4-1,5.8c-0.7,1.8-1.6,3.5-2.8,4.9c-1.2,1.5-2.6,2.6-4.3,3.6l10.8,18.3h-12.6l-9.4-15.9h-7.7v15.9L779.8,368.4
				L779.8,368.4z M791.1,342.6h10.4c0.9,0,1.7-0.3,2.5-0.9c0.7-0.6,1.3-1.4,1.8-2.4c0.5-1,0.7-2.2,0.7-3.5c0-1.3-0.3-2.5-0.8-3.5
				c-0.5-1-1.2-1.8-2-2.3c-0.8-0.6-1.6-0.8-2.5-0.8h-10.1L791.1,342.6L791.1,342.6z"/>
			<path class="st0" d="M867.5,368.7c-3.2,0-6.3-0.6-9.2-1.8c-2.9-1.2-5.4-3-7.6-5.2c-2.2-2.2-3.9-4.9-5.1-8
				c-1.2-3.1-1.8-6.5-1.8-10.3c0-3.4,0.6-6.6,1.9-9.6c1.2-3,3-5.6,5.2-7.8c2.2-2.3,4.8-4,7.8-5.3c3-1.3,6.2-1.9,9.7-1.9
				c4.5,0,8.5,1,12,2.9c3.5,1.9,6,4.6,7.7,7.8l-8.5,6.4c-1.1-2.2-2.7-3.9-4.8-5.1c-2.1-1.3-4.4-1.9-6.8-1.9c-1.8,0-3.5,0.4-5.1,1.1
				c-1.5,0.8-2.9,1.8-4,3.2c-1.1,1.4-2,2.9-2.6,4.8c-0.6,1.8-0.9,3.7-0.9,5.8c0,2.1,0.3,4.1,1,5.9c0.6,1.8,1.5,3.4,2.7,4.7
				c1.2,1.3,2.5,2.3,4.1,3.1c1.6,0.7,3.4,1.1,5.3,1.1c2.4,0,4.6-0.6,6.8-1.8c2.1-1.2,4.1-2.9,5.9-5.2v11.2
				C877.2,366.8,872.7,368.7,867.5,368.7z M880.5,350.9h-9.6v-8.3h19v25.7h-9.4V350.9L880.5,350.9z"/>
			<path class="st0" d="M952.8,358.4v10h-34.6v-49.3h34v10h-22.6v9.6H949v9.2h-19.4v10.5L952.8,358.4L952.8,358.4z"/>
			<path class="st0" d="M992,340.2v28.2h-11.4v-49.3h9l22.8,29v-29h11.4v49.3h-9.3L992,340.2z"/>
			<path class="st0" d="M1051.2,343.3c0-3,0.6-6,1.7-8.8c1.1-2.9,2.7-5.5,4.9-7.9c2.1-2.4,4.7-4.2,7.8-5.7c3.1-1.4,6.5-2.1,10.4-2.1
				c4.6,0,8.6,1,12,3c3.4,2,5.9,4.6,7.6,7.8l-8.7,6.1c-0.7-1.8-1.7-3.1-2.9-4.1c-1.2-1-2.6-1.7-4-2c-1.5-0.4-2.9-0.6-4.2-0.6
				c-2.2,0-4.1,0.4-5.7,1.3c-1.6,0.9-3,2-4,3.4c-1.1,1.4-1.8,3-2.4,4.8c-0.5,1.8-0.8,3.5-0.8,5.3c0,1.9,0.3,3.8,0.9,5.6
				c0.6,1.8,1.5,3.4,2.6,4.8c1.1,1.4,2.5,2.5,4.1,3.3c1.6,0.8,3.4,1.2,5.3,1.2c1.4,0,2.8-0.2,4.2-0.7c1.4-0.5,2.8-1.2,4-2.2
				c1.2-1,2.2-2.3,2.8-3.9l9.3,5.5c-1,2.4-2.6,4.5-4.8,6.2c-2.2,1.7-4.7,3-7.5,3.9c-2.8,0.9-5.6,1.4-8.3,1.4c-3.6,0-6.8-0.7-9.8-2.2
				s-5.5-3.4-7.7-5.8c-2.1-2.4-3.8-5.2-5-8.2C1051.8,349.5,1051.2,346.4,1051.2,343.3z"/>
			<path class="st0" d="M1157.2,358.4v10h-34.6v-49.3h34v10h-22.6v9.6h19.4v9.2h-19.4v10.5L1157.2,358.4L1157.2,358.4z"/>
		</g>
	</g>
	<g>
		<g>
			<path class="st0" d="M209.1,240c-3.3,3.3-18.6,13.2-36.7,16.4c-4.8,1-9.6,1.7-14.5,2.2c-4.8,0.5-9.6,0.7-14.5,0.7
				c-9.4,0-17.6-0.7-24.6-2.4c-7.2-1.2-13-3.4-17.4-6.3c-5.9-3.9-20.5-13.8-17-40.2c0.2-1.7,0.9-6.6,0.9-6.6h49c0,0-5.8,12.1,3.1,19
				c3,2.3,7.7,4.3,15.5,4.3c19.1,0.1,23.4-8.1,23.8-11.3c0.5-3.8-1.3-7.5-4.8-8.9c-1.8-0.7-7.5-2.4-7.5-2.4l-13.3-3.6l-9.6-2.2
				c-5.5-1-10.8-2.4-15.7-4.1c-4.8-1.7-9.6-4.1-14.2-7c-6.5-4.3-9.6-11.1-9.6-20.3l0.2-5.8l1.2-7c3.4-15,16-27.6,25.6-32.8
				c16.3-8.9,41.4-10.6,53.5-10.6c17.5,0,33.3,3.4,41,10.1c3.6,3.1,6.5,6.8,8.9,10.8c2.2,3.9,3.1,8,3.1,12.3l-0.2,5.5l-1.7,10.6
				h-46.1c0,0,3.9-6.3-2.4-12.5c-1.8-1.8-7.2-3.9-14.2-3.9c-6.3,0-11.1,1.2-14.7,3.4c-2.4,1.2-5.1,3.7-5.5,7.7
				c-0.4,3.2,1.6,8,22.9,10.6c1.9,0.2,17.1,2.9,23.2,4.8c5.8,1.9,11.8,4.3,17.6,7.5c8.7,4.3,13.1,11.6,13,21.9
				C227.4,208.6,225.9,223.2,209.1,240z"/>
			<path class="st0" d="M308.4,255l-19.5,2.4c-2.2,0.2-4.6,0.5-7.5,0.7s-5.3,0.2-7.5,0.2c-11.3,0-19.3-2.6-23.9-7.7
				c-2.4-3.1-3.6-7.5-3.6-13.3v-3.1c0-1,0-1.7,0.2-2.6c0-0.7,0.2-1.7,0.5-3.1c0-0.7,0.2-1.4,0.7-2.9l11.3-46.5h-19.3l6.8-28h19
				l7-28.2h44.4l-7.2,28.7h22.9l-6.5,28h-22.9l-9.9,41.7l-0.2,2.2c0,1.2,0.5,2.4,1.4,3.6c0.7,1.2,1.7,1.9,3.4,2.4l5.1-0.2
				c1.2-0.2,2.4-0.7,3.4-1.4h8.2L308.4,255z"/>
			<path class="st0" d="M576.1,184.8l-4.3-1.2l-5.3-1c-10.2-1.3-16.4,0-25.3,5.5c-5.8,3.9-10.4,12.1-13.7,24.6l-10.1,42.9h-43.4
				l24.4-102.5h42.7l-1.4,6c1.2-1,2.6-1.7,4.3-2.4c1.4-0.7,14.2-5.1,29.2-5.1H584L576.1,184.8z"/>
			<polygon class="st0" points="829.5,114.9 752.1,255.7 703.4,255.7 701.2,176.8 661.2,255.7 612.5,255.7 602.6,114.9 653.5,114.9 
				654.7,191.8 694.5,114.9 737.7,114.9 740.3,191.6 777.9,114.9 			"/>
			<path class="st0" d="M998.1,255.7h-44.6l14-58.8c0,0,0.9-5.6,1.2-7.5c0.3-2.1,0.3-8.9-10.4-8.9c-5.4,0-9.4,1.7-12.5,4.8
				c-3.4,3.4-5.5,7.7-7,13.3L925,255.9h-44.6l24.4-102.7h43.6l-1.2,4.6c0,0,11.8-7.4,28-7.5c45.8-0.1,39.7,32.8,37.6,42.2
				C1009.3,208.3,998.1,255.7,998.1,255.7z"/>
			<path class="st0" d="M1142.8,256.2h-43.2l1.4-5.8c-5.5,2.9-11.3,5.1-17.1,6.5c-13.6,2.6-29.3,3.9-41-2.2
				c-5.1-2.9-9.2-7.2-12.5-13c-4.1-7-5.8-14.7-5.8-22.9c0-4.8,0.7-10.6,2.2-17.4s3.9-13.3,7.5-19.3c3.6-6.3,8.4-12.1,14.2-17.6
				c12.1-11.3,33.1-23.5,66.3-14c1.8,0.5,7,3.1,7,3.1l9.4-39.1h44.9L1142.8,256.2z M1111.9,203.6c0.7-3.6,1.2-6.8,1.2-9.4v-1.9v-1.4
				l-0.5-1.4c0-1.4-0.5-3.1-1.7-5.1c-2.4-4.8-6.8-7.2-12.8-7.2c-5.5,0-10.6,2.4-15,7.5c-2.4,2.4-4.1,5.3-5.8,8.4
				c-1.7,3.1-3.1,6.8-4.3,10.8l-1.2,6l-0.5,4.6c0,3.4,0.7,6.5,2.6,9.2c2.4,4.3,6.5,6.5,12.3,6.5c4.6,0,9.6-2.2,14.7-6.5
				c2.4-1.9,4.6-4.6,6.5-8.2l2.9-6.8L1111.9,203.6z"/>
			<path class="st0" d="M833.1,151l-7.7,32.1c17.8-0.2,35.2-6.3,50.6-16.2l3.9-16.4h-46.8V151z M820.6,205.5l-11.8,50.6h46.8
				l18.1-78.4c-11.8,10.1-25.6,18.1-40,23.4C829.5,202.6,824.9,204.6,820.6,205.5z"/>
			<path class="st0" d="M463.7,171.3c-1.7-5.3-5.5-9.9-12.1-14.2c-3.6-2.4-8.4-3.9-13.7-4.6c-2.4-0.5-5.3-1-8.7-1.2
				c-3.4-0.2-7.5-0.5-12.1-0.5c-4.3,0-8.7,0.2-12.5,0.7c-4.1,0.5-8.2,1.2-12.1,2.2c-8,1.9-14,4.3-18.1,7c-6.8,4.3-11.8,8.7-15,13.3
				c-3.1,4.6-5.3,9.2-6.3,14h42.2c0.7-2.6,1.7-4.8,2.6-6c4.7-6.6,23.1-7,23.2,2.2c-0.3,3.3-2.5,6.8-5.3,7.2l-6.8,1l-23.2,3.1
				c-10.4,1.9-18.6,3.9-24.6,5.8c-12.3,4.6-19.8,13.7-22.7,27.2c-0.8,4.4-1.2,10.1,0.2,14.5c1.7,4.1,4.8,8,9.9,11.1
				c4.8,3.4,13,5.1,24.1,5.1c7.4-0.3,17.8-0.9,24.8-3.1c2.7-0.9,10.6-4.3,10.6-4.3l0.7,5.3h51.4l-4.1-3.1c-3.1-2.6-4.8-4.8-5.3-6.8
				l-0.5-3.6l0.2-2.4l1.7-8.7l10.4-42.9l1.7-8C465.1,178.4,464.8,174.2,463.7,171.3z M415.7,216.9c-0.7,1.7-1.4,3.4-2.2,4.8
				c-1.9,3.1-3.6,5.5-5.1,7c-3.6,3.4-7.2,5.5-10.8,6.5c-15.8,5.5-21.6-10.5-10.6-17.1c7.8-4.7,16.6-4.6,24.4-5.5l5.8-1.4
				C416.9,213.3,416.2,215.2,415.7,216.9z"/>
		</g>
	</g>
</g>
</svg>
