<?xml version="1.0" encoding="utf-8"?>
<!-- Generator: Adobe Illustrator 23.1.0, SVG Export Plug-In . SVG Version: 6.00 Build 0)  -->
<svg version="1.1" id="Слой_1" xmlns="http://www.w3.org/2000/svg" xmlns:xlink="http://www.w3.org/1999/xlink" x="0px" y="0px"
	 viewBox="0 0 1260 480" style="enable-background:new 0 0 1260 480;" xml:space="preserve">
<style type="text/css">
	.st0{fill:#F2BA1B;}
</style>
<g>
	<path d="M418.3,292.5c-23.7,0-38.8-9-45.7-14.4l-0.7-0.5l0.5-0.8l9.9-15.5l0.6-0.9l0.9,0.6c5.7,4.2,17.8,11.3,34.2,11.3
		c14.1,0,22.2-6.1,22.2-16.8c0-11.7-9.5-15.1-26.8-21.1l-2-0.7c-17.3-6-33.3-14.8-33.3-38.3c0-21.1,16.2-34.7,41.4-34.7
		c14.9,0,26.5,2.7,36.4,8.6l0.8,0.5l-0.4,0.8l-7.9,16.3l-0.4,0.9l-0.9-0.5c-8.5-4.3-17.6-6.5-27.2-6.5c-9,0-19.7,2.5-19.7,14.1
		c0,11.4,8.4,14.2,25.2,19.7c18.2,5.9,37.7,14.5,37.7,40.6C463,278.6,446.3,292.5,418.3,292.5"/>
	<path d="M480.8,324.3c-4.3,0-8.4-0.5-13.3-1.6l-0.9-0.2l0.1-0.9l2.3-15.3l0.1-1l1,0.1l1.5,0.2c2.3,0.3,4.2,0.5,6.8,0.5
		c8.8,0,14.4-3.3,18.2-10.7l-32.9-96.7l-0.4-1.3h1.4h22.3h0.7l0.2,0.7l19.1,68.4l17.1-68.3l0.2-0.7h0.8h21h1.3l-0.4,1.3l-29.3,95.7
		C511.5,314.8,499.8,324.3,480.8,324.3"/>
	<path d="M681.4,290.9h-1h-21.6h-1v-1v-61.6c0-7.8-1.6-13-9.4-13c-5.4,0-11.7,3.2-18.2,9.3v65.3v1h-1h-21.5h-1v-1v-61.6
		c0-7.8-1.6-13-9.4-13c-5.7,0-12.4,3.5-18.2,9.7v65v1h-1h-21.5h-1v-1v-91.6v-1h1h13.1h0.7l0.2,0.7l4.2,12.7
		c9.7-10.4,19.6-15.4,30.1-15.4c13.3,0,18.8,7.3,21.9,14.1c6.6-6.7,16.7-14.1,29.3-14.1c21,0,25.4,18,25.4,33.1v61.4V290.9z"/>
	<path d="M722,292.5c-17.3,0-29.4-11.1-29.4-27c0-10.2,3.6-17.4,11.2-22.6c7.8-5.3,20.8-9.2,40.7-12.1v-2.4
		c0-10.3-3.7-14.1-13.7-14.1c-8.6,0-17.2,3.6-25.2,7.5l-0.9,0.4l-0.4-0.9l-7.5-14.2l-0.4-0.8l0.8-0.5c11.9-7.3,22.9-10.6,35.7-10.6
		c23.1,0,35.3,11.9,35.3,34.6v60v1h-1H754h-0.7l-0.3-0.6l-3.9-9.1C743.3,286.6,734.1,292.5,722,292.5 M744.6,246.6
		c-15.4,3-23,5.8-26.1,9.6c-1.9,2.2-2.5,4-2.5,7.8c0,7,3.7,10.7,10.8,10.7c5.9,0,12.4-2.5,17.7-6.7V246.6z"/>
	<path d="M865,290.9h-1h-21.5h-1v-1v-61.6c0-9.1-3.2-13-10.7-13c-6.3,0-13.6,3.8-19.3,9.8v64.8v1h-1H789h-1v-1v-91.6v-1h1h13.1h0.7
		l0.2,0.7l4.1,12.9c9.7-10.5,19.9-15.6,31.2-15.6c17.7,0,26.7,11.2,26.7,33.1v61.4V290.9z"/>
	<path d="M914.1,292.5c-18.4,0-27.4-9.1-27.4-27.9v-50.4h-12.7h-1v-1v-14.9v-1h1h13.2l4.2-25.4l0.1-0.8h0.8h16.9h1v1v25.2H929h1v1
		v14.9v1h-1h-18.8v49.1c0,8,1.4,10.9,9.1,10.9c2.3,0,6-0.7,9.6-1.8l1.1-0.3l0.2,1.1l2.7,14.9l0.1,0.8l-0.7,0.3
		C929.9,290.2,923.2,292.5,914.1,292.5"/>
	<path d="M979.1,292.5c-26.2,0-42.5-18.3-42.5-47.9c0-30,16-49.3,40.9-49.3c25.2,0,39.6,18,39.6,49.5v5.6v1h-1H961
		c1.3,15.1,7.4,21.9,19.8,21.9c10.1,0,16.8-3.8,23.9-8.3l0.8-0.5l0.5,0.8l8.6,13.5l0.5,0.8l-0.7,0.6
		C1005.6,286.9,996.9,292.5,979.1,292.5 M961.2,235.9H993c-0.5-15.5-5.6-23-15.5-23C967.8,213,962.5,220.5,961.2,235.9"/>
	<path d="M1069.3,292.5c-31.2,0-42.3-24.7-42.3-47.9c0-22.7,11.1-49.3,42.3-49.3c12.9,0,21.9,3.1,30.1,10.3l0.7,0.6l-0.5,0.7
		l-9.9,14.2l-0.6,0.8l-0.8-0.6c-5.2-3.9-10.3-6.5-18.8-6.5c-12.1,0-18.2,9.9-18.2,29.5c0,19.3,6.1,28.6,18.8,28.6
		c8.3,0,13.7-3.1,19.3-7.9l0.8-0.7l0.6,0.8l10.2,13.1l0.5,0.7l-0.6,0.6C1092.4,288.5,1082.4,292.5,1069.3,292.5"/>
	<path class="st0" d="M235,342.9c-64.4,0-116.9-52.4-116.9-116.9c0-64.4,52.4-116.9,116.9-116.9c64.4,0,116.9,52.4,116.9,116.9
		C351.9,290.5,299.5,342.9,235,342.9 M235,146.2c-21.3,0-41.4,8.3-56.5,23.4c-15.1,15.1-23.4,35.2-23.4,56.5s8.3,41.4,23.4,56.5
		c15.1,15.1,35.2,23.4,56.5,23.4c21.3,0,41.4-8.3,56.5-23.4c15.1-15.1,23.4-35.2,23.4-56.5s-8.3-41.4-23.4-56.5
		C276.4,154.5,256.3,146.2,235,146.2"/>
	<path d="M1118.3,277.6h-3.7v-2.3h10.2v2.3h-3.6v11.8h-2.9V277.6z M1127.6,275.3h4.4l2.8,10.3l2.7-10.3h4.4v14.1h-2.9v-10.8l-3,10.8
		h-2.6l-3-10.8v10.8h-2.8V275.3z"/>
	<rect x="362.3" y="91.2" class="st0" width="9.1" height="9.1"/>
	<rect x="362.3" y="73" class="st0" width="9.1" height="9.1"/>
	<rect x="336.7" y="100.2" class="st0" width="8.5" height="8.9"/>
	<rect x="319.8" y="117.7" width="8.6" height="8.5"/>
	<rect x="345.2" y="109.1" width="9.5" height="8.6"/>
	<rect x="311.3" y="109.6" width="8.5" height="8.1"/>
	<rect x="336.7" y="117.7" width="8.5" height="8.5"/>
	<rect x="353.3" y="82.2" width="9" height="9"/>
	<rect x="336.7" y="91.2" width="16.6" height="9"/>
	<rect x="328.4" y="100.2" width="8.3" height="17.5"/>
	<path d="M328.4,126.2v8.6h-8.6v-8.6h-14.2v6.2H298v7.6h8.5v8.5H298V140h-9v13.3h-8.6v8.5h-5.7v8.5h-6.2c-7,10.4-24.6,43-29.9,56.2
		c-19.2-26.7-34-37.3-45.8-41.1c-6.3-1.9-14,5-3.4,15.8c24.1,26.5,31.7,48.5,39.1,66c3.9,9.2,21.3,10.7,24.8,1.3
		c7.4-19.9,18.2-42.2,30.9-60.6v-9.5h6.8V190h7.2V180h8.6v-9.6h-8.6v-8.7h8.6v8.7h8.5l0-8.6h6.8v-10.4h7.6v-7.2h7.3v-18.1H328.4z"/>
	<path d="M395.8,362c-5.2,0-9.7,2.5-13.2,7.4v-20.9h-3.9v47.9h3.9v-6.4c3.4,4.7,7.9,7.1,13.2,7.1c4.3,0,8.1-1.7,11.4-4.9
		c3.3-3.2,5-7.5,5-12.7v-0.1c0-5.2-1.7-9.5-5-12.7C403.9,363.6,400.1,362,395.8,362 M395.5,365.7c3.5,0,6.5,1.3,8.9,3.8
		c2.5,2.5,3.7,5.9,3.7,10.1v0.1c0,4.2-1.2,7.6-3.6,10.1c-2.4,2.5-5.4,3.7-9,3.7c-3.5,0-6.6-1.3-9.2-3.9c-2.6-2.6-3.9-5.9-3.9-9.9
		v-0.1c0-3.9,1.3-7.3,3.9-9.9S392,365.7,395.5,365.7"/>
	<path d="M433,391.7l-13.4-28.8l-0.1-0.2h-4.5l16,33.2c-1.2,2.7-2.4,4.6-3.5,5.8c-1.2,1.1-2.6,1.7-4.2,1.7c-2,0-3.9-0.4-5.5-1.2
		l-0.3-0.2l-1.4,3.4l0.3,0.1c2.2,1,4.4,1.5,6.7,1.5c2.5,0,4.7-0.8,6.5-2.3c1.8-1.5,3.4-3.9,4.9-7.3l14.5-34.6h-4.2L433,391.7z"/>
	<path d="M505.6,372.6c4-2.2,6.1-5.7,6.1-10.5c0-3-1-5.6-3.1-7.7c-2.9-2.8-7-4.2-12.3-4.2h-19.9v46.6h20.8c5.1,0,9.3-1.1,12.4-3.4
		c3.1-2.3,4.7-5.5,4.7-9.7C514.2,378.4,511.3,374.7,505.6,372.6 M495.4,370.3h-12.7v-14.2h13.1c3,0,5.4,0.6,7,1.8
		c1.6,1.2,2.3,2.8,2.3,4.9v0.1c0,2.4-0.8,4.2-2.6,5.4C500.8,369.6,498.4,370.3,495.4,370.3 M497.2,390.8h-14.5v-14.6h13.6
		c3.8,0,6.7,0.6,8.6,1.9c1.9,1.2,2.8,2.9,2.8,5.2v0.1c0,2.3-0.9,4-2.7,5.4C503.1,390.1,500.5,390.8,497.2,390.8"/>
	<path d="M532.8,363.9c-1.7,1.3-3.2,2.8-4.4,4.7V362H522v34.8h6.4v-14c0-4.7,1.2-8.3,3.6-10.8c2.4-2.5,5.3-3.8,9-3.8h1.1v-6.7
		l-0.7,0C538.1,361.2,535.2,362.1,532.8,363.9"/>
	<path d="M562.3,361.3c-5.1,0-9.5,1.8-12.9,5.3c-3.5,3.5-5.2,7.8-5.2,12.9c0,4.9,1.7,9.2,5.1,12.7c3.4,3.5,7.8,5.3,12.9,5.3
		c5.1,0,9.5-1.8,13-5.3c3.5-3.5,5.2-7.8,5.2-12.9c0-4.9-1.7-9.2-5.2-12.7C571.8,363,567.5,361.3,562.3,361.3 M562.3,391.7
		c-3.3,0-6-1.2-8.3-3.6c-2.2-2.4-3.4-5.3-3.4-8.9c0-3.4,1.1-6.3,3.3-8.7c2.2-2.4,4.9-3.6,8.2-3.6c3.3,0,6,1.2,8.3,3.6
		c2.3,2.4,3.4,5.3,3.4,8.9c0,3.4-1.1,6.3-3.3,8.6C568.5,390.5,565.7,391.7,562.3,391.7"/>
	<path d="M600.7,361.5c-4.1,0-8.3,1-12.4,2.8l-0.6,0.3l2,5.4l0.7-0.3c3.5-1.6,6.8-2.4,9.9-2.4c3,0,5.3,0.7,6.9,2.1
		c1.6,1.4,2.4,3.5,2.4,6.3v0.3c-3.1-0.8-6.4-1.2-9.6-1.2c-4.5,0-8.1,1-10.8,2.9c-2.8,2-4.2,4.9-4.2,8.7c0,3.4,1.3,6.2,4,8.2
		c2.6,1.9,5.7,2.9,9.2,2.9c4.7,0,8.5-1.5,11.4-4.6v3.9h6.2v-21.1c0-4.4-1.2-7.8-3.6-10.3C609.4,362.8,605.6,361.5,600.7,361.5
		 M606.5,389.7c-2,1.6-4.6,2.4-7.5,2.4c-2.2,0-4.1-0.6-5.6-1.7c-1.4-1.1-2.2-2.5-2.2-4.4c0-1.9,0.7-3.4,2.3-4.5
		c1.6-1.2,3.9-1.7,6.8-1.7c3,0,6.1,0.4,9.1,1.3v2.7C609.5,386.2,608.6,388.2,606.5,389.7"/>
	<path d="M651.2,367c-3.2-3.8-7.3-5.8-12.1-5.8c-4.4,0-8.4,1.7-11.7,5c-3.3,3.3-5,7.7-5,13.2c0,5.4,1.7,9.8,5,13.1
		c3.3,3.3,7.2,4.9,11.7,4.9c4.8,0,8.8-2,12.1-6v5.3h6.3v-48.6h-6.3V367z M647.9,370.5c2.3,2.3,3.4,5.2,3.4,8.9
		c0,3.5-1.1,6.5-3.4,8.8c-2.3,2.3-4.9,3.4-8,3.4s-5.6-1.1-7.8-3.4c-2.2-2.3-3.3-5.2-3.3-9c0-3.7,1.1-6.7,3.2-8.9
		c2.1-2.2,4.7-3.3,7.9-3.3C643,367.1,645.6,368.2,647.9,370.5"/>
	<path d="M692.2,386.9c-2.9,3.2-6.2,4.8-9.7,4.8c-3.3,0-6-1.2-8.2-3.6c-2.2-2.4-3.3-5.3-3.3-8.9c0-3.4,1.1-6.4,3.3-8.7
		c2.2-2.4,4.8-3.5,8-3.5c3.4,0,6.6,1.6,9.6,4.8l0.5,0.5l4.2-4.5l-0.4-0.5c-3.9-4.1-8.5-6.2-13.9-6.2c-5,0-9.3,1.8-12.7,5.3
		c-3.4,3.5-5.1,7.8-5.1,12.9c0,4.9,1.7,9.2,5.1,12.7c3.4,3.5,7.7,5.3,12.7,5.3c5.4,0,10.2-2.3,14.1-6.7l0.5-0.5l-4.2-3.9
		L692.2,386.9z"/>
	<path d="M717.8,361.3c-5.1,0-9.5,1.8-12.9,5.3s-5.2,7.8-5.2,12.9c0,4.9,1.7,9.2,5.1,12.7c3.4,3.5,7.8,5.3,12.9,5.3
		c5.1,0,9.5-1.8,13-5.3c3.5-3.5,5.2-7.8,5.2-12.9c0-4.9-1.7-9.2-5.2-12.7C727.3,363,722.9,361.3,717.8,361.3 M717.8,391.7
		c-3.3,0-6-1.2-8.3-3.6c-2.2-2.4-3.4-5.3-3.4-8.9c0-3.4,1.1-6.3,3.3-8.7c2.2-2.4,4.9-3.6,8.2-3.6c3.3,0,6,1.2,8.3,3.6
		c2.3,2.4,3.4,5.3,3.4,8.9c0,3.4-1.1,6.3-3.3,8.6C723.9,390.5,721.2,391.7,717.8,391.7"/>
	<path d="M781.7,361.3c-4.8,0-8.7,2-11.7,6c-2.3-4-5.9-6-10.8-6c-4,0-7.4,1.7-10.1,4.9V362h-6.3v34.8h6.3V377c0-2.9,0.8-5.3,2.5-7.1
		c1.7-1.8,3.7-2.7,6.1-2.7s4.4,0.8,5.8,2.4c1.4,1.6,2.1,3.9,2.1,6.9v20.3h6.3v-19.9c0-3,0.8-5.4,2.4-7.1c1.6-1.7,3.6-2.6,6.1-2.6
		c2.5,0,4.4,0.8,5.8,2.4c1.4,1.6,2.1,4,2.1,7v20.2h6.4v-21.4c0-4.3-1.2-7.8-3.5-10.3C789,362.6,785.7,361.3,781.7,361.3"/>
	<path d="M853,375.2c-2.4-2.1-6.3-3.7-11.5-4.8c-4.7-1-7.8-2.1-9.5-3.4c-1.5-1.2-2.3-2.7-2.3-4.9c0-1.9,0.8-3.4,2.4-4.7
		c1.6-1.3,3.8-2,6.6-2c4.5,0,8.8,1.6,12.6,4.8l0.5,0.4l3.8-5l-0.5-0.4c-4.7-3.8-10.2-5.7-16.3-5.7c-4.5,0-8.2,1.2-11.1,3.6
		c-2.9,2.5-4.4,5.6-4.4,9.5c0,3.8,1.3,6.8,3.8,8.9c2.5,2,6.5,3.6,11.9,4.8c4.4,0.9,7.5,2,9,3.2c1.5,1.2,2.2,2.7,2.2,4.8
		c0,2-0.8,3.7-2.5,5c-1.7,1.3-4,2-6.9,2c-3,0-5.6-0.5-8-1.5c-2.3-1-4.7-2.6-7.1-4.7l-0.5-0.5l-4.1,4.8l0.5,0.4
		c5.5,4.9,11.9,7.4,18.9,7.4c4.7,0,8.6-1.2,11.5-3.7c3-2.5,4.6-5.8,4.6-9.9C856.8,380.2,855.5,377.3,853,375.2"/>
	<path d="M880.5,361.3c-5.1,0-9.5,1.8-12.9,5.3c-3.5,3.5-5.2,7.8-5.2,12.9c0,4.9,1.7,9.2,5.1,12.7c3.4,3.5,7.8,5.3,12.9,5.3
		c5.1,0,9.5-1.8,13-5.3c3.5-3.5,5.2-7.8,5.2-12.9c0-4.9-1.7-9.2-5.2-12.7C890,363,885.7,361.3,880.5,361.3 M880.5,391.7
		c-3.3,0-6-1.2-8.3-3.6c-2.2-2.4-3.4-5.3-3.4-8.9c0-3.4,1.1-6.3,3.3-8.7c2.2-2.4,4.9-3.6,8.2-3.6c3.3,0,6,1.2,8.3,3.6
		c2.3,2.4,3.4,5.3,3.4,8.9c0,3.4-1.1,6.3-3.3,8.6C886.7,390.5,884,391.7,880.5,391.7"/>
	<path d="M917.1,347.9c-3.2,0-5.8,0.9-7.7,2.8c-2.1,2.1-3.1,5.1-3.1,9.1v2.2h-4.6v5.7h4.6v29h6.3v-29h10.5v-5.6h-10.6v-2
		c0-4.4,1.6-6.4,5.1-6.4c1.2,0,2.8,0.3,4.7,0.8l0.9,0.3V349l-0.4-0.2C921.2,348.2,919.3,347.9,917.1,347.9"/>
	<path d="M937.5,351.9h-6.4V362h-4.7v5.8h4.7v19.5c0,3.4,0.9,6,2.8,7.7c1.8,1.6,4.3,2.5,7.3,2.5c2.3,0,4.4-0.5,6.3-1.5l0.4-0.2v-5.8
		l-1,0.5c-1.5,0.7-3,1.1-4.6,1.1c-3.4,0-4.9-1.6-4.9-4.9v-18.8h10.6V362h-10.6V351.9z"/>
	<polygon points="989.5,387.3 981,361.8 975.8,361.8 967.3,387.3 959,362 952.3,362 964.5,397 969.8,397 978.4,372.1 986.9,397 
		992.2,397 1004.4,362 997.8,362 	"/>
	<path d="M1022.6,361.5c-4.1,0-8.3,1-12.4,2.8l-0.6,0.3l2,5.4l0.7-0.3c3.5-1.6,6.8-2.4,9.9-2.4c3,0,5.3,0.7,6.9,2.1
		c1.6,1.4,2.4,3.5,2.4,6.3v0.3c-3.1-0.8-6.4-1.2-9.6-1.2c-4.5,0-8.1,1-10.8,2.9c-2.8,2-4.2,4.9-4.2,8.7c0,3.4,1.3,6.2,4,8.2
		c2.6,1.9,5.7,2.9,9.2,2.9c4.6,0,8.5-1.5,11.4-4.6v3.9h6.2v-21.1c0-4.4-1.2-7.8-3.6-10.3C1031.3,362.8,1027.5,361.5,1022.6,361.5
		 M1028.4,389.7c-2,1.6-4.6,2.4-7.5,2.4c-2.2,0-4.1-0.6-5.6-1.7c-1.4-1.1-2.2-2.5-2.2-4.4c0-1.9,0.7-3.4,2.3-4.5
		c1.6-1.2,3.9-1.7,6.8-1.7c3,0,6.1,0.4,9.1,1.3v2.7C1031.4,386.2,1030.4,388.2,1028.4,389.7"/>
	<path d="M1056.8,363.9c-1.7,1.3-3.2,2.8-4.4,4.7V362h-6.3v34.8h6.3v-14c0-4.7,1.2-8.3,3.6-10.8c2.4-2.5,5.3-3.8,9-3.8h1.1v-6.7
		l-0.7,0C1062.2,361.2,1059.3,362.1,1056.8,363.9"/>
	<path d="M1097.1,366.5c-2.9-3.5-6.9-5.3-11.9-5.3c-4.7,0-8.8,1.8-11.9,5.3c-3.2,3.5-4.8,7.8-4.8,12.9c0,5.2,1.7,9.6,5,13
		c3.3,3.4,7.5,5.1,12.4,5.1c5.6,0,10.4-2.2,14.3-6.5l0.5-0.5l-4.1-3.7l-0.5,0.5c-2.9,3-6.2,4.5-10,4.5c-2.9,0-5.4-1-7.5-2.8
		c-1.9-1.7-3.1-4.1-3.5-7.1h26.3l0.1-0.6c0-0.4,0.1-1,0.1-1.7C1101.5,374.4,1100,370,1097.1,366.5 M1085.1,366.8c3,0,5.2,1,7,3
		c1.6,1.9,2.6,4.2,2.9,7h-20c0.4-2.8,1.5-5.1,3.2-7C1080.1,367.8,1082.4,366.8,1085.1,366.8"/>
</g>
</svg>
