<?xml version="1.0" encoding="utf-8"?>
<!-- Generator: Adobe Illustrator 23.1.0, SVG Export Plug-In . SVG Version: 6.00 Build 0)  -->
<svg version="1.1" id="Слой_1" xmlns="http://www.w3.org/2000/svg" xmlns:xlink="http://www.w3.org/1999/xlink" x="0px" y="0px"
	 viewBox="0 0 1260 480" style="enable-background:new 0 0 1260 480;" xml:space="preserve">
<style type="text/css">
	.st0{fill-rule:evenodd;clip-rule:evenodd;fill:#97C11D;}
	.st1{fill-rule:evenodd;clip-rule:evenodd;fill:#1D1D1B;}
	.st2{fill:#1D1D1B;}
	.st3{fill:#97C11D;}
</style>
<g>
	<path class="st0" d="M608.4,100.4c15.3,0,27.6,11.5,27.6,25.6s-12.4,25.6-27.6,25.6c-15.4,0-27.8-11.5-27.8-25.6
		S593,100.4,608.4,100.4"/>
	<path class="st1" d="M496.3,125.2c8.6-16.5,19.3-29.3,32.3-38.6c13.5-9.9,28.3-14.9,44.1-14.9c16,0,30.7,5,44.1,14.9
		c12.5,8.9,23.3,21.8,32.3,38.6h3c-8.5-23.9-19.6-41.8-33.5-53.5c-13-11.2-28.4-16.8-45.9-16.8c-17.3,0-32.4,5.6-45.5,16.8
		c-13.9,11.9-25.2,29.8-34,53.5H496.3"/>
	<path class="st1" d="M720.5,126.5c-8.6,16.4-19.3,29.3-32.2,38.6c-13.6,10-28.3,15-44.2,15c-15.8,0-30.6-5-44-15
		c-12.5-8.9-23.3-21.8-32.4-38.6h-3c8.6,23.8,19.7,41.8,33.6,53.5c13,11.1,28.4,16.7,45.8,16.7c17.3,0,32.5-5.6,45.5-16.7
		c13.9-12,25.2-29.8,34-53.5H720.5"/>
	<polyline class="st2" points="137.3,369.1 137.3,283.6 112.2,283.6 112.2,257.1 192.9,257.1 192.9,283.6 167.8,283.6 167.8,369.1 
		137.3,369.1 	"/>
	<polyline class="st2" points="207.8,369.1 207.8,257.1 276.5,257.1 276.5,281.7 237.6,281.7 237.6,301.1 274.2,301.1 274.2,325.2 
		237.6,325.2 237.6,344 276.5,344 276.5,369.1 207.8,369.1 	"/>
	<path class="st2" d="M377.9,261.4v33.4c-4.2-4.6-8.4-8-12.5-10.2c-4.1-2.2-8.6-3.3-13.3-3.3c-8.8,0-15.9,3-21.3,9
		c-5.4,5.9-8.1,13.8-8.1,23.5c0,9,2.8,16.4,8.3,22.3c5.5,5.8,12.6,8.9,21.2,8.9c4.7,0,9.2-1.1,13.3-3.3c4.2-2.2,8.3-5.6,12.5-10.3
		V365c-4.9,2.4-9.7,4.1-14.5,5.3c-4.8,1.1-9.6,1.8-14.5,1.8c-6.1,0-11.8-0.8-16.9-2.3c-5.2-1.4-9.9-3.6-14.3-6.6
		c-8.4-5.6-14.7-12.6-19.1-21.2c-4.4-8.5-6.6-18.1-6.6-28.8c0-8.6,1.4-16.4,4.2-23.4c2.8-7,7-13.4,12.6-19
		c5.3-5.5,11.3-9.6,17.9-12.3c6.7-2.7,14.1-4.1,22.2-4.1c4.9,0,9.7,0.6,14.5,1.7C368.2,257.4,373,259.1,377.9,261.4"/>
	<path class="st2" d="M395.1,369.1v-112h29.5l42.3,57.6c0.8,1.2,2.2,3.6,4,7.1c1.9,3.6,3.9,7.8,6.2,12.7c-0.6-4.7-1.1-8.8-1.3-12.4
		c-0.3-3.6-0.4-6.8-0.4-9.6v-55.3h29.3v112h-29.3l-42.3-57.8c-0.9-1.2-2.2-3.6-4.1-7.1c-1.9-3.6-3.9-7.7-6.1-12.5
		c0.6,4.7,1.1,8.9,1.3,12.4c0.3,3.7,0.4,6.9,0.4,9.7v55.2H395.1"/>
	<path class="st2" d="M643.6,313.4c0,8-1.5,15.6-4.4,22.6c-3,7.1-7.3,13.4-12.9,18.9c-5.7,5.6-12.2,9.8-19.6,12.8
		c-7.3,2.9-15,4.4-22.9,4.4c-8,0-15.7-1.5-23-4.4c-7.3-3-13.8-7.3-19.3-12.8c-5.8-5.5-10.1-11.9-13.1-18.9c-3-7.1-4.5-14.6-4.5-22.5
		c0-8,1.5-15.6,4.5-22.6c3-7.1,7.4-13.4,13.1-18.9c5.6-5.6,12-9.8,19.3-12.7c7.3-3,15-4.5,23-4.5c8,0,15.6,1.5,23,4.5
		c7.4,2.9,13.9,7.2,19.5,12.7c5.6,5.5,9.9,11.8,12.9,18.9C642.1,297.8,643.6,305.4,643.6,313.4 M583.8,346.3c8.5,0,15.5-3.1,21-9.3
		c5.5-6.2,8.3-14.1,8.3-23.6s-2.8-17.3-8.4-23.6c-5.6-6.2-12.6-9.3-20.9-9.3c-8.5,0-15.5,3.1-21,9.3c-5.5,6.2-8.3,14.1-8.3,23.6
		c0,9.5,2.7,17.4,8.2,23.7C568.1,343.2,575.1,346.3,583.8,346.3z"/>
	<path class="st2" d="M739,257.1l14.1,53.3c0.7,2.5,1.3,4.9,1.8,7.5c0.6,2.5,1.2,5.6,1.8,9c0.8-4.1,1.4-7.3,2-9.9
		c0.5-2.5,1-4.7,1.6-6.6l13.2-53.3h30.8l-31.7,112h-28.3l-13.8-47.8c-0.5-1.7-1.3-5-2.5-9.9c-0.5-2.2-0.9-3.9-1.2-5.1
		c-0.3,1-0.6,2.5-1.1,4.5c-1.2,4.9-2.1,8.4-2.7,10.5l-13.6,47.8h-28.4l-31.6-112h30.8l12.8,53.5c0.6,2.8,1.2,5.6,1.8,8.3
		c0.6,2.7,1.1,5.6,1.6,8.5c0.5-2.2,1-4.3,1.5-6.7c0.5-2.4,1.3-5.8,2.4-10.1l14.1-53.5H739"/>
	<path class="st2" d="M798.9,369.1l38.6-112h38.3l38.7,112h-30.4l-5.7-20h-43.4l-5.8,20H798.9 M841.7,327.2H872l-11.4-37
		c-0.4-1.1-0.8-2.9-1.5-5.4c-0.6-2.5-1.4-5.8-2.4-9.7c-0.7,2.8-1.3,5.5-2,7.9c-0.6,2.5-1.3,4.9-2,7.2L841.7,327.2z"/>
	<path class="st2" d="M925.2,369.1v-112h31.9c12.5,0,21.2,0.6,26.1,1.7c4.9,1.1,9.2,3.1,12.7,5.8c4,3,7.1,7,9.3,11.7
		c2.2,4.7,3.3,10,3.3,15.6c0,8.7-2.1,15.7-6.4,21.2c-4.3,5.4-10.5,9-18.6,10.8l30.5,45.1h-34.5l-25.7-43.8v43.8H925.2 M953.8,310.1
		h5.7c6.6,0,11.4-1.1,14.4-3.4c3-2.3,4.6-5.8,4.6-10.6c0-5.7-1.4-9.6-4.2-12c-2.8-2.4-7.6-3.6-14.3-3.6h-6.1V310.1z"/>
	<polyline class="st2" points="1025.7,369.1 1025.7,257.1 1094.3,257.1 1094.3,281.7 1055.5,281.7 1055.5,301.1 1092.1,301.1 
		1092.1,325.2 1055.5,325.2 1055.5,344 1094.3,344 1094.3,369.1 1025.7,369.1 	"/>
	<path class="st2" d="M1133.4,242.5c2.6,0,5.1,0.7,7.6,2c2.5,1.4,4.4,3.3,5.8,5.8c1.4,2.5,2.1,5.1,2.1,7.8c0,2.6-0.7,5.2-2,7.6
		c-1.4,2.5-3.3,4.4-5.7,5.8c-2.5,1.4-5,2.1-7.7,2.1c-2.7,0-5.3-0.7-7.7-2.1c-2.5-1.3-4.4-3.2-5.7-5.8c-1.4-2.5-2.1-5-2.1-7.6
		c0-2.7,0.7-5.3,2.1-7.8c1.4-2.5,3.3-4.3,5.8-5.8C1128.2,243.2,1130.8,242.5,1133.4,242.5 M1133.4,245c-2.2,0-4.3,0.6-6.4,1.7
		c-2.1,1.1-3.7,2.7-4.8,4.8c-1.2,2.1-1.7,4.2-1.7,6.5c0,2.2,0.6,4.3,1.7,6.4c1.2,2.1,2.7,3.6,4.8,4.8c2,1.1,4.2,1.7,6.4,1.7
		c2.2,0,4.4-0.6,6.4-1.7c2.1-1.2,3.7-2.7,4.8-4.8c1.1-2.1,1.7-4.2,1.7-6.4c0-2.3-0.6-4.4-1.7-6.5c-1.2-2.1-2.8-3.7-4.8-4.8
		C1137.6,245.6,1135.5,245,1133.4,245z M1126.5,266.6v-16.7h5.7c2,0,3.4,0.1,4.3,0.5c0.9,0.3,1.6,0.8,2.1,1.6
		c0.5,0.8,0.8,1.5,0.8,2.5c0,1.2-0.4,2.3-1.3,3.1c-0.9,0.9-2,1.4-3.5,1.5l1.4,0.9c0.7,0.7,1.5,1.8,2.5,3.3l2,3.3h-3.3l-1.5-2.6
		c-1.2-2.1-2.1-3.4-2.8-3.9c-0.5-0.4-1.2-0.7-2.2-0.7h-1.6v7.2H1126.5z M1129.2,257.2h3.3c1.6,0,2.6-0.2,3.2-0.7l0.8-1.9l-0.4-1.3
		l-1.2-0.8c-0.5-0.2-1.4-0.3-2.7-0.3h-3.1V257.2z"/>
	<polyline class="st3" points="115.7,423.8 115.6,424.1 115.3,424.2 114.7,424.2 113.7,424.3 112.8,424.2 112.2,424.2 111.8,424.1 
		111.8,423.8 111.8,399.3 111.9,399 112.2,398.9 112.8,398.8 113.7,398.7 114.7,398.8 115.3,398.9 115.6,399 115.7,399.3 
		115.7,423.8 	"/>
	<polyline class="st3" points="115.7,423.8 115.2,423.6 115.1,423.6 114.6,423.7 112.9,423.7 112.4,423.6 112.3,423.6 111.8,423.8 
		112.3,423.8 112.3,399.4 112.4,399.3 111.9,399 112.1,399.5 112.4,399.5 112.9,399.4 114.6,399.4 115.1,399.5 115.2,399.5 
		115.7,399.3 115.1,399.3 115.1,423.8 115.7,423.8 115.2,423.6 115.7,423.8 116.3,423.8 116.3,399.1 116.2,398.8 116.1,398.6 
		115.6,398.3 115.5,398.2 114.8,398.1 112.8,398.1 112.1,398.2 112.1,398.2 111.6,398.4 111.4,398.5 111.2,399 111.1,399.1 
		111.1,424 111.3,424.2 111.4,424.4 111.9,424.7 112,424.7 112.7,424.9 114.8,424.9 115.4,424.7 115.5,424.7 115.9,424.5 
		116.1,424.4 116.3,424.1 116.3,424 116.3,423.8 115.7,423.8 	"/>
	<polyline class="st3" points="168.9,399.9 168.8,400.4 168.6,400.7 168.3,400.9 167.8,401 155.2,401 155.2,423.8 155.1,424.1 
		154.8,424.2 154.2,424.2 153.2,424.3 152.3,424.2 151.7,424.2 151.3,424.1 151.2,423.8 151.2,401 138.6,401 138.2,400.9 
		137.9,400.7 137.7,400.4 137.6,399.9 137.7,399.5 137.9,399.1 138.2,398.9 138.6,398.8 167.8,398.8 168.3,398.9 168.6,399.1 
		168.8,399.5 168.9,399.9 	"/>
	<polyline class="st3" points="168.9,399.9 168.3,399.8 168.2,400.2 168.2,400.3 168.1,400.3 167.8,400.4 154.6,400.4 154.6,423.7 
		154.6,423.8 155.1,424.1 154.9,423.5 154.6,423.6 154.1,423.7 152.3,423.7 151.8,423.6 151.8,423.6 151.2,423.8 151.8,423.8 
		151.8,400.4 138.7,400.4 138.4,400.3 138.3,400.3 138.2,400.2 138.2,399.9 138.2,399.6 138.3,399.5 138.4,399.5 168,399.5 
		168.2,399.5 168.2,399.6 168.3,400 168.9,399.9 168.3,399.8 168.9,399.9 169.4,399.8 169.4,399.4 169.4,399.3 169.1,398.8 
		169,398.7 168.6,398.4 168.5,398.3 167.9,398.2 138.6,398.2 138.1,398.3 138,398.3 137.5,398.6 137.4,398.7 137.2,399.2 
		137.1,399.3 137,399.8 137,399.9 137.1,400.5 137.1,400.6 137.4,401.1 137.4,401.2 137.9,401.4 138,401.4 138.5,401.5 150.6,401.5 
		150.6,424 150.8,424.2 150.9,424.4 151.4,424.7 151.5,424.7 152.2,424.9 154.2,424.9 154.9,424.7 155,424.7 155.6,424.4 
		155.8,424.1 155.8,424 155.8,401.5 168.4,401.5 168.5,401.4 168.9,401.2 169,401.2 169.3,400.7 169.4,400.6 169.4,400 169.5,399.9 
		169.4,399.8 168.9,399.9 	"/>
	<path class="st3" d="M220.8,423.4l0.2,0.5l-0.2,0.3l-0.7,0.1l-1.1,0.1l-1.1-0.1l-0.6-0.1l-0.3-0.1l-0.2-0.3l-4.1-6.7H194l-3.9,6.7
		l-0.2,0.2l-0.4,0.2l-0.6,0.1l-1,0.1l-1.1-0.1l-0.7-0.1l-0.2-0.3l0.2-0.5l14.8-24.1l0.3-0.3l0.5-0.2h0.7l1-0.1l1,0.1h0.8l0.5,0.2
		l0.3,0.3L220.8,423.4 M203.2,401.4L203.2,401.4l-8,13.6h16.2L203.2,401.4z"/>
	<path class="st3" d="M220.8,423.4l-0.6,0.2l0.1,0.2h0l0.5,0.4l-0.1-0.6l-0.6,0.1h-2.1l-0.5-0.1h-0.2l-0.1-0.1l-4-6.8l-0.2-0.3
		h-19.2l-4,7l-0.1,0.1l-0.2,0.1l-0.5,0.1h-2l-0.4-0.1l-0.1-0.1l-0.5,0.4l0.6,0.2l0.2-0.4l14.7-24l0.1-0.1l0.3-0.1l0.7-0.1h1.9
		l0.7,0.1l0.3,0.1l0.1,0.1l14.8,24L220.8,423.4l-0.6,0.2L220.8,423.4l0.5-0.3l-14.8-24.2l-0.3-0.3l-0.1-0.1l-0.6-0.3h-0.1l-0.8-0.1
		h-2.1l-0.8,0.1h-0.1l-0.6,0.2l-0.1,0.1l-0.4,0.3l-0.1,0.1l-14.9,24.2l-0.2,0.6l-0.1,0.3l0.4,0.6l0.1,0.2l0.9,0.2h2.4l0.7-0.2h0.1
		l0.4-0.2h0.1l0.3-0.4l0-0.1l3.7-6.4h17.9l3.9,6.5h0l0.3,0.3l0.1,0.1l0.5,0.2l0.1,0.1l0.7,0.1h2.4l0.7-0.2h0.2l0.4-0.5l0.2-0.3
		l-0.3-0.8l0-0.1h0L220.8,423.4 M203.2,401.4v-0.7h-0.4l-8.7,14.9h18.3l-8.9-14.9h-0.3V401.4l-0.5,0.3l7.6,12.7h-14.1l7.4-12.7
		L203.2,401.4l0,0.6h0V401.4l-0.5,0.3L203.2,401.4z"/>
	<polyline class="st3" points="264.8,423.1 264.7,423.6 264.5,423.9 264.2,424.2 245.4,424.2 244.2,424 243.6,422.9 243.6,399.3 
		243.7,399 244,398.9 244.6,398.8 245.6,398.7 246.5,398.8 247.2,398.9 247.5,399 247.6,399.3 247.6,422 263.8,422 264.2,422.1 
		264.5,422.3 264.7,422.6 264.8,423.1 	"/>
	<polyline class="st3" points="264.8,423.1 264.2,423 264.2,423.4 264.1,423.5 264,423.6 245.5,423.6 244.6,423.4 244.2,422.8 
		244.2,399.4 244.2,399.3 243.7,399 243.9,399.5 244.2,399.5 244.7,399.4 246.5,399.4 247,399.5 247,399.5 247.6,399.3 247,399.3 
		247,422.6 264,422.6 264.1,422.7 264.2,422.8 264.2,423.2 264.8,423.1 264.2,423 264.8,423.1 265.4,423 265.3,422.5 265.3,422.5 
		265.1,422 265,421.9 264.5,421.6 264.4,421.5 263.8,421.4 248.2,421.4 248.2,399.1 248,398.8 247.9,398.6 247.4,398.3 247.3,398.2 
		246.6,398.1 244.6,398.1 243.9,398.2 243.8,398.2 243.4,398.5 243.2,398.6 243,399 243,399.1 243,423.1 243.7,424.2 243.8,424.4 
		245.3,424.8 263.8,424.8 264.3,424.7 264.4,424.7 264.9,424.4 265,424.3 265.2,423.9 265.3,423.8 265.4,423.2 265.4,423.1 
		265.4,423 264.8,423.1 	"/>
	<polyline class="st3" points="290.8,423.8 290.7,424.1 290.3,424.2 289.7,424.2 288.8,424.3 287.8,424.2 287.2,424.2 286.9,424.1 
		286.8,423.8 286.8,399.3 286.9,399 287.2,398.9 287.9,398.8 288.8,398.7 289.7,398.8 290.3,398.9 290.7,399 290.8,399.3 
		290.8,423.8 	"/>
	<polyline class="st3" points="290.8,423.8 290.2,423.6 290.1,423.6 289.7,423.7 287.9,423.7 287.4,423.6 287.3,423.6 286.8,423.8 
		287.4,423.8 287.4,399.4 287.4,399.3 286.9,399 287.1,399.5 287.4,399.5 287.9,399.4 289.7,399.4 290.2,399.5 290.2,399.5 
		290.8,399.3 290.2,399.3 290.2,423.8 290.8,423.8 290.2,423.6 290.8,423.8 291.4,423.8 291.4,399.1 291.2,398.8 291.1,398.6 
		290.6,398.3 290.5,398.3 289.8,398.1 287.8,398.1 287.2,398.2 287.1,398.2 286.6,398.4 286.4,398.5 286.2,399 286.2,399.1 
		286.2,424 286.3,424.2 286.4,424.4 286.9,424.7 287,424.7 287.7,424.9 289.8,424.9 290.4,424.7 290.5,424.7 290.9,424.5 
		291.1,424.4 291.3,424.1 291.4,424 291.4,423.8 290.8,423.8 	"/>
	<path class="st3" d="M348.3,423.4l0.2,0.5l-0.2,0.3l-0.7,0.1l-1.1,0.1l-1.1-0.1l-0.6-0.1l-0.3-0.1l-0.2-0.3l-4.1-6.7h-18.6
		l-3.9,6.7l-0.2,0.2l-0.4,0.2l-0.6,0.1l-1,0.1l-1.2-0.1l-0.7-0.1l-0.2-0.3l0.2-0.5l14.8-24.1l0.3-0.3l0.5-0.2h0.8l1-0.1l1,0.1h0.8
		l0.5,0.2l0.3,0.3L348.3,423.4 M330.7,401.4L330.7,401.4l-8,13.6h16.2L330.7,401.4z"/>
	<path class="st3" d="M348.3,423.4l-0.6,0.2l0.1,0.2h0l0.5,0.4l-0.1-0.6l-0.6,0.1h-2.1l-0.5-0.1h-0.2l-0.1-0.1l-4-6.8l-0.2-0.3
		h-19.2l-4,7l-0.1,0.1l-0.2,0.1l-0.5,0.1h-2l-0.4-0.1l-0.1-0.1l-0.5,0.4l0.6,0.2l0.2-0.4l14.7-24l0.1-0.1l0.3-0.1l0.7-0.1h1.9
		l0.7,0.1l0.3,0.1l0.1,0.1l14.8,24L348.3,423.4l-0.6,0.2L348.3,423.4l0.5-0.3L334,398.9l-0.3-0.3l-0.1-0.1l-0.6-0.3h-0.1l-0.8-0.1
		h-2.1l-0.8,0.1H329l-0.6,0.2l-0.1,0.1l-0.4,0.3l-0.1,0.1L313,423.1l-0.2,0.6l-0.1,0.3l0.4,0.6l0.1,0.2l0.9,0.2h2.4l0.7-0.2h0.1
		l0.4-0.2h0.1l0.3-0.4l0-0.1l3.8-6.4h17.9l3.9,6.5h0l0.3,0.3l0.1,0.1l0.5,0.2l0.1,0.1l0.7,0.1h2.4l0.7-0.2h0.2l0.4-0.5l0.2-0.3
		l-0.3-0.8l0-0.1h0L348.3,423.4 M330.7,401.4v-0.7h-0.4l-8.7,14.9H340l-8.9-14.9h-0.3V401.4l-0.5,0.3l7.6,12.7h-14.1l7.5-12.7
		L330.7,401.4l0,0.6h0V401.4l-0.5,0.3L330.7,401.4z"/>
	<path class="st3" d="M401.5,423l-0.2,0.6l-0.5,0.5l-0.6,0.2h-1.5l-1.2-0.1l-1-0.3l-1-0.7l-1.1-1.1l-14.9-15.8l-2.2-2.4l-2.1-2.4h0
		c0,0.9,0,1.9,0,2.9c0,1,0,2,0,2.9v16.4l-0.1,0.3l-0.3,0.1l-0.6,0.1l-1,0.1l-0.9-0.1l-0.6-0.1l-0.3-0.1l-0.1-0.3V400l0.6-0.9
		l1.2-0.3h1.6l1.3,0.1l0.9,0.3l0.8,0.6l0.9,0.8l11.4,12.2l2,2.2l1.9,2.1l1.8,2l1.8,2h0c0-1.1,0-2.3,0-3.5c0-1.1,0-2.3,0-3.4v-14.8
		l0.1-0.2l0.3-0.2l0.6-0.1h1.9l0.6,0.1l0.3,0.2l0.1,0.2V423"/>
	<path class="st3" d="M401.5,423l-0.6-0.2l-0.1,0.5l-0.2,0.2l-0.5,0.1l-0.5,0.1h-0.8l-1.1-0.1l-0.9-0.3l-0.9-0.6l-1.1-1l-14.9-15.8
		l-2.2-2.4l-2.1-2.4l-0.2-0.2h-0.9l0,0.6c0,0.9,0,1.9,0,2.9c0,1,0,2,0,2.9v16.3l0,0.1l0.5,0.3l-0.3-0.6l-0.3,0.1l-0.5,0.1h-1.8
		l-0.5-0.1h-0.1l-0.5,0.2h0.6v-23.6l0.4-0.6l0.9-0.2h1.6l1.2,0.1l0.8,0.2l0.7,0.5l0.8,0.8l11.4,12.2l2,2.2l1.9,2.1l1.8,2l1.8,2
		l0.2,0.2h0.9l0-0.6c0-1.1,0-2.3,0-3.5c0-1.1,0-2.3,0-3.4v-14.6l0-0.1l-0.5-0.3l0.3,0.6l0.2-0.2h0.5l0.9-0.1l0.8,0.1h0.5l0.1,0.1h0
		l0.5-0.3h-0.6V423H401.5l-0.6-0.2L401.5,423h0.6v-23.8l-0.2-0.4l-0.1-0.2l-0.5-0.2l-0.1-0.1l-0.7-0.1h-2l-0.6,0.1h-0.1l-0.4,0.3
		h-0.2l-0.2,0.5l-0.1,0.1v14.9c0,1.1,0,2.3,0,3.4c0,1.2,0,2.4,0,3.5h0.6v-0.7h0v0.7l0.4-0.5l-1.8-2l-1.8-2l-1.9-2l-2.1-2.3
		L379,400.2l0-0.1l-0.9-0.8h0l-0.9-0.6l-0.1-0.1l-1-0.3H376l-1.4-0.1h-1.7l-1.3,0.3l-0.2,0.1l-0.8,1.1l-0.1,0.2v24l0.2,0.3l0.1,0.2
		l0.5,0.3h0.1l0.7,0.2h2.1l0.7-0.2h0.1l0.4-0.2l0.2-0.1l0.2-0.4l0.1-0.1v-16.6c0-0.9,0-1.9,0-2.9c0-1,0-2,0-2.9h-0.6v0.6h0v-0.6
		l-0.4,0.4l2.1,2.4l2.2,2.5l14.9,15.8l1.2,1l0,0.1l1.1,0.7h0.1l1.1,0.4h0.1l1.3,0.2h0.9l0.7-0.1h0.1l0.7-0.3h0.1l0.5-0.5l0.1-0.1
		l0.2-0.8l0-0.1V423H401.5"/>
	<path class="st3" d="M483.6,406.1c0,1.1-0.3,2.2-1,3.2c-0.7,0.9-1.6,1.8-2.9,2.5c-1.2,0.7-2.8,1.2-4.5,1.6
		c-1.8,0.4-3.9,0.6-6.5,0.6h-5.5v9.7l-0.1,0.3l-0.3,0.1l-0.6,0.1l-1,0.1l-0.9-0.1l-0.6-0.1l-0.3-0.1l-0.1-0.3V400l0.6-0.9l1.2-0.3
		h8.6l2.5,0.1c0.8,0.1,1.7,0.2,2.8,0.3c1.1,0.2,2.2,0.5,3.3,0.8c1.1,0.5,2.1,0.9,2.9,1.5l1.8,2.1
		C483.4,404.4,483.6,405.2,483.6,406.1 M479.4,406.3c0-1.1-0.4-2.1-1.1-2.8c-0.7-0.8-1.6-1.3-2.6-1.7c-1-0.4-2.1-0.6-3.2-0.7
		c-1.1-0.1-2.2-0.2-3.2-0.2h-6v11h5.8c1.8,0,3.4-0.2,4.6-0.5c1.2-0.3,2.3-0.7,3.1-1.1l1.9-1.8L479.4,406.3z"/>
	<path class="st3" d="M483.6,406.1H483c0,1-0.3,2-0.9,2.8c-0.6,0.9-1.5,1.7-2.7,2.4c-1.2,0.7-2.6,1.2-4.4,1.6
		c-1.7,0.4-3.9,0.6-6.3,0.6h-6.1v10.2l0,0.1l0.5,0.3l-0.3-0.6l-0.3,0.1l-0.5,0.1h-1.8l-0.5-0.1h-0.1l-0.5,0.2h0.6v-23.6l0.4-0.6
		l0.9-0.2h11c0.8,0.1,1.7,0.2,2.8,0.4c1,0.1,2.1,0.4,3.2,0.8c1.1,0.4,2,0.8,2.7,1.4l0.4-0.5l-0.4,0.4l1.8,2.1l0.4-0.4l-0.5,0.3
		l0.6,2.3h1.2c0-1-0.2-2-0.7-2.8l0-0.1l-1.9-2.1h0l0-0.1c-0.8-0.7-1.8-1.1-3-1.6c-1.2-0.4-2.3-0.7-3.4-0.8c-1.1-0.2-2-0.3-2.9-0.3
		l-2.5-0.1H461l-1.3,0.3l-0.2,0.1l-0.8,1.1l-0.1,0.2v24l0.2,0.3l0.1,0.2l0.5,0.3h0.1l0.7,0.2h2.1l0.6-0.2h0.1l0.4-0.2l0.2-0.1
		l0.2-0.4l0-0.1v-9.2h4.9c2.6,0,4.8-0.2,6.6-0.7c1.8-0.4,3.4-0.9,4.7-1.7c1.3-0.8,2.3-1.6,3.1-2.7c0.7-1,1.1-2.3,1.1-3.5H483.6
		 M479.4,406.3h0.6c0-1.2-0.4-2.4-1.2-3.2c-0.8-0.8-1.8-1.5-2.9-1.9c-1.1-0.4-2.2-0.7-3.4-0.8c-1.1-0.1-2.2-0.1-3.2-0.1h-6.6v12.2
		h6.4c1.9,0,3.5-0.1,4.8-0.4c1.3-0.4,2.4-0.8,3.3-1.2l0.1-0.1l2-1.8l0.1-0.1l0.7-2.5l0-0.1v-0.1H479.4l-0.6-0.2l-0.6,2.2l-1.8,1.6
		l0.4,0.5l-0.3-0.5c-0.8,0.4-1.8,0.8-3,1c-1.2,0.3-2.7,0.5-4.5,0.5h-5.2v-9.9h5.4c1,0,2,0.1,3.1,0.2c1.1,0.1,2.1,0.3,3.1,0.7
		c1,0.4,1.7,0.8,2.4,1.6c0.6,0.7,0.9,1.4,0.9,2.4H479.4l-0.6-0.2L479.4,406.3z"/>
	<path class="st3" d="M542.4,411.2c0,2-0.4,3.9-1.2,5.5c-0.8,1.7-1.9,3-3.5,4.2c-1.6,1.1-3.5,2-5.9,2.6c-2.4,0.7-5.1,0.9-8.2,0.9
		c-3.1,0-5.8-0.3-8.1-0.9c-2.3-0.6-4.1-1.4-5.6-2.5c-1.5-1.1-2.5-2.5-3.2-4.1c-0.7-1.6-1-3.4-1-5.5c0-2,0.4-3.8,1.2-5.4
		c0.8-1.6,1.9-3,3.5-4.1c1.6-1.1,3.5-2.1,5.8-2.6c2.3-0.7,5.1-0.9,8.3-0.9c3.1,0,5.7,0.3,8,0.8c2.2,0.7,4.1,1.4,5.6,2.5
		c1.5,1.1,2.6,2.5,3.3,4.1C542,407.5,542.4,409.3,542.4,411.2 M538.1,411.4c0-1.5-0.2-2.9-0.7-4.2c-0.5-1.3-1.2-2.5-2.3-3.4
		c-1.1-0.9-2.5-1.8-4.3-2.3c-1.8-0.6-4-0.8-6.6-0.8c-2.6,0-4.8,0.3-6.6,0.8c-1.8,0.6-3.3,1.3-4.4,2.4c-1.1,0.9-1.9,2.1-2.4,3.4
		c-0.5,1.3-0.7,2.7-0.7,4.1c0,1.6,0.2,3,0.7,4.3c0.4,1.3,1.2,2.5,2.3,3.4c1.1,1,2.5,1.8,4.3,2.4c1.8,0.6,4,0.8,6.7,0.8
		c2.7,0,4.9-0.3,6.7-0.9c1.8-0.6,3.3-1.3,4.4-2.4c1.1-1,1.9-2.2,2.4-3.5C537.9,414.3,538.1,412.9,538.1,411.4z"/>
	<path class="st3" d="M542.4,411.2h-0.6c0,2-0.4,3.7-1.1,5.2c-0.7,1.6-1.8,2.9-3.3,4.1c-1.5,1-3.4,1.9-5.6,2.5
		c-2.3,0.6-5,0.9-8.1,0.9c-3.1,0-5.8-0.3-7.9-0.9c-2.2-0.6-4-1.3-5.4-2.4c-1.4-1.1-2.4-2.4-3-3.9c-0.7-1.5-1-3.2-1-5.2
		c0-1.9,0.4-3.6,1.1-5.1c0.7-1.5,1.8-2.8,3.3-4c1.5-1,3.4-2,5.6-2.5c2.3-0.7,5-0.9,8.1-0.9c3,0,5.6,0.3,7.8,0.8
		c2.2,0.6,4,1.4,5.4,2.5c1.4,1,2.4,2.3,3.1,3.8c0.7,1.5,1,3.2,1,5.1h1.2c0-2.1-0.4-4-1.1-5.6c-0.7-1.7-1.9-3.1-3.4-4.2
		c-1.5-1.1-3.5-2-5.8-2.6c-2.3-0.6-5-0.8-8.1-0.8c-3.2,0-6,0.3-8.4,0.9c-2.4,0.7-4.4,1.5-6.1,2.7c-1.6,1.2-2.9,2.6-3.7,4.3
		c-0.8,1.7-1.2,3.7-1.2,5.7c0,2.1,0.4,4,1.1,5.7c0.7,1.7,1.9,3.1,3.4,4.3c1.5,1.1,3.5,2,5.8,2.6c2.3,0.6,5.1,0.8,8.2,0.8
		c3.2,0,6-0.3,8.4-0.9c2.4-0.7,4.4-1.5,6.1-2.7c1.6-1.2,2.8-2.7,3.7-4.4c0.8-1.7,1.2-3.7,1.2-5.8H542.4 M538.1,411.4h0.6
		c0-1.5-0.2-3-0.7-4.4c-0.5-1.4-1.3-2.6-2.5-3.7c-1.2-1-2.7-1.8-4.5-2.4c-1.9-0.7-4.1-0.9-6.8-0.9c-2.7,0-4.9,0.4-6.8,0.9
		c-1.9,0.6-3.4,1.4-4.6,2.5c-1.2,1-2.1,2.3-2.6,3.7c-0.5,1.4-0.8,2.8-0.8,4.3c0,1.6,0.2,3.1,0.7,4.5c0.5,1.4,1.3,2.6,2.4,3.7
		c1.1,1,2.6,1.9,4.5,2.5c1.9,0.6,4.1,0.8,6.9,0.8c2.7,0,5-0.3,6.9-0.9c1.9-0.6,3.4-1.4,4.6-2.5c1.2-1.1,2-2.4,2.5-3.8
		c0.5-1.3,0.8-2.8,0.8-4.3h-1.2c0,1.4-0.2,2.7-0.7,4c-0.5,1.2-1.2,2.3-2.2,3.2c-1,0.9-2.4,1.7-4.2,2.3c-1.7,0.6-3.9,0.8-6.5,0.8
		c-2.6,0-4.8-0.3-6.5-0.8c-1.7-0.6-3.1-1.3-4.1-2.2c-1-0.9-1.7-2-2.1-3.2c-0.4-1.3-0.6-2.6-0.6-4.1c0-1.4,0.2-2.6,0.7-4
		c0.5-1.1,1.2-2.3,2.3-3.1c1-0.9,2.4-1.7,4.2-2.3c1.7-0.6,3.9-0.8,6.4-0.8s4.7,0.3,6.4,0.8c1.7,0.5,3.1,1.2,4.1,2.2
		c1,0.8,1.7,2,2.2,3.1c0.4,1.3,0.7,2.6,0.7,4.1H538.1z"/>
	<polyline class="st3" points="605.6,423.8 605.3,424.1 604.7,424.2 604,424.2 602.9,424.3 601.9,424.2 601.1,424.2 600.5,424.1 
		600.2,423.8 590.2,402.9 590.2,402.9 581,423.8 580.8,424.1 580.3,424.2 579.5,424.2 578.4,424.3 577.3,424.2 576.5,424.2 
		575.9,424.1 575.6,423.8 563.6,399.6 563.4,399.2 563.7,398.9 564.3,398.8 565.5,398.7 566.6,398.8 567.3,398.8 567.6,399 
		567.7,399.3 578.4,421.5 578.4,421.5 588.2,399.3 588.3,399 588.7,398.8 589.4,398.8 590.5,398.7 591.4,398.8 592,398.8 592.3,399 
		592.5,399.3 603.1,421.5 603.2,421.5 613.6,399.3 613.7,399 614,398.8 614.6,398.8 615.7,398.7 616.9,398.8 617.5,398.9 
		617.7,399.2 617.6,399.6 605.6,423.8 	"/>
	<polyline class="st3" points="605.6,423.8 605.2,423.3 605,423.5 604.6,423.6 603.9,423.7 601.9,423.7 601.2,423.6 600.8,423.5 
		600.7,423.4 590.6,402.4 589.8,402.4 580.5,423.4 580.4,423.5 580.1,423.6 579.5,423.7 577.4,423.7 576.6,423.6 576.2,423.5 
		576.1,423.4 564.2,399.5 564.1,399.3 564.1,399.3 563.7,398.9 563.8,399.5 564.4,399.4 565.5,399.4 565.5,398.7 565.5,399.4 
		566.6,399.4 567.1,399.5 567.2,399.5 567.2,399.5 578,422.1 578.8,422.1 588.7,399.5 588.7,399.5 588.8,399.5 589.4,399.4 
		591.4,399.4 591.8,399.5 591.9,399.5 592,399.5 602.8,422.1 603.6,422.1 614.1,399.5 614.1,399.5 614.2,399.5 614.7,399.4 
		615.7,399.4 615.7,398.7 615.7,399.4 616.8,399.4 617.2,399.5 617.3,399.5 617.7,399.2 617.2,399 617,399.5 605.1,423.5 
		605.6,423.8 605.2,423.3 605.6,423.8 606.2,424.1 618.2,399.8 618.3,399.3 618.4,399 617.9,398.5 617.8,398.3 617,398.1 
		614.6,398.1 613.9,398.2 613.8,398.2 613.4,398.4 613.3,398.5 613.1,398.9 613,399 602.7,421.2 603.2,421.5 603.2,420.9 
		603.1,420.9 603.1,421.5 603.7,421.2 593,398.9 592.8,398.6 592.7,398.5 592.2,398.3 592.1,398.2 591.5,398.1 589.3,398.1 
		588.6,398.2 588.5,398.2 588.1,398.4 587.9,398.5 587.7,398.9 587.6,398.9 577.8,421.2 578.4,421.5 578.4,420.9 578.4,420.9 
		578.4,421.5 578.9,421.2 568.3,399 568.1,398.7 568,398.5 567.5,398.3 567.4,398.2 566.7,398.1 564.2,398.1 563.5,398.3 
		563.3,398.3 563,398.8 562.8,399 563,399.8 563.1,399.8 575.1,424.2 575.5,424.4 575.6,424.5 576.3,424.8 576.4,424.8 577.3,424.9 
		579.6,424.9 580.3,424.8 580.4,424.8 580.9,424.6 581.1,424.5 581.4,424.2 581.5,424.1 590.7,403.1 590.2,402.9 590.2,403.5 
		590.2,403.5 590.2,402.9 589.7,403.2 599.7,424.2 600.1,424.4 600.2,424.5 600.9,424.7 601,424.8 601.8,424.9 604,424.9 
		604.8,424.8 604.9,424.8 605.5,424.6 605.6,424.5 606,424.2 606.1,424.2 606.2,424.1 605.6,423.8 	"/>
	<polyline class="st3" points="664.1,423.1 664,423.6 663.8,424 663.5,424.2 643.2,424.2 642,424 641.4,422.9 641.4,400 642,399.1 
		643.2,398.8 662.8,398.8 663.2,398.9 663.5,399.1 663.7,399.5 663.8,399.9 663.7,400.4 663.5,400.7 663.2,400.9 662.8,401 
		645.4,401 645.4,409.9 660.8,409.9 661.2,410.2 661.3,410.5 661.4,411 661.3,411.4 661.2,411.7 660.8,411.9 645.4,411.9 
		645.4,422.1 663.5,422.1 663.8,422.4 664,422.6 664.1,423.1 	"/>
	<polyline class="st3" points="664.1,423.1 663.5,423 663.5,423.4 663.4,423.5 663.3,423.6 643.3,423.6 642.4,423.4 642,422.8 
		642,400.2 642.4,399.6 643.3,399.5 663,399.5 663.1,399.5 663.1,399.6 663.2,399.9 663.1,400.2 663.1,400.3 663,400.3 662.7,400.4 
		644.8,400.4 644.8,410.5 660.6,410.5 660.7,410.6 660.8,410.7 660.8,411 660.8,411.1 660.7,411.2 660.6,411.3 644.8,411.3 
		644.8,422.6 663,422.6 663.3,422.7 663.4,422.7 663.5,422.8 663.5,423.2 664.1,423.1 663.5,423 664.1,423.1 664.7,423 664.6,422.5 
		664.6,422.5 664.3,422 664.2,421.9 663.8,421.6 663.7,421.5 663.1,421.5 663.1,421.4 646,421.4 646,412.6 660.4,412.6 660.9,412.5 
		661,412.5 661.4,412.3 661.6,412.2 661.9,411.7 661.9,411.6 662,411 662,411 661.9,410.4 661.9,410.3 661.7,409.8 661.6,409.7 
		661.1,409.4 661,409.4 660.4,409.3 646,409.3 646,401.5 663.3,401.5 663.4,401.4 663.8,401.2 663.9,401.2 664.2,400.7 664.3,400.6 
		664.4,400 664.4,399.9 664.3,399.4 664.3,399.3 664,398.8 663.9,398.7 663.5,398.4 663.4,398.3 662.9,398.2 643.2,398.2 
		641.9,398.5 641.7,398.6 640.9,399.7 640.8,399.9 640.8,423.1 641.5,424.2 641.7,424.4 643.1,424.8 663.1,424.8 663.6,424.7 
		663.7,424.7 664.1,424.4 664.2,424.3 664.5,423.9 664.6,423.8 664.7,423.2 664.7,423.1 664.7,423 664.1,423.1 	"/>
	<path class="st3" d="M715.7,423.8l-0.1,0.2l-0.3,0.2l-0.6,0.1l-1,0.1l-0.9-0.1l-0.6-0.1l-0.4-0.2l-0.3-0.4l-3.9-6.2l-1.5-2
		l-1.9-1.5c-0.7-0.5-1.6-0.8-2.7-1.1c-1-0.2-2.3-0.4-3.8-0.4h-4.4v11.4l-0.1,0.3l-0.3,0.1l-0.6,0.1l-1,0.1l-0.9-0.1l-0.6-0.1
		l-0.3-0.1l-0.1-0.3V400l0.6-0.9l1.2-0.3h7.9c1,0,1.9,0.1,2.6,0.1l1.9,0.1c1.6,0.2,3,0.5,4.2,0.8c1.2,0.4,2.2,0.8,3,1.4l1.7,1.9
		l0.6,2.3l-0.6,2.3l-1.7,1.7c-0.7,0.6-1.6,0.9-2.6,1.3c-1,0.4-2.1,0.7-3.3,0.9l1.9,0.7l1.6,1.1l1.4,1.3l1.3,1.8l4,5.9l0.5,0.9
		L715.7,423.8 M708.7,405.7c0-1.1-0.4-2.1-1.2-2.8c-0.8-0.8-2.2-1.2-4.1-1.6l-2.1-0.2c-0.7-0.1-1.7-0.1-2.9-0.1h-5.2v9.3h6.1
		c1.6,0,3-0.1,4.2-0.4c1.2-0.3,2.1-0.6,2.9-0.9l1.7-1.5L708.7,405.7z"/>
	<path class="st3" d="M715.7,423.8l-0.6-0.2h0l-0.5,0.1h-1.8l-0.5-0.1l-0.2-0.1l-0.2-0.3l-3.9-6.1h0l-1.5-2l0-0.1l-2-1.6l0-0.1h0
		c-0.8-0.5-1.8-0.8-2.8-1.1c-1.1-0.3-2.4-0.4-3.9-0.4h-5v11.9l0,0.1l0.5,0.3l-0.3-0.6l-0.3,0.1l-0.5,0.1h-1.8l-0.5-0.1h-0.1
		l-0.5,0.2h0.6v-23.6l0.4-0.6l0.9-0.2h7.9c1,0,1.9,0,2.6,0l1.9,0.2l0-0.7l-0.1,0.7c1.6,0.1,3,0.4,4.1,0.8c1.2,0.4,2.1,0.8,2.8,1.3
		l0.3-0.5l-0.4,0.4l1.6,1.8l0.5,2l-0.5,1.9l-1.6,1.7l0.4,0.4l-0.3-0.5c-0.7,0.5-1.5,0.8-2.5,1.2c-1,0.4-2,0.7-3.2,0.9l-2,0.4
		l3.8,1.4l1.5,0.9l1.3,1.3l1.3,1.8l3.9,5.8l0.5,0.8l0.1,0.4L715.7,423.8l-0.6-0.2L715.7,423.8l0.6-0.2l-0.1-0.4l0-0.1l-0.6-0.9h0
		l-4-5.9l0-0.1l-1.3-1.7l0-0.1l-1.4-1.4h0l-1.6-1.1h-0.1l-2-0.8l-0.2,0.6l0.1,0.6c1.2-0.3,2.3-0.6,3.4-0.9c1-0.4,2-0.8,2.7-1.4h0.1
		l1.7-1.8l0.1-0.1l0.6-2.5l0-0.1l-0.6-2.5l0-0.1l-1.8-2l0-0.1h0c-0.8-0.7-1.9-1.1-3.1-1.5c-1.2-0.4-2.7-0.7-4.3-0.8h0l-1.9-0.1
		c-0.7-0.1-1.6-0.1-2.6-0.1h-8l-1.3,0.3l-0.2,0.1l-0.8,1.1l-0.1,0.2v24l0.2,0.3l0.1,0.2l0.5,0.3h0.1l0.7,0.2h2.1l0.6-0.2h0.1
		l0.4-0.2l0.2-0.1l0.2-0.4l0-0.1v-11h3.8c1.4,0,2.6,0.2,3.6,0.4c1,0.3,1.8,0.7,2.5,1l0.3-0.5l-0.4,0.4l1.8,1.6l1.4,1.9l3.9,6.1h0
		l0.3,0.5h0.1l0.5,0.4h0.1l0.7,0.2h2.1l0.7-0.2h0.1l0.4-0.2l0.2-0.1l0.2-0.5l0.1-0.2l-0.1-0.2L715.7,423.8 M708.7,405.7h0.6
		c0-1.3-0.5-2.4-1.4-3.2c-1-0.9-2.4-1.4-4.4-1.8h0l-2.1-0.2h0c-0.8-0.1-1.7-0.1-2.9-0.1h-5.8v10.5h6.7c1.7,0,3.1-0.1,4.3-0.4
		c1.2-0.2,2.2-0.6,3.1-1h0.1l1.8-1.5l0.1-0.2l0.6-2l0-0.1H708.7l-0.6-0.2l-0.5,1.6l-1.6,1.4l0.4,0.5l-0.3-0.6
		c-0.7,0.4-1.6,0.7-2.8,0.9c-1.1,0.2-2.5,0.4-4.1,0.4h-5.5v-8.2h4.6c1.2,0,2.1,0.1,2.9,0.1l0-0.6l-0.1,0.6l2.1,0.2l0.1-0.6l-0.1,0.6
		c1.8,0.4,3.1,0.8,3.8,1.5c0.7,0.7,1,1.4,1,2.4H708.7l-0.6-0.2L708.7,405.7z"/>
	<path class="st3" d="M791.7,417.4c0,1.1-0.3,2.1-1,3c-0.7,0.8-1.6,1.6-2.8,2.3c-1.2,0.6-2.7,1-4.3,1.4c-1.7,0.3-3.5,0.5-5.5,0.5
		c-1.3,0-2.6-0.1-3.8-0.2c-1.2-0.2-2.3-0.4-3.2-0.6c-0.9-0.2-1.7-0.5-2.4-0.7l-1.3-0.6l-0.5-0.5l-0.2-0.8l0.1-0.6l0.2-0.4l0.3-0.2
		h0.4l1.3,0.3c0.6,0.3,1.3,0.5,2.2,0.8c0.9,0.3,1.9,0.6,3.2,0.8c1.2,0.2,2.7,0.4,4.3,0.4c1.3,0,2.5-0.1,3.7-0.4
		c1.1-0.2,2.1-0.5,2.9-0.9l1.9-1.4l0.7-2.1l-0.9-2c-0.6-0.6-1.3-1.1-2.2-1.5c-0.9-0.5-2-0.8-3.2-1.1c-1.2-0.4-2.4-0.8-3.6-1
		c-1.2-0.4-2.4-0.8-3.6-1.1c-1.2-0.5-2.2-0.9-3.2-1.4c-0.9-0.6-1.7-1.2-2.2-2c-0.6-0.7-0.8-1.6-0.8-2.5c0-1,0.3-1.9,0.9-2.6
		c0.6-0.8,1.4-1.5,2.5-2c1.1-0.6,2.3-0.9,3.8-1.3c1.5-0.3,3.1-0.4,4.9-0.4c0.9,0,1.8,0,2.7,0.2c0.9,0.1,1.8,0.2,2.6,0.4l2.2,0.6
		l1.3,0.5l0.4,0.3l0.1,0.2l0.1,0.4l0,0.4l0,0.5l-0.2,0.4l-0.2,0.2l-0.3,0.1l-1.1-0.3l-1.8-0.6c-0.7-0.3-1.6-0.5-2.6-0.7
		c-1-0.2-2.2-0.3-3.5-0.3c-1.3,0-2.4,0.1-3.4,0.3c-1,0.2-1.8,0.5-2.4,0.8l-1.4,1.3l-0.5,1.5l0.9,2c0.6,0.6,1.3,1,2.3,1.5
		c0.9,0.5,2,0.8,3.2,1.1c1.2,0.4,2.4,0.8,3.6,1c1.2,0.4,2.4,0.8,3.6,1.1c1.2,0.4,2.3,0.8,3.2,1.4c0.9,0.6,1.7,1.2,2.3,1.9
		C791.4,415.5,791.7,416.3,791.7,417.4"/>
	<path class="st3" d="M791.7,417.4h-0.6c0,0.9-0.3,1.8-0.9,2.6c-0.6,0.8-1.5,1.5-2.6,2.1c-1.2,0.6-2.6,1-4.2,1.4
		c-1.6,0.3-3.4,0.5-5.4,0.5c-1.3,0-2.6-0.1-3.8-0.3c-1.2-0.1-2.2-0.3-3.1-0.5c-0.9-0.3-1.7-0.5-2.3-0.7l-0.2,0.6l0.2-0.6l-1.2-0.5
		l-0.3-0.3l-0.1-0.6l0-0.3l0-0.1l0.1-0.1h0.1l1.2,0.3l0.2-0.6l-0.2,0.6c0.6,0.3,1.3,0.5,2.2,0.8c0.9,0.3,2,0.6,3.2,0.8
		c1.3,0.3,2.7,0.4,4.4,0.4c1.4,0,2.6-0.1,3.8-0.4c1.2-0.2,2.2-0.5,3-0.9h0.1l1.9-1.6l0.1-0.1l0.7-2.2l0.1-0.2l-0.9-2.3l0-0.1
		l-0.1-0.1c-0.6-0.7-1.4-1.1-2.4-1.6c-1-0.5-2-0.8-3.2-1.1c-1.2-0.4-2.4-0.8-3.6-1c-1.2-0.4-2.4-0.8-3.6-1.1c-1.1-0.4-2.2-0.8-3-1.4
		c-0.9-0.5-1.6-1.1-2.1-1.8c-0.5-0.6-0.7-1.3-0.7-2.2c0-0.9,0.2-1.6,0.8-2.4c0.5-0.7,1.3-1.2,2.3-1.8c1-0.5,2.2-0.8,3.7-1.1
		c1.5-0.3,3.1-0.5,4.8-0.5c0.9,0,1.8,0.1,2.6,0.2c0.9,0.1,1.7,0.2,2.5,0.4l0.1-0.6l-0.1,0.6l2.2,0.6l1.2,0.4l0.2,0.2l0,0.1l0.1,0.2
		l0,0.3l0,0.4l-0.1,0.1l0,0.1h0l-0.9-0.3l-1.8-0.6c-0.8-0.3-1.7-0.5-2.7-0.7c-1.1-0.2-2.3-0.4-3.6-0.4c-1.3,0-2.5,0.2-3.5,0.4
		c-1,0.2-1.9,0.5-2.6,0.9h0l-1.5,1.3l-0.1,0.1l-0.5,1.7l-0.1,0.2l0.9,2.3l0,0.1l0.1,0.1c0.6,0.6,1.4,1.1,2.4,1.6
		c1,0.4,2.1,0.8,3.3,1.1c1.2,0.4,2.4,0.8,3.6,1c1.2,0.4,2.4,0.8,3.6,1.1c1.2,0.4,2.2,0.8,3.1,1.4c0.9,0.5,1.6,1,2.1,1.7
		c0.5,0.7,0.7,1.3,0.7,2.3h1.2c0-1.1-0.3-2.2-1-3c-0.6-0.8-1.4-1.4-2.4-2c-1-0.6-2.1-1-3.3-1.5c-1.2-0.4-2.4-0.8-3.7-1.1
		c-1.2-0.3-2.4-0.7-3.6-1c-1.2-0.3-2.2-0.7-3.1-1.1c-0.9-0.4-1.6-0.8-2.1-1.3l-0.4,0.4l0.5-0.2l-0.8-1.9l0.4-1.1l1.3-1.1l-0.4-0.5
		l0.3,0.6c0.6-0.4,1.3-0.7,2.2-0.8c0.9-0.2,2-0.3,3.2-0.3c1.3,0,2.4,0.1,3.4,0.3c1,0.2,1.9,0.4,2.6,0.7l1.8,0.6h0l1.1,0.3l0.1,0.1
		l0.5-0.1l0.2-0.1l0.4-0.3l0.1-0.1l0.2-0.5l0-0.1l0.1-0.6h0l0-0.6l0-0.1l-0.1-0.4l0-0.1l-0.2-0.3l-0.1-0.1l-0.5-0.3l-0.1-0.1
		l-1.3-0.5h0l-2.2-0.6h0c-0.8-0.2-1.7-0.4-2.6-0.5c-0.9-0.1-1.9-0.1-2.8-0.1c-1.8,0-3.5,0.1-5,0.4c-1.5,0.3-2.9,0.8-4,1.3
		c-1.1,0.6-2,1.3-2.7,2.2c-0.7,0.8-1,1.9-1,3c0,1,0.3,2.1,1,2.9c0.6,0.8,1.4,1.5,2.4,2.1c1,0.6,2,1,3.3,1.5c1.2,0.4,2.4,0.8,3.6,1.1
		c1.2,0.3,2.4,0.7,3.6,1c1.2,0.3,2.2,0.7,3.1,1.1c0.9,0.4,1.6,0.8,2.1,1.3l0.4-0.4l-0.5,0.2l0.8,1.8l-0.5,1.7l-1.7,1.4l0.4,0.4
		l-0.3-0.5c-0.7,0.4-1.7,0.7-2.7,0.8c-1.1,0.2-2.2,0.3-3.5,0.3c-1.6,0-3-0.1-4.2-0.3c-1.2-0.3-2.3-0.5-3.1-0.8
		c-0.9-0.3-1.6-0.5-2.1-0.8h0l-1.3-0.4h-0.1l-0.5,0.1h-0.1l-0.4,0.3l-0.1,0.1l-0.3,0.5l0,0.1l-0.1,0.7l0,0.1l0.2,0.8l0,0.2l0.7,0.7
		l0.1,0.1l1.4,0.6h0c0.7,0.2,1.5,0.5,2.4,0.7c1,0.2,2,0.4,3.3,0.6c1.2,0.1,2.5,0.2,3.9,0.2c2,0,3.9-0.2,5.6-0.5
		c1.7-0.4,3.2-0.8,4.5-1.5c1.3-0.7,2.3-1.4,3-2.4c0.7-1,1.1-2.2,1.1-3.4H791.7"/>
	<polyline class="st3" points="827.3,414.2 827.3,423.8 827.2,424.1 826.9,424.2 826.2,424.2 825.3,424.3 824.3,424.2 823.7,424.2 
		823.4,424.1 823.3,423.8 823.3,414.2 811.1,399.6 810.8,399.2 811,398.9 811.6,398.8 812.7,398.7 813.8,398.8 814.5,398.8 815,399 
		815.2,399.3 821.7,407.1 823.5,409.4 825.3,411.8 825.4,411.8 827.1,409.5 828.9,407.2 835.4,399.3 835.7,399 836,398.8 
		836.6,398.8 837.6,398.7 838.8,398.8 839.5,398.9 839.7,399.2 839.4,399.6 827.3,414.2 	"/>
	<polyline class="st3" points="827.3,414.2 826.7,414.2 826.7,423.7 826.6,423.8 827.2,424.1 826.9,423.5 826.7,423.6 826.2,423.7 
		824.4,423.7 823.9,423.6 823.8,423.6 823.3,423.8 823.9,423.8 823.9,414 811.6,399.3 811.4,398.9 810.8,399.2 811.4,399.5 
		811.4,399.5 811.7,399.4 812.7,399.4 812.7,398.7 812.7,399.4 813.8,399.4 814.4,399.5 814.6,399.5 814.8,399.6 821.2,407.5 
		823,409.8 824.8,412.2 825,412.5 825.7,412.5 827.6,409.8 829.4,407.6 828.9,407.2 829.4,407.6 835.9,399.6 836,399.5 836.2,399.5 
		836.7,399.4 838.8,399.4 839.2,399.5 839.2,399.5 839.7,399.2 839.2,398.9 838.9,399.3 826.7,414 826.7,414.2 827.3,414.2 
		827.7,414.5 839.9,400 840.2,399.5 840.4,399.2 840,398.6 839.9,398.4 839,398.1 836.6,398.1 836,398.2 835.9,398.2 835.4,398.4 
		835.3,398.5 835,398.8 835,398.8 828.4,406.8 828.4,406.8 826.6,409.2 824.9,411.5 825.4,411.8 825.4,411.2 825.3,411.2 
		825.3,411.8 825.8,411.5 824,409.1 822.2,406.7 815.6,398.8 815.3,398.5 815.3,398.5 814.8,398.3 814.7,398.2 813.9,398.1 
		811.5,398.1 810.8,398.3 810.6,398.4 810.3,398.9 810.2,399.2 810.6,399.9 810.6,400 822.7,414.4 822.7,424 822.8,424.2 
		822.9,424.4 823.4,424.7 823.5,424.7 824.2,424.9 826.3,424.9 826.9,424.7 827,424.7 827.4,424.5 827.6,424.4 827.8,424.1 
		827.9,424 827.9,414.2 827.3,414.2 827.7,414.5 827.3,414.2 	"/>
	<path class="st3" d="M883.7,417.4c0,1.1-0.3,2.1-1,3c-0.7,0.8-1.6,1.6-2.8,2.3c-1.2,0.6-2.7,1-4.3,1.4c-1.7,0.3-3.5,0.5-5.5,0.5
		c-1.3,0-2.6-0.1-3.8-0.2c-1.2-0.2-2.3-0.4-3.2-0.6c-0.9-0.2-1.7-0.5-2.4-0.7l-1.3-0.6l-0.5-0.5l-0.2-0.8l0.1-0.6l0.2-0.4l0.3-0.2
		h0.4l1.3,0.3c0.6,0.3,1.3,0.5,2.2,0.8c0.9,0.3,1.9,0.6,3.2,0.8c1.2,0.2,2.7,0.4,4.3,0.4c1.3,0,2.5-0.1,3.7-0.4
		c1.1-0.2,2.1-0.5,2.9-0.9l1.9-1.4l0.7-2.1l-0.8-2c-0.6-0.6-1.3-1.1-2.2-1.5c-0.9-0.5-2-0.8-3.2-1.1c-1.2-0.4-2.4-0.8-3.6-1
		c-1.2-0.4-2.4-0.8-3.6-1.1c-1.2-0.5-2.2-0.9-3.2-1.4c-0.9-0.6-1.7-1.2-2.2-2c-0.6-0.7-0.8-1.6-0.8-2.5c0-1,0.3-1.9,0.9-2.6
		c0.6-0.8,1.4-1.5,2.5-2c1.1-0.6,2.3-0.9,3.8-1.3c1.5-0.3,3.1-0.4,4.9-0.4c0.9,0,1.8,0,2.7,0.2c0.9,0.1,1.8,0.2,2.6,0.4l2.2,0.6
		l1.3,0.5l0.4,0.3l0.2,0.2l0.1,0.4l0,0.4l0,0.5l-0.2,0.4l-0.2,0.2l-0.3,0.1l-1.1-0.3l-1.8-0.6c-0.7-0.3-1.6-0.5-2.6-0.7
		c-1-0.2-2.2-0.3-3.5-0.3c-1.3,0-2.4,0.1-3.4,0.3c-1,0.2-1.8,0.5-2.4,0.8l-1.4,1.3l-0.5,1.5l0.9,2c0.6,0.6,1.3,1,2.3,1.5
		c0.9,0.5,2,0.8,3.2,1.1c1.2,0.4,2.4,0.8,3.6,1c1.2,0.4,2.4,0.8,3.6,1.1c1.2,0.4,2.3,0.8,3.2,1.4c0.9,0.6,1.7,1.2,2.3,1.9
		C883.4,415.5,883.7,416.3,883.7,417.4"/>
	<path class="st3" d="M883.7,417.4h-0.6c0,0.9-0.3,1.8-0.9,2.6c-0.6,0.8-1.5,1.5-2.6,2.1c-1.2,0.6-2.6,1-4.2,1.4
		c-1.6,0.3-3.4,0.5-5.4,0.5c-1.3,0-2.6-0.1-3.8-0.3c-1.2-0.1-2.2-0.3-3.1-0.5c-0.9-0.3-1.7-0.5-2.3-0.7l-0.2,0.6l0.2-0.6l-1.2-0.5
		l-0.3-0.3l-0.1-0.6l0-0.3l0.1-0.1l0-0.1h0.1l1.2,0.3l0.2-0.6l-0.2,0.6c0.6,0.3,1.3,0.5,2.2,0.8c0.9,0.3,2,0.6,3.2,0.8
		c1.3,0.3,2.7,0.4,4.4,0.4c1.4,0,2.6-0.1,3.8-0.4c1.2-0.2,2.2-0.5,3-0.9h0.1l1.9-1.6l0.1-0.1l0.7-2.2l0.1-0.2l-0.9-2.3l0-0.1
		l-0.1-0.1c-0.6-0.7-1.4-1.1-2.4-1.6c-1-0.5-2-0.8-3.2-1.1c-1.2-0.4-2.4-0.8-3.6-1c-1.2-0.4-2.4-0.8-3.6-1.1c-1.1-0.4-2.2-0.8-3-1.4
		c-0.9-0.5-1.6-1.1-2.1-1.8c-0.5-0.6-0.7-1.3-0.7-2.2c0-0.9,0.2-1.6,0.8-2.4c0.5-0.7,1.3-1.2,2.3-1.8c1-0.5,2.2-0.8,3.7-1.1
		c1.5-0.3,3.1-0.5,4.8-0.5c0.9,0,1.8,0.1,2.6,0.2c0.9,0.1,1.7,0.2,2.5,0.4l0.1-0.6l-0.1,0.6l2.1,0.6l1.2,0.4l0.2,0.2l0,0.1l0.1,0.2
		l0,0.3l0,0.4l-0.1,0.1l0,0.1h0l-0.9-0.3l-1.8-0.6c-0.8-0.3-1.7-0.5-2.7-0.7c-1.1-0.2-2.3-0.4-3.6-0.4c-1.3,0-2.5,0.2-3.5,0.4
		c-1,0.2-1.9,0.5-2.6,0.9h0l-1.5,1.3l-0.1,0.1l-0.5,1.7l-0.1,0.2l0.9,2.3l0,0.1l0.1,0.1c0.6,0.6,1.4,1.1,2.4,1.6
		c1,0.4,2.1,0.8,3.3,1.1c1.2,0.4,2.4,0.8,3.6,1c1.2,0.4,2.4,0.8,3.6,1.1c1.2,0.4,2.2,0.8,3.1,1.4c0.9,0.5,1.6,1,2.1,1.7
		c0.5,0.7,0.7,1.3,0.7,2.3h1.2c0-1.1-0.3-2.2-1-3c-0.6-0.8-1.4-1.4-2.4-2c-1-0.6-2.1-1-3.3-1.5c-1.2-0.4-2.4-0.8-3.7-1.1
		c-1.2-0.3-2.4-0.7-3.6-1c-1.2-0.3-2.2-0.7-3.1-1.1c-0.9-0.4-1.6-0.8-2.1-1.3l-0.4,0.4l0.5-0.2l-0.8-1.9l0.4-1.1l1.3-1.1l-0.4-0.5
		l0.3,0.6c0.6-0.4,1.3-0.7,2.2-0.8c0.9-0.2,2-0.3,3.2-0.3c1.3,0,2.4,0.1,3.4,0.3c1,0.2,1.9,0.4,2.6,0.7l1.8,0.6h0l1.1,0.3l0.1,0.1
		l0.5-0.1l0.2-0.1l0.4-0.3l0.1-0.1l0.2-0.5l0-0.1l0.1-0.6l0-0.6l0-0.1l-0.1-0.4l0-0.1l-0.2-0.3l-0.1-0.1l-0.5-0.3l0-0.1l-1.3-0.5h0
		l-2.2-0.6h0c-0.8-0.2-1.7-0.4-2.6-0.5c-0.9-0.1-1.9-0.1-2.8-0.1c-1.8,0-3.5,0.1-5,0.4c-1.5,0.3-2.9,0.8-4,1.3
		c-1.1,0.6-2,1.3-2.7,2.2c-0.7,0.8-1,1.9-1,3c0,1,0.3,2.1,1,2.9c0.6,0.8,1.4,1.5,2.4,2.1c1,0.6,2.1,1,3.3,1.5
		c1.2,0.4,2.4,0.8,3.6,1.1c1.2,0.3,2.4,0.7,3.6,1c1.2,0.3,2.2,0.7,3.1,1.1c0.9,0.4,1.6,0.8,2.1,1.3l0.4-0.4l-0.5,0.2l0.8,1.8
		l-0.5,1.7l-1.7,1.4l0.4,0.4l-0.3-0.5c-0.7,0.4-1.6,0.7-2.7,0.8c-1.1,0.2-2.2,0.3-3.5,0.3c-1.6,0-3-0.1-4.2-0.3
		c-1.2-0.3-2.3-0.5-3.1-0.8c-0.9-0.3-1.6-0.5-2.1-0.8h0l-1.3-0.4h-0.1l-0.5,0.1h-0.1l-0.4,0.3l-0.1,0.1l-0.3,0.5l0,0.1l-0.1,0.7
		l0,0.1l0.2,0.8l0,0.2l0.7,0.7l0.1,0.1l1.4,0.6h0c0.7,0.2,1.5,0.5,2.4,0.7c1,0.2,2,0.4,3.3,0.6c1.2,0.1,2.5,0.2,3.9,0.2
		c2,0,3.9-0.2,5.6-0.5c1.7-0.4,3.2-0.8,4.5-1.5c1.3-0.7,2.3-1.4,3-2.4c0.7-1,1.1-2.2,1.1-3.4H883.7"/>
	<polyline class="st3" points="933.3,399.9 933.3,400.4 933.1,400.7 932.8,400.9 932.3,401 919.7,401 919.7,423.8 919.6,424.1 
		919.3,424.2 918.7,424.2 917.7,424.3 916.8,424.2 916.2,424.2 915.8,424.1 915.7,423.8 915.7,401 903.1,401 902.7,400.9 
		902.4,400.7 902.2,400.4 902.1,399.9 902.2,399.5 902.4,399.1 902.7,398.9 903.1,398.8 932.3,398.8 932.8,398.9 933.1,399.1 
		933.3,399.5 933.3,399.9 	"/>
	<polyline class="st3" points="933.3,399.9 932.8,399.8 932.7,400.2 932.7,400.3 932.6,400.3 932.3,400.4 919.1,400.4 919.1,423.7 
		919.1,423.8 919.6,424.1 919.4,423.5 919.1,423.6 918.6,423.7 916.8,423.7 916.3,423.6 916.3,423.6 915.7,423.8 916.3,423.8 
		916.3,400.4 903.2,400.4 902.9,400.3 902.8,400.3 902.7,400.2 902.7,399.9 902.7,399.6 902.8,399.5 902.9,399.5 932.5,399.5 
		932.6,399.5 932.7,399.6 932.8,400 933.3,399.9 932.8,399.8 933.3,399.9 933.9,399.8 933.9,399.4 933.9,399.3 933.6,398.8 
		933.5,398.7 933.1,398.4 933,398.3 932.4,398.2 903.1,398.2 902.6,398.3 902.4,398.3 902,398.6 901.9,398.7 901.7,399.2 
		901.6,399.3 901.5,399.8 901.5,399.9 901.6,400.5 901.6,400.6 901.9,401.1 901.9,401.2 902.3,401.4 902.5,401.4 903,401.5 
		915.1,401.5 915.1,424 915.3,424.2 915.4,424.4 915.9,424.7 916,424.7 916.7,424.9 918.7,424.9 919.4,424.7 919.5,424.7 
		919.9,424.5 920.1,424.4 920.3,424.1 920.3,424 920.3,401.5 932.8,401.5 933,401.4 933.4,401.2 933.5,401.2 933.8,400.7 
		933.9,400.6 933.9,400 933.9,399.9 933.9,399.8 933.3,399.9 	"/>
	<polyline class="st3" points="977.9,423.1 977.8,423.6 977.6,424 977.3,424.2 957.1,424.2 955.8,424 955.2,422.9 955.2,400 
		955.8,399.1 957.1,398.8 976.6,398.8 977,398.9 977.3,399.1 977.5,399.5 977.6,399.9 977.5,400.4 977.3,400.7 977,400.9 976.6,401 
		959.2,401 959.2,409.9 974.6,409.9 975,410.2 975.2,410.5 975.2,411 975.2,411.4 975,411.7 974.6,411.9 959.2,411.9 959.2,422.1 
		977.3,422.1 977.6,422.4 977.8,422.6 977.9,423.1 	"/>
	<polyline class="st3" points="977.9,423.1 977.3,423 977.3,423.4 977.2,423.5 977.1,423.6 957.1,423.6 956.2,423.4 955.8,422.8 
		955.8,400.2 956.2,399.6 957.1,399.5 976.8,399.5 976.9,399.5 976.9,399.6 977,399.9 976.9,400.2 976.9,400.3 976.8,400.3 
		976.5,400.4 958.6,400.4 958.6,410.5 974.4,410.5 974.5,410.6 974.6,410.7 974.6,411 974.6,411.1 974.5,411.2 974.5,411.3 
		958.6,411.3 958.6,422.6 976.8,422.6 977.1,422.7 977.2,422.7 977.3,422.8 977.3,423.2 977.9,423.1 977.3,423 977.9,423.1 
		978.5,423 978.4,422.5 978.4,422.5 978.1,422 978.1,421.9 977.6,421.6 977.5,421.5 976.9,421.5 976.9,421.4 959.8,421.4 
		959.8,412.6 974.2,412.6 974.7,412.5 974.8,412.5 975.2,412.3 975.4,412.2 975.7,411.7 975.7,411.6 975.8,411 975.8,411 
		975.7,410.4 975.7,410.3 975.5,409.8 975.4,409.7 974.9,409.4 974.8,409.4 974.3,409.3 959.8,409.3 959.8,401.5 977.1,401.5 
		977.2,401.4 977.6,401.2 977.7,401.2 978,400.7 978.1,400.6 978.2,400 978.2,399.9 978.1,399.4 978.1,399.3 977.8,398.8 
		977.8,398.7 977.3,398.4 977.2,398.3 976.7,398.2 957,398.2 955.7,398.5 955.5,398.6 954.7,399.7 954.6,399.9 954.6,423.1 
		955.3,424.2 955.5,424.4 956.9,424.8 976.9,424.8 977.4,424.7 977.5,424.7 977.9,424.4 978.1,424.3 978.3,423.9 978.4,423.8 
		978.5,423.2 978.5,423.1 978.5,423 977.9,423.1 	"/>
	<polyline class="st3" points="1047.3,423.8 1047.2,424.1 1046.8,424.2 1046.2,424.2 1045.2,424.3 1044.3,424.2 1043.7,424.2 
		1043.4,424.1 1043.3,423.8 1043.3,401 1043.2,401 1026.6,424 1026.4,424.1 1026,424.2 1025.5,424.2 1024.7,424.3 1024,424.2 
		1023.4,424.2 1023.1,424.1 1022.9,424 1007.1,401 1007.1,401 1007.1,423.8 1007,424.1 1006.6,424.2 1006,424.2 1005,424.3 
		1004.1,424.2 1003.5,424.2 1003.2,424.1 1003.1,423.8 1003.1,400 1003.7,399.1 1004.9,398.8 1007.1,398.8 1008.5,399 1009.6,399.3 
		1010.4,399.7 1011,400.4 1024.9,420.6 1025.1,420.6 1039.7,400.5 1040.4,399.7 1041.1,399.2 1042,398.9 1043.1,398.8 1045.4,398.8 
		1046.1,398.9 1046.6,399.1 1047.1,399.5 1047.3,400 1047.3,423.8 	"/>
	<polyline class="st3" points="1047.3,423.8 1046.7,423.6 1046.7,423.6 1046.1,423.7 1044.4,423.7 1043.9,423.6 1043.8,423.6 
		1043.3,423.8 1043.9,423.8 1043.9,400.3 1042.9,400.3 1026.1,423.5 1026.1,423.6 1025.9,423.6 1025.4,423.7 1024,423.7 
		1023.6,423.6 1023.4,423.6 1023.4,423.5 1007.4,400.3 1006.5,400.3 1006.5,423.7 1006.4,423.8 1007,424.1 1006.7,423.5 
		1006.5,423.6 1005.9,423.7 1004.1,423.7 1003.7,423.6 1003.6,423.6 1003.1,423.8 1003.7,423.8 1003.7,400.2 1004.1,399.6 
		1005,399.5 1007.1,399.5 1008.4,399.5 1009.4,399.8 1010,400.2 1010.5,400.8 1024.6,421.1 1025.4,421.1 1040.1,400.9 1040.7,400.1 
		1041.4,399.7 1042.1,399.5 1043.1,399.5 1045.9,399.5 1046.3,399.6 1046.6,399.8 1046.7,400.1 1046.7,423.8 1047.3,423.8 
		1046.7,423.6 1047.3,423.8 1047.9,423.8 1047.9,400 1047.7,399.3 1047.6,399.2 1047,398.6 1047,398.6 1046.3,398.3 1046.2,398.3 
		1045.5,398.2 1043,398.2 1042,398.3 1041.9,398.3 1041,398.6 1040.9,398.6 1040,399.2 1040,399.3 1039.2,400.1 1039.2,400.1 
		1024.6,420.2 1025.1,420.6 1025.1,420 1024.9,420 1024.9,420.6 1025.4,420.2 1011.5,400 1010.8,399.4 1010.8,399.3 1009.9,398.8 
		1009.8,398.7 1008.7,398.4 1008.6,398.3 1007.1,398.2 1004.8,398.2 1003.6,398.5 1003.3,398.6 1002.6,399.7 1002.5,399.9 
		1002.5,423.9 1002.6,424.2 1002.7,424.4 1003.2,424.7 1003.3,424.7 1004,424.9 1006.1,424.9 1006.7,424.7 1006.8,424.7 
		1007.2,424.5 1007.4,424.4 1007.6,424.1 1007.7,424 1007.7,401 1007.1,401 1007.1,401.5 1007.1,401.5 1007.1,401 1006.6,401.2 
		1022.5,424.3 1022.7,424.5 1022.8,424.6 1023.2,424.7 1023.3,424.8 1023.9,424.9 1025.5,424.9 1026.1,424.8 1026.2,424.8 
		1026.6,424.6 1026.7,424.6 1026.9,424.4 1027,424.3 1043.7,401.2 1043.2,401 1043.2,401.5 1043.3,401.5 1043.3,401 1042.7,401 
		1042.7,424 1042.8,424.2 1042.9,424.4 1043.5,424.7 1043.5,424.7 1044.2,424.9 1046.3,424.9 1046.9,424.7 1047,424.7 1047.4,424.5 
		1047.6,424.4 1047.8,424.1 1047.9,424 1047.9,423.8 1047.3,423.8 	"/>
	<path class="st3" d="M1096.2,417.4c0,1.1-0.3,2.1-1,3c-0.7,0.8-1.6,1.6-2.8,2.3c-1.2,0.6-2.7,1-4.4,1.4c-1.7,0.3-3.5,0.5-5.5,0.5
		c-1.3,0-2.6-0.1-3.8-0.2c-1.2-0.2-2.3-0.4-3.2-0.6c-0.9-0.2-1.7-0.5-2.4-0.7l-1.3-0.6l-0.5-0.5l-0.2-0.8l0.1-0.6l0.2-0.4l0.3-0.2
		h0.4l1.3,0.3c0.6,0.3,1.3,0.5,2.2,0.8c0.9,0.3,1.9,0.6,3.2,0.8c1.2,0.2,2.7,0.4,4.3,0.4c1.3,0,2.6-0.1,3.7-0.4
		c1.1-0.2,2.1-0.5,2.9-0.9l1.9-1.4l0.7-2.1l-0.8-2c-0.6-0.6-1.3-1.1-2.2-1.5c-0.9-0.5-2-0.8-3.2-1.1c-1.2-0.4-2.4-0.8-3.6-1
		c-1.2-0.4-2.4-0.8-3.6-1.1c-1.2-0.5-2.2-0.9-3.1-1.4c-0.9-0.6-1.7-1.2-2.2-2c-0.6-0.7-0.8-1.6-0.8-2.5c0-1,0.3-1.9,0.9-2.6
		c0.6-0.8,1.4-1.5,2.5-2c1.1-0.6,2.3-0.9,3.8-1.3c1.5-0.3,3.1-0.4,4.9-0.4c0.9,0,1.8,0,2.7,0.2c0.9,0.1,1.8,0.2,2.6,0.4l2.2,0.6
		l1.3,0.5l0.4,0.3l0.2,0.2l0.1,0.4l0,0.4l-0.1,0.5l-0.1,0.4l-0.2,0.2l-0.3,0.1l-1.1-0.3l-1.8-0.6c-0.7-0.3-1.6-0.5-2.6-0.7
		c-1-0.2-2.2-0.3-3.5-0.3c-1.3,0-2.4,0.1-3.4,0.3c-1,0.2-1.8,0.5-2.4,0.8l-1.4,1.3l-0.5,1.5l0.8,2c0.6,0.6,1.3,1,2.3,1.5
		c0.9,0.5,2,0.8,3.2,1.1c1.2,0.4,2.4,0.8,3.6,1c1.2,0.4,2.4,0.8,3.6,1.1s2.3,0.8,3.2,1.4c0.9,0.6,1.7,1.2,2.3,1.9
		C1095.9,415.5,1096.2,416.3,1096.2,417.4"/>
	<path class="st3" d="M1096.2,417.4h-0.6c0,0.9-0.3,1.8-0.9,2.6c-0.6,0.8-1.5,1.5-2.6,2.1c-1.2,0.6-2.6,1-4.2,1.4
		c-1.6,0.3-3.4,0.5-5.4,0.5c-1.3,0-2.6-0.1-3.8-0.3c-1.2-0.1-2.2-0.3-3.1-0.5c-0.9-0.3-1.7-0.5-2.3-0.7l-0.2,0.6l0.2-0.6l-1.2-0.5
		l-0.3-0.3l-0.1-0.6l0-0.3l0.1-0.1l0-0.1h0.1l1.2,0.3l0.2-0.6l-0.2,0.6c0.6,0.3,1.3,0.5,2.2,0.8c0.9,0.3,2,0.6,3.2,0.8
		c1.3,0.3,2.8,0.4,4.4,0.4c1.4,0,2.6-0.1,3.8-0.4c1.2-0.2,2.2-0.5,3-0.9h0.1l1.9-1.6l0.1-0.1l0.7-2.2l0.1-0.2l-0.9-2.3l0-0.1
		l-0.1-0.1c-0.6-0.7-1.4-1.1-2.4-1.6c-1-0.5-2-0.8-3.2-1.1c-1.2-0.4-2.4-0.8-3.6-1c-1.2-0.4-2.4-0.8-3.6-1.1c-1.2-0.4-2.2-0.8-3-1.4
		c-0.9-0.5-1.6-1.1-2.1-1.8c-0.5-0.6-0.7-1.3-0.7-2.2c0-0.9,0.2-1.6,0.8-2.4c0.5-0.7,1.3-1.2,2.3-1.8c1-0.5,2.2-0.8,3.7-1.1
		c1.5-0.3,3.1-0.5,4.8-0.5c0.9,0,1.8,0.1,2.6,0.2c0.9,0.1,1.8,0.2,2.5,0.4l0.1-0.6l-0.1,0.6l2.1,0.6l1.2,0.4l0.2,0.2l0,0.1l0.1,0.2
		l0,0.3l0,0.4l-0.1,0.1l0,0.1h0l-0.9-0.3l-1.8-0.6c-0.8-0.3-1.7-0.5-2.7-0.7c-1.1-0.2-2.3-0.4-3.6-0.4c-1.3,0-2.5,0.2-3.5,0.4
		c-1,0.2-1.9,0.5-2.6,0.9h-0.1l-1.5,1.3l-0.1,0.1l-0.5,1.7l-0.1,0.2l0.9,2.3l0,0.1l0.1,0.1c0.6,0.6,1.4,1.1,2.4,1.6
		c1,0.4,2.1,0.8,3.3,1.1c1.2,0.4,2.4,0.8,3.6,1c1.2,0.4,2.4,0.8,3.6,1.1c1.2,0.4,2.2,0.8,3.1,1.4c0.9,0.5,1.6,1,2.1,1.7
		c0.5,0.7,0.7,1.3,0.7,2.3h1.2c0-1.1-0.3-2.2-1-3c-0.6-0.8-1.4-1.4-2.4-2c-1-0.6-2.1-1-3.3-1.5c-1.2-0.4-2.4-0.8-3.7-1.1
		c-1.2-0.3-2.4-0.7-3.6-1c-1.2-0.3-2.2-0.7-3.1-1.1c-0.9-0.4-1.6-0.8-2.1-1.3l-0.4,0.4l0.5-0.2l-0.8-1.9l0.4-1.1l1.3-1.1l-0.4-0.5
		l0.3,0.6c0.6-0.4,1.3-0.7,2.2-0.8c0.9-0.2,2-0.3,3.2-0.3c1.3,0,2.4,0.1,3.4,0.3c1,0.2,1.9,0.4,2.6,0.7l1.8,0.6h0l1.1,0.3l0.1,0.1
		l0.5-0.1l0.2-0.1l0.4-0.3l0.1-0.1l0.2-0.5l0-0.1l0.1-0.6h0l0-0.6v-0.1l-0.1-0.4l0-0.1l-0.2-0.3l-0.1-0.1l-0.5-0.3l-0.1-0.1
		l-1.3-0.5h0l-2.2-0.6h0c-0.8-0.2-1.7-0.4-2.6-0.5c-0.9-0.1-1.9-0.1-2.8-0.1c-1.8,0-3.5,0.1-5,0.4c-1.5,0.3-2.9,0.8-4,1.3
		c-1.1,0.6-2,1.3-2.7,2.2c-0.7,0.8-1,1.9-1,3c0,1,0.3,2.1,1,2.9c0.6,0.8,1.4,1.5,2.4,2.1c1,0.6,2,1,3.3,1.5c1.2,0.4,2.4,0.8,3.6,1.1
		c1.2,0.3,2.4,0.7,3.6,1c1.2,0.3,2.2,0.7,3.1,1.1c0.9,0.4,1.6,0.8,2.1,1.3l0.4-0.4l-0.6,0.2l0.8,1.8l-0.6,1.7l-1.7,1.4l0.4,0.4
		l-0.3-0.5c-0.7,0.4-1.6,0.7-2.7,0.8c-1.1,0.2-2.3,0.3-3.5,0.3c-1.6,0-3-0.1-4.2-0.3c-1.2-0.3-2.2-0.5-3.1-0.8
		c-0.9-0.3-1.6-0.5-2.1-0.8h0l-1.3-0.4h-0.1l-0.5,0.1h-0.1l-0.4,0.3l-0.1,0.1l-0.3,0.5l0,0.1l-0.1,0.7l0,0.1l0.2,0.8l0,0.2l0.7,0.7
		l0.1,0.1l1.4,0.6h0c0.7,0.2,1.5,0.5,2.4,0.7c1,0.2,2.1,0.4,3.3,0.6c1.2,0.1,2.5,0.2,3.9,0.2c2,0,3.9-0.2,5.6-0.5
		c1.7-0.4,3.2-0.8,4.5-1.5c1.3-0.7,2.3-1.4,3-2.4c0.8-1,1.1-2.2,1.1-3.4H1096.2"/>
</g>
</svg>
