<?xml version="1.0" encoding="utf-8"?>
<!-- Generator: Adobe Illustrator 23.1.0, SVG Export Plug-In . SVG Version: 6.00 Build 0)  -->
<svg version="1.1" id="katman_1" xmlns="http://www.w3.org/2000/svg" xmlns:xlink="http://www.w3.org/1999/xlink" x="0px" y="0px"
	 viewBox="0 0 1260 480" style="enable-background:new 0 0 1260 480;" xml:space="preserve">
<style type="text/css">
	.st0{fill:#1872B9;}
	.st1{fill:none;stroke:#1872B9;stroke-miterlimit:10.0003;}
</style>
<g>
	<path class="st0" d="M350,331.5l16.5-111.8h-42.6l6.3-38.2h131l-6.5,38.2h-40.6l-16.4,111.8H350z"/>
	<path class="st0" d="M516.3,299.2h41.4c-3.2,11.4-10.8,20.9-20.9,26.8c-10.3,6.3-23.5,9.4-39.1,9.4c-18.6,0-33.3-4.7-44.1-14.2
		c-10.8-9.4-16.2-22.1-16.2-38.2c0-20.2,5.9-36.3,17.7-48.2c11.8-11.9,27.4-18,47.2-18c19.5,0,34.4,4.9,44.5,14.7
		c10.2,9.9,15.3,24.2,15.3,43.1c0,1.8,0,3.5-0.1,5.3c-0.1,1.8-0.3,3.5-0.4,5.5h-80.7v1.9c0,6.6,1.6,11.8,4.9,15.3
		c3.2,3.5,8,5.3,14.3,5.3c3.7,0.1,7.4-0.7,10.6-2.4C513.3,304.5,515.4,302.2,516.3,299.2z M482.8,263.7H521
		c-0.1-6.5-1.8-11.5-4.7-14.9c-2.9-3.4-7.4-5.3-13-5.3c-5-0.1-10,1.8-13.6,5.3C485.9,252.3,483.7,257.3,482.8,263.7z"/>
	<path class="st0" d="M573.6,294.4h40.9c0,5,1.3,8.8,4,11.7c2.7,2.8,6.2,4.1,10.9,4.1c3.4,0.1,6.6-0.7,9.6-2.7
		c3.7-2.4,4.9-7.2,2.5-10.9c-0.4-0.7-1.2-1.5-1.8-2.1c-3.1-2.4-6.5-4-10.2-5l-1.5-0.6c-30.1-10.8-45-23.2-45-36.9
		c0-11.4,4.6-19.9,13.6-25.8c9.1-5.9,22.3-8.8,39.4-8.8c16.4,0,29.1,2.9,37.9,9c9,5.9,13.7,14.6,14.3,26h-38.9v-0.9
		c0.1-3.1-1.3-6.2-3.7-8.1c-2.9-2.1-6.6-3.1-10.3-2.9c-2.9-0.1-5.9,0.6-8.4,2.1c-1.9,1.3-3.1,3.5-2.9,5.9c0,2.5,1.2,4.9,3.2,6.3
		c2.4,1.8,6.8,3.5,13.4,5.6c1.8,0.6,4.6,1.5,8.3,2.5c9.6,2.8,16.7,5.6,21.1,8.1c4.6,2.5,8.4,6.2,11.2,10.6c2.7,4.3,4.1,9.1,4.1,14
		c0,12.5-4.7,22.3-14.3,29.4c-9.4,6.9-23,10.5-40.4,10.5c-17.8,0-31.7-3.5-41.6-10.6c-9.9-7.1-14.9-16.8-14.9-29.5v-0.9H573.6z"/>
	<path class="st0" d="M777.9,288.6h41.9c-2.9,15.2-9.6,26.7-20.1,34.7c-10.5,8-23.9,12.1-40.4,11.9c-18.3,0-32.7-4.7-43.4-14.3
		c-10.6-9.6-15.8-22.1-15.8-38.3c0-19.8,5.9-35.7,17.6-47.6c11.7-11.9,27.3-17.8,46.9-17.8c17.7,0,31.6,4,41.6,12.1
		c10,8,15.2,19.2,15.5,33.5h-41.2c-0.1-5-1.5-8.8-4.1-11.5s-6.5-4-11.4-4c-6.8,0-12.1,3.2-15.9,9.7c-3.8,6.5-5.8,15.3-5.8,26.8
		c0,7.2,1.3,12.7,4.1,16.4c2.8,3.7,6.9,5.5,12.4,5.5c4.4,0.1,8.6-1.6,11.8-4.6C775.1,297.4,777.3,293.2,777.9,288.6z"/>
	<path class="st0" d="M833.2,281.8c0-19.8,6-35.5,18.1-47.3c12.1-11.8,28.2-17.7,48.4-17.7c18.1,0,32.6,4.7,43.2,14.3
		c10.6,9.6,15.9,22.6,15.9,38.9c0,20.5-5.9,36.4-17.6,48.1s-27.9,17.4-48.4,17.4c-18.3,0-32.9-4.9-43.5-14.5
		C838.7,311.3,833.4,298.2,833.2,281.8z M898.9,246.6c-6.9,0-12.2,3.2-16.1,9.6c-3.8,6.3-5.8,15.5-5.6,27.1c0,7.2,1.3,12.7,4,16.2
		s6.8,5.3,12.5,5.3c6.5,0,11.7-3.2,15.6-9.7c3.8-6.5,5.8-15,5.8-26c0-7.5-1.3-13.1-4-17C908.5,248.3,904.2,246.6,898.9,246.6z"/>
	<path class="st0" d="M968.2,331.5l16.5-110.8h38.6l-2.4,14.3c4.6-5.6,10.2-10.2,16.5-13.6c5.9-2.9,12.5-4.4,19.2-4.4
		c7.7,0,13.9,1.6,18.6,5c5,3.7,8.6,9,10.2,15.2c4.9-6.2,10.9-11.4,17.7-15.2c6.3-3.4,13.3-5,20.4-5c10.9,0,19.5,3.1,25.8,9.1
		c6.3,6.2,9.4,14.6,9.4,25.2c0,1.6-0.1,3.5-0.3,6c-0.1,2.5-0.4,5.3-0.9,8.6l-9,65.3h-41.7l8.6-61.7c0.1-1.3,0.3-2.5,0.4-3.8
		s0.1-2.7,0.1-4.1c0.1-2.8-0.9-5.8-2.8-7.7c-2.4-1.9-5.3-2.8-8.4-2.7c-4.3-0.3-8.4,1.5-11.2,4.6c-2.7,3.1-4.4,8.3-5.6,15.5l-9,59.9
		h-41.6l8.6-62.2c0.1-1.3,0.3-2.5,0.4-3.8c0.1-1.3,0.1-2.4,0.1-3.4c0-3.7-1-6.3-2.9-8.1c-1.9-1.8-5-2.7-9-2.7c-4-0.3-8,1.3-10.6,4.4
		c-2.5,2.9-4.3,8-5.3,14.9l-9.1,60.8L968.2,331.5z"/>
	<path class="st0" d="M227.9,180.9l-44-44c-6.5-6.5-17-6.5-23.3,0l-44.2,44.1 M116.4,181.1h111.4h0.1v-0.1L116.4,181.1z"/>
	<path class="st0" d="M191.3,347.9l90.1-90c6.5-6.5,6.5-17,0-23.3l0,0l-14.7-14.7l0,0h-75.2l0,0L191.3,347.9L191.3,347.9z"/>
	<path class="st0" d="M152.7,219.6H77.8L63,234.5c-6.5,6.5-6.5,17,0,23.3l89.7,89.7 M152.8,347.6V219.7V347.6z"/>
	
		<ellipse transform="matrix(0.9239 -0.3827 0.3827 0.9239 10.1519 469.5435)" class="st1" cx="1185.3" cy="209.3" rx="16.5" ry="16.5"/>
	<path class="st0" d="M1178.2,218.2v-18h7.7c1.5,0,2.8,0.1,4.1,0.4c0.9,0.3,1.6,0.9,2.1,1.8c0.6,0.9,0.7,1.8,0.7,2.8
		c0,1.2-0.4,2.4-1.2,3.4c-1,0.9-2.2,1.5-3.5,1.6c0.7,0.4,1.3,0.9,1.9,1.5c0.7,0.9,1.5,1.9,2.1,2.9l2.2,3.5h-4.4l-2.7-4
		c-0.6-0.9-1.2-1.8-1.8-2.5c-0.3-0.3-0.7-0.6-1.2-0.7c-0.6-0.1-1.2-0.1-1.8-0.1h-0.7v7.5L1178.2,218.2z M1181.8,207.9h2.7
		c1,0,2.2,0,3.2-0.3c0.4-0.1,0.7-0.4,1-0.7c0.3-0.4,0.4-0.9,0.3-1.3c0-1.2-0.7-2.1-1.9-2.2c-0.3,0-1.2,0-2.7,0h-2.8L1181.8,207.9z"
		/>
</g>
</svg>
