<?xml version="1.0" encoding="utf-8"?>
<!-- Generator: Adobe Illustrator 23.1.0, SVG Export Plug-In . SVG Version: 6.00 Build 0)  -->
<svg version="1.1" id="Layer_1" xmlns="http://www.w3.org/2000/svg" xmlns:xlink="http://www.w3.org/1999/xlink" x="0px" y="0px"
	 viewBox="0 0 1260 480" style="enable-background:new 0 0 1260 480;" xml:space="preserve">
<style type="text/css">
	.st0{fill:#00BE9F;}
	.st1{fill:#FFFFFF;}
	.st2{enable-background:new    ;}
</style>
<g id="Group" transform="translate(0.000000, 0.000000)">
	<ellipse id="Oval" class="st0" cx="204" cy="240" rx="153" ry="153"/>
	<path id="Shape" class="st1" d="M109.6,284.7c6.5-2.6,16.5-9.2,22.5-11.8c5.8-11.8,18.8-35.6,18.8-35.6l17.5-10.7
		c0,0,5.8-5.8,8.1-8.4c5-5.2,10.2-10.7,15.7-16c5-4.7,17.3-8.4,17.3-8.4s12.6,4.2,13.1,4.2c3.4-3.9,14.9-12.3,16-12.6
		c3.9-0.3,7.6-0.3,10.2,2.6c3.9,4.2,6,8.1,5.8,14.6c0,2.6-0.3,5.2-1,8.1c-0.8,2.6-4.2,3.4-6.5,4.2c-3.1,1-6.5,1.6-9.9,1.8
		c4.2,3.4,8.1,6.5,12.3,9.9c3.1,2.4,4.7,1.8,8.4,1.8c9.9,0,19.9,0.3,29.8,0.3c-1.6-34-11.5-62.8-30.6-78.5
		c29.6,15.7,49.7,49.4,49.7,88.4s-20.1,72.7-49.7,88.4c20.7-16.7,30.3-49.4,30.6-86.3c-8.9,1.6-17.5,2.6-26.4,3.9
		c-4.2,0.3-8.9,1.6-13.3,0.8c-5.2-0.8-23-9.2-24.6-8.4c-4.2,1.6-9.7,5-9.7,5s-19.6,3.4-26.4,4.7c7.6,4.2,15.2,8.4,23,13.1
		c4.7,2.6,8.9,5,13.3,8.1c3.1,1.8,3.4,3.4,3.9,7.3c1,6,1.6,12.6,2.4,18.8c0,1.6-0.3,10.2,1,11c4.7,2.4,8.9,2.4,13.3,4.7
		c1.6,0.8,3.1,1.8,5,2.6c0.8,0.3,0.3,5,0.3,5h-32.7c-0.8-4.2-1-11.5-1.8-17.3c-0.3-5-3.4-8.1-6-11.8c-2.6-3.9-3.1-5.2-7.3-6.5
		c-6-2.4-11.8-4.2-18-6.5c-5-1.8-9.7-3.4-14.6-5.2c-1.6-0.8-5.8,5-6.8,6c-5,5-21.4,19.9-21.4,19.9l-30.9,6v5.2l6.8,4.7l-0.3,3.4
		c-2.4,0-14.9,0.8-14.9,0c-1.6-7.6-7.6-15.2-9.2-23C92.1,291.5,108.5,285.5,109.6,284.7"/>
</g>
<g id="Group-6" transform="translate(69.291339, 14.790301)">
	<g class="st2">
		<path d="M1111.5,178.3v-16.8h-6.1v-2.3h14.8v2.3h-6.2v16.8H1111.5z"/>
		<path d="M1121.6,178.3v-19.1h3.7l4.4,13.5c0.4,1.3,0.7,2.2,0.9,2.8c0.2-0.7,0.5-1.7,1-3.1l4.5-13.3h3.3v19.1h-2.4v-16l-5.4,16
			h-2.2L1124,162v16.3H1121.6z"/>
	</g>
	<path id="Shape_3_" d="M532.2,222.8v48.6c0,10.7,2.9,19.4,9.9,25.4c6,5.8,14.9,8.6,25.9,8.6c8.9,0,13.9-1.8,17-2.9l1-1v-23.3v-1h-2
		c-1,0-2.1,0-2.9,1c-2.1,0-2.9,0-5,0s-3.9,0-5-1c-2.1-1-3.9-1.8-3.9-2.9c-1-1.8-2.1-3.9-2.1-6.8v-43.7H585h1v-1v-24.3v-1h-1h-19.9
		v-32.2v-0.8h-1h-25.9h-1v1v7.8c0,7.8-2.1,14.6-3.9,16.5c-2.1,2.9-7.8,5-13.9,5h-2.1h-1v1v24.3v1L532.2,222.8z"/>
	<path id="Shape_4_" d="M484.1,186c9.9,0,17.8-7.8,17.8-17.8c0-9.9-7.8-17.8-17.8-17.8c-9.9,0-17.8,7.8-17.8,17.8
		C466.3,177.1,474.1,186,484.1,186z"/>
	<path id="Shape_5_" d="M669.8,303.6l1,1h23h1v-1v-65.4c0-15.7-4.7-27.5-12.6-35.3c-8.6-7.8-21.2-11.8-37.4-11.8
		c-11.5,0-22.2,2.9-29.8,8.9c-7.6,5.8-13.3,13.6-15.4,22.5l1,1l24.1,5l1-1c1-3.9,3.9-6.8,7.6-8.9c3.7-2.1,7.6-2.9,12.6-2.9
		c6.8,0,11.5,1,14.4,3.9c2.9,1.8,4.7,5.8,4.7,10.7v5h-19.4c-14.4,0-26.9,2.9-36.6,9.7c-8.6,5.8-14.4,14.6-14.4,26.4
		c0,10.7,3.9,19.6,9.7,25.4c6.8,5.8,15.4,8.9,25.9,8.9c14.4,0,28-5,36.6-14.6L669.8,303.6z M664,258.7c0,6.8-2.9,12.8-7.6,16.7l0,0
		c-4.7,3.9-11.5,5.8-18.3,5.8c-3.9,0-6.8-1-8.6-2.9c-1.8-1.8-3.9-3.9-3.9-6.8c0-3.9,1.8-7.8,4.7-9.7c2.9-1.8,8.6-3.9,14.4-3.9H663v1
		h1V258.7z"/>
	<polygon id="Shape_6_" points="384.4,302.9 384.4,303.9 386.3,303.9 416.6,303.9 417.4,303.9 418.4,302.9 418.4,187 453.5,187 
		454.5,187 455.6,186.2 455.6,154.8 454.5,153.8 453.5,153.8 348.3,153.8 347.6,153.8 346.5,154.8 346.5,186.2 347.6,187 348.3,187 
		384.4,187 	"/>
	<path id="Shape_7_" d="M706.6,306.3h28.2h1v-1V244c0-6,1.8-11,5-14.9c3.1-3.9,7.8-6,13.6-6c6.8,0,10.7,2.1,13.6,6
		c3,2.9,4,8.9,4,13.9v62.2v1h1h28.2h1v-1V238c0-11.8-2.9-22.8-9.7-30.6s-16.5-12.8-30.1-12.8c-5.8,0-11.8,2.1-17.5,5
		c-2.9,2.1-5.8,3.9-8.6,7.8l-2.9,2.9v-11v-1h-1h-27.2h-1v1V306v1L706.6,306.3z"/>
	<path id="Shape_8_" d="M1036.7,312c13.6,0,25.1-3.9,34-9.9l31.9,26.7l8.6-8.9l-30.9-25.6c13.6-14.6,20.4-34.5,20.4-59.9
		c0-44.2-19.4-80.5-63.8-80.5c-40.5,0-64.9,30.6-64.9,77.7S994.8,312,1036.7,312z M1036.7,165.6c30.9,0,49.4,25.6,49.4,67.7
		c0,41.3-19.4,65.9-48.4,65.9c-31.9,0-51.3-26.7-51.3-68.8C986.2,190.1,1005.6,165.6,1036.7,165.6z"/>
	<polygon id="Shape_9_" points="467.1,194.8 466.3,194.8 466.3,195.9 466.3,302.9 466.3,303.9 467.1,303.9 497.4,303.9 498.2,303.9 
		498.2,302.9 498.2,195.9 498.2,194.8 497.4,194.8 	"/>
	<polygon id="Shape_10_" points="852,236.2 938.6,236.2 938.6,309.1 952.2,309.1 952.2,157.4 938.6,157.4 938.6,224.4 852,224.4 
		852,157.4 839.5,157.4 839.5,309.1 852,309.1 	"/>
</g>
</svg>
