<?xml version="1.0" encoding="utf-8"?>
<!-- Generator: Adobe Illustrator 23.1.0, SVG Export Plug-In . SVG Version: 6.00 Build 0)  -->
<svg version="1.1" id="Слой_1" xmlns="http://www.w3.org/2000/svg" xmlns:xlink="http://www.w3.org/1999/xlink" x="0px" y="0px"
	 viewBox="0 0 1260 480" style="enable-background:new 0 0 1260 480;" xml:space="preserve">
<style type="text/css">
	.st0{fill-rule:evenodd;clip-rule:evenodd;fill:#0066CC;}
</style>
<g>
	<path class="st0" d="M115.6,141v114.6c0,24.2,19.7,43.8,43.8,43.8c0,0,0,0,0.1,0c24.2,0.1,43.9-19.5,43.9-43.7c0,0,0,0,0,0V141
		h44.2v114.6c0,48.5-39.4,87.8-88.1,87.8c-48.7,0-88.1-39.3-88.1-87.8V141L115.6,141L115.6,141z M322,340.1V225.5
		c0-24.2,19.7-43.8,43.8-43.8c0,0,0.1,0,0.1,0c24.2-0.1,43.9,19.5,43.9,43.7c0,0,0,0,0,0v114.6h44.2V225.5
		c0-48.5-39.4-87.8-88.1-87.8c-48.7,0-88.1,39.3-88.1,87.8v114.6H322L322,340.1z M1056.6,340.1V225.5c0-24.2,19.7-43.8,43.8-43.8
		c0,0,0.1,0,0.1,0c24.2-0.1,43.9,19.5,43.9,43.7c0,0,0,0,0,0v114.6h44.2V225.5c0-48.5-39.4-87.8-88.1-87.8
		c-48.7,0-88.1,39.3-88.1,87.8v114.6H1056.6z M880,179.1c-33.8,0-61.1,27.3-61.1,60.9s27.4,60.9,61.1,60.9
		c33.8,0,61.1-27.3,61.1-60.9S913.7,179.1,880,179.1z M774.6,240c0-57.9,47.1-104.9,105.3-104.9c58.2,0,105.4,47,105.4,104.9
		c0,57.9-47.2,104.9-105.4,104.9C821.8,344.9,774.6,298,774.6,240z M638.7,139.7c21.9-6.7,45.5-6.1,67,1.7
		c21.5,7.8,40,22.4,52.4,41.7l-37.1,23.9c-7.2-11.2-17.9-19.6-30.4-24.2c-12.5-4.5-26.2-4.9-38.9-1c-12.7,3.9-23.8,11.8-31.6,22.6
		c-16,22.1-15.3,52.2,1.8,73.5c8.3,10.4,19.8,17.8,32.7,21.1c12.9,3.3,26.5,2.3,38.8-2.8c12.3-5.1,22.5-14.1,29.2-25.6l38.2,22.1
		c-11.5,19.8-29.2,35.3-50.4,44.1c-21.2,8.8-44.7,10.5-66.9,4.8c-22.2-5.7-42-18.4-56.3-36.3c-29.3-36.7-30.6-88.5-3-126.6
		C597.7,160.1,616.8,146.4,638.7,139.7z M490.8,340.1V141H535v199C535,340.1,490.8,340.1,490.8,340.1z"/>
</g>
</svg>
