<?xml version="1.0" encoding="utf-8"?>
<!-- Generator: Adobe Illustrator 23.1.0, SVG Export Plug-In . SVG Version: 6.00 Build 0)  -->
<svg version="1.1" id="Logo" xmlns="http://www.w3.org/2000/svg" xmlns:xlink="http://www.w3.org/1999/xlink" x="0px" y="0px"
	 viewBox="0 0 1260 480" style="enable-background:new 0 0 1260 480;" xml:space="preserve">
<style type="text/css">
	.st0{fill:#00D15F;}
	.st1{fill:#40DC87;}
	.st2{fill:#FFFFFF;}
</style>
<g>
	<path class="st0" d="M207.3,87c-9.2,0-17.8,3.5-24.2,10.2L131.3,149c-6.4,6.4-10.2,15.3-10.2,24.2V393l932.3-0.6
		c9.2,0,17.8-3.5,24.2-10.2l51.2-51.5c6.4-6.4,10.2-15.3,10.2-24.2V86.6L207.3,87z"/>
	<path class="st1" d="M121.1,202.8V393h340.8c0,0,38.8,1.9,68.7-4.8c55.4-12.1,88.1-35.6,129.2-76.7
		c69.4-69.4,224.6-224.3,224.6-224.3H544.3L310.1,320.8c0,0-14,16.9-33.4,16.9c-21-0.3-30.2-10.2-30.2-10.2L121.1,202.8z"/>
	<g>
		<g>
			<path class="st2" d="M263.6,313.2l-70.3-147h31.8c0,0,50.3,105.3,51.5,110.4h0.6c1.3-5.4,51.5-110.4,51.5-110.4H361l-70.6,147
				H263.6z"/>
			<path class="st2" d="M496.8,251.1H382.9c4.1,23.9,21.6,38.8,44.2,38.8c18.5,0,30.9-7.3,36.9-20.7h29.6c-8.9,28-34,47.1-66.5,47.1
				c-42.6,0-74.1-31.2-74.1-76.7c0-45.2,30.9-76.7,74.1-76.7c38.5,0,70.3,33.1,70.3,76.7C497.5,244.1,497.5,246.7,496.8,251.1z
				 M383.3,227.3h84.3c-1.9-20-18.1-37.5-40.4-37.5C404.6,189.4,387.7,204.4,383.3,227.3z"/>
			<path class="st2" d="M653.1,251.1H539.2c4.1,23.9,21.6,38.8,44.2,38.8c18.5,0,30.9-7.3,36.9-20.7h29.6c-8.9,28-34,47.1-66.5,47.1
				c-42.6,0-74.1-31.2-74.1-76.7c0-45.2,30.9-76.7,74.1-76.7c38.5,0,70.3,33.1,70.3,76.7C653.7,244.1,653.7,246.7,653.1,251.1z
				 M539.5,227.3h84.3c-1.9-20-18.1-37.5-40.4-37.5C560.8,189.4,543.9,204.4,539.5,227.3z"/>
			<path class="st2" d="M812.8,239.7v73.5h-25.5l-2.5-22.9c-11.1,16.9-31.2,26.1-49,26.1c-40.1,0-70.6-32.1-70.6-76.7
				c0-43.9,32.8-76.7,74.5-76.7C778.1,163,812.8,190.7,812.8,239.7z M783.8,239.7c0-32.5-21.3-50.3-44.2-50.3
				c-25.1,0-45.5,20-45.5,50.3s18.8,50.3,45.5,50.3C762.2,290,783.8,271.2,783.8,239.7z"/>
			<path class="st2" d="M832.2,313.2v-86.9c0-36.6,23.5-63,60.1-63c29.6,0,45.2,19.7,47.4,26.7h0.6c2.2-7,17.8-26.7,47.4-26.7
				c36.6,0,60.1,26.4,60.1,63v86.9h-29v-84.6c0-23.9-10.8-38.2-32.5-38.2c-21.6,0-32.5,14.3-32.5,38.8v84.6h-29v-84.6
				c0-24.5-10.8-38.8-32.5-38.8s-32.5,14.3-32.5,38.2v85h-28V313.2z"/>
		</g>
	</g>
	<path class="st2" d="M1138.9,87v219.9c0,9.2-3.5,17.8-10.2,24.2l-51.2,51.5c-6.4,6.4-15.3,10.2-24.2,10.2l-932.3,0.6V173.2
		c0-9.2,3.5-17.8,10.2-24.2l51.9-51.9c6.4-6.4,15.3-10.2,24.2-10.2H1138.9 M1146.3,79.6h-7.3H207c-10.8,0-21.6,4.5-29.3,12.1
		l-51.9,52.2c-7.6,7.6-12.1,18.5-12.1,29.3V393v7.3h7.3l932.3-0.6c10.8,0,21.6-4.5,29.3-12.1l51.2-51.5c7.6-7.6,12.1-18.5,12.1-29.3
		V87L1146.3,79.6L1146.3,79.6z"/>
</g>
</svg>
