<?xml version="1.0" encoding="utf-8"?>
<!-- Generator: Adobe Illustrator 23.1.0, SVG Export Plug-In . SVG Version: 6.00 Build 0)  -->
<svg version="1.1" id="Слой_1" xmlns="http://www.w3.org/2000/svg" xmlns:xlink="http://www.w3.org/1999/xlink" x="0px" y="0px"
	 viewBox="0 0 1260 480" style="enable-background:new 0 0 1260 480;" xml:space="preserve">
<style type="text/css">
	.st0{fill:#BD0C1D;}
	.st1{fill:#12100B;}
</style>
<g>
	<path class="st0" d="M472.8,134.9c0-8,6.5-14.6,14.6-14.6h63.1c9.8,0,18.9,5.9,22.6,15.6c4.8,12.5-1.4,26.6-13.9,31.3l-48.9,18
		c-17.8,6.1-27.2,25.4-21.1,43.2c3.2,9.3,10,16.3,18.3,20L599,290v-31.8l-80-35.4c-1.4-0.6-2.6-1.8-3.1-3.4c-1.1-3,0.6-6.4,3.6-7.4
		l50.1-17.4c27.5-10.6,41.3-41.4,30.7-69c-8.1-21.2-28.4-34.3-49.8-34.3h-63.1c-24.1,0-43.7,19.6-43.7,43.7v150.4h29.1V134.9z"/>
	<rect x="633.2" y="91.3" class="st0" width="29.1" height="194.1"/>
	<path class="st0" d="M231.5,91.3l-52.1,161.6c-0.7,2-2.6,3.4-4.6,3.4c-2.1,0-3.9-1.2-4.6-3.4L118.1,91.3H87.5l55.1,170.6
		c4.6,14.3,17.9,23.5,32.3,23.5c14.4,0,27.6-9.1,32.3-23.5l55-170.6H231.5z"/>
	<path class="st0" d="M837.4,285.4l52.1-161.6c0.7-2.1,2.6-3.4,4.6-3.4c2.1,0,3.9,1.2,4.6,3.4l52.1,161.6h30.6l-55-170.6
		c-4.6-14.3-17.9-23.5-32.3-23.5c-14.4,0-27.6,9.1-32.3,23.5l-55.1,170.6H837.4z"/>
	<path class="st0" d="M321.7,120.4h92.2V91.3h-92.2c-26.8,0-48.5,21.7-48.5,48.5v97.1c0,26.8,21.7,48.5,48.5,48.5h92.2v-29.1h-92.2
		c-10.7,0-19.4-8.7-19.4-19.4v-34.2h92.2V174h-92.2v-34.2C302.2,129.1,310.9,120.4,321.7,120.4"/>
	<polygon class="st0" points="828.3,91.3 686.6,91.3 686.6,120.4 742.9,120.4 742.9,285.4 772,285.4 772,120.4 828.3,120.4 	"/>
	<path class="st0" d="M1089.6,285.4c30.8,0,55.8-25,55.8-55.8s-25-55.8-55.8-55.8h-48.5c-14.7,0-26.7-12-26.7-26.7
		c0-14.7,12-26.7,26.7-26.7h94.6V91.3h-94.6c-30.8,0-55.8,25-55.8,55.8c0,30.8,25,55.8,55.8,55.8h48.5c14.7,0,26.7,12,26.7,26.7
		c0,14.7-12,26.7-26.7,26.7l-94.6,0v29.1H1089.6z"/>
	<path class="st0" d="M1152.1,91.3h-2.5V79.4h-4.2v-2.4h11v2.4h-4.3V91.3z M1165.5,87.8l0.9-2.5l3.2-8.2h3v14.2h-2.4v-6.9l0.1-2.4
		l-0.8,2l-2.8,7.4h-2.1l-2.9-7.4l-0.8-2l0,2.4v6.9h-2.4V77.1h2.9l3.2,8.2L1165.5,87.8z"/>
	<path class="st1" d="M256.6,351.3c-0.7-1.8-1.6-3.4-2.8-4.9c-1.2-1.5-2.8-2.7-4.8-3.7c-2-0.9-4.4-1.4-7.3-1.4c-3.8,0-7,0.8-9.7,2.4
		c-1.7,1-3,2.4-4.2,3.9v-5.2h-7.2v41.9h8.2v-21.8c0-2.5,0.3-4.6,0.8-6.3c0.5-1.7,1.3-3.1,2.3-4.2c1-1.1,2.1-1.8,3.4-2.3
		c1.3-0.5,2.7-0.7,4.1-0.7c2.2,0,4,0.4,5.4,1.4c1.4,0.9,2.5,2.1,3.2,3.6c0.8,1.5,1.3,3.1,1.5,4.8c0.3,1.7,0.4,3.4,0.4,5v20.6h8.2
		v-23.3c0-1.3-0.1-2.8-0.3-4.5C257.7,354.9,257.2,353.1,256.6,351.3"/>
	<path class="st1" d="M300.3,344.1c-3.1-1.9-6.7-2.8-10.9-2.8c-4.1,0-7.7,0.9-10.8,2.8c-3.1,1.8-5.5,4.4-7.2,7.8
		c-1.7,3.3-2.6,7.2-2.6,11.5c0,4.3,0.8,8.2,2.5,11.5c1.7,3.3,4,5.9,7.1,7.8c3.1,1.9,6.7,2.8,10.9,2.8c4.2,0,7.8-0.9,10.9-2.8
		c3.1-1.9,5.5-4.5,7.1-7.8c1.7-3.3,2.5-7.2,2.5-11.5c0-4.3-0.8-8.1-2.5-11.4C305.7,348.6,303.3,346,300.3,344.1 M298.3,373.8
		c-2,2.7-5,4.1-9,4.1c-3.9,0-6.9-1.3-8.9-4c-2-2.6-3-6.1-3-10.5c0-2.8,0.4-5.3,1.3-7.5c0.9-2.2,2.2-3.8,3.9-5.1
		c1.8-1.2,4-1.8,6.7-1.8c4,0,6.9,1.3,8.9,3.9c2,2.6,3,6.1,3,10.5C301.3,367.6,300.3,371.1,298.3,373.8"/>
	<polygon class="st1" points="357.8,371.2 349,342.5 342,342.5 333.1,371.2 324.4,342.5 316.3,342.4 329.1,384.3 335.7,384.3 
		345.5,354 355.2,384.3 361.7,384.3 374.5,342.5 366.6,342.5 	"/>
	<path class="st1" d="M433.4,344.2c-2.9-1.9-6.2-2.9-10.2-2.9c-4,0-7.3,1-10,2.9c-0.9,0.6-1.6,1.5-2.3,2.3v-4h-7.2v60.5h8.1v-21.8
		c0.5,0.5,0.9,1,1.5,1.4c2.7,2,6.1,2.9,10.1,2.9c3.9,0,7.3-1,10.1-2.9c2.8-1.9,5-4.6,6.6-7.9c1.5-3.4,2.3-7.1,2.3-11.3
		c0-4.2-0.8-8-2.3-11.3C438.4,348.7,436.2,346.1,433.4,344.2 M432.5,370.9c-0.8,2.2-2.1,4-3.8,5.3c-1.7,1.3-3.8,2-6.4,2
		c-2.7,0-4.8-0.6-6.5-1.9c-1.7-1.3-2.9-3-3.7-5.2c-0.8-2.2-1.2-4.8-1.2-7.7c0-2.9,0.4-5.5,1.2-7.7c0.8-2.2,2-4,3.6-5.2
		c1.6-1.2,3.7-1.9,6.3-1.9c2.7,0,4.9,0.7,6.6,2c1.7,1.3,3,3.1,3.8,5.3c0.8,2.2,1.3,4.7,1.3,7.4C433.7,366.1,433.3,368.6,432.5,370.9
		"/>
	<path class="st1" d="M486.8,349.3c-1.3-2.8-3.3-4.8-6.1-6.1c-2.8-1.3-6-1.9-9.8-1.9c-4.8,0-8.7,1.1-11.6,3.2
		c-2.9,2.1-4.9,5-5.9,8.6l7.6,2.3c0.7-2.4,2-4.1,3.8-5.1c1.8-1,3.8-1.5,6-1.5c3.5,0,6,0.8,7.4,2.4c1.2,1.4,1.8,3.5,1.9,6.1
		c-1.5,0.2-3.1,0.4-4.7,0.7c-2.6,0.4-5.1,0.8-7.4,1.2c-2.4,0.4-4.5,0.9-6.3,1.4c-2.1,0.7-4,1.6-5.4,2.7c-1.5,1.1-2.6,2.5-3.3,4.1
		c-0.8,1.6-1.1,3.5-1.1,5.6c0,2.3,0.5,4.4,1.6,6.3c1.1,1.9,2.7,3.4,4.7,4.6c2.1,1.1,4.7,1.7,7.8,1.7c3.9,0,7.2-0.8,9.9-2.3
		c2-1.2,3.7-3,5.2-5.2v6.4h7.2v-25.8c0-1.8-0.1-3.4-0.2-4.9C487.9,352.1,487.5,350.7,486.8,349.3 M479.4,370.6c-0.3,1.4-1,2.7-2,4
		c-1,1.3-2.3,2.3-4,3.1c-1.6,0.8-3.6,1.2-5.9,1.2c-1.7,0-3.2-0.3-4.3-0.8c-1.1-0.5-1.9-1.3-2.5-2.2c-0.6-0.9-0.8-1.9-0.8-3
		c0-1.1,0.3-2.1,0.8-2.8c0.5-0.8,1.2-1.4,2.1-2c0.9-0.6,1.9-1,3-1.4c1.3-0.4,2.8-0.8,4.5-1.1c1.7-0.3,3.6-0.6,5.7-0.9
		c1.3-0.2,2.8-0.4,4.3-0.7c0,0.7,0,1.4-0.1,2.4C480,367.9,479.8,369.3,479.4,370.6"/>
	<path class="st1" d="M516.3,343c-1.3,0.4-2.5,1-3.5,1.8c-1.1,0.7-2.1,1.6-2.9,2.8c-0.4,0.6-0.7,1.2-1,1.9v-7h-7.2v41.9h8.2v-21.1
		c0-1.6,0.2-3.2,0.5-4.7c0.3-1.5,0.9-2.8,1.6-4.1c0.8-1.2,1.8-2.2,3.1-3.1c1.4-0.9,2.9-1.4,4.6-1.6c1.7-0.2,3.2-0.1,4.6,0.3v-7.6
		c-1.3-0.2-2.6-0.3-4-0.2C519,342.3,517.6,342.6,516.3,343"/>
	<path class="st1" d="M546.5,330.8h-8.1v11.6h-8v6.5h8v18.9c0,2.3,0,4.3,0.1,6.1c0.1,1.8,0.6,3.6,1.5,5.3c1,1.9,2.5,3.4,4.5,4.3
		c2,0.9,4.2,1.4,6.8,1.5c2.5,0.1,5.1-0.1,7.7-0.7v-6.9c-2.7,0.4-5.1,0.5-7.1,0.2s-3.5-1.1-4.4-2.7c-0.5-0.9-0.8-1.9-0.8-3.1
		c0-1.2-0.1-2.7-0.1-4.4V349h12.4v-6.5h-12.4V330.8z"/>
	<path class="st1" d="M619,344.1c-3.1-1.9-6.7-2.8-10.9-2.8c-4.1,0-7.7,0.9-10.8,2.8c-3.1,1.8-5.5,4.4-7.2,7.8
		c-1.7,3.3-2.6,7.2-2.6,11.5c0,4.3,0.8,8.2,2.5,11.5c1.7,3.3,4,5.9,7.1,7.8c3.1,1.9,6.7,2.8,10.9,2.8c4.2,0,7.8-0.9,10.9-2.8
		c3.1-1.9,5.5-4.5,7.1-7.8c1.7-3.3,2.5-7.2,2.5-11.5c0-4.3-0.8-8.1-2.5-11.4C624.5,348.6,622.1,346,619,344.1 M617.1,373.8
		c-2,2.7-5,4.1-9,4.1c-3.9,0-6.9-1.3-8.9-4c-2-2.6-3-6.1-3-10.5c0-2.8,0.4-5.3,1.3-7.5c0.9-2.2,2.2-3.8,3.9-5.1
		c1.8-1.2,4-1.8,6.7-1.8c4,0,6.9,1.3,8.9,3.9c2,2.6,3,6.1,3,10.5C620,367.6,619.1,371.1,617.1,373.8"/>
	<path class="st1" d="M654.3,327.5c-1.3,0.1-2.5,0.4-3.8,0.9c-1.3,0.5-2.4,1.3-3.5,2.5c-0.9,1-1.5,2.1-1.9,3.2
		c-0.4,1.2-0.6,2.4-0.7,3.6c-0.1,1.2-0.1,2.3-0.1,3.4v1.5h-6.9v6.5h6.9v35.4h8.1V349h10.6v-6.5h-10.6v-3c0-1.7,0.5-3.1,1.4-4
		c0.9-1,2.4-1.4,4.3-1.4h4.9v-6.7h-5.3C656.7,327.3,655.6,327.4,654.3,327.5"/>
	<path class="st1" d="M704.8,337.7c2.6-1.8,5.9-2.7,9.9-2.7c4.4,0,8,1.1,10.8,3.3c2.8,2.2,4.7,5.3,5.8,9.2l8.2-2.2
		c-1.7-5.5-4.6-9.9-8.8-13.2c-4.2-3.3-9.6-4.9-16-4.9c-5.6,0-10.3,1.2-14.3,3.7c-3.9,2.4-6.9,5.8-9,10.2c-2.1,4.4-3.1,9.4-3.1,15.2
		c0,5.8,1.1,10.8,3.1,15.2c2.1,4.4,5.1,7.8,9,10.2c3.9,2.4,8.7,3.7,14.3,3.7c6.4,0,11.8-1.6,16-4.9c4.2-3.3,7.2-7.6,8.8-13.2
		l-8.2-2.2c-1.1,3.9-3,6.9-5.8,9.2c-2.8,2.2-6.4,3.4-10.8,3.4c-4,0-7.3-0.9-9.9-2.7c-2.6-1.8-4.6-4.3-6-7.5c-1.3-3.2-2-6.9-2-11.2
		c0-4.3,0.7-8,2-11.2C700.2,342,702.2,339.5,704.8,337.7"/>
	<path class="st1" d="M780.5,344.1c-3.1-1.9-6.7-2.8-10.9-2.8c-4.1,0-7.7,0.9-10.8,2.8c-3.1,1.8-5.5,4.4-7.2,7.8
		c-1.7,3.3-2.6,7.2-2.6,11.5c0,4.3,0.8,8.2,2.5,11.5c1.7,3.3,4,5.9,7.1,7.8c3.1,1.9,6.7,2.8,10.9,2.8c4.2,0,7.8-0.9,10.9-2.8
		c3.1-1.9,5.5-4.5,7.1-7.8c1.7-3.3,2.5-7.2,2.5-11.5c0-4.3-0.8-8.1-2.5-11.4C786,348.6,783.6,346,780.5,344.1 M778.6,373.8
		c-2,2.7-5,4.1-9,4.1c-3.9,0-6.9-1.3-8.9-4c-2-2.6-3-6.1-3-10.5c0-2.8,0.4-5.3,1.3-7.5c0.9-2.2,2.2-3.8,3.9-5.1
		c1.8-1.2,4-1.8,6.7-1.8c4,0,6.9,1.3,8.9,3.9c2,2.6,3,6.1,3,10.5C781.5,367.6,780.6,371.1,778.6,373.8"/>
	<path class="st1" d="M838,351.3c-0.6-1.8-1.6-3.4-2.8-4.9c-1.2-1.5-2.8-2.7-4.8-3.7c-2-0.9-4.4-1.4-7.3-1.4c-3.8,0-7,0.8-9.7,2.4
		c-1.7,1-3,2.4-4.2,3.9v-19.2H802v55.8h8.2v-21.8c0-2.5,0.3-4.6,0.8-6.3c0.5-1.7,1.3-3.1,2.3-4.2c1-1.1,2.1-1.8,3.4-2.3
		c1.3-0.5,2.7-0.7,4.1-0.7c2.2,0,4,0.4,5.4,1.4c1.4,0.9,2.5,2.1,3.2,3.6c0.8,1.5,1.3,3.1,1.5,4.8c0.3,1.7,0.4,3.4,0.4,5v20.6h8.2
		v-23.3c0-1.3-0.1-2.8-0.3-4.5C839,354.9,838.6,353.1,838,351.3"/>
	<path class="st1" d="M886.6,365.7h4c0.3-5-0.3-9.3-1.8-13c-1.5-3.6-3.7-6.5-6.7-8.4c-3-2-6.6-3-10.9-3c-4.1,0-7.7,0.9-10.7,2.7
		c-3.1,1.8-5.5,4.4-7.2,7.8c-1.7,3.4-2.6,7.3-2.6,11.9c0,4.3,0.9,8.1,2.6,11.4c1.8,3.3,4.2,5.8,7.3,7.6c3.1,1.8,6.8,2.7,11,2.7
		c4.1,0,7.7-1,11-3.1c3.3-2.1,5.8-5,7.4-8.7l-7.9-2.5c-1,2.1-2.5,3.8-4.3,4.9c-1.8,1.1-4,1.7-6.6,1.7c-3.9,0-6.8-1.3-8.8-3.8
		c-1.7-2.1-2.5-5-2.8-8.4H886.6z M862.4,352.3c2-2.6,5.1-3.8,9.1-3.8c3.7,0,6.4,1.2,8.2,3.5c1.3,1.8,2.2,4.2,2.6,7.4h-22.5
		C860.3,356.6,861,354.1,862.4,352.3"/>
	<path class="st1" d="M929.9,362.8c-2.1-1.1-4.9-2.1-8.4-3c-3.3-0.8-5.8-1.5-7.4-2.1c-1.7-0.6-2.8-1.2-3.4-1.9
		c-0.6-0.6-0.9-1.4-0.9-2.4c0-1.6,0.8-2.9,2.3-3.8c1.5-0.9,3.5-1.3,6-1.2c2.6,0.1,4.6,0.7,6.3,1.9c1.6,1.2,2.5,2.8,2.8,4.8l8.3-1.5
		c-0.3-2.5-1.2-4.7-2.8-6.5c-1.5-1.8-3.6-3.3-6.1-4.3c-2.5-1-5.4-1.5-8.6-1.5c-3.3,0-6.1,0.5-8.6,1.5c-2.4,1-4.3,2.5-5.7,4.4
		c-1.3,1.9-2,4.1-2,6.6c0,2,0.4,3.8,1.3,5.2c0.9,1.4,2.4,2.7,4.5,3.8c2.1,1.1,5,2.1,8.5,3c3.3,0.9,5.7,1.6,7.3,2.2
		c1.6,0.6,2.7,1.2,3.2,1.9c0.5,0.7,0.8,1.5,0.8,2.6c0,1.8-0.7,3.2-2.2,4.3c-1.4,1-3.4,1.5-5.9,1.5c-2.8,0-5.1-0.6-7-1.9
		c-1.9-1.2-3.1-3-3.6-5.1l-8.3,1.3c0.7,4.1,2.7,7.2,5.9,9.5c3.2,2.3,7.4,3.4,12.4,3.4c5.3,0,9.5-1.2,12.5-3.5c3-2.3,4.5-5.6,4.5-9.7
		c0-2.2-0.4-4-1.3-5.5C933.4,365.2,931.9,363.9,929.9,362.8"/>
	<rect x="948.3" y="342.5" class="st1" width="8.1" height="41.9"/>
	<rect x="948.3" y="327.7" class="st1" width="8.1" height="7.9"/>
	<path class="st1" d="M982.9,330.8h-8.1v11.6h-8v6.5h8v18.9c0,2.3,0,4.3,0.1,6.1c0.1,1.8,0.6,3.6,1.4,5.3c1,1.9,2.5,3.4,4.5,4.3
		c2,0.9,4.3,1.4,6.8,1.5c2.5,0.1,5.1-0.1,7.8-0.7v-6.9c-2.7,0.4-5.1,0.5-7.1,0.2c-2-0.2-3.5-1.1-4.4-2.7c-0.5-0.9-0.8-1.9-0.8-3.1
		c0-1.2-0.1-2.7-0.1-4.4V349h12.4v-6.5h-12.4V330.8z"/>
	<polygon class="st1" points="1034.6,342.5 1022.8,373.9 1010.4,342.5 1001.9,342.5 1018.9,384.1 1012,402.9 1019.7,402.9 
		1042.8,342.5 	"/>
</g>
</svg>
