<?xml version="1.0" encoding="utf-8"?>
<!-- Generator: Adobe Illustrator 23.1.0, SVG Export Plug-In . SVG Version: 6.00 Build 0)  -->
<svg version="1.1" id="Layer_1" xmlns="http://www.w3.org/2000/svg" xmlns:xlink="http://www.w3.org/1999/xlink" x="0px" y="0px"
	 viewBox="-682.3 -64 1260 480" style="enable-background:new -682.3 -64 1260 480;" xml:space="preserve">
<style type="text/css">
	.st0{fill:#272727;}
</style>
<g>
	<g id="XMLID_44_">
		<path id="XMLID_48_" class="st0" d="M-453.1,175.2l54.7-56.7l72.5-0.9c-23.9-45.9-71.9-77.3-127.2-77.3
			c-55.4,0-103.4,31.4-127.2,77.3l70.1,0.9L-453.1,175.2z"/>
		<path id="XMLID_50_" class="st0" d="M-580.7,118.2c-10.1,19.6-15.8,41.8-15.8,65.4c0,55.5,31.6,103.6,77.7,127.4l64.7-64.9
			L-580.7,118.2z"/>
		<path id="XMLID_53_" class="st0" d="M-309.8,183.6c0-23.8-5.8-46.3-16.1-66l-128.3,128.5l65.1,65.7
			C-342,288.2-309.8,239.7-309.8,183.6z"/>
	</g>
	<polygon id="XMLID_45_" class="st0" points="-195.8,117.8 -229.6,118 -180,248.3 -150,248.3 -101,118 -133.3,118 -165.3,204.9 	"/>
	<polygon id="XMLID_47_" class="st0" points="-76.2,117.2 -76.2,248.3 18.4,248.3 18.4,221.3 -46.5,221.3 -46.5,194.2 6.2,194.2 
		6.2,168.6 -46.5,168.6 -46.5,145.6 18.4,145.6 18.4,117.2 	"/>
	<polygon id="XMLID_55_" class="st0" points="392.3,117.8 358.5,118 408.1,248.3 438.1,248.3 487.1,118 454.8,118 422.9,204.9 	"/>
	<g>
		<rect id="XMLID_58_" x="210.2" y="117.2" class="st0" width="32.4" height="131.1"/>
		<rect id="XMLID_60_" x="171" y="117.2" class="st0" width="110.8" height="28.4"/>
	</g>
	<rect id="XMLID_59_" x="304.8" y="117.2" class="st0" width="29.7" height="131.1"/>
	<g>
		<rect id="XMLID_61_" x="477.7" y="229.4" class="st0" width="2.7" height="20.3"/>
		<rect id="XMLID_2_" x="489.9" y="228" class="st0" width="2.7" height="21.6"/>
		<polygon id="XMLID_4_" class="st0" points="490.1,228 497.9,249.6 499.6,249.6 500.4,246.5 493.6,228 		"/>
		<polygon id="XMLID_6_" class="st0" points="508,228 500.2,249.6 498.6,249.6 497.8,246.5 504.5,228 		"/>
		<rect id="XMLID_3_" x="504.8" y="228" class="st0" width="2.7" height="21.6"/>
		<rect id="XMLID_57_" x="471" y="228" class="st0" width="17.6" height="2.7"/>
	</g>
	<g>
		<rect id="XMLID_56_" x="52.1" y="117.2" class="st0" width="29.7" height="131.1"/>
		<path id="XMLID_65_" class="st0" d="M81.9,117.1h25c3.1,0,7.9,0.5,8.6,0.6c6.8,1.2,38.6,8.3,38.6,44.1c0,36.8-37.2,42.1-42.9,42.6
			c-0.4,0-0.8,0.1-1.3,0.1H81.9c-6.9,0-6.9-25,0-25h26c1.9,0,3.8-0.4,5.6-1.3c4-2,10.3-6.7,10.3-16.4c0-11.1-9.1-14.9-13.1-16
			c-1.1-0.3-2.1-0.4-3.2-0.4H81.9C75,145.4,75,117.1,81.9,117.1z"/>
		<polygon id="XMLID_66_" class="st0" points="94,203.7 125.4,248.3 159.5,248.3 116.7,187.7 		"/>
	</g>
	<line id="XMLID_7_" class="st0" x1="73.5" y1="117.8" x2="101.6" y2="117.8"/>
</g>
</svg>
