<?xml version="1.0" encoding="utf-8"?>
<!-- Generator: Adobe Illustrator 23.1.0, SVG Export Plug-In . SVG Version: 6.00 Build 0)  -->
<svg version="1.1" id="layer" xmlns="http://www.w3.org/2000/svg" xmlns:xlink="http://www.w3.org/1999/xlink" x="0px" y="0px"
	 viewBox="0 0 1260 480" style="enable-background:new 0 0 1260 480;" xml:space="preserve">
<style type="text/css">
	.st0{fill:#F68A20;}
	.st1{fill:#F05B24;}
	.st2{fill:#0685C1;}
</style>
<g>
	<path class="st0" d="M286.5,279.8c-18.2,0-34.9-8.4-44.9-22.8c-3-4.4-2-10.5,2.4-13.5c4.4-3,10.5-2,13.5,2.4
		c6.4,9.1,17.2,14.5,29,14.5c11.8,0,22.6-5.4,29-14.5c3-4.4,9.1-5.4,13.5-2.4c4.4,3,5.4,9.1,2.4,13.5
		C321.4,271.4,304.5,279.8,286.5,279.8"/>
	<path class="st1" d="M559.7,277c7.1,0,11.1,3.2,11.1,8.9s-4,8.9-11.1,8.9H487c-10.1,0-10.8-5.7-10.8-7.6c0-3,1.2-5.9,4.4-10.1
		l57-78.6h-48.1c-7.1,0-11.1-3.2-11.1-8.9c0-5.7,4-9.1,11.1-9.1h67.8c10.1,0,10.8,5.7,10.8,7.6c0,3-1.2,5.9-4.4,10.1l-58,78.6h54
		 M593.1,179.5c-6.7,0-11.1,4.2-11.1,11v94.9c0,6.6,4.4,11,11.1,11s11.1-4.2,11.1-11v-94.9C604.2,183.9,599.8,179.5,593.1,179.5
		 M747.2,179.5c-15.9,0-27.3,5.6-37.3,18.2c-8.3-12.1-19.4-18.2-33.6-18.2c-17.7,0-25.6,7.4-30.2,12.5v-1.7c0-6.6-4.4-11-11.1-11
		s-11.1,4.2-11.1,11v94.9c0,6.6,4.4,11,11.1,11s11.1-4.2,11.1-11v-62.9c0-15.7,9.3-25,25-25s25.1,9.3,25.1,25v62.9
		c0,6.6,4.4,11,11.1,11c6.7,0,11.1-4.2,11.1-11v-62.9c0-15.7,9.3-25,25-25c15.7,0,25.1,9.3,25.1,25v62.9c0,6.6,4.4,11,11.1,11
		s11.1-4.2,11.1-11V223C790.7,193,768.8,179.5,747.2,179.5 M865.7,179.5c34.7,0,53,29.3,53,58.3c0,29-18.2,58.3-53,58.3
		c-15,0-25.8-4.6-32-13.7v2.7c0,6.6-4.4,11-11.1,11s-11.1-4.2-11.1-11V152.4c0-6.6,4.4-11,11.1-11s11.1,4.2,11.1,11v41.1
		C839.8,186.4,850.9,179.5,865.7,179.5 M864.1,197.5c-23.9,0-32.4,21.8-32.4,40.3s8.4,40.3,32.4,40.3c23.9,0,32.4-21.8,32.4-40.3
		C896.4,219.3,888,197.5,864.1,197.5 M994.8,190c0-6.2-5.1-10.5-12.1-10.5c-10.6,0-21.2,8.6-27,17.5v-6.6c0-6.6-4.4-11-11.1-11
		s-11.1,4.2-11.1,11v94.9c0,6.6,4.4,11,11.1,11s11.1-4.2,11.1-11v-53.5c0-24.8,19.7-29.8,25.8-30.9
		C990.2,199.6,994.8,195.9,994.8,190 M1088.7,179.5c4.2,0,10.5,2.7,10.5,10.1v96.6c0,7.4-6.2,10.1-10.5,10.1
		c-5.1,0-10.5-3.2-10.5-10.1v-5.6c-8.4,10.3-19.7,15.7-32.7,15.7c-35.8,0-54.6-29.3-54.6-58.3s18.7-58.3,54.6-58.3
		c12.6,0,22.6,4.2,32.7,14v-4C1078.4,182.7,1083.8,179.5,1088.7,179.5 M1045.7,278.3c23.9,0,32.4-21.8,32.4-40.3
		s-8.4-40.3-32.4-40.3c-23.9,0-32.4,21.8-32.4,40.3C1013.3,256.6,1021.7,278.3,1045.7,278.3 M1121.9,177.8
		c-7.8,0-14.2,6.2-14.2,14.2c0,8.1,6.4,14.3,14.2,14.3s14-6.2,14-14.3C1135.9,184.1,1129.7,177.8,1121.9,177.8L1121.9,177.8z
		 M1121.9,180c6.2,0,11.3,5.4,11.3,12.1s-5.1,12.1-11.3,12c-6.2,0-11.5-5.2-11.5-12.1C1110.4,185.4,1115.7,180,1121.9,180
		L1121.9,180z M1119.2,193.5h1.7c2,0,3,0.7,3.4,2.7c0.3,2,0.7,3.5,1,4h2.7c-0.3-0.5-0.7-1.5-1-3.9c-0.3-2.4-1.3-3.5-2.7-3.9v-0.2
		c1.7-0.5,3-1.7,3-3.9c0-1.5-0.5-2.5-1.5-3.4c-1-0.7-2.5-1.2-4.9-1.2c-1.9,0-3.2,0.2-4.6,0.3v15.9h2.5v-6.6H1119.2z M1119.2,186.1
		c0.5,0,1-0.2,1.9-0.2c2.9,0,3.9,1.3,3.9,2.9c0,2-1.7,2.7-3.9,2.7h-1.9V186.1z M603.5,154.2c0-6.9-5.6-12.6-12.6-12.6
		c-6.9,0-12.6,5.6-12.6,12.6c0,6.9,5.6,12.6,12.6,12.6C597.8,166.9,603.5,161.1,603.5,154.2 M251.8,331.4
		c-70.3,0-127.7-43.3-127.7-96.6c0-19.1,7.1-37.3,20.7-53l-13.2-40.3c-1.2-3.7,0-7.8,2.9-10.3c2.9-2.5,7.1-3.2,10.6-1.5l43.3,20.9
		c19.2-8.3,41-12.6,63.2-12.6c70.3,0,127.7,43.3,127.7,96.6C379.4,288.1,322.1,331.4,251.8,331.4 M157.3,157.2l7.8,23.9
		c1.2,3.4,0.3,7.3-2.2,9.8c-12.6,13-19.2,28.2-19.2,43.7c0,42.5,48.6,77.2,108.3,77.2s108.3-34.6,108.3-77.2
		c0-42.5-48.6-77.2-108.3-77.2c-21.1,0-41.7,4.4-59.2,12.6c-2.7,1.2-5.7,1.2-8.4,0L157.3,157.2z"/>
	<path class="st2" d="M328.8,210.5c0,8.3-6.6,14.8-14.8,14.8s-14.8-6.6-14.8-14.8c0-8.3,6.6-14.8,14.8-14.8S328.8,202.4,328.8,210.5
		 M244,210.5c0,8.3,6.6,14.8,14.8,14.8s14.8-6.6,14.8-14.8c0-8.3-6.6-14.8-14.8-14.8C250.7,195.7,244,202.4,244,210.5 M429.7,340.7
		c2.4,0,4.6-0.8,6.4-2.4c2.9-2.5,4-6.6,2.9-10.3l-13.2-40.3c13.7-15.7,20.7-33.9,20.7-53c0-53.3-57.3-96.6-127.7-96.6
		s-127.7,43.3-127.7,96.6s57.3,96.6,127.7,96.6c22.3,0,44-4.4,63.2-12.6l43.3,20.9C426.8,340.4,428.3,340.7,429.7,340.7
		 M382.3,298.4c-1.3,0-2.9,0.3-4.2,1c-17.7,8.3-38.1,12.6-59.2,12.6c-59.7,0-108.3-34.6-108.3-77.2c0-42.5,48.6-77.2,108.3-77.2
		s108.3,34.6,108.3,77.2c0,15.7-6.7,30.9-19.2,43.8c-2.5,2.5-3.4,6.4-2.2,9.8l7.8,23.9l-26.8-13
		C385.1,298.7,383.8,298.4,382.3,298.4 M482.3,342.6h15.2l3.2,7.8h3.5l-12.8-29.7h-2.9l-13,29.7h3.5L482.3,342.6z M489.9,324.2
		l6.4,15.5h-12.8L489.9,324.2z M554.5,327.9c-0.5-0.7-1.2-1.2-2.2-1.5c-0.8-0.3-1.7-0.5-2.5-0.5c-0.5,0-1,0-1.5,0.2
		c-0.5,0.2-1,0.3-1.3,0.5c-0.5,0.2-0.8,0.5-1,1c-0.3,0.3-0.3,0.8-0.3,1.3c0,0.8,0.3,1.5,1,2c0.7,0.5,1.5,0.8,2.5,1.2
		c1,0.3,2.2,0.7,3.2,1c1.2,0.3,2.2,0.8,3.4,1.3c1,0.7,1.9,1.5,2.5,2.5c0.7,1,1,2.4,1,4.2c0,1.7-0.3,3-0.8,4.4
		c-0.7,1.2-1.5,2.2-2.5,3c-1,0.8-2.2,1.3-3.7,1.9c-1.3,0.3-2.9,0.5-4.4,0.5c-1.9,0-3.7-0.3-5.4-0.8s-3.2-1.5-4.6-2.9l4.7-5.1
		c0.7,0.8,1.5,1.5,2.5,2c1,0.5,2,0.7,3.2,0.7c0.5,0,1,0,1.7-0.2c0.5-0.2,1-0.3,1.5-0.5c0.5-0.2,0.8-0.5,1-1c0.3-0.3,0.3-0.8,0.3-1.3
		c0-0.8-0.3-1.5-1-2.2c-0.7-0.5-1.5-1-2.5-1.3c-1-0.3-2.2-0.7-3.4-1c-1.2-0.3-2.4-0.8-3.4-1.5c-1-0.7-1.9-1.3-2.5-2.4
		c-0.7-1-1-2.4-1-4c0-1.5,0.3-3,1-4.2c0.7-1.2,1.5-2.2,2.5-3s2.2-1.3,3.5-1.9c1.3-0.3,2.7-0.7,4.2-0.7c1.7,0,3.4,0.2,4.9,0.7
		c1.5,0.5,3,1.3,4.2,2.4L554.5,327.9z M581.6,337.7l-11.1-17h8.1l6.2,11.1l6.6-11.1h7.8l-11.1,17v12.6h-6.6v-12.6H581.6z M612,320.8
		h8.9l12.6,20.6l0,0v-20.6h6.6v29.5h-8.6l-13-21.1l0,0v21.1H612V320.8z M653.4,350.3h7.3l2.5-6.2h11.5l2.5,6.2h7.4l-12.8-29.7h-5.4
		L653.4,350.3z M672.3,338.5h-7.3l3.5-9.3L672.3,338.5z M717.4,328.4c-0.7-0.8-1.5-1.3-2.4-1.9c-1-0.3-2-0.7-3.2-0.7
		s-2.4,0.2-3.4,0.7c-1,0.5-2,1.2-2.7,2c-0.8,0.8-1.3,1.9-1.9,3c-0.5,1.2-0.7,2.4-0.7,3.9c0,1.3,0.2,2.7,0.7,3.9c0.5,1.2,1,2.2,1.9,3
		c0.7,0.8,1.7,1.5,2.7,2c1,0.5,2.2,0.7,3.2,0.7c1.3,0,2.5-0.3,3.5-0.8c1-0.5,1.9-1.3,2.5-2.4l5.4,4c-1.2,1.7-2.9,3-4.7,3.9
		c-1.9,0.8-3.9,1.2-5.9,1.2c-2.4,0-4.4-0.3-6.4-1c-2-0.7-3.7-1.7-5.1-3.2c-1.3-1.3-2.5-3-3.4-4.9s-1.2-4-1.2-6.4s0.3-4.6,1.2-6.4
		c0.8-1.9,1.9-3.5,3.4-4.9c1.3-1.3,3-2.4,5.1-3c2-0.7,4-1,6.4-1c0.8,0,1.7,0,2.7,0.2c0.8,0.2,1.9,0.3,2.7,0.7
		c0.8,0.3,1.7,0.8,2.5,1.3c0.8,0.5,1.5,1.2,2.2,2L717.4,328.4z M735.6,335.5c0,2.4,0.3,4.6,1.2,6.4c0.8,1.9,1.9,3.5,3.4,4.9
		c1.3,1.3,3,2.4,5.1,3c2,0.7,4,1,6.4,1c2.4,0,4.4-0.3,6.4-1c2-0.7,3.7-1.7,5.1-3c1.3-1.3,2.5-3,3.4-4.9c0.8-1.9,1.2-4,1.2-6.4
		s-0.3-4.6-1.2-6.4c-0.8-1.9-1.9-3.5-3.4-4.9c-1.3-1.3-3-2.4-5.1-3c-2-0.7-4-1-6.4-1s-4.4,0.3-6.4,1c-2,0.7-3.7,1.7-5.1,3
		s-2.5,3-3.4,4.9C735.9,331.1,735.6,333.1,735.6,335.5 M742.3,335.5c0-1.3,0.2-2.7,0.7-3.9c0.5-1.2,1-2.2,1.9-3
		c0.8-0.8,1.9-1.5,2.9-2c1.2-0.5,2.4-0.7,3.7-0.7s2.7,0.2,3.7,0.7c1.2,0.5,2,1.2,2.9,2c0.8,0.8,1.3,1.9,1.9,3
		c0.5,1.2,0.7,2.4,0.7,3.9c0,1.3-0.2,2.7-0.7,3.9c-0.5,1.2-1,2.2-1.9,3c-0.8,0.8-1.9,1.5-2.9,2c-1.2,0.5-2.4,0.7-3.7,0.7
		s-2.7-0.2-3.7-0.7c-1.2-0.5-2-1.2-2.9-2s-1.3-1.9-1.9-3C742.5,338.2,742.3,337,742.3,335.5 M782.4,350.3h6.6v-11.8h3.2l6.2,11.8
		h7.8l-7.6-12.5c2-0.3,3.7-1.3,4.7-2.9c1-1.5,1.7-3.2,1.7-5.4c0-1.7-0.3-3.2-0.8-4.4c-0.7-1.2-1.3-2-2.4-2.7c-1-0.7-2.2-1.2-3.5-1.5
		c-1.3-0.3-2.7-0.5-4.2-0.5h-11.5v29.8H782.4z M789,326.2h4.2c0.5,0,1.2,0,1.9,0.2c0.7,0,1.2,0.2,1.7,0.5c0.5,0.2,0.8,0.5,1.2,1
		c0.3,0.5,0.5,1,0.5,1.9c0,0.8-0.2,1.5-0.5,1.9c-0.3,0.5-0.8,0.8-1.3,1c-0.5,0.2-1.2,0.3-1.9,0.3s-1.3,0-1.9,0H789L789,326.2
		L789,326.2z M843.8,350.3h3v-13.8h5.6c3,0,5.4-0.7,7.1-2c1.7-1.3,2.7-3.4,2.7-5.9c0-2.7-0.8-4.6-2.7-5.9c-1.7-1.3-4-2-7.1-2h-8.6
		L843.8,350.3L843.8,350.3z M846.9,323.5h4.9c1.3,0,2.5,0.2,3.4,0.3c1,0.3,1.7,0.7,2.2,1.2c0.5,0.5,1,1,1.2,1.7
		c0.2,0.7,0.3,1.3,0.3,2c0,0.7-0.2,1.3-0.3,2c-0.2,0.7-0.7,1.2-1.2,1.7c-0.5,0.5-1.3,0.8-2.2,1.2c-1,0.3-2,0.3-3.4,0.3h-4.9V323.5z
		 M881.4,336.7h5.1l8.1,13.8h3.7l-8.6-14c2.5-0.2,4.4-1,5.6-2.5c1.3-1.3,2-3.2,2-5.2c0-2.7-0.8-4.6-2.7-5.9c-1.7-1.3-4-2-7.1-2h-9.1
		v29.5h3L881.4,336.7L881.4,336.7z M881.4,323.5h5.4c1.3,0,2.5,0.2,3.4,0.3c1,0.3,1.7,0.7,2.2,1.2s1,1,1.2,1.7
		c0.2,0.7,0.3,1.3,0.3,2c0,0.7-0.2,1.3-0.3,2c-0.2,0.7-0.7,1.2-1.2,1.7c-0.5,0.5-1.3,0.8-2.2,1.2c-1,0.3-2,0.3-3.4,0.3h-5.4V323.5z
		 M942.6,335.5c0-2.2-0.3-4.4-1.2-6.2c-0.8-1.9-1.9-3.5-3.2-4.9c-1.3-1.3-3-2.5-4.9-3.2c-1.9-0.8-3.9-1.2-6.1-1.2
		c-2.2,0-4.2,0.3-6.1,1.2s-3.5,1.9-4.9,3.2c-1.3,1.3-2.5,3-3.2,4.9c-0.8,1.9-1.2,4-1.2,6.2c0,2.2,0.3,4.4,1.2,6.2
		c0.8,1.9,1.9,3.5,3.2,4.9s3,2.5,4.9,3.2c1.9,0.8,3.9,1.2,6.1,1.2s4.2-0.3,6.1-1.2c1.9-0.8,3.5-1.9,4.9-3.2c1.3-1.3,2.5-3,3.2-4.9
		C942.1,339.9,942.6,337.8,942.6,335.5 M939.3,335.5c0,1.7-0.3,3.4-0.8,4.9c-0.5,1.5-1.3,2.9-2.4,4c-1,1.2-2.4,2.2-3.9,2.9
		c-1.5,0.7-3.2,1-5.1,1s-3.5-0.3-5.1-1c-1.5-0.7-2.7-1.7-3.9-2.9c-1-1.2-1.9-2.5-2.4-4c-0.5-1.5-0.8-3.2-0.8-4.9
		c0-1.7,0.3-3.4,0.8-4.9c0.5-1.5,1.3-2.9,2.4-4c1-1.2,2.4-2.2,3.9-2.9c1.5-0.7,3.2-1,5.1-1s3.5,0.3,5.1,1c1.5,0.7,2.9,1.7,3.9,2.9
		s1.9,2.5,2.4,4C939.1,332.3,939.3,333.8,939.3,335.5 M958.7,350.3h9.8c1.9,0,3.7-0.3,5.6-0.8c1.9-0.7,3.5-1.5,5.1-2.9
		c1.5-1.2,2.7-2.9,3.5-4.6c0.8-1.7,1.3-4,1.3-6.4c0-2.5-0.5-4.6-1.3-6.4c-0.8-1.9-2.2-3.4-3.5-4.7c-1.5-1.2-3.2-2.2-5.1-2.9
		c-1.9-0.7-3.7-0.8-5.6-0.8h-9.8V350.3z M961.7,323.5h5.9c2.2,0,4.2,0.3,5.9,1c1.7,0.7,3,1.5,4.2,2.7c1.2,1.2,1.9,2.4,2.5,3.9
		c0.5,1.5,0.8,2.9,0.8,4.4c0,1.5-0.3,3-0.8,4.4c-0.5,1.5-1.3,2.7-2.5,3.9c-1.2,1.2-2.5,2-4.2,2.7c-1.7,0.7-3.5,1-5.9,1h-5.9V323.5z
		 M1021.7,339.4c0,1.2-0.2,2.5-0.5,3.9c-0.3,1.3-0.8,2.7-1.7,3.9c-0.8,1.2-1.9,2.2-3.4,2.9c-1.3,0.8-3.2,1.2-5.4,1.2s-4-0.3-5.4-1.2
		c-1.3-0.8-2.5-1.7-3.4-2.9c-0.8-1.2-1.3-2.5-1.7-3.9c-0.3-1.3-0.5-2.7-0.5-3.9v-18.5h3V339c0,1.3,0.2,2.7,0.3,3.7
		c0.3,1,0.7,1.9,1.2,2.5c0.5,0.7,1,1.2,1.5,1.7c0.5,0.3,1.2,0.7,1.7,1c0.5,0.2,1.2,0.3,1.7,0.5c0.5,0,1,0.2,1.3,0.2s0.8,0,1.3-0.2
		c0.5,0,1.2-0.2,1.7-0.5c0.5-0.2,1.2-0.5,1.7-1c0.5-0.3,1-1,1.5-1.7c0.5-0.7,0.8-1.5,1.2-2.5c0.3-1,0.3-2.2,0.3-3.7v-18.2h3v18.5
		H1021.7z M1064.2,345.8c-0.5,0.7-1.2,1.5-1.9,2.2c-0.7,0.7-1.5,1.2-2.5,1.7c-1,0.5-2,0.8-3,1.2c-1.2,0.3-2.2,0.3-3.5,0.3
		c-2.2,0-4.2-0.3-6.1-1.2c-1.9-0.8-3.5-1.9-4.9-3.2c-1.3-1.3-2.5-3-3.2-4.9c-0.8-1.9-1.2-4-1.2-6.2c0-2.2,0.3-4.4,1.2-6.2
		c0.8-1.9,1.9-3.5,3.2-4.9c1.3-1.3,3-2.5,4.9-3.2c1.9-0.8,3.9-1.2,6.1-1.2c1.9,0,3.7,0.3,5.6,1c1.9,0.7,3.4,1.9,4.7,3.5l-2.7,2
		c-0.3-0.5-0.7-1-1.2-1.3c-0.5-0.5-1.2-0.8-1.9-1.2c-0.7-0.3-1.3-0.7-2.2-0.8c-0.8-0.2-1.5-0.3-2.4-0.3c-1.9,0-3.5,0.3-5.1,1
		c-1.5,0.7-2.7,1.7-3.9,2.9c-1,1.2-1.9,2.5-2.4,4s-0.8,3.2-0.8,4.9c0,1.7,0.3,3.4,0.8,4.9s1.3,2.9,2.4,4c1,1.2,2.4,2.2,3.9,2.9
		c1.5,0.7,3.2,1,5.1,1c0.8,0,1.5,0,2.4-0.2c0.8-0.2,1.5-0.3,2.2-0.7c0.7-0.3,1.5-0.8,2-1.3c0.7-0.5,1.2-1.3,1.9-2.2L1064.2,345.8z
		 M1089.2,350.3h-3v-26.8h-9.9v-2.7h22.9v2.7h-9.9V350.3L1089.2,350.3z"/>
</g>
</svg>
